<svg width="10" height="14" viewBox="0 0 10 14" fill="none" xmlns="http://www.w3.org/2000/svg">
<path fill-rule="evenodd" clip-rule="evenodd" d="M5.00004 0.583389C6.28871 0.583389 7.33337 1.62806 7.33337 2.91672V7.00006C7.33337 8.28872 6.28871 9.33339 5.00004 9.33339C3.71138 9.33339 2.66671 8.28872 2.66671 7.00006V2.91672C2.66671 1.62806 3.71138 0.583389 5.00004 0.583389ZM5.58337 11.6306V12.2501H7.33337V13.4167H2.66671V12.2501H4.41671V11.6306C2.11469 11.3436 0.333374 9.37983 0.333374 7.00006V5.83339H1.50004V7.00006C1.50004 8.93305 3.06704 10.5001 5.00004 10.5001C6.93304 10.5001 8.50004 8.93305 8.50004 7.00006V5.83339H9.66671V7.00006C9.66671 9.37983 7.88539 11.3436 5.58337 11.6306ZM3.83337 2.91672C3.83337 2.27239 4.35571 1.75006 5.00004 1.75006C5.64437 1.75006 6.16671 2.27239 6.16671 2.91672V7.00006C6.16671 7.64439 5.64437 8.16672 5.00004 8.16672C4.35571 8.16672 3.83337 7.64439 3.83337 7.00006V2.91672Z" fill="#3E435B"/>
</svg>
