<svg width="32" height="33" viewBox="0 0 32 33" fill="none" xmlns="http://www.w3.org/2000/svg">
<path fill-rule="evenodd" clip-rule="evenodd" d="M28.9 1.53906H3.1C2.21634 1.53906 1.5 2.27408 1.5 3.18076V29.6531C1.5 30.5598 2.21634 31.2948 3.1 31.2948H17V19.7876H13.225V15.2831H17V11.969C17 8.12637 19.29 6.03321 22.63 6.03321C23.7555 6.03069 24.8804 6.08891 26 6.20764V10.2247H23.7C21.88 10.2247 21.525 11.1071 21.525 12.4102V15.278H25.875L25.31 19.7824H21.5V31.2948H28.9C29.7837 31.2948 30.5 30.5598 30.5 29.6531V3.18076C30.5 2.27408 29.7837 1.53906 28.9 1.53906Z" fill="#0B1237"/>
</svg>
