<svg width="32" height="33" viewBox="0 0 32 33" fill="none" xmlns="http://www.w3.org/2000/svg">
<path fill-rule="evenodd" clip-rule="evenodd" d="M10.0185 1.62808C11.5646 1.5557 12.0582 1.53857 15.995 1.53857C19.9317 1.53857 20.4253 1.5557 21.9714 1.62808C23.5143 1.70028 24.568 1.95173 25.49 2.31943C26.4432 2.69946 27.2516 3.20803 28.0575 4.03487C28.8633 4.86177 29.359 5.69122 29.7294 6.66926C30.0877 7.6153 30.3328 8.69649 30.4031 10.2796C30.4737 11.8659 30.4904 12.3724 30.4904 16.4118C30.4904 20.4511 30.4737 20.9576 30.4031 22.544C30.3328 24.127 30.0877 25.2082 29.7294 26.1543C29.359 27.1323 28.8633 27.9618 28.0575 28.7887C27.2516 29.6155 26.4432 30.1241 25.49 30.5042C24.568 30.8718 23.5143 31.1232 21.9714 31.1954C20.4253 31.2678 19.9317 31.2849 15.995 31.2849C12.0582 31.2849 11.5646 31.2678 10.0185 31.1954C8.47562 31.1232 7.4219 30.8718 6.49988 30.5042C5.54668 30.1241 4.73831 29.6155 3.9324 28.7887C3.12656 27.9618 2.63091 27.1323 2.26053 26.1543C1.90217 25.2082 1.65711 24.127 1.58674 22.544C1.5162 20.9576 1.49951 20.4511 1.49951 16.4118C1.49951 12.3724 1.5162 11.8659 1.58674 10.2796C1.65711 8.69649 1.90217 7.6153 2.26053 6.66926C2.63091 5.69122 3.12656 4.86177 3.9324 4.03487C4.73831 3.20803 5.54668 2.69946 6.49988 2.31943C7.4219 1.95173 8.47562 1.70028 10.0185 1.62808ZM24.5439 4.81726C24.0331 4.61357 23.2656 4.37128 21.8523 4.30515C20.3238 4.2336 19.8654 4.21842 15.995 4.21842C12.1245 4.21842 11.666 4.2336 10.1375 4.30515C8.72425 4.37128 7.95673 4.61357 7.44595 4.81726C6.76934 5.08707 6.28647 5.40936 5.77926 5.92985C5.27199 6.45028 4.95788 6.94574 4.69492 7.63998C4.49641 8.16407 4.26027 8.9516 4.19582 10.4017C4.12608 11.97 4.1113 12.4405 4.1113 16.4118C4.1113 20.3831 4.12608 20.8535 4.19582 22.4218C4.26027 23.8719 4.49641 24.6595 4.69492 25.1835C4.95788 25.8778 5.27204 26.3732 5.77926 26.8937C6.28647 27.4142 6.76934 27.7365 7.44595 28.0063C7.95673 28.21 8.72425 28.4522 10.1375 28.5184C11.6659 28.5899 12.1242 28.6051 15.995 28.6051C19.8657 28.6051 20.3241 28.5899 21.8523 28.5184C23.2656 28.4522 24.0331 28.21 24.5439 28.0063C25.2205 27.7365 25.7034 27.4142 26.2106 26.8937C26.7179 26.3732 27.032 25.8778 27.295 25.1835C27.4935 24.6595 27.7296 23.8719 27.7941 22.4218C27.8638 20.8535 27.8786 20.3831 27.8786 16.4118C27.8786 12.4405 27.8638 11.97 27.7941 10.4017C27.7296 8.9516 27.4935 8.16407 27.295 7.63998C27.032 6.94574 26.7179 6.45028 26.2106 5.92985C25.7034 5.40936 25.2205 5.08707 24.5439 4.81726ZM15.995 8.77418C11.8839 8.77418 8.55134 12.1936 8.55134 16.4118C8.55134 20.6299 11.8839 24.0493 15.995 24.0493C20.1059 24.0493 23.4385 20.6299 23.4385 16.4118C23.4385 12.1936 20.1059 8.77418 15.995 8.77418ZM11.1631 16.4118C11.1631 19.1499 13.3264 21.3695 15.995 21.3695C18.6635 21.3695 20.8267 19.1499 20.8267 16.4118C20.8267 13.6737 18.6635 11.454 15.995 11.454C13.3264 11.454 11.1631 13.6737 11.1631 16.4118ZM23.7326 10.2572C24.6933 10.2572 25.4721 9.45815 25.4721 8.47243C25.4721 7.48672 24.6933 6.68762 23.7326 6.68762C22.772 6.68762 21.9932 7.48672 21.9932 8.47243C21.9932 9.45815 22.772 10.2572 23.7326 10.2572Z" fill="#0B1237"/>
</svg>
