<svg width="32" height="33" viewBox="0 0 32 33" fill="none" xmlns="http://www.w3.org/2000/svg">
<path fill-rule="evenodd" clip-rule="evenodd" d="M26.2126 26.8943H21.9123V19.9876C21.9123 18.3412 21.8833 16.2235 19.676 16.2235C17.4396 16.2235 17.098 18.0188 17.098 19.8703V26.8943H12.801V12.6942H16.9224V14.6349H16.982C17.5572 13.5191 18.959 12.3421 21.0519 12.3421C25.4086 12.3421 26.2126 15.2813 26.2126 19.1065V26.8943ZM7.95125 10.7551C6.56884 10.7551 5.45389 9.60783 5.45389 8.19443C5.45389 6.78269 6.56884 5.63544 7.95125 5.63544C9.3256 5.63544 10.4438 6.78269 10.4438 8.19443C10.4438 9.60783 9.3256 10.7551 7.95125 10.7551ZM5.79546 26.8943H10.1022V12.6942H5.79546V26.8943ZM28.3539 1.53906H3.63806C2.45866 1.53906 1.5 2.49951 1.5 3.68478V29.1475C1.5 30.3327 2.45866 31.2948 3.63806 31.2948H28.3539C29.5365 31.2948 30.5 30.3327 30.5 29.1475V3.68478C30.5 2.49951 29.5365 1.53906 28.3539 1.53906Z" fill="#0B1237"/>
</svg>
