<svg width="32" height="33" viewBox="0 0 32 33" fill="none" xmlns="http://www.w3.org/2000/svg">
<path fill-rule="evenodd" clip-rule="evenodd" d="M10.2379 29.4661C21.9358 29.4661 28.3367 19.5126 28.3367 10.8956C28.3367 10.6156 28.3367 10.3355 28.3243 10.0555C29.5648 9.13908 30.6441 7.98081 31.5 6.6698C30.3587 7.19166 29.1307 7.53532 27.8405 7.70079C29.1555 6.89891 30.1603 5.61336 30.6441 4.08597C29.416 4.83693 28.0514 5.37152 26.6 5.66427C25.434 4.39145 23.7841 3.60229 21.9606 3.60229C18.45 3.60229 15.5968 6.52979 15.5968 10.1319C15.5968 10.641 15.6589 11.1374 15.7581 11.6211C10.4736 11.3538 5.78451 8.74451 2.64606 4.79875C2.10024 5.7661 1.79012 6.88618 1.79012 8.08264C1.79012 10.3483 2.91897 12.3466 4.61845 13.5176C3.57643 13.4794 2.59644 13.1867 1.7405 12.703C1.7405 12.7284 1.7405 12.7539 1.7405 12.7921C1.7405 15.9487 3.93617 18.5962 6.83894 19.1944C6.30552 19.3471 5.7473 19.4235 5.16427 19.4235C4.7549 19.4235 4.35794 19.3853 3.97339 19.3089C4.77971 21.9055 7.13665 23.7893 9.91537 23.8402C7.73209 25.5967 4.9906 26.6404 2.01341 26.6404C1.5048 26.6404 0.996198 26.615 0.5 26.5513C3.30352 28.3842 6.65286 29.4661 10.2379 29.4661Z" fill="#000CA0"/>
</svg>
