<svg width="12" height="11" viewBox="0 0 12 11" fill="none" xmlns="http://www.w3.org/2000/svg">
<path fill-rule="evenodd" clip-rule="evenodd" d="M8.81039 0.0379756C8.11508 0.0713063 7.44645 0.374617 6.92955 0.891243L4.90197 2.91775C5.22045 2.59778 6.40265 2.81776 6.68944 3.10441L7.91666 1.87783C8.18845 1.60619 8.5286 1.43953 8.87709 1.42454C9.11386 1.41287 9.44901 1.46287 9.74415 1.75784C10.0193 2.03282 10.0776 2.3528 10.0776 2.57111C10.0776 2.93609 9.91089 3.29939 9.62409 3.58437L7.4898 5.73087C6.95289 6.2675 6.13586 6.31083 5.66231 5.83753C5.39219 5.56755 4.94699 5.56588 4.67521 5.83753C4.40342 6.10917 4.40342 6.55247 4.67521 6.82412C5.16209 7.31075 5.80238 7.5574 6.46267 7.5574C7.17633 7.5574 7.90499 7.26575 8.46357 6.70413L10.6112 4.57096C11.1564 4.02767 11.4649 3.30106 11.4649 2.57111C11.4649 1.89283 11.2081 1.24788 10.7313 0.771252C10.221 0.261292 9.53572 0.00464479 8.81039 0.0379756ZM5.50224 3.47771C4.78859 3.47771 4.04826 3.77102 3.48801 4.33098L1.35372 6.46415C0.808472 7.00744 0.5 7.73405 0.5 8.46399C0.5 9.14228 0.756782 9.78723 1.23366 10.2639C1.74389 10.7738 2.4292 11.0305 3.15452 10.9971C3.84984 10.9638 4.51847 10.6605 5.03537 10.1439L7.06294 8.11735C6.7428 8.43733 5.56227 8.21735 5.27548 7.9307L4.04826 9.15727C3.77647 9.42892 3.43632 9.59391 3.08783 9.61057C2.85105 9.62224 2.5159 9.57224 2.22077 9.27726C1.94565 9.00229 1.88729 8.68064 1.88729 8.46399C1.88729 8.09902 2.05403 7.73572 2.34083 7.45074L4.47512 5.30424C5.01202 4.76761 5.82906 4.72595 6.3026 5.19758C6.57439 5.46922 7.01959 5.46922 7.28971 5.19758C7.5615 4.92593 7.5615 4.48263 7.28971 4.21099C6.80283 3.72436 6.16087 3.47771 5.50224 3.47771Z" fill="#0B1237"/>
</svg>
