<?xml version="1.0" encoding="UTF-8"?>
<svg width="29px" height="29px" viewBox="0 0 29 29" version="1.1" xmlns="http://www.w3.org/2000/svg" xmlns:xlink="http://www.w3.org/1999/xlink">
    <title>Artboard</title>
    <g id="Artboard" stroke="none" stroke-width="1" fill="none" fill-rule="evenodd">
        <g id="5305164_play_video_youtube_youtube-logo_icon" transform="translate(0, 4)" fill="#0B1237">
            <path d="M28.3941707,3.16989877 C28.0607267,1.92210336 27.0781232,0.939556523 25.8303278,0.606055871 C23.5685499,0 14.5000283,0 14.5000283,0 C14.5000283,0 5.43145006,0 3.16967221,0.606055871 C1.92210336,0.939556523 0.93932996,1.92210336 0.605885949,3.16989877 C0,5.43145006 0,10.1501897 0,10.1501897 C0,10.1501897 0,14.8688162 0.605885949,17.1301409 C0.93932996,18.3779363 1.92210336,19.3607663 3.16967221,19.6942103 C5.43145006,20.3000396 14.5000283,20.3000396 14.5000283,20.3000396 C14.5000283,20.3000396 23.5685499,20.3000396 25.8303278,19.6942103 C27.0781232,19.3607663 28.0607267,18.3779363 28.3941707,17.1301409 C29,14.8688162 29,10.1501897 29,10.1501897 C29,10.1501897 29,5.43145006 28.3941707,3.16989877 Z M11.5998527,14.5002549 L11.5998527,5.80006797 L19.1341467,10.1501897 L11.5998527,14.5002549 Z" id="Shape"></path>
        </g>
    </g>
</svg>
