<?xml version="1.0" encoding="UTF-8"?><svg xmlns="http://www.w3.org/2000/svg" viewBox="0 0 235.6 70.8"><path d="M73,46.1v-16.3h-.1c-.6.5-2.7.6-3.6.6h-1.6v.1c1.8,1.1,1.6,2.8,1.6,4.8v6.9c0,3.5-3.4,5.9-6.1,5.9-3.6,0-5.1-2.6-5.1-6.7v-11.6h-.1c-.6.5-2.7.6-3.7.6h-1.6v.1c1.8,1.1,1.6,2.8,1.6,4.8v6.9c0,6.3,2.7,9.3,7.6,9.3,2.9,0,5.9-1,7.4-3.5v3h5.3v-.1c-1.8-1.1-1.6-2.7-1.6-4.8Z" fill="#000" stroke-width="0"/><path d="M81.3,37.4c.5-2.8,2.6-4.6,5.4-4.6,3,0,4.9,1.5,5.4,4.6h-10.8ZM96.4,40c.2-5.8-3.7-10.1-9.3-10.1-6.2,0-10.4,4.5-10.4,10.7s4.9,11,11.9,11c2,0,3.9-.3,5.7-1.1l2.1-4.2h-.1c-1.9,1.6-4.3,2.4-6.8,2.4-4.7,0-8.2-3.2-8.3-8.7h15.2Z" fill="#000" stroke-width="0"/><path d="M99.7,20.3c1,0,3-.1,3.6-.7h.1v28.3c1.1.3,2.3.5,3.4.5,4.5,0,7.1-3.2,7.1-7.6s-2-7.7-6.2-7.7c-1.3,0-2.3.4-3.5,1l2.2-3.8c.9-.4,1.9-.5,2.9-.5,4.7,0,8.7,4.1,8.7,10.2,0,7-4.7,11.5-12.2,11.5-2.8,0-5.5-.5-7.5-.8v-.1c1.4-.6,1.2-2.1,1.2-3.6v-20.5c0-2.1.2-5-1.5-6.1v-.1h1.7Z" fill="#000" stroke-width="0"/><path d="M125.6,37.4c.5-2.8,2.6-4.6,5.4-4.6,3,0,4.9,1.5,5.4,4.6h-10.8ZM140.6,40c.2-5.8-3.7-10.1-9.3-10.1-6.2,0-10.4,4.5-10.4,10.7s4.9,11,11.9,11c2,0,3.9-.3,5.7-1.1l2.1-4.2h-.1c-1.9,1.6-4.3,2.4-6.8,2.4-4.7,0-8.2-3.2-8.3-8.7h15.2Z" fill="#000" stroke-width="0"/><path d="M159.2,35h-.1c-1.2-1.5-3.2-2.2-5.1-2.2-4,0-6.9,3.1-6.9,7.3,0,5.2,4,8.6,8.6,8.6,2.1,0,4.4-.9,6.1-2.2h.1l-2.2,4.2c-1.7.7-3.7.9-5.5.9-6.4,0-11.4-4.5-11.4-10.3,0-7.7,5.6-11.4,11.8-11.4,1.5,0,3,.2,4.5.5v4.6h.1Z" fill="#000" stroke-width="0"/><path d="M91.2,26.2v-4.5c-2.7,1.2-5.2,3.5-6.9,5.7v1.8c4-2.8,6.9-2.9,6.9-3Z" fill="#000" fill-rule="evenodd" stroke-width="0"/><path d="M35.6,48.5c-6.3,0-10.6-7.1-10.6-13.1v-.7c.1-5.8,3.8-11.3,10.4-11.3s10.5,6.5,10.5,12.7v.6c0,6.8-4.1,11.8-10.3,11.8ZM57.1,55.4c-4.6.8-9.1-.7-13.8-6.1,4.6-2.3,7.4-8,7.4-13.3v-.7c-.1-9.1-6.9-15.1-15-15.1s-15.3,6.2-15.4,15.4v.6c0,8.9,6.6,15.5,14.7,15.5,1.2,0,2.3-.2,3.4-.5,5.3,5,10,7.1,14.1,6.6,1.9-.2,4-1,5.2-2.6l-.6.2Z" fill="#000" stroke-width="0"/><path d="M169.3,20.3v12.4h20.2v-12.4h-20.2ZM184.2,27.5c-.2.7-.7,1-.8,1,0,0,.2-.9-.4-1.3-.6-.4-1.3-.2-1.6.3s-.4,1.1-.4,1.1h1.1v.8h-2.1s0,1.1,1.2,1c0,0-.1.9-1.2.4,0,0,0,.9-.7,1.4-.8-.5-.7-1.4-.7-1.4-1.1.5-1.2-.4-1.2-.4,1.1.1,1.2-1,1.2-1h-2.1v-.8h1.1s-.1-.6-.4-1.1-1-.7-1.6-.3c-.6.5-.4,1.3-.4,1.3-.1,0-.6-.2-.8-1-.4-1.5,1-2.9,2.5-2.1,1.1.5,1.5,1.8,1.5,3.2h.6c0,.1.1-1.1-.1-1.9-.1-.6-.3-1.2-.7-1.9-.3-.6-.4-1.7.2-2.5.5-.7.9-1.1,1-1.4.2.3.5.7.8,1.4.6.8.5,1.9.2,2.5-.3.7-.5,1.3-.7,1.9-.2.9-.1,2-.1,1.9h.6c0-1.3.5-2.6,1.5-3.2,1.5-.8,3,.6,2.5,2.1Z" fill="#325ea8" fill-rule="evenodd" stroke-width="0"/><path d="M195.5,20.3v12.4h20.2v-12.4h-20.2ZM210.4,27.5c-.3.7-.7,1-.8,1,0,0,.2-.9-.4-1.3-.6-.4-1.3-.2-1.6.3-.3.5-.4,1.1-.4,1.1h1.1v.8h-2.1s0,1.1,1.2,1c0,0-.1.9-1.2.4,0,0,0,.9-.7,1.4-.8-.5-.7-1.4-.7-1.4-1.1.5-1.2-.4-1.2-.4,1.1.1,1.2-1,1.2-1h-2.1v-.8h1.1s-.1-.6-.4-1.1-1-.7-1.6-.3c-.6.5-.4,1.3-.4,1.3-.1,0-.6-.2-.8-1-.4-1.5,1-2.9,2.5-2.1,1.1.5,1.5,1.8,1.5,3.2h.6c0,.1.1-1.1-.1-1.9-.1-.6-.3-1.2-.7-1.9-.3-.6-.4-1.7.2-2.5.5-.7.8-1.1,1-1.4.1.3.5.7,1,1.4.6.8.5,1.9.2,2.5-.3.7-.5,1.3-.7,1.9-.2.9-.1,2-.1,1.9h.4c0-1.3.5-2.6,1.5-3.2,1.5-.8,3,.6,2.5,2.1Z" fill="#325ea8" fill-rule="evenodd" stroke-width="0"/><path d="M169.3,38.6v12.4h20.2v-12.4h-20.2ZM184.2,45.8c-.2.7-.7,1-.8,1,0,0,.2-.9-.4-1.3-.6-.4-1.3-.2-1.6.3s-.4,1.1-.4,1.1h1.1v.8h-2.1s0,1.1,1.2,1c0,0-.1.9-1.2.4,0,0,0,.9-.7,1.4-.8-.5-.7-1.4-.7-1.4-1.1.5-1.2-.4-1.2-.4,1.1.1,1.2-1,1.2-1h-2.1v-.8h1.1s-.1-.6-.4-1.1-1-.7-1.6-.3c-.6.5-.4,1.3-.4,1.3-.1,0-.6-.2-.8-1-.4-1.5,1-2.9,2.5-2.1,1.1.5,1.5,1.8,1.5,3.2h.6c0,.1.1-1.1-.1-1.9-.1-.6-.3-1.2-.7-1.9-.3-.6-.4-1.7.2-2.5.5-.7.9-1.1,1-1.4.2.3.5.7.8,1.4.6.8.5,1.9.2,2.5-.3.7-.5,1.3-.7,1.9-.2.9-.1,2-.1,1.9h.6c0-1.3.5-2.6,1.5-3.2,1.5-.8,3,.6,2.5,2.1Z" fill="#325ea8" fill-rule="evenodd" stroke-width="0"/><path d="M195.5,38.6v12.4h20.2v-12.4h-20.2ZM210.4,45.8c-.3.7-.7,1-.8,1,0,0,.2-.9-.4-1.3-.6-.4-1.3-.2-1.6.3-.3.5-.4,1.1-.4,1.1h1.1v.8h-2.1s0,1.1,1.2,1c0,0-.1.9-1.2.4,0,0,0,.9-.7,1.4-.8-.5-.7-1.4-.7-1.4-1.1.5-1.2-.4-1.2-.4,1.1.1,1.2-1,1.2-1h-2.1v-.8h1.1s-.1-.6-.4-1.1-1-.7-1.6-.3c-.6.5-.4,1.3-.4,1.3-.1,0-.6-.2-.8-1-.4-1.5,1-2.9,2.5-2.1,1.1.5,1.5,1.8,1.5,3.2h.6c0,.1.1-1.1-.1-1.9-.1-.6-.3-1.2-.7-1.9-.3-.6-.4-1.7.2-2.5.5-.7.8-1.1,1-1.4.1.3.5.7,1,1.4.6.8.5,1.9.2,2.5-.3.7-.5,1.3-.7,1.9-.2.9-.1,2-.1,1.9h.4c0-1.3.5-2.6,1.5-3.2,1.5-.8,3,.6,2.5,2.1Z" fill="#325ea8" fill-rule="evenodd" stroke-width="0"/><rect width="235.9" height="71.2" fill="none" stroke-width="0"/></svg>