<?xml version="1.0" encoding="utf-8"?>
<!-- Generator: Adobe Illustrator 25.3.0, SVG Export Plug-In . SVG Version: 6.00 Build 0)  -->
<svg version="1.1" id="Calque_1" xmlns="http://www.w3.org/2000/svg" xmlns:xlink="http://www.w3.org/1999/xlink" x="0px" y="0px"
	 viewBox="0 0 235.6 70.8" style="enable-background:new 0 0 235.6 70.8;" xml:space="preserve">
<desc>Signature du gouvernement du Québec</desc>
<metadata><?xpacket begin="﻿" id="W5M0MpCehiHzreSzNTczkc9d"?>
<x:xmpmeta xmlns:x="adobe:ns:meta/" x:xmptk="Adobe XMP Core 7.0-c000 79.dcf59f3, 2021/07/24-00:42:40        ">
   <rdf:RDF xmlns:rdf="http://www.w3.org/1999/02/22-rdf-syntax-ns#">
      <rdf:Description rdf:about=""
            xmlns:dc="http://purl.org/dc/elements/1.1/"
            xmlns:xmp="http://ns.adobe.com/xap/1.0/"
            xmlns:xmpMM="http://ns.adobe.com/xap/1.0/mm/"
            xmlns:stEvt="http://ns.adobe.com/xap/1.0/sType/ResourceEvent#"
            xmlns:xmpRights="http://ns.adobe.com/xap/1.0/rights/">
         <dc:description>
            <rdf:Alt>
               <rdf:li xml:lang="x-default">Signature du gouvernement du Québec</rdf:li>
            </rdf:Alt>
         </dc:description>
         <dc:rights>
            <rdf:Alt>
               <rdf:li xml:lang="x-default">© Gouvernement du Québec, 2001</rdf:li>
            </rdf:Alt>
         </dc:rights>
         <xmp:MetadataDate>2021-10-15T11:02:01-04:00</xmp:MetadataDate>
         <xmpMM:InstanceID>xmp.iid:ac06a155-481e-804d-9388-a119169aca5b</xmpMM:InstanceID>
         <xmpMM:DocumentID>xmp.did:c2544dcb-c914-2047-b37f-60f734aa2c64</xmpMM:DocumentID>
         <xmpMM:OriginalDocumentID>xmp.did:c2544dcb-c914-2047-b37f-60f734aa2c64</xmpMM:OriginalDocumentID>
         <xmpMM:History>
            <rdf:Seq>
               <rdf:li>
                  <rdf:Description>
                     <stEvt:action>saved</stEvt:action>
                     <stEvt:instanceID>xmp.iid:c2544dcb-c914-2047-b37f-60f734aa2c64</stEvt:instanceID>
                     <stEvt:when>2021-10-15T11:01:23-04:00</stEvt:when>
                     <stEvt:softwareAgent>Adobe Bridge 2021 (Windows)</stEvt:softwareAgent>
                     <stEvt:changed>/metadata</stEvt:changed>
                  </rdf:Description>
               </rdf:li>
               <rdf:li>
                  <rdf:Description>
                     <stEvt:action>saved</stEvt:action>
                     <stEvt:instanceID>xmp.iid:ac06a155-481e-804d-9388-a119169aca5b</stEvt:instanceID>
                     <stEvt:when>2021-10-15T11:02:01-04:00</stEvt:when>
                     <stEvt:softwareAgent>Adobe Bridge 2021 (Windows)</stEvt:softwareAgent>
                     <stEvt:changed>/metadata</stEvt:changed>
                  </rdf:Description>
               </rdf:li>
            </rdf:Seq>
         </xmpMM:History>
         <xmpRights:Marked>True</xmpRights:Marked>
      </rdf:Description>
   </rdf:RDF>
</x:xmpmeta>
                                                                                                    
                                                                                                    
                                                                                                    
                                                                                                    
                                                                                                    
                                                                                                    
                                                                                                    
                                                                                                    
                                                                                                    
                                                                                                    
                                                                                                    
                                                                                                    
                                     
<?xpacket end="w"?></metadata>
<style type="text/css">
	.st0{fill-rule:evenodd;clip-rule:evenodd;}
	.st1{fill-rule:evenodd;clip-rule:evenodd;fill:#FFFFFF;}
	.st2{fill:none;}
</style>
<g>
	<g>
		<g>
			<path d="M73,46.1V29.8h-0.1c-0.6,0.5-2.7,0.6-3.6,0.6h-1.6v0.1c1.8,1.1,1.6,2.8,1.6,4.8v6.9c0,3.5-3.4,5.9-6.1,5.9
				c-3.6,0-5.1-2.6-5.1-6.7V29.8H58c-0.6,0.5-2.7,0.6-3.7,0.6h-1.6v0.1c1.8,1.1,1.6,2.8,1.6,4.8v6.9c0,6.3,2.7,9.3,7.6,9.3
				c2.9,0,5.9-1,7.4-3.5v3h5.3v-0.1C72.8,49.8,73,48.2,73,46.1z"/>
			<path d="M81.3,37.4c0.5-2.8,2.6-4.6,5.4-4.6c3,0,4.9,1.5,5.4,4.6H81.3z M96.4,40c0.2-5.8-3.7-10.1-9.3-10.1
				c-6.2,0-10.4,4.5-10.4,10.7c0,6.3,4.9,11,11.9,11c2,0,3.9-0.3,5.7-1.1l2.1-4.2h-0.1c-1.9,1.6-4.3,2.4-6.8,2.4
				c-4.7,0-8.2-3.2-8.3-8.7C81.2,40,96.4,40,96.4,40z"/>
			<path d="M99.7,20.3c1,0,3-0.1,3.6-0.7h0.1v28.3c1.1,0.3,2.3,0.5,3.4,0.5c4.5,0,7.1-3.2,7.1-7.6c0-4.3-2-7.7-6.2-7.7
				c-1.3,0-2.3,0.4-3.5,1l2.2-3.8c0.9-0.4,1.9-0.5,2.9-0.5c4.7,0,8.7,4.1,8.7,10.2c0,7-4.7,11.5-12.2,11.5c-2.8,0-5.5-0.5-7.5-0.8
				v-0.1c1.4-0.6,1.2-2.1,1.2-3.6V26.5c0-2.1,0.2-5-1.5-6.1v-0.1H99.7z"/>
			<path d="M125.6,37.4c0.5-2.8,2.6-4.6,5.4-4.6c3,0,4.9,1.5,5.4,4.6H125.6z M140.6,40c0.2-5.8-3.7-10.1-9.3-10.1
				c-6.2,0-10.4,4.5-10.4,10.7c0,6.3,4.9,11,11.9,11c2,0,3.9-0.3,5.7-1.1l2.1-4.2h-0.1c-1.9,1.6-4.3,2.4-6.8,2.4
				c-4.7,0-8.2-3.2-8.3-8.7C125.4,40,140.6,40,140.6,40z"/>
			<path d="M159.2,35h-0.1c-1.2-1.5-3.2-2.2-5.1-2.2c-4,0-6.9,3.1-6.9,7.3c0,5.2,4,8.6,8.6,8.6c2.1,0,4.4-0.9,6.1-2.2h0.1l-2.2,4.2
				c-1.7,0.7-3.7,0.9-5.5,0.9c-6.4,0-11.4-4.5-11.4-10.3c0-7.7,5.6-11.4,11.8-11.4c1.5,0,3,0.2,4.5,0.5V35H159.2z"/>
			<path class="st0" d="M91.2,26.2c0-2.1,0-4.5,0-4.5c-2.7,1.2-5.2,3.5-6.9,5.7v1.8C88.3,26.4,91.2,26.3,91.2,26.2z"/>
			<path d="M35.6,48.5c-6.3,0-10.6-7.1-10.6-13.1c0-0.1,0-0.6,0-0.7c0.1-5.8,3.8-11.3,10.4-11.3c6.9,0,10.5,6.5,10.5,12.7v0.6
				C45.9,43.5,41.8,48.5,35.6,48.5z M57.1,55.4c-4.6,0.8-9.1-0.7-13.8-6.1c4.6-2.3,7.4-8,7.4-13.3c0-0.1,0-0.6,0-0.7
				c-0.1-9.1-6.9-15.1-15-15.1s-15.3,6.2-15.4,15.4v0.6c0,8.9,6.6,15.5,14.7,15.5c1.2,0,2.3-0.2,3.4-0.5c5.3,5,10,7.1,14.1,6.6
				c1.9-0.2,4-1,5.2-2.6L57.1,55.4z"/>
		</g>
	</g>
	<g>
		<g>
			<g>
				<rect x="169.3" y="20.3" class="st0" width="20.2" height="12.4"/>
			</g>
		</g>
		<path class="st1" d="M179.4,20.9c-0.1,0.3-0.5,0.7-1,1.4c-0.6,0.8-0.5,1.9-0.2,2.5c0.4,0.7,0.6,1.3,0.7,1.9c0.2,0.8,0.1,2,0.1,1.9
			h-0.6c0-1.4-0.4-2.7-1.5-3.2c-1.5-0.8-2.9,0.6-2.5,2.1c0.2,0.8,0.7,1,0.8,1c0,0-0.2-0.8,0.4-1.3c0.6-0.4,1.3-0.2,1.6,0.3
			s0.4,1.1,0.4,1.1h-1.1v0.8h2.1c0,0-0.1,1.1-1.2,1c0,0,0.1,0.9,1.2,0.4c0,0-0.1,0.9,0.7,1.4l0,0l0,0c0.7-0.5,0.7-1.4,0.7-1.4
			c1.1,0.5,1.2-0.4,1.2-0.4c-1.2,0.1-1.2-1-1.2-1h2.1v-0.8H181c0,0,0.1-0.6,0.4-1.1c0.3-0.5,1-0.7,1.6-0.3c0.6,0.4,0.4,1.3,0.4,1.3
			c0.1,0,0.6-0.3,0.8-1c0.5-1.5-1-2.9-2.5-2.1c-1,0.6-1.5,1.9-1.5,3.2h-0.6c0,0.1-0.1-1,0.1-1.9c0.2-0.6,0.4-1.2,0.7-1.9
			c0.3-0.6,0.4-1.7-0.2-2.5C179.9,21.6,179.6,21.2,179.4,20.9z"/>
		<g>
			<g>
				<rect x="195.5" y="20.3" class="st0" width="20.2" height="12.4"/>
			</g>
		</g>
		<path class="st1" d="M205.6,20.9c-0.2,0.3-0.5,0.7-1,1.4c-0.6,0.8-0.5,1.9-0.2,2.5c0.4,0.7,0.6,1.3,0.7,1.9c0.2,0.8,0.1,2,0.1,1.9
			h-0.6c0-1.4-0.4-2.7-1.5-3.2c-1.5-0.8-2.9,0.6-2.5,2.1c0.2,0.8,0.7,1,0.8,1c0,0-0.2-0.8,0.4-1.3c0.6-0.4,1.3-0.2,1.6,0.3
			s0.4,1.1,0.4,1.1h-1.1v0.8h2.1c0,0-0.1,1.1-1.2,1c0,0,0.1,0.9,1.2,0.4c0,0-0.1,0.9,0.7,1.4l0,0l0,0c0.7-0.5,0.7-1.4,0.7-1.4
			c1.1,0.5,1.2-0.4,1.2-0.4c-1.2,0.1-1.2-1-1.2-1h2.1v-0.8h-1.1c0,0,0.1-0.6,0.4-1.1c0.3-0.5,1-0.7,1.6-0.3c0.6,0.4,0.4,1.3,0.4,1.3
			c0.1,0,0.5-0.3,0.8-1c0.5-1.5-1-2.9-2.5-2.1c-1,0.6-1.5,1.9-1.5,3.2H206c0,0.1-0.1-1,0.1-1.9c0.2-0.6,0.4-1.2,0.7-1.9
			c0.3-0.6,0.4-1.7-0.2-2.5C206.1,21.6,205.7,21.2,205.6,20.9z"/>
	</g>
	<g>
		<g>
			<g>
				<rect x="169.3" y="38.6" class="st0" width="20.2" height="12.4"/>
			</g>
		</g>
		<path class="st1" d="M179.4,39.2c-0.1,0.3-0.5,0.7-1,1.4c-0.6,0.8-0.5,1.9-0.2,2.5c0.4,0.7,0.6,1.3,0.7,1.9c0.2,0.8,0.1,2,0.1,1.9
			h-0.6c0-1.4-0.4-2.7-1.5-3.2c-1.5-0.8-2.9,0.6-2.5,2.1c0.2,0.8,0.7,1,0.8,1c0,0-0.2-0.8,0.4-1.3c0.6-0.4,1.3-0.2,1.6,0.3
			s0.4,1.1,0.4,1.1h-1.1v0.8h2.1c0,0-0.1,1.1-1.2,1c0,0,0.1,0.9,1.2,0.4c0,0-0.1,0.9,0.7,1.4l0,0l0,0c0.7-0.5,0.7-1.4,0.7-1.4
			c1.1,0.5,1.2-0.4,1.2-0.4c-1.2,0.1-1.2-1-1.2-1h2.1v-0.8H181c0,0,0.1-0.6,0.4-1.1c0.3-0.5,1-0.7,1.6-0.3s0.4,1.3,0.4,1.3
			c0.1,0,0.6-0.3,0.8-1c0.5-1.5-1-2.9-2.5-2.1c-1,0.6-1.5,1.9-1.5,3.2h-0.6c0,0.1-0.1-1,0.1-1.9c0.2-0.6,0.4-1.2,0.7-1.9
			c0.3-0.6,0.4-1.7-0.2-2.5C179.9,39.9,179.6,39.5,179.4,39.2z"/>
		<g>
			<g>
				<rect x="195.5" y="38.6" class="st0" width="20.2" height="12.4"/>
			</g>
		</g>
		<path class="st1" d="M205.6,39.2c-0.2,0.3-0.5,0.7-1,1.4c-0.6,0.8-0.5,1.9-0.2,2.5c0.4,0.7,0.6,1.3,0.7,1.9c0.2,0.8,0.1,2,0.1,1.9
			h-0.6c0-1.4-0.4-2.7-1.5-3.2c-1.5-0.8-2.9,0.6-2.5,2.1c0.2,0.8,0.7,1,0.8,1c0,0-0.2-0.8,0.4-1.3c0.6-0.4,1.3-0.2,1.6,0.3
			s0.4,1.1,0.4,1.1h-1.1v0.8h2.1c0,0-0.1,1.1-1.2,1c0,0,0.1,0.9,1.2,0.4c0,0-0.1,0.9,0.7,1.4l0,0l0,0c0.7-0.5,0.7-1.4,0.7-1.4
			c1.1,0.5,1.2-0.4,1.2-0.4c-1.2,0.1-1.2-1-1.2-1h2.1v-0.8h-1.1c0,0,0.1-0.6,0.4-1.1c0.3-0.5,1-0.7,1.6-0.3s0.4,1.3,0.4,1.3
			c0.1,0,0.5-0.3,0.8-1c0.5-1.5-1-2.9-2.5-2.1c-1,0.6-1.5,1.9-1.5,3.2H206c0,0.1-0.1-1,0.1-1.9c0.2-0.6,0.4-1.2,0.7-1.9
			c0.3-0.6,0.4-1.7-0.2-2.5C206.1,39.9,205.7,39.5,205.6,39.2z"/>
	</g>
</g>
<rect class="st2" width="235.9" height="71.2"/>
</svg>
