<?xml version="1.0" encoding="UTF-8"?>
<svg width="322px" height="254px" viewBox="0 0 322 254" version="1.1" xmlns="http://www.w3.org/2000/svg" xmlns:xlink="http://www.w3.org/1999/xlink">
    <!-- Generator: Sketch 59.1 (86144) - https://sketch.com -->
    <title>Artboard Copy</title>
    <desc>Created with Sketch.</desc>
    <g id="Artboard-Copy" stroke="none" stroke-width="1" fill="none" fill-rule="evenodd">
        <g id="3" transform="translate(85.000000, 28.000000)" fill-rule="nonzero">
            <polygon id="Path" stroke="#000CA0" stroke-width="4" fill="#EBEBEB" stroke-linecap="round" stroke-linejoin="round" points="23.332 197.646 23.332 190.037 15.6755 190.037 15.6755 182.433 8.01894 182.433 8.01894 167.215 0.36243 167.215 0.36243 114.477 8.01894 114.477 8.01894 106.868 30.9839 106.868 30.9839 91.1317 8.01894 91.1317 8.01894 15.5715 15.6755 15.5715 15.6755 0.35388 152.957 0.35388 152.957 53.0921 145.3 53.0921 145.3 60.7009 137.644 60.7009 137.644 68.3097 129.987 68.3097 129.987 68.8287 145.3 68.8287 145.3 76.4376 152.957 76.4376 152.957 174.824 145.3 174.824 145.3 182.433 137.644 182.433 137.644 190.037 129.987 190.037 129.987 197.646"></polygon>
            <polygon id="Path" fill="#000CA0" points="107.281 175.081 46.0381 175.081 46.0381 167.473 38.3816 167.473 38.3816 159.864 30.7251 159.864 30.7251 144.646 23.0686 144.646 23.0686 137.037 30.7251 137.037 30.7251 129.429 53.6947 129.429 53.6947 144.646 46.0381 144.646 46.0381 152.255 53.6947 152.255 53.6947 159.864 61.3512 159.864 61.3512 167.473 84.3207 167.473 84.3207 159.864 91.9772 159.864 91.9772 152.259 99.634 152.259 99.634 114.215 91.9772 114.215 91.9772 106.607 76.6642 106.607 76.6642 98.9977 53.6947 98.9977 53.6947 91.3889 61.3512 91.3889 61.3512 83.7801 69.0077 83.7801 69.0077 76.1713 76.6642 76.1713 76.6642 68.5625 84.3207 68.5625 84.3207 60.9536 91.9772 60.9536 91.9772 53.3448 99.634 53.3448 99.634 45.736 107.29 45.736 107.29 38.1362 99.634 38.1362 99.634 45.745 53.6901 45.745 53.6901 53.3539 46.0336 53.3539 46.0336 60.9627 38.3816 60.9627 38.3816 68.5715 30.7251 68.5715 30.7251 38.1362 38.3816 38.1362 38.3816 22.9186 130.251 22.9186 130.251 30.5274 122.594 30.5274 122.594 38.1362 114.938 38.1362 114.938 45.745 107.281 45.745 107.281 60.9627 99.625 60.9627 99.625 68.5715 91.9681 68.5715 91.9681 76.1803 84.3116 76.1803 84.3116 83.7891 107.281 83.7891 107.281 91.3979 122.594 91.3979 122.594 99.007 130.251 99.007 130.251 152.259 122.594 152.259 122.594 159.868 114.938 159.868 114.938 167.477 107.281 167.477"></polygon>
        </g>
    </g>
</svg>