<?xml version="1.0" encoding="UTF-8"?>
<svg width="322px" height="254px" viewBox="0 0 322 254" version="1.1" xmlns="http://www.w3.org/2000/svg" xmlns:xlink="http://www.w3.org/1999/xlink">
    <!-- Generator: Sketch 59.1 (86144) - https://sketch.com -->
    <title>Artboard Copy 2</title>
    <desc>Created with Sketch.</desc>
    <g id="Artboard-Copy-2" stroke="none" stroke-width="1" fill="none" fill-rule="evenodd">
        <g id="50" transform="translate(4.000000, 6.000000)" fill-rule="nonzero">
            <polygon id="Path" stroke="#000CA0" stroke-width="4" fill="#EBEBEB" stroke-linecap="round" stroke-linejoin="round" points="307.558357 108.820412 312.292289 86.5523057 304.84528 84.9695305 306.4229 77.5468641 298.976964 75.9640889 300.554584 68.5414225 293.108648 66.9587546 294.685195 59.5404884 287.239259 57.9577132 288.816879 50.5350468 192.533782 30.0691878 190.955089 37.4918542 183.509154 35.9091863 181.932607 43.3274524 174.486671 41.7446772 172.909052 49.1673436 172.40035 49.0593783 180.288448 11.9504467 128.677747 0.980165867 127.100127 8.40283222 119.653118 6.82005699 118.075498 14.2427233 51.0688378 0 41.6034415 44.531598 34.1571838 42.9488227 21.5363335 102.325324 14.0900758 100.743407 0 167.031511 7.44615038 168.614501 4.29072852 183.460263 19.1831044 186.625169 17.6053774 194.048587 113.888903 214.513695 115.466523 207.09135 130.355175 210.256257 131.932795 202.832839 139.37873 204.415829 140.95635 196.993485 141.463979 197.100806 139.886359 204.524224 147.333368 206.10614 145.754675 213.529558 153.201684 215.111475 151.624064 222.534892 247.907161 243 249.484781 235.577656 256.931789 237.160645 258.509409 229.738301 265.955345 231.320218 267.532965 223.897873 274.9789 225.480863 276.555447 218.062812 284.002456 219.644728 290.312935 189.954278 297.754577 191.536194 315 110.402329"></polygon>
            <polygon id="Path" fill="#000CA0" points="80.5415494 44.9942962 73.0817697 43.4125073 65.1797768 80.4983129 117.392967 91.5696551 115.812482 98.987374 130.732472 102.151381 129.151987 109.5691 136.611444 111.151103 133.450475 125.986541 140.909932 127.568544 133.007509 164.654993 125.548052 163.07299 122.387083 177.908427 114.927626 176.327497 113.346066 183.745215 98.4270441 180.581209 96.846452 188 44.6373478 176.929194 46.2179399 169.511475 31.298488 166.347468 34.4596722 151.512031 27 149.930027 31.7417763 127.675798 54.1209004 132.420736 52.5403083 139.839527 60.000088 141.420458 58.4193884 148.83925 50.9597162 147.257246 47.798532 162.093756 55.2582042 163.674687 53.6776121 171.093479 83.5121078 177.419347 85.0926999 170.001628 92.5523721 171.582559 94.1329642 164.16484 101.592421 165.746843 109.494844 128.660394 102.035387 127.079464 103.615872 119.660672 96.155877 118.079741 97.7364691 110.66095 45.5229568 99.590144 51.8443575 69.9220573 59.3041372 71.5038462 68.7867222 27 135.920116 41.2348127 137.500601 33.8167721 144.960058 35.3985609 146.540543 27.9805203 154 29.5623092 146.098652 66.6481148 78.9609573 52.4122295"></polygon>
            <path d="M230.275851,217 L178.173488,205.887715 L179.750592,198.442926 L172.30709,196.855149 L173.884194,189.41036 L166.440693,187.822583 L168.017797,180.377793 L160.574296,178.790017 L162.151399,171.345227 L154.71219,169.758527 L159.443501,147.423082 L152,145.835305 L159.884447,108.614587 L167.329021,110.202364 L173.636364,80.4260052 L181.079865,82.0134591 L182.658042,74.5683467 L190.101543,76.1559082 L191.678647,68.7107959 L199.122148,70.2983574 L200.699252,62.853245 L208.142753,64.4406989 L209.719857,57 L261.821148,68.1117465 L260.244044,75.5568589 L267.687545,77.1444204 L266.110441,84.5895328 L273.555016,86.1770943 L271.976839,93.6216684 L279.421413,95.2094453 L277.844309,102.655311 L285.28781,104.242011 L280.555426,126.577456 L288,128.165233 L280.11448,165.385951 L272.670979,163.799251 L266.362564,193.575179 L258.919062,191.987402 L257.341958,199.432192 L249.898457,197.844415 L248.321353,205.290281 L240.872487,203.701427 L239.295384,211.146217 L231.851882,209.559516 L230.275851,217 Z M216.96488,206.379657 L218.541984,198.934868 L225.986558,200.521568 L229.140766,185.631989 L236.584267,187.219766 L253.93241,105.332464 L246.487836,103.744688 L249.642043,88.8540322 L242.198542,87.266686 L243.775646,79.8215736 L236.332145,78.2340121 L237.909249,70.7888997 L223.022246,67.6138843 L221.445142,75.0589967 L214.000568,73.4714352 L210.84636,88.3620905 L203.402859,86.774206 L186.054716,168.665921 L193.498217,170.253698 L190.344009,185.143277 L197.787511,186.731053 L196.210407,194.176919 L203.653908,195.76362 L202.076804,203.209486 L216.963807,206.383963 L216.96488,206.379657 Z" id="Shape" fill="#000CA0"></path>
        </g>
    </g>
</svg>