<?xml version="1.0" encoding="UTF-8"?>
<svg width="322px" height="254px" viewBox="0 0 322 254" version="1.1" xmlns="http://www.w3.org/2000/svg" xmlns:xlink="http://www.w3.org/1999/xlink">
    <!-- Generator: Sketch 59.1 (86144) - https://sketch.com -->
    <title>Artboard</title>
    <desc>Created with Sketch.</desc>
    <g id="Artboard" stroke="none" stroke-width="1" fill="none" fill-rule="evenodd">
        <g id="80" transform="translate(4.000000, 5.000000)" fill-rule="nonzero">
            <polygon id="Path" stroke="#000CA0" stroke-width="4" fill="#EBEBEB" stroke-linecap="round" stroke-linejoin="round" points="289.501 46.2825 284.758 23.9541 277.318 25.5357 275.738 18.0973 268.297 19.6789 266.716 12.2362 259.275 13.8178 257.694 6.375 250.253 7.9566 248.673 0.5138 152.457 20.965 154.038 28.4077 146.602 29.9884 148.183 37.4312 140.742 39.0128 142.323 46.4556 141.815 46.5635 134.882 48.0372 134.374 48.1451 131.212 33.2595 116.331 36.4227 114.75 28.9799 18.5348 49.4311 20.1156 56.8739 5.2382 60.0362 8.3999 74.9217 0.959 76.5033 16.7655 150.922 9.3246 152.504 25.0241 226.42 32.465 224.838 34.0458 232.281 41.4867 230.699 43.0666 238.138 50.5075 236.556 52.0883 243.999 163.181 220.385 161.6 212.943 169.041 211.361 167.461 203.923 174.902 202.341 173.321 194.898 173.829 194.79 175.409 202.233 182.85 200.652 184.43 208.09 191.867 206.509 193.447 213.952 289.663 193.501 288.082 186.058 295.523 184.477 293.943 177.038 301.384 175.457 299.803 168.014 307.244 166.432 305.663 158.989 313.104 157.408 306.78 127.637 314.221 126.055 296.942 44.7008"></polygon>
            <path d="M110.017,115.28 L113.179,130.166 L128.061,127.003 L129.642,134.446 L137.083,132.864 L138.663,140.307 L146.104,138.725 L154.007,175.935 L146.567,177.516 L148.147,184.959 L140.707,186.541 L142.287,193.984 L134.846,195.565 L136.427,203.008 L69.4682,217.241 L67.8873,209.798 L60.4465,211.379 L58.8656,203.937 L51.4247,205.518 L49.8439,198.075 L42.403,199.657 L36.0806,169.89 L43.5215,168.309 L41.9398,160.861 L49.3806,159.28 L47.7998,151.837 L55.2407,150.255 L53.6599,142.813 L68.5416,139.649 L66.9608,132.207 L44.6381,136.951 L43.0573,129.509 L35.6164,131.09 L27.7132,93.881 L35.1541,92.299 L31.9934,77.418 L46.8751,74.2548 L45.2943,66.812 L97.376,55.7417 L98.957,63.1845 L113.839,60.0212 L117,74.9068 L124.441,73.3252 L129.184,95.654 L121.743,97.235 L123.324,104.678 L115.878,106.261 L117.459,113.703 L110.018,115.285 L110.017,115.28 Z M102.581,116.861 L93.097,72.2089 L85.656,73.7905 L84.0751,66.3477 L54.316,72.6732 L57.4777,87.5587 L50.0368,89.1404 L53.1985,104.026 L60.6393,102.444 L62.2202,109.887 L69.6611,108.305 L71.2419,115.748 L86.1237,112.585 L87.704,120.028 L102.582,116.866 L102.581,116.861 Z M112.527,200.305 L110.946,192.862 L118.387,191.28 L116.807,183.842 L124.248,182.26 L119.506,159.932 L112.065,161.513 L110.484,154.071 L103.043,155.652 L101.462,148.21 L86.5806,151.373 L84.9998,143.93 L70.118,147.093 L71.6989,154.536 L64.258,156.118 L72.1612,193.327 L79.6021,191.745 L81.1829,199.188 L88.624,197.607 L90.205,205.049 L112.527,200.305 Z M104.162,124.304 L96.721,125.886 L98.302,133.328 L105.743,131.747 L104.162,124.304 Z" id="Shape" fill="#000CA0"></path>
            <path d="M262.908,176.119 L210.827,187.189 L209.246,179.747 L201.805,181.328 L200.224,173.885 L192.783,175.467 L191.203,168.029 L183.762,169.61 L182.181,162.167 L174.741,163.749 L169.998,141.421 L162.557,143.002 L154.654,105.793 L162.095,104.211 L155.773,74.4444 L163.213,72.8628 L161.633,65.42 L169.073,63.8384 L167.493,56.3956 L174.933,54.814 L173.353,47.3712 L180.794,45.7896 L179.213,38.3468 L231.294,27.2765 L232.875,34.7193 L240.316,33.1377 L241.897,40.5805 L249.338,38.9989 L250.919,46.4417 L258.36,44.8601 L259.94,52.3029 L267.381,50.7213 L272.124,73.0496 L279.565,71.468 L287.468,108.678 L280.027,110.259 L286.349,140.026 L278.908,141.607 L280.489,149.05 L273.048,150.632 L274.629,158.075 L267.188,159.656 L268.769,167.099 L261.328,168.681 L262.908,176.119 Z M246.45,171.839 L244.869,164.396 L252.31,162.814 L249.148,147.929 L256.589,146.347 L239.202,64.4851 L231.761,66.0667 L228.6,51.1812 L221.159,52.7628 L219.579,45.3244 L212.138,46.906 L210.557,39.4632 L195.675,42.6264 L197.256,50.0692 L189.815,51.6508 L192.977,66.5364 L185.536,68.118 L202.923,149.98 L210.364,148.398 L213.526,163.284 L220.967,161.702 L222.548,169.145 L229.988,167.563 L231.569,175.006 L246.451,171.843 L246.45,171.839 Z" id="Shape" fill="#000CA0"></path>
        </g>
    </g>
</svg>