<?xml version="1.0" encoding="UTF-8"?>
<svg width="250px" height="270px" viewBox="0 0 250 270" version="1.1" xmlns="http://www.w3.org/2000/svg" xmlns:xlink="http://www.w3.org/1999/xlink">
    <title>Artboard</title>
    <defs>
        <rect id="path-1" x="-7.10542736e-15" y="2.48689958e-14" width="271.864" height="246.259"></rect>
        <path d="M81.621,74.5631 C85.7511,69.6063 88.3374,60.8878 97.815,60.2047 C105.8125,59.6869 106.4748,68.9795 110.6709,73.0072 C114.435,76.5211 120.4393,78.2863 121.1215,86.0781 C121.9491,96.8505 104.7035,105.1445 105.2618,111.8265 C105.9441,119.6185 120.6215,115.1705 124.6548,122.7755 C127.9885,129.1475 124.2491,134.2475 126.0407,140.2295 C127.8323,146.2115 134.3304,149.0455 133.9025,156.9615 C133.4745,164.8775 126.6508,169.1975 121.0826,176.3755 C114.4051,185.3635 114.0383,192.1485 103.8007,194.4155 C95.0226,196.3315 89.3662,190.9675 82.9092,188.5035 C76.226,185.6905 65.558,190.8145 60.9895,181.7705 C56.8322,173.0555 62.4005,165.8775 63.6924,158.9895 C65.0868,151.3405 60.334,144.0035 64.4625,135.6745 C68.8991,126.7495 84.7279,122.5475 84.951,116.1535 C85.132,107.7035 69.2396,107.9785 67.9593,96.5065 C66.8237,86.3303 76.4839,80.569 81.621,74.5631 Z M94.0615,78.6074 C90.3824,80.8913 90.6929,85.3526 89.5844,88.8482 C88.3528,92.9195 83.9749,95.6565 86.4851,99.6845 C90.8059,106.5085 104.4319,95.9955 104.2221,87.402 C104.095,79.5483 98.2543,75.8915 94.0615,78.6074 Z M96.5943,129.8405 C88.2475,130.5845 87.6345,138.5215 85.4579,144.1965 C83.4251,149.4815 79.6642,152.7115 77.035,157.6875 C73.8919,163.0965 74.8831,171.9775 80.0241,174.4015 C85.1033,176.2695 88.3503,173.4725 92.976,172.9555 C97.2316,172.4815 100.9751,175.8095 107.2651,173.4215 C114.1103,170.9725 115.5857,160.6915 114.5739,151.6255 C113.0666,138.1185 107.1615,128.8485 96.5943,129.8405 Z M186.7032,54.7811 C198.5662,55.3305 198.7152,66.741 203.2622,73.9141 C206.4312,78.8058 213.5882,84.189 214.7232,92.6795 C216.3532,103.9245 208.0502,111.7825 208.9402,123.1105 C209.8482,131.2515 215.1562,138.5275 212.4672,148.0065 C210.5792,154.5865 205.1322,157.8165 201.8462,163.6165 C197.4082,170.8555 197.6612,183.1915 180.0422,184.7825 C162.9992,186.4975 160.9342,167.9945 156.1612,160.4725 C152.4772,154.3265 143.9222,148.1625 142.8882,137.2255 C141.6902,124.8085 149.9922,116.9505 151.9202,107.3685 C153.6012,97.2525 148.5812,89.1956 152.0112,81.3196 C155.7692,73.0323 164.8972,72.5756 170.1182,68.9957 C175.4822,65.0251 176.9162,54.3746 186.7032,54.7811 Z M194.9612,83.4577 C190.3292,70.4869 172.9782,74.4838 169.7762,84.395 C167.9902,90.2145 170.7902,98.5185 169.1072,105.2635 C167.2192,111.8435 159.7572,115.4855 159.7402,122.0445 C159.6822,129.9185 164.7822,131.9725 166.0802,138.5715 C167.6262,145.7045 164.9152,151.6275 167.4882,157.8965 C172.2842,170.6615 189.0382,166.3565 192.1582,155.7055 C193.8002,150.2775 190.8992,146.1045 191.8832,139.8135 C192.9702,132.7605 198.5392,128.9545 198.4742,121.6555 C198.2252,116.0635 193.9462,111.2955 192.5252,105.2725 C190.8762,97.2145 197.8222,90.6315 194.9612,83.4577 Z" id="path-3"></path>
        <rect id="path-5" x="-3.55271368e-15" y="3.55271368e-15" width="251.868" height="225.38"></rect>
        <path d="M71.5675,63.6266 C75.6976,58.6698 78.2839,49.9513 87.7615,49.2682 C95.759,48.7504 96.4213,58.043 100.6174,62.0707 C104.3815,65.5846 110.3858,67.3498 111.068,75.1416 C111.8956,85.914 94.65,94.208 95.2083,100.89 C95.8906,108.682 110.568,104.234 114.6013,111.839 C117.935,118.211 114.1956,123.311 115.9872,129.293 C117.7788,135.275 124.2769,138.109 123.849,146.025 C123.421,153.941 116.5973,158.261 111.0291,165.439 C104.3516,174.427 103.9848,181.212 93.7472,183.479 C84.9691,185.395 79.3127,180.031 72.8557,177.567 C66.1725,174.754 55.5045,179.878 50.936,170.834 C46.7787,162.119 52.347,154.941 53.6389,148.053 C55.0333,140.404 50.2805,133.067 54.409,124.738 C58.8456,115.813 74.6744,111.611 74.8975,105.217 C75.0785,96.767 59.1861,97.042 57.9058,85.57 C56.7702,75.3938 66.4304,69.6325 71.5675,63.6266 Z M84.008,67.6709 C80.3289,69.9548 80.6394,74.4161 79.5309,77.9117 C78.2993,81.983 73.9214,84.72 76.4316,88.748 C80.7524,95.572 94.3784,85.059 94.1686,76.4655 C94.0415,68.6118 88.2008,64.955 84.008,67.6709 Z M86.5408,118.904 C78.194,119.648 77.581,127.585 75.4044,133.26 C73.3716,138.545 69.6107,141.775 66.9815,146.751 C63.8384,152.16 64.8296,161.041 69.9706,163.465 C75.0498,165.333 78.2968,162.536 82.9225,162.019 C87.1781,161.545 90.9216,164.873 97.2116,162.485 C104.0568,160.036 105.5322,149.755 104.5204,140.689 C103.0131,127.182 97.108,117.912 86.5408,118.904 Z M176.6497,43.8446 C188.5127,44.394 188.6617,55.8045 193.2087,62.9776 C196.3777,67.8693 203.5347,73.2525 204.6697,81.743 C206.2997,92.988 197.9967,100.846 198.8867,112.174 C199.7947,120.315 205.1027,127.591 202.4137,137.07 C200.5257,143.65 195.0787,146.88 191.7927,152.68 C187.3547,159.919 187.6077,172.255 169.9887,173.846 C152.9457,175.561 150.8807,157.058 146.1077,149.536 C142.4237,143.39 133.8687,137.226 132.8347,126.289 C131.6367,113.872 139.9387,106.014 141.8667,96.432 C143.5477,86.316 138.5277,78.2591 141.9577,70.3831 C145.7157,62.0958 154.8437,61.6391 160.0647,58.0592 C165.4287,54.0886 166.8627,43.4381 176.6497,43.8446 Z M184.9077,72.5212 C180.2757,59.5504 162.9247,63.5473 159.7227,73.4585 C157.9367,79.278 160.7367,87.582 159.0537,94.327 C157.1657,100.907 149.7037,104.549 149.6867,111.108 C149.6287,118.982 154.7287,121.036 156.0267,127.635 C157.5727,134.768 154.8617,140.691 157.4347,146.96 C162.2307,159.725 178.9847,155.42 182.1047,144.769 C183.7467,139.341 180.8457,135.168 181.8297,128.877 C182.9167,121.824 188.4857,118.018 188.4207,110.719 C188.1717,105.127 183.8927,100.359 182.4717,94.336 C180.8227,86.278 187.7687,79.695 184.9077,72.5212 Z" id="path-7"></path>
    </defs>
    <g id="Artboard" stroke="none" stroke-width="1" fill="none" fill-rule="evenodd">
        <g id="Group-9-(1)" transform="translate(-11, 24)">
            <g id="Group" transform="translate(0, -0)">
                <path d="M81.621,74.5631 C85.7511,69.6063 88.3374,60.8878 97.815,60.2047 C105.8125,59.6869 106.4748,68.9795 110.6709,73.0072 C114.435,76.5211 120.4393,78.2863 121.1215,86.0781 C121.9491,96.8505 104.7035,105.1445 105.2618,111.8265 C105.9441,119.6185 120.6215,115.1705 124.6548,122.7755 C127.9885,129.1475 124.2491,134.2475 126.0407,140.2295 C127.8323,146.2115 134.3304,149.0455 133.9025,156.9615 C133.4745,164.8775 126.6508,169.1975 121.0826,176.3755 C114.4051,185.3635 114.0383,192.1485 103.8007,194.4155 C95.0226,196.3315 89.3662,190.9675 82.9092,188.5035 C76.226,185.6905 65.558,190.8145 60.9895,181.7705 C56.8322,173.0555 62.4005,165.8775 63.6924,158.9895 C65.0868,151.3405 60.334,144.0035 64.4625,135.6745 C68.8991,126.7495 84.7279,122.5475 84.951,116.1535 C85.132,107.7035 69.2396,107.9785 67.9593,96.5065 C66.8237,86.3303 76.4839,80.569 81.621,74.5631 Z M94.0615,78.6074 C90.3824,80.8913 90.6929,85.3526 89.5844,88.8482 C88.3528,92.9195 83.9749,95.6565 86.4851,99.6845 C90.8059,106.5085 104.4319,95.9955 104.2221,87.402 C104.095,79.5483 98.2543,75.8915 94.0615,78.6074 Z M96.5943,129.8405 C88.2475,130.5845 87.6345,138.5215 85.4579,144.1965 C83.4251,149.4815 79.6642,152.7115 77.035,157.6875 C73.8919,163.0965 74.8831,171.9775 80.0241,174.4015 C85.1033,176.2695 88.3503,173.4725 92.976,172.9555 C97.2316,172.4815 100.9751,175.8095 107.2651,173.4215 C114.1103,170.9725 115.5857,160.6915 114.5739,151.6255 C113.0666,138.1185 107.1615,128.8485 96.5943,129.8405 Z M186.7032,54.7811 C198.5662,55.3305 198.7152,66.741 203.2622,73.9141 C206.4312,78.8058 213.5882,84.189 214.7232,92.6795 C216.3532,103.9245 208.0502,111.7825 208.9402,123.1105 C209.8482,131.2515 215.1562,138.5275 212.4672,148.0065 C210.5792,154.5865 205.1322,157.8165 201.8462,163.6165 C197.4082,170.8555 197.6612,183.1915 180.0422,184.7825 C162.9992,186.4975 160.9342,167.9945 156.1612,160.4725 C152.4772,154.3265 143.9222,148.1625 142.8882,137.2255 C141.6902,124.8085 149.9922,116.9505 151.9202,107.3685 C153.6012,97.2525 148.5812,89.1956 152.0112,81.3196 C155.7692,73.0323 164.8972,72.5756 170.1182,68.9957 C175.4822,65.0251 176.9162,54.3746 186.7032,54.7811 Z M194.9612,83.4577 C190.3292,70.4869 172.9782,74.4838 169.7762,84.395 C167.9902,90.2145 170.7902,98.5185 169.1072,105.2635 C167.2192,111.8435 159.7572,115.4855 159.7402,122.0445 C159.6822,129.9185 164.7822,131.9725 166.0802,138.5715 C167.6262,145.7045 164.9152,151.6275 167.4882,157.8965 C172.2842,170.6615 189.0382,166.3565 192.1582,155.7055 C193.8002,150.2775 190.8992,146.1045 191.8832,139.8135 C192.9702,132.7605 198.5392,128.9545 198.4742,121.6555 C198.2252,116.0635 193.9462,111.2955 192.5252,105.2725 C190.8762,97.2145 197.8222,90.6315 194.9612,83.4577 Z" id="Shape" fill="#0B1237" fill-rule="nonzero"></path>
                <g id="Clipped" transform="translate(0, -0)">
                    <mask id="mask-2" fill="white">
                        <use xlink:href="#path-1"></use>
                    </mask>
                    <g id="Rectangle"></g>
                    <path d="M81.6209,74.5631 L113.9714,102.2335 C114.0906,102.0945 114.2088,101.9545 114.3261,101.8135 L81.6209,74.5631 Z M97.815,60.2047 L95.0644,17.7237 C94.9613,17.7304 94.8582,17.7374 94.7551,17.7449 L97.815,60.2047 Z M110.6709,73.0072 L81.1921,103.7185 C81.3342,103.8555 81.4774,103.9905 81.6214,104.1255 L110.6709,73.0072 Z M121.1215,86.0781 L163.5662,82.8175 C163.5552,82.6667 163.5422,82.5158 163.5292,82.3651 L121.1215,86.0781 Z M105.2618,111.8265 L62.8397,115.3715 C62.8444,115.4275 62.8492,115.4835 62.8541,115.5395 L105.2618,111.8265 Z M124.6548,122.7755 L162.3742,103.0405 C162.3372,102.9705 162.3002,102.9005 162.2632,102.8295 L124.6548,122.7755 Z M126.0407,140.2295 L85.2603,152.4435 L85.2603,152.4435 L126.0407,140.2295 Z M133.9025,156.9615 L91.3946,154.6635 L133.9025,156.9615 Z M121.0826,176.3755 L87.4466,150.2835 C87.2658,150.5165 87.0874,150.7515 86.9115,150.9885 L121.0826,176.3755 Z M103.8007,194.4155 L112.8799,236.0055 C112.9207,235.9965 112.9615,235.9875 113.0023,235.9785 L103.8007,194.4155 Z M82.9093,188.5035 L66.3923,227.7395 C66.8356,227.9255 67.2821,228.1045 67.7315,228.2765 L82.9093,188.5035 Z M60.9895,181.7705 L22.5668,200.0985 C22.7054,200.3895 22.8472,200.6775 22.9923,200.9655 L60.9895,181.7705 Z M63.6924,158.9895 L105.5328,166.8375 C105.5461,166.7665 105.5592,166.6955 105.5722,166.6245 L63.6924,158.9895 Z M64.4625,135.6745 L26.34253,116.7255 C26.33544,116.7395 26.32836,116.7535 26.32129,116.7685 L64.4625,135.6745 Z M84.951,116.1535 L127.4951,117.6375 C127.5018,117.4475 127.5072,117.2565 127.5113,117.0655 L84.951,116.1535 Z M94.0615,78.6074 L116.5136,114.7755 C116.7454,114.6315 116.9758,114.4855 117.2048,114.3365 L94.0615,78.6074 Z M89.5844,88.8482 L49.0059,75.98 C48.9487,76.1604 48.8927,76.3411 48.8379,76.5222 L89.5844,88.8482 Z M86.4851,99.6845 L50.3552,122.1975 C50.4095,122.2845 50.4641,122.3715 50.519,122.4585 L86.4851,99.6845 Z M104.2221,87.402 L61.6577,88.091 C61.6596,88.2076 61.662,88.3241 61.6648,88.4406 L104.2221,87.402 Z M96.5943,129.8405 L100.3746,172.2425 C100.4407,172.2365 100.5068,172.2305 100.5729,172.2245 L96.5943,129.8405 Z M85.4579,144.1965 L125.1898,159.4805 C125.195,159.4665 125.2001,159.4535 125.2052,159.4405 L85.4579,144.1965 Z M77.035,157.6875 L113.8417,179.0765 C114.1295,178.5815 114.4073,178.0805 114.6749,177.5735 L77.035,157.6875 Z M80.0241,174.4015 L61.872,212.9075 C63.0017,213.4395 64.1544,213.9225 65.3266,214.3535 L80.0241,174.4015 Z M107.2651,173.4215 L92.9204,133.3415 C92.6648,133.4335 92.4101,133.5275 92.1562,133.6235 L107.2651,173.4215 Z M114.3261,101.8135 C116.0572,99.7355 117.4133,97.8195 118.3414,96.4515 C119.2386,95.1285 120.0613,93.8295 120.4666,93.1935 C121.6249,91.3745 121.3625,91.8755 120.7305,92.6515 C119.8992,93.6735 117.6877,96.1755 113.8832,98.4745 C109.7737,100.9575 105.2172,102.3515 100.8749,102.6645 L94.7551,17.7449 C74.67,19.1923 61.7828,30.2011 54.6948,38.9107 C51.7153,42.5719 49.4395,46.2242 48.6552,47.4556 C47.3048,49.5758 47.8682,48.5701 48.9158,47.3128 L114.3261,101.8135 Z M100.5657,102.6855 C97.3853,102.8915 93.5797,102.6625 89.4604,101.5565 C85.3045,100.4415 81.6083,98.6445 78.484,96.4955 C72.6112,92.4565 69.8357,87.9027 69.3558,87.1184 C69.0326,86.5902 68.9069,86.3242 69.1755,86.8359 C69.2141,86.9094 70.0436,88.5141 70.6162,89.5674 C71.3276,90.8755 72.4965,92.9535 74.0678,95.2585 C75.6487,97.5775 77.9703,100.6265 81.1921,103.7185 L140.1502,42.2956 C144.0952,46.0822 145.8252,49.6531 145.4172,48.9022 C145.2122,48.5261 145.2902,48.6545 144.5602,47.2639 C144.0602,46.3116 143.1492,44.5936 141.9812,42.6845 C139.8112,39.1382 135.1082,32.107 126.7312,26.3452 C117.2733,19.8404 106.1883,17.0034 95.0644,17.7237 L100.5657,102.6855 Z M81.6214,104.1255 C85.0082,107.2865 88.4714,109.6655 89.1861,110.1715 C90.6821,111.2315 89.6984,110.5945 88.5457,109.5545 C87.0486,108.2055 84.5266,105.6045 82.3553,101.6225 C80.1077,97.5005 79.0253,93.3495 78.7137,89.7911 L163.5292,82.3651 C162.8762,74.9107 160.7882,67.6173 157.1052,60.8631 C153.4982,54.2489 149.1122,49.5264 145.5582,46.322 C142.3482,43.4282 139.1152,41.2035 138.4052,40.7006 C136.9142,39.6442 138.2162,40.4845 139.7202,41.8892 L81.6214,104.1255 Z M78.6765,89.3387 C77.945,79.8162 81.4906,73.2719 82.7716,71.2136 C83.8845,69.4253 84.6336,68.8956 82.7741,70.8078 C82.392,71.2007 81.9978,71.5998 81.4541,72.1505 C80.9573,72.6537 80.3102,73.3093 79.6527,73.9891 C78.4125,75.2715 76.48,77.3082 74.5248,79.725 C72.6617,82.028 69.7278,85.9429 67.2816,91.1545 C64.7839,96.4745 61.9664,104.9205 62.8397,115.3715 L147.6842,108.2815 C148.4182,117.0615 146.0172,123.7865 144.3522,127.3325 C142.7392,130.7695 141.0542,132.8565 140.7172,133.2735 C140.2872,133.8045 140.1562,133.8995 140.8532,133.1785 C141.1642,132.8565 141.5192,132.4955 142.0422,131.9665 C142.5172,131.4845 143.1592,130.8355 143.8112,130.1655 C146.0902,127.8215 150.9602,122.7815 155.0562,116.1995 C159.3212,109.3475 164.7122,97.7265 163.5662,82.8175 L78.6765,89.3387 Z M62.8541,115.5395 C63.5686,123.7005 66.4011,132.1325 71.9495,139.6035 C77.2547,146.7465 83.5609,151.0235 88.385,153.5295 C93.0515,155.9545 97.2866,157.2165 99.8092,157.8805 C102.3576,158.5505 104.7206,158.9955 105.7227,159.1865 C109.2119,159.8525 106.9461,159.5615 104.3368,158.5285 C100.7156,157.0935 92.4093,152.8325 87.0465,142.7205 L162.2632,102.8295 C158.7382,96.1835 154.0472,90.9505 149.0382,87.0036 C144.2002,83.1919 139.4172,80.8482 135.7012,79.3757 C132.0181,77.9162 128.7301,77.0606 126.5356,76.5521 C124.451,76.0691 122.3536,75.6837 121.6806,75.5552 C120.5533,75.3402 120.8392,75.3758 121.4592,75.5388 C122.0534,75.6951 124.5087,76.3525 127.6402,77.9797 C130.9293,79.6886 135.9452,82.9752 140.3012,88.8409 C144.9012,95.0345 147.1252,101.8995 147.6692,108.1135 L62.8541,115.5395 Z M86.9354,142.5095 C85.0112,138.8315 84.0074,135.0005 83.6656,131.5695 C83.3715,128.6185 83.6555,126.5635 83.5859,127.2305 C83.5714,127.3695 83.5528,127.5375 83.5091,127.9235 C83.4725,128.2475 83.4113,128.7865 83.3518,129.3595 C83.2324,130.5085 83.0604,132.3335 82.99,134.4795 C82.8432,138.9565 83.1112,145.2675 85.2603,152.4435 L166.8212,128.0165 C168.0742,132.2015 168.1382,135.6315 168.0842,137.2705 C168.0642,137.8715 167.9152,139.4355 168.2662,136.0665 C168.4912,133.9145 168.9722,129.0155 168.3862,123.1295 C167.7522,116.7625 165.9652,109.9045 162.3742,103.0405 L86.9354,142.5095 Z M85.2603,152.4435 C87.488,159.8815 90.9045,165.3465 93.1177,168.5335 C94.1965,170.0875 95.2101,171.4035 95.7206,172.0655 C96.0725,172.5215 96.1482,172.6175 96.3408,172.8685 C96.4761,173.0455 96.5062,173.0865 96.485,173.0585 C96.4761,173.0455 94.8494,170.8975 93.4718,167.3825 C92.7531,165.5485 92.1425,163.4615 91.7631,161.1705 C91.3837,158.8795 91.2853,156.6845 91.3946,154.6635 L176.4102,159.2595 C176.8602,150.9485 175.4472,143.2195 172.7412,136.3155 C170.2092,129.8555 166.9272,125.1405 165.1232,122.6825 C164.2842,121.5395 163.3642,120.3615 163.1362,120.0655 C162.7252,119.5325 162.8282,119.6525 163.0522,119.9755 C163.5572,120.7015 165.4892,123.5695 166.8212,128.0165 L85.2603,152.4435 Z M91.3946,154.6635 C91.5022,152.6715 91.8212,150.6835 92.3379,148.7555 C92.8512,146.8395 93.5053,145.1855 94.1639,143.8205 C94.8123,142.4775 95.439,141.4685 95.8775,140.8215 C96.307,140.1875 96.6057,139.8265 96.6249,139.802895 C96.635,139.7915 96.4985,139.9565 96.0573,140.4385 C95.5292,141.0165 95.1269,141.4415 94.1912,142.4485 C92.6402,144.1175 90.0736,146.8965 87.4466,150.2835 L154.7182,202.4685 C154.8762,202.2655 155.2502,201.8135 156.5582,200.4065 C157.4562,199.4395 159.9892,196.7775 162.2152,194.0875 C167.2132,188.0485 175.4852,176.3805 176.4102,159.2595 L91.3946,154.6635 Z M86.9115,150.9885 C83.8292,155.1365 81.6198,158.8505 80.2702,161.1555 C79.4629,162.5345 79.2613,162.8935 78.9082,163.4795 C78.6532,163.9035 78.7525,163.7115 79.0815,163.2495 C79.8704,162.1395 81.9759,159.4525 85.6121,156.9295 C89.294,154.3745 92.674,153.2775 94.599,152.8515 L113.0023,235.9785 C120.0461,234.4195 127.3111,231.6245 134.1497,226.8785 C140.9422,222.1655 145.4772,216.7955 148.4722,212.5825 C150.9722,209.0655 153.2252,205.0575 153.7392,204.1795 C154.6572,202.6135 154.9972,202.1085 155.2542,201.7635 L86.9115,150.9885 Z M94.7214,152.8245 C96.1361,152.5155 97.6748,152.3155 99.2991,152.2635 C100.9223,152.2125 102.4633,152.3145 103.8793,152.5215 C106.6875,152.9305 108.58,153.6875 109.1249,153.9195 C109.3865,154.0305 109.4266,154.0595 109.0948,153.8935 C108.6773,153.6845 108.3074,153.4905 107.3056,152.9695 C106.4759,152.5375 105.167,151.8585 103.708,151.1595 C102.2149,150.4435 100.303,149.5775 98.087,148.7315 L67.7315,228.2765 C66.7783,227.9125 66.3534,227.6365 68.0206,228.5035 C69.0426,229.0355 72.3091,230.7835 75.8441,232.2845 C84.2379,235.8495 97.1287,239.4445 112.8799,236.0055 L94.7214,152.8245 Z M99.4262,149.2685 C94.6285,147.2495 90.2206,146.2505 86.8029,145.7175 C83.4211,145.1895 80.4812,145.0395 78.5034,144.9835 C76.64,144.9315 74.7433,144.9495 74.0801,144.9525 C73.0688,144.9555 73.0347,144.9445 73.2551,144.9555 C73.4213,144.9635 78.0311,145.0955 83.7661,147.8375 C86.8511,149.3125 89.9943,151.4075 92.8434,154.2145 C95.6743,157.0035 97.6568,159.9435 98.9867,162.5765 L22.9923,200.9655 C28.28519,211.4435 36.62315,219.6675 47.0379,224.6475 C56.2668,229.0605 64.818,229.7825 69.0576,229.9925 C71.3147,230.1035 73.3505,230.0955 74.4026,230.0915 C75.0713,230.0885 75.3605,230.0865 75.7264,230.0875 C76.0335,230.0875 76.1295,230.0905 76.1111,230.0895 C76.0881,230.0895 75.8515,230.0825 75.4657,230.0525 C75.0786,230.0215 74.46,229.9615 73.669,229.8385 C72.1318,229.5985 69.5192,229.0555 66.3923,227.7395 L99.4262,149.2685 Z M99.4121,163.4435 C100.1921,165.0785 100.854,166.9175 101.3196,168.9165 C101.7846,170.9135 101.9994,172.8355 102.0368,174.6035 C102.11,178.0695 101.4879,180.4605 101.3324,181.0235 C101.2531,181.3115 101.2315,181.3405 101.3845,180.9005 C101.608,180.2575 101.7141,179.9845 102.2029,178.6235 C102.5795,177.5755 103.1611,175.9365 103.7313,174.0785 C104.31,172.1935 104.9928,169.7165 105.5328,166.8375 L21.852,151.1415 C22.219,149.1855 22.7066,148.0855 22.0779,149.8355 C21.7901,150.6365 20.3285,154.5055 19.2626,158.3665 C16.6728,167.7465 14.4929,183.1725 22.5668,200.0985 L99.4121,163.4435 Z M105.5722,166.6245 C106.8982,159.3505 106.5771,153.1275 106.1887,149.1525 C105.9959,147.1775 105.7478,145.4285 105.589,144.3335 C105.3878,142.9475 105.3373,142.6405 105.2673,142.1015 C105.1583,141.2635 105.4224,142.7345 105.2335,145.1185 C105.0136,147.8935 104.2559,151.2475 102.6036,154.5815 L26.32129,116.7685 C18.5653,132.4145 20.0073,146.6865 20.837,153.0725 C21.0159,154.4495 21.2571,156.0475 21.3315,156.5605 C21.4484,157.3665 21.4599,157.5105 21.4521,157.4295 C21.4337,157.2415 21.1838,154.8045 21.8126,151.3545 L105.5722,166.6245 Z M102.5824,154.6235 C99.9429,159.9335 96.738,162.4775 96.66,162.5415 C96.5711,162.6155 96.8438,162.3845 99.5672,160.6055 C101.0431,159.6415 106.2674,156.3475 110.8272,152.2255 C114.6467,148.7725 126.8154,137.1205 127.4951,117.6375 L42.40691,114.6695 C42.6946,106.4235 45.5186,100.0335 48.0385,95.9815 C50.3982,92.1875 52.8082,89.9022 53.7317,89.0673 C54.742,88.1539 55.3642,87.7456 55.0394,87.9742 C54.7237,88.1963 54.2358,88.5217 53.0065,89.3247 C51.1901,90.5115 46.6598,93.4035 42.34823,96.9745 C38.04756,100.5375 31.20032,106.9525 26.34253,116.7255 L102.5824,154.6235 Z M127.5113,117.0655 C127.6853,108.9385 125.8443,101.0695 122.2537,94.0235 C118.8401,87.3259 114.4845,82.6122 111.0977,79.5509 C107.7878,76.5592 104.6324,74.4642 102.7617,73.28 C101.0525,72.198 98.993,71.0099 98.6104,70.7846 C96.4782,69.5285 98.9755,70.7408 101.743,73.5952 C105.539,77.5104 109.3772,83.815 110.2667,91.7855 L25.65198,101.2285 C26.36817,107.6455 28.19312,113.7785 31.03407,119.4265 C33.83781,125.0005 37.28832,129.4275 40.6167,132.8605 C46.7185,139.1535 53.4176,142.9765 55.3958,144.1425 C56.4646,144.7715 56.1502,144.5815 56.8685,145.0065 C57.2092,145.2075 57.2784,145.2525 57.222,145.2175 C57.1605,145.1785 56.8161,144.9595 56.3063,144.5885 C55.7966,144.2175 54.9819,143.5945 54.0072,142.7135 C52.1048,140.9935 48.9712,137.7345 46.3971,132.6835 C43.64591,127.2855 42.26198,121.2565 42.39078,115.2425 L127.5113,117.0655 Z M110.2667,91.7855 C110.8182,96.7275 109.9952,101.4965 108.4164,105.4425 C107.0006,108.9815 105.3174,111.0145 105.0052,111.3855 C104.7992,111.6305 104.8785,111.4935 106.6189,109.8245 C107.2788,109.1925 108.4531,108.0735 109.5867,106.9415 C110.7619,105.7685 112.3288,104.1535 113.9714,102.2335 L49.2705,46.8927 C49.6601,46.4372 49.8516,46.3016 47.7,48.3643 C46.2198,49.7833 42.99185,52.8482 39.8706,56.5561 C33.21604,64.4613 23.2592,79.7868 25.65198,101.2285 L110.2667,91.7855 Z M71.6094,42.4396 C57.1035,51.4445 51.8775,64.6951 49.9019,71.6663 C49.0498,74.6731 48.5191,77.5984 48.4503,77.9517 C48.2261,79.102 48.4431,77.7546 49.0059,75.98 L130.1629,101.7165 C131.2799,98.1945 131.8738,94.9785 132.0182,94.2375 C132.3179,92.6995 132.1473,93.7115 131.816,94.8805 C131.4083,96.3195 130.3416,99.6685 127.8746,103.5435 C125.2055,107.7355 121.4117,111.7345 116.5136,114.7755 L71.6094,42.4396 Z M48.8379,76.5222 C50.0983,72.3557 51.8097,69.6478 51.8901,69.5161 C51.9438,69.428 51.9578,69.4077 51.8758,69.5368 C51.834,69.6026 51.7902,69.6713 51.7133,69.7919 C51.6456,69.898 51.5482,70.0509 51.4452,70.2133 C51.0817,70.7867 50.2386,72.1197 49.345,73.7418 C47.6909,76.7445 44.14697,83.6965 43.32543,93.1975 C42.39658,103.9385 45.2293,113.9715 50.3552,122.1975 L122.6149,77.1716 C126.4858,83.3837 128.9244,91.5635 128.1489,100.5315 C127.4807,108.2595 124.6376,113.5175 123.918,114.8235 C123.4918,115.5975 123.1745,116.0815 123.3561,115.7945 C123.6401,115.3465 123.3229,115.8485 123.7526,115.1715 C123.9479,114.8645 124.239,114.4035 124.565,113.8685 C125.7341,111.9535 128.4546,107.3765 130.3308,101.1745 L48.8379,76.5222 Z M50.519,122.4585 C61.5637,139.9005 79.9505,145.5265 94.7208,144.2695 C107.0325,143.2205 116.4693,137.8385 122.0807,133.7605 C128.2198,129.2985 133.8368,123.4655 138.1622,116.6025 C142.2732,110.0785 147.1012,99.5645 146.7792,86.3635 L61.6648,88.4406 C61.4475,79.5363 64.6515,73.559 66.1316,71.2103 C67.8259,68.5217 69.8057,66.5021 72.0244,64.8895 C73.7154,63.6605 78.9487,60.1642 87.4969,59.4362 C92.2015,59.0356 98.7494,59.4437 105.77,62.5606 C113.1042,65.8167 118.7509,71.0672 122.4512,76.9108 L50.519,122.4585 Z M146.7862,86.713 C146.5572,72.5668 140.9202,56.4242 126.8097,45.4444 C112.1938,34.0711 89.9407,30.5563 70.9181,42.878 L117.2048,114.3365 C102.3751,123.9425 85.1387,120.8985 74.5232,112.6375 C64.4134,104.7705 61.7596,94.3835 61.6577,88.091 L146.7862,86.713 Z M92.8141,87.4389 C83.7174,88.2499 74.4703,91.3395 66.2979,97.3935 C58.4492,103.2085 53.7878,110.1315 51.0529,115.3205 C48.4642,120.2325 47.0001,124.7945 46.3733,126.7665 C45.3455,129.9995 45.6615,129.0815 45.7107,128.9535 L125.2052,159.4405 C125.9219,157.5715 126.4638,155.9025 126.7999,154.8415 C126.9713,154.3005 127.1344,153.7735 127.2436,153.4205 C127.3679,153.0185 127.4435,152.7755 127.5116,152.5615 C127.8728,151.4255 127.4916,152.8935 126.3717,155.0185 C125.1054,157.4205 122.2984,161.8655 116.9802,165.8055 C111.3383,169.9855 105.2979,171.8035 100.3746,172.2425 L92.8141,87.4389 Z M45.726,128.9135 C46.8215,126.0655 48.1857,124.4505 47.0649,125.9885 C46.6445,126.5655 46.6259,126.5835 45.9714,127.4775 C45.5048,128.1155 44.88508,128.9685 44.21573,129.9315 C42.86224,131.8795 41.1181,134.5405 39.39499,137.8025 L114.6749,177.5735 C114.1748,178.5205 113.3299,179.6205 115.8752,176.1275 C117.8004,173.4855 122.0615,167.6125 125.1898,159.4805 L45.726,128.9135 Z M40.22827,136.2995 C33.08963,148.5835 31.57981,162.2675 33.35861,173.7055 C35.0085302,184.3155 41.50568,203.3065 61.872,212.9075 L98.1763,135.8955 C113.4015,143.0725 116.8326,156.4115 117.4874,160.6225 C118.2711,165.6625 117.8373,172.2005 113.8417,179.0765 L40.22827,136.2995 Z M65.3266,214.3535 C71.4494,216.6065 77.6875,217.6485 83.8363,217.6055 C89.7335,217.5645 94.5085,216.5255 97.4568,215.7535 C98.8916,215.3775 100.1136,215.0025 100.7609,214.8025 C100.9337,214.7495 101.0982,214.6985 101.2238,214.6585 C101.3617,214.6155 101.4551,214.5865 101.5466,214.5585 C101.7267,214.5025 101.7813,214.4865 101.780803,214.4865 C101.7737,214.4885 101.664,214.5215 101.4829,214.5695 C101.2995,214.6185 101.0246,214.6885 100.6763,214.7675 C99.9746,214.9255 98.9567,215.1225 97.6974,215.2635 L88.2546,130.6485 C83.4856,131.1805 79.6748,132.2395 77.6493,132.8385 C76.7927,133.0915 75.7059,133.4325 75.6079,133.4625 C75.2444,133.5755 75.4611,133.5025 75.8835,133.3925 C76.8069,133.1505 79.5287,132.4935 83.2439,132.4675 C87.2109,132.4395 91.1385,133.1305 94.7216,134.4495 L65.3266,214.3535 Z M97.6974,215.2635 C92.6148,215.8305 88.8155,215.1145 87.8302,214.9195 C87.3819,214.8305 87.1112,214.7585 87.7132,214.9045 C88.0706,214.9905 89.2841,215.2885 90.591,215.5635 C93.4321,216.1615 98.1644,216.9875 103.9953,216.8475 C110.0295,216.7035 116.214,215.5595 122.3741,213.2205 L92.1562,133.6235 C93.5809,133.0825 95.1712,132.6155 96.902,132.2795 C98.6372,131.9425 100.3378,131.7705 101.9593,131.7315 C105.1862,131.6545 107.5372,132.1255 108.1243,132.2485 C108.3041,132.2865 108.4224,132.3175 107.7044,132.1445 C107.231,132.0305 105.9047,131.7065 104.4087,131.4095 C101.3281,130.7975 95.465,129.8435 88.2546,130.6485 L97.6974,215.2635 Z M121.6099,213.5025 C143.7722,205.5705 152.1032,186.5495 154.9242,176.2485 C157.9032,165.3695 157.7562,154.7395 156.8812,146.9035 L72.2665,156.3465 C72.4038,157.5775 72.0243,156.6215 72.8075,153.7615 C73.4325,151.4795 77.6035,138.8235 92.9204,133.3415 L121.6099,213.5025 Z M156.8812,146.9035 C155.6782,136.1275 152.2992,121.7905 142.7252,109.3425 C131.5035,94.7525 113.5388,85.493 92.6158,87.4571 L100.5729,172.2245 C96.4684,172.6095 91.2771,172.0715 85.9909,169.6615 C80.8174,167.3025 77.3265,163.9645 75.2379,161.2495 C71.6351,156.5645 71.9618,153.6155 72.2665,156.3465 L156.8812,146.9035 Z M186.7022,54.7811 L188.6722,12.2566 C188.6042,12.2535 188.5372,12.2505 188.4692,12.2477 L186.7022,54.7811 Z M203.2622,73.9141 L167.3082,96.7065 C167.3822,96.8235 167.4572,96.9405 167.5332,97.0575 L203.2622,73.9141 Z M214.7232,92.6795 L172.5282,98.3195 C172.5492,98.4745 172.5712,98.6295 172.5932,98.7845 L214.7232,92.6795 Z M208.9402,123.1105 L166.5002,126.4425 C166.5372,126.9065 166.5812,127.3695 166.6322,127.8315 L208.9402,123.1105 Z M212.4672,148.0065 L253.3862,159.7495 C253.3982,159.7075 253.4102,159.6655 253.4222,159.6235 L212.4672,148.0065 Z M201.8462,163.6165 L238.1402,185.8635 C238.3942,185.4485 238.6412,185.0295 238.8812,184.6065 L201.8462,163.6165 Z M180.0422,184.7825 L176.2122,142.3855 C176.0682,142.3985 175.9242,142.4125 175.7812,142.4265 L180.0422,184.7825 Z M156.1612,160.4725 L119.6463,182.3555 C119.8324,182.6665 120.0226,182.9745 120.2167,183.2805 L156.1612,160.4725 Z M142.8882,137.2255 L185.2702,133.2215 C185.2672,133.1935 185.2642,133.1645 185.2622,133.1365 L142.8882,137.2255 Z M151.9202,107.3685 L193.6542,115.7665 C193.7492,115.2945 193.8362,114.8215 193.9142,114.3465 L151.9202,107.3685 Z M152.0112,81.3196 L113.2415,63.7371 C113.1531,63.932 113.0662,64.1275 112.9808,64.3236 L152.0112,81.3196 Z M170.1182,68.9957 L194.1932,104.1035 C194.6162,103.8145 195.0332,103.5165 195.4452,103.2115 L170.1182,68.9957 Z M194.9612,83.4577 L154.8702,97.7745 C155.0452,98.2625 155.2282,98.7475 155.4202,99.2285 L194.9612,83.4577 Z M169.7762,84.395 L129.268,71.3061 C129.2036,71.5054 129.1406,71.7052 129.0792,71.9054 L169.7762,84.395 Z M169.1072,105.2635 L210.0262,117.0065 C210.1622,116.5295 210.2912,116.0495 210.4112,115.5685 L169.1072,105.2635 Z M159.7402,122.0445 L202.3092,122.3575 C202.3092,122.2905 202.3102,122.2245 202.3102,122.1575 L159.7402,122.0445 Z M166.0802,138.5715 L124.3114,146.7895 C124.3636,147.0555 124.4184,147.3205 124.4757,147.5845 L166.0802,138.5715 Z M167.4882,157.8965 L207.3372,142.9235 C207.1882,142.5245 207.0322,142.1285 206.8702,141.7345 L167.4882,157.8965 Z M192.1582,155.7055 L151.4122,143.3795 C151.3762,143.4995 151.3402,143.6195 151.3052,143.7385 L192.1582,155.7055 Z M191.8832,139.8135 L233.9422,146.3895 C233.9472,146.3575 233.9522,146.3255 233.9572,146.2935 L191.8832,139.8135 Z M198.4742,121.6555 L241.0422,121.2755 C241.0382,120.7695 241.0242,120.2645 241.0022,119.7595 L198.4742,121.6555 Z M192.5252,105.2725 L150.8182,113.8045 C150.9042,114.2215 150.9952,114.6365 151.0932,115.0505 L192.5252,105.2725 Z M184.7332,97.3055 C180.4452,97.1065 174.5132,95.6565 168.8242,91.5715 C163.6112,87.8277 161.1252,83.6587 160.3792,82.2945 C159.9972,81.596 159.8592,81.2355 160.0042,81.5748 C160.2072,82.0489 160.3502,82.419 160.9262,83.8508 C161.6892,85.7505 163.8222,91.2075 167.3082,96.7065 L239.2172,51.1221 C240.4282,53.0336 240.8382,54.3749 239.9242,52.1005 C239.5112,51.0731 237.6252,46.0985 235.0732,41.4328 C232.2382,36.2507 227.2062,28.6778 218.4862,22.4157 C209.2912,15.8124 198.8922,12.7299 188.6722,12.2566 L184.7332,97.3055 Z M167.5332,97.0575 C168.9082,99.1815 170.2482,100.9475 171.2642,102.2285 C172.2772,103.5065 173.2422,104.6415 173.8892,105.3975 C174.7142,106.3615 174.9702,106.6515 175.4562,107.2265 C175.8262,107.6645 175.9862,107.8675 176.0422,107.9395 C176.4372,108.4525 173.3982,104.8295 172.5282,98.3195 L256.9182,87.0397 C254.9132,72.0387 247.7282,61.4795 243.4692,55.9548 C241.4492,53.3356 239.2242,50.7973 238.5712,50.0343 C237.3522,48.6102 238.0522,49.3202 238.9922,50.7707 L167.5332,97.0575 Z M172.5932,98.7845 C171.6852,92.5175 174.0892,87.914 172.1572,93.1665 C170.9872,96.3465 165.2052,109.9455 166.5002,126.4425 L251.3792,119.7785 C251.7852,124.9475 249.7102,128.9535 252.0612,122.5615 C253.6502,118.2415 259.3912,104.0865 256.8532,86.5743 L172.5932,98.7845 Z M166.6322,127.8315 C167.2712,133.5515 168.5872,138.3215 169.4262,141.1605 C169.8322,142.5355 170.2922,143.9915 170.5152,144.7105 C170.8002,145.6265 170.9262,146.0525 171.0022,146.3305 C171.1522,146.8755 170.8102,145.8145 170.6912,143.9135 C170.5572,141.7755 170.7342,139.1375 171.5132,136.3895 L253.4222,159.6235 C257.8292,144.0865 255.1052,131.0735 253.1032,123.7825 C252.6272,122.0505 252.1442,120.4865 251.8132,119.4215 C251.4202,118.1595 251.2562,117.6445 251.0792,117.0435 C250.7502,115.9325 251.0632,116.7395 251.2472,118.3895 L166.6322,127.8315 Z M171.5492,136.2635 C173.1942,130.5305 176.2982,127.2995 175.2912,128.4795 C174.9902,128.8325 174.7632,129.0895 174.0672,129.8865 C173.4942,130.5435 172.6402,131.5275 171.7212,132.6485 C169.8582,134.9175 167.2692,138.2875 164.8102,142.6265 L238.8812,184.6065 C238.0652,186.0455 237.3902,186.8365 237.5322,186.6645 C237.6142,186.5635 237.7862,186.3605 238.2382,185.8415 C238.5692,185.4625 239.3672,184.5535 240.0712,183.7285 C243.0812,180.1985 249.8522,172.0625 253.3862,159.7495 L171.5492,136.2635 Z M165.5512,141.3695 C163.5972,144.5575 162.2332,147.4735 161.3582,149.4715 C160.5412,151.3395 159.7752,153.3005 159.4942,154.0075 C159.0792,155.0475 158.9962,155.2235 159.0162,155.1805 C159.0672,155.0695 159.4122,154.3325 160.0852,153.2865 C161.6332,150.8805 164.3942,147.6625 168.5762,145.1875 C172.5582,142.8305 175.6622,142.4345 176.2122,142.3855 L183.8722,227.1805 C193.2312,226.3345 202.9112,223.8005 211.9402,218.4565 C221.1682,212.9955 227.4472,205.9425 231.6892,199.3475 C235.5202,193.3915 237.7682,187.5785 238.5952,185.5005 C239.9962,181.9815 239.3762,183.8475 238.1402,185.8635 L165.5512,141.3695 Z M175.7812,142.4265 C177.5222,142.2515 180.0472,142.2435 183.0722,142.8785 C186.1482,143.5245 189.1272,144.7095 191.8162,146.3355 C197.0612,149.5065 199.4362,153.2525 199.9062,154.0275 C200.2472,154.5905 200.1382,154.5705 198.9112,151.5705 C198.4772,150.5075 197.6192,148.3805 196.7212,146.3715 C195.8232,144.3625 194.3002,141.1225 192.1052,137.6635 L120.2167,183.2805 C118.8873,181.1855 118.3267,179.4465 120.1074,183.8005 C121.1426,186.3315 123.5099,192.2405 127.0941,198.1545 C130.8075,204.2825 137.1932,212.8025 147.7682,219.1955 C159.0552,226.0195 171.7612,228.4005 184.3032,227.1385 L175.7812,142.4265 Z M192.6752,138.5885 C191.1872,136.1065 189.7022,134.0305 188.5282,132.4785 C187.3612,130.9355 186.2412,129.5705 185.4612,128.6285 C184.4242,127.3765 184.2042,127.1255 183.5432,126.3195 C183.0742,125.7465 182.8382,125.4405 182.7152,125.2755 C182.2802,124.6895 184.7582,127.8085 185.2702,133.2215 L100.5073,141.2295 C102.052,157.5795 109.3244,169.2485 114.3472,176.0165 C116.5954,179.0455 119.1553,182.0485 119.8959,182.9425 C121.2451,184.5705 120.5677,183.8935 119.6463,182.3555 L192.6752,138.5885 Z M185.2622,133.1365 C185.7342,138.0265 183.9112,141.1895 184.9122,139.0115 C185.2072,138.3705 185.5392,137.6875 186.1572,136.4225 C186.6912,135.3275 187.5052,133.6615 188.3122,131.8785 C189.9142,128.3365 192.2572,122.7075 193.6542,115.7665 L110.187,98.9715 C110.6196,96.8215 111.2017,95.7665 110.7426,96.7815 C110.5187,97.2765 110.2269,97.8835 109.6422,99.0815 C109.1404,100.1105 108.3408,101.7395 107.5521,103.4555 C104.2197,110.7065 98.8452,124.0075 100.5155,141.3155 L185.2622,133.1365 Z M193.9142,114.3465 C195.0572,107.4715 194.9652,101.4485 194.6012,96.8055 C194.2782,92.7015 193.5922,88.4556 193.4422,87.4138 C193.1602,85.4647 193.3812,86.3683 193.3492,88.0881 C193.3072,90.3205 192.8852,94.0805 191.0412,98.3155 L112.9808,64.3236 C105.9519,80.4651 108.5918,95.5405 109.1779,99.5945 C110.1059,106.0145 109.4518,103.2465 109.9264,100.3905 L193.9142,114.3465 Z M190.7802,98.9025 C189.9242,100.7905 188.8272,102.6355 187.5082,104.3665 C186.1952,106.0885 184.8092,107.5035 183.4932,108.6385 C180.9552,110.8285 178.8512,111.8125 178.6002,111.9305 C178.4552,111.9985 178.5222,111.960798 179.0902,111.7295 C179.3812,111.6125 179.6732,111.4955 180.1462,111.3065 C180.5682,111.1385 181.1482,110.9065 181.7592,110.6555 C182.9512,110.1675 184.7512,109.4105 186.7502,108.4295 C188.7632,107.4415 191.3772,106.0345 194.1932,104.1035 L146.0422,33.8875 C148.7162,32.0543 150.7552,31.3499 149.4702,31.8764 C148.2782,32.3648 149.0782,32.0258 147.0812,32.8363 C145.9372,33.3001 144.2792,33.9878 142.4322,34.8546 C134.7271,38.4701 121.0882,46.4351 113.2415,63.7371 L190.7802,98.9025 Z M195.4452,103.2115 C199.3692,100.3065 202.2992,97.2685 204.3612,94.8495 C206.4032,92.4555 207.9512,90.2425 208.9322,88.7825 C209.8162,87.4661 210.7852,85.9271 211.0162,85.5645 C211.4542,84.879 211.4292,84.942 211.2222,85.2265 C210.9082,85.6606 208.4042,89.1594 203.4092,92.3025 C200.7762,93.9595 197.6952,95.3675 194.2542,96.2755 C190.8312,97.1775 187.6482,97.4275 184.9362,97.3145 L188.4692,12.2477 C177.5402,11.7938 167.0712,14.5745 158.0642,20.2423 C149.8812,25.3918 144.8482,31.7253 142.2812,35.2675 C140.9492,37.106 139.8662,38.7915 139.2682,39.7276 C138.4642,40.9865 138.4172,41.0682 138.2602,41.3024 C137.8202,41.9569 140.0342,38.3001 144.7912,34.7795 L195.4452,103.2115 Z M235.0512,69.1408 C230.6282,56.7549 222.1002,46.1446 210.2092,39.533 C198.8622,33.2237 186.9292,31.8989 176.9272,33.0591 C159.0562,35.1321 137.1302,46.9744 129.268,71.3061 L210.2832,97.4835 C205.6242,111.9045 193.9742,116.7925 186.7372,117.6325 C182.0532,118.1755 175.5252,117.6645 168.8342,113.9435 C161.6002,109.9205 156.9782,103.6755 154.8702,97.7745 L235.0512,69.1408 Z M129.0792,71.9054 C126.9562,78.8232 126.6196,84.9736 126.5862,88.7891 C126.5533,92.5385 126.8378,96.1035 126.9461,97.5845 C127.1018,99.7155 127.1005,99.9655 127.1006,99.9285 C127.1007,99.7695 127.0917,97.8115 127.8034,94.9585 L210.4112,115.5685 C211.9642,109.3435 212.2362,103.8175 212.240243,100.0225 C212.2442,96.3505 211.9702,92.8955 211.8592,91.3795 C211.7012,89.2145 211.7262,89.1907 211.7232,89.5354 C211.7192,89.9464 211.7022,92.8765 210.4722,96.8845 L129.0792,71.9054 Z M128.189,93.5205 C129.4837,89.0091 131.4236,86.1083 132.0565,85.2105 C132.3074,84.8546 132.8993,84.1263 130.8682,86.5914 C129.6457,88.0751 126.288,92.1215 123.4136,97.4925 C120.2287,103.4425 117.1974,111.7425 117.1704,121.9315 L202.3102,122.1575 C202.2922,129.0675 200.1992,134.4525 198.4772,137.6695 C197.6822,139.1545 196.9762,140.1655 196.6672,140.5905 C196.3762,140.9925 196.2422,141.1375 196.5762,140.7325 C196.7452,140.5265 196.9072,140.3335 197.2282,139.9485 C197.5072,139.6135 197.8992,139.1425 198.3182,138.6275 C199.1482,137.6095 200.3552,136.0935 201.6422,134.2675 C204.2062,130.6315 207.7872,124.8075 210.0262,117.0065 L128.189,93.5205 Z M117.1714,121.7315 C117.121,128.5835 118.2336,135.0455 120.3368,141.0635 C122.3297,146.7665 124.8676,151.0195 126.1519,153.1055 C129.4759,158.5045 125.5142,152.9025 124.3114,146.7895 L207.8492,130.3525 C206.5352,123.6745 204.2512,118.3415 202.1392,114.3605 C201.1522,112.5015 200.2232,110.9775 199.6412,110.0415 C199.3592,109.5885 199.0762,109.1415 198.9332,108.9155 C198.7532,108.6315 198.6892,108.5275 198.6512,108.4665 C198.5062,108.2305 199.6982,110.0805 200.7112,112.9775 C201.8332,116.1905 202.3302,119.4425 202.3092,122.3575 L117.1714,121.7315 Z M124.4757,147.5845 C123.779,144.3685 124.1557,141.1295 123.8855,146.3625 C123.6974,150.0065 122.9277,161.4425 128.1054,174.0595 L206.8702,141.7345 C209.4752,148.0815 208.7742,153.4215 208.9122,150.7535 C208.9152,150.6935 209.0142,148.9225 209.0492,148.1825 C209.1042,147.0165 209.1642,145.4335 209.16039,143.6325 C209.1532,139.9565 208.8862,135.0995 207.6852,129.5585 L124.4757,147.5845 Z M127.6382,172.8705 C132.1708,184.9335 140.7232,195.4995 152.8732,201.9885 C164.5382,208.2175 176.7802,209.2485 187.0472,207.6385 C206.0512,204.6585 226.1592,191.0665 233.0122,167.6725 L151.3052,143.7385 C155.0372,130.9965 165.2082,124.8825 173.8562,123.5265 C178.9462,122.7285 185.9052,123.1075 192.9812,126.8865 C200.5432,130.9255 205.2032,137.2425 207.3372,142.9235 L127.6382,172.8705 Z M232.9052,168.0315 C236.7922,155.1825 234.7512,144.1855 234.3142,141.4275 C233.7342,137.7645 234.6572,141.8185 233.9422,146.3895 L149.8242,133.2365 C148.1262,144.0995 150.0072,153.3855 150.2212,154.7385 C150.5782,156.9965 149.1672,150.8005 151.4122,143.3795 L232.9052,168.0315 Z M233.9572,146.2935 C233.4632,149.5015 232.5152,151.8195 232.0442,152.8415 C231.8592,153.2435 231.4762,153.9345 232.8532,151.4475 C234.8362,147.8655 241.1812,136.7405 241.0422,121.2755 L155.9062,122.0365 C155.8332,113.8695 159.4252,108.2975 158.3682,110.2065 C158.3432,110.2515 157.4982,111.7595 157.0642,112.5585 C156.4502,113.6875 155.5982,115.3005 154.7172,117.2125 C152.8992,121.1595 150.8472,126.5985 149.8092,133.3325 L233.9572,146.2935 Z M241.0022,119.7595 C240.7092,113.1835 239.2622,107.6985 237.8782,103.6885 C236.5552,99.8585 235.0262,96.6715 234.2632,95.0925 C234.0542,94.6605 233.8482,94.2405 233.6952,93.9275 C233.5272,93.5845 233.4082,93.3405 233.2982,93.1125 C233.0782,92.6565 233.0132,92.5105 233.0142,92.5105 C233.0212,92.5265 233.1462,92.8125 233.3182,93.2985 C233.4922,93.7925 233.7312,94.5375 233.9562,95.4945 L151.0932,115.0505 C152.2432,119.9255 153.8212,123.9165 155.0242,126.6635 C155.6292,128.0455 156.2052,129.2575 156.6342,130.1455 C156.8482,130.5885 157.0562,131.0135 157.2132,131.3355 C157.3862,131.6875 157.5042,131.9295 157.6152,132.1585 C158.1302,133.2245 157.8072,132.6535 157.4012,131.4795 C156.9332,130.1245 156.1152,127.3315 155.9462,123.5525 L241.0022,119.7595 Z M234.2312,96.7405 C235.2752,101.8445 234.7382,105.9175 234.3462,107.8685 C234.0942,109.1205 233.6982,110.1755 234.6182,107.3885 C235.1412,105.8065 236.9782,100.4665 237.7842,94.1365 C238.7012,86.9384 238.4672,77.6301 234.5022,67.6873 L155.4202,99.2285 C152.8852,92.8725 152.8562,87.0771 153.3262,83.3825 C153.5362,81.7324 153.8322,80.5948 153.9302,80.2328 C154.0142,79.925 154.0402,79.8794 153.7762,80.6789 C153.6152,81.1677 153.0712,82.7799 152.6082,84.2979 C152.0982,85.9708 151.4332,88.3172 150.8782,91.0785 C149.7362,96.7535 148.9502,104.6715 150.8182,113.8045 L234.2312,96.7405 Z" id="Shape" fill="#0B1237" fill-rule="nonzero" mask="url(#mask-2)"></path>
                    <mask id="mask-4" fill="white">
                        <use xlink:href="#path-3"></use>
                    </mask>
                    <g id="Shape"></g>
                </g>
            </g>
            <g id="Group" transform="translate(10.0535, 10.9365)">
                <path d="M71.5675,63.6266 C75.6976,58.6698 78.2839,49.9513 87.7615,49.2682 C95.759,48.7504 96.4213,58.043 100.6174,62.0707 C104.3815,65.5846 110.3858,67.3498 111.068,75.1416 C111.8956,85.914 94.65,94.208 95.2083,100.89 C95.8906,108.682 110.568,104.234 114.6013,111.839 C117.935,118.211 114.1956,123.311 115.9872,129.293 C117.7788,135.275 124.2769,138.109 123.849,146.025 C123.421,153.941 116.5973,158.261 111.0291,165.439 C104.3516,174.427 103.9848,181.212 93.7472,183.479 C84.9691,185.395 79.3127,180.031 72.8557,177.567 C66.1725,174.754 55.5045,179.878 50.936,170.834 C46.7787,162.119 52.347,154.941 53.6389,148.053 C55.0333,140.404 50.2805,133.067 54.409,124.738 C58.8456,115.813 74.6744,111.611 74.8975,105.217 C75.0785,96.767 59.1861,97.042 57.9058,85.57 C56.7702,75.3938 66.4304,69.6325 71.5675,63.6266 Z M84.008,67.6709 C80.3289,69.9548 80.6394,74.4161 79.5309,77.9117 C78.2993,81.983 73.9214,84.72 76.4316,88.748 C80.7524,95.572 94.3784,85.059 94.1686,76.4655 C94.0415,68.6118 88.2008,64.955 84.008,67.6709 Z M86.5408,118.904 C78.194,119.648 77.581,127.585 75.4044,133.26 C73.3716,138.545 69.6107,141.775 66.9815,146.751 C63.8384,152.16 64.8296,161.041 69.9706,163.465 C75.0498,165.333 78.2968,162.536 82.9225,162.019 C87.1781,161.545 90.9216,164.873 97.2116,162.485 C104.0568,160.036 105.5322,149.755 104.5204,140.689 C103.0131,127.182 97.108,117.912 86.5408,118.904 Z M176.6497,43.8446 C188.5127,44.394 188.6617,55.8045 193.2087,62.9776 C196.3777,67.8693 203.5347,73.2525 204.6697,81.743 C206.2997,92.988 197.9967,100.846 198.8867,112.174 C199.7947,120.315 205.1027,127.591 202.4137,137.07 C200.5257,143.65 195.0787,146.88 191.7927,152.68 C187.3547,159.919 187.6077,172.255 169.9887,173.846 C152.9457,175.561 150.8807,157.058 146.1077,149.536 C142.4237,143.39 133.8687,137.226 132.8347,126.289 C131.6367,113.872 139.9387,106.014 141.8667,96.432 C143.5477,86.316 138.5277,78.2591 141.9577,70.3831 C145.7157,62.0958 154.8437,61.6391 160.0647,58.0592 C165.4287,54.0886 166.8627,43.4381 176.6497,43.8446 Z M184.9077,72.5212 C180.2757,59.5504 162.9247,63.5473 159.7227,73.4585 C157.9367,79.278 160.7367,87.582 159.0537,94.327 C157.1657,100.907 149.7037,104.549 149.6867,111.108 C149.6287,118.982 154.7287,121.036 156.0267,127.635 C157.5727,134.768 154.8617,140.691 157.4347,146.96 C162.2307,159.725 178.9847,155.42 182.1047,144.769 C183.7467,139.341 180.8457,135.168 181.8297,128.877 C182.9167,121.824 188.4857,118.018 188.4207,110.719 C188.1717,105.127 183.8927,100.359 182.4717,94.336 C180.8227,86.278 187.7687,79.695 184.9077,72.5212 Z" id="Shape" fill="#B1EE2F" fill-rule="nonzero"></path>
                <g id="Clipped">
                    <mask id="mask-6" fill="white">
                        <use xlink:href="#path-5"></use>
                    </mask>
                    <g id="Rectangle"></g>
                    <path d="M71.5674,63.6266 L96.7138,85.135 C96.8063,85.027 96.8982,84.918 96.9894,84.808 L71.5674,63.6266 Z M87.7615,49.2682 L85.6234,16.2474 C85.5433,16.2526 85.4632,16.2581 85.383,16.2638 L87.7615,49.2682 Z M100.6174,62.0707 L77.7033,85.943 C77.8138,86.049 77.925,86.154 78.037,86.259 L100.6174,62.0707 Z M111.068,75.1416 L144.0607,72.6071 C144.0517,72.4899 144.0417,72.3726 144.0317,72.2555 L111.068,75.1416 Z M95.2083,100.89 L62.2333,103.645 C62.2369,103.689 62.2406,103.732 62.2444,103.776 L95.2083,100.89 Z M114.6013,111.839 L143.9207,96.499 C143.8927,96.444 143.8637,96.39 143.8347,96.335 L114.6013,111.839 Z M115.9872,129.293 L84.2883,138.787 L84.2883,138.787 L115.9872,129.293 Z M123.849,146.025 L90.8072,144.239 L123.849,146.025 Z M111.0291,165.439 L84.8836,145.157 C84.7431,145.339 84.6044,145.521 84.4677,145.705 L111.0291,165.439 Z M93.7472,183.479 L100.8046,215.807 C100.8363,215.8 100.868,215.793 100.8997,215.786 L93.7472,183.479 Z M72.8558,177.567 L60.017,208.065 C60.3616,208.21 60.7086,208.349 61.058,208.483 L72.8558,177.567 Z M50.936,170.834 L21.06976,185.081 C21.17744,185.306 21.28767,185.531 21.40044,185.754 L50.936,170.834 Z M53.6389,148.053 L86.1618,154.153 C86.1721,154.098 86.1823,154.043 86.1924,153.987 L53.6389,148.053 Z M54.409,124.738 L24.7780364,110.009 C24.772527,110.02 24.767023,110.031 24.761525,110.042 L54.409,124.738 Z M74.8975,105.217 L107.9674,106.371 C107.9726,106.223 107.9768,106.074 107.9799,105.926 L74.8975,105.217 Z M84.008,67.6709 L101.4602,95.784 C101.6404,95.673 101.8195,95.559 101.9975,95.444 L84.008,67.6709 Z M79.5309,77.9117 L47.9889,67.9092 C47.9444,68.0494 47.9009,68.1898 47.8583,68.3306 L79.5309,77.9117 Z M76.4316,88.748 L48.3476,106.248 C48.3898,106.315 48.4322,106.383 48.4749,106.45 L76.4316,88.748 Z M94.1686,76.4655 L61.083,77.0011 C61.0844,77.0917 61.0863,77.1822 61.0885,77.2728 L94.1686,76.4655 Z M86.5408,118.904 L89.4793,151.864 C89.5307,151.859 89.582,151.854 89.6334,151.849 L86.5408,118.904 Z M75.4044,133.26 L106.2883,145.14 C106.2923,145.13 106.2963,145.119 106.3003,145.109 L75.4044,133.26 Z M66.9815,146.751 L95.5916,163.377 C95.8153,162.992 96.0313,162.602 96.2393,162.209 L66.9815,146.751 Z M69.9706,163.465 L55.8608,193.396 C56.739,193.81 57.635,194.185 58.5462,194.52 L69.9706,163.465 Z M97.2116,162.485 L86.0614,131.331 C85.8627,131.402 85.6647,131.475 85.4674,131.55 L97.2116,162.485 Z M96.9894,84.808 C98.45,83.056 99.6137,81.415 100.443,80.192 C101.2483,79.0055 101.994,77.8285 102.4172,77.1642 C102.9327,76.3547 103.1737,75.9815 103.3757,75.6844 C103.5529,75.4235 103.5204,75.4904 103.3242,75.7314 C102.9394,76.2042 101.519,77.8576 98.9269,79.424 C97.6144,80.217 96.1389,80.904 94.5404,81.412 C92.9451,81.92 91.4484,82.178 90.14,82.273 L85.383,16.2638 C68.7154,17.465 58.0265,26.5457 51.9941,33.9581 C49.4167,37.1251 47.4236,40.315 46.5976,41.6119 C45.3316,43.5995 45.5611,43.1461 46.1455,42.4447 L96.9894,84.808 Z M89.8996,82.289 C87.6501,82.435 84.8891,82.276 81.8634,81.464 C78.8093,80.645 76.0917,79.322 73.8027,77.7479 C69.5166,74.8 67.5737,71.5365 67.3888,71.2343 C67.2317,70.9775 67.2214,70.9324 67.5158,71.4933 C67.6314,71.7134 68.3598,73.1251 68.8915,74.103 C69.531,75.2793 70.5289,77.0482 71.8473,78.982 C73.173,80.927 75.0822,83.427 77.7033,85.943 L123.5316,38.1983 C126.3647,40.9175 127.5247,43.3956 127.0347,42.4936 C126.7897,42.0421 126.7657,41.9776 126.1127,40.7336 C125.6387,39.8303 124.8431,38.3332 123.8411,36.6955 C121.9665,33.6315 118.0963,27.8901 111.3056,23.2197 C103.675,17.9716 94.7154,15.6587 85.6234,16.2474 L89.8996,82.289 Z M78.037,86.259 C79.5796,87.699 81.0131,88.842 82.0904,89.662 C83.1272,90.45 84.1164,91.148 84.613,91.5 C85.2534,91.954 85.4061,92.064 85.5049,92.139 C85.5548,92.176 85.2765,91.971 84.8403,91.578 C83.9056,90.735 82.1528,88.95 80.6249,86.148 C79.0376,83.237 78.3083,80.36 78.1041,78.0277 L144.0317,72.2555 C143.4867,66.0273 141.7507,60.0081 138.7287,54.465 C135.7647,49.0306 132.1477,45.1235 129.1567,42.4263 C126.4327,39.9703 123.6691,38.0644 122.8717,37.4994 C121.4672,36.5043 122.2378,36.9862 123.1979,37.8824 L78.037,86.259 Z M78.0752,77.6761 C77.5527,70.8739 80.1032,66.3522 80.7667,65.2861 C81.2996,64.4298 81.423,64.5203 79.5168,66.4805 C78.6854,67.3354 74.6314,71.3023 71.8415,74.751 C70.2235,76.751 67.8038,79.998 65.8096,84.246 C63.7754,88.579 61.5389,95.336 62.2333,103.645 L128.1837,98.134 C128.7377,104.774 126.9187,109.809 125.7177,112.368 C124.5561,114.842 123.3857,116.26 123.293,116.375 C123.1287,116.578 123.2274,116.435 123.985,115.651 C124.3347,115.29 124.7228,114.896 125.2427,114.37 C125.7257,113.88 126.3387,113.259 126.9617,112.619 C129.1937,110.324 133.4377,105.904 136.9547,100.254 C140.6007,94.394 144.9967,84.796 144.0607,72.6071 L78.0752,77.6761 Z M62.2444,103.776 C62.8189,110.337 65.0882,117.065 69.5067,123.014 C73.7362,128.709 78.7817,132.144 82.7024,134.181 C86.5006,136.155 89.9908,137.203 92.1664,137.775 C94.362,138.353 96.43,138.744 97.4461,138.938 C100.6324,139.546 99.3688,139.41 97.7756,138.778 C95.3959,137.835 89.3121,134.779 85.3681,127.343 L143.8347,96.335 C137.8737,85.096 128.4427,79.744 122.1555,77.2525 C119.075,76.0318 116.286,75.3014 114.3422,74.8509 C112.4838,74.4203 110.6105,74.0758 109.8502,73.9307 C108.7369,73.7183 108.7279,73.7005 108.9951,73.7707 C109.2422,73.8357 110.9525,74.2794 113.2158,75.4554 C115.6016,76.695 119.357,79.139 122.6374,83.557 C126.1067,88.228 127.7687,93.391 128.1727,98.004 L62.2444,103.776 Z M85.2817,127.179 C83.9716,124.675 83.2785,122.034 83.0454,119.694 C82.8494,117.726 83.0481,116.446 82.9612,117.278 C82.9418,117.465 82.9184,117.673 82.8756,118.051 C82.8383,118.381 82.7819,118.879 82.7275,119.403 C82.6185,120.452 82.4713,122.028 82.4114,123.854 C82.2869,127.65 82.518,132.876 84.2883,138.787 L147.6857,119.8 C148.5607,122.72 148.5877,125.065 148.5557,126.023 C148.5507,126.174 148.4777,127.079 148.7837,124.146 C149.2617,119.57 150.2347,108.568 143.9207,96.499 L85.2817,127.179 Z M84.2883,138.787 C86.1197,144.902 88.9406,149.439 90.8512,152.191 C91.7849,153.535 92.6742,154.691 93.1735,155.339 C93.815,156.17 93.9285,156.314 94.0741,156.513 C94.267,156.775 93.187,155.391 92.2446,152.987 C91.1671,150.237 90.6481,147.181 90.8072,144.239 L156.8907,147.811 C157.2637,140.911 156.0927,134.532 153.8617,128.838 C151.7647,123.489 149.0287,119.538 147.4267,117.355 C146.6747,116.331 145.8557,115.282 145.5757,114.919 C145.1537,114.372 145.1327,114.331 145.2117,114.446 C145.4137,114.736 146.7507,116.676 147.6857,119.8 L84.2883,138.787 Z M90.8072,144.239 C90.9603,141.408 91.7316,138.904 92.6479,137.005 C93.4499,135.343 94.1722,134.552 93.8746,134.911 C93.7458,135.067 93.494,135.359 92.9998,135.899 C92.4381,136.514 91.9685,137.011 91.082,137.965 C89.558,139.605 87.2355,142.126 84.8836,145.157 L137.1747,185.721 C137.6067,185.164 138.2257,184.453 139.5607,183.017 C140.5767,181.923 142.8547,179.528 144.8587,177.106 C149.2897,171.752 156.1237,162.001 156.8907,147.811 L90.8072,144.239 Z M84.4677,145.705 C81.7,149.43 79.6986,152.787 78.3972,155.009 C77.6435,156.297 77.3685,156.782 76.9766,157.433 C76.6609,157.957 76.6214,157.993 76.7543,157.806 C77.1219,157.289 78.4882,155.499 80.9631,153.782 C83.4735,152.04 85.6683,151.376 86.5946,151.171 L100.8997,215.786 C106.9448,214.448 113.0245,212.086 118.6917,208.154 C124.3235,204.246 128.1187,199.773 130.6917,196.153 C132.8817,193.073 134.8537,189.566 135.5057,188.453 C136.4707,186.804 137.0197,185.942 137.5907,185.174 L84.4677,145.705 Z M86.6898,151.15 C88.5302,150.748 90.5426,150.686 92.4589,150.966 C94.2262,151.223 95.3117,151.685 95.3657,151.708 C95.3843,151.716 95.2348,151.653 94.7985,151.435 C94.2955,151.183 93.832,150.939 92.8779,150.443 C92.0575,150.016 90.8653,149.399 89.5554,148.771 C88.2189,148.13 86.5558,147.378 84.6535,146.652 L61.058,208.483 C60.6765,208.337 60.6946,208.3 62.3414,209.157 C63.4866,209.753 66.379,211.299 69.4963,212.623 C76.7599,215.707 87.5836,218.693 100.8046,215.807 L86.6898,151.15 Z M85.6945,147.07 C81.7792,145.421 78.153,144.595 75.287,144.147 C72.4489,143.704 69.9448,143.573 68.1835,143.523 C66.5111,143.476 64.8078,143.493 64.0625,143.496 C63.5859,143.497 63.2822,143.497 63.0382,143.494 C62.8038,143.491 62.7198,143.487 62.7342,143.487843 C62.7506,143.487843 62.9227,143.497 63.2107,143.529 C63.5,143.561 63.953,143.621 64.5312,143.735 C65.6787,143.962 67.4943,144.436 69.623,145.453 C71.8266,146.507 74.0877,148.013 76.1371,150.032 C78.1723,152.036 79.5649,154.12 80.4715,155.915 L21.40044,185.754 C25.769021,194.402 32.58942,201.102 41.0739,205.159 C48.6367,208.775 55.7224,209.402 59.4715,209.587 C61.4528,209.685 63.2656,209.679 64.3132,209.675 C65.6313,209.67 65.985,209.668 66.324,209.677 C67.2674,209.704 64.1601,209.809 60.017,208.065 L85.6945,147.07 Z M80.8022,156.588 C81.2928,157.617 81.7254,158.809 82.0332,160.131 C82.3405,161.45 82.4811,162.716 82.5054,163.867 C82.5529,166.115 82.1465,167.543 82.1407,167.564 C82.1366,167.579 82.1869,167.397 82.3763,166.852 C82.6205,166.149 82.7767,165.737 83.2278,164.482 C83.5917,163.469 84.1122,161.999 84.615,160.361 C85.1244,158.701 85.7061,156.583 86.1618,154.153 L21.11602,141.953 C21.32935,140.816 21.57697,140.348 20.94599,142.104 C20.58002,143.123 19.29093,146.534 18.34725,149.952 C16.10391,158.078 14.3309,170.953 21.06976,185.081 L80.8022,156.588 Z M86.1924,153.987 C87.3007,147.908 87.0432,142.649 86.7001,139.137 C86.5296,137.392 86.3079,135.821 86.1538,134.759 C85.9666,133.469 85.8949,133.019 85.8128,132.387 C85.6727,131.308 85.8416,132.02 85.7296,133.433 C85.5936,135.149 85.1109,137.307 84.0564,139.434 L24.761525,110.042 C18.27308,123.131 19.42869,135.097 20.18447,140.914 C20.35127,142.198 20.5712,143.653 20.65974,144.263 C20.78128,145.1 20.81919,145.423 20.83367,145.572 C20.86056,145.847 20.67427,144.374 21.0854,142.119 L86.1924,153.987 Z M84.0399,139.467 C82.2352,143.098 80.1496,144.644 80.5591,144.305 C80.9602,143.973 81.707,143.445 84.3293,141.732 C85.9821,140.652 90.5191,137.779 94.4164,134.256 C97.7382,131.253 107.4266,121.871 107.9674,106.371 L41.8276,104.063 C42.0451,97.832 44.1797,93.035 46.0354,90.051 C47.7665,87.268 49.4941,85.653 50.0356,85.163 C50.6444,84.613 50.9208,84.453 50.442,84.79 C49.9703,85.122 49.3456,85.536 48.1373,86.325 C46.22,87.577 42.1637,90.173 38.3421,93.339 C34.52901,96.497 28.80103,101.916 24.7780364,110.009 L84.0399,139.467 Z M107.9799,105.926 C108.1203,99.374 106.6384,93.052 103.7538,87.392 C101.007,82.002 97.4853,78.1762 94.6874,75.6473 C91.9493,73.1724 89.3021,71.4071 87.6375,70.3534 C86.0985,69.3791 84.2714,68.3261 83.7452,68.0161 C81.63,66.7701 83.1033,67.4218 84.8833,69.2576 C87.4627,71.9181 90.1716,76.3436 90.7917,81.9 L25.019992,89.24 C26.28021,100.533 31.45569,109.226 37.3694,115.325 C42.4836,120.6 48.1587,123.862 50.1541,125.037 C51.6831,125.938 51.8884,126.049 52.2392,126.271 C52.4643,126.413 51.5641,125.877 50.3105,124.744 C48.9971,123.557 46.6973,121.185 44.7899,117.443 C42.7449,113.43 41.72,108.948 41.8151,104.509 L107.9799,105.926 Z M90.7917,81.9 C90.9603,83.411 90.9448,85.034 90.7047,86.693 C90.4663,88.34 90.0407,89.786 89.5612,90.985 C89.0907,92.161 88.5982,93.025 88.2558,93.56 C88.0838,93.829 87.9419,94.028 87.8482,94.153 C87.7547,94.278 87.6999,94.343 87.6992,94.344015 C87.6987,94.345 87.7403,94.296 87.8379,94.19 C87.9359,94.083 88.0758,93.936 88.272,93.737 C88.6973,93.304 89.2031,92.814 90.005,92.045 C90.6972,91.381 91.7869,90.343 92.8359,89.296 C93.9172,88.217 95.2939,86.795 96.7138,85.135 L46.4212,42.1182 C46.438,42.0985 46.238,42.324 44.2069,44.2712 C42.6977,45.7179 39.8204,48.4569 37.0696,51.7247 C31.24773,58.6407 23.0336,71.4406 25.019992,89.24 L90.7917,81.9 Z M66.5558,39.5574 C54.8706,46.8113 50.6209,57.4866 48.9692,63.3146 C48.2489,65.8564 47.7963,68.3434 47.7017,68.8285 C47.4864,69.9332 47.6132,69.0939 47.9889,67.9092 L111.0729,87.914 C112.0029,84.982 112.5065,82.274 112.6597,81.488 C112.9337,80.082 112.8412,80.655 112.6417,81.359 C112.3828,82.273 111.6295,84.68 109.8245,87.515 C107.8624,90.597 105.0627,93.548 101.4602,95.784 L66.5558,39.5574 Z M47.8583,68.3306 C48.3388,66.7425 48.8787,65.5272 49.2572,64.7588 C49.6254,64.0114 49.9148,63.5407 49.9286,63.5181 C49.9401,63.4993 49.9201,63.5326 49.8255,63.6816 C49.7776,63.7571 49.7281,63.8346 49.653,63.9525 C49.585,64.0591 49.4939,64.2019 49.3987,64.3521 C49.0555,64.8936 48.3416,66.0242 47.595,67.3796 C46.2051,69.9025 43.3723,75.4949 42.7167,83.077 C41.9776,91.624 44.2234,99.629 48.3476,106.248 L104.5156,71.2485 C105.8075,73.3219 107.0677,75.9848 107.8787,79.2 C108.7005,82.459 108.9159,85.712 108.6506,88.779 C108.1483,94.588 106.0164,98.486 105.5611,99.313 C105.2818,99.82 105.0937,100.101 105.2956,99.783 C105.3314,99.726 105.9527,98.759 106.4194,97.994 C107.4495,96.306 109.6765,92.541 111.2034,87.493 L47.8583,68.3306 Z M48.4749,106.45 C57.3005,120.389 71.9628,124.9 83.8629,123.887 C93.852,123.036 101.6554,118.643 106.4536,115.155 C111.6621,111.37 116.4333,106.411 120.0882,100.612 C123.5767,95.076 127.5107,86.398 127.2487,75.6582 L61.0885,77.2728 C60.9312,70.8299 63.2408,66.6888 64.0984,65.328 C65.1224,63.703 66.2563,62.5577 67.5445,61.6215 C68.4224,60.9834 72.0222,58.4757 78.2477,57.9456 C81.6951,57.652 86.5876,57.9435 91.8698,60.2885 C97.3958,62.7419 101.6324,66.6935 104.3883,71.0459 L48.4749,106.45 Z M127.2547,75.9299 C127.0617,64.0595 122.3476,50.8709 110.9343,41.9896 C99.1278,32.8025 81.2717,30.018 66.0184,39.8982 L101.9975,95.444 C90.9371,102.608 78.0977,100.294 70.2916,94.22 C62.8786,88.451 61.148,81.018 61.083,77.0011 L127.2547,75.9299 Z M83.6024,85.945 C76.0668,86.617 68.5219,89.16 61.8877,94.075 C55.505,98.803 51.6753,104.461 49.3858,108.804 C47.2101,112.932 45.9514,116.824 45.3542,118.702 C45.1877,119.226 45.0322,119.728 44.9159,120.103 C44.7879,120.517 44.7029,120.791 44.6217,121.048 C44.454,121.577 44.435,121.603 44.5086,121.411 L106.3003,145.109 C106.918,143.498 107.3943,142.035 107.7094,141.041 C107.8695,140.536 108.0228,140.04 108.1343,139.68 C108.2577,139.281 108.3432,139.006 108.4237,138.753 C108.8145,137.524 108.6388,138.32 107.9317,139.662 C107.111,141.219 105.1355,144.398 101.2834,147.252 C97.1797,150.292 92.8415,151.564 89.4793,151.864 L83.6024,85.945 Z M44.5205,121.38 C45.1457,119.755 45.8835,118.973 44.6732,120.634 C44.3271,121.109 42.9778,122.922 41.9472,124.405 C40.7272,126.16 39.2094,128.482 37.7236,131.294 L96.2393,162.209 C96.1433,162.39 95.8423,162.789 98.16,159.608 C99.9956,157.089 103.6303,152.05 106.2883,145.14 L44.5205,121.38 Z M38.3713,130.126 C32.47244,140.277 31.17904,151.709 32.67252,161.312 C34.06581,170.272 39.4575,185.663 55.8608,193.396 L84.0805,133.534 C95.3427,138.843 97.6683,148.582 98.0665,151.143 C98.5649,154.348 98.3475,158.634 95.5916,163.377 L38.3713,130.126 Z M58.5462,194.52 C63.5882,196.375 68.6944,197.224 73.7169,197.189 C78.5437,197.156 82.484,196.306 85.0012,195.647 C86.2292,195.325 87.291,195 87.9067,194.809 C88.7288,194.555 88.7871,194.534 89.0404,194.459 C89.3041,194.381 88.2442,194.721 86.5925,194.905 L79.2525,129.134 C75.288,129.576 72.0875,130.459 70.2828,130.993 C69.8228,131.129 69.4097,131.256 69.0968,131.353 C68.9414,131.401 68.7882,131.449 68.67,131.485 C68.5424,131.525 68.4453,131.555 68.3551,131.583 C67.96,131.705 68.0165,131.683 68.2321,131.626 C68.7244,131.497 70.6114,131.029 73.2564,131.011 C74.5929,131.001 76.0049,131.106 77.4526,131.358 C78.8967,131.608 80.2188,131.977 81.3951,132.41 L58.5462,194.52 Z M86.5925,194.905 C82.8787,195.32 80.1552,194.79 79.6227,194.684 C79.3908,194.638 79.298,194.611 79.8857,194.753 C80.2832,194.849 81.3484,195.11 82.4898,195.351 C84.9492,195.868 88.8927,196.549 93.7151,196.434 C98.6955,196.315 103.8175,195.372 108.9559,193.421 L85.4674,131.55 C87.4608,130.793 89.756,130.33 92.1325,130.273 C94.3508,130.22 95.9132,130.546 96.1185,130.589 C96.1328,130.592 96.1028,130.587 95.4249,130.423 C94.9372,130.305 93.7888,130.025 92.5092,129.771 C89.8813,129.249 85.0941,128.482 79.2525,129.134 L86.5925,194.905 Z M108.3619,193.64 C126.3507,187.202 133.2897,171.708 135.7277,162.808 C138.2877,153.459 138.1987,144.119 137.4067,137.019 L71.6345,144.359 C71.8539,146.325 71.5331,146.659 71.8974,145.329 C72.1387,144.448 74.9176,135.319 86.0614,131.331 L108.3619,193.64 Z M137.4067,137.019 C136.3037,127.139 133.2637,114.726 125.1577,104.186 C115.7696,91.98 100.8885,84.322 83.4483,85.959 L89.6334,151.849 C87.0313,152.094 83.5194,151.763 79.8699,150.099 C76.3079,148.475 73.9899,146.212 72.6988,144.533 C70.5633,141.756 71.2298,140.732 71.6345,144.359 L137.4067,137.019 Z M176.6487,43.8446 L178.1797,10.79 C178.1277,10.7875 178.0747,10.7852 178.0227,10.7831 L176.6487,43.8446 Z M193.2087,62.9776 L165.2607,80.694 C165.3187,80.785 165.3777,80.876 165.4357,80.967 L193.2087,62.9776 Z M204.6697,81.743 L171.8717,86.127 C171.8877,86.248 171.9047,86.368 171.9217,86.489 L204.6697,81.743 Z M198.8867,112.174 L165.8977,114.764 C165.9267,115.125 165.9607,115.485 166.0007,115.844 L198.8867,112.174 Z M202.4137,137.07 L234.2207,146.198 C234.2297,146.165 234.2387,146.132 234.2487,146.1 L202.4137,137.07 Z M191.7927,152.68 L220.0037,169.973 C220.2017,169.65 220.3937,169.324 220.5807,168.995 L191.7927,152.68 Z M169.9887,173.846 L167.0117,140.89 C166.8997,140.9 166.7877,140.911 166.6767,140.922 L169.9887,173.846 Z M146.1077,149.536 L117.7243,166.546 C117.869,166.787 118.0168,167.027 118.1676,167.265 L146.1077,149.536 Z M132.8347,126.289 L165.7787,123.177 C165.7767,123.155 165.7747,123.133 165.7717,123.11 L132.8347,126.289 Z M141.8667,96.432 L174.3067,102.96 C174.3807,102.593 174.4477,102.225 174.5097,101.856 L141.8667,96.432 Z M141.9577,70.3831 L111.8216,56.7161 C111.7529,56.8676 111.6854,57.0195 111.619,57.172 L141.9577,70.3831 Z M160.0647,58.0592 L178.7787,85.349 C179.1067,85.124 179.4307,84.893 179.7517,84.656 L160.0647,58.0592 Z M184.9077,72.5212 L153.7447,83.65 C153.8807,84.029 154.0227,84.406 154.1717,84.78 L184.9077,72.5212 Z M159.7227,73.4585 L128.2357,63.2844 C128.1847,63.4393 128.1367,63.5946 128.0887,63.7503 L159.7227,73.4585 Z M159.0537,94.327 L190.8597,103.455 C190.9667,103.084 191.0667,102.711 191.1597,102.337 L159.0537,94.327 Z M149.6867,111.108 L182.7757,111.351 C182.7767,111.299 182.7767,111.248 182.7767,111.196 L149.6867,111.108 Z M156.0267,127.635 L123.5596,134.023 C123.6002,134.23 123.6427,134.435 123.6872,134.641 L156.0267,127.635 Z M157.4347,146.96 L188.4097,135.321 C188.2937,135.011 188.1727,134.703 188.0467,134.397 L157.4347,146.96 Z M182.1047,144.769 L150.4327,135.188 C150.4037,135.281 150.3767,135.374 150.3487,135.467 L182.1047,144.769 Z M181.8297,128.877 L214.5227,133.989 C214.5267,133.964 214.5307,133.939 214.5347,133.914 L181.8297,128.877 Z M188.4207,110.719 L221.5097,110.424 C221.5057,110.031 221.4957,109.638 221.4777,109.245 L188.4207,110.719 Z M182.4717,94.336 L150.0527,100.968 C150.1187,101.292 150.1897,101.615 150.2657,101.937 L182.4717,94.336 Z M175.1187,76.8991 C173.9417,76.8446 172.2367,76.6213 170.2187,75.9562 C168.1627,75.2781 166.1457,74.26 164.3007,72.9349 C160.6387,70.3051 158.9897,67.4435 158.6427,66.8082 C158.4617,66.4778 158.4587,66.4217 158.6687,66.9145 C158.9237,67.512 159.1277,68.0337 159.6687,69.3791 C160.1157,70.493 160.8057,72.1943 161.6467,74.0121 C162.5007,75.8589 163.6787,78.1982 165.2607,80.694 L221.1567,45.2612 C221.8457,46.3477 221.9717,46.932 221.0747,44.6992 C220.5667,43.4359 218.9187,39.0979 216.7027,35.0461 C214.2667,30.5929 210.0717,24.3274 202.9037,19.1795 C195.3647,13.7662 186.7847,11.1885 178.1797,10.79 L175.1187,76.8991 Z M165.4357,80.967 C166.5937,82.754 167.7367,84.265 168.6377,85.402 C169.5377,86.535 170.4087,87.562 171.0377,88.297 C172.5467,90.059 172.9977,90.568 173.4957,91.215 C174.3217,92.285 172.4217,90.242 171.8717,86.127 L237.4677,77.3592 C235.7827,64.7533 229.7367,55.7732 225.9077,50.8066 C224.0787,48.4345 222.0757,46.1504 221.3157,45.2622 C220.1157,43.8602 220.4277,44.1329 220.9817,44.9881 L165.4357,80.967 Z M171.9217,86.489 C171.3967,82.869 172.8947,80.354 171.0007,85.503 C169.6987,89.041 164.7917,100.679 165.8977,114.764 L231.8747,109.584 C232.0917,112.341 230.8907,114.386 233.1107,108.352 C234.7377,103.929 239.5717,91.862 237.4177,76.9974 L171.9217,86.489 Z M166.0007,115.844 C166.5477,120.743 167.6827,124.892 168.4647,127.539 C168.8447,128.827 169.2717,130.179 169.5147,130.959 C169.8047,131.89 169.9697,132.443 170.0907,132.884 C170.4977,134.364 169.5437,131.693 170.5797,128.04 L234.2487,146.1 C237.9727,132.967 235.7097,121.919 233.9077,115.357 C233.4767,113.786 233.0337,112.349 232.7077,111.301 C232.3337,110.1 232.1367,109.479 231.9337,108.792 C231.5487,107.489 231.6797,107.675 231.7727,108.504 L166.0007,115.844 Z M170.6077,127.942 C171.6767,124.218 173.6807,122.253 172.4507,123.695 C172.1047,124.1 171.8137,124.43 171.1597,125.18 C170.5997,125.822 169.8217,126.719 168.9957,127.726 C167.3237,129.762 165.0987,132.668 163.0037,136.364 L220.5807,168.995 C220.1287,169.792 219.8177,170.119 220.1507,169.713 C221.0667,168.597 220.7217,169.083 222.8047,166.64 C225.5917,163.372 231.2627,156.502 234.2207,146.198 L170.6077,127.942 Z M163.5807,135.387 C161.9377,138.067 160.7707,140.553 159.9897,142.336 C159.2537,144.018 158.5637,145.783 158.2477,146.578 C157.8287,147.631 157.6627,148.017 157.5647,148.229 C157.4907,148.389 157.6307,148.059 158.0037,147.479 C158.3967,146.869 159.0457,145.981 160.0077,145.014 C160.9907,144.027 162.1237,143.136 163.3507,142.409 C165.8847,140.91 167.5647,140.84 167.0117,140.89 L172.9657,206.802 C181.2217,206.056 189.4777,203.848 197.0577,199.362 C204.7927,194.784 210.0657,188.875 213.6627,183.283 C216.9407,178.187 218.8957,173.162 219.7337,171.057 C221.0177,167.833 220.7177,168.808 220.0037,169.973 L163.5807,135.387 Z M166.6767,140.922 C167.5557,140.834 169.0957,140.805 171.0687,141.219 C173.0827,141.643 175.0647,142.427 176.8577,143.511 C180.3417,145.618 181.7417,147.998 181.7457,148.005 C181.7827,148.066 181.6477,147.849 181.3307,147.16 C181.0007,146.443 180.6427,145.59 180.0837,144.222 C179.6197,143.089 178.8327,141.138 178.0127,139.304 C177.1937,137.471 175.8857,134.705 174.0467,131.806 L118.1676,167.265 C117.4001,166.055 117.1924,165.275 118.8284,169.275 C119.885,171.858 122.0008,177.112 125.1477,182.305 C128.3957,187.664 133.8057,194.818 142.6187,200.146 C151.9867,205.809 162.6037,207.846 173.3007,206.77 L166.6767,140.922 Z M174.4907,132.525 C172.1377,128.6 169.4337,125.34 168.1067,123.739 C166.3077,121.567 165.7257,120.901 165.0487,119.988 C164.1037,118.715 165.4957,120.187 165.7787,123.177 L99.8918,129.401 C101.2075,143.329 107.3943,153.351 111.9061,159.43 C113.9575,162.194 116.2696,164.904 117.1429,165.958 C118.4891,167.583 118.2355,167.399 117.7243,166.546 L174.4907,132.525 Z M165.7717,123.11 C166.0057,125.529 164.9847,126.859 166.2447,124.116 C166.5947,123.355 166.9797,122.567 167.5837,121.328 C168.1237,120.222 168.8797,118.674 169.6217,117.034 C171.0967,113.774 173.1137,108.888 174.3067,102.96 L109.4272,89.905 C109.6562,88.767 109.9126,88.457 109.3262,89.753 C109.0374,90.391 108.6874,91.117 108.1083,92.303 C107.5936,93.358 106.846,94.882 106.1123,96.478 C103.0395,103.164 98.4664,114.632 99.8982,129.468 L165.7717,123.11 Z M174.5097,101.856 C176.3717,90.647 174.3797,80.42 174.0057,77.8335 C173.3667,73.4079 174.7117,78.0464 172.2957,83.594 L111.619,57.172 C105.7734,70.5958 107.914,83.201 108.5068,87.302 C109.3654,93.241 109.043,92.101 109.2247,91.008 L174.5097,101.856 Z M172.0927,84.05 C170.8877,86.707 169.1067,88.921 167.2487,90.523 C165.6017,91.943 164.3357,92.498 164.5197,92.412 C164.5967,92.375 164.8407,92.266 165.4727,92.009 C165.7937,91.879 166.1157,91.75 166.5777,91.566 C166.9997,91.397 167.5437,91.18 168.1107,90.948 C169.2207,90.493 170.7977,89.827 172.5197,88.982 C174.2537,88.132 176.4447,86.95 178.7787,85.349 L141.3507,30.7693 C143.1377,29.5437 144.3777,29.152 143.0117,29.7117 C142.6797,29.8478 139.0917,31.2396 136.4057,32.5002 C129.6587,35.6663 118.3394,42.3443 111.8216,56.7161 L172.0927,84.05 Z M179.7517,84.656 C182.9517,82.287 185.3637,79.792 187.0947,77.7623 C188.8087,75.7516 190.1307,73.8668 191.0097,72.5592 C191.8127,71.3634 192.6787,69.9867 192.9737,69.5242 C193.4297,68.8109 193.5277,68.6791 193.4927,68.7273 C193.4367,68.804 193.0087,69.394 192.2247,70.1991 C191.4157,71.03 190.1257,72.1977 188.3067,73.3421 C186.4377,74.5184 184.2387,75.5247 181.7837,76.1721 C179.3427,76.8159 177.1117,76.9823 175.2757,76.906 L178.0227,10.7831 C168.9817,10.4076 160.4157,12.7003 153.0597,17.3294 C146.3437,21.5556 142.1497,26.7942 139.9037,29.8937 C138.7427,31.4959 137.7837,32.9866 137.2037,33.8949 C136.4627,35.054 136.3137,35.2979 136.0757,35.6526 C135.5017,36.5066 136.9787,33.9782 140.3777,31.4627 L179.7517,84.656 Z M216.0697,61.3925 C212.3737,51.0428 205.3097,42.3094 195.5487,36.8818 C186.2107,31.6893 176.3327,30.569 167.9657,31.5395 C152.8907,33.2882 134.7027,43.2676 128.2357,63.2844 L191.2097,83.633 C187.9437,93.738 180.0327,96.764 175.5917,97.279 C172.5417,97.632 168.0707,97.325 163.3877,94.722 C158.2827,91.883 155.1247,87.514 153.7447,83.65 L216.0697,61.3925 Z M128.0887,63.7503 C126.3387,69.4515 126.0417,74.5908 126.0127,77.9357 C125.9837,81.229 126.2337,84.4 126.3477,85.957 C126.4977,88.02 126.5277,88.626 126.5267,89.002 C126.5267,89.284 126.4887,88.159 126.9477,86.317 L191.1597,102.337 C192.4607,97.123 192.7037,92.431 192.706749,89.076 C192.7107,85.817 192.4667,82.718 192.3517,81.134 C192.2807,80.173 192.2397,79.592 192.2127,79.083 C192.1877,78.6002 192.1907,78.4551 192.1897,78.5158 C192.1897,78.5773 192.1847,79.0374 192.0947,79.772 C192.0037,80.512 191.8067,81.697 191.3557,83.167 L128.0887,63.7503 Z M127.2477,85.199 C128.1487,82.059 129.4737,80.129 129.7507,79.736 C129.8937,79.534 129.9097,79.532 129.6137,79.895 C129.0127,80.632 129.1797,80.411 128.1307,81.683 C126.3657,83.826 116.6402,94.685 116.5969,111.02 L182.7767,111.196 C182.7637,116.202 181.2417,120.063 180.0657,122.259 C179.1317,124.005 178.2877,124.883 179.2067,123.768 C179.3967,123.537 179.5817,123.315 179.8907,122.945 C180.1667,122.613 180.5307,122.175 180.9157,121.702 C181.6787,120.766 182.7327,119.44 183.8407,117.869 C186.0487,114.737 189.0147,109.885 190.8597,103.455 L127.2477,85.199 Z M116.5976,110.865 C116.5552,116.629 117.4887,122.009 119.2327,127 C120.8909,131.746 123.0134,135.319 124.1709,137.199 C127.0727,141.912 124.3499,138.04 123.5596,134.023 L188.4947,121.247 C187.4007,115.688 185.4997,111.238 183.7107,107.867 C182.8707,106.284 182.0697,104.967 181.5367,104.11 C181.2777,103.693 181.0167,103.282 180.8657,103.042 C180.6847,102.757 180.5947,102.612 180.5257,102.501 C180.2527,102.058 181.0307,103.229 181.7077,105.169 C182.4717,107.354 182.7897,109.524 182.7757,111.351 L116.5976,110.865 Z M123.6872,134.641 C123.3178,132.936 123.5457,131.144 123.2994,135.915 C123.1169,139.45 122.5109,149.019 126.8217,159.523 L188.0467,134.397 C189.7847,138.632 189.2477,142.105 189.3917,139.328 C189.4307,138.572 189.6327,135.54 189.626831,132.715 C189.6207,129.489 189.3857,125.333 188.3667,120.629 L123.6872,134.641 Z M126.4587,158.599 C130.2487,168.687 137.3307,177.373 147.2857,182.689 C156.8637,187.804 166.9677,188.678 175.5247,187.336 C191.4507,184.839 208.1867,173.441 213.8607,154.071 L150.3487,135.467 C152.9027,126.748 159.7027,122.829 165.2717,121.955 C168.6507,121.425 173.4717,121.648 178.4617,124.313 C183.8287,127.179 187.0177,131.617 188.4097,135.321 L126.4587,158.599 Z M213.7777,154.35 C216.9817,143.758 215.3247,134.676 214.8977,131.973 C214.3587,128.567 214.9687,131.136 214.5227,133.989 L149.1377,123.764 C147.7077,132.909 149.2767,140.71 149.5307,142.32 C149.8977,144.634 148.8697,140.352 150.4327,135.188 L213.7777,154.35 Z M214.5347,133.914 C213.9857,137.473 212.0157,140.417 214.5057,135.919 C216.3857,132.523 221.6237,123.257 221.5097,110.424 L155.3317,111.015 C155.2827,105.48 157.7687,101.767 156.6087,103.862 C156.3277,104.368 154.6157,107.331 153.2737,110.243 C151.7107,113.637 149.9927,118.212 149.1257,123.839 L214.5347,133.914 Z M221.4777,109.245 C221.0177,98.93 216.9007,90.817 215.6757,88.284 C214.6907,86.248 214.5477,85.997 214.2767,85.377 C214.1367,85.057 214.4137,85.623 214.6767,86.736 L150.2657,101.937 C151.2397,106.061 152.5847,109.481 153.6547,111.924 C154.5927,114.067 155.8017,116.487 156.0957,117.095 C156.6387,118.218 156.5217,118.066 156.3087,117.448 C156.0467,116.691 155.4807,114.82 155.3637,112.194 L221.4777,109.245 Z M214.8897,87.704 C215.6097,91.223 215.2207,93.961 214.9987,95.062 C214.8867,95.621 214.7177,96.039 215.5637,93.478 C216.3807,91.003 222.0887,76.4238 215.6427,60.2627 L154.1717,84.78 C152.3607,80.239 152.3607,76.1252 152.6767,73.6434 C152.9067,71.837 153.3607,70.791 152.7247,72.7163 C152.3977,73.7043 150.9807,77.7273 150.1187,82.011 C149.1477,86.838 148.5087,93.42 150.0527,100.968 L214.8897,87.704 Z" id="Shape" fill="#B1EE2F" fill-rule="nonzero" mask="url(#mask-6)"></path>
                    <mask id="mask-8" fill="white">
                        <use xlink:href="#path-7"></use>
                    </mask>
                    <g id="Shape"></g>
                </g>
            </g>
            <path d="M83.494,74.7279 C87.6241,69.7711 90.2104,61.0525 99.6881,60.3695 C107.6855,59.8517 108.3479,69.1443 112.544,73.172 C116.3081,76.6859 122.3123,78.4511 122.9945,86.2429 C123.8221,97.0155 106.5766,105.3095 107.1349,111.9915 C107.8171,119.7825 122.4945,115.3345 126.5279,122.9405 C129.8616,129.3115 126.1222,134.4125 127.9137,140.3945 C129.7053,146.3765 136.2032,149.2105 135.7752,157.1265 C135.3472,165.0415 128.5239,169.3625 122.9557,176.5405 C116.2781,185.5285 115.9113,192.3135 105.6737,194.5795 C96.8957,196.4965 91.2392,191.1325 84.7823,188.6685 C78.0991,185.8555 67.4311,190.9795 62.8625,181.9355 C58.7053,173.2205 64.2735,166.0425 65.5654,159.1545 C66.9598,151.5055 62.207,144.1675 66.3355,135.8395 C70.7721,126.9145 86.601,122.7125 86.8241,116.3185 C87.005,107.8685 71.1126,108.1435 69.8324,96.6715 C68.6967,86.4951 78.357,80.7338 83.494,74.7279 Z M95.9345,78.7722 C92.2554,81.0561 92.566,85.5174 91.4574,89.013 C90.2258,93.0845 85.8479,95.8205 88.3581,99.8495 C92.6789,106.6735 106.3049,96.1605 106.0952,87.5668 C105.968,79.7131 100.1274,76.0563 95.9345,78.7722 Z M98.4674,130.0055 C90.1205,130.7495 89.5076,138.6855 87.331,144.3615 C85.2981,149.6465 81.5372,152.8755 78.908,157.8525 C75.765,163.2615 76.7561,172.1425 81.8972,174.5665 C86.9763,176.4345 90.2234,173.6365 94.849,173.1205 C99.1047,172.6455 102.8481,175.9745 109.1382,173.5865 C115.9834,171.1365 117.4587,160.8565 116.4469,151.7905 C114.9396,138.2835 109.0346,129.0135 98.4674,130.0055 Z M188.5762,54.9458 C200.4392,55.4953 200.5882,66.9058 205.1352,74.0789 C208.3042,78.9706 215.4612,84.3537 216.5962,92.8445 C218.2262,104.0895 209.9232,111.9475 210.8132,123.2755 C211.7212,131.4165 217.0292,138.6925 214.3402,148.1715 C212.4522,154.7515 207.0052,157.9815 203.7192,163.7815 C199.2812,171.0205 199.5342,183.3555 181.9152,184.9475 C164.8722,186.6625 162.8072,168.1595 158.0342,160.6365 C154.3502,154.4915 145.7952,148.3275 144.7612,137.3905 C143.5632,124.9725 151.8652,117.1155 153.7932,107.5335 C155.4742,97.4175 150.4542,89.3604 153.8842,81.4844 C157.6422,73.1971 166.7702,72.7404 171.9912,69.1605 C177.3552,65.1899 178.7892,54.5394 188.5762,54.9458 Z M196.8342,83.6225 C192.2022,70.6517 174.8512,74.6485 171.6492,84.5598 C169.8632,90.3795 172.6632,98.6835 170.9802,105.4285 C169.0922,112.0085 161.6302,115.6505 161.6132,122.2095 C161.5552,130.0835 166.6552,132.1375 167.9532,138.7365 C169.4992,145.8695 166.7882,151.7925 169.3612,158.0615 C174.1572,170.8265 190.9112,166.5215 194.0312,155.8705 C195.6732,150.4415 192.7722,146.2695 193.7562,139.9775 C194.8432,132.9255 200.4122,129.1195 200.3472,121.8205 C200.0982,116.2285 195.8192,111.4605 194.3982,105.4375 C192.7492,97.3785 199.6952,90.7965 196.8342,83.6225 Z" id="Shape" fill="#0B1237" fill-rule="nonzero"></path>
        </g>
    </g>
</svg>