<?xml version="1.0" encoding="UTF-8"?>
<svg width="250px" height="270px" viewBox="0 0 250 270" version="1.1" xmlns="http://www.w3.org/2000/svg" xmlns:xlink="http://www.w3.org/1999/xlink">
    <title>Artboard</title>
    <defs>
        <rect id="path-1" x="7.10542736e-15" y="-7.10542736e-15" width="220.752" height="271.962"></rect>
        <path d="M61.8457,223.489 C111.779,210.986 144.5798,185.969 141.3798,157.29 C139.6452,141.748 126.7042,123.148 93.2177,133.629 L91.488,128.202 C140.9468,111.443 157.6118,92.91 155.2988,72.187 C154.0598,61.086 144.9058,51.242 128.4387,53.08 C106.0505,55.578 103.7549,70.259 105.0764,82.101 C105.8197,88.762 103.0046,92.073 98.0089,92.631 C93.5683,93.126 89.5374,90.579 88.794,83.918 C87.2247,69.856 100.5584,50.009 127.7573,46.9739 C149.2208,44.5787 160.0828,57.978 161.5898,71.485 C164.0678,93.688 144.6488,114.401 113.3005,125.58 C132.0295,123.865 145.5238,139.031 147.4238,156.054 C151.3058,190.839 113.6119,217.338 63.5753,228.916 L61.8457,223.489 Z" id="path-3"></path>
        <rect id="path-5" x="0" y="0" width="200.756" height="251.082"></rect>
        <path d="M51.7921,212.5525 C101.7254,200.0495 134.5262,175.0325 131.3262,146.3535 C129.5916,130.8115 116.6506,112.2115 83.1641,122.6925 L81.4344,117.2655 C130.8932,100.5065 147.5582,81.9735 145.2452,61.2505 C144.0062,50.1495 134.8522,40.3055 118.3851,42.1435 C95.9969,44.6415 93.7013,59.3225 95.0228,71.1645 C95.7661,77.8255 92.951,81.1365 87.9553,81.6945 C83.5147,82.1895 79.4838,79.6425 78.7404,72.9815 C77.1711,58.9195 90.5048,39.0725 117.7037,36.0374 C139.1672,33.6422 150.0292,47.0415 151.5362,60.5485 C154.0142,82.7515 134.5952,103.4645 103.2469,114.6435 C121.9759,112.9285 135.4702,128.0945 137.3702,145.1175 C141.2522,179.9025 103.5583,206.4015 53.5217,217.9795 L51.7921,212.5525 Z" id="path-7"></path>
    </defs>
    <g id="Artboard" stroke="none" stroke-width="1" fill="none" fill-rule="evenodd">
        <g id="Group-9-(2)" transform="translate(15, -2)">
            <g id="Group">
                <path d="M61.8457,223.489 C111.779,210.986 144.5798,185.969 141.3798,157.29 C139.6452,141.748 126.7042,123.148 93.2177,133.629 L91.488,128.202 C140.9468,111.443 157.6118,92.91 155.2988,72.187 C154.0598,61.086 144.9058,51.242 128.4387,53.08 C106.0505,55.578 103.7549,70.259 105.0764,82.101 C105.8197,88.762 103.0046,92.073 98.0089,92.631 C93.5683,93.126 89.5374,90.579 88.794,83.918 C87.2247,69.856 100.5584,50.009 127.7573,46.9739 C149.2208,44.5787 160.0828,57.978 161.5898,71.485 C164.0678,93.688 144.6488,114.401 113.3005,125.58 C132.0295,123.865 145.5238,139.031 147.4238,156.054 C151.3058,190.839 113.6119,217.338 63.5753,228.916 L61.8457,223.489 Z" id="Path" fill="#0B1237" fill-rule="nonzero"></path>
                <g id="Clipped">
                    <mask id="mask-2" fill="white">
                        <use xlink:href="#path-1"></use>
                    </mask>
                    <g id="Rectangle"></g>
                    <path d="M61.8457,223.489 L52.4777,186.078 C42.14559,188.666 33.34348,195.411 28.1582,204.714 C22.973,214.018 21.8664,225.052 25.1007,235.2 L61.8457,223.489 Z M93.2177,133.629 L56.4726,145.34 C62.9167,165.559 84.485,176.773 104.7374,170.434 L93.2177,133.629 Z M91.488,128.202 L79.111,91.676 C59.197,98.424 48.35818,119.88 54.743,139.913 L91.488,128.202 Z M113.3005,125.58 L100.3466,89.255 C82.0441,95.782 71.4559,114.906 75.6384,133.881 C79.8209,152.857 97.4678,165.758 116.8182,163.986 L113.3005,125.58 Z M63.5753,228.916 L26.8303,240.627 C32.93012,259.766 52.6995,271.018 72.2699,266.489 L63.5753,228.916 Z M71.2137,260.9 C99.5217,253.812 126.0006,242.511 145.8478,226.395 C165.7028,210.273 183.2958,185.161 179.7078,153.013 L103.0514,161.568 C102.6644,158.099 105.4567,159.834 97.2275,166.516 C88.9913,173.204 74.1031,180.663 52.4777,186.078 L71.2137,260.9 Z M179.7078,153.013 C177.9638,137.382 170.3268,117.25 151.1438,103.982 C130.8827,89.969 106.0039,89.216 81.698,96.823 L104.7374,170.434 C109.4175,168.969 111.3999,169.15 111.3147,169.142 C110.9957,169.115 109.3036,168.828 107.2676,167.419 C105.3527,166.095 104.2419,164.548 103.6979,163.513 C103.2111,162.588 103.0939,161.948 103.0514,161.568 L179.7078,153.013 Z M129.9627,121.918 L128.2331,116.491 L54.743,139.913 L56.4726,145.34 L129.9627,121.918 Z M103.8651,164.728 C130.5349,155.691 153.0808,144.735 169.0158,129.974 C186.6578,113.631 196.3388,92.213 193.6268,67.91 L116.9706,76.465 C116.8815,75.667 116.9695,74.177 117.564,72.724 C118.0789,71.465 118.3541,71.763 116.5993,73.388 C112.4155,77.264 101.8996,83.954 79.111,91.676 L103.8651,164.728 Z M193.6268,67.91 C191.9958,53.292 184.9808,38.3657 171.7428,27.7234 C158.1308,16.781 141.0918,12.8622 124.1614,14.7516 L132.716,91.408 C132.2528,91.46 128.0245,91.544 123.4161,87.839 C119.1811,84.435 117.363,79.981 116.9706,76.465 L193.6268,67.91 Z M124.1614,14.7516 C104.25,16.9737 85.5061,25.9995 74.6087,44.5603 C65.1064,60.745 65.7577,77.503 66.7482,86.378 L143.4048,77.823 C143.2918,76.816 143.3948,76.848 143.2978,77.633 C143.1938,78.481 142.7798,80.792 141.1238,83.613 C139.3147,86.694 136.7911,89.058 134.3101,90.477 C132.0969,91.744 131.1025,91.588 132.716,91.408 L124.1614,14.7516 Z M66.7482,86.378 C66.5145,84.284 66.0493,76.01 72.3078,67.245 C79.1082,57.72 88.5693,54.878 93.7316,54.302 L102.2862,130.959 C112.4442,129.825 125.8108,125.049 135.0818,112.064 C143.8108,99.838 144.3818,86.578 143.4048,77.823 L66.7482,86.378 Z M93.7316,54.302 C100.1419,53.587 109.1733,54.926 116.994,61.574 C124.6956,68.121 126.7114,75.959 127.1222,79.64 L50.46584,88.195 C51.62,98.537 56.023,110.979 67.0359,120.341 C78.1681,129.805 91.4353,132.17 102.2862,130.959 L93.7316,54.302 Z M127.1222,79.64 C127.4971,82.999 126.8623,85.229 126.5141,86.159 C126.1337,87.175 125.7839,87.515 125.8572,87.436 C125.8922,87.398 126.2436,87.03 127.1227,86.593 C127.9782,86.169 129.5342,85.581 132.0346,85.302 L123.48,8.6457 C80.3427,13.4598 45.99011,48.089 50.46584,88.195 L127.1222,79.64 Z M132.0346,85.302 C133.0763,85.186 132.7675,85.388 131.5421,85.047 C130.2674,84.692 128.695,83.937 127.2098,82.677 C124.3151,80.222 123.4478,77.433 123.2615,75.763 L199.9178,67.208 C198.2238,52.031 191.1718,35.7887 177.1038,23.8556 C162.3978,11.3813 143.3558,6.4276 123.48,8.6457 L132.0346,85.302 Z M123.2615,75.763 C123.0013,73.431 124.4168,73.605 121.5363,76.787 C118.3851,80.269 111.6797,85.213 100.3466,89.255 L126.2545,161.906 C162.3538,149.033 205.5178,117.387 199.9178,67.208 L123.2615,75.763 Z M116.8182,163.986 C115.8127,164.078 114.4122,163.957 112.94,163.415 C111.5348,162.897 110.5606,162.182 109.9869,161.633 C109.4396,161.108 109.2341,160.721 109.1783,160.605 C109.1212,160.487 109.1048,160.415 109.0954,160.331 L185.7518,151.776 C182.1878,119.837 154.9258,83.04 109.7829,87.175 L116.8182,163.986 Z M109.0954,160.331 C109.1292,160.634 110.0315,164.199 101.3094,171.329 C92.1657,178.804 76.3314,186.379 54.8808,191.343 L72.2699,266.489 C100.8558,259.875 128.8866,248.411 150.1288,231.046 C171.7918,213.336 189.5998,186.259 185.7518,151.776 L109.0954,160.331 Z M100.3204,217.205 L98.5908,211.778 L25.1007,235.2 L26.8303,240.627 L100.3204,217.205 Z" id="Shape" fill="#0B1237" fill-rule="nonzero" mask="url(#mask-2)"></path>
                    <mask id="mask-4" fill="white">
                        <use xlink:href="#path-3"></use>
                    </mask>
                    <g id="Path"></g>
                </g>
            </g>
            <g id="Group" transform="translate(10.0536, 10.9365)">
                <path d="M51.7921,212.5525 C101.7254,200.0495 134.5262,175.0325 131.3262,146.3535 C129.5916,130.8115 116.6506,112.2115 83.1641,122.6925 L81.4344,117.2655 C130.8932,100.5065 147.5582,81.9735 145.2452,61.2505 C144.0062,50.1495 134.8522,40.3055 118.3851,42.1435 C95.9969,44.6415 93.7013,59.3225 95.0228,71.1645 C95.7661,77.8255 92.951,81.1365 87.9553,81.6945 C83.5147,82.1895 79.4838,79.6425 78.7404,72.9815 C77.1711,58.9195 90.5048,39.0725 117.7037,36.0374 C139.1672,33.6422 150.0292,47.0415 151.5362,60.5485 C154.0142,82.7515 134.5952,103.4645 103.2469,114.6435 C121.9759,112.9285 135.4702,128.0945 137.3702,145.1175 C141.2522,179.9025 103.5583,206.4015 53.5217,217.9795 L51.7921,212.5525 Z" id="Path" fill="#B1EE2F" fill-rule="nonzero"></path>
                <g id="Clipped">
                    <mask id="mask-6" fill="white">
                        <use xlink:href="#path-5"></use>
                    </mask>
                    <g id="Rectangle"></g>
                    <path d="M51.7921,212.5525 L44.726,184.3345 C36.93259,186.2855 30.293287,191.3735 26.38213,198.3915 C22.47098,205.4085 21.63626,213.7315 24.07588,221.3865 L51.7921,212.5525 Z M83.1641,122.6925 L55.4478,131.5255 C60.3085,146.7765 76.5771,155.2355 91.8532,150.4545 L83.1641,122.6925 Z M81.4344,117.2655 L72.0986,89.7145 C57.0778,94.8045 48.9022,110.9875 53.7182,126.0985 L81.4344,117.2655 Z M103.2469,114.6435 L93.476,87.2435 C79.6707,92.1675 71.6841,106.5915 74.8389,120.9055 C77.9938,135.2185 91.3045,144.9495 105.9003,143.6125 L103.2469,114.6435 Z M53.5217,217.9795 L25.8055,226.8135 C30.40649,241.2495 45.3182,249.7365 60.0799,246.3205 L53.5217,217.9795 Z M58.8583,240.7715 C86.3452,233.8885 111.4002,223.0595 129.8212,208.1015 C148.2472,193.1395 163.3362,170.8995 160.2362,143.1275 L102.4156,149.5805 C102.5169,150.4875 102.8047,155.0945 93.1473,162.9365 C83.4846,170.7825 67.1723,178.7135 44.726,184.3345 L58.8583,240.7715 Z M160.2362,143.1275 C158.7072,129.4275 152.0462,112.1455 135.6992,100.8395 C118.5403,88.9715 96.9226,87.9045 74.4749,94.9305 L91.8532,150.4545 C97.4404,148.7055 100.6772,148.6445 102.0748,148.7645 C103.296,148.8695 103.2018,149.1025 102.6045,148.6895 C101.5339,147.9485 102.21,147.7375 102.4156,149.5805 L160.2362,143.1275 Z M110.8803,113.8585 L109.1507,108.4315 L53.7182,126.0985 L55.4478,131.5255 L110.8803,113.8585 Z M90.7703,144.8165 C116.9632,135.9405 138.0312,125.5085 152.5222,112.0855 C168.3012,97.4685 176.4852,78.9015 174.1552,58.0245 L116.3347,64.4775 C116.4097,65.1485 116.3266,65.2635 116.2812,65.3755 C116.1757,65.6325 115.5449,67.0325 112.9854,69.4035 C107.3579,74.6165 95.364,81.8305 72.0986,89.7145 L90.7703,144.8165 Z M174.1552,58.0245 C172.7732,45.6345 166.8432,33.0891 155.7522,24.1726 C144.3782,15.0296 129.9524,11.582 115.1588,13.2329 L121.6114,71.0535 C122.5748,70.9465 122.607,71.0965 121.972,70.9295 C121.3059,70.7555 120.3175,70.3355 119.2997,69.5175 C117.2115,67.8385 116.4785,65.7655 116.3347,64.4775 L174.1552,58.0245 Z M115.1588,13.2329 C97.3894,15.2159 81.7348,23.0793 72.727,38.4217 C64.7715,51.9715 65.2029,66.2415 66.1124,74.3905 L123.9332,67.9375 C123.7672,66.4505 123.819,65.7035 123.8392,65.5395 C123.8537,65.4215 123.7536,66.4225 122.8986,67.8785 C122.466,68.6155 121.9114,69.3425 121.2542,69.9915 C120.5975,70.6405 119.9858,71.0665 119.5504,71.3155 C118.7025,71.8005 119.0191,71.3435 121.6114,71.0535 L115.1588,13.2329 Z M66.1124,74.3905 C66.0274,73.6295 65.5493,68.0015 69.9664,61.8145 C74.7923,55.0555 81.4489,53.1495 84.729,52.7835 L91.1816,110.6045 C99.4574,109.6805 110.0194,105.8405 117.316,95.6215 C124.2037,85.9745 124.7615,75.3595 123.9332,67.9375 L66.1124,74.3905 Z M84.729,52.7835 C89.0186,52.3045 95.3105,53.1885 100.8027,57.8575 C106.205,62.4505 107.4323,67.7965 107.6508,69.7545 L49.83,76.2075 C50.7919,84.8265 54.4063,94.7775 63.12,102.1845 C71.9237,109.6685 82.4514,111.5785 91.1816,110.6045 L84.729,52.7835 Z M107.6508,69.7545 C107.8372,71.4245 107.4908,72.1535 107.5855,71.9005 C107.656,71.7125 107.9743,71.0125 108.8328,70.0795 C110.3961,68.3825 113.9642,65.7255 120.93,64.9475 L114.4774,7.127 C75.2564,11.504 46.0684,42.5005 49.83,76.2075 L107.6508,69.7545 Z M120.93,64.9475 C123.0342,64.7135 123.9569,64.9605 124.0302,64.9815 C124.0825,64.9955 124.002,64.9785 123.8344,64.8895 C123.6677,64.8015 123.4764,64.6755 123.2861,64.5135 C122.893,64.1805 122.7006,63.8675 122.6351,63.7365 C122.5845,63.6355 122.6127,63.6595 122.6256,63.7755 L180.4462,57.3225 C178.9842,44.2155 172.9052,30.3111 160.9202,20.1457 C148.4552,9.5721 132.1062,5.1596 114.4774,7.127 L120.93,64.9475 Z M122.6256,63.7755 C122.7338,64.7445 122.7608,67.5115 118.5086,72.2095 C114.052,77.1335 105.8757,82.8225 93.476,87.2435 L113.0179,142.0435 C147.9492,129.5865 185.2792,100.6275 180.4462,57.3225 L122.6256,63.7755 Z M105.9003,143.6125 C106.2923,143.5765 106.306,143.6395 106.1609,143.5855 C106.0663,143.5505 106.1919,143.5685 106.4905,143.8545 C106.8089,144.1605 107.2559,144.7125 107.6623,145.5565 C108.0676,146.3985 108.35,147.3615 108.4596,148.3435 L166.2802,141.8905 C163.1252,113.6175 139.2462,82.1345 100.5936,85.6755 L105.9003,143.6125 Z M108.4596,148.3435 C108.962,152.8455 107.5656,159.2995 97.2536,167.7295 C86.6235,176.4195 69.2908,184.4725 46.9636,189.6385 L60.0799,246.3205 C87.7892,239.9085 114.3216,228.9225 134.0772,212.7725 C154.1502,196.3625 169.6602,172.1735 166.2802,141.8905 L108.4596,148.3435 Z M81.238,209.1465 L79.5084,203.7195 L24.07588,221.3865 L25.8055,226.8135 L81.238,209.1465 Z" id="Shape" fill="#B1EE2F" fill-rule="nonzero" mask="url(#mask-6)"></path>
                    <mask id="mask-8" fill="white">
                        <use xlink:href="#path-7"></use>
                    </mask>
                    <g id="Path"></g>
                </g>
            </g>
            <path d="M63.7188,223.654 C113.6521,211.15 146.4528,186.134 143.2528,157.455 C141.5178,141.913 128.5773,123.313 95.0907,133.794 L93.3611,128.367 C142.8198,111.607 159.4848,93.075 157.1718,72.352 C155.9328,61.251 146.7788,51.407 130.3118,53.245 C107.9235,55.743 105.6279,70.424 106.9494,82.265 C107.6928,88.926 104.8777,92.238 99.882,92.795 C95.4413,93.291 91.4104,90.743 90.6671,84.083 C89.0978,70.02 102.4314,50.174 129.6304,47.1387 C151.0938,44.7435 161.9558,58.143 163.4628,71.65 C165.9408,93.853 146.5218,114.566 115.1736,125.745 C133.9026,124.03 147.3968,139.196 149.2968,156.219 C153.1788,191.004 115.4849,217.502 65.4484,229.081 L63.7188,223.654 Z" id="Path" fill="#0B1237" fill-rule="nonzero"></path>
        </g>
    </g>
</svg>