<svg xmlns="http://www.w3.org/2000/svg" viewBox="0 0 214 42.5698925">
    <g stroke="none" stroke-width="0" fill="none" fill-rule="evenodd">
        <path fill="#1A1919" d="M63.925.339h7.937l6.29 16.738L84.814.339h8.018l4.687 31.316H89.46L87.2 13.63h-.083l-7.442 18.025h-3.207L69.353 13.63h-.082l-2.59 18.025h-8.018L63.925.34M105.121 21.023c0 2.699 1.768 4.776 4.811 4.776s4.811-2.077 4.811-4.776c0-2.617-1.768-4.818-4.81-4.818-3.044 0-4.812 2.201-4.812 4.818zm16.859 10.632h-7.484v-2.367h-.082c-1.316 2.118-3.906 3.073-6.373 3.073-6.25 0-10.65-5.274-10.65-11.38 0-6.105 4.317-11.338 10.567-11.338 2.426 0 4.976.913 6.538 2.782v-2.077h7.484v21.307zM131.146 13.837h.082c1.44-2.616 3.906-3.78 6.826-3.78h1.44v7.27c-1.03-.582-2.016-.707-3.168-.707-4.153 0-5.18 2.783-5.18 6.438v8.597h-7.484V10.348h7.484v3.49M148.043 21.023c0 2.699 1.768 4.776 4.81 4.776 3.044 0 4.812-2.077 4.812-4.776 0-2.617-1.768-4.818-4.811-4.818s-4.81 2.201-4.81 4.818zm16.858 21.265h-7.483V29.62c-1.562 1.87-4.111 2.741-6.537 2.741-6.291 0-10.568-5.15-10.568-11.297 0-6.064 4.4-11.421 10.65-11.421 2.467 0 5.057.996 6.373 3.114h.082v-2.409h7.483v31.94zM174.068 10.348v11.38c0 2.7.658 4.61 3.742 4.61s3.742-1.91 3.742-4.61v-11.38h7.483v12.834c0 7.02-4.893 9.18-11.225 9.18-6.333 0-11.225-2.16-11.225-9.18V10.348h7.483"/>
        <g fill="#1A1919">
            <path d="M206.466 17.908c-.37-2.035-2.22-3.365-4.234-3.365-2.18 0-3.99 1.163-4.442 3.365h8.676zm6.949 4.361h-15.748c0 3.073 1.603 4.735 4.687 4.735 1.604 0 2.755-.541 3.578-1.952h7.195c-.576 2.492-2.055 4.318-3.988 5.523-1.933 1.205-4.317 1.786-6.744 1.786-6.99 0-12.211-3.986-12.211-11.338 0-7.103 4.81-11.38 11.676-11.38 7.32 0 11.555 4.569 11.555 11.836v.79zM8.06 24.92h1.808c4.811 0 8.923-2.658 8.923-8.764 0-5.607-3.66-8.764-8.84-8.764H8.058V24.92zM0 .497h11.43c8.636 0 15.749 6.853 15.749 15.66 0 8.804-7.154 15.657-15.748 15.657H0V.497z"/>
        </g>
        <path fill="#AB3226" d="M41.626 42.926c-8.239 0-14.942-6.541-14.942-14.58 0-8.047 6.703-14.594 14.942-14.594 8.234 0 14.938 6.547 14.938 14.594v3.313H41.626v-6.636h7.608c-1.324-2.731-4.237-4.633-7.608-4.633-4.616 0-8.376 3.564-8.376 7.956 0 4.379 3.76 7.948 8.376 7.948v6.632"/>
    </g>
</svg>
