<?xml version="1.0" encoding="UTF-8"?>
<svg width="384px" height="49px" viewBox="0 0 384 49" version="1.1" xmlns="http://www.w3.org/2000/svg" xmlns:xlink="http://www.w3.org/1999/xlink">
    <title>Vooban_Bleu</title>
    <defs>
        <polygon id="path-1" points="0 0 82.4533109 0 82.4533109 47.671 0 47.671"></polygon>
    </defs>
    <g id="Page-1" stroke="none" stroke-width="1" fill="none" fill-rule="evenodd">
        <g id="Vooban_Bleu">
            <path d="M137.17,39.598 C137.342,39.598 137.45,39.512 137.493,39.338 L149.925,0.844 C150.011,0.714 150.119,0.649 150.249,0.649 L157.898,0.649 C158.2,0.649 158.308,0.81 158.222,1.133 L143.303,47.118 C143.216,47.342 143.087,47.453 142.914,47.453 L131.371,47.453 C131.198,47.453 131.068,47.347 130.982,47.135 L116.047,1.134 C115.961,0.832 116.068,0.671 116.372,0.649 L123.992,0.649 C124.186,0.649 124.305,0.714 124.348,0.844 L136.846,39.338 C136.889,39.512 136.997,39.598 137.17,39.598" id="Fill-1" fill="#1458E4"></path>
            <path d="M180.53,40.799 C184.603,40.799 187.755,39.328 189.988,36.385 C192.197,33.442 193.302,29.331 193.302,24.051 C193.302,18.771 192.197,14.66 189.987,11.717 C187.777,8.775 184.635,7.303 180.563,7.303 C176.489,7.303 173.326,8.775 171.073,11.717 C168.862,14.66 167.758,18.771 167.758,24.051 C167.758,29.331 168.862,33.442 171.073,36.385 C173.283,39.328 176.435,40.799 180.53,40.799 Z M201.287,24.051 C201.287,31.322 199.533,37.153 196.027,41.546 C192.521,45.917 187.355,48.102 180.53,48.102 C173.705,48.102 168.54,45.917 165.033,41.546 C161.527,37.175 159.774,31.343 159.774,24.051 C159.774,16.781 161.527,10.949 165.033,6.557 C168.54,2.186 173.705,0 180.53,0 C187.355,0 192.521,2.186 196.027,6.557 C199.533,10.928 201.287,16.759 201.287,24.051 L201.287,24.051 Z" id="Fill-2" fill="#1458E4"></path>
            <path d="M227.893,40.799 C231.965,40.799 235.118,39.328 237.35,36.385 C239.559,33.442 240.665,29.331 240.665,24.051 C240.665,18.771 239.559,14.66 237.349,11.717 C235.139,8.775 231.998,7.303 227.924,7.303 C223.852,7.303 220.688,8.775 218.435,11.717 C216.225,14.66 215.12,18.771 215.12,24.051 C215.12,29.331 216.225,33.442 218.435,36.385 C220.645,39.328 223.797,40.799 227.893,40.799 Z M248.649,24.051 C248.649,31.322 246.896,37.153 243.389,41.546 C239.883,45.917 234.717,48.102 227.893,48.102 C221.067,48.102 215.901,45.917 212.396,41.546 C208.889,37.175 207.136,31.343 207.136,24.051 C207.136,16.781 208.889,10.949 212.396,6.557 C215.901,2.186 221.067,0 227.893,0 C234.717,0 239.883,2.186 243.389,6.557 C246.896,10.928 248.649,16.759 248.649,24.051 L248.649,24.051 Z" id="Fill-3" fill="#1458E4"></path>
            <path d="M264.568,40.15 L277.584,40.15 C279.358,40.128 280.96,39.468 282.388,38.17 C283.816,36.872 284.518,35.4 284.497,33.756 C284.497,32.112 283.858,30.64 282.582,29.342 C281.305,28.043 279.801,27.394 278.071,27.394 L264.504,27.394 C264.33,27.394 264.244,27.502 264.244,27.719 L264.244,39.793 C264.244,40.031 264.352,40.15 264.568,40.15 Z M281.673,18.334 C282.885,17.249 283.491,15.882 283.491,14.233 C283.491,12.584 283.004,11.131 282.03,9.872 C281.057,8.614 279.736,7.974 278.071,7.953 L264.504,7.953 C264.33,7.953 264.244,8.05 264.244,8.246 L264.244,19.766 C264.244,19.983 264.33,20.091 264.504,20.091 L277.584,20.091 C279.098,20.005 280.461,19.419 281.673,18.334 Z M292.482,33.762 C292.482,37.828 291.205,41.126 288.651,43.657 C286.098,46.187 282.788,47.453 278.72,47.453 L256.584,47.453 C256.367,47.453 256.259,47.345 256.259,47.128 L256.259,0.974 C256.259,0.758 256.368,0.649 256.585,0.649 L278.803,0.649 C282.495,0.649 285.535,1.981 287.924,4.644 C290.313,7.308 291.497,10.546 291.476,14.356 C291.476,16.176 290.957,17.973 289.921,19.748 C288.884,21.524 287.639,22.77 286.184,23.484 C286.007,23.527 285.92,23.635 285.92,23.807 C285.92,23.98 286.007,24.087 286.184,24.131 C287.948,24.971 289.443,26.278 290.671,28.051 C291.9,29.826 292.503,31.729 292.482,33.762 L292.482,33.762 Z" id="Fill-4" fill="#1458E4"></path>
            <path d="M311.256,30.51 L325.463,30.51 C325.679,30.51 325.744,30.399 325.658,30.176 L318.682,8.244 C318.638,8.069 318.528,7.981 318.352,7.981 C318.175,7.981 318.066,8.068 318.022,8.241 L310.997,30.183 C310.91,30.402 310.997,30.51 311.256,30.51 Z M327.742,37.813 L308.909,37.813 C308.692,37.813 308.541,37.918 308.455,38.127 L305.575,47.12 C305.531,47.342 305.392,47.453 305.154,47.453 L297.551,47.453 C297.249,47.453 297.141,47.302 297.228,46.998 L311.969,0.975 C312.055,0.758 312.195,0.649 312.39,0.649 L324.327,0.649 C324.5,0.649 324.64,0.758 324.749,0.975 L339.421,46.999 C339.508,47.302 339.4,47.453 339.097,47.453 L331.439,47.453 C331.265,47.453 331.135,47.345 331.05,47.128 L328.196,38.157 C328.109,37.928 327.958,37.813 327.742,37.813 L327.742,37.813 Z" id="Fill-5" fill="#1458E4"></path>
            <path d="M376.329,0.649 L383.631,0.649 C383.848,0.649 383.956,0.758 383.956,0.974 L383.956,47.128 C383.956,47.345 383.848,47.453 383.631,47.453 L373.732,47.453 C373.558,47.453 373.397,47.345 373.245,47.128 L355.101,12.171 C354.993,11.804 354.852,11.684 354.679,11.814 C354.528,11.944 354.452,12.064 354.452,12.171 L354.452,47.128 C354.452,47.345 354.344,47.453 354.128,47.453 L346.727,47.453 C346.554,47.453 346.467,47.345 346.467,47.128 L346.467,0.974 C346.467,0.758 346.576,0.649 346.793,0.649 L356.691,0.649 C356.865,0.649 357.005,0.758 357.114,0.974 L375.322,35.963 C375.43,36.288 375.571,36.396 375.745,36.288 C375.896,36.158 375.972,36.05 375.972,35.963 L375.972,0.974 C375.993,0.758 376.112,0.649 376.329,0.649" id="Fill-6" fill="#1458E4"></path>
            <g id="Group-10" transform="translate(0.000000, 0.750000)">
                <mask id="mask-2" fill="white">
                    <use xlink:href="#path-1"></use>
                </mask>
                <g id="Clip-8"></g>
                <path d="M81.995,0 L52.321,0 L58.058,17.67 L82.216,1.022 C82.63,0.75 82.468,0 81.995,0" id="Fill-7" fill="#1458E4" mask="url(#mask-2)"></path>
                <path d="M43.926,0 L0.458,0 C0.148,0 -0.073,0.36 0.022,0.711 L13.878,47.352 C13.965,47.679 14.282,47.829 14.535,47.663 L51.197,22.398 L43.926,0" id="Fill-9" fill="#1458E4" mask="url(#mask-2)"></path>
            </g>
        </g>
    </g>
</svg>