<?xml version="1.0" encoding="UTF-8" standalone="no"?>
<svg
   xmlns:dc="http://purl.org/dc/elements/1.1/"
   xmlns:cc="http://creativecommons.org/ns#"
   xmlns:rdf="http://www.w3.org/1999/02/22-rdf-syntax-ns#"
   xmlns:svg="http://www.w3.org/2000/svg"
   xmlns="http://www.w3.org/2000/svg"
   viewBox="0 0 329.69333 62.506668"
   height="62.506668"
   width="329.69333"
   xml:space="preserve"
   id="svg2"
   version="1.1"><metadata
     id="metadata8"><rdf:RDF><cc:Work
         rdf:about=""><dc:format>image/svg+xml</dc:format><dc:type
           rdf:resource="http://purl.org/dc/dcmitype/StillImage" /></cc:Work></rdf:RDF></metadata><defs
     id="defs6" /><g
     transform="matrix(1.3333333,0,0,-1.3333333,0,62.506667)"
     id="g10"><g
       transform="scale(0.1)"
       id="g12"><path
         id="path14"
         style="fill:#dd0000;fill-opacity:1;fill-rule:nonzero;stroke:none"
         d="m 150.586,234.402 c 0,46.328 37.551,83.789 83.828,83.789 46.231,0 83.789,-37.461 83.789,-83.789 0,-46.257 -37.558,-83.699 -83.789,-83.699 -46.277,0 -83.828,37.442 -83.828,83.699" /><path
         id="path16"
         style="fill:#dd0000;fill-opacity:1;fill-rule:nonzero;stroke:none"
         d="m 137.684,150.703 c -46.2387,0 -83.7387,37.442 -83.7387,83.699 0,46.328 37.5,83.789 83.7387,83.789 V 150.703" /><path
         id="path18"
         style="fill:#dd0000;fill-opacity:1;fill-rule:nonzero;stroke:none"
         d="m 331.152,58.1836 v 79.5704 l 79.571,-0.117 c 0,-43.9456 -35.664,-79.4534 -79.571,-79.4534" /><path
         id="path20"
         style="fill:#dd0000;fill-opacity:1;fill-rule:nonzero;stroke:none"
         d="M 137.684,410.672 V 331.113 H 58.1445 c 0,43.934 35.5469,79.559 79.5395,79.559" /><path
         id="path22"
         style="fill:#dd0000;fill-opacity:1;fill-rule:nonzero;stroke:none"
         d="m 137.637,58.1836 0.047,79.5704 -79.5395,-0.117 c 0,-43.9456 35.5469,-79.4534 79.4925,-79.4534" /><path
         id="path24"
         style="fill:#dd0000;fill-opacity:1;fill-rule:nonzero;stroke:none"
         d="m 427.844,162.48 v 143.915 c 24.558,-14.618 40.965,-41.305 40.965,-71.993 0,-30.601 -16.407,-57.332 -40.965,-71.922" /><path
         id="path26"
         style="fill:#dd0000;fill-opacity:1;fill-rule:nonzero;stroke:none"
         d="m 162.48,427.957 h 143.887 c -14.629,24.492 -41.347,40.832 -71.953,40.832 -30.684,0 -57.402,-16.34 -71.934,-40.832" /><path
         id="path28"
         style="fill:#dd0000;fill-opacity:1;fill-rule:nonzero;stroke:none"
         d="M 305.313,40.9258 H 161.367 C 175.898,16.4063 202.734,0 233.281,0 c 30.645,0 57.403,16.4063 72.032,40.9258" /><path
         id="path30"
         style="fill:#dd0000;fill-opacity:1;fill-rule:nonzero;stroke:none"
         d="m 318.203,137.754 c 0,-46.3751 -37.558,-83.8477 -83.789,-83.8477 -46.277,0 -83.828,37.4726 -83.828,83.8477 h 167.617" /><path
         id="path32"
         style="fill:#dd0000;fill-opacity:1;fill-rule:nonzero;stroke:none"
         d="m 331.152,150.703 c 46.231,0 83.75,37.442 83.75,83.699 0,46.328 -37.519,83.789 -83.75,83.789 V 150.703" /><path
         id="path34"
         style="fill:#dd0000;fill-opacity:1;fill-rule:nonzero;stroke:none"
         d="m 318.203,330.957 c 0,46.316 -37.558,83.777 -83.789,83.777 -46.277,0 -83.828,-37.461 -83.828,-83.777 h 167.617" /><path
         id="path36"
         style="fill:#dd0000;fill-opacity:1;fill-rule:nonzero;stroke:none"
         d="M 40.8984,162.48 40.957,306.395 C 16.4648,291.777 0,265.09 0,234.402 0,203.801 16.3672,177.07 40.8984,162.48" /><path
         id="path38"
         style="fill:#dd0000;fill-opacity:1;fill-rule:nonzero;stroke:none"
         d="m 410.723,331.113 h -79.571 v 79.512 c 43.907,0 79.571,-35.578 79.571,-79.512" /><path
         id="path40"
         style="fill:#000000;fill-opacity:1;fill-rule:nonzero;stroke:none"
         d="m 1124.1,330.781 c -6.7,0 -12.25,-5.777 -12.25,-12.527 v -168.91 c 0,-6.875 5.5,-12.469 12.25,-12.469 6.91,0 12.17,5.352 12.17,12.469 v 168.91 c 0,7.133 -5.26,12.527 -12.17,12.527" /><path
         id="path42"
         style="fill:#000000;fill-opacity:1;fill-rule:nonzero;stroke:none"
         d="m 1058.07,219.578 c -2.41,-38.836 -24.36,-59.433 -63.453,-59.433 h -41.844 v 147.476 h 41.844 c 39.393,0 61.343,-20.601 63.453,-59.625 0.55,-7.93 0.55,-19.367 0,-28.418 m 24.26,29.348 c -3.04,52.094 -35.06,81.953 -87.713,81.953 h -46.219 c -12.082,0 -19.902,-7.641 -19.902,-19.453 V 156.367 c 0,-11.398 8.215,-19.394 19.902,-19.394 h 46.219 c 51.873,0 84.673,30.632 87.713,81.922 0.54,9.132 0.54,20.078 0,30.031" /><path
         id="path44"
         style="fill:#000000;fill-opacity:1;fill-rule:nonzero;stroke:none"
         d="m 700.867,270.906 c 0,-24.023 -13.355,-35.707 -40.855,-35.707 h -48.246 v 71.934 h 49.601 c 25.488,0 39.5,-12.848 39.5,-36.227 m 26.906,-113.718 -47.882,59.062 c 21.203,4.063 45.656,16.891 45.656,54.656 0,29.785 -19.406,59.875 -62.805,59.875 h -55.84 c -11.726,0 -19.566,-7.816 -19.566,-19.386 v -162.09 c 0,-6.668 5.691,-12.43 12.168,-12.43 6.57,0 12.262,5.762 12.262,12.43 v 62.55 h 32.089 c 7.325,0 10.403,-3.144 14.543,-8.378 l 50.594,-62.344 c 2.168,-2.649 5.422,-4.16 8.906,-4.16 3.047,0 6.02,1.152 8.364,3.23 4.746,4.18 5.437,12.094 1.511,16.985" /><path
         id="path46"
         style="fill:#000000;fill-opacity:1;fill-rule:nonzero;stroke:none"
         d="m 818.75,158.758 c -33.547,0 -50.52,12.597 -50.52,37.375 0,23.64 18.899,37.715 50.52,37.715 16.719,0 30.527,-2.914 51.648,-8.711 v -51.496 c -11.785,-8.485 -34.003,-14.883 -51.648,-14.883 m 3.672,172.023 c -23.457,0 -45.332,-6.996 -56.934,-12.972 -4.679,-2.5 -7.422,-7.024 -7.422,-12.004 0,-3.043 1.114,-5.883 3.133,-8.004 2.063,-2.141 5.078,-3.321 8.43,-3.321 2.195,0 4.473,0.497 6.719,1.473 16.777,7.012 31.843,10.402 46.074,10.402 33.594,0 47.976,-13.792 47.976,-46.113 v -10.976 c -21.597,5.73 -36.011,7.89 -53.093,7.89 -44.637,0 -73.489,-23.816 -73.489,-60.652 0,-38.66 26.75,-61.746 71.672,-61.746 36.68,0 64.403,13.316 73.914,20.347 4.532,3.243 5.411,6.719 5.411,11.184 v 97.258 c 0,45.226 -23.672,67.234 -72.391,67.234" /><path
         id="path48"
         style="fill:#000000;fill-opacity:1;fill-rule:nonzero;stroke:none"
         d="m 1248.65,160.051 c -30.36,0 -53.75,22.547 -56.73,54.82 -1.09,13.848 -1.09,25.535 0,39.34 3.03,32.141 26.37,54.613 56.73,54.613 30.93,0 54.46,-22.472 57.22,-54.613 1.36,-13.805 1.36,-25.492 0,-39.289 -2.7,-32.324 -26.29,-54.871 -57.22,-54.871 m 81.93,95.113 c -3.11,44.031 -38.33,77.238 -81.93,77.238 -43.59,0 -77.76,-32.461 -81.15,-77.168 -1.13,-14.632 -1.13,-26.683 0,-41.543 3.1,-44.738 37.28,-77.226 81.15,-77.226 43.6,0 78.88,33.164 81.93,77.176 1.11,14.91 1.11,26.961 0,41.523" /><path
         id="path50"
         style="fill:#000000;fill-opacity:1;fill-rule:nonzero;stroke:none"
         d="m 1349.92,222.227 c 0,-6.36 5.51,-11.68 11.98,-11.68 h 48.78 c 6.59,0 11.94,5.242 11.94,11.68 0,6.683 -5.12,11.722 -11.94,11.722 h -48.78 c -6.83,0 -11.98,-5.039 -11.98,-11.722" /><path
         id="path52"
         style="fill:#000000;fill-opacity:1;fill-rule:nonzero;stroke:none"
         d="m 2043.53,158.758 c -33.54,0 -50.52,12.597 -50.52,37.375 0,23.64 18.91,37.715 50.52,37.715 16.7,0 30.5,-2.914 51.68,-8.711 v -51.496 c -11.82,-8.485 -34.03,-14.883 -51.68,-14.883 m 3.7,172.023 c -23.48,0 -45.33,-6.996 -57,-12.972 -4.64,-2.5 -7.4,-7.024 -7.4,-12.004 0,-3.043 1.12,-5.883 3.16,-8.004 2.11,-2.141 5.06,-3.321 8.45,-3.321 2.2,0 4.45,0.497 6.71,1.473 16.81,7.012 31.83,10.402 46.08,10.402 33.59,0 47.98,-13.792 47.98,-46.113 v -10.976 c -21.67,5.73 -36.04,7.89 -53.09,7.89 -44.66,0 -73.54,-23.816 -73.54,-60.652 0,-38.66 26.79,-61.746 71.67,-61.746 36.74,0 64.44,13.316 73.93,20.347 4.51,3.243 5.45,6.719 5.45,11.184 v 97.258 c 0,45.226 -23.66,67.234 -72.4,67.234" /><path
         id="path54"
         style="fill:#000000;fill-opacity:1;fill-rule:nonzero;stroke:none"
         d="m 2396.65,158.758 c -33.59,0 -50.61,12.597 -50.61,37.375 0,23.64 18.91,37.715 50.61,37.715 16.68,0 30.5,-2.914 51.61,-8.711 v -51.496 c -11.79,-8.485 -33.99,-14.883 -51.61,-14.883 m 3.63,172.023 c -23.44,0 -45.34,-6.996 -56.93,-12.972 -4.72,-2.5 -7.46,-7.024 -7.46,-12.004 0,-3.043 1.11,-5.883 3.14,-8.004 2.12,-2.141 5.07,-3.321 8.44,-3.321 2.22,0 4.46,0.497 6.75,1.473 16.8,7.012 31.82,10.402 46.06,10.402 33.61,0 47.98,-13.792 47.98,-46.113 v -10.976 c -21.62,5.73 -36,7.89 -53.09,7.89 -44.65,0 -73.53,-23.816 -73.53,-60.652 0,-38.66 26.83,-61.746 71.66,-61.746 36.74,0 64.44,13.316 73.98,20.347 4.45,3.243 5.4,6.719 5.4,11.184 v 97.258 c 0,45.226 -23.68,67.234 -72.4,67.234" /><path
         id="path56"
         style="fill:#000000;fill-opacity:1;fill-rule:nonzero;stroke:none"
         d="m 1681.55,158.758 c -33.54,0 -50.53,12.597 -50.53,37.375 0,23.64 18.86,37.715 50.53,37.715 16.75,0 30.5,-2.914 51.61,-8.711 v -51.496 c -11.76,-8.485 -33.98,-14.883 -51.61,-14.883 m 3.64,172.023 c -23.45,0 -45.33,-6.996 -56.94,-12.972 -4.66,-2.5 -7.4,-7.024 -7.4,-12.004 0,-3.043 1.13,-5.883 3.1,-8.004 2.09,-2.141 5.1,-3.321 8.44,-3.321 2.22,0 4.47,0.497 6.72,1.473 16.8,7.012 31.84,10.402 46.08,10.402 33.59,0 47.97,-13.792 47.97,-46.113 v -10.976 c -21.59,5.73 -35.99,7.89 -53.08,7.89 -44.63,0 -73.49,-23.816 -73.49,-60.652 0,-38.66 26.78,-61.746 71.68,-61.746 36.68,0 64.4,13.316 73.91,20.347 4.47,3.243 5.41,6.719 5.41,11.184 v 97.258 c 0,45.226 -23.67,67.234 -72.4,67.234" /><path
         id="path58"
         style="fill:#000000;fill-opacity:1;fill-rule:nonzero;stroke:none"
         d="m 1580.71,199.504 c -5.14,0 -9.14,-2.699 -11.24,-7.66 -8.5,-19.824 -27.17,-32.086 -48.72,-32.086 -29.86,0 -51.82,22.156 -54.67,55.039 -0.79,13.922 -0.79,25.223 0,39.07 2.85,32.957 24.81,55.082 54.67,55.082 21.52,0 40.17,-12.211 48.72,-31.801 1.22,-2.828 4.32,-7.617 11.24,-7.617 5.46,0 11.56,4.809 11.56,11.25 0,1.719 -0.31,3.434 -0.9,5.598 -11,27.504 -39.4,45.969 -70.62,45.969 -42.98,0 -75.4,-31.723 -78.89,-77.207 -1.08,-14.637 -1.08,-26.668 0,-41.528 3.2,-45.508 35.62,-77.285 78.89,-77.285 31.18,0 59.53,18.66 70.68,46.414 0.49,1.875 0.84,3.391 0.84,5.156 0,6.875 -6.1,11.606 -11.56,11.606" /><path
         id="path60"
         style="fill:#000000;fill-opacity:1;fill-rule:nonzero;stroke:none"
         d="m 1870.25,330.043 c -35.2,0 -62.15,-10.859 -74.45,-20.086 -4.28,-2.992 -5.75,-6.191 -5.75,-12.234 V 147.922 c 0,-7.024 5.32,-12.492 12.15,-12.492 6.9,0 12.12,5.359 12.12,12.492 v 144.922 c 11.48,6.847 32.71,13.617 55.26,13.617 33.39,0 53.34,-19.586 53.34,-52.301 V 147.922 c 0,-7.024 5.34,-12.492 12.13,-12.492 7.17,0 12.18,5.117 12.18,12.492 v 106.976 c 0,48.418 -27.3,75.145 -76.98,75.145" /><path
         id="path62"
         style="fill:#000000;fill-opacity:1;fill-rule:nonzero;stroke:none"
         d="m 2281.62,219.578 c -2.46,-38.836 -24.36,-59.433 -63.48,-59.433 h -41.83 v 147.476 h 41.83 c 39.41,0 61.35,-20.601 63.48,-59.625 0.48,-7.93 0.48,-19.367 0,-28.418 m 24.21,29.348 c -3.06,52.094 -35.03,81.953 -87.69,81.953 h -46.21 c -12.14,0 -19.89,-7.641 -19.89,-19.453 V 156.367 c 0,-11.398 8.15,-19.394 19.89,-19.394 h 46.21 c 51.88,0 84.68,30.632 87.69,81.922 0.54,9.132 0.54,20.078 0,30.031" /></g></g></svg>