<?xml version="1.0" encoding="UTF-8"?>
<svg width="162px" height="32px" viewBox="0 0 162 32" version="1.1" xmlns="http://www.w3.org/2000/svg" xmlns:xlink="http://www.w3.org/1999/xlink">
    <title>QUEBEC_video_noir</title>
    <g id="Page-1" stroke="none" stroke-width="1" fill="none" fill-rule="evenodd">
        <g id="QUEBEC_video_noir" fill="#0B1237">
            <path d="M43.7543855,22.1174985 L43.7540361,8.47767694 L43.650958,8.47767694 C43.1698103,8.92429616 41.3888303,8.96016637 40.6337395,8.96016637 L39.3241234,8.96016637 L39.3241234,9.070942 C40.8367509,10.006029 40.6309441,11.388087 40.6309441,13.1059885 L40.6323418,18.8789816 C40.6323418,21.7633681 37.8160383,23.7889797 35.5455245,23.7889797 C32.5548618,23.7889797 31.3130326,21.6515375 31.3130326,18.2030744 L31.3130326,8.4780286 L31.2103039,8.4780286 C30.7291563,8.92429616 28.9369949,8.96051804 28.1815546,8.96051804 L26.8831199,8.96051804 L26.8831199,9.07164534 C28.3960969,10.0063807 28.1902901,11.3887903 28.1902901,13.1059885 L28.1902901,18.8585848 C28.1902901,24.125175 30.4597555,26.6265943 34.5143941,26.6265943 C36.9222288,26.6265943 39.3936574,25.7664127 40.6323418,23.7137226 L40.6323418,26.2021302 L45.0615557,26.2021302 L45.0615557,26.0899479 C43.5492775,25.2276563 43.7543855,23.840675 43.7543855,22.1174985" id="Fill-1"></path>
            <path d="M50.6228817,14.82389 C51.0365918,12.4814249 52.7557249,10.994218 55.0611804,10.994218 C57.5375009,10.994218 59.1193131,12.2208384 59.4973826,14.82389 L50.6228817,14.82389 Z M63.1100082,16.9979058 C63.2466304,12.1842649 60.0473655,8.55187903 55.3700653,8.55187903 C50.2448121,8.55187903 46.7733511,12.2953922 46.7733511,17.4867253 C46.7733511,22.7170936 50.794795,26.7007964 56.6429926,26.7007964 C58.2597465,26.7007964 59.9103939,26.4423199 61.3898268,25.7755561 L63.1100082,22.2641443 L63.0058819,22.2641443 C61.4230214,23.6184204 59.4292462,24.2591607 57.3645393,24.2591607 C53.4783199,24.2591607 50.5550947,21.5878854 50.4859101,16.9979058 L63.1100082,16.9979058 L63.1100082,16.9979058 Z" id="Fill-2"></path>
            <path d="M65.838608,0.555636519 C66.6618352,0.555636519 68.3432313,0.504292891 68.8512841,0 L68.953314,0 L68.953314,23.6201787 C69.8768239,23.8814686 70.8338779,24.0664463 71.7902331,24.0664463 C75.5485658,24.0664463 77.7016753,21.4211945 77.7016753,17.7339483 C77.7016753,14.1184426 76.0279663,11.3244349 72.5767715,11.3244349 C71.4834447,11.3244349 70.62877,11.6230016 69.7056094,12.1445263 L71.5515811,8.96438639 C72.3363724,8.66546801 73.1571537,8.55187903 73.9772361,8.55187903 C77.8746368,8.55187903 81.1881612,11.9577902 81.1881612,17.0626128 C81.1881612,22.911918 77.2572164,26.693763 71.0379377,26.693763 C68.7143125,26.693763 66.4829336,26.2812557 64.7990915,26.0196142 L64.7990915,25.9056735 C65.933999,25.3809838 65.8312703,24.1420551 65.8312703,22.911918 L65.8312703,5.74134292 C65.8312703,4.01711136 66.0370771,1.60396086 64.5593912,0.666763823 L64.5593912,0.555636519 L65.838608,0.555636519" id="Fill-3"></path>
            <path d="M87.2938794,14.82389 C87.7079389,12.4814249 89.4260238,10.994218 91.7321781,10.994218 C94.2081492,10.994218 95.7903108,12.2208384 96.1687297,14.82389 L87.2938794,14.82389 Z M99.7792588,16.9979058 C99.9186764,12.1842649 96.719062,8.55187903 92.041063,8.55187903 C86.9161593,8.55187903 83.4433006,12.2953922 83.4433006,17.4867253 C83.4433006,22.7170936 87.4668409,26.7007964 93.3132914,26.7007964 C94.9307442,26.7007964 96.5827893,26.4423199 98.0597762,25.7755561 L99.7792588,22.2641443 L99.6775784,22.2641443 C98.0950674,23.6184204 96.0991957,24.2591607 94.0362359,24.2591607 C90.1493177,24.2591607 87.225743,21.5878854 87.1565584,16.9979058 L99.7792588,16.9979058 L99.7792588,16.9979058 Z" id="Fill-4"></path>
            <path d="M115.163404,12.8309836 L115.061375,12.8309836 C114.063089,11.5938131 112.411394,10.994218 110.863475,10.994218 C107.526889,10.994218 105.120801,13.5431126 105.120801,17.102703 C105.120801,21.4109961 108.456339,24.2591607 112.274073,24.2591607 C114.028148,24.2591607 115.954485,23.5094031 117.296248,22.4227469 L117.399675,22.4227469 L115.610659,25.9598305 C114.165818,26.5527439 112.584355,26.7007964 111.069282,26.7007964 C105.773862,26.7007964 101.633966,22.9481399 101.633966,18.0768253 C101.633966,11.6317934 106.255709,8.55187903 111.448399,8.55187903 C112.687433,8.55187903 113.960011,8.69922821 115.163404,8.99568491 L115.163404,12.8309836" id="Fill-5"></path>
            <path d="M58.8181153,5.46071131 C58.8181153,3.71924799 58.8181153,1.71262649 58.8181153,1.71262649 C56.5636748,2.73035565 54.471364,4.63112488 53.0729959,6.48160549 L53.0729959,7.94173386 C56.4193655,5.67206418 58.8181153,5.56621191 58.8181153,5.46071131" id="Fill-6"></path>
            <path d="M12.7282245,24.1237683 C7.53448555,24.1237683 3.92185994,18.2262845 3.92185994,13.2164124 C3.92185994,13.1654205 3.92185994,12.7022728 3.92290819,12.6526875 C3.98720097,7.79895638 7.10924468,3.24590194 12.55701,3.24590194 C18.2892011,3.24590194 21.2459704,8.70415157 21.2938405,13.8761429 C21.2938405,13.9176398 21.2938405,14.3730507 21.2938405,14.4148993 C21.2938405,19.9251959 17.8884194,24.1237683 12.7282245,24.1237683 Z M30.5317355,29.8559678 C26.6961816,30.4875648 23.0101784,29.2711428 19.0921621,24.7602886 C22.8763516,22.848266 25.2167487,18.087727 25.2167487,13.6651417 C25.2167487,13.6197764 25.2160499,13.1604971 25.2160499,13.1154835 C25.1479135,5.54651846 19.4985344,0.548251476 12.7631662,0.548251476 C6.01486965,0.548251476 0.0513643452,5.74978296 0.00104825194,13.379235 C0.00104825194,13.4136986 0,13.8571528 0,13.8902096 C0,21.3118255 5.47047747,26.8221221 12.1785911,26.8221221 C13.1419346,26.8221221 14.069987,26.6716079 14.9987382,26.4468916 C19.3926609,30.5888454 23.3082314,32.3524638 26.6919886,31.9420665 C28.2972118,31.7479453 29.9925846,31.10615 31.0111361,29.7747324 L30.5317355,29.8559678 L30.5317355,29.8559678 Z" id="Fill-7"></path>
            <path d="M140.32774,0.56055988 L140.32774,10.9094659 L123.550119,10.9094659 L123.550119,0.56055988 L140.32774,0.56055988 Z M131.939279,1.10212965 C131.817682,1.32860428 131.54304,1.65424948 131.082857,2.23837117 C130.546851,2.90935501 130.640145,3.80716516 130.894521,4.33712986 C131.185586,4.94938504 131.353306,5.45613961 131.485735,5.93898071 C131.64686,6.55224694 131.573903,7.34510047 131.561339,7.47671865 L131.559119,7.48955988 L131.096834,7.49019127 C131.096834,6.34832306 130.741826,5.2732719 129.886802,4.79640916 C128.670131,4.11839194 127.469533,5.29402035 127.850747,6.51571735 C128.05306,7.15786437 128.411562,7.37238227 128.512543,7.37238227 C128.512543,7.37238227 128.344823,6.66587988 128.851828,6.30682616 C129.329831,5.96641087 129.918599,6.17143371 130.192192,6.57796271 C130.450761,6.96198491 130.491294,7.49019127 130.491294,7.49019127 L129.6181,7.49019127 L129.6181,8.14077834 L131.375669,8.13937166 C131.375669,8.13937166 131.327799,9.05968861 130.366202,8.96966142 C130.366202,8.96966142 130.485354,9.69269223 131.375669,9.31535174 C131.375669,9.31535174 131.327799,10.0721427 131.939279,10.4533516 C132.549711,10.0721427 132.504986,9.31535174 132.504986,9.31535174 C133.397048,9.69269223 133.514103,8.96966142 133.514103,8.96966142 C132.549711,9.05968861 132.504986,8.13937166 132.504986,8.13937166 L134.263254,8.14077834 L134.263254,7.49019127 L133.387614,7.49019127 C133.387614,7.49019127 133.429893,6.96198491 133.687414,6.57796271 C133.960309,6.17143371 134.551173,5.96641087 135.026381,6.30682616 C135.533735,6.66587988 135.368461,7.37238227 135.368461,7.37238227 C135.47049,7.37238227 135.826896,7.15786437 136.029908,6.51571735 C136.411471,5.29402035 135.209126,4.11839194 133.995251,4.79640916 C133.136732,5.2732719 132.786267,6.34832306 132.786267,7.49019127 L132.320119,7.48955988 L132.318475,7.47671865 C132.305572,7.34510047 132.232309,6.55224694 132.395269,5.93898071 C132.525951,5.45613961 132.695069,4.94938504 132.986133,4.33712986 C133.240859,3.80716516 133.335201,2.90935501 132.798496,2.23837117 C132.340061,1.65424948 132.062973,1.32860428 131.939279,1.10212965 Z" id="Combined-Shape"></path>
            <path d="M162,0.56055988 L162,10.9094659 L145.217486,10.9094659 L145.217486,0.56055988 L162,0.56055988 Z M153.607695,1.10212965 C153.482604,1.32860428 153.20866,1.65424948 152.744634,2.23837117 C152.208279,2.90935501 152.304019,3.80716516 152.559792,4.33712986 C152.851905,4.94938504 153.018577,5.45613961 153.151705,5.93898071 C153.311607,6.55224694 153.239835,7.34510047 153.228054,7.47671865 L153.226486,7.48955988 L152.760707,7.49019127 C152.760707,6.34832306 152.408145,5.2732719 151.550326,4.79640916 C150.335052,4.11839194 149.135852,5.29402035 149.517416,6.51571735 C149.716933,7.15786437 150.074736,7.37238227 150.177116,7.37238227 C150.177116,7.37238227 150.011143,6.66587988 150.518846,6.30682616 C150.993005,5.96641087 151.58352,6.17143371 151.855717,6.57796271 C152.116032,6.96198491 152.156914,7.49019127 152.156914,7.49019127 L151.28407,7.49019127 L151.28407,8.14077834 L153.038844,8.13937166 C153.038844,8.13937166 152.991672,9.05968861 152.030775,8.96966142 C152.030775,8.96966142 152.148528,9.69269223 153.038844,9.31535174 C153.038844,9.31535174 152.991672,10.0721427 153.607695,10.4533516 C154.214982,10.0721427 154.16816,9.31535174 154.16816,9.31535174 C155.060572,9.69269223 155.180772,8.96966142 155.180772,8.96966142 C154.214982,9.05968861 154.16816,8.13937166 154.16816,8.13937166 L155.928874,8.14077834 L155.928874,7.49019127 L155.049391,7.49019127 C155.049391,7.49019127 155.095164,6.96198491 155.350938,6.57796271 C155.625929,6.17143371 156.215746,5.96641087 156.693749,6.30682616 C157.19691,6.66587988 157.037925,7.37238227 157.037925,7.37238227 C157.135762,7.37238227 157.491818,7.15786437 157.689937,6.51571735 C158.071501,5.29402035 156.870554,4.11839194 155.657027,4.79640916 C154.802702,5.2732719 154.449441,6.34832306 154.449441,7.49019127 L153.986486,7.48955988 L153.985186,7.47671865 C153.972192,7.34510047 153.897668,6.55224694 154.061239,5.93898071 C154.188427,5.45613961 154.35999,4.94938504 154.650356,4.33712986 C154.903334,3.80716516 154.997328,2.90935501 154.46237,2.23837117 C154.003934,1.65424948 153.72475,1.32860428 153.607695,1.10212965 Z" id="Combined-Shape"></path>
            <path d="M140.32774,15.8395091 L140.32774,26.1870085 L123.550119,26.1870085 L123.550119,15.8395091 L140.32774,15.8395091 Z M131.939279,16.3796722 C131.817682,16.6075535 131.54304,16.9324954 131.082857,17.5155621 C130.546851,18.1858426 130.640145,19.0833011 130.894521,19.6132658 C131.185586,20.2258726 131.353306,20.7319239 131.485735,21.21793 C131.64686,21.8281191 131.573903,22.6213957 131.561339,22.7529322 L131.560511,22.7663272 L131.560511,22.7663272 L131.096834,22.7663272 C131.096834,21.626569 130.741826,20.5494078 129.886802,20.0721934 C128.670131,19.3931212 127.469533,20.5712113 127.850747,21.7915016 C128.05306,22.4318903 128.411562,22.6499249 128.512543,22.6499249 C128.512543,22.6499249 128.344823,21.9444775 128.851828,21.5829621 C129.329831,21.2453601 129.918599,21.4500313 130.192192,21.8505819 C130.450761,22.2381208 130.491294,22.7663272 130.491294,22.7663272 L129.6181,22.7663272 L129.6181,23.4165626 L131.375669,23.4165626 C131.375669,23.4165626 131.327799,24.3337145 130.366202,24.247204 C130.366202,24.247204 130.485354,24.9691798 131.375669,24.5883226 C131.375669,24.5883226 131.327799,25.348982 131.939279,25.7305425 C132.549711,25.348982 132.504986,24.5883226 132.504986,24.5883226 C133.397048,24.9691798 133.514103,24.247204 133.514103,24.247204 C132.549711,24.3337145 132.504986,23.4165626 132.504986,23.4165626 L134.263254,23.4165626 L134.263254,22.7663272 L133.387614,22.7663272 C133.387614,22.7663272 133.429893,22.2381208 133.687414,21.8505819 C133.960309,21.4500313 134.551173,21.2453601 135.026381,21.5829621 C135.533735,21.9444775 135.368461,22.6499249 135.368461,22.6499249 C135.47049,22.6499249 135.826896,22.4318903 136.029908,21.7915016 C136.411471,20.5712113 135.209126,19.3931212 133.995251,20.0721934 C133.136732,20.5494078 132.786267,21.626569 132.786267,22.7663272 L132.319119,22.7655091 L132.318475,22.7529322 C132.305572,22.6213957 132.232309,21.8281191 132.395269,21.21793 C132.525951,20.7319239 132.695069,20.2258726 132.986133,19.6132658 C133.240859,19.0833011 133.335201,18.1858426 132.798496,17.5155621 C132.340061,16.9324954 132.062973,16.6075535 131.939279,16.3796722 Z" id="Combined-Shape"></path>
            <path d="M162,15.8395091 L162,26.1870085 L145.217486,26.1870085 L145.217486,15.8395091 L162,15.8395091 Z M153.607695,16.3796722 C153.482604,16.6075535 153.20866,16.9324954 152.744634,17.5155621 C152.208279,18.1858426 152.304019,19.0833011 152.559792,19.6132658 C152.851905,20.2258726 153.018577,20.7319239 153.151705,21.21793 C153.311607,21.8281191 153.239835,22.6213957 153.228054,22.7529322 L153.226486,22.7655091 L152.760707,22.7663272 C152.760707,21.626569 152.408145,20.5494078 151.550326,20.0721934 C150.335052,19.3931212 149.135852,20.5712113 149.517416,21.7915016 C149.716933,22.4318903 150.074736,22.6499249 150.177116,22.6499249 C150.177116,22.6499249 150.011143,21.9444775 150.518846,21.5829621 C150.993005,21.2453601 151.58352,21.4500313 151.855717,21.8505819 C152.116032,22.2381208 152.156914,22.7663272 152.156914,22.7663272 L151.28407,22.7663272 L151.28407,23.4165626 L153.038844,23.4165626 C153.038844,23.4165626 152.991672,24.3337145 152.030775,24.247204 C152.030775,24.247204 152.148528,24.9691798 153.038844,24.5883226 C153.038844,24.5883226 152.991672,25.348982 153.607695,25.7305425 C154.214982,25.348982 154.16816,24.5883226 154.16816,24.5883226 C155.060572,24.9691798 155.180772,24.247204 155.180772,24.247204 C154.214982,24.3337145 154.16816,23.4165626 154.16816,23.4165626 L155.928874,23.4165626 L155.928874,22.7663272 L155.049391,22.7663272 C155.049391,22.7663272 155.095164,22.2381208 155.350938,21.8505819 C155.625929,21.4500313 156.215746,21.2453601 156.693749,21.5829621 C157.19691,21.9444775 157.037925,22.6499249 157.037925,22.6499249 C157.135762,22.6499249 157.491818,22.4318903 157.689937,21.7915016 C158.071501,20.5712113 156.870554,19.3931212 155.657027,20.0721934 C154.802702,20.5494078 154.449441,21.626569 154.449441,22.7663272 L153.985486,22.7655091 L153.985186,22.7529322 C153.972192,22.6213957 153.897668,21.8281191 154.061239,21.21793 C154.188427,20.7319239 154.35999,20.2258726 154.650356,19.6132658 C154.903334,19.0833011 154.997328,18.1858426 154.46237,17.5155621 C154.003934,16.9324954 153.72475,16.6075535 153.607695,16.3796722 Z" id="Combined-Shape"></path>
        </g>
    </g>
</svg>
