<?xml version="1.0" encoding="UTF-8"?>
<svg width="146px" height="94px" viewBox="0 0 146 94" version="1.1" xmlns="http://www.w3.org/2000/svg" xmlns:xlink="http://www.w3.org/1999/xlink">
    <title>VDQ_rgb</title>
    <g id="Page-1" stroke="none" stroke-width="1" fill="none" fill-rule="evenodd">
        <g id="VDQ_rgb" transform="translate(0.000000, 0.000000)" fill="#0B1237">
            <path d="M65.3281,42.8783533 C65.3281,43.1283533 66.4941,43.2393533 66.4941,43.8273533 L66.4941,53.1823533 L74.5891,53.1823533 L75.3021,50.4733533 C75.3021,50.4733533 75.0741,50.4283533 74.8921,50.6213533 C74.5031,51.0383533 74.1621,52.2533533 72.3381,52.2533533 L68.4631,52.2533533 L68.4631,48.0963533 L72.7951,48.0963533 L72.7951,47.1363533 L68.4631,47.1363533 L68.4631,43.6413533 L72.6561,43.6413533 C73.4901,43.6413533 73.8491,44.2413533 74.3331,44.3873533 C74.4481,44.4183533 74.5821,44.3923533 74.5821,44.3923533 L73.9391,42.7203533 L65.3281,42.7203533 L65.3281,42.8783533 Z" id="Fill-1"></path>
            <path d="M60.3252,51.8451533 C59.7432,52.1321533 58.9792,52.2531533 58.4242,52.2531533 L56.6212,52.2531533 L56.6212,43.6481533 L56.8672,43.6481533 C61.5982,43.6481533 62.5482,46.3171533 62.5482,48.1951533 C62.5482,49.9321533 61.5882,51.2231533 60.3252,51.8451533 L60.3252,51.8451533 Z M58.0092,53.1821533 C59.1042,53.1821533 60.1682,53.0201533 61.0682,52.6151533 C62.9712,51.7581533 64.2412,50.0191533 64.2412,47.8811533 C64.2412,44.7691533 61.9062,42.7201533 57.5202,42.7201533 L53.4892,42.7201533 L53.4892,42.8791533 C53.4892,43.1281533 54.6472,43.2361533 54.6472,43.8321533 L54.6472,53.1821533 L58.0092,53.1821533 Z" id="Fill-3"></path>
            <path d="M0,40.4974533 C0,40.7504533 1.026,40.6814533 1.354,41.4854533 L6.271,53.1824533 L7.734,53.1824533 L12.631,40.3334533 L9.812,40.3334533 L9.812,40.4974533 C9.812,40.7484533 10.834,40.6364533 10.843,41.1874533 C10.843,41.4214533 10.617,42.0624533 10.445,42.5494533 L7.319,50.9234533 L7.278,50.9234533 L2.989,40.3334533 L0,40.3334533 L0,40.4974533 Z" id="Fill-5"></path>
            <path d="M38.1406,42.8783533 C38.1406,43.1283533 39.3066,43.2393533 39.3066,43.8273533 L39.3066,53.1823533 L47.4016,53.1823533 L48.1146,50.4733533 C48.1146,50.4733533 47.8866,50.4283533 47.7036,50.6213533 C47.3156,51.0383533 46.9746,52.2533533 45.1496,52.2533533 L41.2746,52.2533533 L41.2746,48.0963533 L45.6076,48.0963533 L45.6076,47.1363533 L41.2746,47.1363533 L41.2746,43.6413533 L45.4676,43.6413533 C46.3026,43.6413533 46.6616,44.2413533 47.1456,44.3873533 C47.2596,44.4183533 47.3936,44.3923533 47.3936,44.3923533 L46.7506,42.7203533 L38.1406,42.7203533 L38.1406,42.8783533 Z" id="Fill-7"></path>
            <path d="M28.4712,42.7201533 L28.4712,42.8781533 C28.4712,43.1281533 29.6382,43.2401533 29.6382,43.8271533 L29.6382,53.1821533 L37.2162,53.1821533 L37.9292,50.4731533 C37.9292,50.4731533 37.7012,50.4281533 37.5192,50.6211533 C37.1312,51.0381533 36.7902,52.2531533 34.9652,52.2531533 L31.6062,52.2531533 L31.6062,42.7201533 L28.4712,42.7201533 Z" id="Fill-9"></path>
            <path d="M18.6948,42.7201533 L18.6948,42.8781533 C18.6948,43.1281533 19.8618,43.2401533 19.8618,43.8271533 L19.8618,53.1821533 L27.4408,53.1821533 L28.1528,50.4731533 C28.1528,50.4731533 27.9248,50.4281533 27.7428,50.6211533 C27.3548,51.0381533 27.0138,52.2531533 25.1898,52.2531533 L21.8288,52.2531533 L21.8288,42.7201533 L18.6948,42.7201533 Z" id="Fill-11"></path>
            <path d="M16.4834,53.1825533 L16.4834,42.7205533 L13.3494,42.7205533 L13.3494,42.8785533 C13.3494,43.1275533 14.5154,43.2395533 14.5154,43.8275533 L14.5154,53.1825533 L16.4834,53.1825533 Z" id="Fill-13"></path>
            <path d="M65.9375,62.3016533 C67.1215,62.0356533 71.4405,59.6616533 74.2285,58.1866533 L69.3625,58.1866533 L65.0335,62.0826533 C65.0335,62.0826533 65.3955,62.4256533 65.9375,62.3016533" id="Fill-15"></path>
            <path d="M48.1709,64.3338533 L48.1709,64.6528533 C48.1709,65.1458533 50.5919,65.3678533 50.5919,66.5288533 L50.5919,78.0008533 C50.5919,81.4548533 47.9169,83.6018533 44.5449,83.6018533 C41.1679,83.6018533 38.4969,81.3308533 38.4969,77.8708533 L38.4969,64.3338533 L32.4539,64.3338533 L32.4539,64.6508533 C32.4539,65.1838533 34.4189,65.3578533 34.4189,66.7918533 L34.4189,77.3908533 C34.4189,82.4498533 37.8669,85.3738533 44.2459,85.3738533 C46.6539,85.3738533 48.9929,84.4228533 50.5919,82.9698533 L50.5919,85.0138533 L56.6409,85.0138533 L56.6409,84.6998533 C56.6409,84.1668533 54.6819,83.9918533 54.6819,82.5568533 L54.6819,64.3338533 L48.1709,64.3338533 Z" id="Fill-17"></path>
            <path d="M144.2026,69.7181533 C144.0066,68.0831533 143.8526,66.4521533 143.8176,64.8201533 C142.0096,64.1031533 139.8586,63.8091533 137.8666,63.8091533 C131.3896,63.8091533 124.0836,67.2301533 124.0836,74.7741533 C124.0836,82.4031533 131.0936,85.5391533 136.1796,85.5391533 C139.5076,85.5391533 142.7576,84.7211533 144.8356,83.0281533 L144.9856,81.2011533 C142.7946,82.4031533 140.1716,83.3201533 137.4716,83.3201533 C131.9526,83.3201533 127.6876,78.7231533 127.6876,73.6951533 C127.6876,69.4031533 131.0756,65.8341533 136.8066,65.8341533 C138.7206,65.8341533 140.9216,66.2781533 142.3436,67.5561533 C143.0816,68.1751533 143.4916,69.7181533 143.8886,69.7181533 L144.2026,69.7181533 Z" id="Fill-19"></path>
            <path d="M58.5112,64.6463533 C58.5112,65.1393533 60.9332,65.3613533 60.9332,66.5223533 L60.9332,85.0143533 L77.7472,85.0143533 L79.2302,79.6583533 C79.2302,79.6583533 78.7562,79.5703533 78.3772,79.9523533 C77.5722,80.7753533 76.8632,83.1763533 73.0722,83.1763533 L65.0222,83.1763533 L65.0222,74.9613533 L74.0212,74.9613533 L74.0212,73.0633533 L65.0222,73.0633533 L65.0222,66.1533533 L73.7322,66.1533533 C75.4662,66.1533533 76.2112,67.3413533 77.2182,67.6293533 C77.4542,67.6903533 77.7342,67.6393533 77.7342,67.6393533 L76.3982,64.3343533 L58.5112,64.3343533 L58.5112,64.6463533 Z" id="Fill-21"></path>
            <path d="M101.8999,64.6463533 C101.8999,65.1393533 104.3229,65.3613533 104.3229,66.5223533 L104.3229,85.0143533 L121.1379,85.0143533 L122.6179,79.6583533 C122.6179,79.6583533 122.1449,79.5703533 121.7649,79.9523533 C120.9609,80.7753533 120.2519,83.1763533 116.4609,83.1763533 L108.4109,83.1763533 L108.4109,74.9613533 L117.4119,74.9613533 L117.4119,73.0633533 L108.4109,73.0633533 L108.4109,66.1533533 L117.1209,66.1533533 C118.8549,66.1533533 119.5989,67.3413533 120.6069,67.6293533 C120.8419,67.6903533 121.1219,67.6393533 121.1219,67.6393533 L119.7849,64.3343533 L101.8999,64.3343533 L101.8999,64.6463533 Z" id="Fill-23"></path>
            <path d="M90.1909,74.9618533 C91.2339,74.9618533 92.1729,74.9798533 93.0029,75.1378533 C95.6589,75.6448533 97.1599,77.0358533 97.1599,79.2708533 C97.1599,81.1958533 95.5719,82.4618533 92.7669,82.9698533 C91.6699,83.1688533 90.3669,83.1758533 88.9339,83.1758533 L86.4869,83.1758533 L86.4869,74.9618533 L90.1909,74.9618533 Z M89.8369,66.1538533 C90.7179,66.1538533 91.5619,66.1988533 92.3059,66.3778533 C94.0089,66.7848533 95.2029,67.7578533 95.2029,69.5518533 C95.2029,71.1828533 93.9699,72.3938533 91.5949,72.9048533 C90.6909,73.0988533 89.6209,73.1408533 88.3899,73.1408533 L86.4869,73.1408533 L86.4869,66.1538533 L89.8369,66.1538533 Z M79.9759,64.3338533 L79.9759,64.6468533 C79.9759,65.1398533 82.3979,65.3608533 82.3979,66.5228533 L82.3979,85.0138533 L90.2669,85.0138533 C92.1459,85.0138533 93.7729,84.8698533 95.1539,84.5128533 C99.0699,83.5008533 100.9979,81.1978533 100.9979,78.8838533 C100.9979,75.4218533 97.6249,74.1148533 93.8649,73.7578533 L93.8649,73.6948533 C96.6849,72.9778533 98.8039,71.7358533 98.8039,69.1608533 C98.8039,65.4298533 95.0539,64.3338533 89.9159,64.3338533 L79.9759,64.3338533 Z" id="Fill-25"></path>
            <path d="M14.9409,61.6590533 C9.0529,61.6590533 4.5119,66.4030533 4.7989,72.2560533 C5.0869,78.1080533 10.0919,82.8540535 15.9819,82.8540535 C21.8699,82.8550533 26.4109,78.1110533 26.1239,72.2580533 C25.8369,66.4050533 20.8299,61.6590533 14.9409,61.6590533 M48.0059,90.3200533 C48.0059,90.5580533 47.8179,90.6750533 47.5709,90.7890533 C45.3869,91.9210533 41.2809,93.7190533 36.0459,93.7190533 C30.5539,93.7190533 26.7019,92.1550533 20.6649,88.4100533 L16.2739,85.6460533 C15.7169,85.6860533 15.1539,85.7010533 14.5839,85.6840533 C6.2859,85.4490533 -0.0491,79.2460533 0.4359,71.8300533 C0.9199,64.4140533 8.0399,58.5940533 16.3379,58.8290533 C24.6369,59.0640533 30.9709,65.2670533 30.4869,72.6830533 C30.1349,78.0640533 26.2889,82.6030533 21.0349,84.6000533 L25.0649,86.8890533 C32.7399,91.1050533 37.5719,91.5340533 40.0439,91.5340533 C41.9339,91.5340533 44.6249,91.2190533 47.1319,90.1630533 C47.3479,90.0870533 47.5369,89.9700533 47.6759,89.9700533 C47.8579,89.9700533 48.0059,90.1270533 48.0059,90.3200533" id="Fill-27"></path>
            <path d="M100.5991,25.7313533 C97.9401,21.9453533 97.1541,16.8673533 103.1231,15.1613533 L112.8201,13.2693533 C110.5501,15.4123533 109.8371,18.8623533 112.7871,23.6913533 C107.0401,20.8883533 100.0851,21.2893533 100.5991,25.7313533" id="Fill-29"></path>
            <path d="M130.1811,20.5243533 C126.7901,15.3813533 128.2651,11.2753533 130.1031,9.40735331 L117.2431,12.1633533 C111.5441,14.5883533 112.9651,19.9803533 115.0321,23.0493533 C114.6341,19.0783533 120.6471,17.0393533 130.1811,20.5243533" id="Fill-31"></path>
            <path d="M119.2182,41.1136533 C107.9862,31.6746533 112.1952,25.4156533 116.0702,23.4976533 L130.3352,20.8436533 C123.9092,27.4466533 126.3322,35.1066533 129.5102,38.9856533 C123.9122,35.8696533 116.1182,35.5886533 119.2182,41.1136533" id="Fill-33"></path>
            <path d="M107.0639,37.6449533 C105.1009,37.7689533 104.1619,38.9999533 104.3859,40.4839533 C99.8589,37.1399533 97.0019,31.4669533 100.6749,26.4399533 L112.9059,24.1659533 C110.0089,26.8699533 108.1869,33.2479533 117.2439,40.9579533 C114.2889,40.0859533 111.0749,37.3929533 107.0639,37.6449533" id="Fill-35"></path>
            <path d="M141.2827,19.3587533 C134.2137,20.8477533 122.0957,26.6417533 131.1457,38.3717533 C129.5967,33.7297533 134.4327,33.2797533 141.3607,34.3467533 C137.1247,31.5757533 134.1897,25.8597533 141.2827,19.3587533" id="Fill-37"></path>
            <path d="M126.2026,42.6522533 L126.5956,41.5082533 L128.8816,41.3482533 L129.7496,39.5732533 L136.6516,37.5222533 L137.2876,35.9842533 L143.2826,34.0102533 C144.3186,36.3612533 143.6026,38.7612533 142.4176,40.6962533 C141.7066,41.8572533 140.7666,42.7922533 140.0956,43.6102533 C138.3046,45.7892533 138.8176,49.4492533 140.7556,53.1822533 L107.5466,53.1822533 C104.7516,50.5922533 103.7716,48.0872533 102.4956,45.5152533 C101.2176,42.9442533 99.7066,41.8152533 95.7296,39.1322533 C94.7966,38.5022533 95.2846,37.5992533 96.3086,38.2212533 L99.2206,39.9702533 C107.0836,42.8172533 117.2436,42.9212533 126.2026,42.6522533" id="Fill-39"></path>
            <path d="M88.5278,30.3460533 L89.8938,30.3870533 C87.7998,28.9450533 86.0348,27.6610533 85.5868,27.3490533 C84.9078,26.9010533 84.7858,27.4940533 85.1688,27.7740533 L88.5278,30.3460533 Z" id="Fill-41"></path>
            <path d="M94.8198,33.7909533 C94.8198,33.7909533 94.2708,34.7819533 94.7198,35.4179533 L98.6178,38.6989533 L102.6058,39.7669533 L94.8198,33.7909533 Z" id="Fill-43"></path>
            <path d="M106.3198,5.67125331 C106.3528,5.08525331 106.5928,5.00725331 106.6378,5.57725331 C106.6868,6.14925331 107.2878,12.3822533 107.3018,12.9052533 C107.3178,13.4302533 107.2578,13.5482533 107.0878,13.5932533 C106.9198,13.6432533 106.6378,13.6792533 106.4528,13.6952533 C106.2688,13.7082533 106.1768,13.6452533 106.1638,13.3362533 C106.1478,13.0282533 106.2598,6.75325331 106.3198,5.67125331" id="Fill-45"></path>
            <path d="M123.269,0.469153311 C123.259,0.202153311 123.324,0.00715331058 123.456,0.000153310584 C123.589,-0.00584668942 123.653,0.165153311 123.667,0.357153311 C123.701,0.805153311 124.271,9.49315331 124.286,9.75015331 C124.298,10.0121533 124.255,10.1011533 124.037,10.1651533 C123.8,10.2341533 123.701,10.2571533 123.482,10.2901533 C123.269,10.3171533 123.114,10.2411533 123.114,9.99515331 C123.114,9.75015331 123.283,0.913153311 123.269,0.469153311" id="Fill-47"></path>
            <path d="M134.476,10.7459533 C134.493,10.3499533 134.751,10.2639533 134.783,10.6659533 C134.812,11.0659533 135.281,19.8569533 135.281,20.3369533 C135.281,20.8169533 135.244,20.8789533 135.087,20.9759533 C134.929,21.0729533 134.812,21.1219533 134.591,21.2159533 C134.369,21.3139533 134.257,21.2959533 134.257,21.0229533 C134.257,20.7519533 134.362,13.3109533 134.476,10.7459533" id="Fill-49"></path>
            <path d="M129.4585,13.9373533 C129.2965,13.6693533 129.4335,13.6543533 129.5485,13.6713533 C129.8605,13.7193533 130.6685,13.8313533 131.2525,13.5193533 C131.8365,13.2103533 132.4055,12.8383533 133.0095,12.7113533 C133.7985,12.5443533 134.1455,12.6793533 133.7985,13.0983533 C133.2265,13.7893533 133.1655,14.7893533 133.6755,15.6173533 C133.8325,15.8783533 133.8495,16.0223533 133.5545,15.9903533 C131.8865,15.8013533 131.1905,15.4033533 129.8565,16.1663533 C129.5645,16.3333533 129.4895,16.2193533 129.5915,16.0643533 C129.8905,15.6133533 130.2355,15.2933533 130.6855,15.0093533 C130.9135,14.8633533 130.8435,14.7933533 130.6765,14.7413533 C130.0375,14.5383533 129.6065,14.1803533 129.4585,13.9373533" id="Fill-51"></path>
            <path d="M122.562,2.75475331 C121.482,3.26075331 120.802,3.16275331 120.239,2.87875331 C119.984,2.74975331 119.728,2.61775331 119.523,2.54175331 C118.611,2.19775331 118.16,2.38675331 117.562,2.83375331 C116.842,3.37275331 116.116,3.58975331 115.287,3.79875331 C114.787,3.92475331 114.242,4.12875331 113.864,4.40675331 C113.33,4.79875331 113.042,5.31175331 112.915,5.70575331 C112.81,6.02475331 112.874,6.09275331 113.107,6.00575331 C113.996,5.67575331 114.253,5.49075331 115.446,5.76575331 C116.849,6.08875331 117.494,6.19875331 118.857,5.70375331 C120.2,5.21775331 120.839,5.11075331 121.65,5.55775331 C121.986,5.74375331 122.38,6.07875331 122.513,5.91075331 C122.647,5.74375331 122.287,5.48175331 122.216,5.24475331 C121.929,4.26175331 122.33,3.43975331 122.687,2.97575331 C122.769,2.86575331 122.727926,2.67675331 122.562,2.75475331" id="Fill-53"></path>
            <path d="M105.5659,9.00815331 C105.2659,8.49315331 105.3779,7.66715331 105.6069,7.03715331 C105.7449,6.65715331 105.1789,6.50815331 104.3459,6.77615331 C103.4999,7.04915331 102.9799,7.51215331 101.8359,7.60915331 C100.9099,7.68715331 100.0949,7.52915331 99.7689,7.45215331 C99.5169,7.39215331 99.5579,7.52215331 99.7989,7.79315331 C99.9409,7.95115331 100.3279,8.24415331 100.7259,8.45215331 C100.8789,8.53315331 100.8459,8.66115331 100.6579,8.86615331 C100.5059,9.03115331 100.2149,9.26215331 99.7619,9.49315331 C99.6709,9.53915331 99.5299,9.64315331 99.9409,9.83815331 C100.5129,10.1091533 101.6369,10.3781533 103.0159,9.89015331 C103.6809,9.65515331 104.1119,9.35015331 104.8219,9.37615331 C105.6639,9.40715331 105.8219,9.45015331 105.5659,9.00815331" id="Fill-55"></path>
            <path d="M144.5014,29.0184533 C144.5014,29.6364533 143.9994,30.1374533 143.3824,30.1374533 C142.7634,30.1374533 142.2634,29.6364533 142.2634,29.0184533 C142.2634,28.4004533 142.7634,27.8994533 143.3824,27.8994533 C143.9994,27.8994533 144.5014,28.4004533 144.5014,29.0184533" id="Fill-57"></path>
            <path d="M144.8686,29.8607533 C144.5756,30.3787533 144.0196,30.7287533 143.3826,30.7287533 C142.7436,30.7287533 142.1886,30.3787533 141.8946,29.8607533 C141.4756,30.2907533 141.4036,30.5127533 141.4036,30.5127533 L141.9626,30.9467533 L142.4856,33.5827533 L144.2786,33.5827533 L144.8006,30.9467533 L145.3586,30.5127533 C145.3586,30.5127533 145.2866,30.2907533 144.8686,29.8607533" id="Fill-59"></path>
            <path d="M140.4126,44.9090533 C139.5406,46.7070533 139.9626,49.5490533 141.6156,52.7350533 L141.8496,53.1820533 L143.8466,53.1820533 C143.8466,53.1820533 143.9856,51.9580533 142.2116,49.5140533 C140.5686,47.2530533 140.4216,45.3900533 140.4126,44.9090533" id="Fill-61"></path>
            <path d="M94.8784,40.4720533 C91.7104,38.7020533 88.6074,38.4530533 88.0134,40.0400533 C87.1984,42.2150533 92.3684,43.1010533 94.8784,40.4720533 M96.7424,41.4180533 C96.8984,41.5350533 96.8684,41.6340533 96.6994,41.5240533 C96.5294,41.4130533 95.5934,40.8590533 95.0754,40.5900533 C88.1134,46.8600533 79.5364,36.0330533 86.1244,31.0810533 L95.1504,30.8080533 C92.2594,35.9930533 94.1604,39.4650533 96.7424,41.4180533" id="Fill-63"></path>
        </g>
    </g>
</svg>
