<?xml version="1.0" encoding="UTF-8"?>
<svg width="169px" height="58px" viewBox="0 0 169 58" version="1.1" xmlns="http://www.w3.org/2000/svg" xmlns:xlink="http://www.w3.org/1999/xlink">
    <title>PQ_NOIR</title>
    <g id="Page-1" stroke="none" stroke-width="1" fill="none" fill-rule="evenodd">
        <g id="PQ_NOIR" fill="#0B1237">
            <polyline id="Fill-1" points="20.7469786 0.08573717 20.7464695 0.0850540053 20.7461301 0.08573717 20.7469786 0.08573717"></polyline>
            <polyline id="Fill-2" points="0.0851054536 20.8790504 0.0845963482 20.8797336 0.0851054536 20.8802459 0.0851054536 20.8790504"></polyline>
            <path d="M69.0222199,36.6604966 C69.0222199,36.6604966 69.0222199,36.763996 69.0559905,36.7973003 C69.4644628,37.4143688 70.1797559,38.1684119 70.5537787,38.3742152 C70.6221685,38.4078611 70.6900492,38.4078611 70.7239896,38.4078611 L75.6950644,38.4078611 C75.6950644,38.4078611 75.7975643,38.4078611 75.8657845,38.3742152 C76.2403163,38.1684119 76.8873893,37.4143688 77.2955221,36.7973003 C77.3294625,36.7293254 77.3294625,36.6604966 77.3294625,36.6604966 L77.3294625,26.0722977 C77.3294625,26.0722977 77.3294625,25.9687982 77.2955221,25.93464 C76.8873893,25.3182546 76.2403163,24.7015277 75.8657845,24.4953827 C75.7975643,24.4613953 75.7293442,24.4613953 75.6950644,24.4613953 L70.7239896,24.4613953 C70.7239896,24.4613953 70.5878887,24.4613953 70.5537787,24.4953827 C70.1797559,24.7015277 69.4644628,25.3182546 69.0559905,25.93464 C69.0222199,26.0031272 69.0222199,26.0722977 69.0222199,26.0722977 L69.0222199,36.6604966 Z M76.5462887,41.834786 L77.8747144,44.8157752 L74.0952856,44.8157752 L72.8354194,41.834786 L70.5878887,41.834786 C69.8384856,41.834786 69.0222199,41.5611786 68.4773074,41.2182299 C67.7620143,40.806794 66.4003271,39.3335493 65.9915154,38.7511514 C65.5830432,38.1337413 65.4460938,37.4488687 65.4460938,36.7973003 L65.4460938,26.0722977 C65.4460938,25.4207293 65.5830432,24.7351736 65.9915154,24.118959 C66.4003271,23.5355363 67.7620143,22.0626332 68.4773074,21.6511973 C69.0222199,21.308761 69.8384856,21.0344704 70.5878887,21.0344704 L75.7632846,21.0344704 C76.4789171,21.0344704 77.3294625,21.308761 77.8747144,21.6511973 C78.5898378,22.0626332 79.9172453,23.5355363 80.3599973,24.118959 C80.7688089,24.7351736 80.9049098,25.4207293 80.9049098,26.0722977 L80.9049098,36.7973003 C80.9049098,37.4488687 80.7688089,38.1337413 80.3599973,38.7511514 C79.9172453,39.3335493 78.5898378,40.806794 77.8747144,41.2182299 C77.3637423,41.4923497 77.0234901,41.6978115 76.5123483,41.7664696 L76.5462887,41.834786 L76.5462887,41.834786 Z" id="Fill-3"></path>
            <path d="M95.4951919,21.1716157 L99.0696209,21.1716157 L99.0696209,36.7973003 C99.0696209,37.4488687 98.9341989,38.1337413 98.5250478,38.7511514 C98.1165756,39.3335493 96.7889984,40.806794 96.0394255,41.2182299 C95.4951919,41.5611786 94.6777383,41.834786 93.9634634,41.834786 L89.638613,41.834786 C88.8900583,41.834786 88.0726048,41.5611786 87.5273529,41.2182299 C86.8125689,40.806794 85.4498634,39.3335493 85.0413912,38.7511514 C84.6332583,38.1337413 84.4974969,37.4488687 84.4974969,36.7973003 L84.4974969,21.1716157 L88.0726048,21.1716157 L88.0726048,36.7293254 C88.0726048,36.7293254 88.0726048,36.8657876 88.1067148,36.9007998 C88.5155265,37.5175267 89.1953519,38.1684119 89.6053514,38.3742152 C89.672723,38.4078611 89.7748835,38.4078611 89.7748835,38.4078611 L93.8271929,38.4078611 C93.8607938,38.4078611 93.9288442,38.4078611 93.9968947,38.3742152 C94.3714265,38.1684119 95.0522702,37.5175267 95.4607424,36.9007998 C95.4951919,36.8319709 95.4951919,36.763996 95.4951919,36.763996 L95.4951919,21.1716157" id="Fill-4"></path>
            <polyline id="Fill-5" points="102.731446 41.6634825 102.731446 21.1716157 115.534429 21.1716157 115.534429 24.5980282 106.306554 24.5980282 106.306554 29.7726593 114.887017 29.7726593 114.887017 33.2000966 106.306554 33.2000966 106.306554 38.2367283 115.534429 38.2367283 115.534429 41.6634825 102.731446 41.6634825"></polyline>
            <path d="M130.213974,36.8657876 L130.213974,34.4325257 C130.213974,34.3305634 130.179695,34.2624177 130.179695,34.2624177 C129.872874,33.7131533 129.22648,33.0969387 128.919998,33.0969387 L122.96075,33.0969387 L122.96075,38.2367283 L128.954108,38.2367283 C129.26025,38.2367283 129.940924,37.6205138 130.179695,37.10592 C130.179695,37.10592 130.213974,37.0032745 130.213974,36.8657876 Z M130.213974,28.4024017 L130.213974,25.9687982 C130.213974,25.9006525 130.179695,25.7976655 130.179695,25.7976655 C129.872874,25.2490842 129.22648,24.5980282 128.919998,24.5980282 L122.96075,24.5980282 L122.96075,29.7726593 L128.954108,29.7726593 C129.26025,29.7726593 129.940924,29.1561031 130.179695,28.6416801 C130.179695,28.6416801 130.213974,28.5733636 130.213974,28.4024017 Z M133.210908,39.0592586 C132.904427,39.5051944 131.882143,40.5673447 131.405451,40.9096102 C130.724268,41.3893627 129.771053,41.6634825 128.954108,41.6634825 L119.385812,41.6634825 L119.385812,21.1716157 L128.954108,21.1716157 C129.839443,21.1716157 130.724268,21.4802353 131.405451,21.9596462 C131.882143,22.3022533 132.904427,23.3645744 133.210908,23.8101686 C133.652472,24.4613953 133.789591,25.2490842 133.789591,25.93464 L133.789591,28.4705474 C133.789591,29.9096338 133.244,30.6633353 132.460996,31.4517073 C133.244,32.2400794 133.789591,32.9597934 133.789591,34.3988798 L133.789591,37.0032745 C133.789591,37.7231593 133.618871,38.4427025 133.210908,39.0592586 L133.210908,39.0592586 Z" id="Fill-6"></path>
            <polyline id="Fill-7" points="137.625191 41.6634825 137.625191 21.1716157 150.428683 21.1716157 150.428683 24.5980282 141.200469 24.5980282 141.200469 29.7726593 149.780932 29.7726593 149.780932 33.2000966 141.200469 33.2000966 141.200469 38.2367283 150.428683 38.2367283 150.428683 41.6634825 137.625191 41.6634825"></polyline>
            <path d="M168.285046,39.0314197 C167.400051,40.2305445 165.868323,41.8752635 163.961384,41.8752635 L159.704584,41.8752635 C158.954841,41.8752635 158.138406,41.6014853 157.593833,41.2585366 C156.87854,40.8472715 155.516683,39.4423433 155.108211,38.8256163 C154.699399,38.2090602 154.563637,37.5235044 154.563637,36.8726192 L154.563637,26.0774214 C154.563637,25.426707 154.699399,24.7754803 155.108211,24.1592657 C155.516683,23.5758431 156.87854,22.10294 157.593833,21.6916748 C158.138406,21.383226 158.954841,21.0749479 159.704584,21.0749479 L163.961384,21.0749479 C165.868323,21.0749479 167.400051,22.7539959 168.285046,23.9189625 C168.558266,24.2957279 168.693349,24.5700185 169,25.1177458 L165.526883,26.1127752 C165.526883,26.1127752 164.505957,24.8443091 163.994645,24.5356895 C163.961384,24.501702 163.892655,24.501702 163.858884,24.501702 L159.840345,24.501702 C159.773483,24.501702 159.704584,24.5356895 159.704584,24.5356895 C159.262002,24.7754803 158.513956,25.4950235 158.173025,26.0436048 C158.138406,26.1127752 158.138406,26.3522244 158.138406,26.4203701 C158.138406,26.4550407 158.138406,36.8377778 158.138406,36.8377778 C158.138406,37.249043 159.19446,38.1402313 159.704584,38.4146928 C159.738864,38.4481678 159.909244,38.4481678 159.943524,38.4481678 L163.824265,38.4481678 C163.858884,38.4481678 163.926934,38.4481678 163.994645,38.4146928 C164.709938,38.0712317 165.526883,36.8043028 165.526883,36.8043028 L169,37.7289662 C168.728307,38.3458639 168.558266,38.6546544 168.285046,39.0314197" id="Fill-8"></path>
            <path d="M71.2772174,9.2570525 C71.2772174,9.2570525 71.2772174,9.16977821 71.259229,9.13459522 C71.1524866,8.94194278 70.8680664,8.59216245 70.6905583,8.57474175 C70.6552603,8.57474175 70.6372719,8.57474175 70.6016346,8.57474175 L67.4735212,8.57474175 L67.4735212,11.4091921 L70.6016346,11.4091921 C70.7616634,11.4091921 71.1170189,11.0766617 71.259229,10.8317471 C71.259229,10.8317471 71.2772174,10.7969057 71.2772174,10.7618935 L71.2772174,9.2570525 Z M72.8232008,11.8464175 C72.6633417,12.0737406 72.1124897,12.5990942 71.8633675,12.7738136 C71.4903629,13.0363196 71.0282649,13.1587769 70.6016346,13.1587769 L67.4735212,13.1587769 L67.4735212,17.2881659 L65.6074802,17.2881659 L65.6074802,6.82498616 L70.6016346,6.82498616 C71.0282649,6.82498616 71.5080119,6.96486413 71.8633675,7.20977868 C72.1124897,7.38483963 72.6633417,7.9448639 72.8232008,8.17252853 C73.036516,8.48712588 73.1430887,8.87208919 73.1430887,9.2396318 L73.1430887,10.7793142 C73.1430887,11.1641068 73.036516,11.5316494 72.8232008,11.8464175 L72.8232008,11.8464175 Z" id="Fill-9"></path>
            <path d="M76.644546,14.7859044 C76.644546,14.7859044 76.644546,14.8385081 76.6620253,14.8559288 C76.8753405,15.1708677 77.2485147,15.5032274 77.4440112,15.6082639 C77.4796486,15.6258554 77.5151163,15.6258554 77.5332744,15.6258554 L80.0923775,15.6258554 C80.0923775,15.6258554 80.1454942,15.6258554 80.1811316,15.6082639 C80.376628,15.5032274 80.7501417,15.1708677 80.9629478,14.8559288 C80.9807665,14.8209166 80.9807665,14.7859044 80.9807665,14.7859044 L80.9807665,9.37933898 C80.9807665,9.37933898 80.9807665,9.30965618 80.9629478,9.2918939 C80.7501417,8.97712576 80.376628,8.62734543 80.1811316,8.52213807 C80.1454942,8.50488816 80.1100265,8.50488816 80.0923775,8.50488816 L77.5332744,8.50488816 C77.5332744,8.50488816 77.4621693,8.50488816 77.4440112,8.52213807 C77.2485147,8.62734543 76.8753405,8.97712576 76.6620253,9.2918939 C76.644546,9.32690609 76.644546,9.37933898 76.644546,9.37933898 L76.644546,14.7859044 Z M82.5628964,15.8009164 C82.3315928,16.0982638 81.6383609,16.8505989 81.2651867,17.0606721 C80.9807665,17.2355623 80.5364871,17.3754402 80.1634826,17.3754402 L77.4621693,17.3754402 C77.0708369,17.3754402 76.644546,17.2355623 76.3604652,17.0606721 C75.9866121,16.8505989 75.2753919,16.0982638 75.0627555,15.8009164 C74.8492707,15.4858067 74.7783353,15.1358555 74.7783353,14.8034959 L74.7783353,9.32690609 C74.7783353,8.99454646 74.8492707,8.64476613 75.0627555,8.32965642 C75.2753919,8.03230898 75.9866121,7.27980306 76.3604652,7.06990071 C76.644546,6.89483975 77.0708369,6.75496178 77.4621693,6.75496178 L80.1634826,6.75496178 C80.5364871,6.75496178 80.9807665,6.89483975 81.2651867,7.06990071 C81.6383609,7.27980306 82.3315928,8.03230898 82.5628964,8.32965642 C82.7757024,8.64476613 82.8469772,8.99454646 82.8469772,9.32690609 L82.8469772,14.8034959 C82.8469772,15.1358555 82.7757024,15.4858067 82.5628964,15.8009164 L82.5628964,15.8009164 Z" id="Fill-10"></path>
            <path d="M90.7206317,9.2570525 C90.7206317,9.2570525 90.7206317,9.16977821 90.702813,9.13459522 C90.5962403,8.94194278 90.3121594,8.59216245 90.1341422,8.57474175 L86.9174446,8.57474175 L86.9174446,11.4091921 L90.0453882,11.4091921 C90.2052473,11.4091921 90.5607726,11.0766617 90.702813,10.8317471 C90.702813,10.8317471 90.7206317,10.7969057 90.7206317,10.7618935 L90.7206317,9.2570525 Z M92.2666151,11.8464175 C92.106756,12.0737406 91.5559039,12.5990942 91.3071211,12.7738136 C91.1647413,12.879021 91.0052216,12.9662952 90.8450231,13.0187281 L92.9596772,17.2881659 L90.9339468,17.2881659 L88.9613331,13.1587769 L86.9174446,13.1587769 L86.9174446,17.2881659 L85.0514036,17.2881659 L85.0514036,6.82498616 L90.0453882,6.82498616 C90.4718488,6.82498616 90.9517655,6.96486413 91.3071211,7.20977868 C91.5559039,7.38483963 92.106756,7.9448639 92.2666151,8.17252853 C92.4801,8.48712588 92.5871818,8.87208919 92.5871818,9.2396318 L92.5871818,10.7793142 C92.5871818,11.1641068 92.4801,11.5316494 92.2666151,11.8464175 L92.2666151,11.8464175 Z" id="Fill-11"></path>
            <polyline id="Fill-12" points="99.062154 8.57474175 99.062154 17.2881659 97.1959433 17.2881659 97.1959433 8.57474175 94.3167826 8.57474175 94.3167826 6.82498616 101.940975 6.82498616 101.940975 8.57474175 99.062154 8.57474175"></polyline>
            <polyline id="Fill-13" points="41.4242947 20.8802459 20.7634397 41.6735592 54.4594295 41.6735592 47.8809391 31.3111462 54.4594295 20.8805875 41.4242947 20.8802459"></polyline>
            <polyline id="Fill-14" points="0.101396827 58 10.4284303 51.3791093 20.7624215 58 20.7624215 41.6735592 0.101396827 20.8802459 0.101396827 58"></polyline>
            <polyline id="Fill-15" points="41.4242947 0.08573717 20.76327 0.08573717 41.4242947 20.8790504 41.4242947 0.08573717"></polyline>
            <polyline id="Fill-16" points="20.76327 0.08573717 20.7631003 0.0850540053 20.7624215 0.08573717 20.76327 0.08573717"></polyline>
            <polyline id="Fill-17" points="41.4242947 20.8802459 41.4246341 20.8797336 41.4242947 20.8790504 41.4242947 20.8802459"></polyline>
            <polyline id="Fill-18" points="20.7624215 41.6735592 20.7631003 41.6740715 20.7634397 41.6735592 20.7624215 41.6735592"></polyline>
            <polyline id="Fill-19" points="0.101396827 20.8790504 0.101227125 20.8797336 0.101396827 20.8802459 0.101396827 20.8790504"></polyline>
            <polyline id="Fill-20" points="20.7624215 0.08573717 0.101396827 0.08573717 0.101396827 20.879392 20.7631003 20.879392 20.7631003 0.08573717 20.7624215 0.08573717"></polyline>
            <polyline id="Fill-21" fill-opacity="0.5" points="20.7631003 20.8797336 20.7631003 20.879392 0.101396827 20.879392 0.101396827 20.8802459 20.7624215 41.6735592 20.7631003 41.6735592 20.7631003 20.8797336"></polyline>
            <polyline id="Fill-22" fill-opacity="0.5" points="20.7631003 20.879392 20.7631003 20.8797336 41.4242947 20.8797336 41.4242947 20.8790504 20.76327 0.08573717 20.7631003 0.08573717 20.7631003 20.879392"></polyline>
            <polyline id="Fill-23" points="20.7631003 20.8797336 20.7631003 20.879392 20.7631003 20.8797336"></polyline>
            <polyline id="Fill-24" points="107.170167 19.7622469 108.729726 17.2879951 112.953265 17.2879951 111.071951 19.7622469 107.170167 19.7622469"></polyline>
        </g>
    </g>
</svg>
