<?xml version="1.0" encoding="UTF-8"?>
<svg width="117px" height="43px" viewBox="0 0 117 43" version="1.1" xmlns="http://www.w3.org/2000/svg" xmlns:xlink="http://www.w3.org/1999/xlink">
    <title>logo-waq-cossette</title>
    <g id="Page-1" stroke="none" stroke-width="1" fill="none" fill-rule="evenodd">
        <g id="logo-waq-cossette" fill="#0B1237" fill-rule="nonzero">
            <path d="M3.93671299,0.258520122 C4.04539525,0.306823349 4.22653235,0.355126576 4.25068396,0.427581416 C4.31106299,0.620794323 4.33521461,0.850234651 4.33521461,1.05552336 C4.34729042,6.01867992 4.35936622,10.9818365 4.38351784,15.9570688 C4.38351784,16.6816172 4.46804848,17.4061656 4.56465494,18.1307141 C4.74579204,19.5798109 4.8544743,21.0289077 4.84239849,22.4780045 C4.84239849,22.8161271 4.64918558,23.3474625 5.16844527,23.4561448 C5.54279528,23.5406755 5.65147754,23.0576432 5.84469045,22.7919754 C6.37602594,22.0191238 6.94358886,21.2704238 7.46284855,20.4854964 C7.84927436,19.9179334 8.19947276,19.3382947 8.56174696,18.7707318 C10.0832986,16.3917979 11.6652293,14.0611672 13.1264019,11.6460058 C13.8630261,10.4384252 14.6721052,9.30329935 15.5053358,8.16817352 C16.6646133,6.58624284 17.7393601,4.93185732 18.8141069,3.28954761 C19.0676988,2.90312179 19.2367601,2.44424114 19.4058214,2.00951209 C19.6956407,1.26081208 19.6835649,1.24873627 20.6254779,0.765704004 C21.301723,1.14005401 21.6277698,1.70761693 21.6277698,2.51669598 C21.6398456,3.55521535 21.5311634,4.5454315 21.301723,5.55979927 C21.0360553,6.76737994 20.8790698,8.01118803 20.8549182,9.25499612 C20.806615,13.5298317 20.8307666,17.8167431 20.8307666,22.1036545 C20.8307666,22.3572464 20.866994,22.5987625 20.8790698,22.8040512 C21.1085101,22.9851883 21.2534198,22.9127335 21.3862537,22.7919754 C21.9417408,22.2244125 22.1470295,21.4636367 22.4368489,20.7511641 C22.5696827,20.4371931 22.6542134,20.0990705 22.7508198,19.7730238 C22.8474263,19.4349012 23.0164876,19.1571576 23.2821553,18.9156415 C23.9946279,18.2756237 24.5138876,17.4906963 24.924465,16.633314 C25.7576957,14.882322 26.8807457,13.324543 28.3056909,11.9841284 C28.861178,11.4648687 29.2959071,10.8006994 29.7306361,10.1727574 C30.3827297,9.20669289 31.1193539,8.325159 31.9646604,7.54023157 C32.8703459,6.68284929 33.7277281,5.77716379 34.3435943,4.69034118 C35.1285217,3.31369922 36.2274201,2.14234597 37.108954,0.838158844 C37.3142427,0.536263676 37.5919863,0.367202382 37.9663363,0.330974962 C38.606354,0.270595929 39.234296,0.186065282 39.8743138,0.101534635 C39.9588444,0.089458828 40.043375,0.0773830213 40.1279057,0.089458828 C40.8403783,0.186065282 41.5528509,0.294747542 42.2653235,0.403429802 C42.4947638,0.681173357 42.2773993,0.886462071 42.1445654,1.07967498 C40.9732122,2.81859114 39.8018589,4.55750731 38.6184299,6.28434767 C37.6040621,7.75759609 36.5534669,9.23084451 35.5390991,10.7040929 C34.0054717,12.9260414 32.4959959,15.1600656 30.9744442,17.382014 C29.48912,19.5315076 27.9796441,21.6568496 26.4822441,23.7942674 C25.1901328,25.6539416 23.9221731,27.5377675 22.6421376,29.4095175 C22.4972279,29.626882 22.3523182,29.8321708 22.2074085,30.0374595 C21.990044,30.3393546 21.7002247,30.4842643 21.3379505,30.5084159 C20.0216875,30.6170982 18.7054246,30.7137046 17.3891617,30.5204917 C16.7853713,30.4359611 16.6283858,30.3031272 16.6042342,29.7234885 C16.5680068,28.6970449 16.5680068,27.6706014 16.5680068,26.6441578 C16.5680068,23.2267045 16.5800826,19.7971754 16.5800826,16.3676463 C16.5800826,15.9932963 16.5438552,15.6068704 16.5197036,15.0996866 C16.2781874,15.2445962 16.0970503,15.2928995 16.0487471,15.4136575 C15.807231,15.8725382 15.6140181,16.3434947 15.4208052,16.8144511 C15.2034406,17.3457866 14.9377729,17.8167431 14.37021,18.0461834 C13.9113293,18.2393963 13.6335858,18.6137463 13.367918,19.0001721 C11.9188212,21.1255141 10.4576486,23.2267045 9.0085518,25.3520465 C8.83949051,25.5935626 8.67042922,25.8471545 8.54967115,26.1248981 C8.19947276,26.8615223 7.78889533,27.5136159 7.14887757,28.0811788 C6.58131466,28.5762869 6.19488884,29.2887594 5.77223561,29.9287772 C5.51864367,30.3272788 5.19259688,30.5446433 4.73371623,30.5808708 C4.48012429,30.6050224 4.22653235,30.6774772 3.97294041,30.6654014 C2.89819361,30.629174 1.83552262,30.568795 0.772851629,30.5084159 C0.652093562,30.5084159 0.531335495,30.4480369 0.338122588,30.3997337 C0.253591941,30.1461417 0.132833874,29.880474 0.0966064537,29.5906546 C0.0483032268,29.2042288 0.0483032268,28.817803 0.0483032268,28.443453 C0.0603790335,25.8350787 0.084530647,23.2267045 0.0966064537,20.6062544 C0.10868226,17.6114544 0.10868226,14.6166543 0.120758067,11.6097784 C0.132833874,8.1440219 0.169061294,4.67826538 0.193212907,1.21250885 C0.193212907,0.922689491 0.241516134,0.63287013 0.253591941,0.318899155 C0.446804848,0.246444315 0.615866142,0.149837862 0.772851629,0.137762055 C1.66646133,0.137762055 2.56007102,0.149837862 3.45368072,0.161913668 C3.53821137,0.161913668 3.61066621,0.234368509 3.68312105,0.270595929 L3.68312105,0.246444315 L4.00916783,0.246444315 L4.00916783,0.270595929 L3.93671299,0.258520122 Z" id="Path"></path>
            <path d="M62.1662529,10.9939123 C61.8281303,12.1894172 61.4537803,13.3728462 61.4175529,14.6287301 C61.3330223,17.5027721 61.9609642,20.1594496 63.6998804,22.4780045 C65.0765224,24.2893755 66.8033627,25.5935626 69.0132353,26.3301868 C70.6555451,26.8735981 72.285779,26.8615223 73.9522403,26.7890675 C74.4111209,26.7649158 74.8700016,26.6079304 75.3288822,26.4992481 C75.654929,26.4267933 75.9809758,26.3422626 76.34325,26.257732 C77.1523291,27.1754933 77.9372565,28.0570272 78.3961372,29.2042288 C78.0217871,29.7355643 77.4421484,29.8321708 76.9349645,30.001232 C75.5462468,30.4359611 74.0850742,30.5567192 72.660129,30.7257804 C72.4910677,30.7499321 72.3220064,30.7499321 72.1408693,30.7257804 C70.4381805,30.5204917 68.7475676,30.2910514 67.1294095,29.7114127 C66.0788143,29.3370627 65.100674,28.817803 64.158761,28.2019368 C61.6228416,26.5475513 59.6424093,24.3980577 58.4589803,21.5964706 C57.287627,18.8311108 56.8408222,15.944993 57.3963093,12.9260414 C57.7585835,10.9697607 58.3865254,9.12216225 59.4854238,7.45570092 C59.8114706,6.47756058 60.5722465,5.83754282 61.2605674,5.13714603 C61.7435997,4.65411376 62.2507836,4.1831573 62.7338159,3.70012503 C63.4704401,2.95142502 64.3882014,2.46839275 65.3059627,2.03366371 C66.972424,1.23666047 68.6871886,0.584566903 70.5710144,0.52418787 C71.2110322,0.512112063 71.8389741,0.330974962 72.4669161,0.343050769 C74.9907597,0.391353996 77.3576178,0.970992718 79.6037178,2.15442178 C80.9562082,2.86689437 82.1758647,3.72427665 83.214384,4.78694764 C84.4581921,6.06698315 85.5208631,7.52815576 86.2816389,9.18254128 C87.151097,11.0663671 87.6462051,13.0588752 88.0447067,15.075535 C88.0809341,15.2445962 88.1292374,15.4257333 88.0930099,15.5827188 C87.899797,16.8506785 88.0688583,18.1427899 87.7428115,19.4107496 C87.4892196,20.3647383 87.4167648,21.3549544 87.0424148,22.2727158 C86.7525954,22.9972642 86.3661696,23.6372819 85.7744551,24.1686174 C85.1465131,24.7361803 84.5668744,25.3641223 83.963084,25.9558368 C84.156297,26.7166126 84.7238599,27.1634175 85.0499066,27.755132 C85.9072889,28.3589223 86.1971083,29.3129111 86.6197615,30.254824 C86.3057905,30.8465385 85.7261518,30.9793724 85.1344373,31.063903 C84.8929212,31.1001305 84.6151776,31.0518272 84.3736615,31.0155998 C83.7336437,30.943145 83.1057018,30.8586143 82.465684,30.7982353 C81.8135905,30.7499321 81.3184824,30.4601127 80.9924356,29.9046256 C80.8112985,29.6148062 80.6180856,29.3129111 80.5456307,28.9868643 C80.2558114,27.7913594 79.5554146,26.8132191 78.9274726,25.7988513 C78.7946388,25.5814868 78.6618049,25.3761981 78.528971,25.1467577 C78.8187904,24.7120287 79.1689888,24.3859819 79.5433388,24.1203142 C80.219584,23.6493577 80.7871469,23.0938706 81.1735727,22.3451706 C81.403013,21.8983657 81.7652872,21.5119399 82.030955,21.0651351 C83.0573985,19.2779157 83.5162792,17.3337108 83.4075969,15.2808237 C83.2868389,12.9864204 82.840034,10.764472 81.4996195,8.84441869 C79.5433388,6.03075573 76.8745855,4.3522186 73.3967532,4.01409601 C70.8729096,3.77257987 68.5543547,4.30391537 66.3927853,5.63225411 C64.8953853,6.55001542 63.784411,7.84212673 62.9632562,9.37575419 C62.6734368,9.89501388 62.4077691,10.4384252 62.1300255,10.9697607 L62.0454949,11.0059881 L62.1662529,10.9939123 L62.1662529,10.9939123 Z" id="Path"></path>
            <path d="M28.2090845,30.3393546 C28.6558893,29.5906546 29.0060877,28.9627127 29.4045893,28.3589223 C29.9600764,27.5498433 30.5638668,26.7890675 31.1314297,25.9799884 C31.6989926,25.1709094 32.2182523,24.3497545 32.7616636,23.5285996 C33.1239378,22.9972642 33.486212,22.4659287 33.8484862,21.946669 C34.8387024,20.5579512 35.8409943,19.1692334 36.8191347,17.7805157 C37.3383943,17.0438914 37.8093508,16.2951914 38.3165347,15.5464914 C38.920325,14.6649575 39.5603428,13.8196511 40.1641331,12.9381172 C41.106046,11.5614752 42.0238073,10.1727574 42.9415687,8.78403966 C43.231388,8.36138642 43.545359,7.950809 43.8351784,7.52815576 C45.0910622,5.69263314 46.3348703,3.85711052 47.5907542,2.03366371 C47.9530284,1.51440402 48.3636059,1.01929594 48.8224865,0.415505609 C49.1364575,0.391353996 49.5108075,0.330974962 49.8851575,0.330974962 C50.3198866,0.330974962 50.730464,0.355126576 51.1289656,0.137762055 C51.5274672,-0.0796024659 51.9621963,0.00492818105 52.3848495,0.089458828 C52.6746689,0.149837862 52.9524124,0.282671735 53.2543076,0.306823349 C54.0150834,0.391353996 54.0875382,0.657021743 54.1358415,1.30911531 C54.1720689,1.78007177 54.1599931,2.25102823 54.1599931,2.72198469 C54.1599931,3.44653309 54.1720689,4.1710815 54.1599931,4.9077057 C54.1479173,5.37866217 54.1116899,5.84961863 54.0875382,6.30849928 C54.0754624,6.47756058 54.0271592,6.64662187 54.039235,6.81568316 C54.2445237,9.46028483 54.1358415,12.1169623 54.3290544,14.761564 C54.3652818,15.2325204 54.353206,15.7034769 54.3290544,16.1744334 C54.0875382,20.0266157 54.0875382,23.878798 54.0996141,27.7309804 C54.0996141,28.503832 54.0513108,29.2646078 53.978856,30.0374595 C53.9426286,30.4359611 53.664885,30.6654014 53.2784592,30.6533256 C52.4693801,30.6412498 51.6603011,30.629174 50.8512221,30.5567192 C50.2112043,30.4963401 50.0300672,30.2789756 49.9938398,29.6510337 C49.9455365,28.9747885 49.9334607,28.2864675 49.9334607,27.5981465 C49.9334607,24.2169206 49.9334607,20.8356948 49.9455365,17.4544689 C49.9576124,14.2423043 49.9696882,11.0301397 49.981764,7.81797512 C49.981764,7.51607995 49.9938398,7.21418479 49.9576124,6.91228962 C49.9334607,6.71907671 49.8730817,6.44133316 49.7402478,6.36887832 C49.4504285,6.18774122 49.2813672,6.48963638 49.1364575,6.68284929 C48.0737865,8.24062836 46.9990397,9.78633162 45.9725961,11.3682623 C44.3061348,13.9041817 42.6879767,16.4884043 41.0094396,19.0122479 C39.4758121,21.3308028 37.8818056,23.6131303 36.3240266,25.9075336 C35.4304169,27.2117207 34.548883,28.5279836 33.6794249,29.8442466 C33.425833,30.2427482 33.0877104,30.4601127 32.6288297,30.4601127 C32.0733426,30.4601127 31.6627652,30.689553 31.2763394,31.0759788 C30.7329281,31.6073143 30.0204555,31.6435418 29.609878,31.0759788 C29.2838313,30.6533256 28.8128748,30.5567192 28.2090845,30.3393546 L28.2090845,30.3393546 Z" id="Path"></path>
            <path d="M110.880057,0.512112063 C111.858198,0.56041529 112.751807,0.59664271 113.681644,0.644945937 C113.729948,0.958916911 113.814478,1.20043305 113.802402,1.44194918 C113.790327,3.22916857 113.754099,5.00431216 113.754099,6.80360736 C113.754099,7.98703642 113.83863,9.18254128 113.886933,10.3538945 C114.490723,10.7523962 115.142817,10.4142736 115.770759,10.7282445 C115.915669,10.9335333 116.133033,11.199201 116.290019,11.4890204 C116.785127,12.3584784 116.398701,13.1434059 115.420561,13.2520881 C115.166969,13.2883156 114.901301,13.2520881 114.659785,13.2883156 C114.466572,13.324543 114.273359,13.4211494 114.043919,13.5056801 C114.055994,13.7471962 114.080146,13.9524849 114.092222,14.1698495 C114.104298,14.4596688 114.140525,14.7736398 114.104298,15.0634591 C114.031843,15.6430979 113.742023,15.884614 113.162385,15.8725382 C112.739731,15.8725382 112.305002,15.8483866 111.882349,15.7759317 C111.520075,15.7155527 111.278559,15.4619608 111.230256,15.075535 C111.194028,14.7011849 111.181952,14.3147591 111.133649,13.9283333 C111.097422,13.6505898 110.892133,13.4573769 110.614389,13.4573769 C110.09513,13.4694527 109.587946,13.5056801 109.080762,13.5419075 C107.583362,13.6505898 106.098038,13.5177559 104.624789,13.2520881 C103.936468,13.1313301 103.622497,12.7086768 103.501739,12.0445075 C103.368905,11.2475042 103.368905,10.5229558 103.984772,9.89501388 C104.419501,9.43613322 104.805926,8.91687353 105.204428,8.42176546 C105.397641,8.19232513 105.578778,7.950809 105.747839,7.70929286 C106.882965,6.10321057 108.006015,4.50920408 109.141141,2.90312179 C109.708704,2.14234597 110.264191,1.38157015 110.880057,0.512112063 L110.880057,0.512112063 Z M111.157801,10.5350316 C111.30271,10.3297429 111.338938,10.2935155 111.351014,10.2572881 C111.556302,8.43384126 111.495923,6.59831864 111.387241,4.77487183 C111.387241,4.67826538 111.242331,4.5454315 111.145725,4.5333557 C111.049118,4.50920408 110.867981,4.56958312 110.807602,4.64203796 C110.155509,5.48734443 109.455112,6.29642348 108.899625,7.20210898 C108.428668,7.9628848 107.981864,8.73573643 107.378073,9.3999058 C107.136557,9.67764935 106.858814,9.96746872 106.931268,10.450501 C107.088254,10.4988042 107.233164,10.5954107 107.390149,10.5954107 C108.658109,10.5954107 109.926068,10.6799413 111.157801,10.5350316 L111.157801,10.5350316 Z" id="Shape"></path>
            <path d="M93.7324117,4.98016054 C93.0682423,5.4390412 92.4040729,5.30620733 91.7399036,5.05261539 C91.46216,4.94393312 91.3534778,4.7144928 91.3414019,4.44882505 C91.3051745,3.50691213 91.6432971,2.68575727 92.2591633,1.98536048 C92.8146504,1.36949434 93.4546681,0.886462071 94.2516714,0.644945937 C95.8577537,0.161913668 97.4396843,0.101534635 98.9853876,0.898537877 C100.688076,1.76799596 101.412625,4.02617182 101.183184,5.34243475 C100.893365,7.00889607 100.120513,8.39761384 99.0940699,9.68972516 C98.2366876,10.764472 97.2947747,11.7546881 96.2321037,12.6120704 C95.9664359,12.8173591 95.6645407,13.010572 95.6403891,13.3969978 C95.7369956,13.6626656 95.9543601,13.6747414 96.1596488,13.6747414 C97.3189263,13.6868172 98.4782037,13.6868172 99.6254053,13.6868172 C100.048059,13.6868172 100.482788,13.6868172 100.905441,13.7351204 C101.231488,13.759272 101.460928,13.9766365 101.509231,14.3026833 C101.557534,14.6408059 101.593762,14.9789285 101.581686,15.3291269 C101.557534,15.9932963 101.050351,16.6212382 100.386181,16.6212382 C99.2872828,16.6212382 98.1883843,16.8627543 97.0774101,16.4280253 C96.3649375,16.1502818 95.5800101,16.1261301 94.8071585,16.1019785 C93.7082601,16.0657511 92.6093616,15.9087656 91.5587665,15.8121592 C91.1361132,15.2445962 91.1723407,14.6891091 91.2447955,14.133622 C91.3051745,13.6143623 91.6795245,13.3003914 92.0417987,13.010572 C93.6599568,11.7305365 95.2056601,10.4021978 96.6185295,8.89272192 C97.3551537,8.09571868 97.898565,7.19003317 98.272915,6.17566541 C98.6955682,5.00431216 98.3936731,3.98994439 97.4155327,3.21709277 C96.2683311,2.29933146 94.7588552,2.63745404 94.0946859,3.96579278 C93.9256246,4.30391537 93.8290181,4.67826538 93.7082601,5.01638797 L93.7324117,4.98016054 Z" id="Path"></path>
            <g id="Group" transform="translate(0, 35)">
                <path d="M32.9113934,6.53881279 L32.9113934,3.34246575 L33.7571208,3.34246575 L33.7571208,4.32876712 C33.9370628,3.74429224 34.2789527,3.30593607 34.8367729,3.30593607 L34.8547671,3.30593607 L34.8547671,4.14611872 C34.1170048,4.14611872 33.7571208,4.43835616 33.7571208,5.36986301 L33.7571208,6.53881279 L32.9113934,6.53881279 L32.9113934,6.53881279 Z" id="Path"></path>
                <path d="M31.4718573,4.42009132 C31.4718573,4.12785388 31.2919153,3.96347032 30.9680197,3.96347032 C30.6441241,3.96347032 30.4461879,4.12785388 30.3022343,4.42009132 L29.5464778,4.23744292 C29.7264198,3.7260274 30.2482517,3.28767123 31.0220023,3.28767123 C31.8137471,3.28767123 32.3175848,3.68949772 32.3175848,4.43835616 L32.3175848,6.52054795 L31.4718573,6.52054795 L31.4718573,5.9543379 C31.2379327,6.33789954 30.8420603,6.55707763 30.3742111,6.55707763 C29.8703734,6.55707763 29.4385126,6.26484018 29.4385126,5.73515982 C29.4385126,5.13242009 29.8523792,4.87671233 30.7161009,4.78538813 C31.2559269,4.76712329 31.4718573,4.71232877 31.4718573,4.42009132 Z M30.3202285,5.66210046 C30.3202285,5.89954338 30.5181647,6.00913242 30.7520893,6.00913242 C31.0939791,6.00913242 31.4718573,5.7716895 31.4718573,5.11415525 L31.4718573,5.07762557 C31.3638921,5.18721461 31.1839501,5.24200913 30.9320313,5.27853881 C30.5181647,5.29680365 30.3202285,5.38812785 30.3202285,5.66210046 Z" id="Shape"></path>
                <path d="M25.9836261,7.79908676 L25.9836261,3.34246575 L26.8293535,3.34246575 L26.8293535,4.01826484 C27.0092955,3.59817352 27.3331911,3.30593607 27.8550229,3.30593607 C28.6287736,3.30593607 29.2225822,3.94520548 29.2225822,4.96803653 C29.2225822,5.99086758 28.6107794,6.59360731 27.9090055,6.59360731 C27.4051679,6.59360731 27.0452839,6.30136986 26.8473477,5.84474886 L26.8473477,7.79908676 L25.9836261,7.79908676 Z M26.8293535,4.91324201 C26.8293535,5.51598174 27.1532491,5.93607306 27.6031041,5.93607306 C28.034965,5.93607306 28.3228722,5.55251142 28.3228722,4.96803653 C28.3228722,4.34703196 28.034965,3.96347032 27.6031041,3.96347032 C27.1352549,3.96347032 26.8293535,4.34703196 26.8293535,4.91324201 Z" id="Shape"></path>
                <path d="M22.6007163,6.57534247 C21.6290294,6.57534247 20.9992324,5.91780822 20.9992324,4.98630137 C20.9992324,4.05479452 21.593041,3.28767123 22.6007163,3.28767123 C23.5004263,3.28767123 24.094235,3.94520548 24.094235,4.80365297 C24.094235,4.89497717 24.094235,5.00456621 24.0762408,5.07762557 L21.8629541,5.07762557 C21.8989425,5.64383562 22.2228381,5.93607306 22.6367047,5.93607306 C23.0325771,5.93607306 23.2125191,5.66210046 23.3024901,5.40639269 L24.0762408,5.5890411 C23.914293,6.1369863 23.4104553,6.57534247 22.6007163,6.57534247 Z M21.8989425,4.56621005 L23.2305133,4.56621005 C23.1765307,4.20091324 22.9426061,3.94520548 22.5827221,3.94520548 C22.2228381,3.94520548 21.9889135,4.1826484 21.8989425,4.56621005 Z M22.2228381,2.97716895 L22.6007163,2.17351598 L23.4284495,2.17351598 L22.9246119,2.97716895 L22.2228381,2.97716895 Z" id="Shape"></path>
                <path d="M20.3694354,6.53881279 C19.6856557,6.53881279 19.2897833,6.19178082 19.2897833,5.49771689 L19.2897833,4.01826484 L18.8939109,4.01826484 L18.8939109,3.32420091 L19.2897833,3.32420091 L19.2897833,2.75799087 L20.1355108,2.46575342 L20.1355108,3.32420091 L20.8192904,3.32420091 L20.8192904,4.01826484 L20.1355108,4.01826484 L20.1355108,5.49771689 C20.1355108,5.71689498 20.2614702,5.82648402 20.4594064,5.82648402 L20.8192904,5.82648402 L20.8192904,6.53881279 L20.3694354,6.53881279 L20.3694354,6.53881279 Z" id="Path"></path>
                <path d="M15.6909432,6.53881279 L15.6909432,3.34246575 L16.5366706,3.34246575 L16.5366706,4.05479452 C16.7705952,3.6347032 17.1484734,3.30593607 17.6703053,3.30593607 C18.3180965,3.30593607 18.5520211,3.76255708 18.5520211,4.49315068 L18.5520211,6.55707763 L17.7242879,6.55707763 L17.7242879,4.63926941 C17.7242879,4.12785388 17.56234,3.94520548 17.2384444,3.94520548 C16.8605662,3.94520548 16.572659,4.32876712 16.5366706,4.78538813 L16.5366706,6.55707763 L15.6909432,6.55707763 L15.6909432,6.53881279 Z" id="Path"></path>
                <path d="M13.7295753,6.57534247 C12.7578884,6.57534247 12.1280914,5.91780822 12.1280914,4.98630137 C12.1280914,4.05479452 12.7219,3.28767123 13.7295753,3.28767123 C14.6292853,3.28767123 15.2230939,3.94520548 15.2230939,4.80365297 C15.2230939,4.89497717 15.2230939,5.00456621 15.2050997,5.07762557 L12.991813,5.07762557 C13.0278014,5.64383562 13.351697,5.93607306 13.7655637,5.93607306 C14.1614361,5.93607306 14.3413781,5.66210046 14.4313491,5.40639269 L15.2050997,5.5890411 C15.0431519,6.1369863 14.5573085,6.57534247 13.7295753,6.57534247 Z M13.0278014,4.56621005 L14.3593723,4.56621005 C14.3053897,4.20091324 14.0714651,3.94520548 13.7115811,3.94520548 C13.3696912,3.94520548 13.1177724,4.1826484 13.0278014,4.56621005 Z" id="Shape"></path>
                <path d="M10.5625959,6.59360731 C9.69887427,6.59360731 9.24901925,6.1369863 9.10506564,5.5890411 L9.86082208,5.42465753 C9.96878728,5.7716895 10.1847177,5.97260274 10.5985843,5.97260274 C10.9404741,5.97260274 11.1204161,5.82648402 11.1204161,5.60730594 C11.1204161,5.40639269 10.9584683,5.31506849 10.6885553,5.26027397 L10.1667235,5.13242009 C9.55492066,4.98630137 9.19503664,4.80365297 9.19503664,4.2739726 C9.19503664,3.70776256 9.69887427,3.30593607 10.4366365,3.30593607 C11.2643697,3.30593607 11.6962306,3.68949772 11.8581784,4.1826484 L11.0844277,4.3652968 C10.9944567,4.12785388 10.8145147,3.92694064 10.4186423,3.92694064 C10.1307351,3.92694064 9.95079308,4.03652968 9.95079308,4.23744292 C9.95079308,4.42009132 10.0947467,4.49315068 10.3106771,4.54794521 L10.9584683,4.69406393 C11.552277,4.82191781 11.8761726,5.07762557 11.8761726,5.57077626 C11.8761726,6.1369863 11.4263176,6.59360731 10.5625959,6.59360731 Z" id="Path"></path>
                <path d="M7.35962815,6.57534247 C6.38794131,6.57534247 5.75814428,5.91780822 5.75814428,4.98630137 C5.75814428,4.05479452 6.35195291,3.28767123 7.35962815,3.28767123 C8.2593382,3.28767123 8.85314683,3.94520548 8.85314683,4.80365297 C8.85314683,4.89497717 8.85314683,5.00456621 8.83515263,5.07762557 L6.62186592,5.07762557 C6.65785432,5.64383562 6.98174994,5.93607306 7.39561656,5.93607306 C7.79148898,5.93607306 7.97143098,5.66210046 8.06140199,5.40639269 L8.83515263,5.5890411 C8.67320482,6.1369863 8.16936719,6.57534247 7.35962815,6.57534247 Z M6.65785432,4.56621005 L7.98942519,4.56621005 C7.93544258,4.20091324 7.70151797,3.94520548 7.34163395,3.94520548 C6.98174994,3.94520548 6.74782533,4.1826484 6.65785432,4.56621005 Z M6.98174994,2.97716895 L7.35962815,2.17351598 L8.18736139,2.17351598 L7.68352377,2.97716895 L6.98174994,2.97716895 Z" id="Shape"></path>
                <path d="M3.67081698,6.53881279 L3.67081698,3.34246575 L4.51654442,3.34246575 L4.51654442,4.32876712 C4.69648643,3.74429224 5.03837624,3.30593607 5.59619647,3.30593607 L5.61419067,3.30593607 L5.61419067,4.14611872 C4.87642844,4.14611872 4.51654442,4.43835616 4.51654442,5.36986301 L4.51654442,6.53881279 L3.67081698,6.53881279 L3.67081698,6.53881279 Z" id="Path"></path>
                <path d="M0,7.79908676 L0,3.34246575 L0.845727441,3.34246575 L0.845727441,4.01826484 C1.02566945,3.59817352 1.34956507,3.30593607 1.87139689,3.30593607 C2.64514753,3.30593607 3.22096196,3.94520548 3.22096196,4.96803653 C3.22096196,5.99086758 2.60915913,6.59360731 1.90738529,6.59360731 C1.40354767,6.59360731 1.04366365,6.30136986 0.845727441,5.84474886 L0.845727441,7.79908676 L0,7.79908676 Z M0.845727441,4.91324201 C0.845727441,5.51598174 1.16962306,5.93607306 1.61947808,5.93607306 C2.0513389,5.93607306 2.33924611,5.55251142 2.33924611,4.96803653 C2.33924611,4.34703196 2.0513389,3.96347032 1.61947808,3.96347032 C1.15162886,3.96347032 0.863721642,4.34703196 0.845727441,4.91324201 Z" id="Shape"></path>
                <path d="M42.0884358,3.92694064 C41.9804706,3.25114155 41.566604,2.88584475 40.8828244,2.88584475 C39.8391607,2.88584475 39.4972709,3.94520548 39.4972709,4.84018265 C39.4972709,5.69863014 39.8211665,6.73972603 40.846836,6.73972603 C41.6025924,6.73972603 42.0524474,6.24657534 42.1424184,5.51598174 L43.7079139,5.51598174 C43.4919835,7.10502283 42.4123314,7.98173516 40.846836,7.98173516 C39.0654101,7.98173516 37.8597986,6.70319635 37.8597986,4.89497717 C37.8597986,3.03196347 38.9754391,1.64383562 40.8828244,1.64383562 C42.2683778,1.64383562 43.5639603,2.39269406 43.6719255,3.92694064 L42.0884358,3.92694064 L42.0884358,3.92694064 Z" id="Path"></path>
                <path d="M47.1088179,1.64383562 C48.9802148,1.64383562 50.1858262,2.90410959 50.1858262,4.82191781 C50.1858262,6.73972603 48.9802148,7.98173516 47.1088179,7.98173516 C45.2554152,8 44.0318095,6.73972603 44.0318095,4.82191781 C44.0498037,2.90410959 45.2554152,1.64383562 47.1088179,1.64383562 Z M47.1088179,6.75799087 C48.2244583,6.75799087 48.5483539,5.78995434 48.5483539,4.84018265 C48.5483539,3.87214612 48.2244583,2.90410959 47.1088179,2.90410959 C45.9931774,2.90410959 45.6692818,3.87214612 45.6692818,4.84018265 C45.687276,5.78995434 46.0111716,6.75799087 47.1088179,6.75799087 Z" id="Shape"></path>
                <path d="M51.9132695,5.88127854 C51.9312637,6.59360731 52.5250723,6.90410959 53.1548694,6.90410959 C53.6227186,6.90410959 54.2165272,6.72146119 54.2165272,6.1369863 C54.2165272,5.64383562 53.5507418,5.46118721 52.3811187,5.20547945 C51.4454203,4.98630137 50.4917276,4.65753425 50.4917276,3.59817352 C50.4917276,2.06392694 51.7873101,1.66210046 53.0648984,1.66210046 C54.3604808,1.66210046 55.5480981,2.10045662 55.6920517,3.57990868 L54.1445504,3.57990868 C54.108562,2.94063927 53.6227186,2.75799087 53.02891,2.75799087 C52.6510317,2.75799087 52.1291999,2.83105023 52.1291999,3.32420091 C52.1291999,3.9086758 53.0469042,4 53.9646084,4.21917808 C54.918301,4.43835616 55.8539995,4.80365297 55.8539995,5.89954338 C55.8539995,7.48858447 54.5044344,8 53.1368752,8 C51.7513217,8 50.4197508,7.48858447 50.347774,5.88127854 L51.9132695,5.88127854 L51.9132695,5.88127854 Z" id="Path"></path>
                <path d="M57.7433906,5.88127854 C57.7613848,6.59360731 58.3551934,6.90410959 58.9849904,6.90410959 C59.4528397,6.90410959 60.0466483,6.72146119 60.0466483,6.1369863 C60.0466483,5.64383562 59.3808629,5.46118721 58.2112398,5.20547945 C57.2755414,4.98630137 56.3218487,4.65753425 56.3218487,3.59817352 C56.3218487,2.06392694 57.6174312,1.66210046 58.8950194,1.66210046 C60.1906019,1.66210046 61.3782192,2.10045662 61.5221728,3.57990868 L59.9746715,3.57990868 C59.9386831,2.94063927 59.4528397,2.75799087 58.859031,2.75799087 C58.4811528,2.75799087 57.959321,2.83105023 57.959321,3.32420091 C57.959321,3.9086758 58.8770252,4 59.7947295,4.21917808 C60.7484221,4.43835616 61.6841206,4.80365297 61.6841206,5.89954338 C61.6841206,7.48858447 60.3345555,8 58.9669962,8 C57.5814428,8 56.2498719,7.48858447 56.1778951,5.88127854 L57.7433906,5.88127854 L57.7433906,5.88127854 Z" id="Path"></path>
                <path d="M63.5735117,5.22374429 C63.6095001,6.26484018 64.1313319,6.73972603 65.0310419,6.73972603 C65.6968274,6.73972603 66.2186592,6.33789954 66.3266244,5.97260274 L67.7661605,5.97260274 C67.2983112,7.37899543 66.3266244,8 64.9950535,8 C63.1236566,8 61.9720278,6.68493151 61.9720278,4.84018265 C61.9720278,3.03196347 63.1956334,1.66210046 64.9950535,1.66210046 C67.010404,1.66210046 67.9820909,3.37899543 67.8741257,5.22374429 L63.5735117,5.22374429 L63.5735117,5.22374429 Z M66.2186592,4.1826484 C66.0747056,3.34246575 65.7148216,2.90410959 64.9230767,2.90410959 C63.8974073,2.90410959 63.5915059,3.7260274 63.5735117,4.1826484 L66.2186592,4.1826484 Z" id="Shape"></path>
                <path d="M75.071806,2.92237443 L75.071806,1.80821918 L73.8661946,1.80821918 L73.8661946,0 L72.2467165,0 L72.2467165,1.80821918 L70.321337,1.80821918 L70.321337,0 L68.6838647,0 L68.6838647,1.80821918 L67.6941837,1.80821918 L67.6941837,2.92237443 L68.6838647,2.92237443 L68.6838647,6.48401826 C68.6838647,7.68949772 69.5475864,7.9086758 70.5552616,7.9086758 C70.861163,7.9086758 71.221047,7.89041096 71.5089542,7.85388128 L71.5089542,6.55707763 C71.3470064,6.59360731 71.1850586,6.59360731 71.0051166,6.59360731 C70.4472964,6.59360731 70.321337,6.46575342 70.321337,5.89954338 L70.321337,2.92237443 L72.2467165,2.92237443 L72.2467165,6.48401826 C72.2467165,7.68949772 73.1104381,7.9086758 74.1181134,7.9086758 C74.4240148,7.9086758 74.7838988,7.89041096 75.071806,7.85388128 L75.071806,6.55707763 C74.9098582,6.59360731 74.7479104,6.59360731 74.5679684,6.59360731 C74.0101482,6.59360731 73.8841888,6.46575342 73.8841888,5.89954338 L73.8841888,2.92237443 L75.071806,2.92237443 L75.071806,2.92237443 Z" id="Path"></path>
                <path d="M76.6912841,5.22374429 C76.7272725,6.26484018 77.2491043,6.73972603 78.1488144,6.73972603 C78.8145998,6.73972603 79.3364316,6.33789954 79.4443968,5.97260274 L80.8839329,5.97260274 C80.4160837,7.37899543 79.4443968,8 78.112826,8 C76.2414291,8 75.0898002,6.68493151 75.0898002,4.84018265 C75.0898002,3.03196347 76.3134059,1.66210046 78.112826,1.66210046 C80.1281765,1.66210046 81.0998633,3.37899543 80.9918981,5.22374429 L76.6912841,5.22374429 L76.6912841,5.22374429 Z M79.3364316,4.1826484 C79.192478,3.34246575 78.832594,2.90410959 78.0408492,2.90410959 C77.0151797,2.90410959 76.7092783,3.7260274 76.6912841,4.1826484 L79.3364316,4.1826484 Z" id="Shape"></path>
            </g>
        </g>
    </g>
</svg>