<svg xmlns="http://www.w3.org/2000/svg" xmlns:xlink="http://www.w3.org/1999/xlink" viewBox="0 0 264 118"><defs><clipPath id="a"><rect x="103.05" y="-54.73" width="61.09" height="228.05" transform="translate(60.66 185.96) rotate(-84)" fill="none"/></clipPath></defs><path d="M1.93,81.92,9.5,9.82a8.88,8.88,0,0,1,9.76-7.89L254.6,26a8.87,8.87,0,0,1,7.9,9.74l-4.41,41.93a8.87,8.87,0,0,1-9.75,7.89L215.4,82.76a8.87,8.87,0,0,0-9.76,7.89l-1.32,12.53a8.85,8.85,0,0,1-9.75,7.89L9.83,91.66A8.86,8.86,0,0,1,1.93,81.92Z" fill="#ebebeb" stroke="#000ca0" stroke-linecap="round" stroke-linejoin="round" stroke-width="2"/><g clip-path="url(#a)"><path d="M97.61,25.22,59.79,70.78h-.08l5.15-49L27.2,67.35l-.24,0,5.15-49-8.77-.92L17,77.76l10.78,1.13L53.08,49.5,49.75,81.2l10.78,1.13,47.93-56Z" fill="#000ca0"/><path d="M72.36,83.57l10.77,1.14,37.73-45.5h.08L115.8,88.14l8.77.92L130.9,28.8l-10.78-1.13Z" fill="#000ca0"/><path d="M194,66a30.27,30.27,0,0,0-6.51-22.4A30.56,30.56,0,0,0,137,48a29.94,29.94,0,0,0-3.62,11.62,29,29,0,0,0,1.15,11.92A30.35,30.35,0,0,0,140,81.75a31.11,31.11,0,0,0,9,7.49,31.1,31.1,0,0,0,24.45,2.28l-3.91-7.09a20.15,20.15,0,0,1-8.21.68,21.08,21.08,0,0,1-11.58-4.67A22,22,0,0,1,142.9,70a32.24,32.24,0,0,1-.91-4.78,21.64,21.64,0,0,1,0-4.76,22.85,22.85,0,0,1,1-4.83,27.05,27.05,0,0,1,1.86-4.32,21.66,21.66,0,0,1,8.85-8.89A22.4,22.4,0,0,1,174.6,43,21.63,21.63,0,0,1,181,48.56a22.56,22.56,0,0,1,3.75,7.67,23.85,23.85,0,0,1,.68,8.94,23.33,23.33,0,0,1-2.21,7.66,24.05,24.05,0,0,1-3.43,5.09,15.38,15.38,0,0,1-2.95,2.86A28.63,28.63,0,0,1,173.45,83l2.53,4.5,1.31,2.34,2.79,5.11,9.66,1-5.89-10.51A29.18,29.18,0,0,0,194,66Z" fill="#000ca0"/><path d="M209.81,62.6c1.1-.74,2.24-1.53,3.39-2.35a42.15,42.15,0,0,0,4.42-3.69,21.72,21.72,0,0,0,3.49-4.27,11.4,11.4,0,0,0,1.69-4.86,9,9,0,0,0-.24-3.72,8.87,8.87,0,0,0-1.71-3.31,10.17,10.17,0,0,0-7.1-3.39,12.08,12.08,0,0,0-5.37.57,9.14,9.14,0,0,0-4.16,3,11.16,11.16,0,0,0-2.1,5.52l-.05.48,6.2.65,0-.47a5.37,5.37,0,0,1,1.44-3.28,3.68,3.68,0,0,1,1.53-.91,3.63,3.63,0,0,1,1.76-.1,3.27,3.27,0,0,1,2.78,1.5,5,5,0,0,1,.6,3.05,7.47,7.47,0,0,1-1.54,3.65,24.83,24.83,0,0,1-3.59,3.8,58.25,58.25,0,0,1-5,3.85c-1.87,1.3-3.8,2.6-5.73,3.89l-.19.12L199.9,67l21.36,2.24.57-5.38Z" fill="#000ca0"/><path d="M235.47,65.3c1.11-.74,2.28-1.53,3.4-2.36a39.92,39.92,0,0,0,4.42-3.68A22,22,0,0,0,246.77,55a11.58,11.58,0,0,0,1.69-4.86,9.14,9.14,0,0,0-2-7,10.15,10.15,0,0,0-7.09-3.38,11.9,11.9,0,0,0-5.36.57,9.09,9.09,0,0,0-4.16,3,11.18,11.18,0,0,0-2.11,5.52l0,.48,6.2.65.05-.47a5.48,5.48,0,0,1,1.44-3.29,3.91,3.91,0,0,1,1.52-.9,3.8,3.8,0,0,1,1.77-.11,3.29,3.29,0,0,1,2.78,1.51,5,5,0,0,1,.6,3,7.64,7.64,0,0,1-1.53,3.66,24.89,24.89,0,0,1-3.6,3.8,58.25,58.25,0,0,1-5,3.85c-1.87,1.29-3.8,2.6-5.73,3.89l-.18.12-.49,4.62,21.36,2.25.56-5.38Z" fill="#000ca0"/></g></svg>