<svg xmlns="http://www.w3.org/2000/svg" viewBox="0 0 117 32"><path d="M38.06.21,21.32,25.32h0V.21L4.62,25.32H4.5V.21H0V31.14H5.53L16.79,14.89V31.14h5.52L43.63.21Z" fill="#000ca0"/><path d="M28.37,31.14H33.9L50.6,6.07h0V31.14h4.49V.25H49.61Z" fill="#000ca0"/><path d="M89.11,15.75a15.39,15.39,0,0,0-4.49-11,15.67,15.67,0,0,0-22.06,0,15.53,15.53,0,0,0-3.32,4.93A15.12,15.12,0,0,0,58,15.72a14.78,14.78,0,0,0,1.22,6,15.28,15.28,0,0,0,3.34,4.91,15.74,15.74,0,0,0,4.94,3.32A15.9,15.9,0,0,0,80,29.78L77.68,26.4a10.24,10.24,0,0,1-4.12.78,10.76,10.76,0,0,1-6.13-1.75,11.27,11.27,0,0,1-4-4.93,15,15,0,0,1-.71-2.37,10.86,10.86,0,0,1-.27-2.41,11.69,11.69,0,0,1,.27-2.51,14.11,14.11,0,0,1,.71-2.29,11.06,11.06,0,0,1,4-5A11.45,11.45,0,0,1,78,5.1a10.82,10.82,0,0,1,3.52,2.5,11.65,11.65,0,0,1,2.31,3.69,12.17,12.17,0,0,1,.83,4.5,11.6,11.6,0,0,1-2.19,6.76,7.91,7.91,0,0,1-1.34,1.61,16.07,16.07,0,0,1-1.58,1.28l1.52,2.15.79,1.11,1.69,2.44h5l-3.55-5A14.84,14.84,0,0,0,89.11,15.75Z" fill="#000ca0"/><path d="M96.94,13.18c.51-.43,1-.89,1.59-1.37a20.23,20.23,0,0,0,2-2.1,11.33,11.33,0,0,0,1.54-2.35,5.84,5.84,0,0,0,.61-2.56,4.59,4.59,0,0,0-.33-1.87,4.43,4.43,0,0,0-1-1.59A5.16,5.16,0,0,0,97.57,0a6.09,6.09,0,0,0-2.69.58,4.67,4.67,0,0,0-1.95,1.76,5.71,5.71,0,0,0-.77,2.91v.24h3.18V5.25a2.75,2.75,0,0,1,.56-1.74,1.91,1.91,0,0,1,1.61-.69A1.67,1.67,0,0,1,99,3.44,2.55,2.55,0,0,1,99.47,5a3.87,3.87,0,0,1-.59,1.93A12,12,0,0,1,97.26,9a30.55,30.55,0,0,1-2.33,2.22c-.88.76-1.79,1.52-2.7,2.28l-.08.07v2.37H103.1V13.18Z" fill="#000ca0"/><path d="M110.09,13.18c.52-.43,1.08-.89,1.6-1.37a20.23,20.23,0,0,0,2-2.1,11.33,11.33,0,0,0,1.54-2.35,5.82,5.82,0,0,0,.59-2.56,4.42,4.42,0,0,0-.32-1.87,4.43,4.43,0,0,0-1-1.59A5.14,5.14,0,0,0,110.73,0,6.09,6.09,0,0,0,108,.58a4.67,4.67,0,0,0-2,1.76,5.71,5.71,0,0,0-.77,2.91v.24h3.18V5.25a2.8,2.8,0,0,1,.55-1.74,2,2,0,0,1,.73-.54,1.93,1.93,0,0,1,.89-.15,1.68,1.68,0,0,1,1.49.62A2.54,2.54,0,0,1,112.62,5,3.86,3.86,0,0,1,112,6.88,12,12,0,0,1,110.42,9a30.45,30.45,0,0,1-2.33,2.22c-.88.76-1.79,1.52-2.7,2.28l-.08.07v2.37h10.94V13.18Z" fill="#000ca0"/></svg>