<svg xmlns="http://www.w3.org/2000/svg" viewBox="0 0 320.52 86.85"><polygon points="106.33 0.44 59.56 70.59 59.44 70.59 59.44 0.44 12.9 70.59 12.56 70.59 12.56 0.44 0 0.44 0 86.83 15.44 86.83 46.89 41.45 46.89 86.83 62.32 86.83 121.88 0.44 106.33 0.44" fill="#000ca0"/><polygon points="79.26 86.83 94.69 86.83 141.35 16.79 141.46 16.79 141.46 86.83 154.02 86.83 154.02 0.56 138.58 0.56 79.26 86.83" fill="#000ca0"/><path d="M248.94,43.87a43.45,43.45,0,0,0-83.46-17.11,42.42,42.42,0,0,0-3.4,17,41.31,41.31,0,0,0,3.4,16.7,43.16,43.16,0,0,0,9.33,13.71,44.27,44.27,0,0,0,13.82,9.28,42.22,42.22,0,0,0,16.88,3.39A42.74,42.74,0,0,0,223.6,83L217,73.6a28.63,28.63,0,0,1-11.52,2.19,29.91,29.91,0,0,1-17.1-4.9,31.24,31.24,0,0,1-11.24-13.76,46,46,0,0,1-2-6.63,31.77,31.77,0,0,1-.74-6.74,32.33,32.33,0,0,1,.74-7,38.6,38.6,0,0,1,2-6.4,30.7,30.7,0,0,1,11.18-13.94A31.92,31.92,0,0,1,218,14.06a30.86,30.86,0,0,1,9.85,7,32.12,32.12,0,0,1,6.45,10.31,34.08,34.08,0,0,1,2.3,12.55,33.26,33.26,0,0,1-2,11.18,34,34,0,0,1-4.1,7.83,22.43,22.43,0,0,1-3.75,4.49,42.66,42.66,0,0,1-4.43,3.51l4.26,6L228.78,80l4.72,6.79h13.83l-9.91-14A41.54,41.54,0,0,0,248.94,43.87Z" fill="#000ca0"/><path d="M272.59,33.69a57.92,57.92,0,0,0,5.93-6A31.75,31.75,0,0,0,283,20.93a16.5,16.5,0,0,0,1.72-7.27,13.2,13.2,0,0,0-3.88-9.81C278.23,1.29,274.6,0,270,0a17.63,17.63,0,0,0-7.7,1.64,13.16,13.16,0,0,0-5.53,5,16.17,16.17,0,0,0-2.22,8.28v.38h8.62v-.38a8.31,8.31,0,0,1,1.71-5.25,6,6,0,0,1,5-2.12c2.17,0,3.68.63,4.6,1.92a7.71,7.71,0,0,1,1.4,4.57,11.43,11.43,0,0,1-1.75,5.76,35.83,35.83,0,0,1-4.76,6.2,86.53,86.53,0,0,1-6.81,6.46c-2.56,2.18-5.21,4.41-7.88,6.6l-.14.12v6.4h31.28V38.24H267.25C269,36.83,270.76,35.31,272.59,33.69Z" fill="#000ca0"/><path d="M318.06,25.18a10.47,10.47,0,0,0-5.1-3.44,10.47,10.47,0,0,0,4.12-3.15,10,10,0,0,0,2.14-6.49,11.46,11.46,0,0,0-1.67-6,12,12,0,0,0-4.9-4.39A17.27,17.27,0,0,0,304.78,0a15.72,15.72,0,0,0-10.66,3.62,13.36,13.36,0,0,0-4.41,9.9v.4h8.65v-.35a6.73,6.73,0,0,1,1.83-4.24A7,7,0,0,1,309,9a4.73,4.73,0,0,1,1.49,3.66,4.7,4.7,0,0,1-2,4.17,8.74,8.74,0,0,1-5.16,1.44h-3.74v7.35h3.67a10.51,10.51,0,0,1,6.21,1.72,5.74,5.74,0,0,1,2.35,5A6.42,6.42,0,0,1,310,37a6.86,6.86,0,0,1-5.12,1.8,7.21,7.21,0,0,1-5.52-2.06,7.39,7.39,0,0,1-2-5.13v-.36h-8.73v.38a15.25,15.25,0,0,0,2.25,8.3,13.3,13.3,0,0,0,5.86,4.89,20.1,20.1,0,0,0,8.14,1.52,17.64,17.64,0,0,0,8.5-1.87,13,13,0,0,0,7.13-11.85A11.4,11.4,0,0,0,318.06,25.18Z" fill="#000ca0"/></svg>