<svg width="200" height="55" viewBox="0 0 200 55" fill="none" xmlns="http://www.w3.org/2000/svg">
<path d="M6.74476 0.38616C6.93788 0.478113 7.24135 0.542486 7.28733 0.680415C7.39769 1.02064 7.42527 1.39763 7.42527 1.75625C7.45286 10.2803 7.47125 18.8043 7.51723 27.3375C7.51723 28.5789 7.66437 29.8295 7.82071 31.0616C8.13337 33.5444 8.32649 36.0271 8.2989 38.5282C8.2989 39.1167 7.96784 40.027 8.85067 40.2017C9.50359 40.3397 9.68751 39.5213 10.0186 39.0523C10.9382 37.7282 11.8946 36.4316 12.805 35.0983C13.4671 34.1328 14.0741 33.1306 14.6994 32.1467C17.3203 28.0732 20.0239 24.0548 22.5345 19.9169C23.7943 17.8388 25.1829 15.8894 26.6083 13.94C28.6039 11.2182 30.4339 8.38605 32.2823 5.5631C32.7237 4.90104 33.0088 4.11943 33.2939 3.36542C33.7905 2.07808 33.7629 2.06894 35.3814 1.23217C36.5493 1.86664 37.0919 2.84129 37.1103 4.22978C37.1287 6.00446 36.9356 7.71479 36.5585 9.46189C36.1079 11.5308 35.8228 13.6733 35.7952 15.7974C35.7033 23.1445 35.7493 30.5007 35.7493 37.8477C35.7493 38.2799 35.8136 38.7029 35.8412 39.0431C36.2366 39.3466 36.4941 39.2362 36.7148 39.0155C37.662 38.0316 38.0207 36.7351 38.5173 35.5121C38.738 34.9696 38.8851 34.3995 39.0507 33.8294C39.2162 33.2501 39.5105 32.7719 39.9611 32.3581C41.175 31.2639 42.067 29.9214 42.7751 28.4501C44.2097 25.4341 46.1316 22.7767 48.5778 20.4779C49.525 19.5859 50.2791 18.4549 51.0148 17.3607C52.1275 15.7055 53.3966 14.1975 54.8495 12.8366C56.4129 11.3745 57.8751 9.81134 58.9418 7.9447C60.2936 5.57232 62.1696 3.57695 63.6962 1.3333C64.0456 0.818365 64.533 0.533309 65.1584 0.468942C66.2527 0.358599 67.3378 0.21149 68.4322 0.0827565C68.5793 0.0643659 68.7265 0.0459574 68.8644 0.064348C70.0875 0.239058 71.3106 0.422979 72.5428 0.597689C72.9383 1.06665 72.5612 1.43442 72.3313 1.76545C70.3266 4.75391 68.3126 7.74241 66.2711 10.7033C64.5238 13.2412 62.7306 15.7515 60.9833 18.2894C58.3533 22.0962 55.7692 25.9398 53.1391 29.7467C50.5918 33.434 47.9893 37.0753 45.4327 40.7626C43.2165 43.9626 41.037 47.1901 38.8391 50.3993C38.5908 50.7671 38.3334 51.1257 38.0851 51.4843C37.7172 51.9992 37.2114 52.2475 36.5953 52.3027C34.3331 52.4958 32.0708 52.6521 29.8086 52.3211C28.7694 52.174 28.4935 51.9532 28.4567 50.9509C28.4016 49.1855 28.3924 47.42 28.3924 45.6637C28.3924 39.7879 28.4108 33.9121 28.4108 28.0271C28.4108 27.3743 28.3464 26.7214 28.3004 25.8479C27.8958 26.0961 27.5831 26.1789 27.482 26.3812C27.0773 27.1628 26.7279 27.972 26.3968 28.7904C26.029 29.7007 25.5692 30.5007 24.5944 30.9053C23.8127 31.2271 23.3253 31.88 22.8655 32.5513C20.3734 36.1926 17.872 39.8155 15.3799 43.4476C15.0856 43.8706 14.8097 44.3028 14.589 44.7718C13.9913 46.0407 13.2832 47.1625 12.1889 48.128C11.2233 48.9832 10.5519 50.1969 9.83465 51.3004C9.39324 51.9808 8.84147 52.3487 8.05061 52.413C7.6092 52.4498 7.17698 52.5694 6.74476 52.551C4.90554 52.4866 3.07552 52.3854 1.2455 52.2843C1.03399 52.2751 0.822476 52.1832 0.491416 52.0912C0.353475 51.659 0.141965 51.1901 0.077592 50.7027C-0.00517287 50.0498 -0.00517279 49.3786 0.0040233 48.7257C0.0224155 44.2476 0.0591998 39.7603 0.077592 35.2822C0.0959842 30.1329 0.0959843 24.9927 0.123573 19.8434C0.151161 13.894 0.197141 7.93547 0.243122 1.98613C0.243122 1.48039 0.316691 0.983859 0.353475 0.450534C0.69373 0.330995 0.969613 0.156269 1.2363 0.147074C2.77205 0.137879 4.3078 0.165509 5.84355 0.193095C5.98149 0.193095 6.11023 0.312589 6.23898 0.376956V0.330991H6.79074V0.376956L6.74476 0.38616Z" fill="#0B1237"/>
<path d="M106.707 18.8233C106.119 20.8738 105.484 22.8968 105.42 25.0668C105.273 29.9955 106.349 34.5655 109.347 38.5379C111.701 41.6551 114.671 43.8895 118.469 45.1493C121.292 46.078 124.097 46.0688 126.957 45.9401C127.748 45.9033 128.539 45.6274 129.32 45.4435C129.881 45.3148 130.442 45.1677 131.058 45.0206C132.456 46.593 133.79 48.1194 134.59 50.0688C133.946 50.9791 132.962 51.1538 132.088 51.4297C129.697 52.1745 127.205 52.386 124.741 52.6802C124.446 52.717 124.152 52.717 123.858 52.6802C120.943 52.3308 118.037 51.9262 115.25 50.9423C113.439 50.3079 111.765 49.4067 110.156 48.3585C105.797 45.5171 102.394 41.8206 100.362 37.0207C98.348 32.2667 97.5847 27.3105 98.5411 22.1427C99.1664 18.7773 100.233 15.6141 102.137 12.7452C102.689 11.0624 104.004 9.96817 105.19 8.77279C106.018 7.93602 106.882 7.13603 107.71 6.29926C108.969 5.01192 110.542 4.17515 112.124 3.43034C114.984 2.06944 117.926 0.938421 121.163 0.846469C122.258 0.818883 123.343 0.515479 124.428 0.543065C128.75 0.635018 132.815 1.62806 136.687 3.66022C139.004 4.874 141.11 6.36366 142.885 8.17513C145.027 10.3636 146.848 12.8831 148.154 15.7244C149.644 18.9611 150.499 22.3726 151.18 25.8392C151.235 26.1243 151.317 26.4369 151.272 26.7128C150.931 28.892 151.235 31.1173 150.665 33.2782C150.232 34.9058 150.113 36.6069 149.46 38.1885C148.954 39.4391 148.292 40.5333 147.28 41.4436C146.195 42.4183 145.211 43.4941 144.181 44.5148C144.512 45.8205 145.487 46.5838 146.048 47.5953C147.529 48.6251 148.025 50.271 148.733 51.8802C148.191 52.9009 147.198 53.1308 146.186 53.2779C145.763 53.3423 145.303 53.2503 144.871 53.2043C143.777 53.0848 142.692 52.9285 141.588 52.8366C140.475 52.7446 139.62 52.248 139.05 51.3101C138.746 50.8136 138.406 50.2895 138.277 49.7378C137.79 47.678 136.585 46.0045 135.5 44.2574C135.27 43.8896 135.05 43.5217 134.82 43.1447C135.316 42.3907 135.914 41.839 136.558 41.3792C137.716 40.5609 138.7 39.6229 139.353 38.3264C139.749 37.554 140.374 36.8919 140.816 36.1379C142.581 33.0667 143.363 29.738 143.179 26.207C142.977 22.2715 142.204 18.4462 139.905 15.1635C136.539 10.336 131.96 7.45791 125.991 6.86942C121.651 6.44643 117.678 7.37512 113.972 9.64635C111.397 11.2279 109.503 13.4348 108.077 16.0647C107.59 16.9658 107.13 17.8853 106.652 18.7957L106.514 18.86L106.689 18.8324L106.707 18.8233Z" fill="#0B1237"/>
<path d="M48.4115 52.0278C49.184 50.7405 49.7817 49.6554 50.4714 48.6348C51.4186 47.2463 52.467 45.9314 53.4326 44.5521C54.3982 43.1728 55.2902 41.7475 56.2282 40.3498C56.8443 39.4395 57.4697 38.5292 58.1042 37.6372C59.8055 35.2464 61.5159 32.8741 63.208 30.4833C64.0908 29.2236 64.9001 27.927 65.7737 26.6581C66.8129 25.15 67.9164 23.688 68.9464 22.18C70.5557 19.8168 72.1282 17.426 73.7192 15.0536C74.2065 14.3272 74.7491 13.6284 75.2457 12.902C77.3976 9.75718 79.5403 6.60319 81.7014 3.46761C82.3267 2.56647 83.0348 1.72049 83.8165 0.69982C84.3498 0.653843 84.9936 0.552673 85.6465 0.561868C86.3914 0.571063 87.0995 0.598663 87.7892 0.230852C88.4789 -0.136959 89.2238 0.0101495 89.9503 0.157274C90.4469 0.258422 90.9342 0.47914 91.44 0.534311C92.7459 0.67224 92.8746 1.13201 92.9574 2.26303C93.0218 3.06302 93.0034 3.8814 93.0034 4.68139C93.0034 5.93194 93.0218 7.17326 93.0034 8.42381C92.985 9.2238 92.9206 10.033 92.8746 10.833C92.8562 11.1273 92.7735 11.4215 92.7919 11.7065C93.1505 16.2398 92.9666 20.8007 93.2792 25.3431C93.3344 26.1431 93.316 26.9615 93.2701 27.7615C92.8654 34.3637 92.8562 40.9843 92.8746 47.5957C92.8746 48.9198 92.7919 50.2347 92.6723 51.5589C92.6079 52.2393 92.1297 52.6439 91.4768 52.6255C90.0882 52.6071 88.6904 52.5887 87.311 52.46C86.2166 52.3588 85.904 51.991 85.8396 50.9152C85.766 49.7474 85.7384 48.5704 85.7384 47.3934C85.7384 41.5912 85.7384 35.7889 85.7568 29.9775C85.7752 24.4696 85.7936 18.9524 85.812 13.4445C85.812 12.9295 85.8396 12.4054 85.7752 11.8997C85.7293 11.5686 85.6373 11.0996 85.3982 10.9617C84.8924 10.6583 84.6073 11.164 84.3682 11.5043C82.5474 14.1709 80.7082 16.8375 78.9425 19.5409C76.0826 23.8995 73.3053 28.3224 70.427 32.6718C67.7877 36.6534 65.0564 40.5705 62.3804 44.5153C60.8538 46.7589 59.3365 49.0118 57.8467 51.283C57.4053 51.9635 56.8351 52.3496 56.0443 52.3404C55.0971 52.3404 54.389 52.7358 53.7176 53.3887C52.7796 54.3082 51.5658 54.3726 50.8485 53.3887C50.2599 52.5703 49.4599 52.4048 48.4299 52.0278H48.4115Z" fill="#0B1237"/>
<path d="M190.317 0.827753C192 0.910511 193.526 0.974877 195.135 1.05763C195.227 1.59096 195.356 2.01393 195.347 2.42772C195.329 5.48975 195.255 8.55177 195.273 11.623C195.283 13.6643 195.411 15.7149 195.494 17.7195C196.533 18.3999 197.655 17.8298 198.731 18.3723C198.979 18.7309 199.356 19.1815 199.632 19.6872C200.478 21.186 199.816 22.5194 198.143 22.7217C197.71 22.7769 197.26 22.7217 196.828 22.7861C196.487 22.8412 196.165 23.0159 195.761 23.163C195.788 23.586 195.825 23.9354 195.844 24.294C195.862 24.7998 195.936 25.3239 195.871 25.8205C195.742 26.8136 195.255 27.2273 194.253 27.2181C193.517 27.2181 192.781 27.1722 192.064 27.0526C191.439 26.9515 191.025 26.5193 190.951 25.8573C190.887 25.2044 190.868 24.5424 190.786 23.8803C190.731 23.4022 190.372 23.0619 189.894 23.0711C189.011 23.0895 188.137 23.1538 187.264 23.2182C184.689 23.4113 182.141 23.1723 179.612 22.7125C178.435 22.501 177.884 21.7838 177.69 20.6343C177.47 19.2734 177.47 18.0321 178.518 16.9378C179.272 16.147 179.925 15.2551 180.615 14.3999C180.937 14.0045 181.259 13.6 181.553 13.1862C183.502 10.4368 185.434 7.6874 187.383 4.93801C188.312 3.62309 189.259 2.32658 190.335 0.827753H190.317ZM190.804 18.0321C191.052 17.6735 191.117 17.6183 191.126 17.554C191.485 14.4184 191.383 11.2735 191.181 8.13795C191.172 7.98163 190.924 7.75178 190.758 7.715C190.583 7.67822 190.289 7.77014 190.179 7.90807C189.057 9.35172 187.852 10.7494 186.905 12.3034C186.105 13.6184 185.332 14.9333 184.302 16.0827C183.889 16.5516 183.401 17.0574 183.53 17.8942C183.797 17.9861 184.054 18.1424 184.321 18.1424C186.51 18.1424 188.698 18.2803 190.813 18.0321H190.804Z" fill="#0B1237"/>
<path d="M160.89 8.50663C159.741 9.28823 158.61 9.05835 157.479 8.62617C157.01 8.44227 156.807 8.04686 156.789 7.5871C156.724 5.96873 157.313 4.56183 158.371 3.36645C159.309 2.30899 160.412 1.46306 161.792 1.04928C164.55 0.221703 167.263 0.120537 169.921 1.49063C172.836 2.98946 174.077 6.85145 173.691 9.11349C173.204 11.9732 171.87 14.364 170.114 16.5709C168.652 18.41 167.033 20.111 165.194 21.5915C164.743 21.9501 164.228 22.2811 164.173 22.934C164.33 23.3846 164.716 23.403 165.075 23.4122C167.061 23.4306 169.047 23.4305 171.024 23.4397C171.76 23.4397 172.496 23.4489 173.222 23.5133C173.774 23.5593 174.179 23.9363 174.261 24.488C174.344 25.0673 174.409 25.6558 174.381 26.2443C174.344 27.3753 173.461 28.4604 172.33 28.4604C170.445 28.4512 168.551 28.865 166.656 28.1294C165.442 27.6604 164.091 27.6144 162.757 27.5776C160.863 27.5224 158.977 27.2466 157.184 27.0719C156.458 26.0972 156.522 25.1501 156.651 24.1938C156.761 23.311 157.396 22.7685 158.021 22.272C160.798 20.0835 163.456 17.7847 165.875 15.2008C167.144 13.8399 168.082 12.2767 168.707 10.5296C169.433 8.52503 168.918 6.7871 167.245 5.44459C165.286 3.8722 162.674 4.44232 161.552 6.72274C161.267 7.31124 161.093 7.95494 160.881 8.53424L160.89 8.50663Z" fill="#0B1237"/>
</svg>
