<svg viewBox="0 0 111 32" fill="none" xmlns="http://www.w3.org/2000/svg">
<path d="M37.9572 0.758641L21.3591 25.7703L21.3172 25.7704L21.2605 0.787018L4.74189 25.7986L4.619 25.7988L4.56236 0.815398L0.090332 0.822998L0.160095 31.591L5.65721 31.5817L16.8216 15.3986L16.8582 31.5626L22.3554 31.5533L43.4977 0.749224L37.9572 0.758641Z" fill="#000CA0"/>
<path d="M28.3931 31.5353L33.888 31.526L50.445 6.55865L50.4869 6.55858L50.5435 31.4977L55.0149 31.4901L54.9452 0.76872L49.4489 0.778062L28.3931 31.5353Z" fill="#000CA0"/>
<path d="M88.7928 16.1239C88.7879 13.9632 88.3877 11.9469 87.5907 10.0767C86.7907 8.20497 85.6946 6.57201 84.2963 5.17932C82.898 3.78513 81.2531 2.68955 79.3661 1.88509C77.4776 1.08063 75.4521 0.680982 73.2912 0.684654C71.1588 0.688279 69.1487 1.08729 67.2638 1.88468C65.3774 2.68057 63.739 3.77723 62.347 5.17467C60.9566 6.5721 59.8588 8.20879 59.0569 10.0832C58.2534 11.9577 57.8564 13.9738 57.8613 16.136C57.866 18.2414 58.2736 20.2247 59.0841 22.0814C59.8945 23.9396 61.0056 25.565 62.4174 26.9577C63.8292 28.3504 65.4741 29.4489 67.3476 30.2504C69.2226 31.0534 71.2271 31.4531 73.3595 31.4495C75.6852 31.4455 77.8301 30.9908 79.7972 30.0854L77.4518 26.7254C76.2497 27.2489 74.8821 27.5104 73.3506 27.513C71.0263 27.517 68.9945 26.939 67.2565 25.7792C65.5156 24.6193 64.1782 22.9883 63.2443 20.886C62.9429 20.1193 62.7028 19.3345 62.5212 18.5272C62.3425 17.7213 62.2523 16.9213 62.2505 16.1286C62.2486 15.2805 62.3351 14.4547 62.5101 13.6482C62.6881 12.8402 62.9247 12.0816 63.2228 11.3693C64.1215 9.23398 65.444 7.57743 67.1916 6.39817C68.9393 5.21891 70.9759 4.62805 73.3002 4.6241C74.9141 4.62135 76.3984 4.92452 77.7544 5.53808C79.109 6.15165 80.2798 6.9828 81.2667 8.03604C82.2536 9.08629 83.0237 10.3077 83.5738 11.7019C84.1239 13.096 84.3985 14.5865 84.4021 16.1719C84.4052 17.513 84.1774 18.8395 83.7158 20.1529C83.2807 21.2476 82.7913 22.164 82.2445 22.9051C81.8652 23.5067 81.4199 24.0394 80.9144 24.5062C80.4105 24.9716 79.8839 25.3966 79.3378 25.7796L80.8607 27.9093L81.6439 29.0154L83.3308 31.4325L88.2535 31.4242L84.7146 26.4268C85.9958 25.085 86.9963 23.5294 87.7176 21.766C88.4389 20.0011 88.7973 18.1214 88.7928 16.1239Z" fill="#000CA0"/>
<path d="M97.2183 13.5437C97.7373 13.1113 98.2682 12.6534 98.8036 12.1745C99.5274 11.5275 100.209 10.8252 100.831 10.084C101.458 9.33674 101.972 8.54926 102.36 7.74101C102.754 6.91927 102.952 6.0619 102.95 5.19588C102.947 3.79647 102.488 2.63907 101.587 1.7566C100.685 0.874129 99.4183 0.428289 97.8194 0.431007C96.8365 0.432678 95.9363 0.627489 95.146 1.0094C94.3452 1.39583 93.6962 1.98576 93.2155 2.7642C92.7363 3.53964 92.4793 4.51397 92.4519 5.66172L92.4464 5.90595L92.6907 5.90554L95.3699 5.90099L95.6082 5.90058L95.6076 5.66235C95.6061 4.98512 95.7921 4.40196 96.1581 3.92788C96.5167 3.46579 97.0406 3.24015 97.7629 3.23893C98.4656 3.23773 98.9501 3.43768 99.2447 3.84921C99.5529 4.2817 99.7099 4.78636 99.7112 5.35272C99.7125 5.96852 99.5177 6.61612 99.1326 7.27603C98.7356 7.95543 98.1947 8.66505 97.5266 9.38687C96.8524 10.1132 96.0749 10.8562 95.2165 11.5978C94.3431 12.3514 93.4398 13.1156 92.5349 13.8678L92.4497 13.9399L92.4499 14.0522L92.4545 16.0614L92.455 16.2997L92.6933 16.2993L103.107 16.2816L103.346 16.2812L103.345 16.0429L103.34 13.7745L103.339 13.5363L103.101 13.5367L97.2183 13.5467L97.2183 13.5437Z" fill="#000CA0"/>
<path d="M110.604 0.617322L107.906 0.621908L107.781 0.62212L107.71 0.725618L104.345 5.62601L104.088 5.9995L104.541 5.99873L106.987 5.99458L107.113 5.99436L107.183 5.89087L108.106 4.53191L108.132 15.8164L108.132 16.0547L108.369 16.0542L110.639 16.0504L110.875 16.05L110.875 15.8118L110.841 0.855135L110.84 0.616919L110.604 0.617322Z" fill="#000CA0"/>
</svg>
