<svg viewBox="0 0 260 118" fill="none" xmlns="http://www.w3.org/2000/svg">
<g clip-path="url(#clip0)">
<path d="M2.7789 81.89L10.3567 9.7918C10.8686 4.92177 15.2358 1.39001 20.1121 1.90254L249.319 25.9932C254.196 26.5057 257.733 30.8683 257.221 35.7383L252.815 77.6641C252.303 82.5341 247.936 86.0659 243.059 85.5534L216.25 82.7355C211.373 82.223 207.006 85.7548 206.494 90.6248L205.177 103.16C204.665 108.03 200.298 111.562 195.421 111.049L10.6812 91.6322C5.80448 91.1226 2.26704 86.76 2.7789 81.89Z" fill="#EBEBEB" stroke="#000CA0" stroke-width="2" stroke-linecap="round" stroke-linejoin="round"/>
<path d="M98.8115 25.0319L60.9573 70.5917L60.8749 70.583L66.0247 21.5859L28.3265 67.162L28.0852 67.1367L33.235 18.1395L24.4534 17.2166L18.1112 77.5585L28.9057 78.693L54.2328 49.3041L50.9009 81.0048L61.6955 82.1394L109.691 26.1754L98.8115 25.0319Z" fill="#000CA0"/>
<path d="M73.5408 83.3842L84.3324 84.5184L122.102 39.0299L122.184 39.0386L117.043 87.9564L125.824 88.8794L132.158 28.6197L121.363 27.4852L73.5408 83.3842Z" fill="#000CA0"/>
<path d="M195.361 65.8458C195.807 61.6076 195.446 57.57 194.275 53.7355C193.098 49.8974 191.29 46.4654 188.837 43.4412C186.385 40.414 183.387 37.9206 179.851 35.9474C176.312 33.9738 172.419 32.7653 168.176 32.3193C163.988 31.8791 159.957 32.24 156.088 33.4082C152.217 34.5733 148.769 36.3801 145.742 38.8284C142.717 41.277 140.217 44.2562 138.248 47.7636C136.275 51.2707 135.071 55.1409 134.625 59.3819C134.191 63.5113 134.574 67.4858 135.774 71.2967C136.974 75.1105 138.813 78.5309 141.292 81.5579C143.771 84.5849 146.769 87.0841 150.279 89.0488C153.791 91.0166 157.643 92.2208 161.831 92.6609C166.398 93.141 170.705 92.6992 174.758 91.3364L170.861 84.2556C168.39 85.03 165.65 85.2561 162.642 84.94C158.078 84.4602 154.21 82.9008 151.042 80.2619C147.868 77.6224 145.585 74.1435 144.194 69.8253C143.764 68.2586 143.458 66.6694 143.271 65.0481C143.09 63.4304 143.082 61.8427 143.245 60.2879C143.42 58.6244 143.764 57.0232 144.277 55.4785C144.797 53.9315 145.421 52.4935 146.156 51.1593C148.371 47.1606 151.316 44.1896 154.996 42.2437C158.676 40.2978 162.799 39.5663 167.364 40.0461C170.533 40.3792 173.384 41.285 175.917 42.7726C178.448 44.2598 180.571 46.1352 182.287 48.4075C184.004 50.674 185.259 53.2306 186.045 56.0798C186.832 58.929 187.057 61.9093 186.73 65.0188C186.454 67.6493 185.727 70.2027 184.544 72.6815C183.459 74.7367 182.305 76.431 181.076 77.7697C180.204 78.8697 179.218 79.8209 178.127 80.6304C177.039 81.4372 175.916 82.1601 174.763 82.7967L177.305 87.2923L178.61 89.6254L181.413 94.7191L191.08 95.7352L185.184 85.1935C187.982 82.8311 190.274 79.9905 192.062 76.6838C193.85 73.3743 194.949 69.7635 195.361 65.8458Z" fill="#000CA0"/>
<path d="M212.425 62.561C213.535 61.8219 214.674 61.0352 215.826 60.2084C217.384 59.0914 218.87 57.857 220.247 56.5337C221.637 55.2 222.811 53.7634 223.743 52.2596C224.689 50.7307 225.26 49.091 225.439 47.3922C225.727 44.6471 225.069 42.2809 223.485 40.3613C221.902 38.4416 219.507 37.3015 216.367 36.9714C214.437 36.7685 212.628 36.9618 210.996 37.545C209.342 38.1348 207.943 39.1557 206.835 40.5814C205.731 42.0016 205.021 43.8585 204.726 46.1037L204.664 46.5815L205.143 46.6319L210.405 47.185L210.873 47.2341L210.922 46.7668C211.062 45.4384 211.55 44.3337 212.368 43.4808C213.17 42.6498 214.246 42.3172 215.665 42.4663C217.045 42.6113 217.954 43.1051 218.446 43.9739C218.96 44.8867 219.162 45.9094 219.045 47.0203C218.918 48.2283 218.399 49.4574 217.504 50.6708C216.581 51.92 215.37 53.1982 213.906 54.4736C212.429 55.7566 210.746 57.0506 208.904 58.3249C207.03 59.6197 205.096 60.9289 203.16 62.2142L202.978 62.3377L202.955 62.5581L202.54 66.4994L202.491 66.9667L202.959 67.0159L223.412 69.1656L223.88 69.2148L223.929 68.7474L224.397 64.2977L224.446 63.8304L223.978 63.7812L212.424 62.5669L212.425 62.561Z" fill="#000CA0"/>
<path d="M241.424 40.021L236.124 39.4639L235.88 39.4383L235.717 39.6262L228.078 48.5313L227.494 49.2099L228.383 49.3033L233.189 49.8084L233.436 49.8344L233.596 49.6461L235.694 47.1745L233.368 69.3115L233.319 69.7788L233.784 69.8277L238.242 70.2963L238.707 70.3452L238.756 69.8779L241.84 40.5372L241.889 40.0699L241.424 40.021Z" fill="#000CA0"/>
</g>
<defs>
<clipPath id="clip0">
<rect width="250" height="92" fill="white" transform="translate(10.4932) rotate(6)"/>
</clipPath>
</defs>
</svg>
