<svg viewBox="0 0 44 56" fill="none" xmlns="http://www.w3.org/2000/svg">
<g clip-path="url(#clip0)">
<path d="M40.3653 48.8737L9.36704 54.7301C7.76193 55.0347 6.20909 53.9901 5.90467 52.4003L4.63165 45.8008C4.32416 44.208 5.37886 42.6731 6.98397 42.3686L11.4026 41.5341C11.4026 41.5341 13.0293 40.3372 11.4026 39.6947H9.02264C4.86842 39.6916 1.48601 36.3386 1.47986 32.2211V28.9472C1.47986 27.86 1.89805 26.8702 2.58068 26.1241V20.2433C1.89805 19.4971 1.47986 18.5074 1.47986 17.4232V15.2365C1.48908 7.51324 7.8388 1.2274 15.6399 1.21826H25.5596C33.3576 1.2274 39.7073 7.51324 39.7135 15.2396V17.4232C39.7135 18.5074 39.2983 19.4971 38.6126 20.2433V26.1241C39.2983 26.8702 39.7135 27.86 39.7135 28.9472V32.2241C39.7135 33.7986 39.2153 35.2605 38.3697 36.4665C39.8303 36.3812 41.1648 37.3801 41.4477 38.8419L42.7177 45.4415C43.0251 47.0342 41.9704 48.5691 40.3653 48.8737Z" fill="#EBEBEB"/>
<path d="M25.5597 1.21819C33.3577 1.22732 39.7074 7.51316 39.7135 15.2395V17.4231C39.7135 18.5073 39.2984 19.4971 38.6127 20.2432V26.124C39.2984 26.8701 39.7135 27.8599 39.7135 28.9471V32.2241C39.7135 33.7986 39.2154 35.2604 38.3698 36.4664C38.4282 36.4633 38.4866 36.4603 38.542 36.4603C39.9349 36.4603 41.1741 37.4379 41.4478 38.8419L42.7177 45.4414C43.0252 47.0342 41.9705 48.5691 40.3654 48.8736L9.36714 54.73C9.17957 54.7666 8.992 54.7818 8.80751 54.7818C7.41457 54.7818 6.1723 53.8042 5.90478 52.4003L4.63176 45.8007C4.32427 44.208 5.37897 42.673 6.98408 42.3685L11.4027 41.534C11.4027 41.534 13.0294 40.3372 11.4027 39.6946H9.02275C4.86853 39.6915 1.48612 36.3385 1.47997 32.221V28.9471C1.47997 27.8599 1.89816 26.8701 2.58079 26.124V20.2432C1.89816 19.4971 1.47997 18.5073 1.47997 17.4231V15.2365C1.48919 7.51316 7.8389 1.22732 15.64 1.21819H25.5597ZM25.5597 0H15.64C7.16242 0.00913639 0.259225 6.84316 0.25 15.2365V17.4231C0.25 18.6047 0.63744 19.7437 1.35082 20.6787V25.6854C0.63744 26.6234 0.25 27.7655 0.25 28.9471V32.221C0.25615 36.7648 3.79846 40.5077 8.28784 40.8823L6.75346 41.1716C4.48417 41.601 2.98975 43.7816 3.42332 46.0291L4.69634 52.6287C5.07148 54.5808 6.79958 56 8.80751 56C9.07195 56 9.33639 55.9756 9.59776 55.9269L40.596 50.0705C42.8653 49.6411 44.3597 47.4605 43.9262 45.213L42.6562 38.6134C42.3918 37.2491 41.4662 36.1436 40.2486 35.6045C40.7067 34.5417 40.9435 33.3966 40.9435 32.2241V28.9471C40.9435 27.7625 40.5561 26.6204 39.8427 25.6854V20.6817C40.5561 19.7468 40.9435 18.6078 40.9435 17.4231V15.2395C40.9374 6.8462 34.0372 0.00913639 25.5597 0Z" fill="#000CA0"/>
<path d="M12.9272 44.5368L15.1873 44.1104L15.4026 45.2312L15.7808 45.1611L15.9253 45.9073L16.3004 45.8372L16.5157 46.9579L17.269 46.8148L17.1245 46.0687L17.4997 45.9986L17.2844 44.8779L17.6596 44.8078L17.515 44.0617L17.8933 43.9917L17.8225 43.6171L19.7075 43.2607L19.7782 43.6353L19.4 43.7054L20.264 48.1822L20.6422 48.1122L20.713 48.4837L18.0747 48.9832L18.0039 48.6116L18.7573 48.4685L18.1116 45.1093L17.7334 45.1794L17.8779 45.9255L17.5027 45.9956L17.718 47.1163L17.3398 47.1863L17.4843 47.9325L17.1061 48.0025L17.2506 48.7487L16.8724 48.8187L16.9431 49.1903L16.568 49.2603L16.3527 48.1396L15.9745 48.2096L15.83 47.4635L15.4518 47.5335L15.2365 46.4128L14.8614 46.4828L14.7169 45.7367L14.3386 45.8068L14.9844 49.1659L15.7377 49.0228L15.8085 49.3943L13.9235 49.7506L13.8528 49.3791L14.231 49.309L13.367 44.8322L12.9887 44.9022L12.9272 44.5368ZM17.967 44.3571L18.0378 44.7317L18.416 44.6617L18.3453 44.2901L17.967 44.3571Z" fill="#000CA0"/>
<path d="M21.8628 46.3274L22.0073 47.0736L22.3855 47.0035L22.4563 47.3781L23.2096 47.235L23.2803 47.6096L23.6586 47.5395L23.5878 47.168L24.3412 47.0249L24.2705 46.6503L24.6487 46.5802L24.7194 46.9548L24.3412 47.0249L24.4119 47.3995L24.0368 47.4695L24.1075 47.841L22.2226 48.1974L22.1518 47.8258L21.7767 47.8959L21.706 47.5213L21.3278 47.5913L21.257 47.2198L20.8788 47.2898L20.6636 46.1691L21.0387 46.099L20.8942 45.3529L21.2693 45.2829L21.1986 44.9083L21.5738 44.8382L21.503 44.4667L23.388 44.1104L23.4587 44.4819L23.8338 44.4119L23.9783 45.158L24.3566 45.0879L24.5011 45.8341L21.8628 46.3274ZM23.2988 45.6696L23.0835 44.5489L21.952 44.7621L22.0227 45.1367L21.6445 45.2067L21.789 45.9529L23.2988 45.6696Z" fill="#000CA0"/>
<path d="M27.1238 47.2655L25.2389 47.6218L25.1682 47.2503L25.5464 47.1802L25.0421 44.5672L24.667 44.6373L24.5963 44.2627L24.9745 44.1926L24.9037 43.8211L26.0353 43.6079L26.106 43.9795L26.4843 43.9094L26.4135 43.5379L27.9202 43.2546L27.991 43.6262L28.3692 43.5561L28.9442 46.5407L29.6975 46.3976L29.7683 46.7691L27.5082 47.1955L27.4375 46.8239L27.8157 46.7539L27.3114 44.1409L26.1798 44.3541L26.6841 46.9671L27.0623 46.897L27.1238 47.2655ZM26.0999 43.9795L25.7217 44.0495L25.7924 44.4241L26.1675 44.3541L26.0999 43.9795Z" fill="#000CA0"/>
<path d="M31.503 45.6668L31.8782 45.5967L31.9489 45.9713L32.3271 45.9013L32.3978 46.2728L30.8911 46.5591L30.8204 46.1876L30.4453 46.2576L29.941 43.6446L29.5658 43.7146L29.4951 43.34L29.8733 43.27L29.8026 42.8985L30.9342 42.6853L31.503 45.6668ZM34.661 45.8434L32.7761 46.1997L32.7053 45.8282L32.3271 45.8982L32.2564 45.5236L32.6346 45.4536L32.1303 42.8406L32.5055 42.7705L32.4347 42.399L33.1881 42.2559L33.8338 45.615L34.5872 45.4719L34.661 45.8434ZM32.7053 45.8251L33.0805 45.7551L33.0098 45.3805L32.6346 45.4505L32.7053 45.8251Z" fill="#000CA0"/>
<path d="M35.695 28.9472V32.2211C35.6919 34.3285 33.9669 36.0401 31.839 36.0401H8.69714C6.56929 36.037 4.84119 34.3285 4.84119 32.2211V28.9472C4.84119 28.6457 5.08718 28.4021 5.3916 28.4021H35.1446C35.449 28.4021 35.695 28.6457 35.695 28.9472ZM35.695 15.2396V17.4232C35.695 17.7247 35.449 17.9683 35.1446 17.9683H5.3916C5.08718 17.9683 4.84119 17.7247 4.84119 17.4232V15.2396C4.84734 9.51714 9.53045 4.87889 15.3082 4.8728H25.2249C31.0057 4.87889 35.6888 9.51714 35.695 15.2396Z" fill="#F9EB46"/>
<path d="M31.839 36.6491H8.69713C6.23412 36.6461 4.22927 34.6605 4.2262 32.221V28.9472C4.2262 28.3107 4.74893 27.7929 5.39159 27.7929H35.1445C35.7872 27.7929 36.3099 28.3107 36.3099 28.9472V32.221C36.3069 34.6605 34.302 36.6461 31.839 36.6491ZM5.45617 29.0111V32.221C5.45924 33.9905 6.91368 35.431 8.69713 35.431H31.839C33.6255 35.4279 35.08 33.9874 35.08 32.221V29.0111H5.45617ZM35.1445 18.5774H5.39159C4.74893 18.5774 4.2262 18.0596 4.2262 17.4231V15.2395C4.23235 9.19428 9.2045 4.26976 15.3082 4.26367H25.2279C31.3316 4.26976 36.3038 9.19428 36.3099 15.2395V17.4231C36.3099 18.0596 35.7872 18.5774 35.1445 18.5774ZM5.45617 17.3592H35.08V15.2395C35.0738 9.86428 30.6521 5.48795 25.2248 5.48186H15.3082C9.88098 5.48795 5.46232 9.86733 5.45617 15.2426V17.3592Z" fill="#000CA0"/>
<path d="M6.49237 22.5974H8.35577L9.30592 24.4795C9.42892 24.7231 9.71181 24.8388 9.97318 24.7536L16.5012 22.5974H34.0437C34.3481 22.5974 34.5941 22.3537 34.5941 22.0522V19.8686C34.5941 19.5671 34.3481 19.3235 34.0437 19.3235H6.49237C6.18795 19.3235 5.94196 19.5671 5.94196 19.8686V22.0522C5.94196 22.3537 6.18795 22.5974 6.49237 22.5974Z" fill="#2FF0CC"/>
<path d="M5.94196 26.4591C5.94196 26.7606 6.18795 27.0042 6.49237 27.0042H34.0406C34.345 27.0042 34.591 26.7606 34.591 26.4591V24.2755C34.591 23.974 34.345 23.7303 34.0406 23.7303H16.6796L10.3237 25.8287C9.54269 26.0875 8.69094 25.7373 8.32195 25.0064L7.67621 23.7273H6.49237C6.18795 23.7273 5.94196 23.9709 5.94196 24.2724V26.4591Z" fill="#FF58D1"/>
<path d="M10.6803 11.448C10.6803 11.1465 10.4343 10.9028 10.1299 10.9028C9.82546 10.9028 9.57947 11.1465 9.57947 11.448V12.5382C9.57947 12.8397 9.82546 13.0834 10.1299 13.0834C10.4343 13.0834 10.6803 12.8397 10.6803 12.5382V11.448Z" fill="#000CA0"/>
<path d="M13.9858 14.7217C13.9858 14.4202 13.7398 14.1765 13.4354 14.1765C13.1309 14.1765 12.8849 14.4202 12.8849 14.7217V15.8119C12.8849 16.1134 13.1309 16.3571 13.4354 16.3571C13.7398 16.3571 13.9858 16.1134 13.9858 15.8119V14.7217Z" fill="#000CA0"/>
<path d="M13.9858 8.17404C13.9858 7.87254 13.7398 7.62891 13.4354 7.62891C13.1309 7.62891 12.8849 7.87254 12.8849 8.17404V9.26432C12.8849 9.56582 13.1309 9.80946 13.4354 9.80946C13.7398 9.80946 13.9858 9.56582 13.9858 9.26432V8.17404Z" fill="#000CA0"/>
<path d="M17.2914 11.448C17.2914 11.1465 17.0454 10.9028 16.741 10.9028C16.4365 10.9028 16.1906 11.1465 16.1906 11.448V12.5382C16.1906 12.8397 16.4365 13.0834 16.741 13.0834C17.0454 13.0834 17.2914 12.8397 17.2914 12.5382V11.448Z" fill="#000CA0"/>
<path d="M20.5969 14.7217C20.5969 14.4202 20.3509 14.1765 20.0464 14.1765C19.742 14.1765 19.496 14.4202 19.496 14.7217V15.8119C19.496 16.1134 19.742 16.3571 20.0464 16.3571C20.3509 16.3571 20.5969 16.1134 20.5969 15.8119V14.7217Z" fill="#000CA0"/>
<path d="M20.5969 8.17404C20.5969 7.87254 20.3509 7.62891 20.0464 7.62891C19.742 7.62891 19.496 7.87254 19.496 8.17404V9.26432C19.496 9.56582 19.742 9.80946 20.0464 9.80946C20.3509 9.80946 20.5969 9.56582 20.5969 9.26432V8.17404Z" fill="#000CA0"/>
<path d="M23.9023 11.448C23.9023 11.1465 23.6563 10.9028 23.3519 10.9028C23.0475 10.9028 22.8015 11.1465 22.8015 11.448V12.5382C22.8015 12.8397 23.0475 13.0834 23.3519 13.0834C23.6563 13.0834 23.9023 12.8397 23.9023 12.5382V11.448Z" fill="#000CA0"/>
<path d="M27.2079 14.7217C27.2079 14.4202 26.9619 14.1765 26.6575 14.1765C26.3531 14.1765 26.1071 14.4202 26.1071 14.7217V15.8119C26.1071 16.1134 26.3531 16.3571 26.6575 16.3571C26.9619 16.3571 27.2079 16.1134 27.2079 15.8119V14.7217Z" fill="#000CA0"/>
<path d="M27.2079 8.17404C27.2079 7.87254 26.9619 7.62891 26.6575 7.62891C26.3531 7.62891 26.1071 7.87254 26.1071 8.17404V9.26432C26.1071 9.56582 26.3531 9.80946 26.6575 9.80946C26.9619 9.80946 27.2079 9.56582 27.2079 9.26432V8.17404Z" fill="#000CA0"/>
<path d="M30.5168 11.448C30.5168 11.1465 30.2708 10.9028 29.9664 10.9028C29.662 10.9028 29.416 11.1465 29.416 11.448V12.5382C29.416 12.8397 29.662 13.0834 29.9664 13.0834C30.2708 13.0834 30.5168 12.8397 30.5168 12.5382V11.448Z" fill="#000CA0"/>
</g>
<defs>
<clipPath id="clip0">
<rect width="43.75" height="56" fill="white" transform="translate(0.25)"/>
</clipPath>
</defs>
</svg>
