<svg xmlns="http://www.w3.org/2000/svg" viewBox="0 0 145 72"><rect x="2" y="2" width="141" height="68" rx="14" style="fill:#ebebeb"/><path d="M25,46.6h1.4V45.2h-4.2V43.8h-1.4V41h-1.4V34h1.4V31.2h1.4V29.8h5.6v14h-1.4v1.4h1.4V48h7V45.2h-1.4V18.6h-2.8V20H25v1.4h2.8v7h-8.4v1.4H18v1.4h-1.4v1.4h-1.4v2.8h-1.4v7h1.4v2.8h1.4v1.4H18V48h7Zm2.8-2.8h1.4v1.4h-1.4Zm28.89-7V32.6h-1.4V29.8h-2.8V28.4h-8.4v1.4h-2.8v1.4h-1.4V34h-1.4v8.4h1.4v2.8h1.4v1.4h2.8V48h8.4V46.6h1.4V45.2h-5.6V43.8h-2.8V41h-1.4V38.2h-1.4V36.8Zm-12.6-1.4V32.6h1.4V31.2h1.4V29.8h2.8v1.4h1.4v1.4h1.4v2.8Zm11.2,9.8V43.8h1.4V42.4h-1.4v1.4h-1.4v1.4Zm6.52,1.4h-1.4V45.2h1.4v1.4h1.4V48h8.4V46.6H73V45.2h1.4v-7h-2.8V36.8h-2.8V35.4h-4.2V34h-1.4V31.2h1.4V29.8h2.8v1.4h2.8V34h1.4v1.4H73v-7h-2.8v1.4h1.4v1.4h-1.4V29.8h-1.4V28.4h-7v1.4h-1.4v1.4H59v7h2.8v1.4h2.8V41h4.2v1.4h1.4v2.8h-1.4v1.4h-4.2V45.2h-1.4V43.8h-1.4V42.4h-1.4V41H59v7h2.8Zm17.7-22.4h5.6V20h-5.6Zm8.4,22.4h-2.8V28.4h-5.6v1.4h-2.8v1.4h1.4v1.4h1.4V45.2h-1.4v1.4h-2.8V48h12.6Zm-.48,4.2V55h1.4v1.4h2.8v1.4h11.2V56.4h2.8V55H107V53.6h1.4V48H107V46.6h-5.6V45.2H93V43.8h1.4V42.4h7V41h2.8V39.6h1.4V36.8H107V32.6h-1.4V31.2h-1.4V29.8h-1.4V28.4h1.4V27H107v1.4h-1.4v1.4h2.8v1.4h1.4V25.6h-5.6V27h-1.4v1.4H93v1.4h-1.4v1.4h-1.4v1.4h-1.4v5.6h1.4v1.4h1.4V41H93v1.4h-1.4v1.4h-1.4v1.4h-1.4V48h1.4v2.8Zm9.8-9.8V39.6h-1.4V38.2h-1.4v-7h1.4V29.8H100v2.8h1.4v5.6H100v1.4h-1.4V41ZM93,48v1.4h-1.4V48Zm2.8,8.4V55h-4.2V50.8h12.6V55H100v1.4Zm21.92-25.2V28.4h-5.6v1.4h-2.8v1.4h1.4v1.4h1.4V45.2h-1.4v1.4h-1.4V48h9.8V46.6h-1.4v-14h-1.4V31.2h1.4v1.4h1.4V31.2h4.2v1.4h1.4V45.2h-1.4v1.4h-1.4V48h11.2V46.6h-2.8V31.2h-1.4V29.8h-1.4V28.4h-7v1.4h-1.4v1.4Z" style="fill:#000ca0"/><rect x="2" y="2" width="141" height="68" rx="14" style="fill:none;stroke:#000ca0;stroke-width:4px"/></svg>