<svg xmlns="http://www.w3.org/2000/svg" viewBox="0 0 233 103"><rect x="5.92" y="17.31" width="221" height="68" rx="14" transform="translate(-6.01 16.7) rotate(-8)" style="fill:#ebebeb"/><path d="M19.54,53l5.54-.78-.58-4.16L19,48.85ZM31,74l-2.77.39-2.53-18-5.55.78.2,1.38-2.78.39.2,1.39,1.39-.2.19,1.39,1.39-.2L22.46,73.8l-1.39.2.2,1.38-2.77.39.19,1.39,12.48-1.75Zm7.09-16.55-.39-2.77-5.55.78.2,1.39-2.78.38.2,1.39,1.39-.19.19,1.38,1.39-.19,1.75,12.48-1.39.19.2,1.39-1.39.19.2,1.39,9.7-1.37-.19-1.38-1.39.19-2-13.86-1.38.19-.2-1.38,1.39-.2.19,1.39,1.39-.2-.2-1.38,4.16-.59.2,1.39,1.38-.2,1.76,12.48-1.39.2.2,1.38-1.39.2.19,1.38L55.65,72l-.2-1.39L52.68,71,50.53,55.72l-1.38.19L49,54.53l-1.38.19-.2-1.38-6.93,1,.19,1.39-1.38.19.19,1.39ZM62.51,54l-.39-2.78L56.58,52l.19,1.39L54,53.82l.19,1.38L55.58,55l.2,1.39,1.38-.2,1.75,12.48-1.38.19.19,1.39-1.38.19.19,1.39,9.71-1.36L66,69.09l-1.38.2L62.71,55.42l-1.39.2-.19-1.39L62.51,54l.2,1.38,1.38-.19-.19-1.39,4.16-.58.19,1.38,1.39-.19,1.75,12.47-1.38.2.19,1.39-1.39.19.2,1.39L80.1,68.53l-.19-1.39-2.78.39L75,52.28l-1.39.2-.19-1.39L72,51.28l-.19-1.38-6.93,1,.19,1.39-1.39.19.2,1.39Zm32.15,11,2.77-.39-.2-1.39,1.39-.19-.39-2.77,1.39-.2-1.37-9.7-1.38.19-.2-1.39-1.38.2L95.09,48l-1.39.2-.19-1.39L82.42,48.41l.19,1.39L81.23,50l.19,1.39L80,51.57l.38,2.78L79,54.54l1.36,9.7,1.39-.19L82,65.44l1.39-.2.19,1.39,2.78-.39.19,1.38,8.32-1.16Zm-5.55.78-.19-1.39-1.39.2-.39-2.78-1.39.2-1.36-9.71,1.39-.19-.39-2.77,4.15-.59.2,1.39,1.39-.2.39,2.78,1.38-.2,1.37,9.71-1.39.19.19,1.39-1.38.19.19,1.39Zm23-3.24,1.39-.2-.39-2.77,1.38-.19-.39-2.78,1.39-.19-.39-2.77,1.39-.2-.39-2.77,1.38-.2-.39-2.77,1.39-.19-.2-1.39,1.39-.2-.19-1.38,1.38-.2L120.72,43,112.4,44.2l.2,1.38,2.77-.39.58,4.16-1.38.2.39,2.77-1.39.19.39,2.78-1.39.19.2,1.39-1.39.19-.78-5.54-1.39.19L109,50.33l-1.39.19-.58-4.16,2.77-.39-.19-1.38L97.15,46.34l.19,1.39,1.39-.2.2,1.39,1.38-.2.2,1.39,1.38-.2.39,2.78,1.39-.2.39,2.77,1.39-.19.38,2.77,1.39-.19.39,2.77,1.39-.19.39,2.77,1.38-.2.2,1.39,1.39-.19Zm23.25-1.86L141,60l-.2-1.39,1.39-.2L142,57l-2.77.39-2-13.87-1.38.2-.2-1.39-1.39.2-.19-1.39-9.71,1.36.2,1.39-2.77.39.39,2.77-1.39.2.2,1.38,1.38-.19.2,1.39,1.38-.2.2,1.39,1.38-.2-.19-1.38,1.39-.2-.39-2.77-1.39.19-.2-1.38,1.39-.2L126,43.71l4.16-.59.19,1.39,1.39-.2.78,5.55-2.78.39.2,1.38-4.16.59.19,1.39-2.77.39.2,1.38-1.39.2.78,5.54,1.38-.19.2,1.38,6.93-1L131.06,60l4.16-.58ZM128.09,59l-.78-5.55,4.16-.58-.2-1.39,1.39-.19.78,5.54-1.39.2.2,1.38Zm5.54-.78-.19-1.39,1.39-.19L135,58Zm14-17.52,8.31-1.17-.19-1.38-5.55.77-1-6.93-1.39.2.2,1.38-1.39.2.2,1.39-1.39.19.2,1.39-1.39.19.19,1.39-1.38.19.19,1.39-1.38.19.19,1.39,2.77-.39,2.34,16.64,1.39-.2.19,1.39,6.94-1-.2-1.38,1.39-.2-.2-1.38-4.16.58-1.95-13.86-2.77.39Zm10.46,14.08-.2-1.38-1.38.19.19,1.39Zm2.12-21.5,5.55-.78-.59-4.16-5.54.78Zm11.44,21-2.77.39-2.54-18-5.54.78.19,1.38-2.77.39.19,1.39,1.39-.2.2,1.39,1.38-.19L163.12,54l-1.38.2.19,1.38-2.77.39.2,1.39,12.47-1.75Zm14.77-2.08,2.77-.39L189,50.4l1.39-.2L190,47.43l1.38-.19L190,37.53l-1.39.2-.19-1.39-1.39.19-.19-1.38-1.39.19-.2-1.38-11.09,1.55.2,1.39-1.39.2.2,1.38-1.39.2.39,2.77-1.39.19,1.37,9.71,1.38-.2.2,1.39,1.38-.19.2,1.38,2.77-.39.2,1.39,8.31-1.17Zm-5.54.78-.2-1.38-1.39.19L178.89,49l-1.38.19-1.37-9.7,1.39-.2-.39-2.77,4.16-.58.19,1.38,1.39-.19.39,2.77,1.39-.19L186,49.4l-1.39.2.2,1.38-1.39.2.2,1.38Zm19.52-18.29L200,31.88l-5.54.78.19,1.39-2.77.39.19,1.39,1.39-.2.19,1.39,1.39-.2,1.75,12.48-1.38.2.19,1.38-1.38.2.19,1.38,9.71-1.36-.2-1.39-1.38.2L200.59,36l-1.39.2L199,34.85l1.38-.19.2,1.38,1.38-.19-.19-1.39,4.16-.58.19,1.38,1.39-.19,1.75,12.48-1.39.19.2,1.39-1.39.19.2,1.39L218,49.15l-.19-1.39-2.78.39L212.87,32.9l-1.39.2-.19-1.39-1.39.2-.19-1.39-6.94,1,.2,1.38-1.39.2.2,1.38Z" style="fill:#000ca0"/><rect x="5.92" y="17.31" width="221" height="68" rx="14" transform="translate(-6.01 16.7) rotate(-8)" style="fill:none;stroke:#000ca0;stroke-width:3.9999999346461443px"/></svg>