<svg width="38" height="39" viewBox="0 0 38 39" fill="none" xmlns="http://www.w3.org/2000/svg">
<path d="M32.7622 20.5022C32.1907 20.0548 31.5479 19.6481 30.8394 19.2838C31.5147 17.47 31.8622 15.6076 31.8622 13.7319C31.8622 6.71174 26.0923 1 18.9997 1C11.907 1 6.13637 6.71174 6.13637 13.7319C6.13637 15.6076 6.48308 17.47 7.1591 19.283C5.86881 19.9474 4.79779 20.7545 3.95871 21.6954C2.54652 23.2773 1.80005 25.1906 1.80005 27.2293C1.80005 29.8345 3.02147 32.2242 5.23554 33.9549C6.42688 34.8881 7.92694 35.6465 9.69376 36.209C12.2823 37.0333 15.5871 37.4869 18.9997 37.4869C22.4122 37.4869 25.7171 37.0333 28.3064 36.209C30.7722 35.424 32.702 34.2644 34.043 32.7616C35.4544 31.1797 36.2001 29.2664 36.2001 27.2285C36.1993 24.6242 34.9779 22.2345 32.7622 20.5022Z" fill="#EBEBEB" stroke="#000CA0" stroke-width="2" stroke-linecap="round" stroke-linejoin="round"/>
<path d="M19.0016 25.906C19.0016 25.906 27.0012 21.2509 27.0012 13.8141C27.0012 9.45304 23.4192 5.91748 19.0016 5.91748C14.5832 5.91748 11.0012 9.45304 11.0012 13.8141C11.0012 21.2509 19.0016 25.906 19.0016 25.906ZM19.0016 10.7811C20.6984 10.7811 22.0737 12.1386 22.0737 13.8141C22.0737 15.4888 20.6984 16.8463 19.0016 16.8463C17.3041 16.8463 15.9287 15.4888 15.9287 13.8141C15.9287 12.1386 17.3041 10.7811 19.0016 10.7811Z" fill="#0098FF"/>
<path d="M30.6731 23.7053C29.8257 23.0434 28.7095 22.4905 27.3555 22.0603C27.2681 22.0328 27.1798 22.0054 27.0907 21.9788C26.7753 22.4477 26.4346 22.9118 26.0669 23.3695C26.3382 23.4405 26.6013 23.5164 26.8546 23.5971C28.7618 24.2025 31.0351 25.3664 31.0351 27.4698C31.0351 28.6305 30.3103 30.2456 26.8546 31.3425C24.7333 32.0165 21.9436 32.3878 19.0002 32.3878C16.0569 32.3878 13.2671 32.0165 11.145 31.3425C9.23863 30.7372 6.96534 29.5732 6.96534 27.4698C6.96534 26.3091 7.69015 24.694 11.145 23.5971C11.3983 23.5172 11.6606 23.4405 11.9319 23.3695C11.565 22.9118 11.2235 22.4485 10.9089 21.9788C10.8198 22.0054 10.7315 22.0328 10.6449 22.0603C8.808 22.6439 7.42539 23.4445 6.53471 24.4414C5.74698 25.322 5.33105 26.3689 5.33105 27.4698C5.33105 28.4763 5.67752 29.9469 7.32733 31.2344C8.17389 31.8962 9.29093 32.4491 10.6449 32.8793C12.9239 33.6033 15.891 34.0021 19.0002 34.0021C22.1086 34.0021 25.0765 33.6033 27.3555 32.8793C29.1916 32.2958 30.575 31.4951 31.4657 30.499C32.2534 29.6176 32.6694 28.5708 32.6694 27.4698C32.6694 26.4633 32.3229 24.9927 30.6731 23.7053Z" fill="#FF58D1"/>
<path d="M8.78616 28.0945C8.8025 28.122 8.81966 28.1486 8.83764 28.176C8.85644 28.2027 8.87605 28.2285 8.89566 28.2551C8.93652 28.3084 8.98228 28.3609 9.03049 28.4133C9.08278 28.469 9.13998 28.5247 9.20209 28.5796C9.26337 28.6337 9.32874 28.6878 9.39902 28.7418C9.63272 28.9194 9.91463 29.0897 10.2382 29.2503C10.306 29.2834 10.3755 29.3165 10.4466 29.3496C10.4948 29.3714 10.543 29.3924 10.592 29.4142C10.6656 29.4465 10.7408 29.478 10.8184 29.5094C10.8952 29.5401 10.9745 29.5708 11.0554 29.6015C11.1085 29.6216 11.1632 29.6418 11.2188 29.6612C13.1235 30.3432 15.9035 30.7734 19.0004 30.7734C22.0966 30.7734 24.8773 30.3432 26.7821 29.6612C26.8376 29.6418 26.8924 29.6216 26.9455 29.6015C27.0264 29.5708 27.1057 29.5401 27.1825 29.5094C27.2601 29.478 27.3353 29.4465 27.4088 29.4142C27.4578 29.3924 27.5061 29.3714 27.5543 29.3496C27.6254 29.3165 27.6948 29.2834 27.7626 29.2503C28.0862 29.0897 28.3681 28.9194 28.6018 28.7418C28.6721 28.6878 28.7375 28.6337 28.7988 28.5796C28.8609 28.5247 28.9181 28.469 28.9704 28.4133C29.0186 28.3609 29.0635 28.3084 29.1052 28.2551C29.1248 28.2285 29.1444 28.2027 29.1632 28.176C29.1812 28.1486 29.1984 28.122 29.2147 28.0945C29.231 28.0679 29.2457 28.0404 29.2605 28.0138V28.013C29.2678 27.9993 29.2743 27.9855 29.2809 27.9726C29.3005 27.9315 29.3177 27.8903 29.3332 27.8491C29.3781 27.7248 29.401 27.5973 29.401 27.469C29.401 27.4512 29.4002 27.4343 29.3994 27.4165C29.3986 27.3875 29.3953 27.3576 29.392 27.3285C29.3904 27.3188 29.3887 27.3092 29.3871 27.2987C29.3847 27.2809 29.3814 27.2623 29.3773 27.2438C29.374 27.2317 29.3716 27.2188 29.3683 27.2067C29.3642 27.1897 29.3593 27.1719 29.3544 27.155C29.3397 27.105 29.3217 27.0557 29.2997 27.0073C29.294 26.9936 29.2874 26.9798 29.2809 26.9661C29.2735 26.95 29.2662 26.9346 29.2572 26.9193C29.2515 26.9072 29.2449 26.8959 29.2384 26.8846C29.222 26.8555 29.2049 26.8265 29.1861 26.7982C29.1755 26.7813 29.164 26.7643 29.1526 26.7482C29.1412 26.7312 29.1289 26.7143 29.1158 26.6981C29.106 26.6844 29.0954 26.6707 29.0848 26.657C28.9777 26.523 28.8453 26.3922 28.6885 26.2655C28.6746 26.2534 28.659 26.2421 28.6443 26.23C28.5291 26.1396 28.4025 26.0508 28.2627 25.9653C28.2439 25.9532 28.2243 25.941 28.2047 25.9297C28.1908 25.9209 28.1761 25.912 28.1614 25.9039C28.1393 25.891 28.1173 25.8781 28.0952 25.8652C28.0307 25.828 27.9645 25.7917 27.895 25.7562C27.8256 25.7199 27.7545 25.6844 27.6809 25.6489C27.627 25.623 27.5706 25.5972 27.5142 25.5714C27.4791 25.5552 27.4448 25.5399 27.4088 25.5246C27.35 25.4995 27.2903 25.4737 27.229 25.4487C27.1882 25.4317 27.1465 25.4148 27.1048 25.3986C27.0525 25.3785 26.9994 25.3583 26.9455 25.3373C26.9422 25.3357 26.939 25.3349 26.9357 25.3341C26.8858 25.3147 26.8344 25.2961 26.7821 25.2776C26.7273 25.2574 26.6709 25.238 26.6146 25.2186C26.5484 25.1969 26.4814 25.1743 26.4135 25.1525C26.3776 25.1404 26.3408 25.1282 26.304 25.1178C26.2583 25.1032 26.2117 25.0887 26.1651 25.075C26.0246 25.033 25.8808 24.991 25.7329 24.9515C25.4575 24.8772 25.169 24.807 24.87 24.7424C24.8422 24.7723 24.8136 24.8022 24.785 24.832C24.3388 25.2994 23.8935 25.728 23.462 26.1186C24.0871 26.2195 24.6771 26.343 25.2197 26.4859C25.6626 26.6029 26.0368 26.7224 26.3514 26.8402C26.9406 27.0598 26.9406 27.8782 26.3514 28.0985C26.0368 28.2156 25.6626 28.3359 25.2197 28.4529C23.574 28.8871 21.4903 29.1349 19.3216 29.1567C19.2145 29.1583 19.1075 29.1591 19.0004 29.1591C18.8934 29.1591 18.7863 29.1583 18.6793 29.1567C16.5106 29.1349 14.4269 28.8871 12.7812 28.4529C12.3383 28.3359 11.964 28.2156 11.6494 28.0985C11.0603 27.8782 11.0603 27.0598 11.6494 26.8402C11.964 26.7224 12.3383 26.6029 12.7812 26.4859C13.3229 26.343 13.9129 26.2203 14.538 26.1186C14.1066 25.728 13.6612 25.2994 13.2151 24.832C13.1865 24.8022 13.1579 24.7723 13.1301 24.7424C13.0443 24.761 12.9601 24.7796 12.8768 24.7989C12.7093 24.8377 12.5458 24.878 12.3865 24.92C12.3464 24.9297 12.3064 24.9402 12.2672 24.9515C12.1879 24.9725 12.1103 24.9943 12.0343 25.0161C11.9575 25.0387 11.8815 25.0604 11.8071 25.083C11.6952 25.1169 11.5857 25.1517 11.4786 25.188C11.4476 25.1985 11.4174 25.2082 11.3863 25.2186C11.3291 25.238 11.2735 25.2574 11.2188 25.2776C11.1665 25.2961 11.115 25.3147 11.0644 25.3341C11.0611 25.3349 11.0578 25.3357 11.0554 25.3373C11.0014 25.3575 10.9483 25.3777 10.896 25.3986C10.7391 25.46 10.5896 25.5237 10.4466 25.5891C10.4033 25.6093 10.3608 25.6295 10.3191 25.6489C10.2905 25.6626 10.2619 25.6763 10.2341 25.6908C10.1908 25.7126 10.1475 25.7344 10.1058 25.7562C10.0364 25.7917 9.96938 25.828 9.90565 25.8652C9.88358 25.8781 9.86152 25.891 9.83946 25.9039C9.82475 25.912 9.81004 25.9209 9.79615 25.9297C9.77654 25.941 9.75693 25.9532 9.73813 25.9653C9.5984 26.0508 9.47093 26.1396 9.35653 26.23C9.34182 26.2421 9.32629 26.2534 9.3124 26.2655C9.15551 26.3922 9.02313 26.523 8.91609 26.657C8.90546 26.6707 8.89484 26.6844 8.88504 26.6981C8.87196 26.7143 8.8597 26.7312 8.84826 26.7482C8.83682 26.7643 8.82538 26.7813 8.81476 26.7982C8.79597 26.8265 8.77881 26.8555 8.76246 26.8846C8.75593 26.8959 8.74939 26.9072 8.74367 26.9193C8.73468 26.9346 8.72733 26.95 8.71997 26.9661C8.71344 26.9798 8.7069 26.9936 8.70118 27.0073C8.67912 27.0557 8.66114 27.105 8.64643 27.155C8.64153 27.1719 8.63662 27.1897 8.63254 27.2067C8.62927 27.2188 8.62682 27.2317 8.62355 27.2438C8.61946 27.2623 8.6162 27.2809 8.61374 27.2987C8.61211 27.3092 8.61048 27.3188 8.60884 27.3285C8.60557 27.3576 8.6023 27.3875 8.60149 27.4165C8.60067 27.4343 8.59985 27.4512 8.59985 27.469C8.59985 27.5973 8.62273 27.7248 8.66768 27.8491C8.6832 27.8903 8.70036 27.9315 8.71997 27.9726C8.72651 27.9855 8.73305 27.9993 8.7404 28.013V28.0138C8.75511 28.0404 8.76982 28.0679 8.78616 28.0945Z" fill="#9958ED"/>
</svg>
