<svg xmlns="http://www.w3.org/2000/svg" viewBox="0 0 2025 539"><path d="M642,2V537" fill="none" stroke="#000ca0" stroke-miterlimit="10" stroke-width="4"/><path d="M322,2V537" fill="none" stroke="#000ca0" stroke-miterlimit="10" stroke-width="4"/><path d="M962,2V537" fill="none" stroke="#000ca0" stroke-miterlimit="10" stroke-width="4"/><path d="M2023,323H2" fill="none" stroke="#000ca0" stroke-miterlimit="10" stroke-width="4"/><path d="M2023,109H2" fill="none" stroke="#000ca0" stroke-miterlimit="10" stroke-width="4"/><path d="M2023,430H2" fill="none" stroke="#000ca0" stroke-miterlimit="10" stroke-width="4"/><path d="M2023,216H2" fill="none" stroke="#000ca0" stroke-miterlimit="10" stroke-width="4"/><path d="M749,2V537" fill="none" stroke="#000ca0" stroke-miterlimit="10" stroke-width="4"/><path d="M429,2V537" fill="none" stroke="#000ca0" stroke-miterlimit="10" stroke-width="4"/><path d="M1069,2V537" fill="none" stroke="#000ca0" stroke-miterlimit="10" stroke-width="4"/><path d="M1175,2V537" fill="none" stroke="#000ca0" stroke-miterlimit="10" stroke-width="4"/><path d="M1281,2V537" fill="none" stroke="#000ca0" stroke-miterlimit="10" stroke-width="4"/><path d="M1387,2V537" fill="none" stroke="#000ca0" stroke-miterlimit="10" stroke-width="4"/><path d="M1493,2V537" fill="none" stroke="#000ca0" stroke-miterlimit="10" stroke-width="4"/><path d="M1599,2V537" fill="none" stroke="#000ca0" stroke-miterlimit="10" stroke-width="4"/><path d="M1705,2V537" fill="none" stroke="#000ca0" stroke-miterlimit="10" stroke-width="4"/><path d="M855,2V537" fill="none" stroke="#000ca0" stroke-miterlimit="10" stroke-width="4"/><path d="M535,2V537" fill="none" stroke="#000ca0" stroke-miterlimit="10" stroke-width="4"/><path d="M1175,2V537" fill="none" stroke="#000ca0" stroke-miterlimit="10" stroke-width="4"/><path d="M2023,2H2V537H2023Z" fill="none" stroke="#000ca0" stroke-miterlimit="10" stroke-width="4"/><path d="M1811,4V539" fill="none" stroke="#000ca0" stroke-miterlimit="10" stroke-width="4"/><path d="M1917,4V539" fill="none" stroke="#000ca0" stroke-miterlimit="10" stroke-width="4"/><path d="M109,2V537" fill="none" stroke="#000ca0" stroke-miterlimit="10" stroke-width="4"/><path d="M215,2V537" fill="none" stroke="#000ca0" stroke-miterlimit="10" stroke-width="4"/></svg>