<svg width="1177" height="555" viewBox="0 0 1177 555" fill="none" xmlns="http://www.w3.org/2000/svg">
<path d="M1496 2H2V553H1496V2Z" stroke="#000CA0" stroke-width="3" stroke-miterlimit="10"/>
<path d="M1 447H1496" stroke="#000CA0" stroke-width="3" stroke-miterlimit="10"/>
<path d="M1 504H1496" stroke="#000CA0" stroke-width="3" stroke-miterlimit="10"/>
<path d="M1 382H1496" stroke="#000CA0" stroke-width="3" stroke-miterlimit="10"/>
<path d="M1 318H1496" stroke="#000CA0" stroke-width="3" stroke-miterlimit="10"/>
<path d="M1 253H1496" stroke="#000CA0" stroke-width="3" stroke-miterlimit="10"/>
<path d="M1 189H1496" stroke="#000CA0" stroke-width="3" stroke-miterlimit="10"/>
<path d="M1 123H1496" stroke="#000CA0" stroke-width="3" stroke-miterlimit="10"/>
<path d="M1 59H1496" stroke="#000CA0" stroke-width="3" stroke-miterlimit="10"/>
<path d="M28 2H1469" stroke="#000CA0" stroke-width="3" stroke-miterlimit="10"/>
<path d="M40 2L40 553" stroke="#000CA0" stroke-width="3" stroke-miterlimit="10"/>
<path d="M101 2L101 553" stroke="#000CA0" stroke-width="3" stroke-miterlimit="10"/>
<path d="M162 2L162 553" stroke="#000CA0" stroke-width="3" stroke-miterlimit="10"/>
<path d="M223 2L223 553" stroke="#000CA0" stroke-width="3" stroke-miterlimit="10"/>
<path d="M284 2L284 553" stroke="#000CA0" stroke-width="3" stroke-miterlimit="10"/>
<path d="M345 2L345 553" stroke="#000CA0" stroke-width="3" stroke-miterlimit="10"/>
<path d="M406 2L406 553" stroke="#000CA0" stroke-width="3" stroke-miterlimit="10"/>
<path d="M467 2L467 553" stroke="#000CA0" stroke-width="3" stroke-miterlimit="10"/>
<path d="M528 2L528 553" stroke="#000CA0" stroke-width="3" stroke-miterlimit="10"/>
<path d="M589 2L589 553" stroke="#000CA0" stroke-width="3" stroke-miterlimit="10"/>
<path d="M650 2L650 553" stroke="#000CA0" stroke-width="3" stroke-miterlimit="10"/>
<path d="M711 2L711 553" stroke="#000CA0" stroke-width="3" stroke-miterlimit="10"/>
<path d="M772 2L772 553" stroke="#000CA0" stroke-width="3" stroke-miterlimit="10"/>
<path d="M833 2L833 553" stroke="#000CA0" stroke-width="3" stroke-miterlimit="10"/>
<path d="M894 2L894 553" stroke="#000CA0" stroke-width="3" stroke-miterlimit="10"/>
<path d="M955 2L955 553" stroke="#000CA0" stroke-width="3" stroke-miterlimit="10"/>
<path d="M1016 2L1016 553" stroke="#000CA0" stroke-width="3" stroke-miterlimit="10"/>
<path d="M1077 2L1077 553" stroke="#000CA0" stroke-width="3" stroke-miterlimit="10"/>
<path d="M1138 2L1138 553" stroke="#000CA0" stroke-width="3" stroke-miterlimit="10"/>
</svg>
