<svg xmlns="http://www.w3.org/2000/svg" viewBox="0 0 320 136"><rect x="6.09" y="33.54" width="307" height="68" rx="14" transform="translate(-10.56 34.66) rotate(-12)" style="fill:#ebebeb"/><path d="M34.18,105l1.37-.29-.29-1.37-4.11.87-.29-1.37-1.37.29-.58-2.74-1.37.29-1.45-6.84,1.36-.3-.58-2.73,1.37-.3L28,89.19,33.43,88l2.91,13.69L35,102l.29,1.37,1.37-.3.58,2.74,6.85-1.45-.58-2.74-1.37.29-5.53-26-2.74.58.29,1.37L28.65,79l.29,1.37,2.74-.59,1.46,6.85L24.92,88.4l.29,1.37-1.37.29.29,1.37-1.37.29.3,1.37-1.37.29.58,2.74-1.37.29,1.45,6.85,1.37-.3.59,2.74,1.37-.29.29,1.37,1.37-.29.29,1.37,6.84-1.46Zm2.16-3.33,1.37-.29.29,1.37-1.37.29ZM63.15,88.86l-.88-4.11L60.91,85l-.59-2.74-2.74.59-.29-1.37-8.21,1.74.29,1.37-2.74.58.29,1.37-1.37.3.58,2.73-1.37.3,1.75,8.21,1.37-.29.58,2.74,1.37-.29.29,1.37,2.74-.58.29,1.36,8.22-1.74-.29-1.37L62.45,99l-.29-1.37-5.48,1.16-.29-1.37L53.65,98l-.58-2.74-1.37.29-.59-2.74-1.37.29-.29-1.37ZM50.53,90.11,50,87.37l1.37-.29L51,85.71l1.37-.29-.29-1.37,2.74-.58.29,1.37,1.37-.29.29,1.37,1.37-.29.58,2.73Zm13,7.26L63.23,96l1.37-.29-.29-1.37-1.37.29L63.23,96l-1.37.29.3,1.37Zm-14-18.51,1.37-.29-.58-2.74,1.37-.29-.29-1.37,1.37-.29-.29-1.37,1.37-.29-.29-1.37L55,70.56l.3,1.37,1.37-.29.58,2.74-1.37.29L56.13,76l-2.74.58L53.68,78l-2.74.58.29,1.37-1.37.29ZM78.41,95.64l1.37-.3-.59-2.73,1.37-.3L80,89.58l1.37-.29-.58-2.74,1.37-.29-.59-2.74,1.37-.29-.58-2.74,1.37-.29-.29-1.37,1.37-.3-.29-1.36,1.37-.3-.29-1.37-8.22,1.75.29,1.37L80.39,78l.87,4.11-1.37.29.59,2.74-1.37.29.58,2.74-1.37.29.29,1.37-1.37.29-1.16-5.48L74.71,85l-.29-1.37-1.37.29-.88-4.1,2.74-.59-.29-1.37L62.3,80.45l.29,1.37L64,81.53l.29,1.37,1.37-.29L65.91,84l1.37-.29.58,2.74,1.37-.29.58,2.73,1.37-.29.58,2.74L73.13,91l.59,2.74,1.36-.29.59,2.74L77,95.93l.29,1.37L78.7,97ZM104.62,80l-.87-4.1-1.37.29-.59-2.74-2.73.58-.29-1.37-8.22,1.75.29,1.37-2.74.58.29,1.37L87,78.06l.58,2.74-1.36.29L88,89.31,89.35,89l.58,2.73,1.37-.29.29,1.37,2.74-.58.29,1.37,8.22-1.75-.29-1.37,1.37-.29-.29-1.37L98.15,90l-.29-1.37-2.74.58-.58-2.74-1.37.29L92.59,84l-1.37.3L90.93,83ZM92,81.3l-.58-2.74,1.37-.29L92.5,76.9l1.37-.3-.29-1.36,2.74-.59L96.61,76,98,75.73l.29,1.37,1.37-.29.58,2.74Zm13,7.25-.29-1.37,1.36-.29-.29-1.37-1.36.29.29,1.37-1.37.29.29,1.37Zm14.88-1.73-2.74.58L116.85,86l-1.37.29-5.53-26-2.74.58.29,1.37-4.11.87.29,1.37,1.37-.29,5.24,24.65-2.74.58.29,1.37,12.33-2.62Zm14.59-3.1,2.74-.58-.29-1.37,1.37-.29-.59-2.74,1.37-.29-2-9.59-1.37.29-.29-1.37-1.37.29-.3-1.37-1.36.3-.3-1.37L121.1,68l.29,1.37-1.37.3.29,1.36-1.37.3.59,2.73-1.38.3,2,9.58,1.37-.29.29,1.37,1.37-.29.29,1.37,2.74-.58.29,1.37,8.22-1.75ZM129,84.88l-.29-1.37-1.37.3-.58-2.74-1.37.29-2-9.59,1.37-.29-.58-2.74,4.11-.87.29,1.37L129.9,69l.58,2.74,1.37-.3,2,9.59-1.37.29.29,1.37-1.37.29.29,1.37Zm24.81,4.75-1.37.29-.29-1.37-1.37.29L149.32,82l8.21-1.74-.29-1.37L160,78.3l-.29-1.37,1.37-.29-.58-2.74,1.37-.29-2.33-11-1.37.29-.29-1.37-1.37.29-.29-1.37L148,62.24l.29,1.37-1.37.29.29,1.37-1.37.29.3,1.37,1.37-.29-.3-1.37,5.48-1.16.29,1.37,1.37-.3,2.33,11-1.37.29.29,1.37-1.37.29.29,1.37-4.1.87L150.1,79l-1.36.3-2.62-12.33-1.37.29-.29-1.37,1.36-.29L145,61.45l-1.37.29.29,1.37-4.11.88.3,1.37-1.37.29L139,67l1.37-.29L145.29,90l-1.36.29.29,1.37-1.37.29.29,1.37,11-2.33Zm22.78-4.84-1.37.29-.29-1.37-1.37.29-1.45-6.85,8.21-1.74L180,74l2.74-.59-.29-1.37,1.37-.29-.58-2.73,1.37-.3-2.33-11-1.37.29-.29-1.37-1.37.29L179,55.65l-8.22,1.75.29,1.37-1.37.29.29,1.37-1.37.29.3,1.37,1.36-.29L170,60.43l5.48-1.17.29,1.37,1.37-.29,2.33,11-1.37.29.29,1.37-1.37.29.29,1.37-4.1.87-.3-1.37-1.36.29L168.9,62.09l-1.37.29L167.24,61l1.36-.29-.87-4.11-1.37.29.29,1.37-4.11.88.3,1.36-1.37.3.29,1.36,1.37-.29,5,23.28-1.37.29.29,1.37-1.37.3.29,1.36,11-2.32ZM203.51,59l-.88-4.11-1.37.29-.58-2.74-2.74.58-.29-1.37-8.22,1.75.29,1.37-2.73.58.29,1.37-1.37.29.58,2.74-1.37.29,1.75,8.22,1.37-.29.58,2.74,1.37-.3.29,1.37,2.74-.58.29,1.37,8.22-1.75-.3-1.36,1.37-.3-.29-1.37L197,69l-.3-1.37L194,68.2l-.59-2.74-1.37.29L191.47,63l-1.37.29-.29-1.37Zm-12.62,1.25-.58-2.74,1.37-.29-.3-1.37,1.37-.29-.29-1.37,2.74-.59.29,1.37,1.37-.29.29,1.37,1.37-.29.58,2.74Zm13,7.25-.29-1.37,1.37-.29-.29-1.37-1.37.3.29,1.36-1.37.3.29,1.36ZM225.15,48.7l4.11-.87.29,1.37,1.36-.29,2.92,13.69-2.74.58.29,1.37,11-2.33L242,60.85l-2.74.59-3.2-15.07-1.37.29-.29-1.37-1.37.3-.29-1.37-6.85,1.45.3,1.37-1.38.29.3,1.37-1.37.29.29,1.37,1.37-.29ZM206.73,69.79l11-2.33-.29-1.37-1.37.29L215.73,65l-1.37.3-2.33-11-1.37.29-.29-1.37,2.74-.58-.29-1.37,5.48-1.16,3.2,15.06-2.74.58.29,1.37,11-2.33-.29-1.37-2.74.59-2.91-13.7-1.37.29-.29-1.37,1.37-.29-.29-1.37-1.37.29-.3-1.37-8.21,1.75.29,1.37-1.37.29.29,1.37-1.37.29-.58-2.74-4.11.88.29,1.37-2.74.58.29,1.37,1.38-.29,3.2,15.06-2.74.58Zm52-22.49-.87-4.11-1.37.29-.58-2.74-2.74.58L252.84,40l-8.22,1.75.29,1.37-2.73.58.29,1.37-1.37.29.58,2.74-1.37.29,1.74,8.22,1.38-.29L244,59l1.37-.3.29,1.37,2.74-.58.29,1.37,8.21-1.75-.29-1.37,1.37-.29-.29-1.37-5.48,1.17-.29-1.37-2.74.58-.58-2.74-1.37.29-.58-2.74-1.37.3L245,50.21Zm-12.61,1.25-.58-2.74,1.37-.29-.3-1.37,1.37-.29-.29-1.37,2.74-.59.29,1.37,1.37-.29.29,1.37,1.37-.29.58,2.74Zm13,7.25-.29-1.37,1.37-.29-.29-1.37-1.37.29.29,1.37-1.37.29.29,1.37ZM268,39.59l-.58-2.74L262,38l.29,1.36L259.5,40l.29,1.37,1.37-.29.29,1.36,1.37-.29,2.62,12.33-1.37.29.29,1.37L263,56.4l.29,1.37,9.58-2-.29-1.37-1.37.29L268.3,41l-1.37.29-.29-1.37,1.37-.29L268.3,41l1.37-.29-.29-1.37,4.11-.87.29,1.37,1.37-.3,2.62,12.33-1.37.29.29,1.37-1.37.29.29,1.37,11-2.33-.29-1.37-2.74.58L280.33,37l-1.36.29-.3-1.37-1.37.29L277,34.81l-6.84,1.46.29,1.37-1.37.29.29,1.37Zm21.13-5.92,8.21-1.75-.29-1.37-5.48,1.17-1.45-6.85-1.37.29.29,1.37-1.37.29.29,1.37-1.37.29.29,1.37-1.37.29.3,1.37-1.37.29.29,1.37-1.37.29.29,1.37,2.74-.58,3.49,16.43,1.37-.29.29,1.37,6.85-1.45-.29-1.37,1.37-.29-.3-1.37-4.1.87-2.91-13.69-2.74.58ZM300.55,47l-.29-1.37-1.37.29.29,1.37Z" style="fill:#000ca0"/><rect x="6.09" y="33.54" width="307" height="68" rx="14" transform="translate(-10.56 34.66) rotate(-12)" style="fill:none;stroke:#000ca0;stroke-width:4.000000093808057px"/></svg>