<svg xmlns="http://www.w3.org/2000/svg" viewBox="0 0 278 127"><rect x="104.56" y="-68.93" width="68" height="264" rx="14" transform="translate(48.05 185.49) rotate(-78)" style="fill:#ebebeb"/><path d="M30.85,51l2.74.58.58-2.74-1.37-.29-.29,1.37L27,48.77l.29-1.37L26,47.11l.59-2.74-1.37-.29,1.74-8.21,1.37.29.29-1.37,1.37.29.3-1.37,4.1.87L34.05,36l1.37.29-.29,1.37-1.37-.29-.58,2.74,4.11.87.29-1.36,1.37.29.29-1.37-1.37-.29.58-2.74-1.37-.29.29-1.37-9.58-2-.29,1.37-2.74-.58-.29,1.37-1.37-.3-.59,2.74-1.36-.29-2,9.59,1.37.29-.29,1.37,1.37.29L21.26,49l1.37.29-.29,1.37,8.22,1.75Zm20.06,4.26,2.74.58.29-1.37,1.37.29.58-2.73,1.37.29,2-9.59-1.37-.29.29-1.37-1.37-.29.29-1.37-1.37-.29.29-1.37-11-2.33-.29,1.37-1.37-.29-.29,1.37-1.37-.29-.58,2.74-1.37-.29-2,9.58,1.37.29-.29,1.37,1.37.29L40,53l2.74.58-.3,1.37,8.22,1.75Zm-5.48-1.16.29-1.37-1.36-.29.58-2.74-1.37-.29,2-9.59,1.37.29.58-2.74,4.11.88-.3,1.37,1.37.29-.58,2.74,1.37.29-2,9.58-1.37-.29-.29,1.37-1.37-.29-.29,1.37Zm36.94-7.9,4.1.88-.29,1.37,1.37.29L84.64,62.45l-2.74-.58-.29,1.37,11,2.33.29-1.37-2.74-.59,3.2-15.06L92,48.26l.29-1.37-1.37-.29.29-1.37-6.84-1.46L84,45.14l-1.37-.29-.29,1.37L81,45.93l-.3,1.37,1.37.29ZM57,58l11,2.33L68.21,59l-1.37-.29.29-1.37L65.76,57l2.33-11-1.37-.29L67,44.39l2.74.58L70,43.6l5.48,1.17-3.2,15.06-2.74-.58-.29,1.37L80.24,63l.29-1.37L77.79,61,80.7,47.3,79.34,47l.29-1.37,1.37.29.29-1.37-1.37-.29.29-1.37L72,41.15l-.29,1.37-1.37-.29L70,43.6l-1.37-.29.58-2.74-4.11-.87-.29,1.37-2.73-.58-.3,1.37,1.37.29L60,57.21l-2.74-.58Zm60.53-4.31,4.11.87-.3,1.37,1.37.29-2.91,13.7L117,69.33l-.29,1.37,11,2.33.29-1.37-2.74-.58L128.44,56l-1.37-.29.29-1.37-1.37-.3.3-1.36-6.85-1.46-.29,1.37-1.37-.29-.29,1.37-1.37-.29-.29,1.37,1.37.29ZM92.08,65.46l11,2.33.29-1.37L102,66.13l.29-1.37-1.37-.29,2.33-10.95-1.37-.3.29-1.36,2.74.58.29-1.37,5.48,1.16-3.2,15.07-2.74-.59-.29,1.37,11,2.33.29-1.37-2.73-.58,2.91-13.69-1.37-.3.29-1.36,1.37.29.29-1.37L115,51.74l.29-1.37-8.22-1.75L106.82,50l-1.37-.29-.29,1.37-1.37-.29.59-2.74-4.11-.88L100,48.53,97.24,48,97,49.32l1.37.29L95.11,64.68l-2.74-.59Zm41.11,17.33,1.37.29.87-4.11,1.37.29.58-2.74,1.37.29.59-2.73,1.37.29.58-2.74,1.37.29.87-4.11,1.37.29.58-2.74,1.37.29.88-4.1,1.36.29.59-2.74,1.36.29.59-2.74,1.37.29.87-4.11,1.37.29.58-2.73-1.37-.3-.58,2.74-1.37-.29-.58,2.74L150.55,55l-.87,4.11-1.37-.29-.58,2.74-1.38-.29L145.77,64l-1.37-.29-.87,4.11-1.37-.29-.58,2.74L140.21,70l-.58,2.74-1.37-.29-.88,4.1L136,76.23,135.43,79l-1.37-.29-.58,2.74-1.37-.29-.58,2.74,1.37.29Zm52.19-14.67,4.1.87-.29,1.37,1.37.29-2.91,13.7-2.74-.59-.29,1.37,11,2.33.29-1.37-2.74-.58,3.2-15.06L195,70.16l.29-1.37-1.37-.29.3-1.37-6.85-1.46L187,67l-1.37-.29-.29,1.37L184,67.83l-.29,1.37,1.37.29ZM160,79.89l11,2.33.29-1.37-1.37-.29.29-1.37-1.37-.29,2.33-11-1.37-.3.29-1.36,2.74.58.29-1.37,5.48,1.16-3.2,15.07-2.74-.59-.29,1.37,10.95,2.33.29-1.37-2.74-.58,2.92-13.69-1.37-.29.29-1.37,1.37.29.29-1.37-1.37-.29.29-1.37L175,63.05l-.29,1.37-1.37-.29-.29,1.37-1.37-.29.58-2.74-4.1-.87L167.87,63l-2.74-.58-.29,1.37,1.37.29L163,79.11l-2.74-.59Zm51.56,11,8.21,1.75.3-1.37-1.38-.29.3-1.37-1.37-.29.29-1.37-1.37-.29.29-1.37L215.43,86l.58-2.74-1.37-.29.29-1.37-1.36-.29.29-1.37-1.37-.29.58-2.74,1.37.29.29-1.37,1.37.29.29-1.37,2.74.58.29-1.37,2.74.59.29-1.37-8.22-1.75-.29,1.37,1.37.29-.58,2.74-1.37-.29-.29,1.37-1.37-.29L211.41,78l-1.37-.3L209.75,79,207,78.44l3.78-17.8-4.11-.87-.29,1.37L200.92,60l-.3,1.37,2.74.58-.29,1.37,1.37.29-4.65,21.91-1.38-.29-.29,1.37-1.36-.29-.3,1.37,11,2.33.29-1.37L205,88l1.46-6.85,2.74.58-.59,2.74,1.37.29-.29,1.37,1.37.29-.58,2.74,1.37.29Zm-5.1-9.67-1.37-.29.29-1.37,1.37.29Zm23.45-5,8.22,1.74.29-1.37-5.48-1.16,1.46-6.85L233,68.22l-.29,1.37-1.37-.29-.3,1.37-1.36-.29-.3,1.37L228,71.46l-.3,1.37-1.37-.3-.29,1.37-1.36-.29L224.4,75l2.74.58L223.65,92l1.37.29-.29,1.37,6.84,1.45.3-1.37,1.37.29.29-1.36-4.11-.88,2.91-13.69-2.74-.58Zm5,16.81.29-1.37-1.37-.29-.29,1.37Zm-.29,5.66-.87,4.11,1.36.29-.29,1.37,2.74.58-.29,1.37,11,2.33.29-1.37,2.74.58.29-1.37,1.37.29.29-1.37,1.37.3,1.16-5.48-1.37-.29.29-1.37-5.47-1.17.29-1.37-8.22-1.74.29-1.37,1.37.29.29-1.37,6.85,1.45.29-1.36,2.74.58.29-1.37,1.37.29.58-2.74,1.37.29.87-4.11-1.36-.29.29-1.37-1.37-.29.29-1.37L254,81.28l.29-1.37,1.37.29.29-1.37,2.74.59-.29,1.37-1.37-.3-.29,1.37,2.74.59-.29,1.37,1.36.29,1.17-5.48-5.48-1.17L256,78.83l-1.37-.29-.29,1.37-9.59-2-.29,1.37L243.08,79l-.29,1.37L241.42,80l-.29,1.37-1.37-.29-1.16,5.48,1.37.29-.29,1.37,1.37.29-.3,1.37,1.37.29-.29,1.37-1.37-.29-.29,1.37-1.37-.29-.29,1.37-1.37-.3-.58,2.74,1.37.29-.58,2.74Zm11.62-7.55.29-1.37-1.37-.29.3-1.37-1.38-.29,1.46-6.85,1.37.3.29-1.37,4.11.87-.58,2.74,1.37.29-1.17,5.48-1.37-.29-.29,1.37-1.37-.3-.29,1.37Zm-5.56,6-.29,1.37-1.37-.3.29-1.37Zm1,8.8.29-1.38-4.11-.87.88-4.11L251,102.11l-.87,4.11-4.11-.87-.29,1.37Z" style="fill:#000ca0"/><rect x="104.56" y="-68.93" width="68" height="264" rx="14" transform="translate(48.05 185.49) rotate(-78)" style="fill:none;stroke:#000ca0;stroke-width:4.000000093808057px"/></svg>