<svg width="1070" height="484" viewBox="0 0 1070 484" fill="none" xmlns="http://www.w3.org/2000/svg">
<path d="M534.763 414.116L534.763 2L2 2.00001L2 414.116L534.763 414.116Z" stroke="#000C9F" stroke-width="3" stroke-miterlimit="10"/>
<path d="M68.5903 1.99994L68.5903 414.116" stroke="#000C9F" stroke-width="3" stroke-miterlimit="10"/>
<path d="M135.19 1.99994L135.19 414.116" stroke="#000C9F" stroke-width="3" stroke-miterlimit="10"/>
<path d="M201.781 1.99994L201.781 414.116" stroke="#000C9F" stroke-width="3" stroke-miterlimit="10"/>
<path d="M268.381 1.99994L268.381 414.116" stroke="#000C9F" stroke-width="3" stroke-miterlimit="10"/>
<path d="M334.971 1.99994L334.971 414.116" stroke="#000C9F" stroke-width="3" stroke-miterlimit="10"/>
<path d="M401.572 1.99994L401.572 414.116" stroke="#000C9F" stroke-width="3" stroke-miterlimit="10"/>
<path d="M468.162 1.99994L468.162 414.116" stroke="#000C9F" stroke-width="3" stroke-miterlimit="10"/>
<path d="M534.762 345.429L1.99987 345.429" stroke="#000C9F" stroke-width="3" stroke-miterlimit="10"/>
<path d="M534.762 276.742L1.99987 276.742" stroke="#000C9F" stroke-width="3" stroke-miterlimit="10"/>
<path d="M534.762 208.052L1.99987 208.052" stroke="#000C9F" stroke-width="3" stroke-miterlimit="10"/>
<path d="M534.762 139.375L1.99987 139.375" stroke="#000C9F" stroke-width="3" stroke-miterlimit="10"/>
<path d="M534.762 70.6874L1.99987 70.6874" stroke="#000C9F" stroke-width="3" stroke-miterlimit="10"/>
<path d="M534.763 482.379L534.763 70.2626L1.99994 70.2626L1.99994 482.379L534.763 482.379Z" stroke="#000C9F" stroke-width="3" stroke-miterlimit="10"/>
<path d="M68.5904 70.2623L68.5904 482.379" stroke="#000C9F" stroke-width="3" stroke-miterlimit="10"/>
<path d="M135.191 70.2623L135.191 482.379" stroke="#000C9F" stroke-width="3" stroke-miterlimit="10"/>
<path d="M201.781 70.2623L201.781 482.379" stroke="#000C9F" stroke-width="3" stroke-miterlimit="10"/>
<path d="M268.381 70.2623L268.381 482.379" stroke="#000C9F" stroke-width="3" stroke-miterlimit="10"/>
<path d="M334.971 70.2623L334.972 482.379" stroke="#000C9F" stroke-width="3" stroke-miterlimit="10"/>
<path d="M401.572 70.2623L401.572 482.379" stroke="#000C9F" stroke-width="3" stroke-miterlimit="10"/>
<path d="M468.162 70.2623L468.162 482.379" stroke="#000C9F" stroke-width="3" stroke-miterlimit="10"/>
<path d="M534.763 413.692L1.99999 413.692" stroke="#000C9F" stroke-width="3" stroke-miterlimit="10"/>
<path d="M534.763 345.004L1.99999 345.004" stroke="#000C9F" stroke-width="3" stroke-miterlimit="10"/>
<path d="M534.763 276.315L1.99999 276.315" stroke="#000C9F" stroke-width="3" stroke-miterlimit="10"/>
<path d="M534.763 207.637L1.99999 207.637" stroke="#000C9F" stroke-width="3" stroke-miterlimit="10"/>
<path d="M534.763 138.95L1.99999 138.95" stroke="#000C9F" stroke-width="3" stroke-miterlimit="10"/>
<path d="M1068 414.116L1068 2L535.237 2.00001L535.237 414.116L1068 414.116Z" stroke="#000C9F" stroke-width="3" stroke-miterlimit="10"/>
<path d="M601.827 1.99994L601.827 414.116" stroke="#000C9F" stroke-width="3" stroke-miterlimit="10"/>
<path d="M668.427 1.99994L668.427 414.116" stroke="#000C9F" stroke-width="3" stroke-miterlimit="10"/>
<path d="M735.017 1.99994L735.017 414.116" stroke="#000C9F" stroke-width="3" stroke-miterlimit="10"/>
<path d="M801.618 1.99994L801.618 414.116" stroke="#000C9F" stroke-width="3" stroke-miterlimit="10"/>
<path d="M868.209 1.99994L868.209 414.116" stroke="#000C9F" stroke-width="3" stroke-miterlimit="10"/>
<path d="M934.809 1.99994L934.809 414.116" stroke="#000C9F" stroke-width="3" stroke-miterlimit="10"/>
<path d="M1001.4 1.99994L1001.4 414.116" stroke="#000C9F" stroke-width="3" stroke-miterlimit="10"/>
<path d="M1068 345.429L535.237 345.429" stroke="#000C9F" stroke-width="3" stroke-miterlimit="10"/>
<path d="M1068 276.742L535.237 276.742" stroke="#000C9F" stroke-width="3" stroke-miterlimit="10"/>
<path d="M1068 208.052L535.237 208.052" stroke="#000C9F" stroke-width="3" stroke-miterlimit="10"/>
<path d="M1068 139.375L535.237 139.375" stroke="#000C9F" stroke-width="3" stroke-miterlimit="10"/>
<path d="M1068 70.6874L535.237 70.6874" stroke="#000C9F" stroke-width="3" stroke-miterlimit="10"/>
<path d="M1068 482.379L1068 70.2626L535.237 70.2626L535.237 482.379L1068 482.379Z" stroke="#000C9F" stroke-width="3" stroke-miterlimit="10"/>
<path d="M601.827 70.2623L601.827 482.379" stroke="#000C9F" stroke-width="3" stroke-miterlimit="10"/>
<path d="M668.427 70.2623L668.427 482.379" stroke="#000C9F" stroke-width="3" stroke-miterlimit="10"/>
<path d="M735.017 70.2623L735.017 482.379" stroke="#000C9F" stroke-width="3" stroke-miterlimit="10"/>
<path d="M801.618 70.2623L801.618 482.379" stroke="#000C9F" stroke-width="3" stroke-miterlimit="10"/>
<path d="M868.209 70.2623L868.209 482.379" stroke="#000C9F" stroke-width="3" stroke-miterlimit="10"/>
<path d="M934.809 70.2623L934.809 482.379" stroke="#000C9F" stroke-width="3" stroke-miterlimit="10"/>
<path d="M1001.4 70.2623L1001.4 482.379" stroke="#000C9F" stroke-width="3" stroke-miterlimit="10"/>
<path d="M1068 413.692L535.237 413.692" stroke="#000C9F" stroke-width="3" stroke-miterlimit="10"/>
<path d="M1068 345.004L535.237 345.004" stroke="#000C9F" stroke-width="3" stroke-miterlimit="10"/>
<path d="M1068 276.315L535.237 276.315" stroke="#000C9F" stroke-width="3" stroke-miterlimit="10"/>
<path d="M1068 207.637L535.237 207.637" stroke="#000C9F" stroke-width="3" stroke-miterlimit="10"/>
<path d="M1068 138.95L535.237 138.95" stroke="#000C9F" stroke-width="3" stroke-miterlimit="10"/>
</svg>
