<svg width="41" height="41" viewBox="0 0 41 41" fill="none" xmlns="http://www.w3.org/2000/svg">
<g clip-path="url(#clip0_1176_12582)">
<path d="M38.01 13.83V15.72C38.01 16.29 38.48 16.75 39.05 16.75C39.34 16.75 39.58 16.99 39.58 17.28V26.44C39.58 26.74 39.34 26.98 39.05 26.98H38.88C38.4 26.98 37.99 27.3 37.87 27.76L36.51 33.18C36.48 33.31 36.4 33.42 36.29 33.49L32.16 36.24C31.87 36.43 31.7 36.75 31.7 37.1V37.77C31.7 37.97 31.59 38.15 31.41 38.24L28.86 39.52C28.78 39.56 28.7 39.58 28.62 39.58H12.57C12.27 39.58 12.03 39.34 12.03 39.03C12.03 38.46 11.57 38 11 38H9.42C9.12 38 8.88 37.76 8.88 37.47V37.01C8.88 36.73 8.77 36.47 8.58 36.27L4.31 32C4.12 31.81 3.85 31.7 3.58 31.7H2.9C2.67 31.7 2.46 31.55 2.39 31.34L1.03 27.27C1.01 27.22 1 27.16 1 27.1V13.68C1 13.53 1.06 13.4 1.16 13.3L3.85 10.61C4.04 10.41 4.15 10.15 4.15 9.87V7.53C4.15 7.33 4.27 7.15 4.45 7.06L6.73 5.91C7.08 5.73 7.3 5.38 7.3 4.99V4.51C7.3 4.27 7.47 4.05 7.71 3.99L12.82 2.71C13.28 2.6 13.6 2.18 13.6 1.71V1.53C13.6 1.24 13.84 1 14.14 1H34.79C34.93 1 35.07 1.06 35.16 1.16L39.43 5.42C39.53 5.52 39.58 5.65 39.58 5.8V12.27C39.58 12.56 39.34 12.8 39.05 12.8C38.48 12.8 38.01 13.26 38.01 13.83Z" fill="white"/>
<path d="M34.79 1C34.93 1 35.07 1.06 35.16 1.16L39.43 5.42C39.53 5.52 39.58 5.65 39.58 5.8V12.27C39.58 12.56 39.34 12.8 39.05 12.8C38.48 12.8 38.01 13.26 38.01 13.83V15.72C38.01 16.29 38.48 16.75 39.05 16.75C39.34 16.75 39.58 16.99 39.58 17.28V26.44C39.58 26.74 39.34 26.98 39.05 26.98H38.88C38.4 26.98 37.99 27.3 37.87 27.76L36.51 33.18C36.48 33.31 36.4 33.42 36.29 33.49L32.16 36.24C31.87 36.43 31.7 36.75 31.7 37.1V37.77C31.7 37.97 31.59 38.15 31.41 38.24L28.86 39.52C28.78 39.56 28.7 39.58 28.62 39.58H12.57C12.27 39.58 12.03 39.34 12.03 39.03C12.03 38.46 11.57 38 11 38H9.42C9.12 38 8.88 37.76 8.88 37.47V37.01C8.88 36.73 8.77 36.47 8.58 36.27L4.31 32C4.12 31.81 3.85 31.7 3.58 31.7H2.9C2.67 31.7 2.46 31.55 2.39 31.34L1.03 27.27C1.01 27.22 1 27.16 1 27.1V13.68C1 13.53 1.06 13.4 1.16 13.3L3.85 10.61C4.04 10.41 4.15 10.15 4.15 9.87V7.53C4.15 7.33 4.27 7.15 4.45 7.06L6.73 5.91C7.08 5.73 7.3 5.38 7.3 4.99V4.51C7.3 4.27 7.47 4.05 7.71 3.99L12.82 2.71C13.28 2.6 13.6 2.18 13.6 1.71V1.53C13.6 1.24 13.84 1 14.14 1H34.79ZM34.79 0H14.14C13.29 0 12.6 0.69 12.6 1.53V1.71L7.47 3.02C6.78 3.19 6.3 3.8 6.3 4.51V4.99L4 6.17C3.48 6.43 3.15 6.95 3.15 7.53V9.87C3.15 9.88 3.15 9.89 3.12 9.92L0.45 12.59C0.16 12.88 0 13.27 0 13.68V27.1C0 27.27 0.03 27.45 0.09 27.61L1.44 31.66C1.65 32.28 2.23 32.7 2.9 32.7H3.58L7.87 36.98C7.88 36.99 7.88 37.01 7.88 37.01V37.47C7.88 38.31 8.57 39 9.42 39H11C11.03 39.88 11.72 40.58 12.57 40.58H28.62C28.86 40.58 29.09 40.52 29.31 40.41L31.86 39.13C32.38 38.87 32.7 38.35 32.7 37.77V37.1L36.84 34.32C37.16 34.12 37.39 33.79 37.48 33.4L38.84 28C38.85 27.98 38.87 27.98 38.88 27.98H39.05C39.89 27.98 40.58 27.29 40.58 26.44V17.28C40.58 16.44 39.89 15.75 39.05 15.75C39.03 15.75 39.01 15.73 39.01 15.72V13.83C39.01 13.82 39.03 13.8 39.05 13.8C39.89 13.8 40.58 13.11 40.58 12.27V5.8C40.58 5.38 40.42 5 40.14 4.71L35.88 0.46C35.6 0.17 35.2 0 34.79 0Z" fill="#0B1237"/>
<path d="M35.26 8.47H33.68H32.11V6.9V5.32V3.75H30.53V5.32H28.96V6.9V8.47V10.05H27.38V11.62H25.81V13.2H24.23V14.77H22.66V16.35H21.08V17.92H19.51H17.93V19.5V21.07V22.65H19.51H21.08H22.66V21.07V19.5H24.23V17.92H25.81V16.35H27.38V14.77H28.96V13.2H30.53V11.62H32.11H33.68H35.26V10.05H36.83V8.47H35.26Z" fill="#0B1237"/>
<path d="M16.36 19.5V17.92V16.35H17.93H19.51V14.77H21.08V13.2H19.51H17.93H16.36V14.77H14.78V16.35H13.2V17.92H11.63V19.5V21.07V22.65V24.22H13.2V25.8H14.78V27.38H16.36H17.93V28.95H19.51H21.08V27.38H22.66H24.23V25.8H25.81V24.22H27.38V22.65V21.07V19.5H25.81V21.07H24.23V22.65V24.22H22.66H21.08V25.8H19.51V24.22H17.93H16.36V22.65V21.07H14.78V19.5H16.36Z" fill="#0B1237"/>
<path d="M35.26 17.92V16.35V14.77H33.68V16.35H32.11V17.92H30.53V19.5V21.07H32.11V22.65H30.53V24.22V25.8H28.96V27.38V28.95H27.38H25.81V30.53H24.23V32.1H22.66H21.08H19.51H17.93H16.36H14.78V30.53H13.2V28.95H11.63V27.38H10.05V25.8H8.48V24.22V22.65V21.07V19.5V17.92V16.35V14.77H10.05V13.2H11.63V11.62H13.2V10.05H14.78H16.36V8.47H17.93H19.51H21.08H22.66H24.23V6.9H25.81V5.32H24.23V3.75H22.66H21.08H19.51H17.93H16.36V5.32H14.78H13.2V6.9H11.63H10.05V8.47H8.48V10.05H6.9V11.62V13.2H5.33V14.77V16.35H3.75V17.92V19.5V21.07V22.65V24.22H5.33V25.8V27.38V28.95H6.9V30.53H8.48V32.1H10.05V33.68H11.63V35.25H13.2H14.78V36.83H16.36H17.93H19.51H21.08H22.66H24.23H25.81V35.25H27.38H28.96V33.68H30.53V32.1H32.11V30.53H33.68V28.95V27.38H35.26V25.8V24.22H36.83V22.65V21.07V19.5H35.26V17.92Z" fill="#0B1237"/>
</g>
<defs>
<clipPath id="clip0_1176_12582">
<rect width="40.58" height="40.58" fill="white"/>
</clipPath>
</defs>
</svg>
