<svg viewBox="0 0 207 96" fill="none" xmlns="http://www.w3.org/2000/svg">
<path d="M157.657 7.16749L157.651 7.163L157.645 7.15856L154.937 5.22618C154.31 4.72904 153.537 4.59335 152.895 4.64937L113.106 8.12467C112.342 8.19137 111.621 8.53576 111.031 9.2318L107 13.9808C106.991 13.9917 106.983 13.9965 106.978 13.9992C106.972 14.0023 106.964 14.0046 106.956 14.0053C106.948 14.006 106.94 14.0051 106.934 14.0031C106.928 14.0013 106.92 13.9979 106.909 13.9888L101.887 9.7861L100.923 10.9387L101.887 9.7861C101.445 9.41627 100.68 8.96568 99.6594 9.05481L67.437 11.8692C66.6734 11.9359 65.9528 12.2803 65.362 12.9763L60.6597 18.5168C60.6504 18.5277 60.643 18.5325 60.6377 18.5352C60.6315 18.5383 60.6241 18.5406 60.6159 18.5413C60.6076 18.542 60.5999 18.5411 60.5933 18.5391C60.5876 18.5373 60.5795 18.5339 60.5686 18.5248L55.0062 13.8695C54.6881 13.5069 54.2891 13.3278 53.9993 13.2408C53.6268 13.129 53.2462 13.1086 52.9125 13.1378L11.292 16.773C10.5782 16.8353 9.94991 17.1323 9.41951 17.5532L9.31409 17.6368L9.22513 17.7378L3.04706 24.7507L3.03786 24.7611L3.02885 24.7718C2.74751 25.1032 2.52559 25.479 2.39699 25.9164C2.27035 26.3472 2.25787 26.7579 2.28852 27.1262L4.5796 54.6514C4.72635 56.4145 6.31811 57.4709 7.7841 57.3429L14.1309 56.7885C14.1316 56.7885 14.1322 56.7884 14.1328 56.7884C14.1328 56.7917 14.1326 56.7957 14.1321 56.8002C14.1309 56.8128 14.1276 56.8326 14.1187 56.8597L6.7494 76.7717C6.56526 77.1152 6.5313 77.4449 6.52136 77.6111C6.50824 77.8304 6.5269 78.0494 6.53581 78.1539C6.53647 78.1616 6.53708 78.1687 6.53761 78.1752L7.66801 91.7559C7.81477 93.519 9.40652 94.5754 10.8725 94.4474L202.498 77.7105C204.247 77.5577 205.335 75.9836 205.211 74.5021L203.889 58.6175C203.742 56.8544 202.151 55.798 200.685 55.9261L194.856 56.4352L190.519 4.33459C190.372 2.57147 188.781 1.51508 187.315 1.64313L160.463 3.98842C158.719 4.14071 157.633 5.70461 157.748 7.1816C157.735 7.18613 157.72 7.18834 157.707 7.18758C157.699 7.18714 157.693 7.18573 157.686 7.18348C157.68 7.18138 157.671 7.17719 157.657 7.16749Z" fill="#EBEBEB" stroke="#000CA0" stroke-width="3"/>
<path d="M57.8656 81.3878L19.2328 84.8416L18.8865 80.5879L23.179 80.2042L22.4864 71.6968L26.7789 71.3131L26.4326 67.0594L30.7252 66.6756L30.3788 62.422L34.6714 62.0382L34.3251 57.7845L38.6176 57.4008L37.925 48.8934L42.2175 48.5097L40.8323 31.495L36.5397 31.8787L36.1934 27.6251L23.3158 28.7763L24.7011 45.791L16.116 46.5585L15.7697 42.3048L11.4772 42.6886L11.1309 38.4349L15.4234 38.0512L14.7308 29.5438L19.0233 29.1601L18.677 24.9064L44.4322 22.6039L44.7785 26.8576L53.3636 26.09L55.0951 47.3584L50.8026 47.7422L51.1489 51.9958L46.8564 52.3796L47.2027 56.6333L42.9101 57.017L43.2564 61.2707L38.9639 61.6545L39.3102 65.9081L35.0177 66.2919L35.364 70.5456L31.0715 70.9293L31.4178 75.183L48.5879 73.648L48.2416 69.3943L52.5341 69.0106L52.1878 64.7569L56.4804 64.3731L57.8656 81.3878Z" fill="#000CA0"/>
<path d="M100.475 77.7875L79.0226 79.7059L78.6764 75.4535L74.3859 75.8372L74.0398 71.5849L69.7493 71.9686L69.4031 67.7162L65.1126 68.0999L62.3437 34.0813L66.6342 33.6977L66.2881 29.4453L70.5786 29.0617L70.2325 24.8093L74.523 24.4257L74.1769 20.1733L95.6295 18.255L95.9757 22.5073L100.266 22.1236L100.612 26.3759L104.903 25.9923L105.249 30.2446L109.539 29.8609L112.308 63.8795L108.018 64.2632L108.364 68.5155L104.074 68.8992L104.42 73.1515L100.129 73.5352L100.475 77.7875ZM95.8386 73.9188L95.1463 65.4142L99.4369 65.0305L96.6679 31.0119L92.3774 31.3956L91.6851 22.891L78.8135 24.042L79.1597 28.2943L74.8691 28.678L77.9842 66.9489L82.2747 66.5652L82.967 75.0699L95.8386 73.9188Z" fill="#000CA0"/>
<path d="M160.292 72.6513L121.66 76.105L121.313 71.8514L125.606 71.4676L124.913 62.9603L129.206 62.5765L128.859 58.3228L133.152 57.9391L132.806 53.6854L137.098 53.3016L136.752 49.048L141.044 48.6642L140.352 40.1569L144.644 39.7731L143.259 22.7584L138.966 23.1422L138.62 18.8885L125.743 20.0397L127.128 37.0544L118.543 37.8219L118.196 33.5683L113.904 33.952L113.558 29.6983L117.85 29.3146L117.157 20.8072L121.45 20.4235L121.104 16.1698L146.859 13.8673L147.205 18.121L155.79 17.3535L157.522 38.6219L153.229 39.0056L153.576 43.2593L149.283 43.643L149.629 47.8967L145.337 48.2805L145.683 52.5341L141.391 52.9179L141.737 57.1716L137.444 57.5553L137.791 61.809L133.498 62.1928L133.845 66.4464L151.015 64.9114L150.668 60.6578L154.961 60.274L154.615 56.0203L158.907 55.6366L160.292 72.6513Z" fill="#000CA0"/>
<path d="M185.485 66.3078L194.087 65.5402L194.435 69.798L164.325 72.4849L163.978 68.227L172.581 67.4593L168.761 20.6228L164.46 21.0067L164.113 16.7488L168.414 16.365L168.067 12.1071L180.971 10.9556L185.485 66.3078Z" fill="#000CA0"/>
</svg>
