<svg width="41" height="39" viewBox="0 0 41 39" fill="none" xmlns="http://www.w3.org/2000/svg">
<g clip-path="url(#clip0_1176_12590)">
<path d="M39.55 2.33V7.1C39.55 7.37 39.47 7.63 39.32 7.85L36.75 11.63C36.54 11.93 36.43 12.29 36.43 12.66V13.16C36.43 13.52 36.28 13.87 36.03 14.12L33.28 16.75V17.39L36.03 20.02C36.28 20.27 36.43 20.62 36.43 20.98V32.07C36.43 32.43 36.29 32.77 36.04 33.02L34.66 34.39C34.41 34.64 34.08 34.78 33.72 34.78H25.8C25.43 34.78 25.08 34.63 24.83 34.36L24.31 33.79C23.96 33.42 23.47 33.21 22.96 33.21H21.23C20.5 33.21 19.9 32.61 19.9 31.88V31.63C19.9 31.41 19.72 31.23 19.5 31.23C19.28 31.23 19.1 31.41 19.1 31.63V35.22C19.1 35.58 18.96 35.91 18.71 36.17L17.33 37.54C17.08 37.79 16.74 37.93 16.39 37.93H6.86C6.51 37.93 6.17 37.79 5.92 37.54L1.39 33.02C1.15 32.77 1 32.43 1 32.08V19.43C1 19.06 1.16 18.7 1.43 18.45L1.99 17.93C2.36 17.59 2.57 17.1 2.57 16.59V16.28C2.57 15.91 2.73 15.56 3 15.3L3.57 14.78C3.94 14.44 4.15 13.95 4.15 13.44V13.09C4.15 12.74 4.29 12.4 4.54 12.15L12.22 4.47C12.47 4.22 12.8 4.08 13.16 4.08H13.54C14.03 4.08 14.49 3.89 14.83 3.54L15.37 3.01C15.62 2.76 15.96 2.62 16.31 2.62H22.72C23.06 2.62 23.39 2.75 23.64 2.99L24.99 4.27C25.25 4.52 25.4 4.87 25.4 5.24V8.81C25.4 9.03 25.58 9.21 25.8 9.21C26.02 9.21 26.2 9.03 26.2 8.81V7.81L32.67 1.39C32.92 1.14 33.25 1 33.61 1H38.22C38.96 1 39.55 1.6 39.55 2.33Z" fill="white"/>
<path d="M38.22 1C38.96 1 39.55 1.6 39.55 2.33V7.1C39.55 7.37 39.47 7.63 39.32 7.85L36.75 11.63C36.54 11.93 36.43 12.29 36.43 12.66V13.16C36.43 13.52 36.28 13.87 36.03 14.12L33.28 16.75V17.39L36.03 20.02C36.28 20.27 36.43 20.62 36.43 20.98V32.07C36.43 32.43 36.29 32.77 36.04 33.02L34.66 34.39C34.41 34.64 34.08 34.78 33.72 34.78H25.8C25.43 34.78 25.08 34.63 24.83 34.36L24.31 33.79C23.96 33.42 23.47 33.21 22.96 33.21H21.23C20.5 33.21 19.9 32.61 19.9 31.88V31.63C19.9 31.41 19.72 31.23 19.5 31.23C19.28 31.23 19.1 31.41 19.1 31.63V35.22C19.1 35.58 18.96 35.91 18.71 36.17L17.33 37.54C17.08 37.79 16.74 37.93 16.39 37.93H6.86C6.51 37.93 6.17 37.79 5.92 37.54L1.39 33.02C1.15 32.77 1 32.43 1 32.08V19.43C1 19.06 1.16 18.7 1.43 18.45L1.99 17.93C2.36 17.59 2.57 17.1 2.57 16.59V16.28C2.57 15.91 2.73 15.56 3 15.3L3.57 14.78C3.94 14.44 4.15 13.95 4.15 13.44V13.09C4.15 12.74 4.29 12.4 4.54 12.15L12.22 4.47C12.47 4.22 12.8 4.08 13.16 4.08H13.54C14.03 4.08 14.49 3.89 14.83 3.54L15.37 3.01C15.62 2.76 15.96 2.62 16.31 2.62H22.72C23.06 2.62 23.39 2.75 23.64 2.99L24.99 4.27C25.25 4.52 25.4 4.87 25.4 5.24V8.81C25.4 9.03 25.58 9.21 25.8 9.21C26.02 9.21 26.2 9.03 26.2 8.81V7.81L32.67 1.39C32.92 1.14 33.25 1 33.61 1H38.22ZM38.22 0H33.61C32.99 0 32.4 0.24 31.96 0.68L26.4 6.2V5.24C26.4 4.6 26.14 3.99 25.68 3.55L24.32 2.27C23.89 1.86 23.32 1.63 22.71 1.63H16.3C15.69 1.63 15.09 1.88 14.65 2.31L14.12 2.83C13.96 3 13.76 3.08 13.54 3.08H13.16C12.54 3.08 11.95 3.32 11.51 3.76L3.83 11.44C3.4 11.87 3.15 12.47 3.15 13.09V13.44C3.15 13.67 3.06 13.89 2.89 14.04L2.32 14.56C1.83 15.04 1.56 15.64 1.56 16.28V16.59C1.56 16.82 1.47 17.04 1.3 17.19L0.74 17.71C0.27 18.16 0 18.78 0 19.43V32.08C0 32.67 0.24 33.27 0.67 33.71L5.22 38.25C5.65 38.68 6.25 38.93 6.87 38.93H16.4C17.01 38.93 17.61 38.68 18.05 38.25L19.43 36.88C19.88 36.41 20.12 35.83 20.12 35.22V33.92C20.45 34.11 20.84 34.21 21.25 34.21H22.98C23.22 34.21 23.44 34.31 23.6 34.48L24.11 35.04C24.55 35.52 25.17 35.79 25.82 35.79H33.74C34.36 35.79 34.95 35.55 35.39 35.11L36.77 33.74C37.21 33.3 37.46 32.71 37.46 32.08V20.98C37.46 20.36 37.21 19.75 36.77 19.31L34.43 17.07L36.76 14.84C37.22 14.38 37.47 13.78 37.47 13.16V12.66C37.47 12.49 37.52 12.33 37.61 12.2L40.19 8.41C40.45 8.02 40.59 7.57 40.59 7.1V2.33C40.55 1.05 39.5 0 38.22 0Z" fill="#0B1237"/>
<path d="M36.81 3.75H35.23V5.33H36.81V3.75Z" fill="#0B1237"/>
<path d="M33.64 5.31V6.87H32.1V8.41H30.53V9.98H28.95V11.56H22.65V6.83H21.08V5.37H17.92V6.83H14.77V8.41H13.2V9.98H11.62V11.56H10.05V13.13H8.47V14.71H6.9V17.86H5.32V21.01H3.75V30.46H5.32V32.03H6.9V33.61H8.47V35.19H14.77V33.61H16.35V28.88H17.92V25.73H19.5V27.31H21.08V28.88H22.65V30.46H27.38V32.03H32.1V30.46H33.68V22.58H32.1V21.01H30.53V19.43H28.95V14.71H30.53V13.13H32.1V11.56H33.68V8.45H35.21V5.31H33.64ZM32.1 27.31V28.88H30.53V27.31H32.1ZM30.53 22.58V25.73H28.95V28.88H25.8V27.31H22.65V25.73H21.08V24.16H16.35V25.73H14.77V32.03H13.2V33.61H10.05V32.03H8.47V30.46H6.9V22.58H8.47V19.43H10.05V17.86H11.62V16.28H13.2V14.71H14.77V13.13H17.92V11.56H19.5V14.71H25.8V17.86H27.38V21.01H28.95V22.58H30.53Z" fill="#0B1237"/>
<path d="M24.23 16.28H22.65V17.86H24.23V16.28Z" fill="#0B1237"/>
</g>
<defs>
<clipPath id="clip0_1176_12590">
<rect width="40.55" height="38.93" fill="white"/>
</clipPath>
</defs>
</svg>
