<?xml version="1.0" encoding="UTF-8"?>
<svg width="351px" height="425px" viewBox="0 0 351 425" version="1.1" xmlns="http://www.w3.org/2000/svg" xmlns:xlink="http://www.w3.org/1999/xlink">
    <title>Artboard</title>
    <g id="Artboard" stroke="none" stroke-width="1" fill="none" fill-rule="evenodd">
        <g id="vectorPhone" transform="translate(0, -0)" fill-rule="nonzero">
            <rect id="Rectangle" fill="#00034D" transform="translate(175.6877, 246.5494) rotate(12) translate(-175.6877, -246.5494)" x="43.687702" y="22.5494058" width="264" height="448" rx="24"></rect>
            <rect id="Rectangle" stroke="#00034D" stroke-width="2" fill="#B1EE2F" transform="translate(177.3514, 238.7242) rotate(12) translate(-177.3514, -238.7242)" x="54.3513724" y="31.7242123" width="246" height="414" rx="15"></rect>
            <g id="Group" transform="translate(98.0694, 202.3815)" fill="#0B1237">
                <g id="logo-waq" transform="translate(80.5445, 37.0129) rotate(12) translate(-80.5445, -37.0129)translate(2.7279, 15.7135)">
                    <path d="M5.19431939,0.507668063 C5.34304625,0.579484206 5.57675658,0.629760115 5.612167,0.73748394 C5.69715818,1.00320281 5.71839827,1.29763549 5.71839827,1.57772103 C5.73964607,8.23508292 5.7538087,14.8924058 5.78921912,21.5569139 C5.78921912,22.5264588 5.90253555,23.503189 6.02293715,24.4654704 C6.26372495,26.4045602 6.41245181,28.3435719 6.39120401,30.2969541 C6.39120401,30.7565781 6.13624589,31.4675308 6.81613679,31.6039731 C7.31896788,31.7117524 7.46060958,31.0725744 7.71559081,30.7062811 C8.42379927,29.6721467 9.16034839,28.6594901 9.86147169,27.6181705 C10.3713725,26.8641061 10.8388394,26.0813786 11.3203996,25.3129436 C13.3388245,22.1315024 15.4209389,18.9930948 17.3544189,15.7613567 C18.3246244,14.1383413 19.3940223,12.6158419 20.4917608,11.0933425 C22.0286255,8.9675915 23.4379573,6.75565615 24.8614594,4.55090609 C25.2013933,4.03383111 25.4209564,3.42338647 25.6405195,2.83449768 C26.0229644,1.82907323 26.0017089,1.82193481 27.2481589,1.1684097 C28.1475898,1.66393664 28.5654605,2.4251473 28.5796308,3.50957084 C28.5938012,4.89561233 28.4450897,6.23139588 28.154675,7.59589714 C27.8076559,9.21173499 27.5880928,10.8850473 27.5668373,12.5439891 C27.4960626,18.2821421 27.5314885,24.0274024 27.5314885,29.7654773 C27.5314885,30.1030295 27.5810076,30.4333964 27.6022631,30.6990958 C27.9067712,30.9361321 28.1050788,30.8499087 28.2750457,30.6775399 C29.0045097,29.9091049 29.2807541,28.8965264 29.663199,27.9413521 C29.833166,27.5176546 29.9464516,27.0724012 30.0739846,26.6271479 C30.2014405,26.1747092 30.4280888,25.8012306 30.7751079,25.4780489 C31.7099646,24.6234686 32.3969176,23.5749637 32.9422443,22.4258648 C34.0470679,20.0703409 35.5271743,17.9948869 37.4110581,16.1995029 C38.1405221,15.5028426 38.7212746,14.6195211 39.2878568,13.7649408 C40.1447767,12.4722143 41.1221444,11.2944524 42.2410614,10.2315769 C43.4450774,9.08966324 44.5711566,7.86882083 45.3926507,6.41095772 C46.4337079,4.55810699 47.8784655,2.99970457 49.0541408,1.24739316 C49.3232231,0.845224166 49.6985828,0.622592793 50.18022,0.572321571 C51.0229696,0.486142667 51.858634,0.371249177 52.7014606,0.270707123 C52.8147462,0.256343894 52.9281089,0.241966685 53.0343093,0.256329914 C53.9762512,0.39278004 54.9181931,0.536424042 55.8671432,0.672874169 C56.1717283,1.03913705 55.8813135,1.32636882 55.7042614,1.58490631 C54.1603885,3.91892121 52.6093534,6.25296736 51.0371399,8.56544984 C49.6914976,10.5475732 48.3105065,12.5081407 46.9648642,14.4902641 C44.9394312,17.4634101 42.9493469,20.4652973 40.9238368,23.4385214 C38.9620932,26.3183368 36.9578386,29.1622258 34.9889328,32.0420412 C33.2821782,34.5412708 31.6036871,37.0619781 29.9110258,39.568393 C29.7198033,39.8556482 29.5215727,40.1357181 29.3303503,40.4157881 C29.0470207,40.8179297 28.6574906,41.0118543 28.1830156,41.054966 C26.4408351,41.2057789 24.6985776,41.3278507 22.9563971,41.0693366 C22.1560815,40.9544501 21.9436036,40.7820033 21.9152629,39.9991977 C21.8728289,38.620404 21.8657438,37.2415322 21.8657438,35.8698456 C21.8657438,31.2807915 21.8799141,26.6917373 21.8799141,22.0954979 C21.8799141,21.585655 21.8303179,21.0757341 21.7948921,20.3935225 C21.4832989,20.587369 21.2424803,20.6520366 21.1646205,20.8100348 C20.8529502,21.4204716 20.583868,22.0524643 20.328879,22.6916422 C20.0456264,23.402595 19.6915222,24.0274024 18.9408028,24.3433987 C18.3387948,24.5947275 17.963435,25.1046484 17.6093308,25.6289399 C15.6900982,28.4728289 13.7637034,31.3023473 11.8444708,34.139051 C11.6178225,34.4694179 11.4053446,34.8069701 11.2353776,35.1732635 C10.7750729,36.1642861 10.2297463,37.0404223 9.38699666,37.7944867 C8.64336238,38.4624058 8.12629935,39.4103167 7.57392601,40.2721605 C7.23398441,40.8035592 6.80905163,41.0908925 6.19998927,41.1411113 C5.86004767,41.1698525 5.52718353,41.2632612 5.19431939,41.2488906 C3.77788706,41.1985936 2.3685399,41.1195555 0.959192737,41.0405955 C0.79630325,41.0334102 0.633410683,40.9616354 0.378452556,40.8897826 C0.272220517,40.5522304 0.10933103,40.1860151 0.0597556674,39.8053512 C-0.0039837643,39.2954303 -0.00398370269,38.7712169 0.00309845125,38.2612959 C0.0172627745,34.7638584 0.0455913441,31.2592356 0.0597556674,27.7617981 C0.0739199906,23.7401472 0.0739200676,19.7256034 0.0951668606,15.7039525 C0.116413115,11.057416 0.151823538,6.403749 0.187234731,1.75725943 C0.187234731,1.36227181 0.243892178,0.974476511 0.272220517,0.557944752 C0.534259958,0.464583688 0.746724807,0.328121065 0.952107572,0.320939685 C2.13482957,0.313758305 3.31755156,0.335337591 4.50027356,0.356882512 C4.60650483,0.356882512 4.70565093,0.450208431 4.80480474,0.500479654 L4.80480474,0.464580564 L5.22972981,0.464580564 L5.22972981,0.500479654 L5.19431939,0.507668063 Z" id="Path"></path>
                    <path d="M82.4306379,15.1998675 C81.9660214,16.7933566 81.4642673,18.3654749 81.4136968,20.0518302 C81.2975426,23.8820325 82.1477591,27.4334811 84.5166709,30.5205215 C86.376717,32.942967 88.7235042,34.6793689 91.7245472,35.6583875 C93.9551803,36.3801009 96.1715904,36.3729514 98.4314595,36.2729357 C99.0564793,36.2443376 99.681499,36.0299296 100.298617,35.8870168 C100.741899,35.7870012 101.185181,35.6726865 101.671922,35.5583718 C102.776572,36.7803188 103.83065,37.9665182 104.462782,39.4814403 C103.953916,40.1888547 103.176395,40.3246179 102.485791,40.539026 C100.596509,41.1178266 98.6274202,41.282188 96.680456,41.5108173 C96.4473576,41.5394154 96.2150494,41.5394154 95.9827412,41.5108173 C93.679413,41.2392908 91.3831964,40.9248672 89.1810092,40.1602566 C87.7500221,39.6672502 86.4272875,38.9669077 85.1559136,38.1523282 C81.7115886,35.944213 79.0226604,33.0715807 77.4170471,29.3414717 C75.8256567,25.6470325 75.2225245,21.7954593 75.9782374,17.779447 C76.472327,15.1641198 77.3151159,12.7059268 78.8195882,10.4764408 C79.2557588,9.1686995 80.2948245,8.31834904 81.231959,7.38939266 C81.8862148,6.73912009 82.5689166,6.11743007 83.2231724,5.46715749 C84.2179889,4.46673695 85.4609169,3.81646438 86.7109564,3.23765597 C88.9708256,2.18007031 91.2954882,1.3011303 93.8532491,1.22967236 C94.7184787,1.20823466 95.5758067,0.972452667 96.4331347,0.993890361 C99.8482236,1.06534908 103.06024,1.8370641 106.119756,3.41630083 C107.950566,4.35955625 109.614651,5.51720417 111.017192,6.92493778 C112.709724,8.62564649 114.148612,10.583606 115.180567,12.7916434 C116.357911,15.3069549 117.033501,17.9581074 117.571603,20.6520794 C117.615062,20.8736369 117.679855,21.1165653 117.644298,21.3309734 C117.374852,23.0244781 117.615062,24.7538082 117.164668,26.4330917 C116.822527,27.6979358 116.728498,29.0198985 116.212521,30.248995 C115.812698,31.2208641 115.289609,32.0711912 114.489963,32.7786056 C113.632635,33.5360666 112.855114,34.3720947 112.041245,35.1653034 C112.302789,36.1799919 113.073199,36.7731693 113.516481,37.5592285 C114.686714,38.3595089 115.078635,39.6385744 115.638072,40.8891195 C115.209803,41.6823282 114.42517,41.8609886 113.625524,41.9753033 C113.291284,42.02535 112.927809,41.9538547 112.586458,41.9181071 C111.722019,41.825241 110.864691,41.7037768 109.99235,41.6323592 C109.112897,41.560864 108.437307,41.1749451 107.986913,40.4460821 C107.746703,40.060241 107.478048,39.6529512 107.376116,39.2242129 C106.991307,37.6234965 106.039159,36.3229824 105.181831,34.9652722 C105.000093,34.6794466 104.826257,34.3935433 104.644519,34.1005682 C105.036441,33.5146181 105.508959,33.0858797 106.017824,32.7285589 C106.932834,32.0926398 107.710356,31.3636991 108.226333,30.3561602 C108.539238,29.7559109 109.03309,29.2413783 109.382343,28.6554281 C110.776982,26.2687303 111.394891,23.6819235 111.2495,20.9379049 C111.089887,17.8795404 110.479091,14.9068147 108.662503,12.3557555 C106.002811,8.60419791 102.38465,6.36757017 97.6681611,5.91024151 C94.2388492,5.58152657 91.0995275,6.30323222 88.1711796,8.06825556 C86.1365072,9.29731323 84.6399365,11.0123443 83.5131626,13.0560981 C83.1283527,13.7563629 82.7648772,14.4709268 82.3871788,15.1784189 L82.2781362,15.2283879 L82.4164149,15.2069393 L82.4306379,15.1998675 Z" id="Path"></path>
                    <path d="M37.7723374,40.9879508 C38.3744854,39.9886177 38.8403804,39.1462527 39.3779875,38.3539593 C40.1163106,37.2760644 40.9335171,36.2553053 41.6861826,35.1845524 C42.4388482,34.1137995 43.134144,33.0073368 43.8652959,31.9222999 C44.3455333,31.2156325 44.8330199,30.5089651 45.3275997,29.816504 C46.6537285,27.960522 47.9869504,26.1189016 49.305908,24.2629195 C49.9940326,23.2850123 50.6248655,22.2784596 51.3058189,21.2934104 C52.1158541,20.1226698 52.9760099,18.9877168 53.7788739,17.8170539 C55.0332905,15.9824978 56.2590223,14.1265158 57.4991744,12.2848177 C57.8790148,11.7209122 58.3019605,11.1784325 58.6890501,10.614527 C60.3664123,8.17319801 62.0366033,5.72475031 63.7211368,3.29059432 C64.2085454,2.59103784 64.7604949,1.93430215 65.3698142,1.14195433 C65.7855107,1.10626231 66.2873397,1.02772387 66.7962619,1.03486196 C67.3768963,1.04200006 67.9288458,1.06342598 68.466453,0.777893691 C69.0040601,0.492361398 69.5846945,0.606561972 70.1509864,0.720774967 C70.538076,0.799296328 70.9179164,0.970640079 71.3121772,1.01346942 C72.3300997,1.12054393 72.4304187,1.47746415 72.4949596,2.35547686 C72.5451581,2.97651043 72.5308157,3.61182019 72.5308157,4.23285376 C72.5308157,5.20365781 72.5451581,6.1672966 72.5308157,7.13810065 C72.5164733,7.75913422 72.4662748,8.38731753 72.4304187,9.00835887 C72.4160763,9.23682445 72.3516133,9.4652124 72.3659558,9.68645837 C72.6454772,13.2056667 72.5021309,16.746301 72.7457962,20.2725737 C72.7888235,20.893615 72.774481,21.5289403 72.7387029,22.1499816 C72.4232475,27.2752805 72.4160763,32.4148633 72.4304187,37.5473042 C72.4304187,38.5752052 72.3659558,39.5959643 72.27273,40.623943 C72.2225315,41.1521386 71.8497843,41.4662303 71.3408621,41.4519463 C70.2584767,41.4376624 69.16892,41.4233784 68.0937058,41.3234684 C67.2406433,41.2449067 66.9969779,40.9593829 66.9467794,40.1242376 C66.8894097,39.2176725 66.8678961,38.3039654 66.8678961,37.3902584 C66.8678961,32.8860008 66.8678961,28.3816657 66.8822385,23.8702661 C66.896581,19.5944742 66.9109234,15.3114626 66.9252658,11.0356707 C66.9252658,10.6358753 66.9467794,10.2290156 66.896581,9.83643985 C66.8608028,9.57940637 66.7890907,9.21532089 66.6027171,9.10826889 C66.2084563,8.87273896 65.9862267,9.26531472 65.7998531,9.52949018 C64.3805766,11.5995762 62.9469576,13.6696622 61.5706304,15.7683162 C59.3413966,19.1519046 57.1765478,22.5854093 54.9329715,25.9618557 C52.8756909,29.0527785 50.7466981,32.0936297 48.6608106,35.1559845 C47.470857,36.897695 46.2881525,38.646625 45.1268837,40.4097613 C44.7828214,40.9380346 44.3383621,41.2377647 43.7219496,41.2306227 C42.9836265,41.2306227 42.431677,41.5375724 41.9083343,42.0444198 C41.1771824,42.7582291 40.23105,42.808223 39.6719293,42.0444198 C39.2131276,41.4090945 38.5895439,41.2806165 37.7866798,40.9879508 L37.7723374,40.9879508 Z" id="Path"></path>
                    <path d="M148.293211,1.27413581 C149.568989,1.3368535 150.725756,1.38563291 151.94544,1.44834681 C152.01518,1.85252796 152.112967,2.1730734 152.106144,2.48666183 C152.0925,4.80720409 152.036405,7.12773876 152.050049,9.45525319 C152.05763,11.0022409 152.154659,12.5562766 152.217576,14.0754515 C153.005178,14.5910888 153.855697,14.1590417 154.671347,14.5701723 C154.85934,14.8419353 155.145121,15.18342 155.354339,15.5666619 C155.99564,16.7025191 155.493819,17.7130288 154.22562,17.8663407 C153.897389,17.9081737 153.556272,17.8663407 153.228799,17.9151459 C152.970308,17.9569031 152.72622,18.0892985 152.419972,18.2007774 C152.440439,18.5213456 152.468487,18.7861365 152.482889,19.0578995 C152.496534,19.4412171 152.552629,19.8384034 152.503357,20.2147489 C152.40557,20.9673642 152.036405,21.2808844 151.27685,21.2740258 C150.718934,21.2740258 150.161017,21.2391272 149.617504,21.148489 C149.14373,21.0718709 148.829902,20.7443306 148.773807,20.2426376 C148.725293,19.747841 148.71089,19.246148 148.648731,18.7443792 C148.607038,18.3820538 148.334903,18.1241594 147.97256,18.1311315 C147.303212,18.1450759 146.640687,18.1938053 145.978919,18.2426105 C144.02697,18.3889502 142.095488,18.2078254 140.178408,17.8593686 C139.286197,17.6990845 138.868518,17.1555585 138.721458,16.2844163 C138.55469,15.2530659 138.55469,14.3123537 139.349114,13.4830446 C139.920675,12.8837412 140.415674,12.2078198 140.938721,11.5597113 C141.182809,11.2600596 141.426898,10.9535115 141.649761,10.6399155 C143.127178,8.55629817 144.591708,6.47268081 146.069126,4.38907102 C146.773343,3.39256628 147.491206,2.41001345 148.306855,1.27413581 L148.293211,1.27413581 Z M148.662375,14.3123537 C148.850369,14.0405907 148.899641,13.9987577 148.906464,13.9500283 C149.1786,11.5737314 149.10128,9.19038658 148.948156,6.8141276 C148.941333,6.69566136 148.75334,6.52147083 148.627506,6.49359731 C148.494849,6.4657238 148.271985,6.53538485 148.188601,6.63991433 C147.338082,7.73397638 146.424646,8.79320033 145.706783,9.97089051 C145.100352,10.9674559 144.514388,11.9639455 143.733609,12.8350118 C143.420539,13.190365 143.050616,13.5736827 143.148403,14.2078469 C143.350799,14.2774928 143.545615,14.3959439 143.748012,14.3959439 C145.407358,14.3959439 147.065946,14.5004506 148.669198,14.3123537 L148.662375,14.3123537 Z" id="Shape"></path>
                    <path d="M125.578017,6.30871723 C124.675179,6.92005205 123.786485,6.74024953 122.89779,6.40221642 C122.529269,6.25837753 122.36976,5.94910437 122.355616,5.58949933 C122.304542,4.32367802 122.767354,3.2232597 123.598688,2.28828348 C124.335731,1.46118251 125.202424,0.79953145 126.286772,0.475890045 C128.453898,-0.171406062 130.585664,-0.250533874 132.674213,0.821095551 C134.964703,1.99341767 135.939831,5.01410468 135.636528,6.78337773 C135.253863,9.02012325 134.205659,10.890107 132.825865,12.6162518 C131.677084,14.0547189 130.404939,15.38517 128.959927,16.5431551 C128.605549,16.823637 128.200883,17.0825314 128.157666,17.5932025 C128.281031,17.9456429 128.584334,17.9600346 128.866422,17.9672305 C130.42694,17.9816222 131.987459,17.981544 133.540907,17.9887398 C134.119226,17.9887398 134.697545,17.9959357 135.268007,18.0463067 C135.701746,18.082286 136.019979,18.3771596 136.084411,18.8086762 C136.149629,19.2617805 136.200703,19.7220805 136.178702,20.1823806 C136.149629,21.0670015 135.455803,21.9157213 134.567109,21.9157213 C133.085952,21.9085255 131.597723,22.2321825 130.108708,21.656827 C129.154795,21.2899948 128.093234,21.2540155 127.04503,21.2252321 C125.556801,21.182057 124.074858,20.9663378 122.665991,20.8296947 C122.095529,20.0673252 122.145818,19.3265432 122.247181,18.5785653 C122.333615,17.8880761 122.832572,17.4637553 123.323672,17.0754138 C125.505727,15.3636606 127.594276,13.5656354 129.495029,11.5446169 C130.492159,10.4801779 131.229201,9.25750826 131.720301,7.89099973 C132.290763,6.32310894 131.886096,4.9637728 130.57152,3.91371764 C129.032217,2.68385997 126.979812,3.12978398 126.09819,4.9134331 C125.874248,5.37373318 125.737526,5.87720839 125.570945,6.33031262 L125.578017,6.30871723 Z" id="Path"></path>
                </g>
            </g>
        </g>
    </g>
</svg>