<svg width="352" height="422" viewBox="0 0 352 422" fill="none" xmlns="http://www.w3.org/2000/svg">
<rect x="93.6444" width="264" height="448" rx="24" transform="rotate(12 93.6444 0)" fill="#00034D"/>
<rect x="100.577" y="10.6746" width="246" height="414" rx="15" transform="rotate(12 100.577 10.6746)" fill="url(#paint0_radial_2413_7414)" stroke="#00034D" stroke-width="2"/>
<g clip-path="url(#clip0_2413_7414)">
<path d="M156.691 214.057L128.828 241.112L128.773 241.1L135.48 209.548L107.721 236.625L107.567 236.593L114.273 205.041L108.592 203.833L100.332 242.694L107.316 244.178L125.882 226.787L121.543 247.202L128.522 248.686L163.725 215.552L156.691 214.057Z" fill="#00034D"/>
<path d="M136.185 250.315L143.165 251.798L170.964 224.781L171.018 224.793L164.322 256.295L170.004 257.503L178.252 218.696L171.268 217.212L136.185 250.315Z" fill="#00034D"/>
<path d="M217.051 247.294C217.618 244.733 217.667 242.085 217.197 239.503C216.726 236.92 215.745 234.455 214.31 232.251C212.891 230.098 211.068 228.236 208.942 226.766C205.655 224.479 201.762 223.213 197.756 223.128C193.749 223.043 189.811 224.143 186.439 226.289C184.278 227.688 182.408 229.486 180.93 231.587C179.38 233.783 178.303 236.275 177.767 238.906C177.201 241.487 177.181 244.157 177.708 246.749C178.212 249.267 179.2 251.665 180.617 253.812C182.042 255.965 183.862 257.83 185.983 259.311C188.179 260.847 190.667 261.918 193.294 262.458C196.109 263.087 199.025 263.098 201.841 262.489L199.76 257.599C197.964 257.929 196.119 257.887 194.339 257.476C191.583 256.955 189.049 255.613 187.072 253.628C185.137 251.617 183.827 249.092 183.303 246.359C183.133 245.309 183.042 244.248 183.033 243.184C183.024 242.142 183.128 241.102 183.342 240.082C183.565 239.023 183.901 237.991 184.346 237.004C184.771 236.066 185.278 235.167 185.863 234.318C187.433 232.002 189.658 230.201 192.258 229.143C194.505 228.318 196.921 228.049 199.298 228.361C201.675 228.673 203.941 229.556 205.9 230.934C207.421 232.037 208.708 233.429 209.687 235.029C210.66 236.645 211.316 238.429 211.619 240.287C211.937 242.235 211.883 244.225 211.46 246.152C211.086 247.866 210.419 249.502 209.486 250.989C208.758 252.121 207.887 253.156 206.893 254.067C206.263 254.71 205.55 255.268 204.772 255.726C204.018 256.172 203.235 256.566 202.427 256.906L203.78 260.014L204.474 261.624L205.956 265.15L212.212 266.479L209.068 259.23C213.188 256.437 216.051 252.156 217.051 247.294Z" fill="#00034D"/>
<path d="M227.621 246.17C228.392 245.765 229.194 245.329 230.005 244.871C231.1 244.248 232.149 243.549 233.145 242.779C234.109 242.045 234.976 241.191 235.723 240.239C236.43 239.344 236.923 238.301 237.165 237.189C237.365 236.391 237.397 235.561 237.26 234.749C237.123 233.938 236.818 233.163 236.366 232.473C235.459 231.114 233.974 230.206 231.943 229.775C230.773 229.508 229.559 229.509 228.391 229.777C227.271 230.048 226.253 230.635 225.46 231.467C224.576 232.439 223.971 233.63 223.706 234.915L223.64 235.226L227.657 236.08L227.721 235.778C227.866 234.985 228.279 234.265 228.892 233.738C229.2 233.494 229.563 233.327 229.951 233.252C230.338 233.177 230.737 233.197 231.116 233.308C232.021 233.5 232.569 233.88 232.829 234.481C233.107 235.118 233.174 235.828 233.018 236.505C232.811 237.361 232.376 238.145 231.76 238.776C230.972 239.609 230.097 240.356 229.149 241.004C228.011 241.786 226.831 242.509 225.616 243.167C224.302 243.88 222.948 244.598 221.593 245.302L221.465 245.369L220.832 248.346L234.67 251.288L235.406 247.824L227.621 246.17Z" fill="#00034D"/>
<path d="M244.245 249.703C245.021 249.3 245.841 248.867 246.629 248.405C247.726 247.783 248.777 247.085 249.774 246.314C250.735 245.578 251.598 244.724 252.342 243.771C253.048 242.876 253.54 241.833 253.78 240.721C253.979 239.923 254.011 239.093 253.874 238.282C253.738 237.471 253.435 236.697 252.986 236.006C252.088 234.649 250.598 233.74 248.571 233.309C247.402 233.043 246.188 233.043 245.02 233.311C243.899 233.583 242.882 234.169 242.089 235.001C241.205 235.974 240.599 237.165 240.334 238.45L240.268 238.761L244.285 239.614L244.349 239.313C244.495 238.52 244.906 237.801 245.516 237.272C245.825 237.028 246.188 236.863 246.575 236.788C246.962 236.713 247.361 236.731 247.74 236.842C248.645 237.034 249.197 237.415 249.457 238.015C249.735 238.653 249.799 239.362 249.642 240.038C249.435 240.894 249.002 241.678 248.388 242.31C247.6 243.145 246.724 243.892 245.773 244.538C244.636 245.323 243.457 246.045 242.24 246.701C240.926 247.414 239.572 248.132 238.221 248.837L238.094 248.904L237.461 251.881L251.294 254.821L252.03 251.358L244.245 249.703Z" fill="#00034D"/>
</g>
<defs>
<radialGradient id="paint0_radial_2413_7414" cx="0" cy="0" r="1" gradientUnits="userSpaceOnUse" gradientTransform="translate(357.491 305.802) rotate(97.2556) scale(260.672 248.35)">
<stop stop-color="#ffae73"/>
<stop offset="1" stop-color="#FFF7E9"/>
</radialGradient>
<clipPath id="clip0_2413_7414">
<rect width="150.175" height="40" fill="white" transform="translate(108.648 203.568) rotate(12)"/>
</clipPath>
</defs>
</svg>
