<svg width="43" height="56" viewBox="0 0 43 56" fill="none" xmlns="http://www.w3.org/2000/svg">
<g clip-path="url(#clip0)">
<path d="M41.7308 45.4333L40.4919 38.8254C40.2199 37.3637 38.8903 36.3589 37.4701 36.4502C38.286 35.2322 38.7997 33.7705 38.7997 32.2175V28.9592C38.7997 27.8629 38.3766 26.8885 37.7118 26.1272V24.2697V22.0467V20.2501C38.3766 19.5193 38.7997 18.5144 38.7997 17.4181V15.2256C38.7997 7.49099 32.5446 1.21802 24.8995 1.21802H15.1089C7.46377 1.21802 1.20868 7.52144 1.20868 15.2256V17.4181C1.20868 18.5144 1.63173 19.4888 2.29652 20.2501V22.0467V24.2697V26.1272C1.63173 26.858 1.20868 27.8629 1.20868 28.9592V32.2479C1.20868 36.3589 4.53264 39.7085 8.61205 39.7085H20.5179L6.61767 42.3882C5.04635 42.6927 3.98872 44.2153 4.2909 45.8292L5.52983 52.4372C5.83201 54.0206 7.3429 55.0864 8.94445 54.7819L39.404 48.9353C41.0056 48.5698 42.033 47.0168 41.7308 45.4333Z" fill="#EBEBEB"/>
<path d="M24.8693 1.21805C32.5446 1.21805 38.7695 7.52148 38.7695 15.2257V17.4182C38.7695 18.5144 38.3464 19.4889 37.6817 20.2501V22.0468V24.2697V26.1272C38.3464 26.8885 38.7695 27.863 38.7695 28.9592V32.248C38.7695 33.8314 38.286 35.2931 37.4399 36.4807C37.5003 36.4807 37.5608 36.4807 37.6212 36.4807C38.981 36.4807 40.22 37.4551 40.4617 38.8559L41.7006 45.4638C42.0028 47.0473 40.9754 48.6003 39.3739 48.9049L8.9747 54.7211C8.79339 54.7515 8.61209 54.782 8.43078 54.782C7.07098 54.782 5.83204 53.8075 5.5903 52.4068L4.35137 45.7988C4.04919 44.2153 5.0766 42.6623 6.67814 42.3578L20.5784 39.6781H8.61209C4.53268 39.6781 1.20871 36.3284 1.20871 32.2175V28.9592C1.20871 27.863 1.63176 26.8885 2.29656 26.1272V24.2697V22.0468V20.2501C1.63176 19.4889 1.20871 18.5144 1.20871 17.4182V15.2257C1.20871 7.52148 7.46381 1.21805 15.1089 1.21805H24.8693ZM24.8693 0H15.1089C6.79902 0 0 6.85155 0 15.2257V17.4182C0 18.6058 0.392832 19.7325 1.08784 20.6765V22.0468V24.2697V25.6705C0.392832 26.6145 0 27.7716 0 28.9592V32.248C0 36.7852 3.47505 40.5307 7.88686 40.8961L6.37597 41.2007C4.13985 41.627 2.68939 43.8195 3.11244 46.0424L4.35137 52.6504C4.71398 54.5992 6.4364 56.0305 8.40056 56.0305C8.67252 56.0305 8.91426 56 9.18623 55.9696L39.6458 50.1229C41.8819 49.6966 43.3324 47.5041 42.9093 45.2811L41.6704 38.6732C41.3984 37.3029 40.4919 36.2066 39.3134 35.6585C39.7667 34.5927 40.0084 33.466 40.0084 32.2784V28.9592C40.0084 27.7716 39.6156 26.6449 38.9206 25.7009V24.3002V22.0772V20.7069C39.6156 19.7629 40.0084 18.6362 40.0084 17.4486V15.2257C39.9782 6.85155 33.2094 0 24.8693 0Z" fill="#000CA0"/>
<path d="M10.9691 41.5357C10.9691 41.5357 12.5706 40.3481 10.9691 39.7086C9.36754 39.0691 11.6943 37.8511 11.6943 37.8511L20.0042 38.8255L21.5151 40.7744L10.9691 41.5357Z" fill="#EBEBEB"/>
<path d="M8.55167 50.6711L9.09559 50.5493L8.34015 46.6211L7.79623 46.7429L7.67535 46.1948L8.79341 45.9816L8.67254 45.4335L9.7906 45.2203L9.91147 45.7684L10.4554 45.6466L10.3345 45.0985L12.5706 44.6722L12.6915 45.2203L13.8096 45.0072L13.6887 44.459L15.9248 44.0327L16.0457 44.5808L16.5896 44.459L17.4357 48.9658L17.9796 48.844L18.1005 49.3921L15.3205 49.9403L15.1996 49.3921L15.7435 49.2703L14.9881 45.3421L12.752 45.7684L12.8728 46.3166L13.4167 46.1948L14.0513 49.5749L14.6255 49.453L14.7463 50.0012L11.9663 50.5493L11.8454 50.0012L12.3893 49.8794L11.7245 45.9816L9.48843 46.4079L9.6093 46.956L10.1834 46.8342L10.818 50.2143L11.3619 50.0925L11.4828 50.6406L8.70276 51.1888L8.55167 50.6711Z" fill="#000CA0"/>
<path d="M19.8834 46.1642L20.0949 47.2909L20.6388 47.1691L20.7597 47.7172L21.8777 47.504L21.9986 48.0522L22.5425 47.9303L22.4217 47.3822L23.5397 47.1691L23.4189 46.6209L23.9628 46.4991L24.0836 47.0473L23.5397 47.1691L23.6606 47.7172L23.1167 47.839L23.2375 48.3871L20.4575 48.9352L20.3366 48.3871L19.7927 48.5089L19.6718 47.9608L19.1279 48.0826L19.0071 47.5345L18.4631 47.6563L18.1307 45.9815L18.6747 45.8597L18.4631 44.733L19.0071 44.6111L18.8862 44.063L19.4301 43.9412L19.3092 43.3931L22.0893 42.845L22.2101 43.3931L22.7541 43.2713L22.9656 44.398L23.5095 44.2762L23.721 45.4029L19.8834 46.1642ZM21.9986 45.1593L21.6662 43.4845L20.0042 43.8194L20.1251 44.3675L19.5812 44.4893L19.7927 45.616L21.9986 45.1593Z" fill="#000CA0"/>
<path d="M27.6796 47.5954L24.8995 48.1435L24.7787 47.5954L25.3226 47.4736L24.5671 43.5454L24.0232 43.6672L23.9023 43.119L24.4765 42.9363L24.3556 42.3882L26.0176 42.0533L26.1385 42.6014L26.6824 42.4796L26.5615 41.9314L28.7976 41.5051L28.9185 42.0533L29.4624 41.9314L30.3085 46.4382L31.4266 46.2251L31.5475 46.7732L28.1933 47.4127L28.0724 46.8646L28.6163 46.7428L27.8609 42.8145L26.1989 43.1495L26.9543 47.0777L27.4983 46.9559L27.6796 47.5954ZM26.1385 42.6318L25.5945 42.7536L25.7154 43.3018L26.2593 43.1799L26.1385 42.6318Z" fill="#000CA0"/>
<path d="M34.1764 45.1593L34.7203 45.0375L34.8412 45.5857L35.3851 45.4639L35.506 46.012L33.2698 46.4383L33.149 45.8902L32.6051 46.012L31.8496 42.0838L31.3057 42.2056L31.1848 41.6574L31.7287 41.5356L31.6079 40.9875L33.2698 40.6525L34.1764 45.1593ZM38.8601 45.4334L36.0801 45.9815L35.9592 45.4334L35.4153 45.5552L35.2944 45.0071L35.8384 44.8853L35.0829 40.9571L35.6268 40.8353L35.506 40.2871L36.624 40.074L37.591 45.1289L38.7091 44.9157L38.8601 45.4334ZM35.9592 45.403L36.5032 45.2812L36.3823 44.733L35.8384 44.8548L35.9592 45.403Z" fill="#000CA0"/>
<path d="M29.9762 6.72974H9.39783V17.7227H29.9762V6.72974Z" fill="#000CA0"/>
<path d="M34.8412 28.9591V32.2478C34.8412 34.349 33.149 36.0542 31.0639 36.0542H8.30989C6.22486 36.0542 4.53266 34.349 4.53266 32.2478V28.9591C4.53266 28.6546 4.7744 28.4109 5.07658 28.4109H34.3275C34.5994 28.4109 34.8412 28.6546 34.8412 28.9591ZM34.8412 15.2255V17.418C34.8412 17.7225 34.5994 17.9661 34.2972 17.9661H5.04636C4.74418 17.9661 4.50244 17.7225 4.50244 17.418V15.2255C4.50244 9.50067 9.12577 4.87207 14.7765 4.87207H24.5369C30.2178 4.87207 34.8109 9.53112 34.8412 15.2255Z" fill="#F9EB46"/>
<path d="M31.0338 36.6329H8.30994C5.89251 36.6329 3.92835 34.6536 3.92835 32.2175V28.9592C3.92835 28.3197 4.44205 27.8021 5.07663 27.8021H34.3275C34.9621 27.8021 35.4758 28.3197 35.4758 28.9592V32.248C35.4456 34.6536 33.4512 36.6329 31.0338 36.6329ZM5.10685 29.0201V32.2175C5.10685 33.9837 6.52709 35.4149 8.27972 35.4149H31.0338C32.7864 35.4149 34.2066 33.9837 34.2066 32.2175V29.0201H5.10685ZM34.2973 18.5753H5.04641C4.41184 18.5753 3.89813 18.0576 3.89813 17.4182V15.2257C3.89813 9.16585 8.79342 4.26318 14.7766 4.26318H24.5369C30.5503 4.26318 35.4153 9.1963 35.4153 15.2257V17.4182C35.4456 18.0576 34.9319 18.5753 34.2973 18.5753ZM5.10685 17.3573H34.2066V15.2257C34.2066 9.83578 29.8553 5.48124 24.5369 5.48124H14.8068C9.48843 5.48124 5.13706 9.86623 5.13706 15.2257V17.3573H5.10685Z" fill="#000CA0"/>
<path d="M6.13425 22.5949H7.97754L8.9143 24.4829C9.03517 24.7265 9.30713 24.8483 9.57909 24.7569L15.9853 22.5949H33.2094C33.5116 22.5949 33.7534 22.3513 33.7534 22.0468V19.8543C33.7534 19.5498 33.5116 19.3062 33.2094 19.3062H6.13425C5.83207 19.3062 5.59033 19.5498 5.59033 19.8543V22.0468C5.59033 22.3513 5.83207 22.5949 6.13425 22.5949Z" fill="#2FF0CC"/>
<path d="M5.59033 26.4623C5.59033 26.7668 5.83207 27.0104 6.13425 27.0104H33.2094C33.5116 27.0104 33.7534 26.7668 33.7534 26.4623V24.2698C33.7534 23.9653 33.5116 23.7217 33.2094 23.7217H16.1364L9.88127 25.8228C9.12582 26.0664 8.27972 25.7315 7.91711 25.0006L7.28253 23.7217H6.13425C5.83207 23.7217 5.59033 23.9653 5.59033 24.2698V26.4623Z" fill="#FF58D1"/>
<path d="M10.244 11.4497C10.244 11.1452 10.0022 10.9016 9.70005 10.9016C9.39787 10.9016 9.15613 11.1452 9.15613 11.4497V12.546C9.15613 12.8505 9.39787 13.0941 9.70005 13.0941C10.0022 13.0941 10.244 12.8505 10.244 12.546V11.4497Z" fill="#000CA0"/>
<path d="M13.5075 14.708C13.5075 14.4035 13.2657 14.1599 12.9635 14.1599C12.6614 14.1599 12.4196 14.4035 12.4196 14.708V15.8043C12.4196 16.1088 12.6614 16.3524 12.9635 16.3524C13.2657 16.3524 13.5075 16.1088 13.5075 15.8043V14.708Z" fill="#000CA0"/>
<path d="M13.5075 8.16092C13.5075 7.8564 13.2657 7.61279 12.9635 7.61279C12.6614 7.61279 12.4196 7.8564 12.4196 8.16092V9.25717C12.4196 9.56168 12.6614 9.80529 12.9635 9.80529C13.2657 9.80529 13.5075 9.56168 13.5075 9.25717V8.16092Z" fill="#000CA0"/>
<path d="M16.7407 11.4497C16.7407 11.1452 16.499 10.9016 16.1968 10.9016C15.8946 10.9016 15.6529 11.1452 15.6529 11.4497V12.546C15.6529 12.8505 15.8946 13.0941 16.1968 13.0941C16.499 13.0941 16.7407 12.8505 16.7407 12.546V11.4497Z" fill="#000CA0"/>
<path d="M20.0042 14.708C20.0042 14.4035 19.7625 14.1599 19.4603 14.1599C19.1581 14.1599 18.9164 14.4035 18.9164 14.708V15.8043C18.9164 16.1088 19.1581 16.3524 19.4603 16.3524C19.7625 16.3524 20.0042 16.1088 20.0042 15.8043V14.708Z" fill="#000CA0"/>
<path d="M20.0042 8.16092C20.0042 7.8564 19.7625 7.61279 19.4603 7.61279C19.1581 7.61279 18.9164 7.8564 18.9164 8.16092V9.25717C18.9164 9.56168 19.1581 9.80529 19.4603 9.80529C19.7625 9.80529 20.0042 9.56168 20.0042 9.25717V8.16092Z" fill="#000CA0"/>
<path d="M23.2376 11.4497C23.2376 11.1452 22.9959 10.9016 22.6937 10.9016C22.3915 10.9016 22.1498 11.1452 22.1498 11.4497V12.546C22.1498 12.8505 22.3915 13.0941 22.6937 13.0941C22.9959 13.0941 23.2376 12.8505 23.2376 12.546V11.4497Z" fill="#000CA0"/>
<path d="M26.5011 14.708C26.5011 14.4035 26.2593 14.1599 25.9571 14.1599C25.655 14.1599 25.4132 14.4035 25.4132 14.708V15.8043C25.4132 16.1088 25.655 16.3524 25.9571 16.3524C26.2593 16.3524 26.5011 16.1088 26.5011 15.8043V14.708Z" fill="#000CA0"/>
<path d="M26.5011 8.16092C26.5011 7.8564 26.2593 7.61279 25.9571 7.61279C25.655 7.61279 25.4132 7.8564 25.4132 8.16092V9.25717C25.4132 9.56168 25.655 9.80529 25.9571 9.80529C26.2593 9.80529 26.5011 9.56168 26.5011 9.25717V8.16092Z" fill="#000CA0"/>
<path d="M29.7344 11.4497C29.7344 11.1452 29.4927 10.9016 29.1905 10.9016C28.8883 10.9016 28.6466 11.1452 28.6466 11.4497V12.546C28.6466 12.8505 28.8883 13.0941 29.1905 13.0941C29.4927 13.0941 29.7344 12.8505 29.7344 12.546V11.4497Z" fill="#000CA0"/>
</g>
<defs>
<clipPath id="clip0">
<rect width="43" height="56" fill="white"/>
</clipPath>
</defs>
</svg>
