<svg width="351" height="423" viewBox="0 0 351 423" fill="none" xmlns="http://www.w3.org/2000/svg">
<rect x="93.1445" y="0.998779" width="264" height="448" rx="24" transform="rotate(12 93.1445 0.998779)" fill="#00034D"/>
<rect x="100.077" y="11.6733" width="246" height="414" rx="15" transform="rotate(12 100.077 11.6733)" fill="url(#paint0_radial_3336_4069)" stroke="#00034D" stroke-width="2"/>
<g clip-path="url(#clip0_3336_4069)">
<g clip-path="url(#clip1_3336_4069)">
<path d="M156.671 215.083L128.513 242.14L128.458 242.128L135.178 210.514L107.126 237.594L106.97 237.561L113.69 205.947L107.933 204.723L99.6573 243.655L106.734 245.16L125.498 227.769L121.15 248.224L128.223 249.727L163.798 216.598L156.671 215.083Z" fill="#00034D"/>
<path d="M135.987 251.378L143.06 252.881L171.152 225.862L171.207 225.874L164.497 257.438L170.255 258.661L178.518 219.783L171.441 218.279L135.987 251.378Z" fill="#00034D"/>
<path d="M217.878 248.549C218.69 244.678 218.32 240.649 216.816 236.969C215.312 233.288 212.74 230.119 209.423 227.86C206.106 225.601 202.192 224.353 198.173 224.272C194.153 224.191 190.207 225.281 186.83 227.405C184.645 228.804 182.755 230.604 181.262 232.707C179.697 234.905 178.612 237.4 178.075 240.037C177.508 242.621 177.494 245.297 178.034 247.894C178.549 250.42 179.555 252.826 180.997 254.982C182.444 257.144 184.291 259.02 186.443 260.51C188.67 262.055 191.193 263.134 193.855 263.683C196.707 264.32 199.661 264.337 202.511 263.732L200.404 258.838C198.586 259.164 196.717 259.118 194.914 258.703C192.121 258.172 189.552 256.821 187.545 254.829C185.58 252.808 184.248 250.274 183.711 247.532C183.536 246.479 183.442 245.416 183.429 244.35C183.418 243.305 183.521 242.262 183.736 241.24C183.959 240.179 184.297 239.146 184.745 238.158C185.174 237.218 185.685 236.318 186.275 235.468C187.854 233.142 190.102 231.334 192.735 230.275C195.008 229.452 197.455 229.188 199.863 229.506C202.272 229.824 204.569 230.715 206.556 232.102C208.099 233.212 209.406 234.61 210.401 236.216C211.391 237.837 212.059 239.627 212.369 241.491C212.696 243.445 212.645 245.44 212.221 247.37C211.847 249.087 211.175 250.726 210.234 252.214C209.5 253.366 208.616 254.418 207.604 255.343C206.965 255.985 206.242 256.543 205.456 257.001C204.693 257.435 203.902 257.819 203.089 258.151L204.467 261.27L205.173 262.885L206.686 266.405L213.025 267.752L209.828 260.455C213.983 257.673 216.869 253.405 217.878 248.549Z" fill="#00034D"/>
<path d="M229.693 246.266C230.841 245.635 231.941 244.924 232.986 244.139C233.991 243.385 234.894 242.507 235.673 241.526C236.404 240.617 236.912 239.554 237.158 238.418C237.36 237.606 237.39 236.761 237.246 235.936C237.102 235.11 236.786 234.321 236.319 233.619C235.382 232.214 233.841 231.283 231.732 230.835C230.518 230.558 229.258 230.555 228.046 230.824C226.892 231.097 225.846 231.692 225.032 232.538C224.117 233.526 223.492 234.741 223.221 236.054L223.185 236.225L227.136 237.065L227.172 236.893C227.333 236.036 227.787 235.259 228.459 234.694C228.806 234.426 229.213 234.243 229.647 234.162C230.081 234.08 230.529 234.102 230.954 234.226C231.949 234.437 232.58 234.868 232.878 235.539C233.183 236.232 233.255 237.002 233.082 237.735C232.861 238.65 232.393 239.488 231.729 240.16C230.892 241.034 229.961 241.815 228.953 242.491C227.748 243.306 226.5 244.056 225.213 244.739C223.83 245.472 222.402 246.218 220.968 246.945L220.893 246.986L220.28 249.87L234.617 252.917L235.321 249.605L226.81 247.796C227.733 247.328 228.699 246.817 229.693 246.266Z" fill="#00034D"/>
<path d="M251.35 246.861C250.902 245.998 250.203 245.285 249.342 244.814C250.149 244.66 250.902 244.31 251.532 243.795C252.375 243.106 252.943 242.144 253.135 241.079C253.343 240.126 253.276 239.134 252.944 238.212C252.58 237.243 251.948 236.392 251.119 235.757C250.108 234.986 248.927 234.46 247.674 234.224C245.911 233.775 244.046 233.986 242.441 234.817C241.686 235.245 241.032 235.825 240.52 236.519C240.009 237.214 239.651 238.007 239.472 238.848L239.433 239.029L243.398 239.871L243.432 239.714C243.624 239.008 244.065 238.393 244.677 237.981C245.33 237.625 246.09 237.501 246.829 237.629C247.568 237.758 248.241 238.132 248.737 238.689C248.921 238.947 249.046 239.242 249.104 239.552C249.161 239.861 249.149 240.179 249.07 240.483C249.017 240.853 248.868 241.202 248.638 241.498C248.407 241.793 248.103 242.024 247.754 242.168C246.957 242.473 246.082 242.524 245.25 242.314L243.536 241.95L242.832 245.262L244.514 245.62C245.531 245.791 246.47 246.274 247.196 247C247.499 247.332 247.713 247.734 247.818 248.167C247.922 248.601 247.914 249.053 247.794 249.482C247.724 249.87 247.575 250.24 247.357 250.57C247.139 250.9 246.856 251.183 246.524 251.402C246.148 251.619 245.731 251.759 245.298 251.813C244.865 251.866 244.425 251.833 244.004 251.714C243.534 251.645 243.083 251.478 242.681 251.225C242.279 250.973 241.935 250.64 241.672 250.248C241.208 249.495 241.056 248.598 241.246 247.742L241.281 247.579L237.279 246.729L237.243 246.9C236.935 248.212 237.017 249.587 237.479 250.86C237.93 251.976 238.7 252.94 239.697 253.634C240.777 254.365 241.998 254.868 243.282 255.112C244.623 255.441 246.024 255.436 247.357 255.098C248.464 254.813 249.464 254.226 250.243 253.404C251.022 252.582 251.548 251.559 251.761 250.452C252.058 249.248 251.913 247.976 251.35 246.861Z" fill="#00034D"/>
</g>
</g>
<defs>
<radialGradient id="paint0_radial_3336_4069" cx="0" cy="0" r="1" gradientUnits="userSpaceOnUse" gradientTransform="translate(356.992 306.801) rotate(97.2556) scale(260.672 248.35)">
<stop stop-color="#FFAE73"/>
<stop offset="1" stop-color="#FFF7E9"/>
</radialGradient>
<clipPath id="clip0_3336_4069">
<rect width="150.175" height="40" fill="white" transform="translate(108.148 204.567) rotate(12)"/>
</clipPath>
<clipPath id="clip1_3336_4069">
<rect width="150.179" height="40" fill="white" transform="translate(107.974 204.53) rotate(12)"/>
</clipPath>
</defs>
</svg>
