<svg xmlns="http://www.w3.org/2000/svg" viewBox="0 0 38 39"><path d="M19,25.91s8-4.66,8-12.1a8,8,0,0,0-16,0C11,21.25,19,25.91,19,25.91Zm0-15.13a3,3,0,1,1-.07,0Z" fill="#0B1237"/><path d="M30.64,23.71a10.44,10.44,0,0,0-3.3-1.65L27.06,22c-.3.47-.66.93-1,1.39l.79.23c1.91.6,4.19,1.77,4.19,3.87,0,1.16-.73,2.78-4.19,3.87a26.92,26.92,0,0,1-7.88,1,26.78,26.78,0,0,1-7.85-1.05C9.21,30.74,7,29.57,7,27.47c0-1.16.72-2.78,4.18-3.87l.78-.23a13.82,13.82,0,0,1-1-1.39l-.27.08a9.23,9.23,0,0,0-4.11,2.38,4.58,4.58,0,0,0-1.2,3,4.7,4.7,0,0,0,2,3.76,10.59,10.59,0,0,0,3.31,1.65A28.85,28.85,0,0,0,19,34a28.89,28.89,0,0,0,8.37-1.12,9.23,9.23,0,0,0,4.11-2.38,4.58,4.58,0,0,0,1.2-3A4.67,4.67,0,0,0,30.64,23.71Z" fill="#0B1237"/><path d="M18.8,31a32.62,32.62,0,0,1-6-.53,10,10,0,0,1-2.53-.78,2.53,2.53,0,0,1-1.72-2.12A2.22,2.22,0,0,1,9.67,25.8a8.67,8.67,0,0,1,3.17-1.15l.41-.08.16.16a7.08,7.08,0,0,0,.69.6l.83.64-1.59.3c-2,.38-2.69.94-2.69,1.3s.7.92,2.68,1.3a29.46,29.46,0,0,0,5.34.47h.68a30.13,30.13,0,0,0,5.31-.46c2.62-.51,2.69-1.22,2.69-1.3,0-.36-.7-.92-2.7-1.31L23.13,26l.91-.77c.19-.16.38-.32.56-.49l.15-.14.4.06a10.33,10.33,0,0,1,2.54.78,2.52,2.52,0,0,1,1.72,2.15,2.22,2.22,0,0,1-1.08,1.76,8.67,8.67,0,0,1-3.17,1.15,33.66,33.66,0,0,1-5.88.52Z" fill="#0B1237"/></svg>
