<?xml version="1.0" encoding="UTF-8"?>
<svg width="858px" height="226px" viewBox="0 0 858 226" version="1.1" xmlns="http://www.w3.org/2000/svg" xmlns:xlink="http://www.w3.org/1999/xlink">
    <title>Logo_Boreale_H_box_cmyk</title>
    <g id="Page-1" stroke="none" stroke-width="1" fill="none" fill-rule="evenodd">
        <g id="Logo_Boreale_H_box_cmyk" transform="translate(0, 0)" fill-rule="nonzero">
            <g id="g8" transform="translate(428.8513, 112.9253) scale(-1, 1) rotate(-180) translate(-428.8513, -112.9253)translate(0, -0)">
                <g id="g10" transform="translate(-0, -0)">
                    <g id="Group" transform="translate(0, 0)">
                        <path d="M857.702645,0 L857.702645,225.850578 L1.63014717e-15,225.850578 L1.63014717e-15,0 L857.702645,0 Z M331.482658,50.1077821 L289.717326,50.1077821 C289.355993,50.1077821 289.063993,50.4009821 289.063993,50.7624487 L289.063993,175.081246 C289.063993,175.442579 289.355993,175.734579 289.717326,175.734579 L302.414659,175.734579 L306.441326,184.069245 C306.550659,184.294579 306.779992,184.438579 307.030659,184.438579 L322.618659,184.438579 C322.854659,184.438579 323.073325,184.310579 323.189325,184.102579 C323.305325,183.895912 323.299992,183.642579 323.175992,183.441245 L318.434659,175.734579 L331.123992,175.734579 C331.485325,175.734579 331.777325,175.442579 331.777325,175.081246 L331.777325,158.978579 C331.777325,158.617246 331.485325,158.323913 331.123992,158.323913 L308.267992,158.323913 L308.267992,122.79378 L330.226658,122.79378 C330.587992,122.79378 330.879992,122.50058 330.879992,122.139114 L330.879992,106.036981 C330.879992,105.674981 330.587992,105.382314 330.226658,105.382314 L308.267992,105.382314 L308.267992,67.518715 L331.482658,67.518715 C331.843992,67.518715 332.137325,67.2249817 332.137325,66.8640483 L332.137325,50.7624487 C332.137325,50.4009821 331.843992,50.1077821 331.482658,50.1077821 Z M162.490663,49.0307154 L152.26133,49.0307154 C144.486663,49.0307154 138.590663,50.9853821 134.73733,54.838582 C130.882797,58.6932485 128.929197,64.5891151 128.929197,72.3624482 L128.929197,153.479913 C128.929197,161.254579 130.882797,167.150579 134.73733,171.003912 C138.590663,174.857246 144.486663,176.811912 152.26133,176.811912 L162.490663,176.811912 C170.263996,176.811912 176.159996,174.857246 180.013329,171.003912 C183.866662,167.150579 185.821329,161.254579 185.821329,153.479913 L185.821329,72.3624482 C185.821329,64.5891151 183.866662,58.6932485 180.013329,54.838582 C176.159996,50.9853821 170.263996,49.0307154 162.490663,49.0307154 Z M528.918653,50.1077821 L487.153321,50.1077821 C486.791988,50.1077821 486.498655,50.4009821 486.498655,50.7624487 L486.498655,175.081246 C486.498655,175.442579 486.791988,175.734579 487.153321,175.734579 L528.559987,175.734579 C528.92132,175.734579 529.21332,175.442579 529.21332,175.081246 L529.21332,158.978579 C529.21332,158.617246 528.92132,158.323913 528.559987,158.323913 L505.703987,158.323913 L505.703987,122.793247 L527.662653,122.793247 C528.023987,122.793247 528.31732,122.500047 528.31732,122.13858 L528.31732,106.036981 C528.31732,105.674981 528.023987,105.382314 527.662653,105.382314 L505.703987,105.382314 L505.703987,67.518715 L528.918653,67.518715 C529.279987,67.518715 529.57332,67.2249817 529.57332,66.8640483 L529.57332,50.7624487 C529.57332,50.4009821 529.279987,50.1077821 528.918653,50.1077821 Z M469.243988,50.1077821 L430.170656,50.1077821 C429.809323,50.1077821 429.517323,50.4009821 429.517323,50.7624487 L429.517323,175.081246 C429.517323,175.442579 429.809323,175.734579 430.170656,175.734579 L448.067989,175.734579 C448.429322,175.734579 448.721322,175.442579 448.721322,175.081246 L448.721322,67.518715 L469.243988,67.518715 C469.605322,67.518715 469.898655,67.2249817 469.898655,66.8640483 L469.898655,50.7624487 C469.898655,50.4009821 469.605322,50.1077821 469.243988,50.1077821 Z M365.926658,50.1077821 L349.493325,50.1077821 C349.303991,50.1077821 349.123991,50.1905821 348.998658,50.3333821 C348.874658,50.4760487 348.818658,50.6667154 348.845325,50.8547154 L366.605324,175.173246 C366.651991,175.495912 366.927991,175.734579 367.253324,175.734579 L391.60399,175.734579 C391.929324,175.734579 392.205324,175.495912 392.25199,175.174579 L410.190656,50.8557821 C410.217323,50.6676487 410.161323,50.4771154 410.037323,50.3333821 C409.913323,50.1905821 409.73199,50.1077821 409.542656,50.1077821 L391.849324,50.1077821 C391.51999,50.1077821 391.241324,50.3531154 391.19999,50.6796487 L388.75999,69.8495149 L368.841324,69.8495149 L366.575991,50.6853821 C366.537324,50.3557821 366.258658,50.1077821 365.926658,50.1077821 Z M228.442661,50.1077821 L210.546661,50.1077821 C210.185328,50.1077821 209.891995,50.4009821 209.891995,50.7624487 L209.891995,175.081246 C209.891995,175.442579 210.185328,175.734579 210.546661,175.734579 L241.478661,175.734579 C249.253327,175.734579 255.147994,173.781246 259.00266,169.926579 C262.855993,166.073246 264.81066,160.177246 264.81066,152.40258 L264.81066,128.71458 C264.81066,118.277647 261.537327,112.480714 253.865327,109.331781 C261.76666,107.176047 264.989327,102.392181 264.989327,92.8208477 L264.989327,50.7624487 C264.989327,50.4009821 264.697327,50.1077821 264.335993,50.1077821 L246.438661,50.1077821 C246.077327,50.1077821 245.785327,50.4009821 245.785327,50.7624487 L245.785327,92.4624477 C245.785327,98.0468475 243.294661,100.537514 237.710661,100.537514 L229.097328,100.537514 L229.097328,50.7624487 C229.097328,50.4009821 228.803994,50.1077821 228.442661,50.1077821 Z M81.5234646,50.1077821 L50.7697321,50.1077821 C50.4087987,50.1077821 50.1155987,50.4009821 50.1155987,50.7624487 L50.1155987,175.081246 C50.1155987,175.442579 50.4087987,175.734579 50.7697321,175.734579 L81.163998,175.734579 C88.9379978,175.734579 94.8338643,173.781246 98.6874642,169.926579 C102.541731,166.073246 104.495864,160.177246 104.495864,152.40258 L104.495864,133.91858 C104.495864,123.338047 101.230264,117.415647 93.9098643,114.715647 C101.479197,112.129647 104.854131,106.539647 104.854131,96.5900476 L104.854131,73.4400482 C104.854131,65.665115 102.900531,59.7692485 99.0463975,55.9161819 C95.1926643,52.0624487 89.2969311,50.1077821 81.5234646,50.1077821 Z M159.438663,65.9025817 C164.335996,65.9025817 166.615996,68.241115 166.615996,73.2599148 L166.615996,152.58258 C166.615996,157.602579 164.335996,159.939913 159.438663,159.939913 L155.490663,159.939913 C150.471996,159.939913 148.134663,157.602579 148.134663,152.58258 L148.134663,73.2599148 C148.134663,68.241115 150.471996,65.9025817 155.490663,65.9025817 Z M77.5750647,122.254714 C82.8879979,122.254714 85.4702645,124.83698 85.4702645,130.149513 L85.4702645,151.68658 C85.4702645,156.514579 83.1223979,158.862579 78.2926647,158.862579 L69.1411983,158.862579 L69.1411983,122.254714 Z M237.710661,117.229647 C243.095994,117.229647 245.605327,119.68178 245.605327,124.945247 L245.605327,151.50658 C245.605327,156.335913 243.257327,158.683913 238.427994,158.683913 L229.097328,158.683913 L229.097328,117.229647 Z M386.606657,86.9000478 L378.781324,149.85458 L378.642657,149.85458 L370.994657,86.9000478 L386.606657,86.9000478 Z M78.6521314,66.9796483 C83.4811979,66.9796483 85.8291979,69.3281816 85.8291979,74.1572481 L85.8291979,98.0255142 C85.8291979,103.411914 83.3202646,105.920847 77.9338647,105.920847 L69.1411983,105.920847 L69.1411983,66.9796483 Z M646.873,76.979 L646.847335,76.8223817 C646.607479,75.3599583 646.211984,72.6760482 646.211984,72.6760482 L645.183984,63.6828484 C645.183984,57.2984486 654.251984,55.8385819 656.753317,53.4984487 C657.547984,52.650582 658.07865,51.6495154 658.18265,50.3957821 C658.19465,50.2505821 658.07465,50.1255154 657.929317,50.1255154 L627.529318,50.1197821 L621.919984,50.1197821 C620.059984,50.1197821 619.391985,52.9520487 619.542651,53.916182 C619.261318,53.8880487 618.947985,53.926582 618.781318,54.192182 C619.295985,55.0796486 619.769318,58.3067152 619.867985,58.6557819 L618.494651,58.8572485 C618.707985,59.6588485 618.351985,61.3853818 618.647985,63.0520484 C618.065318,63.0905818 617.637318,63.2427151 617.637318,63.2427151 C618.466651,65.0572484 618.759985,68.2692483 618.662651,69.5864483 C618.356365,69.3181054 617.677835,69.2955421 617.49022,69.2945719 L617.441318,69.2948483 C617.443985,69.4025816 617.259985,72.5009815 617.238651,72.7760482 C617.238651,72.7796482 616.579985,80.500048 616.597318,81.6479146 L616.597318,81.7479146 C616.599985,81.8067146 616.602651,81.857248 616.606651,81.894848 C615.686513,81.1224342 613.962857,79.9058567 612.138165,78.66801 L611.352016,78.137435 C608.374227,76.1374368 605.394652,74.2400481 605.394652,74.2400481 C605.394652,74.2400481 605.373195,74.2258393 605.33213,74.1985219 L605.224402,74.1267347 C604.538387,73.6688986 601.890168,71.8896621 599.318825,70.0028844 L598.822653,69.6366847 C597.175597,68.413716 595.615295,67.1785817 594.689318,66.2572483 C592.557319,64.1359151 594.047985,61.4531151 595.223985,56.7172486 C595.344398,56.2334927 596.465146,55.1052218 597.447303,53.9160217 L597.655229,53.6604732 C599.055888,51.910759 599.984962,50.1197821 596.866652,50.1197821 C594.437632,50.1197821 592.040908,50.110601 589.857767,50.1084407 L587.955502,50.1088296 C587.140031,50.1102338 586.367436,50.1135389 585.649319,50.1197821 L584.689319,50.1197821 C584.173319,50.1197821 583.623985,50.1213821 583.125319,50.1213821 L581.778652,50.1213821 C579.647986,50.1213821 577.575986,56.3796486 577.427986,56.7880486 C577.415033,56.8237819 577.302815,57.1446853 577.184627,57.4898577 L577.096324,57.7492108 C577.038652,57.9197111 576.985319,58.0799724 576.947986,58.1973819 C576.927986,58.2588485 576.634652,59.2172485 576.518652,59.6375152 C576.506652,59.6828485 576.250652,60.6495152 576.149319,61.0864485 C576.147986,61.0880485 575.678652,62.8583151 575.390652,63.6916484 C575.245319,64.1093817 575.093319,64.5187151 574.935986,64.9197817 C574.622652,65.723915 574.286652,66.5000483 573.946652,67.2520483 C573.606652,68.0041816 572.286652,70.8495149 572.002652,71.5291149 C571.718652,72.2093815 571.465319,72.8771148 571.262652,73.5375148 C570.751986,75.1880481 570.550652,76.7921814 570.933319,78.4291147 C571.069319,79.3317814 571.121319,80.1957813 571.133319,80.9239146 C571.141319,81.4093813 571.131986,81.8333813 571.117319,82.1692479 C571.102652,82.5041813 571.061319,82.9719146 571.061319,82.9719146 C571.061319,82.9719146 571.779986,84.1104479 572.385319,84.0651146 L571.237319,85.3077812 C571.287986,85.3307145 577.101319,88.0172478 577.282652,88.1265811 L575.909319,89.7667144 C578.437319,90.4187144 579.693319,91.902581 581.131985,93.4224477 L579.861319,94.323381 C579.925319,94.3943143 585.715985,99.7281808 585.823985,99.8468475 C585.895985,99.9260475 587.310652,101.512981 587.318652,101.811914 L585.969319,102.032314 C587.178652,104.384847 591.098652,111.985914 590.703985,118.22138 C590.330652,124.438047 592.050652,138.891913 595.494652,146.39058 L594.354652,146.84258 C594.354652,146.84258 594.91585,147.64336 595.511552,148.491404 L595.767429,148.855549 C596.319754,149.64128 596.836951,150.374947 596.897318,150.453246 C597.123985,150.747913 597.802652,151.607913 597.906652,151.73458 C597.991985,151.840277 598.281915,152.171178 598.674488,152.614181 L598.98657,152.965685 C599.314713,153.334674 599.686255,153.750814 600.058186,154.166391 L600.428653,154.580013 C601.347181,155.604761 602.17853,156.526579 602.250652,156.599913 C602.699837,157.058579 603.584117,158.00923 603.775078,158.214823 L603.811985,158.254579 C609.445318,163.690579 617.249318,169.505246 626.963984,172.938579 C644.890651,179.267912 657.193317,179.155912 681.23065,170.743912 C682.220285,170.395938 683.361212,170.01395 684.519672,169.635571 L685.055104,169.461328 C688.447886,168.361145 691.814649,167.341246 691.814649,167.341246 C694.546649,166.537246 696.926649,165.937246 699.030649,165.507913 C699.694649,165.374579 700.331982,165.257246 700.943982,165.157246 C708.998649,163.813246 712.637316,165.313246 717.054649,167.589246 C722.6032,170.48143 724.754243,170.359383 729.601336,169.163387 L730.249356,169.001456 C731.356541,168.721953 732.60366,168.395683 734.053315,168.042579 C742.407981,166.033246 750.821315,166.258579 755.794648,169.865246 C756.293314,174.125246 760.899981,177.261246 765.778648,173.997246 C770.430647,175.758579 776.842647,176.305246 780.853314,175.018579 C782.406647,174.535912 783.581314,174.759912 784.75198,174.934579 C785.87198,175.103912 787.109314,174.583912 788.214647,173.862579 C789.21198,173.238579 790.609314,173.481246 792.025314,173.481246 C793.498647,173.481246 794.754647,172.411912 795.79198,170.993246 C796.666647,169.759912 798.422647,169.461246 799.653313,167.733246 C800.37998,166.735912 800.697313,164.681246 799.821313,163.038579 C801.406647,161.581246 804.977313,157.654579 805.866647,156.734579 C806.566647,156.039913 807.378646,154.801246 807.565313,153.883913 C807.570646,153.814579 807.566646,153.743913 807.569313,153.674579 C807.713313,152.647913 807.213313,150.695913 804.789313,147.559913 C804.81598,147.595913 804.72798,147.501246 804.65998,147.41458 C804.690647,147.443913 803.55198,146.027913 802.78798,145.193246 C802.142647,144.47458 800.069313,141.79858 794.79998,141.979913 C791.573314,138.207913 785.938647,133.89058 784.205314,132.348447 C784.178647,132.32498 783.506647,131.662447 783.253314,131.273913 C783.178647,131.17658 782.53598,129.854713 782.510647,129.565113 C782.40798,129.594313 781.033314,130.483913 781.03198,130.485913 C781.001314,130.39738 780.23998,129.017247 780.194647,128.945247 C780.121314,128.82818 778.842647,126.97138 778.767981,126.87658 C778.734647,126.836447 778.478647,126.53018 778.401314,126.453647 C778.401314,126.453114 777.957314,127.04898 777.809314,127.12818 C777.803981,127.117247 776.923981,125.000047 776.919981,124.99218 C776.413314,123.99578 775.597314,122.862447 774.099981,121.92298 C774.098647,121.921914 772.469314,121.091647 772.269314,121.01618 L771.839981,121.967247 C771.513314,121.679647 770.618647,120.787514 769.479981,119.837514 C768.910647,119.362447 768.281314,118.87338 767.630647,118.438047 C766.979981,118.00258 766.309314,117.62138 765.657314,117.362447 C765.594736,117.497878 765.514713,117.666011 765.430998,117.839774 L765.304376,118.101257 C765.178424,118.360194 765.05964,118.601344 764.994445,118.73334 L764.948833,118.825567 L764.942648,118.838047 C764.891981,118.77818 764.823981,118.72138 764.769314,118.661914 L764.748182,118.640634 C764.482027,118.384039 762.439181,116.674736 760.173314,115.519247 C760.121314,115.492714 759.011981,114.853114 758.677314,114.613514 C758.710648,113.79218 758.777314,112.938047 758.873314,112.057247 C758.898981,111.814147 759.02233,110.883679 759.125946,110.145464 L759.1798,109.767154 C759.205044,109.59282 759.227231,109.444681 759.243981,109.340581 C759.314648,108.904714 759.665314,107.010447 759.770648,106.498447 C759.874648,105.992714 760.314648,104.036981 760.427981,103.567647 C760.565314,102.996847 761.942648,97.9339142 762.050648,97.5697809 C762.062648,97.5291142 762.079981,97.4697809 762.102648,97.3979142 C762.109314,97.3744476 762.119981,97.3421809 762.127981,97.3156476 C762.146648,97.2567142 762.163981,97.1979142 762.186648,97.1255142 C762.195981,97.0948476 762.207981,97.0583142 762.218648,97.0255142 C762.239981,96.9577809 762.261314,96.8885809 762.285314,96.8124476 C762.302648,96.7588476 762.321314,96.6989809 762.338648,96.6416476 C762.369314,96.5452476 762.398648,96.4500476 762.431981,96.3443143 C762.481314,96.1921809 762.529314,96.0400476 762.578648,95.8828476 L762.594648,95.8323143 C762.631981,95.7124476 762.671981,95.5891143 762.711981,95.4640476 C762.737314,95.3843143 762.762648,95.3047143 762.787981,95.223381 C762.811981,95.148981 762.834648,95.0739143 762.858648,94.9984476 C762.885314,94.9172476 762.910648,94.835381 762.937314,94.7531143 C763.034648,94.4484476 763.131981,94.1416476 763.226648,93.8443143 C763.243981,93.7911143 763.261314,93.7375143 763.277314,93.685381 L763.305314,93.597381 C763.351981,93.4515143 763.397314,93.3088477 763.441314,93.171381 C763.611981,92.635381 763.757314,92.1796477 763.853314,91.8796477 C763.887981,91.7719144 763.918648,91.6760477 763.938648,91.616181 C765.806648,86.3796478 767.901314,81.405248 769.755981,77.2463147 L775.118647,64.6281817 C776.229314,62.0104484 778.462647,59.5692485 781.162647,58.6812485 C781.162647,58.6812485 786.230647,57.5479152 790.02398,55.8744486 C792.07198,54.5891153 793.58398,53.0343153 794.262647,50.4343154 C794.30398,50.2760487 794.17998,50.1197821 794.01598,50.1197821 L759.217314,50.1197821 C757.929314,50.1197821 756.794648,50.5077821 755.875981,51.409382 C755.569314,51.7104487 755.285314,52.0052487 755.009314,52.297382 C753.619981,53.297382 751.947981,54.1760486 751.947981,54.1760486 L752.906648,54.6932486 C752.625315,55.0411153 752.389315,55.3400486 752.210648,55.5583153 C751.949315,55.8785819 750.121315,57.4437819 749.770648,57.5667152 C749.418648,57.6880486 749.106648,57.8291152 748.778648,57.9839152 C749.157315,58.1615152 749.963981,58.7437819 750.310648,59.1667152 C750.310648,59.1667152 749.271981,58.8812485 748.002648,59.3708485 C747.579981,59.5333818 747.130648,59.7812485 746.686648,60.1557818 C746.578648,60.2463152 745.677315,61.2333818 745.363981,61.6957818 C745.258648,61.8495151 745.170648,62.0009818 745.093315,62.1479151 C744.939981,62.4427151 744.611981,63.4853817 744.551981,63.7067151 L743.547981,63.1640484 C743.547981,63.1640484 743.133315,66.3129817 742.474648,67.441115 C742.474648,67.441115 741.810648,66.6864483 741.803981,66.6932483 C741.755981,66.749515 740.247981,70.3255149 740.190648,70.5760482 L739.274648,69.6615149 C739.202648,69.7505816 738.211982,71.4104482 737.103982,76.6973814 C737.103982,76.6984481 736.282648,76.7957814 736.282648,76.7957814 C736.247982,77.1676481 735.923982,79.5495147 735.847982,79.9197813 C735.755982,80.4291147 735.649315,80.957248 735.510648,81.494848 C734.890635,83.2356919 734.104873,83.2959566 733.381348,83.5138213 L733.267657,83.5497987 C732.193143,83.9091178 731.285659,84.8407159 731.314648,92.5484477 C731.317315,92.986981 731.319982,93.435381 731.327982,93.9187143 C730.327982,93.2552477 729.259982,92.536981 728.170648,91.7828477 C723.689315,88.3708478 719.501315,84.1828479 718.583982,81.5531146 C718.583982,81.5531146 718.210649,81.870848 717.831982,82.3333813 L717.835213,82.3052811 C717.872179,81.980165 718.21364,78.8816552 718.195982,75.5077814 C717.917315,66.8796483 715.810649,61.8864485 717.990649,59.3009819 C720.171982,56.7145819 725.455982,56.7572486 728.486648,54.8667153 C730.803982,53.419782 731.247982,51.3265821 731.386648,50.4853821 C731.417315,50.2921821 731.267982,50.1187154 731.071982,50.1187154 L704.563982,50.1197821 L697.139983,50.1197821 C696.814649,50.1197821 696.495983,50.1520487 696.189316,50.2145821 C695.899983,50.2733821 695.622649,50.3624487 695.354649,50.4719154 C695.266649,50.5077821 694.413316,50.9984487 694.325316,51.0640487 C694.183983,51.1692487 694.046649,51.2785821 693.918649,51.397382 C693.834649,51.4760487 693.755983,51.5583154 693.677316,51.6427154 C693.559983,51.7676487 693.450649,51.9000487 693.346649,52.038582 C693.278649,52.1307154 693.210649,52.2239154 693.147983,52.321382 C693.053316,52.4692487 692.970649,52.6255154 692.891983,52.7839153 C692.842649,52.8839153 692.790649,52.9828487 692.747983,53.0864487 C692.674649,53.2667153 692.619983,53.4547153 692.567983,53.6452487 C692.542649,53.738582 692.509316,53.828182 692.490649,53.9239153 C692.430649,54.214582 692.391983,54.5119153 692.387983,54.819782 C692.377316,55.5265819 692.409316,56.0213819 692.409316,56.0213819 L692.379796,56.0216969 C692.212498,56.0302266 691.362649,56.1629451 690.565316,57.9317819 C691.269316,58.4599152 691.678649,58.6385819 691.813316,58.9343152 C691.813316,58.9343152 691.294649,59.1239152 690.835983,59.5385818 C691.282649,60.2853818 691.529316,60.8667151 691.553316,61.5583151 C691.025316,63.0145818 689.830649,66.2385817 689.823983,67.506715 L688.786649,66.8572483 C688.485316,67.430715 687.937316,69.0957816 687.750649,70.4052482 C687.645316,71.1077816 687.738649,72.1812482 687.955983,73.1427148 C687.955983,73.1427148 687.107983,73.0479148 686.63065,72.9255148 C686.997316,74.4651148 687.027983,75.0640481 687.221316,76.6317814 C687.370649,77.6052481 687.431983,77.8932481 687.694649,78.8905814 C687.694649,78.8905814 687.108431,78.7603105 686.478092,78.5890935 L686.186007,78.5074881 L686.041316,78.4651147 C686.04265,78.9187147 686.079983,79.3265814 686.137316,79.717248 L686.131983,79.7041813 L687.786649,92.021381 C683.955983,91.5187144 677.195983,91.802581 674.347983,90.3104477 L674.099983,91.704181 C672.477317,91.2957811 671.25465,90.8224477 668.21065,90.3719144 L668.125317,91.4948477 C666.95465,91.443781 665.329317,91.3265811 663.92665,90.2411144 L663.415983,91.5828477 C661.133317,91.2984477 659.99465,90.8343144 658.699984,90.4957811 C659.02265,91.4719144 659.25465,92.212981 659.25465,92.212981 C657.389317,91.9187144 653.535984,91.1796477 651.16265,91.5400477 C650.13065,90.0708477 649.445317,89.0760478 648.811984,86.6009812 C647.70265,82.3583146 647.495984,79.782848 646.861317,76.9255147 L646.898,77.098 L646.903,77.125 L646.899984,77.1086314 L646.878,77.003 L646.873,76.979 Z" id="Combined-Shape" fill="#192C4E"></path>
                        <g id="Group-3" transform="translate(570.7339, 50.1198)" fill="#E2E2E2">
                            <path d="M192.698059,120.533464 C191.319392,120.245464 192.218059,119.350797 191.946059,118.46013 C191.664726,117.585464 190.392726,115.254797 189.684726,116.325464 C188.203392,118.55613 187.218059,121.122797 188.980726,122.585464 C190.176726,123.54413 192.040726,122.954797 193.103392,122.290797 C194.003392,121.749464 194.099392,120.79613 192.698059,120.533464" id="path30"></path>
                            <path d="M216.114058,113.901464 C215.484725,113.97213 214.928725,114.658797 213.926058,113.606797 C212.927392,112.574797 211.483392,113.470797 210.847392,114.009464 C210.212725,114.549464 210.152725,114.49213 211.040725,115.44013 C211.920725,116.40413 215.090058,115.701464 216.442058,114.734797 C216.691392,114.55613 216.766058,113.842797 216.114058,113.901464" id="path32"></path>
                            <path d="M227.946058,114.10413 C227.531391,114.306797 227.138058,112.920131 226.362058,114.026797 C225.568725,115.161464 227.204725,116.35613 228.306058,115.021464 C228.886058,114.310797 228.524725,113.825464 227.946058,114.10413" id="path34"></path>
                            <path d="M232.054058,95.0734643 C230.320725,95.180131 229.552725,95.2827976 227.020725,94.6294643 C224.564725,93.9667977 221.027391,96.2667976 219.906058,96.8494642 C218.720725,97.4321309 219.552725,98.6867975 220.388725,98.1214642 C225.020725,94.9787976 227.843391,97.3707976 230.262058,96.8974642 C230.611391,96.8454642 232.282058,96.6201309 232.620725,96.6867976 C233.266058,96.8067976 235.010058,97.4521309 233.808724,98.7307975 C233.588724,98.9374642 232.208725,99.7027975 232.208725,99.7027975 C232.208725,99.7027975 231.207391,100.237464 230.506058,101.018797 C229.910058,101.686797 229.679391,102.221464 229.794058,103.670797 C229.910058,105.054797 231.602058,105.088131 232.874058,105.130797 C235.576724,105.209464 236.494058,104.700131 236.734058,103.958797 C237.158058,102.916131 236.734058,100.185464 232.054058,95.0734643" id="path36"></path>
                            <path d="M7.4233968,14.3854663 L7.4473968,15.1239996 C6.91539681,17.3478662 5.81139684,22.5947994 7.26606347,25.4989327 L3.66206356,26.6775993 C6.61139682,31.2239992 9.62073008,38.9202657 19.8367298,40.808399 L19.0767298,43.3843989 C22.3927298,45.2369322 28.010063,50.4469321 28.010063,50.4469321 L26.778063,52.3359987 C31.2287295,56.0478653 32.5593962,62.2874651 33.8807295,65.9791984 L31.9353962,67.1379983 C32.8807295,71.8125315 31.8460629,74.8417315 35.1100628,79.0901314 L33.6073961,80.899998 L34.7847295,82.6895979 C26.6287297,90.1721311 30.1380629,101.448131 33.0780628,108.134797 C33.0780628,108.134797 32.0220629,106.996131 31.5167295,106.480131 C31.3580629,106.318797 27.5247296,102.050797 27.1727296,101.614797 C27.0687296,101.488131 26.390063,100.628131 26.1633963,100.333464 C26.0287297,100.158797 23.6207297,96.7227976 23.6207297,96.7227976 L24.7607297,96.2707976 L24.7607297,96.2707976 L24.7607297,96.2707976 C21.3167298,88.7721311 19.5967298,74.3182648 19.9700632,68.1015983 C20.3647298,61.8661318 16.4447299,54.2650653 15.2340633,51.912532 L16.5847299,51.692132 C16.5767299,51.3931987 15.1620633,49.8062654 15.0900633,49.7270654 C14.9820633,49.6083988 9.19139676,44.2745322 9.12739676,44.2035989 L10.3980634,43.3026656 C8.95939676,41.782799 7.70339679,40.2989323 5.17539686,39.6469323 L6.54873016,38.006799 C6.36739683,37.8974657 0.55406364,35.2109325 0.503396975,35.1879991 L1.65139695,33.9453325 C1.04606363,33.9906658 0.327396979,32.8521325 0.327396979,32.8521325 C0.327396979,32.8521325 0.368730312,32.3843992 0.383396978,32.0494659 C0.398063644,31.7135992 0.407396977,31.2895992 0.399396977,30.8041326 C0.387396978,30.0759992 0.335396979,29.2119993 0.198063649,28.3093326 C-0.183269675,26.6723993 0.0180636537,25.068266 0.528730308,23.4177327 C0.731396969,22.7573328 0.984730296,22.0895994 1.26873029,21.4093328 C1.55273028,20.7297328 2.87273025,17.8843996 3.21273024,17.1322662 C3.55273023,16.3802663 3.88873022,15.6041329 4.20206355,14.7999996 C4.35939688,14.398933 4.51139687,13.9895997 4.6567302,13.5718663 C4.9447302,12.738533 5.41406352,10.9682664 5.41539685,10.9666664 C5.51673018,10.5297331 5.77273018,9.56306643 5.78473018,9.5177331 C5.90073017,9.09746644 6.1940635,8.13906646 6.2140635,8.0775998 C6.34473016,7.66666648 6.67139682,6.73079983 6.69406349,6.6682665 C6.84206348,6.25986651 8.91406343,0.00159999996 11.04473,0.00159999996 C11.9913967,0.00159999996 15.7873966,1.13686838e-13 15.7873966,1.13686838e-13 C15.7873966,1.13686838e-13 15.0367299,0.498933321 14.2140633,1.2333333 C10.6433967,4.42973322 6.60073016,12.357333 7.4233968,14.3854663" id="path38"></path>
                            <path d="M220.092725,92.5014644 C216.803392,92.6307977 216.664725,85.6934645 203.363392,89.4387978 L202.544725,89.0401311 C199.542059,89.5254644 198.227392,90.0641311 196.956725,91.2601311 L195.835392,89.0641311 C196.840725,87.8347978 198.667392,84.7201312 197.474059,81.5286646 C196.218059,78.2765314 194.016725,76.2311981 192.082059,74.8641315 C190.146059,73.4963982 186.740726,68.9421316 187.000726,64.1202651 C185.124726,60.8234651 183.039392,54.4583986 181.643392,52.8187987 L180.336726,54.1682653 C177.743393,50.9921321 174.000726,49.1849321 170.660726,47.8573321 L168.884726,49.9177321 C165.384726,47.3963988 165.108726,46.9843988 160.59406,43.7989322 C160.58606,43.3155989 160.583393,42.8671989 160.580726,42.4286656 C160.531393,29.3119993 163.19406,35.8187991 164.776726,31.3750659 C164.915393,30.8374659 165.02206,30.3093326 165.11406,29.7999993 C165.19006,29.4297326 165.51406,27.047866 165.548726,26.6759993 C165.548726,26.6759993 166.370059,26.578666 166.370059,26.5775993 C167.478059,21.2906661 168.467393,19.6307995 168.538059,19.5426662 L168.540726,19.5417328 L169.456726,20.4562662 C169.514059,20.2057328 171.022059,16.6297329 171.070059,16.5734663 C171.076726,16.5666663 171.740726,17.3213329 171.740726,17.3213329 C172.399393,16.1931996 172.814059,13.0442663 172.814059,13.0442663 L173.818059,13.586933 C173.878059,13.3655997 174.206059,12.322933 174.359393,12.028133 C174.436726,11.8811997 174.524726,11.729733 174.630059,11.5759997 C174.943393,11.1135997 175.844726,10.1265331 175.952726,10.0359997 C176.396726,9.66146643 176.846059,9.41359976 177.268726,9.24946644 C178.538059,8.76146645 179.576726,9.04693311 179.576726,9.04693311 C179.230059,8.62399978 178.423393,8.04173313 178.044726,7.86413314 C178.372726,7.70933314 178.684726,7.56826648 179.036726,7.44693315 C179.387393,7.32399982 181.215392,5.75879986 181.476726,5.4385332 C181.651392,5.22399987 181.890059,4.92546654 182.175392,4.57506655 L181.214059,4.05626657 C181.214059,4.05626657 182.886059,3.17759992 184.275392,2.17759995 C184.551392,1.88546662 184.835392,1.59066663 185.142059,1.28959997 C186.060726,0.38799999 187.195392,0 188.483392,0 L196.924725,0 C192.404726,1.5109333 192.391392,2.95466659 192.096726,4.35986656 C192.030059,4.67759988 191.862059,5.02293321 191.642059,5.33906653 C191.244726,4.94786654 190.839392,4.87346654 190.574059,5.18799987 C188.394059,7.77186647 187.520726,9.71359976 186.472726,12.4827997 L185.235392,11.7239997 C183.610059,13.1307997 182.908726,14.909333 182.136726,16.7734662 L180.763392,14.4562663 C179.543392,15.7177329 179.058059,17.7775996 178.727393,19.1843995 C178.727393,19.1843995 177.651393,19.2895995 177.220726,19.1843995 C176.702059,20.9385328 175.651393,23.9869327 176.562059,30.5510659 C177.683393,38.6401324 190.079392,40.4093323 193.239392,41.384399 C193.226059,41.4265323 191.518059,46.7702655 191.316726,47.4499988 C191.208726,47.8141321 189.831392,52.876532 189.694059,53.4478653 C189.580726,53.9171987 189.140726,55.8729319 189.036726,56.3786653 C188.931392,56.8901319 188.580726,58.7849319 188.510059,59.2207985 C188.420726,59.7759985 188.176726,61.5838651 188.139392,61.9374651 C188.043392,62.8182651 187.976726,63.6723984 187.943392,64.4937317 C188.278059,64.7327984 189.387392,65.3729317 189.439392,65.399465 C191.783392,66.5947983 193.888725,68.3827983 194.035392,68.5421316 C194.090059,68.6015983 194.158059,68.6583983 194.208725,68.7182649 C194.208725,68.7182649 194.688725,67.7505316 194.923392,67.242665 C195.575392,67.5015983 196.246059,67.8827983 196.896725,68.318265 C197.547392,68.7535983 198.176725,69.2426649 198.746059,69.7177316 C199.884725,70.6677316 200.779392,71.5598649 201.106059,71.8474649 L201.535392,70.8963982 C201.735392,70.9718649 203.364725,71.8021315 203.366059,71.8031982 C204.863392,72.7426648 205.679392,73.8759982 206.186058,74.8723981 C206.190058,74.8802648 207.070058,76.9974647 207.075392,77.0083981 C207.223392,76.9286647 207.667392,76.3333314 207.667392,76.3338648 C207.744725,76.4103981 208.000725,76.7166647 208.032725,76.7567981 C208.108725,76.8515981 209.387392,78.708398 209.460725,78.8254647 C209.506058,78.8974647 210.267392,80.277598 210.296725,80.3661313 C210.299392,80.3641313 211.674058,79.4745313 211.771392,79.4469313 L211.776725,79.4453313 C211.802058,79.734398 212.444725,81.056798 212.519392,81.1541313 C212.772725,81.5426646 213.444725,82.2051979 213.471392,82.2286646 C215.204725,83.7707979 220.839391,88.0881311 224.066058,91.860131 C221.278058,91.7707977 221.224725,92.4387977 220.092725,92.5014644" id="path40"></path>
                            <path d="M128.503394,4.45213322 L127.89806,2.81093326 L127.748727,3.51093325 C127.37006,5.29639987 126.78206,7.02546649 126.083394,8.71093312 C123.683394,14.504133 124.376727,16.0921329 124.410061,16.6947996 L122.978061,16.8521329 C122.748727,18.9666662 123.480727,23.0921328 124.546061,26.1827993 L122.686061,26.1827993 C122.526061,28.2359993 122.362061,32.1786659 123.471394,35.6811991 L122.362061,35.8333324 C122.844727,39.4510657 126.62606,43.2171989 128.536727,45.5817322 L127.263394,46.5379988 C128.536727,49.0567988 130.080727,52.3447987 134.332727,56.9245319 L130.784727,58.6021319 C125.286061,56.4359986 119.492727,53.1911987 118.519394,52.922932 L117.891394,54.7947986 C116.150061,53.381732 110.168728,51.426532 106.727394,50.6130654 L105.584728,53.6374653 C97.2393946,48.5155988 95.6740613,50.5401321 92.6633947,50.2021321 L91.8353947,55.0802653 C90.1327281,53.845332 85.3873949,52.7031987 82.4047283,53.636932 L82.7087283,55.1791986 C78.4647284,54.3775986 80.2980616,58.0239985 80.2860616,59.7526652 C80.275395,61.4745318 78.5567284,63.2119984 78.5567284,63.2119984 C67.310062,47.6983988 63.6793954,45.2885322 60.0887288,42.5989323 L58.9647288,43.5021322 C57.5513955,41.1682656 52.2100623,37.9442657 45.8713958,31.7401325 C45.8660625,31.6931992 45.8647292,31.6093325 45.8630596,31.5281325 C45.8460625,30.3802659 46.5047292,22.6598661 46.5047292,22.6562661 C46.5260625,22.3811994 46.7100625,19.2827995 46.7073958,19.1750662 C46.7073958,19.1750662 47.5713958,19.1535995 47.9287291,19.4666662 C48.0260625,18.1494662 47.7327291,14.9374663 46.9033958,13.122933 C46.9033958,13.122933 47.3313958,12.9707997 47.9140625,12.9322663 C47.6180625,11.2655997 47.9740625,9.53906643 47.7607291,8.73746645 L49.1340624,8.53599979 C49.0353958,8.18693313 48.5620624,4.95986654 48.0473958,4.0723999 C48.2140624,3.8067999 48.5273958,3.76826657 48.8087291,3.79639991 C48.6580624,2.8322666 49.3260624,-5.68434189e-14 51.1860624,-5.68434189e-14 L56.7953956,-5.68434189e-14 C52.8673957,2.78799993 53.0180623,6.91359983 53.4113957,8.66306645 L55.0127289,8.67346645 C55.4513956,11.6478664 54.3673956,15.234933 56.9127289,19.7093328 C60.7367288,26.2587993 69.7593952,31.5417325 76.1273951,26.8057327 C76.7620617,29.6630659 76.9687284,32.2385325 78.0780617,36.4811991 C78.711395,38.9562657 79.3967283,39.9510657 80.4287283,41.4202656 C82.8020616,41.0598656 86.6553948,41.7989323 88.5207281,42.0931989 C88.5207281,42.0931989 88.2887281,41.3521323 87.9660615,40.375999 C89.2607281,40.7145323 90.3993947,41.1786656 92.6820613,41.4630656 L93.192728,40.1213323 C94.5953946,41.206799 96.2207279,41.323999 97.3913946,41.3750656 L97.4767279,40.2521323 C100.520728,40.7026656 101.743394,41.175999 103.366061,41.584399 L103.614061,40.1906657 C106.462061,41.682799 113.222061,41.3989323 117.052727,41.901599 L115.403394,29.5974659 C115.346061,29.2067993 115.308727,28.7989326 115.307394,28.3453326 C116.072727,28.573466 116.960727,28.7707993 116.960727,28.7707993 C116.698061,27.773466 116.636727,27.485466 116.487394,26.5119993 C116.294061,24.944266 116.263394,24.3453327 115.896727,22.8057328 C116.374061,22.9281328 117.222061,23.0229328 117.222061,23.0229328 C117.004727,22.0614661 116.911394,20.9879995 117.016727,20.2854662 C117.203394,18.9759995 117.751394,17.3109329 118.052727,16.7374662 L119.090061,17.3869329 C119.096727,16.1187996 120.291394,12.8947997 120.819394,11.438533 C120.795394,10.7469331 120.548727,10.1655997 120.102061,9.41879976 C120.560727,9.00413311 121.079394,8.81453311 121.079394,8.81453311 C120.944727,8.51879979 120.535394,8.34013312 119.831394,7.8119998 C120.720727,5.83906652 121.675394,5.90159985 121.675394,5.90159985 C121.675394,5.90159985 121.643394,5.40679986 121.654061,4.69999988 C121.658061,4.39213322 121.696727,4.0947999 121.756727,3.80413324 C121.775394,3.70839991 121.808727,3.61879991 121.834061,3.52546658 C121.886061,3.33493325 121.940727,3.14693325 122.014061,2.96666659 C122.056727,2.8630666 122.108727,2.76413326 122.158061,2.66413327 C122.236727,2.50573327 122.319394,2.34946661 122.414061,2.20159994 C122.476727,2.10413328 122.544727,2.01093328 122.612727,1.91879995 C122.716727,1.78026662 122.826061,1.64786663 122.943394,1.5229333 C123.022061,1.4385333 123.100727,1.35626663 123.184727,1.27759997 C123.312727,1.15879997 123.450061,1.04946664 123.591394,0.944266643 C123.679394,0.878666645 124.532727,0.38799999 124.620727,0.352133325 C124.888727,0.242666661 125.166061,0.153599996 125.455394,0.0947999976 C125.762061,0.0322666659 126.080727,-5.68434189e-14 126.40606,-5.68434189e-14 L133.83006,-5.68434189e-14 C131.563394,1.39746663 129.763394,2.7802666 128.503394,4.45213322" id="path42"></path>
                        </g>
                    </g>
                </g>
            </g>
        </g>
    </g>
</svg>