<?xml version="1.0" encoding="UTF-8"?>
<svg id="Layer_2" data-name="Layer 2" xmlns="http://www.w3.org/2000/svg" version="1.1" viewBox="0 0 355.6 300">
  <defs>
    <style>
      .cls-1 {
        fill: #0b1237;
        stroke-width: 0px;
      }
    </style>
  </defs>
  <g id="Layer_1-2" data-name="Layer 1-2">
    <polygon class="cls-1" points="254 135.5 254 169.3 287.9 169.3 287.9 135.5 287.9 101.6 321.7 101.6 355.6 101.6 355.6 67.7 321.7 67.7 287.9 67.7 254 67.7 254 101.6 254 135.5"/>
    <polygon class="cls-1" points="186.3 101.6 186.3 135.5 186.3 169.3 220.1 169.3 220.1 135.5 220.1 101.6 220.1 67.7 186.3 67.7 186.3 101.6"/>
    <rect class="cls-1" x="220.1" y="33.9" width="33.9" height="33.9"/>
    <polygon class="cls-1" points="321.7 33.9 355.6 33.9 355.6 0 321.7 0 287.9 0 254 0 254 33.9 287.9 33.9 321.7 33.9"/>
    <path class="cls-1" d="M84.7,169.3h0c46.8,0,84.7-37.9,84.7-84.7h0c0-46.8-37.9-84.7-84.7-84.7h0C37.9,0,0,37.9,0,84.7h0c0,46.8,37.9,84.7,84.7,84.7h0ZM50.8,84.7c0-18.7,15.2-33.9,33.9-33.9h0c18.7,0,33.9,15.2,33.9,33.9h0c0,18.7-15.2,33.9-33.9,33.9h0c-18.7,0-33.9-15.2-33.9-33.9h0Z"/>
    <path class="cls-1" d="M33.9,228.3c-20.3,0-33.9,14.4-33.9,35.8s13.5,35.7,33.9,35.7,33.9-14.3,33.9-35.7-13.5-35.8-33.9-35.8h0ZM33.9,291.1c-13.9,0-23.3-10.8-23.3-27s9.4-27.2,23.3-27.2,23.3,10.8,23.3,27.2-9.4,27-23.3,27Z"/>
    <path class="cls-1" d="M126.3,221.6c0-7.3,2.8-10.3,8.5-10.3s3.7.3,6.2.6v-9c-2.7-.6-5-1-7.9-1-10.2,0-17.1,5.8-17.1,19.1v8.8h-27.5v-8.1c0-7.3,2.8-10.3,8.5-10.3s3.7.3,6.1.6v-9c-2.6-.6-4.9-1-7.7-1-10.2,0-17.1,5.8-17.1,19.1v8.8h-9.1v8.9h9.1v60.9h10.3v-60.9h27.5v60.9h10.3v-60.9h14.4v-8.9h-14.4v-8.1h0Z"/>
    <path class="cls-1" d="M153.6,248c0-5.7,3.6-11.1,13.9-11.1s14.6,4.4,15.4,14.7h10.3c-.8-15.4-10.3-23.3-25.8-23.3s-24.3,8.9-24.3,20.1c0,27.3,41.1,13.4,41.1,31.9s-5.5,10.9-14.4,10.9-17.5-3.7-18.5-15.1h-10.4c.9,15.7,10.8,23.6,28.2,23.6s25.6-7.7,25.6-20.1c0-26.9-41.1-14.3-41.1-31.7h0Z"/>
    <rect class="cls-1" x="203.2" y="229.6" width="10.3" height="68.9"/>
    <path class="cls-1" d="M208.4,201c-4.1,0-7.2,3.2-7.2,7.3s3.1,7.3,7.2,7.3,7.2-3.2,7.2-7.3-3.2-7.3-7.2-7.3Z"/>
    <path class="cls-1" d="M274.8,240.1h-.3c-4.5-7.2-11.1-11.8-22.3-11.8-18.5,0-30,13.6-30,35.9s10.6,35.5,29.9,35.5,17.9-5.1,22.4-12.4h.3v11.1h10.4v-95.3h-10.4v36.9h0ZM254.5,291.1c-13.5,0-21.6-9.8-21.6-26.9s8.8-27.3,21.4-27.3,20.9,9.7,20.9,26.9-6.3,27.3-20.6,27.3h0Z"/>
    <path class="cls-1" d="M325.9,228.6c-20.9,0-31.3,14.7-31.3,35.7s9.8,35.8,31.7,35.8,27.8-9.7,29.1-24.1h-10.4c-1.4,10.4-9.1,15.2-19.4,15.2s-20.1-8.5-20.3-25.8h50.5v-3.6c0-19.6-8.9-33.2-29.7-33.2h0ZM305.4,257.5c1.7-13.8,9.1-20.3,20.7-20.3s18.5,8.1,18.9,20.3h-39.7Z"/>
  </g>
</svg>