<?xml version="1.0" encoding="UTF-8"?>
<svg xmlns="http://www.w3.org/2000/svg" xmlns:xlink="http://www.w3.org/1999/xlink" xmlns:v="https://vecta.io/nano" viewBox="0 0 752.3 296.9"><g fill="#231e46"><path d="M150.6 160.7c-6-4.9-13.5-8.2-22.5-9.8s-19.4-2.5-31-2.8v-1.7c11.1-.3 21-1.2 29.7-2.6 8.7-1.5 16.1-4.4 22-9 6-4.5 10.5-11.1 13.5-19.6 3.1-8.6 4.6-20.2 4.6-34.7 0-25.6-4.8-43.3-14.4-53s-26.9-14.6-52-14.6H6.3v2.6c3.8 0 6.7.7 8.7 2s3.6 4.6 4.6 9.8 1.6 13.2 1.7 24l.2 44.5v109.1l-.2 44.5c-.1 10.8-.7 18.8-1.7 24s-2.6 8.5-4.6 9.8-5 2-8.7 2v2.6h96c25 0 42.4-4.9 52.2-14.6 9.7-9.7 14.6-27.4 14.6-53 0-15.7-1.6-28.3-4.8-37.8-3.1-9.6-7.7-16.8-13.7-21.7zM85.4 14.9c3.5.3 6.5 1.4 9.2 3.3 2.6 1.9 4.7 5.4 6.3 10.5s2.8 12.2 3.7 21.2 1.3 20.5 1.3 34.5c0 25.3-1.6 42-4.8 50s-8.3 12-15.3 12h-.4V14.9zm21.4 237.3c-.9 9.2-2.3 16.2-4.1 21-1.9 4.8-4.3 8.1-7.2 9.8s-6.3 2.6-10 2.6V148.5h.4c3.8 0 7.1.8 9.8 2.4 2.8 1.6 5.1 4.9 7 9.8 1.9 5 3.3 11.9 4.1 20.7.9 8.9 1.3 20.5 1.3 34.7 0 14.9-.5 26.9-1.3 36.1zM294.5 70.5c-5.2-8.9-12.2-15-20.7-18.3-8.6-3.3-19-5-31.2-5s-22.6 1.6-31 4.8-15.4 9.2-20.7 18.1c-5.4 8.9-9.2 21.1-11.6 36.7-2.3 15.6-3.5 35.6-3.5 60 0 24.7 1.2 45.1 3.5 61.1s6.2 28.6 11.6 37.8 12.3 15.6 20.7 19.2 18.8 5.5 31 5.5 22.6-1.8 31.2-5.5c8.6-3.6 15.5-10 20.7-19.2s9-21.8 11.4-37.8c2.3-16 3.5-36.4 3.5-61.1 0-24.2-1.2-44-3.5-59.6-2.4-15.6-6.2-27.8-11.4-36.7zm-44.8 161.1c-.1 16.2-.5 28.4-1.1 36.7s-1.4 13.6-2.4 15.9-2.3 3.5-3.7 3.5c-1.5 0-2.6-1.2-3.5-3.5s-1.6-7.6-2.2-15.9-1-20.5-1.3-36.7l-.4-65.3.4-64.6c.3-15.7.7-27.4 1.3-35.1s1.3-12.5 2.2-14.4 2-2.8 3.5-2.8 2.6.9 3.5 2.8 1.6 6.7 2.2 14.4 1 19.4 1.3 35.1l.4 64.6-.2 65.3z"/><use xlink:href="#B"/><use xlink:href="#B" x="143.6"/><path d="M745.9 183.8h-2.6l.2 42.3c-.1 10.2-.4 17.8-.9 22.7-.4 5-.9 7.9-1.5 9-.6 1-1.2 1.5-1.7 1.5-1.2 0-2-1.2-2.4-3.7s-.7-8.7-.7-18.6V103.5c0-20.4-4.9-35-14.6-43.9-9.8-8.9-27.4-13.3-53-13.3-13.9 0-25.3 1.7-34.2 5.1l-1.5.6c-.1.1-.3.1-.4.2-.8.3-1.5.7-2.2 1-.7.4-1.4.7-2.1 1.1-.1 0-.1.1-.2.1-7.6 4.4-10.2 9.6-10.3 9.8l.6 1.2c1-.7 2.4-1.7 3.2-2.1 3.5-2 7.3-3.4 11.4-4.1s8.1-1.1 12.2-1.1c9.6 0 17.3 2.3 23.1 7s8.7 13.4 8.7 26.2v11.4c0 13.7-1.6 22.8-4.8 27.3s-11.9 6.8-26.2 6.8c-14.8 0-25.9 5.8-33.2 17.2-7.3 11.5-10.9 31.9-10.9 61.3-.3 27.9 2.5 47.4 8.5 58.5s17 16.6 33 16.6c11.4 0 19.9-3.9 25.5-11.6 5.7-7.7 9.1-20.6 10.3-38.6h2.6c.3 16.9 2.3 29.5 6.1 37.8s12.8 12.4 27.1 12.4c7 0 12.7-1.4 17-4.1 4.4-2.8 7.7-8 10-15.7s3.7-18.6 4.1-32.5.4-32.1-.2-54.3zm-69 39.8c0 14-.7 22.6-2.2 26-1.5 3.3-3.2 5-5.2 5-.9 0-1.7-.4-2.6-1.1s-1.7-2.7-2.4-5.9-1.2-8-1.5-14.4-.4-15.3-.4-26.6c0-14.3.6-25.9 1.7-34.9 1.2-9 2.5-16.3 3.9-21.8 1.5-5.5 3-10 4.6-13.3s3-6.6 4.1-9.8v96.8z"/><circle transform="matrix(.7071 -.7071 .7071 .7071 118.9963 478.0826)" cx="636.6" cy="95.4" r="29.9"/></g><defs><path id="B" d="M444.9 72.1c-5.7-17.5-16.4-26.2-32.1-26.2-12.5 0-21.5 4.4-26.9 13.3s-8.2 25-8.5 48.2h-2.2c0-18.6.4-38.1 1.1-58.3l2-44.6c-11.6 2.3-23.5 4.1-35.6 5.5-12.1 1.3-24.4 2.3-36.9 2.8v2.6c5.8 0 9.6 1.5 11.4 4.6 1.7 3.1 2.6 8.7 2.6 16.8v250.9h3.1c0-4.7 1.2-8.6 3.5-11.8s5.1-4.8 8.3-4.8c3.8 0 7.3.9 10.7 2.8l10.7 6.1c3.8 2.2 8.1 4.2 12.9 6.1s10.7 2.8 17.7 2.8c24.4 0 41.7-9.4 51.7-28.2s14.9-50.3 14.6-94.5c.3-45.2-2.4-76.7-8.1-94.1zm-51.3 161.3c-.3 16.2-.7 28.2-1.3 36-.6 7.9-1.4 12.7-2.4 14.4s-2.3 2.6-3.7 2.6c-2.9 0-4.8-1.7-5.7-5.2s-1.3-8.9-1.3-16.2V149.3l.4-37.1c.3-9 .7-15.8 1.3-20.3s1.3-7.3 2.2-8.5 1.9-1.7 3.1-1.7c1.5 0 2.7.7 3.7 2.2s1.8 5 2.4 10.7 1 14.2 1.3 25.5c.3 11.4.4 26.8.4 46.3l-.4 67z"/></defs></svg>