<?xml version="1.0" encoding="UTF-8"?><svg id="Layer_2" xmlns="http://www.w3.org/2000/svg" viewBox="0 0 680.41 340.83"><g id="Layer_1-2"><polygon points="548.25 264.07 517.87 264.07 517.87 156.09 548.25 135.88 548.25 264.07" fill="#39b54a" stroke-width="0"/><polygon points="636.87 264.07 606.49 264.07 606.49 86.16 636.87 52.85 636.87 264.07" fill="#39b54a" stroke-width="0"/><polygon points="680.41 264.07 650.03 264.07 650.03 41.64 680.41 0 680.41 264.07" fill="#39b54a" stroke-width="0"/><polygon points="592.58 264.07 562.17 264.07 562.17 121.64 592.58 94.98 592.58 264.07" fill="#39b54a" stroke-width="0"/><path d="M154.47,258.46c-8.22,4.11-26.73,8.51-50.81,8.51C35.23,266.97,0,224.38,0,168.01,0,100.46,48.16,62.86,108.07,62.86c23.2,0,40.82,4.71,48.75,8.82l-9.11,35.53c-9.09-3.81-21.72-7.34-37.58-7.34-35.53,0-63.13,21.44-63.13,65.48,0,39.65,23.49,64.62,63.43,64.62,13.5,0,28.49-2.95,37.29-6.47l6.76,34.95Z" fill="#1d1934" stroke-width="0"/><polygon points="183.84 66.09 228.78 66.09 228.78 226.44 307.47 226.44 307.47 264.03 183.84 264.03 183.84 66.09" fill="#1d1934" stroke-width="0"/><path d="M333.87,68.75c14.39-2.36,35.85-4.12,59.64-4.12,29.36,0,49.92,4.41,64.02,15.57,11.74,9.4,18.21,23.2,18.21,41.41,0,25.25-17.92,42.57-34.95,48.74v.89c13.8,5.58,21.44,18.79,26.43,37,6.18,22.32,12.33,48.16,16.16,55.79h-45.82c-3.23-5.57-7.93-21.73-13.8-46.1-5.29-24.68-13.81-31.42-32.01-31.72h-13.51v77.82h-44.37V68.75ZM378.24,153.91h17.62c22.32,0,35.53-11.16,35.53-28.49,0-18.21-12.33-27.31-32.89-27.61-10.86,0-17.03.89-20.26,1.47v54.63Z" fill="#1d1934" stroke-width="0"/><path d="M33.7,43.35c-2.38.85-7.07,2.25-12.62,2.25-6.21,0-11.33-1.58-15.36-5.42-3.53-3.4-5.72-8.89-5.72-15.3C.06,12.64,8.47,3.69,22.24,3.69c4.75,0,8.47,1.04,10.23,1.89l-1.27,4.33c-2.19-.98-4.94-1.76-9.09-1.76-9.99,0-16.51,6.21-16.51,16.51s6.28,16.57,15.85,16.57c3.47,0,5.85-.48,7.07-1.09v-12.25h-8.35v-4.27h13.53v19.74Z" fill="#1d1934" stroke-width="0"/><path d="M41.62,24.89c0-3.47-.06-6.45-.26-9.2h4.7l.18,5.79h.25c1.33-3.97,4.57-6.46,8.16-6.46.6,0,1.04.06,1.52.18v5.05c-.56-.11-1.1-.18-1.83-.18-3.78,0-6.46,2.87-7.19,6.89-.12.73-.24,1.57-.24,2.49v15.72h-5.3v-20.29Z" fill="#1d1934" stroke-width="0"/><path d="M87.68,30.19c0,10.91-7.55,15.66-14.69,15.66-7.98,0-14.13-5.85-14.13-15.17,0-9.87,6.46-15.66,14.62-15.66s14.2,6.16,14.2,15.17M64.29,30.5c0,6.45,3.71,11.34,8.95,11.34s8.96-4.81,8.96-11.46c0-4.99-2.5-11.33-8.83-11.33s-9.08,5.85-9.08,11.46" fill="#1d1934" stroke-width="0"/><path d="M119.13,37.15c0,3.04.06,5.73.24,8.04h-4.75l-.31-4.81h-.12c-1.4,2.38-4.5,5.48-9.75,5.48-4.63,0-10.17-2.55-10.17-12.92V15.69h5.36v16.33c0,5.6,1.7,9.38,6.58,9.38,3.6,0,6.1-2.49,7.07-4.87.3-.8.49-1.76.49-2.74V15.69h5.36v21.45Z" fill="#1d1934" stroke-width="0"/><path d="M128.02,25.32c0-3.78-.13-6.83-.24-9.63h4.82l.24,5.05h.12c2.19-3.59,5.66-5.73,10.48-5.73,7.13,0,12.49,6.03,12.49,14.99,0,10.61-6.46,15.84-13.41,15.84-3.9,0-7.31-1.71-9.08-4.63h-.12v16.01h-5.3v-31.91ZM133.32,33.19c0,.79.12,1.51.25,2.18.97,3.72,4.2,6.28,8.04,6.28,5.67,0,8.96-4.63,8.96-11.4,0-5.9-3.11-10.96-8.78-10.96-3.65,0-7.07,2.62-8.1,6.63-.18.67-.37,1.47-.37,2.2v5.07Z" fill="#1d1934" stroke-width="0"/><path d="M165.67,31.42c.12,7.25,4.76,10.23,10.12,10.23,3.84,0,6.15-.67,8.17-1.53l.91,3.84c-1.89.85-5.12,1.82-9.81,1.82-9.09,0-14.51-5.96-14.51-14.86s5.24-15.9,13.83-15.9c9.62,0,12.18,8.47,12.18,13.89,0,1.09-.12,1.95-.18,2.51h-20.73ZM181.4,27.57c.06-3.41-1.4-8.72-7.43-8.72-5.43,0-7.8,4.99-8.23,8.72h15.66Z" fill="#1d1934" stroke-width="0"/><path d="M379.71,337.2c0,1.88-.95,2.85-2.84,2.85s-2.99-.1-3.31-.27c-1.03-.36-1.55-1.22-1.55-2.59v-22.04c0-1.57-1.31-2.59-3.9-3.07-.46-.1-1.16-.16-2.12-.21-.96-.02-2.16-.06-3.6-.06h-13.18c-1.31,0-2.43.04-3.35.08-.9.05-1.62.11-2.14.22-2.46.48-3.69,1.5-3.69,3.07v22.01c0,1.88-.94,2.85-2.82,2.85s-2.98-.1-3.29-.27c-1.01-.36-1.52-1.22-1.52-2.59v-21.93c0-6.59,5.84-9.87,17.51-9.87h12.48c11.55,0,17.32,3.26,17.32,9.79v22.01Z" fill="#1d1934" stroke-width="0"/><path d="M490.08,307.76c0,.66-.35,1.43-1.05,2.27l-24.3,29.34c-.83.98-1.8,1.47-2.88,1.47s-2.03-.47-2.83-1.4l-24.43-29.4c-.7-.84-1.04-1.61-1.04-2.27,0-1.68,1.37-2.51,4.14-2.51,1.67,0,2.83.4,3.48,1.19l20.71,25.22,20.6-25.22c.66-.79,1.81-1.19,3.47-1.19,2.76,0,4.12.83,4.12,2.51" fill="#1d1934" stroke-width="0"/><path d="M503.15,296.95c0,1.26-.52,2.25-1.59,2.97-.91.62-2.04.93-3.36.93s-2.43-.31-3.36-.93c-1.05-.73-1.58-1.72-1.58-2.97s.52-2.24,1.58-2.96c.93-.63,2.04-.94,3.36-.94s2.45.31,3.36.94c1.07.73,1.59,1.72,1.59,2.96M502.12,337.2c0,1.88-.95,2.85-2.86,2.85s-2.93-.1-3.25-.27c-.99-.36-1.49-1.22-1.49-2.59v-29.08c0-1.89.96-2.84,2.87-2.84s2.89.1,3.21.27c1.02.35,1.52,1.21,1.52,2.57v29.08Z" fill="#1d1934" stroke-width="0"/><g opacity=".5"><path d="M557.99,337.2c0,1.88-1.18,2.85-3.53,2.85h-28.24c-5.43,0-9.32-.52-11.71-1.56-4.1-1.65-6.15-4.61-6.15-8.93v-13.66c0-7.01,5.41-10.51,16.26-10.51h30.23c1.97,0,2.96,1.07,2.96,3.2s-.99,3.21-2.96,3.21h-29.68c-6.13,0-9.19,1.3-9.19,3.88v13.55c0,2.94,3.48,4.41,10.46,4.41h28.69c1.92,0,2.86,1.18,2.86,3.54" fill="#1d1934" stroke-width="0"/><path d="M609.15,329.29c0,3.95-1.96,6.84-5.86,8.66-2.76,1.4-6.46,2.11-11.05,2.11h-12.69c-4.21,0-7.99-.73-11.39-2.14-4.2-1.88-6.3-4.75-6.3-8.63v-12.76c0-3.88,2.09-6.82,6.26-8.83,3.06-1.53,6.87-2.3,11.39-2.3h12.73c11.28,0,16.91,3.67,16.91,11.05v12.83ZM601.42,329.29v-13.32c0-2.74-3.15-4.14-9.41-4.14h-12.4c-2.32,0-4.39.31-6.21.89-2.61.83-3.92,2.12-3.92,3.82v12.76c0,1.63,1.33,2.84,3.99,3.6,1.76.52,3.82.77,6.18.77h12.41c2,0,3.88-.28,5.67-.87,2.46-.79,3.69-1.96,3.69-3.5" fill="#1d1934" stroke-width="0"/><path d="M679.79,337.2c0,1.88-.93,2.85-2.82,2.85s-2.99-.1-3.3-.27c-1.04-.36-1.56-1.22-1.56-2.59v-21.35c0-2.74-3.23-4.12-9.73-4.12h-1.47c-.27,0-.41,0-.44.03-3.11.13-5.16.34-6.19.65-2.26.69-3.4,2.15-3.4,4.41v20.39c0,1.37-.52,2.23-1.55,2.59-.31.17-1.41.27-3.28.27s-2.86-.97-2.86-2.85v-20.45c0-2.04-.73-3.42-2.19-4.15-1.03-.5-2.67-.77-4.96-.77h-1.88c-.2,0-.32,0-.34-.04-.48-.02-.89-.04-1.26-.05-.36-.01-.66-.01-.91-.01-6.55,0-9.83,1.4-9.83,4.19v21.29c0,1.37-.5,2.23-1.51,2.59-.32.17-1.41.27-3.29.27s-2.83-.97-2.83-2.85v-20.49c0-7.54,5.55-11.31,16.64-11.31,2.19,0,3.98,0,5.36.05,1.39.03,2.42.1,3.1.2,2.87.36,5.52,1.26,7.96,2.71,2.16-1.36,4.84-2.23,8.02-2.63,1.69-.22,4.52-.32,8.51-.32,10.67,0,16,3.77,16,11.31v20.49Z" fill="#1d1934" stroke-width="0"/></g><path d="M431.76,329.61c0,3.94-1.96,6.83-5.86,8.65-2.76,1.4-6.47,2.11-11.05,2.11h-12.68c-4.21,0-8-.73-11.4-2.14-4.19-1.88-6.3-4.75-6.3-8.62v-12.76c0-3.89,2.1-6.82,6.26-8.83,3.07-1.53,6.87-2.29,11.39-2.29h12.73c11.28,0,16.92,3.68,16.92,11.05v12.84ZM424.03,329.61v-13.34c0-2.74-3.14-4.13-9.41-4.13h-12.4c-2.32,0-4.39.29-6.21.88-2.62.84-3.92,2.11-3.92,3.83v12.76c0,1.63,1.33,2.84,3.99,3.6,1.76.52,3.82.76,6.18.76h12.4c2.01,0,3.88-.27,5.67-.86,2.46-.8,3.7-1.96,3.7-3.5" fill="#1d1934" stroke-width="0"/></g></svg>