<svg xmlns="http://www.w3.org/2000/svg" viewBox="0 0 700.86 372.3"><path d="M410,249.75q-18.73,0-28.57-11.35t-9.83-33.14v-81h44.49v71q0,8.2,3.63,12.65a12.17,12.17,0,0,0,9.95,4.45,26.21,26.21,0,0,0,10.54-2.35q5.38-2.33,10.77-10.3v-75.4H495.5v74c0,4.21.62,7.14,1.88,8.78s3.43,2.61,6.55,2.92v37.47a97.84,97.84,0,0,1-18.73,2.34q-22.71,0-26.23-17.09l-.93-4.45a50.19,50.19,0,0,1-20.61,16.51Q425.49,249.75,410,249.75Z" style="fill:#2e6066"/><path d="M570.6,206.68q7.64,7.11,7.64,16.33a21.38,21.38,0,0,1-2.35,9.94,26,26,0,0,1-6.16,7.9,29.6,29.6,0,0,1-8.73,5.26A27.62,27.62,0,0,1,550.87,248a28.46,28.46,0,0,1-18.94-7.11A24.68,24.68,0,0,1,526,233a23,23,0,0,1-2.2-10q0-7.78,3.25-12.81a21.64,21.64,0,0,1,8.47-7.68l3.63,5.22a16.3,16.3,0,0,0-6.95,6.43,17.85,17.85,0,0,0-2.27,9,15.54,15.54,0,0,0,1.77,7.41,18.26,18.26,0,0,0,4.69,5.67,21.59,21.59,0,0,0,6.73,3.63,24.5,24.5,0,0,0,7.9,1.29,22.88,22.88,0,0,0,8.13-1.44,22.31,22.31,0,0,0,6.72-3.93,18.22,18.22,0,0,0,4.58-5.9,16.64,16.64,0,0,0,1.66-7.41q0-8.76-8.47-15.8h-7.4v11.57h-5.15V200.94h26.77v5.74Z" style="fill:#2e6066"/><path d="M577.86,190.51H524.18V183.7h53.68Z" style="fill:#2e6066"/><path d="M536.88,164h41v6.8H524.18v-5.29L566,132.22H524.26v-6.81h53.6v5.75Z" style="fill:#2e6066"/><path d="M290.44,249.75q-16.63,0-29.16-5.27a63,63,0,0,1-21.07-14,57.92,57.92,0,0,1-12.88-20.37,70,70,0,0,1,0-48.47,57.92,57.92,0,0,1,12.88-20.37,63,63,0,0,1,21.07-14q12.53-5.28,29.16-5.27,16.38,0,29,5.27a62.69,62.69,0,0,1,21.2,14,58.06,58.06,0,0,1,12.88,20.37,70,70,0,0,1,0,48.47,58.06,58.06,0,0,1-12.88,20.37,62.69,62.69,0,0,1-21.2,14Q306.83,249.76,290.44,249.75Zm-21.78-63.92q0,12.4,6.09,19.43a21,21,0,0,0,31.38,0q6.09-7,6.09-19.43t-6.09-19.44a21,21,0,0,0-31.38,0Q268.66,173.41,268.66,185.83Z" style="fill:#2e6066"/><path d="M140.09,247.41V172H124.87V138.52h15.22V125.18a64,64,0,0,1,3.27-21,47.93,47.93,0,0,1,9.14-16.16,39.7,39.7,0,0,1,14.16-10.3,46.06,46.06,0,0,1,18.62-3.63q15.45,0,34.19,7L212,114.87a67.25,67.25,0,0,0-8.55-2.34,41.13,41.13,0,0,0-8.08-.93q-10.77,0-10.77,11.94v15h26.93V172H184.58v75.4Z" style="fill:#2e6066"/></svg>