<svg xmlns="http://www.w3.org/2000/svg" xmlns:xlink="http://www.w3.org/1999/xlink" viewBox="0 0 151.97 44.44"><defs><mask id="a" x="0" y="17.63" width="131.54" height="26.8" maskUnits="userSpaceOnUse"><path d="M0,17.63H131.54V44.44H0Z" fill="#fff" fill-rule="evenodd"/></mask><mask id="b" x="131.52" y="0" width="20.45" height="20.88" maskUnits="userSpaceOnUse"><path d="M131.52,0H152V20.88H131.52Z" fill="#fff" fill-rule="evenodd"/></mask></defs><g mask="url(#a)"><path d="M4.82,33c0-2.82.73-4.87,3.49-4.87s3.5,2.05,3.5,4.87v11h4.81V33c0-5.53-2.6-9.09-8.3-9.09S0,27.5,0,33v11H4.82V33Zm95.8,9.2c.49,1.49,1.64,2.18,3.63,2.18s3.14-.69,3.63-2.17c.4-1.2,5.24-15.94,5.87-17.87H109l-4.74,15.73L99.47,24.36H94.75l5.87,17.87Zm17.89-9.91h8.17v-.16a3.7,3.7,0,0,0-4-4,3.81,3.81,0,0,0-4.13,4Zm0,3.64v.16c0,2.83,2.71,4.17,5,4.17a8,8,0,0,0,5-2.09l2.6,3.3a11.75,11.75,0,0,1-7.64,2.94c-4.88,0-9.81-3.19-9.81-10.31,0-9.17,6.26-10.16,9-10.16,5.66,0,8.9,3.7,8.9,10.16,0,.78,0,1.53-.08,1.83ZM88.2,22.47h4.74V17.63H88.2Zm0,21.58H93V24.39H88.2V44.05ZM22.68,42.24c.49,1.48,1.64,2.17,3.63,2.17s3.14-.69,3.63-2.17c.4-1.2,5.24-15.94,5.87-17.87H31.05L26.31,40.09,21.53,24.36H16.8C17.44,26.29,22.28,41,22.68,42.24Zm17.89-9.92h8.17v-.16a3.7,3.7,0,0,0-4-4,3.81,3.81,0,0,0-4.13,4Zm0,3.64v.16c0,2.83,2.71,4.17,5,4.17a8,8,0,0,0,5-2.09l2.6,3.3a11.75,11.75,0,0,1-7.64,2.94c-4.88,0-9.81-3.19-9.81-10.31C35.75,25,42,24,44.7,24c5.66,0,8.9,3.7,8.9,10.16,0,.78-.06,1.53-.08,1.83Zm34.86,3.25c0,3.22,2.13,5.23,5.55,5.23a17.33,17.33,0,0,0,4.39-.59l0-4.16a12.58,12.58,0,0,1-3.13.6c-1.29,0-2-.5-2-1.54V28.57h4.86V24.38H80.25V17.63H75.43V39.21ZM60.62,44.08H55.8V33c0-5.53,2.63-9.09,8.32-9.09s8.3,3.56,8.3,9.09v11H67.61V33c0-2.82-.73-4.87-3.5-4.87S60.62,30.21,60.62,33Z" fill="#001e60" fill-rule="evenodd"/></g><g mask="url(#b)"><path d="M136.12,19.16A10.58,10.58,0,0,1,133.21,4.7a10.09,10.09,0,0,1,14.16-3,10.57,10.57,0,0,1,2.91,14.46,10.09,10.09,0,0,1-14.16,3" fill="#f9423a" fill-rule="evenodd"/></g><path d="M134,23.56a10.52,10.52,0,0,1-5-13.85,10.13,10.13,0,0,1,13.57-5.1,10.54,10.54,0,0,1,5,13.86A10.14,10.14,0,0,1,134,23.56" fill="#5bc5f2" fill-rule="evenodd"/><path d="M132.89,5.23a10.57,10.57,0,0,0,3.23,13.93,10.06,10.06,0,0,0,11,.14c.15-.27.29-.55.42-.83a10.53,10.53,0,0,0-5-13.86,10,10,0,0,0-9.7.62" fill="#0d59cd" fill-rule="evenodd"/></svg>