<?xml version="1.0" encoding="UTF-8"?>
<svg width="129px" height="129px" viewBox="0 0 129 129" version="1.1" xmlns="http://www.w3.org/2000/svg" xmlns:xlink="http://www.w3.org/1999/xlink">
    <title>Artboard</title>
    <g id="Artboard" stroke="none" stroke-width="1" fill="none" fill-rule="evenodd">
        <g id="logo-levio" transform="translate(19.000000, 39.000000)" fill-rule="nonzero">
            <path d="M7.19146558,30.2970295 C2.12731835,30.2970295 0,26.9757445 0,23.6967689 L0,0 L6.14851481,0 L6.14851481,23.3406651 C6.14851481,24.7157194 6.76600191,25.4244012 8.32478031,25.4244012 L10.6930692,25.4244012 L10.6930692,30.2970295 L7.19146558,30.2970295 Z" id="Path" fill="#194E62"></path>
            <path d="M18.2529542,20.9888274 C18.2529542,24.0137669 20.1034013,26.2231942 23.3982752,26.2231942 C25.9709356,26.2231942 27.2357073,25.5046813 28.7268443,24.0137669 L32.2912007,27.487777 C29.8981953,29.8660548 27.5986105,31.1881186 23.3551579,31.1881186 C17.8002235,31.1881186 12.4752474,28.6733233 12.4752474,19.1386566 C12.4752474,11.4613459 16.6288725,7.12871283 22.7227721,7.12871283 C29.2729957,7.12871283 32.9702968,11.9032313 32.9702968,18.3698478 L32.9702968,20.9888274 L18.2529542,20.9888274 Z M26.6500318,14.4431746 C25.9720968,12.8956973 24.4106441,11.9258272 22.7227721,12.0038231 C21.0349001,11.9258272 19.4734475,12.8956973 18.7955125,14.4431746 C18.4465233,15.2361588 18.2619528,16.0916558 18.2529542,16.9579698 L27.1925901,16.9579698 C27.1800869,16.0920514 26.9956649,15.2372428 26.6500318,14.4431746 Z" id="Shape" fill="#194E62"></path>
            <polygon id="Path" fill="#194E62" points="47.739298 31.1881186 43.2219896 31.1881186 34.752475 7.12871283 40.7931027 7.12871283 45.468359 21.999528 50.0979858 7.12871283 56.1386135 7.12871283"></polygon>
            <polygon id="Path" fill="#194E62" points="59.7029699 31.1881186 59.7029699 7.12871283 65.0495045 7.12871283 65.0495045 31.1881186"></polygon>
            <path d="M4.33605688,43.6633661 L3.90694989,42.4130782 L1.43958473,42.4130782 L1.01047774,43.6633661 L0,43.6633661 L2.280496,37.4257423 L3.055657,37.4257423 L5.34653462,43.6633661 L4.33605688,43.6633661 Z M2.69576082,38.8279988 L1.71988848,41.5910658 L3.64394884,41.5910658 L2.69576082,38.8279988 Z" id="Shape" fill="#194E62"></path>
            <polygon id="Path" fill="#194E62" points="7.29825975 38.2753854 7.29825975 40.1784478 10.2053315 40.1784478 10.2053315 41.0280909 7.29825975 41.0280909 7.29825975 43.6633661 6.23762372 43.6633661 6.23762372 37.4257423 10.6930692 37.4257423 10.6930692 38.2753854"></polygon>
            <polygon id="Path" fill="#194E62" points="12.6469958 38.2753854 12.6469958 40.1784478 15.5428429 40.1784478 15.5428429 41.0280909 12.6469958 41.0280909 12.6469958 43.6633661 11.5841583 43.6633661 11.5841583 37.4257423 16.0396039 37.4257423 16.0396039 38.2753854"></polygon>
            <path d="M20.3513253,43.6633661 L19.9236026,42.4130782 L17.4779941,42.4130782 L17.046822,43.6633661 L16.0396039,43.6633661 L18.3265409,37.4257423 L19.0854039,37.4257423 L21.3861385,43.6633661 L20.3513253,43.6633661 Z M18.7128712,38.8279988 L17.7435962,41.5910658 L19.6614499,41.5910658 L18.7128712,38.8279988 Z" id="Shape" fill="#194E62"></path>
            <polygon id="Path" fill="#194E62" points="22.2772276 43.6633661 22.2772276 37.4257423 23.1683167 37.4257423 23.1683167 43.6633661"></polygon>
            <path d="M28.323372,43.6599141 L27.034439,41.0330012 L25.8774441,41.0330012 L25.8774441,43.6599141 L24.9504949,43.6599141 L24.9504949,37.4257423 L27.3186132,37.4257423 C28.4789912,37.4257423 29.2164909,38.1851653 29.2164909,39.2483573 C29.2467227,40.0246439 28.7377946,40.7155916 27.9986015,40.9018282 L29.4059404,43.6633661 L28.323372,43.6599141 Z M27.2509527,38.2749152 L25.8774441,38.2749152 L25.8774441,40.2287033 L27.2509527,40.2287033 C27.6122123,40.2597189 27.9598213,40.0806026 28.1498022,39.7655432 C28.3397832,39.4504838 28.3397832,39.0531347 28.1498022,38.7380753 C27.9598213,38.423016 27.6122123,38.2438996 27.2509527,38.2749152 Z" id="Shape" fill="#194E62"></path>
            <polygon id="Path" fill="#194E62" points="30.2970295 43.6633661 30.2970295 37.4257423 34.752475 37.4257423 34.752475 38.2753854 31.3549083 38.2753854 31.3549083 40.0990096 34.2505618 40.0990096 34.2505618 40.9382912 31.3549083 40.9382912 31.3549083 42.813723 34.752475 42.813723 34.752475 43.6633661"></polygon>
            <path d="M37.8769261,43.6561256 C37.0463448,43.7144143 36.2308349,43.4186308 35.6435641,42.8460903 L36.2831654,42.236022 C36.708098,42.6470562 37.2956757,42.8596451 37.8944015,42.8189762 C38.7192426,42.8189762 39.1980698,42.4800493 39.1980698,41.883538 C39.2154481,41.6461697 39.1247668,41.4133257 38.9499185,41.2463555 C38.7558188,41.0827714 38.508046,40.9914685 38.2509006,40.9887711 L37.5029516,40.887093 C37.0619117,40.8462396 36.6445512,40.6746461 36.3076311,40.3956491 C35.9879772,40.0881176 35.8199496,39.6622513 35.8462793,39.2263514 C35.8462793,38.1587318 36.6431596,37.430039 37.9433328,37.430039 C38.6678016,37.3892166 39.3774369,37.6406795 39.9040778,38.1248391 L39.2889421,38.7111826 C38.9176672,38.3768777 38.4209856,38.2052999 37.9153721,38.2366849 C37.1709181,38.2366849 36.7619927,38.6501757 36.7619927,39.1924587 C36.7527528,39.4063181 36.8409429,39.6133014 37.0031538,39.7584666 C37.2046693,39.9139919 37.4465713,40.0125146 37.7021716,40.0431651 L38.4011895,40.1448432 C38.8343249,40.1750695 39.2471017,40.3349443 39.5825296,40.6023945 C39.9361046,40.9264841 40.124122,41.385397 40.0963077,41.8564239 C40.148734,42.9782718 39.1980698,43.6561256 37.8769261,43.6561256 Z" id="Path" fill="#194E62"></path>
            <polygon id="Path" fill="#8CC540" points="45.488714 40.1373975 45.488714 41.8811879 44.5072128 41.8811879 44.5072128 40.1373975 42.772277 40.1373975 42.772277 39.1531974 44.5072128 39.1531974 44.5072128 37.4257423 45.488714 37.4257423 45.488714 39.1531974 47.2277225 39.1531974 47.2277225 40.1373975"></polygon>
            <polygon id="Path" fill="#194E62" points="3.59605523 46.2947172 3.59605523 51.683168 2.63100221 51.683168 2.63100221 46.2947172 0.891089103 46.2947172 0.891089103 45.4455443 5.34653462 45.4455443 5.34653462 46.2947172"></polygon>
            <polygon id="Path" fill="#194E62" points="6.23762372 51.6693908 6.23762372 45.4455443 10.6930692 45.4455443 10.6930692 46.2928416 7.29458656 46.2928416 7.29458656 48.1114309 10.1800179 48.1114309 10.1800179 48.9656168 7.29458656 48.9656168 7.29458656 50.8358707 10.6930692 50.8358707 10.6930692 51.683168"></polygon>
            <path d="M13.8153084,51.6807184 C13.2064299,51.6899653 12.6199574,51.4535829 12.1907844,51.0259409 C11.5841583,50.4254455 11.5841583,49.743527 11.5841583,48.562892 C11.5841583,47.3822569 11.5841583,46.703731 12.1839299,46.1032356 C12.6121996,45.6742535 13.199276,45.4376276 13.8084538,45.4484582 C14.9405365,45.389965 15.9208569,46.2187664 16.0396039,47.3347601 L15.0696876,47.3347601 C14.9865122,46.8696208 14.6491969,46.4887244 14.1942413,46.3462061 C13.7392856,46.2036878 13.2420144,46.3231437 12.9036557,46.6562342 C12.598629,46.9954972 12.5300837,47.3347601 12.5300837,48.5662846 C12.5300837,49.7978091 12.598629,50.1506425 12.9036557,50.4797276 C13.2426086,50.8142686 13.7412856,50.9346382 14.1977593,50.7920954 C14.654233,50.6495527 14.9928681,50.2677162 15.0765422,49.8012017 L16.0396039,49.8012017 C15.9159807,50.9108886 14.9418333,51.7340375 13.8153084,51.6807184 L13.8153084,51.6807184 Z" id="Path" fill="#194E62"></path>
            <polygon id="Path" fill="#194E62" points="20.4331392 51.6693908 20.4331392 48.9656168 17.8836922 48.9656168 17.8836922 51.683168 16.930693 51.683168 16.930693 45.4455443 17.8836922 45.4455443 17.8836922 48.101098 20.4331392 48.101098 20.4331392 45.4455443 21.3861385 45.4455443 21.3861385 51.6693908"></polygon>
            <polygon id="Path" fill="#194E62" points="26.8014704 51.683168 24.0659579 47.2923227 24.0659579 51.683168 23.1683167 51.683168 23.1683167 45.4455443 23.9938845 45.4455443 26.726121 49.8260338 26.726121 45.4455443 27.6237622 45.4455443 27.6237622 51.683168"></polygon>
            <path d="M33.2713716,51.0273152 C32.3622565,51.9017856 30.9152807,51.9017856 30.0061655,51.0273152 C29.3990841,50.4264279 29.4059421,49.7440643 29.4059421,48.5626587 C29.4059421,47.3812531 29.4059421,46.7022844 30.0061655,46.101397 C30.9152807,45.2269267 32.3622565,45.2269267 33.2713716,46.101397 C33.8818829,46.7022844 33.8613038,47.3846479 33.8613038,48.5626587 C33.8613038,49.7406695 33.8818829,50.4264279 33.2713716,51.0273152 Z M32.5579653,46.6615462 C32.3139099,46.4181561 31.9817913,46.2812665 31.6353387,46.2812665 C31.2888862,46.2812665 30.9567676,46.4181561 30.7127122,46.6615462 C30.4074566,47.0010306 30.3457195,47.340515 30.3457195,48.5626587 C30.3457195,49.7848024 30.4074566,50.141261 30.7127122,50.467166 C30.9567676,50.7105561 31.2888862,50.8474457 31.6353387,50.8474457 C31.9817913,50.8474457 32.3139099,50.7105561 32.5579653,50.467166 C32.8632209,50.1276817 32.9215281,49.7881973 32.9215281,48.5626587 C32.9215281,47.3371201 32.8632209,46.9874512 32.5579653,46.6615462 L32.5579653,46.6615462 Z" id="Shape" fill="#194E62"></path>
            <polygon id="Path" fill="#194E62" points="35.6435641 51.683168 35.6435641 45.4455443 36.7106901 45.4455443 36.7106901 50.8339951 40.0990096 50.8339951 40.0990096 51.683168"></polygon>
            <path d="M44.8555611,51.0274641 C44.423125,51.4573026 43.8322624,51.6939409 43.2195228,51.6826917 C42.608552,51.695269 42.0193045,51.4582838 41.5903443,51.0274641 C40.979831,50.4265559 40.9901097,49.7441687 40.9901097,48.562722 C40.9901097,47.3812754 40.9901097,46.7022831 41.5903443,46.1013749 C42.0183748,45.6691808 42.6082497,45.4319433 43.2195228,45.4461473 C43.8325594,45.4333039 44.4240315,45.6701864 44.8555611,46.1013749 C45.4626445,46.7022831 45.4454952,47.3846704 45.4454952,48.562722 C45.4454952,49.7407737 45.4626445,50.4265559 44.8555611,51.0274641 Z M44.1455822,46.6615436 C43.9015261,46.418145 43.5694064,46.2812507 43.2229527,46.2812507 C42.876499,46.2812507 42.5443793,46.418145 42.3003231,46.6615436 C41.9950665,47.0010397 41.9333292,47.3405359 41.9333292,48.562722 C41.9333292,49.7849082 41.9950665,50.1413792 42.3003231,50.4672955 C42.5443793,50.710694 42.876499,50.8475884 43.2229527,50.8475884 C43.5694064,50.8475884 43.9015261,50.710694 44.1455822,50.4672955 C44.447409,50.1277993 44.5091463,49.7883032 44.5091463,48.562722 C44.5091463,47.3371409 44.4439791,46.9874599 44.1455822,46.6615436 Z" id="Shape" fill="#194E62"></path>
            <path d="M50.2376992,50.9839737 C49.3333576,51.8987647 47.8603585,51.9184275 46.9318279,51.0281032 C46.3298329,50.4272629 46.3366334,49.7449528 46.3366334,48.5636397 C46.3366334,47.3823266 46.3366334,46.703411 46.9318279,46.1025708 C47.3567338,45.6711149 47.9413519,45.434031 48.5473515,45.4474172 C49.6767362,45.4007566 50.6511167,46.2311659 50.7818756,47.3517754 L49.8397703,47.3517754 C49.7478236,46.7170786 49.1892894,46.2549714 48.5473515,46.2824834 C48.2049231,46.2780259 47.8760237,46.4157266 47.6392572,46.6626761 C47.3399602,47.0021339 47.268537,47.3415917 47.268537,48.5636397 C47.268537,49.7856877 47.3399602,50.1489075 47.6392572,50.4781816 C47.8780046,50.7210437 48.2065229,50.8549007 48.5473515,50.8481905 C48.9277481,50.8571451 49.2930507,50.6996471 49.5472755,50.4170792 C49.7686325,50.1462193 49.8791917,49.8018394 49.8567758,49.4530191 L49.8567758,49.1135613 L48.5473515,49.1135613 L48.5473515,48.3226247 L50.7920789,48.3226247 L50.7920789,49.2595281 C50.7920789,50.0470702 50.6424304,50.5562569 50.2376992,50.9839737 Z" id="Path" fill="#194E62"></path>
            <polygon id="Path" fill="#194E62" points="52.5742571 51.683168 52.5742571 45.4455443 53.4653462 45.4455443 53.4653462 51.683168"></polygon>
            <polygon id="Path" fill="#194E62" points="55.2475244 51.6693908 55.2475244 45.4455443 59.6952615 45.4455443 59.6952615 46.2928416 56.3112813 46.2928416 56.3112813 48.1114309 59.2057792 48.1114309 59.2057792 48.9656168 56.3112813 48.9656168 56.3112813 50.8358707 59.7029699 50.8358707 59.7029699 51.683168"></polygon>
            <path d="M62.8082841,51.6754846 C61.9847982,51.7357056 61.1756812,51.4397107 60.594059,50.8654666 L61.227189,50.2554111 C61.6495306,50.6663112 62.2316135,50.8798339 62.8255828,50.8417422 C63.6420783,50.8417422 64.1160609,50.5028225 64.1160609,49.9029346 C64.1300661,49.6660394 64.0407846,49.4344513 63.8704203,49.2657656 C63.6773622,49.1037005 63.4326807,49.012617 63.1784749,49.0081866 L62.4380934,48.9065107 C62.0012917,48.8665268 61.5878966,48.69483 61.2548668,48.4150772 C60.9380622,48.107798 60.7716655,47.6817636 60.7981829,47.2458042 C60.7981829,46.1782072 61.5870006,45.4495299 62.874019,45.4495299 C63.5909125,45.4103345 64.2927304,45.6615639 64.8149257,46.1443152 L64.2060138,46.7306463 C63.8450028,46.4012261 63.3633214,46.228862 62.8705592,46.2527695 C62.1336374,46.2527695 61.7288494,46.6662516 61.7288494,47.2085231 C61.719703,47.4223779 61.8070009,47.6293568 61.9675705,47.774519 C62.1670471,47.930041 62.4065016,48.0285616 62.6595159,48.0592115 L63.3687599,48.1642766 C63.7971236,48.1935339 64.2056839,48.3522056 64.5381475,48.618429 C64.8886964,48.943559 65.0748194,49.403722 65.0467274,49.8758211 C65.0536468,50.9976452 64.1160609,51.6754846 62.8082841,51.6754846 Z" id="Path" fill="#194E62"></path>
            <path d="M78.4303715,8.939719e-06 C73.7441093,-0.00579248471 69.515988,2.812479 67.7182702,7.14021272 C65.9205523,11.4679464 66.9074229,16.4524959 70.2185431,19.7687527 C73.5296633,23.0850095 78.5126791,24.0796076 82.8431974,22.2886035 C87.1737157,20.4975995 89.9985415,16.2738555 89.9999983,11.5875923 C90.0019845,5.19413794 84.8238245,0.00794500649 78.4303715,8.939719e-06 L78.4303715,8.939719e-06 Z M78.4303715,17.2718595 C76.1295203,17.273312 74.0544181,15.8884312 73.1729138,13.7631397 C72.2914094,11.6378483 72.7771519,9.19081039 74.403586,7.56334977 C76.03002,5.93588915 78.4767518,5.44860166 80.6026007,6.32876319 C82.7284495,7.20892473 84.1146428,9.28315096 84.1146428,11.5840015 C84.1155943,13.0925153 83.5172527,14.5396227 82.4512452,15.6069765 C81.3852377,16.6743302 79.9388861,17.2744982 78.4303715,17.2754503 L78.4303715,17.2718595 Z" id="Shape" fill="#8CC540"></path>
        </g>
    </g>
</svg>