<?xml version="1.0" encoding="UTF-8"?>
<svg width="321px" height="105px" viewBox="0 0 321 105" version="1.1" xmlns="http://www.w3.org/2000/svg" xmlns:xlink="http://www.w3.org/1999/xlink">
    <title>logo_quebecor_couleur_noir_RVB_FR</title>
    <g id="Page-1" stroke="none" stroke-width="1" fill="none" fill-rule="evenodd">
        <g id="logo_quebecor_couleur_noir_RVB_FR">
            <path d="M207.914,23.447 L207.914,23.361 C207.914,15.063 215.739,8.267 226.502,8.267 C237.266,8.267 244.991,14.981 244.991,23.279 L244.991,23.361 C244.991,31.658 237.168,38.456 226.402,38.456 C215.637,38.456 207.914,31.74 207.914,23.447 M236.967,23.447 L236.967,23.361 C236.967,18.36 232.58,14.188 226.402,14.188 C220.221,14.188 215.936,18.275 215.936,23.279 L215.936,23.361 C215.936,28.364 220.32,32.539 226.502,32.539 C232.682,32.539 236.967,28.446 236.967,23.447" id="Fill-1" fill="#0A0B09"></path>
            <path d="M249.826,8.77 L265.771,8.77 C270.211,8.77 273.647,9.809 275.94,11.728 C277.883,13.352 278.93,15.648 278.93,18.397 L278.93,18.483 C278.93,23.193 275.891,26.155 271.453,27.534 L279.975,37.959 L271.004,37.959 L263.527,28.613 L257.5,28.613 L257.5,37.959 L249.826,37.959 L249.826,8.77 Z M265.272,22.946 C269.014,22.946 271.154,21.278 271.154,18.819 L271.154,18.73 C271.154,15.98 268.86,14.563 265.121,14.563 L257.5,14.563 L257.5,22.946 L265.272,22.946 L265.272,22.946 Z" id="Fill-2" fill="#0A0B09"></path>
            <path d="M28.854,35.955 C25.915,37.539 22.374,38.455 18.491,38.455 C7.725,38.455 3.55271368e-15,31.74 3.55271368e-15,23.447 L3.55271368e-15,23.361 C3.55271368e-15,15.064 7.824,8.267 18.59,8.267 C29.352,8.267 37.078,14.982 37.078,23.279 L37.078,23.361 C37.078,26.402 35.983,29.326 33.991,31.74 L37.575,34.286 L32.692,38.831 L28.854,35.955 Z M23.178,31.74 L17.491,27.701 L22.374,23.112 L28.108,27.448 C28.754,26.234 29.059,24.904 29.059,23.447 L29.059,23.361 C29.059,18.36 24.669,14.189 18.491,14.189 C12.311,14.189 8.026,18.276 8.026,23.279 L8.026,23.361 C8.026,28.364 12.413,32.538 18.59,32.538 C20.286,32.538 21.828,32.243 23.178,31.74 L23.178,31.74 Z" id="Fill-3" fill="#0A0B09"></path>
            <path d="M41.362,25.447 L41.362,8.77 L49.037,8.77 L49.037,25.279 C49.037,30.03 51.881,32.492 56.565,32.492 C61.248,32.492 64.088,30.111 64.088,25.484 L64.088,8.77 L71.761,8.77 L71.761,25.235 C71.761,34.076 65.837,38.413 56.465,38.413 C47.093,38.413 41.362,34.036 41.362,25.447" id="Fill-4" fill="#0A0B09"></path>
            <path d="M109.942,8.77 L126.136,8.77 C130.123,8.77 133.263,9.686 135.258,11.352 C136.854,12.689 137.649,14.313 137.649,16.314 L137.649,16.401 C137.649,19.694 135.557,21.533 133.067,22.69 C137.101,23.987 139.591,25.946 139.591,29.87 L139.591,29.949 C139.591,35.287 134.41,37.959 126.533,37.959 L109.942,37.959 L109.942,8.77 Z M124.49,20.571 C127.88,20.571 130.022,19.65 130.022,17.482 L130.022,17.399 C130.022,15.483 128.226,14.4 124.99,14.4 L117.417,14.4 L117.417,20.571 L124.49,20.571 Z M126.533,32.326 C129.923,32.326 131.968,31.328 131.968,29.154 L131.968,29.077 C131.968,27.113 130.226,25.905 126.285,25.905 L117.417,25.905 L117.417,32.326 L126.533,32.326 L126.533,32.326 Z" id="Fill-5" fill="#0A0B09"></path>
            <polyline id="Fill-6" fill="#0A0B09" points="144.274 8.77 170.588 8.77 170.588 14.482 151.899 14.482 151.899 20.399 168.348 20.399 168.348 26.115 151.899 26.115 151.899 32.244 170.838 32.244 170.838 37.959 144.274 37.959 144.274 8.77"></polyline>
            <path d="M174.125,23.447 L174.125,23.361 C174.125,15.063 181.602,8.267 192.317,8.267 C198.895,8.267 202.83,10.104 206.069,12.772 L201.183,17.482 C198.494,15.439 195.756,14.188 192.266,14.188 C186.387,14.188 182.15,18.275 182.15,23.279 L182.15,23.361 C182.15,28.364 186.287,32.539 192.266,32.539 C196.254,32.539 198.697,31.2 201.436,29.113 L206.318,33.247 C202.731,36.455 198.744,38.456 192.017,38.456 C181.752,38.456 174.125,31.825 174.125,23.447" id="Fill-7" fill="#0A0B09"></path>
            <polyline id="Fill-8" fill="#0A0B09" points="77.594 8.77 103.906 8.77 103.906 14.482 85.219 14.482 85.219 20.399 101.667 20.399 101.667 26.115 85.219 26.115 85.219 32.244 104.155 32.244 104.155 37.959 77.594 37.959 77.594 8.77"></polyline>
            <polyline id="Fill-9" fill="#0A0B09" points="91.289 0 86.264 6.63 92.27 6.63 97.676 2.341 91.289 0"></polyline>
            <path d="M110.858,104.619 C110.858,104.619 174.926,4.7 320.633,40.658 C320.633,40.658 192.481,17.756 110.858,104.619" id="Fill-10" fill="#639DC8"></path>
        </g>
    </g>
</svg>