<svg xmlns="http://www.w3.org/2000/svg" viewBox="0 0 185.41 36.67"><path d="M36.67,36.67H0V0H36.67ZM21.3,18.26l-11.42,9,17.76-9L9.9,9.41Z" fill="#fff"/><path d="M56.62,26.94H53.06L47.35,9.62h3.24L54.85,23,59.14,9.62h3.22Z" fill="#fff"/><path d="M66.06,26.94V9.62h3V26.94Z" fill="#fff"/><path d="M85.77,24.39a8.7,8.7,0,0,1-2.15,2,3.82,3.82,0,0,1-1.74.52H73.94V9.62h7.94a3.53,3.53,0,0,1,1.77.49,10.42,10.42,0,0,1,2.09,2.11,2.8,2.8,0,0,1,.46,1.66v8.86A3,3,0,0,1,85.77,24.39Zm-4.09-.34s.17,0,.2,0c.41-.23,1.28-1,1.28-1.34V14a.36.36,0,0,0,0-.14,3.86,3.86,0,0,0-1.28-1.28s-.2,0-.26,0H77V24.05Z" fill="#fff"/><path d="M91,26.94V9.62h10.89v2.89H94.08v4.38h7.3v2.9h-7.3v4.26h7.85v2.89Z" fill="#fff"/><path d="M119.12,24.48A11.36,11.36,0,0,1,117,26.57a3.71,3.71,0,0,1-1.8.52h-4.4a3.65,3.65,0,0,1-1.8-.52,10.21,10.21,0,0,1-2.11-2.09,2.91,2.91,0,0,1-.47-1.65V13.76a2.91,2.91,0,0,1,.47-1.65A10.21,10.21,0,0,1,109,10a3.65,3.65,0,0,1,1.8-.52h4.4A3.71,3.71,0,0,1,117,10a11.36,11.36,0,0,1,2.12,2.09,3,3,0,0,1,.46,1.65v9.07A3,3,0,0,1,119.12,24.48Zm-9.65-1.68a.32.32,0,0,0,0,.12,4.58,4.58,0,0,0,1.28,1.24.31.31,0,0,0,.14,0h4.18a.36.36,0,0,0,.14,0,4.58,4.58,0,0,0,1.28-1.24.3.3,0,0,0,0-.12v-9s0-.12,0-.15a4.75,4.75,0,0,0-1.28-1.27.29.29,0,0,0-.14,0h-4.18s-.11,0-.14,0a4.75,4.75,0,0,0-1.28,1.27.58.58,0,0,0,0,.15Z" fill="#fff"/><path d="M130.12,12.51V26.94h-3V12.51h-4.69V9.62h12.43v2.89Z" fill="#fff"/><path d="M150.45,17.93a10,10,0,0,1-1.57,1.54,2.59,2.59,0,0,1-.75.4l3.45,7.07h-3.31l-3.21-6.83h-3.34v6.83h-3V9.62h8.14a3.78,3.78,0,0,1,2.06.63,10.31,10.31,0,0,1,1.57,1.6,3.29,3.29,0,0,1,.52,1.77v2.54A3.22,3.22,0,0,1,150.45,17.93Zm-2.53-4.29a.92.92,0,0,0,0-.2c-.18-.32-.64-.9-.93-.93h-5.25v4.7h5.1c.26,0,.84-.55,1.08-1a.42.42,0,0,0,0-.11Z" fill="#fff"/><path d="M168.16,24.48A11.36,11.36,0,0,1,166,26.57a3.67,3.67,0,0,1-1.79.52h-4.41a3.58,3.58,0,0,1-1.79-.52,10.52,10.52,0,0,1-2.12-2.09,2.9,2.9,0,0,1-.46-1.65V13.76a2.9,2.9,0,0,1,.46-1.65A10.52,10.52,0,0,1,158.05,10a3.58,3.58,0,0,1,1.79-.52h4.41A3.67,3.67,0,0,1,166,10a11.36,11.36,0,0,1,2.12,2.09,2.9,2.9,0,0,1,.46,1.65v9.07A2.9,2.9,0,0,1,168.16,24.48Zm-9.65-1.68s0,.09,0,.12a4.7,4.7,0,0,0,1.27,1.24.33.33,0,0,0,.15,0h4.17a.4.4,0,0,0,.15,0,4.7,4.7,0,0,0,1.27-1.24.3.3,0,0,0,0-.12v-9s0-.12,0-.15a4.88,4.88,0,0,0-1.27-1.27.33.33,0,0,0-.15,0H160s-.12,0-.15,0a4.88,4.88,0,0,0-1.27,1.27.4.4,0,0,0,0,.15Z" fill="#fff"/><path d="M182.19,26.94l-6-11.5v11.5h-3V9.62h3.28l5.94,11.64V9.62h3V26.94Z" fill="#fff"/><polygon points="100.61 5 97.29 5 95.09 7.84 97.86 7.84 100.61 5" fill="#fff"/></svg>