<?xml version="1.0" encoding="UTF-8"?>
<svg width="129px" height="129px" viewBox="0 0 129 129" version="1.1" xmlns="http://www.w3.org/2000/svg" xmlns:xlink="http://www.w3.org/1999/xlink">
    <title>Artboard</title>
    <g id="Artboard" stroke="none" stroke-width="1" fill="none" fill-rule="evenodd">
        <g id="logo-kabane" transform="translate(19.000000, 31.000000)" fill="#333333">
            <path d="M48.9939616,16.5639302 L43.1689064,16.5639302 C43.0508913,16.5643441 42.9406518,16.5044802 42.8758401,16.4047829 C42.8110285,16.3050855 42.8004133,16.1790433 42.8476204,16.0697058 L45.7252256,8.47280415 C45.7831229,8.32933062 45.9211626,8.23554979 46.0744495,8.23554979 C46.2277365,8.23554979 46.3657762,8.32933062 46.4236735,8.47280415 L49.3292166,16.1120677 C49.3542702,16.2182508 49.331281,16.3301969 49.2664876,16.4175261 C49.2016943,16.5048552 49.1018174,16.5585095 48.9939616,16.5639302 Z M48.8961789,0.240473874 C48.8373333,0.0910192592 48.6920244,-0.00502202648 48.532986,0.000203027688 L43.6019441,0.000203027688 C43.4687391,0.0216734269 43.3568932,0.113198477 43.308596,0.240473874 L32.4686851,27.7333505 C32.4224323,27.8506097 32.4365964,27.9834096 32.5065119,28.0880081 C32.5764274,28.1926066 32.6930286,28.2554407 32.817909,28.255814 L37.9724543,28.255814 C38.1299465,28.2531177 38.2691959,28.1517695 38.3216782,28.0016425 L40.5148045,22.0850964 C40.5709334,21.9171382 40.7307995,21.8074797 40.9059353,21.8168043 L51.173119,21.8168043 C51.3431735,21.8138298 51.4956377,21.9222845 51.5502808,22.0850964 L53.785314,28.0016425 C53.8377964,28.1517695 53.9770457,28.2531177 54.1345379,28.255814 L59.2751143,28.255814 C59.3999947,28.2554407 59.5165958,28.1926066 59.5865113,28.0880081 C59.6564268,27.9834096 59.6705909,27.8506097 59.6243382,27.7333505 L48.8961789,0.240473874 Z" id="Shape"></path>
            <path d="M58.2264361,38.7209302 L53.3936886,38.7209302 C53.1848062,38.7209302 53.0154736,38.8919844 53.0154736,39.102651 L53.0154736,56.3948478 C53.0156486,56.5565743 52.9146816,56.700833 52.7635248,56.7548249 C52.6123681,56.8088169 52.4438818,56.7608046 52.3430914,56.6350172 L38.2090559,38.8624816 C38.1400143,38.7694518 38.0300176,38.716625 37.9148886,38.7209302 L33.8665871,38.7209302 C33.6577047,38.7209302 33.4883721,38.8919844 33.4883721,39.102651 L33.4883721,66.5949836 C33.4883721,66.8056501 33.6577047,66.9764291 33.8665871,66.9764291 L38.6853267,66.9764291 C38.8911407,66.9691392 39.0563135,66.8025556 39.0635417,66.5949836 L39.0635417,49.2462762 C39.0698727,49.0915161 39.1683676,48.9559825 39.3127906,48.9032982 C39.4572137,48.8506139 39.6188864,48.8912405 39.721916,49.0061068 L53.8559514,66.835153 C53.9188287,66.92794 54.0247834,66.9813698 54.1361107,66.9764291 L58.2264361,66.9764291 C58.326745,66.9764291 58.4229455,66.9362412 58.4938745,66.8647063 C58.5648036,66.7931714 58.6046512,66.6961492 58.6046512,66.5949836 L58.6046512,39.102651 C58.6046512,39.0014853 58.5648036,38.9044632 58.4938745,38.8329282 C58.4229455,38.7613933 58.326745,38.7209302 58.2264361,38.7209302" id="Path"></path>
            <path d="M75.1267704,44.075407 L85.4362651,44.075407 C85.5364343,44.075407 85.6325008,44.0352182 85.7033311,43.9636818 C85.7741614,43.8921454 85.8139535,43.7951212 85.8139535,43.6939535 L85.8139535,39.1023837 C85.8139535,39.001216 85.7741614,38.9041918 85.7033311,38.8326554 C85.6325008,38.761119 85.5364343,38.7209302 85.4362651,38.7209302 L69.4474558,38.7209302 C69.2388643,38.7209302 69.0697674,38.8917128 69.0697674,39.1023837 L69.0697674,66.5952907 C69.0697674,66.8059616 69.2388643,66.9767442 69.4474558,66.9767442 L85.4362651,66.9767442 C85.5364343,66.9767442 85.6325008,66.9365555 85.7033311,66.865019 C85.7741614,66.7934826 85.8139535,66.6964585 85.8139535,66.5952907 L85.8139535,61.9613372 C85.8139535,61.8601695 85.7741614,61.7631453 85.7033311,61.6916089 C85.6325008,61.6200725 85.5364343,61.5798837 85.4362651,61.5798837 L75.1267704,61.5798837 C74.9181789,61.5798837 74.749082,61.4091012 74.749082,61.1984302 L74.749082,55.9287209 C74.749082,55.7414579 74.8993903,55.5896512 75.084805,55.5896512 L85.0166113,55.5896512 C85.2252028,55.5896512 85.3942997,55.4188686 85.3942997,55.2081977 L85.3942997,50.6590116 C85.3942997,50.4483407 85.2252028,50.2775581 85.0166113,50.2775581 L75.1267704,50.2775581 C75.0266012,50.2775581 74.9305347,50.2373694 74.8597044,50.165833 C74.7888741,50.0942966 74.749082,49.9972724 74.749082,49.8961047 L74.749082,44.5275 C74.749082,44.3168291 74.9181789,44.1460465 75.1267704,44.1460465" id="Path"></path>
            <path d="M16.5236548,55.2706431 L10.7274471,55.2706431 C10.6109592,55.2738543 10.5006031,55.2178185 10.4334016,55.1213349 C10.3662001,55.0248513 10.3510562,54.9007022 10.3930505,54.7905377 L13.2772212,47.1512124 C13.3349702,47.0077377 13.4726564,46.9139561 13.625551,46.9139561 C13.7784455,46.9139561 13.9161317,47.0077377 13.9738807,47.1512124 L16.8580514,54.7905377 C16.9000457,54.9007022 16.8849018,55.0248513 16.8177003,55.1213349 C16.7504988,55.2178185 16.6401427,55.2738543 16.5236548,55.2706431 L16.5236548,55.2706431 Z M16.4261225,38.9611779 C16.3725656,38.8139385 16.2325916,38.7174749 16.0777927,38.721025 L11.1733092,38.721025 C11.0185103,38.7174749 10.8785363,38.8139385 10.8249794,38.9611779 L0.0267559145,66.4401557 C-0.0193784054,66.5574159 -0.00525058018,66.6902169 0.0644859274,66.7948162 C0.134222435,66.8994156 0.250525056,66.9622502 0.375085705,66.9626234 L5.60003257,66.9626234 C5.75360556,66.9621627 5.8914839,66.8671434 5.94836236,66.7225707 L8.17767302,60.7918561 C8.23633504,60.6526762 8.3638063,60.5557858 8.51206962,60.5376826 L18.7390323,60.5376826 C18.9089115,60.5444197 19.0602254,60.6484792 19.1291616,60.8059768 L21.3584723,66.7366915 C21.4153508,66.8812641 21.5532291,66.9762835 21.7068021,66.9767442 L26.8342166,66.9767442 C26.9587773,66.976371 27.0750799,66.9135364 27.1448164,66.808937 C27.2145529,66.7043376 27.2286807,66.5715367 27.1825464,66.4542765 L16.4261225,38.9611779 Z" id="Shape"></path>
            <path d="M26.0767392,27.5790278 L14.9062414,12.8871326 L25.9053249,0.620387129 C25.9975178,0.508290365 26.0175306,0.354360969 25.957001,0.222918741 C25.8964714,0.0914765135 25.7658179,0.00514575549 25.6196344,0 L19.0773224,0 C18.9681925,0.000498181059 18.8643848,0.0466072726 18.7916319,0.126897367 L8.50677457,11.7732558 C8.41513627,11.8911322 8.2563171,11.9362157 8.11523774,11.8844003 C7.97415837,11.8325848 7.88382545,11.695993 7.89254003,11.5476604 L7.89254003,0.380692102 C7.89254003,0.279726279 7.85190578,0.182895753 7.77957635,0.111502135 C7.70724691,0.040108517 7.60914715,0 7.50685788,0 L2.47870541,0 C2.26569904,0 2.09302326,0.17044166 2.09302326,0.380692102 L2.09302326,27.8187229 C2.09302326,28.0289733 2.26569904,28.199415 2.47870541,28.199415 L7.50685788,28.199415 C7.71986425,28.199415 7.89254003,28.0289733 7.89254003,27.8187229 L7.89254003,20.9380656 C7.89343306,20.824786 7.93378332,20.7152584 8.00681623,20.6278721 L11.2494032,16.9901475 L19.5772807,28.1148167 C19.65183,28.2025255 19.7612819,28.2539711 19.8772557,28.255814 L25.7767642,28.255814 C25.925525,28.255814 26.0610997,28.1716141 26.1251754,28.0390972 C26.1892512,27.9065803 26.1704035,27.749503 26.0767392,27.6354267" id="Path"></path>
            <path d="M83.6906078,10.0817937 C83.3989557,10.5712883 82.9742843,10.9720855 82.4637851,11.2396468 C81.8583319,11.5314486 81.1900978,11.6767242 80.5153019,11.6632515 L75.2327475,11.6632515 C75.0230368,11.6633923 74.8508179,11.5011489 74.8430509,11.2961274 L74.8430509,5.6480637 C74.8430509,5.43750828 75.017524,5.2668194 75.2327475,5.2668194 L80.5008687,5.2668194 C81.2091826,5.24178745 81.912948,5.38724543 82.5503843,5.69042417 C83.0397282,5.94061019 83.4454643,6.32284471 83.7194742,6.7917966 C83.9953935,7.31013051 84.1343243,7.88777988 84.1236041,8.47209555 C84.1401391,9.03819212 83.9898273,9.59698817 83.6906078,10.0817937 M83.6906078,21.3779211 C83.42271,21.8514977 83.0153551,22.2352573 82.5215179,22.4792935 C81.8853483,22.7873462 81.1815213,22.9376659 80.4720023,22.9170184 L75.2327475,22.9170184 C75.1268436,22.9170895 75.025471,22.8749904 74.9519593,22.8004095 C74.8784475,22.7258286 74.8391285,22.6251899 74.8430509,22.521654 L74.8430509,16.9441911 C74.8430509,16.7336357 75.017524,16.5629468 75.2327475,16.5629468 L80.5008687,16.5629468 C81.1775852,16.546907 81.8475796,16.6974206 82.4493519,17.0006717 C82.9592917,17.2625613 83.3842284,17.658718 83.6761746,18.1444046 C83.973894,18.6298299 84.1240883,19.1881891 84.1091709,19.7541028 C84.1207758,20.3233169 83.9868203,20.8863471 83.7194742,21.3920413 M88.3814006,15.5321752 C87.8909106,14.9898395 87.3277262,14.5148661 86.7071484,14.1201592 C87.1803639,13.784206 87.6030485,13.3849484 87.9628376,12.9340659 C89.0244997,11.5648774 89.5700564,9.87890876 89.5071909,8.16145204 C89.5412377,6.67640176 89.1567379,5.21084263 88.3958338,3.92540427 C87.6295711,2.71094452 86.5291079,1.73222207 85.2205279,1.10137242 C83.8054617,0.386601743 82.2377225,0.00921566132 80.6452008,0 L69.589363,0 C69.3023983,0 69.0697674,0.227585183 69.0697674,0.508325733 L69.0697674,27.7461129 C69.0697674,28.0268535 69.3023983,28.2544386 69.589363,28.2544386 L81.1359299,28.2544386 C82.7191387,28.2802776 84.2863911,27.9417029 85.711257,27.2660275 C87.019837,26.6351778 88.1203002,25.6564554 88.8865629,24.4419956 C89.647467,23.1565573 90.0319668,21.6909982 89.99792,20.2059479 C90.0169252,18.5136858 89.4468496,16.8654509 88.3814006,15.5321752" id="Shape"></path>
        </g>
    </g>
</svg>