<svg xmlns="http://www.w3.org/2000/svg" viewBox="0 0 545.71 287.73"><path d="M458.78,180.72h-8V135.64a4.83,4.83,0,0,0-8.24-3.41L412.7,162.08,380.82,130.2l29.39-29.38a5,5,0,0,0,1.49-3.49,4.92,4.92,0,0,0-2.91-4.43l-37-17.23L390.9,34.82l38.41,17.91a4.94,4.94,0,0,0,2.1.48,4.82,4.82,0,0,0,4.83-4.82V0h22.54Z" fill="#ee3124"/><path d="M458.78,180.72h8V135.64a4.83,4.83,0,0,1,8.24-3.41l29.85,29.85,31.88-31.88-29.39-29.38a4.83,4.83,0,0,1,1.42-7.92l36.94-17.23L526.66,34.82,488.25,52.73a5,5,0,0,1-2.11.48,4.82,4.82,0,0,1-4.82-4.82V0H458.78Z" fill="#aa1229"/><path d="M65.49,254.72c16.76,0,29.39-13.4,29.39-33s-12.63-33-29.39-33-29.39,13.4-29.39,33,12.63,33,29.39,33m3.61,33a49.34,49.34,0,0,1-29.2-9.11,2.06,2.06,0,0,0-3.29,1.65l-.14,4.62H0V104.15H36.61v58.19a2.05,2.05,0,0,0,3.22,1.7,52.08,52.08,0,0,1,29.27-8.58c34.81,0,63.17,26.3,63.17,66.26,0,40.74-28.36,66-63.17,66" fill="#1e384b"/><path d="M204.38,254.72c16.76,0,29.39-13.4,29.39-33s-12.63-33-29.39-33-29.4,13.4-29.4,33,12.64,33,29.4,33m-3.61,33c-34.81,0-63.17-25.27-63.17-66,0-40,28.36-66.26,63.17-66.26A52.08,52.08,0,0,1,230,164a2,2,0,0,0,3.21-1.7V104.15h36.62V284.89H233.4l-.15-4.62a2.06,2.06,0,0,0-3.28-1.65,49.34,49.34,0,0,1-29.2,9.11" fill="#1e384b"/><path d="M372.65,236.93c-8,10.32-16.75,16.5-29.39,16.5-17.27,0-30.68-13.15-30.68-31.71S326,190,343.26,190c11.6,0,19.59,5.93,26.82,14.69l24.38-24.38c-13.32-14.73-28.73-24.86-52.49-24.86-37.9,0-66.78,28.36-66.78,66.26s28.88,66,66.78,66c24.28,0,42.23-9.64,55.1-26.38Z" fill="#1e384b"/></svg>