<svg xmlns="http://www.w3.org/2000/svg" viewBox="0 0 126 21.29"><polygon points="0 0.56 0 20.69 18.52 20.69 18.52 15.88 5.21 15.88 5.21 0.56 0 0.56" fill="#0407d1"/><path d="M59.82,15.87H51.35V12.71h8.33a1.57,1.57,0,0,1,1.61,1.61,1.44,1.44,0,0,1-1.47,1.55M51.36,5.35h7.36A1.29,1.29,0,0,1,60,6.72c0,.66-.53,1.36-1.07,1.36H51.36Zm12.32,4a3.85,3.85,0,0,0,1.38-3.17c0-3.38-2.59-5.57-6.13-5.57H46.22V20.69H60a6.33,6.33,0,0,0,6.41-6.33A5.34,5.34,0,0,0,63.68,9.3" fill="#0407d1"/><rect x="76.14" y="0.58" width="18.88" height="4.76" fill="#0407d1"/><rect x="28.93" y="0.56" width="5.43" height="20.13" fill="#0407d1"/><polygon points="76.14 8.12 76.14 20.75 95.02 20.75 95.02 15.94 81.34 15.94 81.34 12.77 90.74 12.77 90.74 8.12 76.14 8.12" fill="#0407d1"/><path d="M114.87,16.11a5.47,5.47,0,1,1,5.72-5.44,5.5,5.5,0,0,1-5.72,5.44M115,0c-5.9,0-11.13,4.24-11.16,10.59s5.17,10.68,11.06,10.7S126,17.05,126,10.7,120.84,0,115,0" fill="#0407d1"/></svg>