<svg xmlns="http://www.w3.org/2000/svg" viewBox="0 0 501 123.15"><path d="M165.47,60.16c-1.31-8.3-6.77-13.87-15.29-13.87-8.31,0-14.47,5.92-15.78,13.87Zm-31.66,8c.12,9.47,6.53,18.36,16.72,18.36,8.17,0,12.56-4.15,16.6-10.78l9,5.09a28.85,28.85,0,0,1-25.72,15.17c-16.95,0-27.27-12.8-27.27-29.14,0-17.06,9.13-29.86,27-29.86,17.66,0,25.95,13,25.95,29.5v1.66Z" fill="#012538"/><path d="M228.81,66.43c0-10.78-6.52-19.9-18-19.9-11,0-17.53,9.59-17.53,19.9s6.28,20.14,17.53,20.14c11.63,0,18-9.24,18-20.14m10.08,56.72H228.22V85.5H228c-4.27,6.29-11,10.55-18.85,10.55-17.07,0-26.56-14.1-26.56-30,0-15.15,10.08-29,26.08-29,8.31,0,14.94,4.27,19.33,10.9h.24V38.72h10.67Z" fill="#012538"/><path d="M261.22,38.72V69.39c0,8.89,2.25,16.71,12.81,16.71s12.8-7.82,12.8-16.71V38.72H297.5V70.58c0,15.16-7.11,25.47-23.47,25.47s-23.48-10.31-23.48-25.47V38.72Z" fill="#012538"/><path d="M357.84,51.39a8.18,8.18,0,0,0-7.11-4.86A5.76,5.76,0,0,0,344.91,52c0,4.86,6.41,7,12.93,10s12.8,7,12.8,15.75c0,10.55-8.77,18.37-19.09,18.37-8.06,0-16.23-4.62-19.2-12.44l9.13-4.15c2.25,4.15,5,7.11,10.07,7.11,4.51,0,8.43-3.08,8.43-7.82,0-3-1.43-4.38-3.92-6l-10.43-5.57c-6.17-3.32-10.68-6.4-10.68-14a16.2,16.2,0,0,1,16.37-16.11,16.52,16.52,0,0,1,15.18,9.71Z" fill="#012538"/><path d="M387.38,66.84a19,19,0,1,0,19-19.32,19.24,19.24,0,0,0-19,19.32m48.6,0a29.64,29.64,0,1,1-29.64-29.51A29.17,29.17,0,0,1,436,66.84" fill="#012538"/><path d="M490.57,39V23.27H479.9V39H458.55V25c0-5.45-.1-15.09,7.5-15.16a30.4,30.4,0,0,1,7.19.87V1a31.51,31.51,0,0,0-7.47-1c-13.75,0-17.9,9.71-17.9,21.8V39H443v9.95h4.86v45.5h10.68V48.94H479.9v45.5h10.67V48.94H501V39Z" fill="#012538"/><rect x="310.58" y="38.71" width="10.67" height="55.55" fill="#012538"/><path d="M322.58,20.75a6.67,6.67,0,0,1-13.34,0,6.67,6.67,0,1,1,13.34,0" fill="#012538"/><polygon points="48.18 13.91 48.18 39.16 33.92 39.16 28.71 48.04 67.44 48.04 48.18 13.91" fill="#ef483e"/><polygon points="48.18 78.26 48.18 87.17 5.23 87.17 0 96.07 95.09 96.07 85.02 78.26 48.18 78.26" fill="#ef483e"/><polygon points="70.87 54.22 48.18 54.22 48.18 63.15 19.87 63.15 14.63 72.02 81 72.02 70.87 54.22" fill="#ef483e"/></svg>