<svg xmlns="http://www.w3.org/2000/svg" width="129px" viewBox="0 0 208.63 72.32"><path d="M83.31,62.82V49.71h-.09c-.47.43-2.19.46-2.92.46H79v.11c1.46.9,1.26,2.23,1.26,3.88v5.55c0,2.77-2.72,4.71-4.92,4.71-2.89,0-4.09-2.05-4.09-5.36V49.71h-.1c-.47.43-2.2.46-2.93.46H67v.11c1.47.9,1.27,2.23,1.27,3.88v5.53c0,5.06,2.19,7.46,6.12,7.46,2.32,0,4.72-.82,5.91-2.8v2.4h4.29v-.11C83.11,65.81,83.31,64.48,83.31,62.82Z" fill="#231f20"/><path d="M90,55.81a4.21,4.21,0,0,1,4.29-3.68,3.92,3.92,0,0,1,4.3,3.68ZM102,57.9c.13-4.63-3-8.12-7.49-8.12-5,0-8.31,3.6-8.31,8.59s3.89,8.85,9.54,8.85a11.13,11.13,0,0,0,4.6-.89L102,63h-.1a8.34,8.34,0,0,1-5.46,1.92c-3.76,0-6.59-2.57-6.65-7Z" fill="#231f20"/><path d="M104.67,42.09c.8,0,2.42-.05,2.92-.53h.1v22.7a9.8,9.8,0,0,0,2.74.43c3.63,0,5.72-2.54,5.72-6.08s-1.62-6.17-5-6.17a5.38,5.38,0,0,0-2.78.79l1.79-3a6.51,6.51,0,0,1,2.34-.4c3.78,0,7,3.28,7,8.18,0,5.62-3.8,9.26-9.82,9.26a38.64,38.64,0,0,1-6-.65v-.11c1.09-.5,1-1.69,1-2.88V47.08c0-1.66.2-4-1.23-4.88v-.11Z" fill="#231f20"/><path d="M125.43,55.81a4.21,4.21,0,0,1,4.29-3.68,3.92,3.92,0,0,1,4.3,3.68Zm12.08,2.09c.13-4.63-3-8.12-7.49-8.12-5,0-8.32,3.6-8.32,8.59s3.9,8.85,9.55,8.85a11.13,11.13,0,0,0,4.6-.89L137.51,63h-.1A8.34,8.34,0,0,1,132,64.88c-3.76,0-6.58-2.57-6.66-7Z" fill="#231f20"/><path d="M152.39,53.89h-.1a5.24,5.24,0,0,0-4.06-1.76c-3.23,0-5.55,2.45-5.55,5.87a6.76,6.76,0,0,0,6.92,6.88,8.17,8.17,0,0,0,4.86-1.77h.09l-1.73,3.4a11.56,11.56,0,0,1-4.39.71c-5.12,0-9.13-3.6-9.13-8.28,0-6.2,4.47-9.16,9.5-9.16a14.94,14.94,0,0,1,3.59.43Z" fill="#231f20"/><path d="M97.88,46.81v-3.6a15.22,15.22,0,0,0-5.56,4.58v1.4A15.08,15.08,0,0,1,97.88,46.81Z" fill="#231f20" fill-rule="evenodd"/><path d="M53.29,64.75c-5,0-8.52-5.67-8.52-10.49v-.54c.06-4.67,3.08-9,8.35-9,5.55,0,8.41,5.25,8.45,10.22v.51C61.57,60.71,58.28,64.75,53.29,64.75Zm17.22,5.51c-3.71.61-7.27-.56-11.06-4.9,3.66-1.84,5.92-6.41,5.92-10.67v-.52A11.81,11.81,0,0,0,53.32,42.09,12.22,12.22,0,0,0,41,54.42v.49c0,7.13,5.3,12.43,11.78,12.43A11.29,11.29,0,0,0,55.48,67c4.26,4,8,5.68,11.32,5.28A6.12,6.12,0,0,0,71,70.18Z" fill="#231f20"/><path d="M9.55,4.19A6.25,6.25,0,0,1,8.41,7.82a5,5,0,0,1-4.15,2,3.69,3.69,0,0,1-4.07-4,6,6,0,0,1,1-3.48A5,5,0,0,1,5.5.25C8.07.25,9.55,1.75,9.55,4.19ZM5.34,2A2.31,2.31,0,0,0,3.4,3.25,5.63,5.63,0,0,0,2.67,6c0,1.32.66,2.09,1.67,2.09a2.36,2.36,0,0,0,2-1.31A5.51,5.51,0,0,0,7,4.06C7,2.71,6.4,2,5.34,2Z" fill="#231f20"/><path d="M16.31,1.89a1.64,1.64,0,0,0-.71-.16c-.69,0-.93.39-1.11,1.11h1.72L15.86,4.5H14.13L13.05,9.64H10.69l1.1-5.14H10.37l.36-1.66h1.4a2.68,2.68,0,0,1,3-2.47,4.77,4.77,0,0,1,1.51.3Z" fill="#231f20"/><path d="M22.16,1.89a1.64,1.64,0,0,0-.71-.16c-.69,0-.93.39-1.12,1.11h1.72L21.71,4.5H20L18.89,9.64H16.54l1.1-5.14H16.22l.36-1.66H18A2.67,2.67,0,0,1,21,.37a4.82,4.82,0,0,1,1.51.3Z" fill="#231f20"/><path d="M25.65,2.83,24.17,9.64H21.86l1.48-6.81ZM26.14.46,25.9,1.68H23.59L23.81.46Z" fill="#231f20"/><path d="M32.31,4.74a3.44,3.44,0,0,0-1.46-.36,1.92,1.92,0,0,0-2.1,2A1.59,1.59,0,0,0,30.51,8a3.33,3.33,0,0,0,1.35-.31l-.28,1.8a7.93,7.93,0,0,1-1.95.27A3.06,3.06,0,0,1,26.26,6.6c0-2.3,1.66-3.95,4.31-3.95a5.9,5.9,0,0,1,2.28.45Z" fill="#231f20"/><path d="M35.07,6.85c.09,1,.65,1.47,1.75,1.47a5.86,5.86,0,0,0,2.31-.51l-.26,1.68a8.48,8.48,0,0,1-2.51.38c-2.15,0-3.42-1.26-3.42-3.19a4.35,4.35,0,0,1,1.22-3,4.19,4.19,0,0,1,3-1.07,2.65,2.65,0,0,1,2.92,2.94A5.74,5.74,0,0,1,40,6.85Zm3.1-1.62A1.12,1.12,0,0,0,37,4c-.73,0-1.34.56-1.6,1.54h2.76C38.15,5.44,38.17,5.33,38.17,5.23Z" fill="#231f20"/><path d="M53.58,2.84l-2,9.32H49.23L50,8.78a2.87,2.87,0,0,1-2.26,1.06c-1.6,0-2.66-1.15-2.66-3,0-2.47,1.5-4.15,3.61-4.15a2.55,2.55,0,0,1,2.4,1.56l.31-1.38ZM49.24,4.41c-.91,0-1.69,1-1.69,2.34a1.18,1.18,0,0,0,1.16,1.32,2.07,2.07,0,0,0,1.8-2.26A1.28,1.28,0,0,0,49.24,4.41Z" fill="#231f20"/><path d="M57.5,2.84l-.72,3.42a3.3,3.3,0,0,0-.08.67c0,.66.32,1,.9,1,.86,0,1.52-.75,1.84-2.23l.61-2.88h2.38L61,9.64H58.85l.26-1.15a3.42,3.42,0,0,1-2.59,1.33A2.09,2.09,0,0,1,54.3,7.45a9,9,0,0,1,.25-1.89l.57-2.72Z" fill="#231f20"/><path d="M65.17,6.85c.09,1,.65,1.47,1.75,1.47a5.9,5.9,0,0,0,2.31-.51L69,9.49a8.55,8.55,0,0,1-2.52.38A3.07,3.07,0,0,1,63,6.68a4.35,4.35,0,0,1,1.22-3,4.17,4.17,0,0,1,3-1.07,2.65,2.65,0,0,1,2.92,2.94,5.74,5.74,0,0,1-.16,1.29Zm3.1-1.62A1.13,1.13,0,0,0,67.08,4c-.73,0-1.34.56-1.61,1.54h2.77C68.25,5.44,68.27,5.33,68.27,5.23ZM67.25,0h2.47V.29L67.54,1.9H66V1.75Z" fill="#231f20"/><path d="M75.16.46,74.44,3.7a3,3,0,0,1,2.27-1.05c1.6,0,2.64,1.16,2.64,3,0,2.46-1.48,4.14-3.6,4.14a2.55,2.55,0,0,1-2.39-1.56L73,9.64H70.89L72.8.46Zm.58,4A2.07,2.07,0,0,0,74,6.64a1.27,1.27,0,0,0,1.26,1.44c.91,0,1.71-1,1.71-2.3C76.92,4.93,76.46,4.42,75.74,4.42Z" fill="#231f20"/><path d="M82.32,6.85c.09,1,.64,1.47,1.74,1.47a5.9,5.9,0,0,0,2.32-.51l-.27,1.68a8.43,8.43,0,0,1-2.51.38,3.07,3.07,0,0,1-3.41-3.19,4.34,4.34,0,0,1,1.21-3,4.21,4.21,0,0,1,3-1.07,2.66,2.66,0,0,1,2.93,2.94,6.38,6.38,0,0,1-.16,1.29Zm3.09-1.62A1.12,1.12,0,0,0,84.22,4c-.73,0-1.34.56-1.6,1.54h2.77C85.4,5.44,85.41,5.33,85.41,5.23ZM84.39,0h2.48V.29L84.68,1.9H83.12V1.75Z" fill="#231f20"/><path d="M94.22,4.74a3.37,3.37,0,0,0-1.45-.36,1.93,1.93,0,0,0-2.11,2A1.59,1.59,0,0,0,92.42,8a3.26,3.26,0,0,0,1.35-.31l-.27,1.8a8,8,0,0,1-2,.27A3.06,3.06,0,0,1,88.18,6.6c0-2.3,1.65-3.95,4.31-3.95a5.94,5.94,0,0,1,2.28.45Z" fill="#231f20"/><path d="M102.76,5.86c0,2.33-1.7,4-4.41,4-2.18,0-3.49-1.2-3.49-3.11,0-2.43,1.64-4.07,4.36-4.07C101.43,2.66,102.76,3.88,102.76,5.86ZM99.09,4.22c-1,0-1.82,1-1.82,2.49a1.37,1.37,0,0,0,1.31,1.53c1,0,1.78-1,1.78-2.49C100.36,4.8,99.85,4.22,99.09,4.22Z" fill="#231f20"/><path d="M107.36,2.83l-1.48,6.81h-2.32L105,2.83Zm.49-2.37-.24,1.22H105.3l.22-1.22Z" fill="#231f20"/><path d="M113.6,4.55a5.88,5.88,0,0,0-1.79-.38c-.69,0-1.06.25-1.06.62s.54.53,1.4.89,1.39.9,1.39,1.68c0,1.44-1.19,2.47-3.22,2.47a8.14,8.14,0,0,1-2.71-.44l.49-1.64a4.24,4.24,0,0,0,1.91.47c.78,0,1.19-.23,1.19-.61s-.4-.57-1-.81c-1.11-.45-1.7-.87-1.7-1.92,0-1.23,1.18-2.23,3.23-2.23a7.9,7.9,0,0,1,2.39.41Z" fill="#231f20"/><path d="M8.94,13.69,7,22.87H4.9l.25-1.13a3,3,0,0,1-2.49,1.33C1.05,23.07,0,21.92,0,20c0-2.47,1.5-4.15,3.61-4.15a2.41,2.41,0,0,1,2.24,1.34l.75-3.54Zm-4.8,4c-.91,0-1.71,1-1.71,2.34a1.19,1.19,0,0,0,1.18,1.32A2.08,2.08,0,0,0,5.41,19,1.27,1.27,0,0,0,4.14,17.65Z" fill="#231f20"/><path d="M11.18,20.08c.09,1,.65,1.47,1.75,1.47A5.9,5.9,0,0,0,15.24,21L15,22.72a8.55,8.55,0,0,1-2.52.38,3.07,3.07,0,0,1-3.41-3.19,4.35,4.35,0,0,1,1.22-3,4.17,4.17,0,0,1,3-1.07,2.65,2.65,0,0,1,2.92,2.94,5.74,5.74,0,0,1-.16,1.29Zm3.1-1.62a1.13,1.13,0,0,0-1.2-1.23c-.72,0-1.33.56-1.6,1.54h2.77C14.26,18.67,14.28,18.56,14.28,18.46Z" fill="#231f20"/><path d="M25.32,13.71l-2,9.16H21l2-9.16Z" fill="#231f20"/><path d="M32.14,21.15a11.66,11.66,0,0,0-.28,1.72h-2l.13-1A2.7,2.7,0,0,1,27.66,23a2,2,0,0,1-2.27-2c0-1.53,1.4-2.48,4-2.48a11,11,0,0,1,1.1.07,1.85,1.85,0,0,0,0-.23c0-.68-.45-1.06-1.31-1.06a4.9,4.9,0,0,0-2.22.52l.27-1.59a6.77,6.77,0,0,1,2.27-.39c2.05,0,3.16.86,3.16,2.17a7.05,7.05,0,0,1-.15,1.21Zm-2.6-1.41c-1.27,0-1.93.37-1.93,1.06a.77.77,0,0,0,.87.76,1.88,1.88,0,0,0,1.74-1.79A5.39,5.39,0,0,0,29.54,19.74Z" fill="#231f20"/><path d="M41.86,13.71l-2,9.16H37.52l2-9.16Z" fill="#231f20"/><path d="M48.67,21.15a13.29,13.29,0,0,0-.27,1.72h-2l.14-1A2.7,2.7,0,0,1,44.2,23a2,2,0,0,1-2.27-2c0-1.53,1.4-2.48,4-2.48a10.66,10.66,0,0,1,1.1.07.93.93,0,0,0,0-.23c0-.68-.45-1.06-1.31-1.06a5,5,0,0,0-2.23.52l.28-1.59a6.72,6.72,0,0,1,2.26-.39c2.05,0,3.17.86,3.17,2.17a7.05,7.05,0,0,1-.15,1.21Zm-2.59-1.41c-1.27,0-1.93.37-1.93,1.06a.77.77,0,0,0,.87.76,1.87,1.87,0,0,0,1.73-1.79A5.16,5.16,0,0,0,46.08,19.74Z" fill="#231f20"/><path d="M57.14,22.87H54.77l.72-3.41a3.56,3.56,0,0,0,.08-.67c0-.65-.34-1-.86-1-.94,0-1.57.74-1.88,2.22l-.61,2.87H49.84L51.29,16h2.13l-.26,1.22a3.4,3.4,0,0,1,2.59-1.33A2.1,2.1,0,0,1,58,18.28a9.9,9.9,0,0,1-.25,1.88Z" fill="#231f20"/><path d="M67.55,16.07l-1.44,6.8c-.42,2-2,2.7-4.17,2.7a8.26,8.26,0,0,1-2.67-.47l.44-1.76a3.88,3.88,0,0,0,2.13.58c1.24,0,2.22-.58,2.47-2.42a3.08,3.08,0,0,1-2.54,1.37c-1.6,0-2.65-1.15-2.65-3a4.45,4.45,0,0,1,.78-2.58,3.3,3.3,0,0,1,2.81-1.43A2.41,2.41,0,0,1,65,17.23l.25-1.16Zm-4.31,1.58c-.91,0-1.71,1-1.71,2.34a1.19,1.19,0,0,0,1.18,1.32A2.08,2.08,0,0,0,64.51,19,1.27,1.27,0,0,0,63.24,17.65Z" fill="#231f20"/><path d="M71.48,16.07l-.71,3.42a2.72,2.72,0,0,0-.08.67c0,.66.31,1,.9,1,.86,0,1.52-.75,1.84-2.23l.6-2.88h2.39L75,22.87H72.83l.27-1.15a3.44,3.44,0,0,1-2.6,1.33,2.09,2.09,0,0,1-2.22-2.37,9.69,9.69,0,0,1,.25-1.89l.57-2.72Z" fill="#231f20"/><path d="M79.15,20.08c.1,1,.65,1.47,1.75,1.47A5.9,5.9,0,0,0,83.22,21L83,22.72a8.48,8.48,0,0,1-2.51.38c-2.15,0-3.42-1.26-3.42-3.19a4.35,4.35,0,0,1,1.22-3,4.21,4.21,0,0,1,3-1.07,2.65,2.65,0,0,1,2.92,2.94A6.32,6.32,0,0,1,84,20.08Zm3.1-1.62a1.12,1.12,0,0,0-1.19-1.23c-.73,0-1.34.56-1.6,1.54h2.76A1.63,1.63,0,0,0,82.25,18.46Z" fill="#231f20"/><path d="M6,28.35a1.67,1.67,0,0,0-.71-.16c-.69,0-.93.39-1.12,1.11H5.91L5.57,31H3.84L2.75,36.1H.4L1.5,31H.08L.44,29.3h1.4a2.67,2.67,0,0,1,3-2.47,4.82,4.82,0,0,1,1.51.3Z" fill="#231f20"/><path d="M11.46,31.25a4.14,4.14,0,0,0-1-.19c-1.09,0-1.57.68-1.87,2.11L7.92,36.1H5.54l1.39-6.82H9.09l-.25,1.24a2.63,2.63,0,0,1,2.25-1.4,3.29,3.29,0,0,1,.9.14Z" fill="#231f20"/><path d="M18.39,34.38a11.66,11.66,0,0,0-.28,1.72h-2l.13-1a2.68,2.68,0,0,1-2.35,1.18,2,2,0,0,1-2.28-2c0-1.53,1.4-2.48,4-2.48a10.83,10.83,0,0,1,1.1.07,1.85,1.85,0,0,0,0-.23c0-.68-.45-1.06-1.31-1.06a5,5,0,0,0-2.22.52l.28-1.59a6.72,6.72,0,0,1,2.26-.39c2.05,0,3.16.86,3.16,2.17a6.9,6.9,0,0,1-.14,1.21ZM15.8,33c-1.27,0-1.94.37-1.94,1.06a.78.78,0,0,0,.88.76A1.87,1.87,0,0,0,16.47,33,5.24,5.24,0,0,0,15.8,33Z" fill="#231f20"/><path d="M26.86,36.1H24.49l.71-3.41a2.89,2.89,0,0,0,.08-.67c0-.65-.33-1-.86-1-.94,0-1.56.74-1.88,2.22l-.6,2.87H19.55L21,29.24h2.13l-.27,1.22a3.42,3.42,0,0,1,2.6-1.33,2.1,2.1,0,0,1,2.22,2.38,9.9,9.9,0,0,1-.25,1.88Z" fill="#231f20"/><path d="M34.75,31.2a3.37,3.37,0,0,0-1.45-.36,1.92,1.92,0,0,0-2.1,2A1.59,1.59,0,0,0,33,34.46a3.25,3.25,0,0,0,1.34-.31L34,36a8,8,0,0,1-2,.27,3.06,3.06,0,0,1-3.37-3.16c0-2.3,1.65-4,4.31-4a5.94,5.94,0,0,1,2.28.45Zm-2.56,4.9-.21.6c1,0,1.5.4,1.5,1.12,0,.93-.62,1.5-1.79,1.5a7,7,0,0,1-1.91-.38l.33-.86a4.26,4.26,0,0,0,1.52.34c.4,0,.62-.2.62-.49s-.31-.44-1-.44H31l.48-1.39Z" fill="#231f20"/><path d="M41.94,34.38a11.66,11.66,0,0,0-.28,1.72h-2l.13-1a2.68,2.68,0,0,1-2.35,1.18,2,2,0,0,1-2.28-2c0-1.53,1.4-2.48,4-2.48a11,11,0,0,1,1.1.07,1.85,1.85,0,0,0,0-.23c0-.68-.45-1.06-1.31-1.06a5,5,0,0,0-2.22.52l.28-1.59a6.72,6.72,0,0,1,2.26-.39c2,0,3.16.86,3.16,2.17a6.9,6.9,0,0,1-.14,1.21ZM39.35,33c-1.27,0-1.94.37-1.94,1.06a.78.78,0,0,0,.88.76A1.87,1.87,0,0,0,40,33,5.24,5.24,0,0,0,39.35,33Z" fill="#231f20"/><path d="M47.15,29.29,45.67,36.1H43.35l1.49-6.81Zm.49-2.37-.24,1.22H45.09l.22-1.22Z" fill="#231f20"/><path d="M53.4,31a6,6,0,0,0-1.8-.38c-.69,0-1.06.25-1.06.62s.54.53,1.4.89,1.39.9,1.39,1.68c0,1.44-1.19,2.47-3.22,2.47a8.14,8.14,0,0,1-2.71-.44l.49-1.64a4.24,4.24,0,0,0,1.91.47c.78,0,1.19-.23,1.19-.61s-.4-.57-1-.81c-1.12-.45-1.71-.87-1.71-1.92,0-1.23,1.18-2.23,3.23-2.23a7.9,7.9,0,0,1,2.39.41Z" fill="#231f20"/><path d="M56.6,33.31c.09,1,.65,1.47,1.74,1.47a5.9,5.9,0,0,0,2.32-.51L60.39,36a8.43,8.43,0,0,1-2.51.38,3.07,3.07,0,0,1-3.41-3.19,4.34,4.34,0,0,1,1.21-3,4.21,4.21,0,0,1,3-1.07A2.65,2.65,0,0,1,61.64,32a5.74,5.74,0,0,1-.16,1.29Zm3.09-1.62a1.12,1.12,0,0,0-1.19-1.23c-.73,0-1.33.56-1.6,1.54h2.77C59.68,31.9,59.69,31.79,59.69,31.69Z" fill="#231f20"/><path d="M162.42,36.13V48.49h20.17V36.13Zm15,7.12c-.24.76-.67,1-.79,1a1.3,1.3,0,0,0-.41-1.27,1.14,1.14,0,0,0-1.61.32,2.61,2.61,0,0,0-.36,1.09h1.05v.77h-2.12a1.06,1.06,0,0,0,1.22,1s-.14.86-1.22.41a1.58,1.58,0,0,1-.67,1.36,1.57,1.57,0,0,1-.68-1.36c-1.07.45-1.21-.41-1.21-.41a1.06,1.06,0,0,0,1.21-1h-2.12v-.77h1.06a2.61,2.61,0,0,0-.36-1.09A1.15,1.15,0,0,0,168.8,43a1.29,1.29,0,0,0-.42,1.27c-.12,0-.55-.26-.79-1A1.71,1.71,0,0,1,170,41.19a3.52,3.52,0,0,1,1.45,3.22h.56a6,6,0,0,0-.09-1.85,10.67,10.67,0,0,0-.71-1.91,2.42,2.42,0,0,1,.23-2.51,15.3,15.3,0,0,0,1-1.36,13.47,13.47,0,0,0,1,1.36,2.43,2.43,0,0,1,.22,2.51,10.67,10.67,0,0,0-.71,1.91,6,6,0,0,0-.09,1.85h.56A3.52,3.52,0,0,1,175,41.19,1.7,1.7,0,0,1,177.42,43.25Z" fill="#006bb6" fill-rule="evenodd"/><path d="M188.46,36.13V48.49h20.17V36.13Zm15,7.12c-.23.76-.66,1-.78,1a1.3,1.3,0,0,0-.41-1.27,1.16,1.16,0,0,0-1.62.32,2.78,2.78,0,0,0-.36,1.09h1.06v.77h-2.12a1.06,1.06,0,0,0,1.22,1s-.15.86-1.22.41a.85.85,0,1,1-1.36,0c-1.07.45-1.21-.41-1.21-.41a1,1,0,0,0,1.21-1h-2.11v-.77h1.06a2.53,2.53,0,0,0-.37-1.09,1.14,1.14,0,0,0-1.6-.32,1.27,1.27,0,0,0-.42,1.27c-.12,0-.55-.26-.79-1a1.7,1.7,0,0,1,2.44-2.06,3.5,3.5,0,0,1,1.46,3.22h.56a6.37,6.37,0,0,0-.09-1.85,10.67,10.67,0,0,0-.71-1.91,2.43,2.43,0,0,1,.22-2.51,14.15,14.15,0,0,0,1-1.36,12.84,12.84,0,0,0,1,1.36,2.42,2.42,0,0,1,.23,2.51,10.67,10.67,0,0,0-.71,1.91,6.37,6.37,0,0,0-.09,1.85h.56A3.52,3.52,0,0,1,201,41.19,1.7,1.7,0,0,1,203.45,43.25Z" fill="#006bb6" fill-rule="evenodd"/><path d="M162.42,54.38V66.74h20.17V54.38Zm15,7.11c-.24.76-.67,1-.79,1a1.3,1.3,0,0,0-.41-1.27,1.15,1.15,0,0,0-1.61.32,2.61,2.61,0,0,0-.36,1.09h1.05v.78h-2.12a1.05,1.05,0,0,0,1.22,1s-.14.86-1.22.41a1.57,1.57,0,0,1-.67,1.36,1.56,1.56,0,0,1-.68-1.36c-1.07.45-1.21-.41-1.21-.41a1.05,1.05,0,0,0,1.21-1h-2.12v-.78h1.06a2.61,2.61,0,0,0-.36-1.09,1.16,1.16,0,0,0-1.61-.32,1.29,1.29,0,0,0-.42,1.27c-.12,0-.55-.26-.79-1A1.7,1.7,0,0,1,170,59.44a3.49,3.49,0,0,1,1.45,3.21h.56A6,6,0,0,0,172,60.8a11,11,0,0,0-.71-1.91,2.42,2.42,0,0,1,.23-2.51,13.92,13.92,0,0,0,1-1.36,12.39,12.39,0,0,0,1,1.36,2.43,2.43,0,0,1,.22,2.51,11,11,0,0,0-.71,1.91,6,6,0,0,0-.09,1.85h.56A3.49,3.49,0,0,1,175,59.44,1.69,1.69,0,0,1,177.42,61.49Z" fill="#006bb6" fill-rule="evenodd"/><path d="M188.46,54.38V66.74h20.17V54.38Zm15,7.11c-.23.76-.66,1-.78,1a1.3,1.3,0,0,0-.41-1.27,1.17,1.17,0,0,0-1.62.32,2.78,2.78,0,0,0-.36,1.09h1.06v.78h-2.12a1.05,1.05,0,0,0,1.22,1s-.15.86-1.22.41a.85.85,0,1,1-1.36,0c-1.07.45-1.21-.41-1.21-.41a1,1,0,0,0,1.21-1h-2.11v-.78h1.06a2.53,2.53,0,0,0-.37-1.09,1.15,1.15,0,0,0-1.6-.32,1.27,1.27,0,0,0-.42,1.27c-.12,0-.55-.26-.79-1a1.69,1.69,0,0,1,2.44-2.05,3.47,3.47,0,0,1,1.46,3.21h.56A6.37,6.37,0,0,0,198,60.8a11,11,0,0,0-.71-1.91,2.43,2.43,0,0,1,.22-2.51,13,13,0,0,0,1-1.36,11.86,11.86,0,0,0,1,1.36,2.42,2.42,0,0,1,.23,2.51,11,11,0,0,0-.71,1.91,6.37,6.37,0,0,0-.09,1.85h.56A3.49,3.49,0,0,1,201,59.44,1.69,1.69,0,0,1,203.45,61.49Z" fill="#006bb6" fill-rule="evenodd"/></svg>