<svg xmlns="http://www.w3.org/2000/svg" viewBox="0 0 63.53 47.55"><path d="M35.07,11.73H30.9a.25.25,0,0,1-.23-.35L32.73,6a.27.27,0,0,1,.5,0l2.08,5.41A.26.26,0,0,1,35.07,11.73ZM35,.17A.27.27,0,0,0,34.74,0H31.21A.27.27,0,0,0,31,.17L23.24,19.64a.27.27,0,0,0,.25.37h3.69a.27.27,0,0,0,.25-.18L29,15.64a.28.28,0,0,1,.28-.19h7.35a.28.28,0,0,1,.27.19l1.6,4.19a.27.27,0,0,0,.25.18h3.68a.27.27,0,0,0,.25-.37Z" fill="#333" fill-rule="evenodd"/><path d="M41.67,27.55H38.22a.27.27,0,0,0-.27.27V40.06a.27.27,0,0,1-.48.17L27.38,27.65a.25.25,0,0,0-.21-.1H24.28a.27.27,0,0,0-.27.27V47.28a.27.27,0,0,0,.27.27h3.44a.28.28,0,0,0,.27-.27V35a.27.27,0,0,1,.47-.17L38.55,47.45a.23.23,0,0,0,.2.1h2.92a.27.27,0,0,0,.27-.27V27.82a.27.27,0,0,0-.27-.27" fill="#333" fill-rule="evenodd"/><path d="M53.41,31.34h7.37a.27.27,0,0,0,.27-.27V27.82a.27.27,0,0,0-.27-.27H49.35a.27.27,0,0,0-.27.27V47.28a.27.27,0,0,0,.27.27H60.78a.27.27,0,0,0,.27-.27V44a.27.27,0,0,0-.27-.27H53.41a.27.27,0,0,1-.27-.27V39.73a.24.24,0,0,1,.24-.24h7.1a.27.27,0,0,0,.27-.27V36a.27.27,0,0,0-.27-.27l-7.07,0a.27.27,0,0,1-.27-.27v-3.8a.27.27,0,0,1,.27-.27" fill="#333" fill-rule="evenodd"/><path d="M11.84,39.27H7.68a.25.25,0,0,1-.24-.34l2.07-5.41a.27.27,0,0,1,.5,0l2.07,5.41A.25.25,0,0,1,11.84,39.27Zm-.07-11.55a.26.26,0,0,0-.25-.17H8a.26.26,0,0,0-.25.17L0,47.18a.27.27,0,0,0,.25.37H4a.27.27,0,0,0,.25-.17l1.6-4.2A.3.3,0,0,1,6.09,43h7.34a.32.32,0,0,1,.28.19l1.6,4.2a.27.27,0,0,0,.25.17h3.68a.27.27,0,0,0,.25-.37Z" fill="#333" fill-rule="evenodd"/><path d="M18.12,19.62,10.3,9.2,18,.5a.27.27,0,0,0-.2-.44H13.22a.27.27,0,0,0-.2.09L5.82,8.41a.24.24,0,0,1-.43-.16V.33A.27.27,0,0,0,5.12.06H1.6a.27.27,0,0,0-.27.27V19.79a.27.27,0,0,0,.27.27H5.12a.27.27,0,0,0,.27-.27V14.91a.35.35,0,0,1,.08-.22l2.27-2.58L13.57,20a.28.28,0,0,0,.21.1h4.13a.27.27,0,0,0,.21-.44" fill="#333" fill-rule="evenodd"/><path d="M59.21,7.14a2.17,2.17,0,0,1-.85.82,2.92,2.92,0,0,1-1.35.3H53.35A.27.27,0,0,1,53.08,8V4a.27.27,0,0,1,.27-.27H57a3,3,0,0,1,1.42.3,2,2,0,0,1,.81.78A2.48,2.48,0,0,1,59.51,6a2.09,2.09,0,0,1-.3,1.14m0,8a1.91,1.91,0,0,1-.81.78,3,3,0,0,1-1.42.31H53.35a.27.27,0,0,1-.27-.28V12a.27.27,0,0,1,.27-.27H57a2.8,2.8,0,0,1,1.35.31,2.14,2.14,0,0,1,.85.81,2.11,2.11,0,0,1,.3,1.14,2.42,2.42,0,0,1-.27,1.16M62.46,11a5.69,5.69,0,0,0-1.16-1,4.33,4.33,0,0,0,.87-.84,5.28,5.28,0,0,0,1.07-3.38,5.73,5.73,0,0,0-.77-3,5.38,5.38,0,0,0-2.2-2A7,7,0,0,0,57.1,0H49.44a.36.36,0,0,0-.36.36V19.65a.36.36,0,0,0,.36.36h8a7,7,0,0,0,3.17-.7,5.38,5.38,0,0,0,2.2-2,5.73,5.73,0,0,0,.77-3A5.28,5.28,0,0,0,62.46,11" fill="#333" fill-rule="evenodd"/></svg>