<svg xmlns="http://www.w3.org/2000/svg" viewBox="0 0 504.8 103.1"><path d="M291.25,77.34c-3.22,6-9.51,8.78-15.95,8.78-9.07,0-16.39-5.7-18.88-14.93h56.93c2.78-29.85-15.66-47.12-37.9-47.12-21.23,0-38.64,17.85-38.64,39.66s17.41,39.37,38.64,39.37c18.73,0,32.05-10.39,36.44-25.76ZM275.3,41.05c9.22,0,16.54,5.55,18.88,14.34H256.72C259.5,46.6,266.52,41.05,275.3,41.05Z"/><path d="M353.72,103A31.5,31.5,0,0,0,376,94.08l.07,0c.59,4.54,2.91,7,7.43,7.58h11.89V0H376V33.15a31.63,31.63,0,0,0-22.25-8.79c-19.6,0-35.85,17-35.85,39.37S334.12,103,353.72,103Zm2.93-60.73c10.69,0,19.32,9.66,19.32,21.65,0,11.72-8.63,21.23-19.32,21.23s-19.31-9.22-19.31-21.23C337.34,51.59,346,42.22,356.65,42.22Z"/><path d="M426.34,4.92c0-2.64-1.57-4.61-3.84-4.92H406.91V16.4h19.43Z"/><path d="M415.14,101.74h11.25l0-75.91H406.91V93.5A8.24,8.24,0,0,0,415.14,101.74Z"/><path d="M232.5,57.22c0-19.76-10.84-33.23-31-33.23-9.65,0-16.69,4.1-22.1,10.68C174.1,27.94,167.07,24,157.71,24c-8.2,0-13.91,3.51-18.59,9.22V25.78H120.53V101.7H140V57.22c0-8.49,5.12-14.94,13.61-14.94,12.73,0,13.17,10.54,13.17,14.94V101.7h19.47V57.22c0-8.49,5.12-14.94,13.76-14.94,11.94,0,13,9.48,13.16,14.21,0,.14,0,36.88,0,36.88a8.25,8.25,0,0,0,1.52,4.76,7.13,7.13,0,0,0,4.22,3.09l.1,0,.54.14.26.06c.32.06.64.13,1,.17h11.73Z"/><path d="M28.07,4.92C28.07,2.28,26.5.31,24.23,0H8.8V16.4H28.07Z"/><path d="M28.07,82.79V34a8.24,8.24,0,0,0-8.24-8.24H0V41.2H5.7c1.81,0,2.9.84,3.09,2.59V93.4A8.23,8.23,0,0,0,17,101.64h9.63l10.9-16H31.33A2.94,2.94,0,0,1,28.07,82.79Z"/><path d="M89.51,55.43l8-12A5.29,5.29,0,0,1,102,41h7.24V25.72H93.15a10.09,10.09,0,0,0-5.76,2.21,11.74,11.74,0,0,0-1.34,1.31L61.83,65.5l-3.74,5.61L49.82,83.48,37.69,101.64H51.58c6.44,0,8.56-1.35,12-7.19l1.75-2.64h0L75,77.21l16.25,24.47h21L85.55,61.43Z"/><polygon points="69.96 37.96 61.82 25.71 40.81 25.71 59.33 53.58 69.96 37.96"/><path d="M504.8,101.7V49.83c0-6-2.36-25.76-32.95-25.76-19.76,0-33.52,10.68-35.42,25h19.32c1.76-6.45,9.66-9.52,16.54-9.52,8.63,0,13.75,3.22,13.75,7.17,0,6.15-8.92,7.62-21.51,8.79-16.68,1.47-30.88,5.85-30.88,22.83,0,16.38,14.64,24.44,30.59,24.44,9.59,0,16.7-2.7,21.66-7.16.89,3.56,3.17,5.51,7.15,6Zm-18-29.63c0,9.67-9.37,13.61-20.93,13.61-7.76,0-12.73-2.92-12.73-7.17,0-5.56,5.85-7.61,15.36-8.63,7.91-.88,14.2-2.19,18.3-4.83Z"/></svg>