<svg xmlns="http://www.w3.org/2000/svg" viewBox="0 0 185.26 36.67"><rect width="36.67" height="36.67" fill="#ffd200"/><polygon points="9.9 9.41 27.64 18.23 9.88 27.26 21.3 18.25 9.9 9.41"/><path d="M56.47,26.92H52.91L47.2,9.59h3.24L54.7,23,59,9.59h3.22Z"/><path d="M65.91,26.92V9.59h3V26.92Z"/><path d="M85.62,24.37a9.09,9.09,0,0,1-2.15,2,3.82,3.82,0,0,1-1.74.52H73.8V9.59h7.93a3.5,3.5,0,0,1,1.77.49,10.45,10.45,0,0,1,2.09,2.12,2.75,2.75,0,0,1,.46,1.65v8.87A3,3,0,0,1,85.62,24.37ZM81.53,24s.18,0,.2,0c.41-.23,1.28-1,1.28-1.33V13.94a.4.4,0,0,0,0-.15,3.8,3.8,0,0,0-1.27-1.27.74.74,0,0,0-.27,0h-4.6V24Z"/><path d="M90.89,26.92V9.59h10.89v2.9H93.93v4.37h7.3v2.9h-7.3V24h7.85v2.9Z"/><path d="M119,24.46a11.31,11.31,0,0,1-2.12,2.08,3.71,3.71,0,0,1-1.8.52h-4.4a3.65,3.65,0,0,1-1.8-.52,10.42,10.42,0,0,1-2.11-2.08,3,3,0,0,1-.47-1.66V13.73a2.91,2.91,0,0,1,.47-1.65A10.16,10.16,0,0,1,108.85,10a3.65,3.65,0,0,1,1.8-.52h4.4a3.71,3.71,0,0,1,1.8.52A11,11,0,0,1,119,12.08a3,3,0,0,1,.46,1.65V22.8A3,3,0,0,1,119,24.46Zm-9.65-1.68a.28.28,0,0,0,0,.11,4.79,4.79,0,0,0,1.28,1.25.31.31,0,0,0,.14,0h4.18a.36.36,0,0,0,.14,0,4.79,4.79,0,0,0,1.28-1.25.27.27,0,0,0,0-.11v-9s0-.11,0-.14a5,5,0,0,0-1.28-1.28.29.29,0,0,0-.14,0h-4.18s-.11,0-.14,0a5,5,0,0,0-1.28,1.28.49.49,0,0,0,0,.14Z"/><path d="M130,12.49V26.92h-3V12.49h-4.69V9.59h12.43v2.9Z"/><path d="M150.3,17.91a9.92,9.92,0,0,1-1.57,1.53,2.63,2.63,0,0,1-.75.41l3.45,7.07h-3.31l-3.21-6.84h-3.34v6.84h-3V9.59h8.14a3.71,3.71,0,0,1,2.06.64,10.24,10.24,0,0,1,1.57,1.59,3.29,3.29,0,0,1,.52,1.77v2.55A3.22,3.22,0,0,1,150.3,17.91Zm-2.52-4.29a.59.59,0,0,0,0-.2c-.18-.32-.64-.9-.93-.93h-5.25v4.69h5.1c.26,0,.84-.55,1.08-.95a.31.31,0,0,0,0-.12Z"/><path d="M168,24.46a11.31,11.31,0,0,1-2.12,2.08,3.67,3.67,0,0,1-1.79.52h-4.41a3.61,3.61,0,0,1-1.79-.52,10.47,10.47,0,0,1-2.12-2.08,3,3,0,0,1-.46-1.66V13.73a2.9,2.9,0,0,1,.46-1.65A10.22,10.22,0,0,1,157.9,10a3.61,3.61,0,0,1,1.79-.52h4.41a3.67,3.67,0,0,1,1.79.52A11,11,0,0,1,168,12.08a2.9,2.9,0,0,1,.46,1.65V22.8A3,3,0,0,1,168,24.46Zm-9.65-1.68a.2.2,0,0,0,0,.11,4.92,4.92,0,0,0,1.27,1.25.33.33,0,0,0,.15,0H164a.4.4,0,0,0,.15,0,4.77,4.77,0,0,0,1.27-1.25.27.27,0,0,0,0-.11v-9s0-.11,0-.14a5,5,0,0,0-1.27-1.28.33.33,0,0,0-.15,0h-4.17s-.12,0-.15,0a5.11,5.11,0,0,0-1.27,1.28.34.34,0,0,0,0,.14Z"/><path d="M182,26.92l-6-11.5v11.5H173V9.59h3.28l5.94,11.65V9.59h3V26.92Z"/><polygon points="100.46 4.98 97.14 4.98 94.94 7.81 97.71 7.81 100.46 4.98"/></svg>