<svg xmlns="http://www.w3.org/2000/svg" viewBox="0 0 469.97 167.71"><rect x="16.02" y="151.2" width="359.33" height="10.58" fill="#84949f"/><polygon points="342.14 2.28 342.07 2.28 342.07 127.17 358.14 127.17 358.14 2.28 358.14 2.28 342.14 2.28" fill="#4c5d6d"/><path d="M168.7,113.3c-22.87,0-33.07-15.06-33.07-48.9s10.2-48.94,33.07-48.94,33.13,15.08,33.13,48.94S191.61,113.3,168.7,113.3ZM168.7,0c-33.52,0-49.13,20.45-49.13,64.4s15.61,64.38,49.13,64.38,49.19-20.45,49.19-64.38C217.89,21.06,201.77,0,168.7,0Z" fill="#4c5d6d"/><path d="M303,51.21h0c-4.48,4.49-13.43,4.49-24.74,4.49H250.72V17.4h25l4.54,0c10.59-.08,18.9-.13,23.13,4,2.68,2.65,3.93,7.28,3.93,14.17C307.3,43.23,305.92,48.35,303,51.21Zm1,56.36c-4.26,4.22-13,4.2-24,4.16H250.72V70.64h28.22c12,0,20.73,0,25,4.24,2.9,2.92,4.27,8.17,4.27,16.55C308.21,99.59,306.85,104.71,304,107.57Zm9.14-44.88c8.14-6.63,10-17.93,10-26.58,0-11.72-2.69-20.06-8.14-25.52-8.37-8.36-21-8.34-35.54-8.32H234.92V127H278c24.78,0,46.2,0,46.2-36.08C324.19,81.2,322.89,69.42,313.14,62.69Z" fill="#4c5d6d"/><path d="M88.63,37.39c0,7.57-1.28,12.39-4,15.1-4,4-12,3.92-22.21,3.87l-4.21,0H32.05V17.42H59.8c11.23,0,20.07-.07,24.54,4.39C87.21,24.67,88.63,29.76,88.63,37.39Zm5.79,26.26c6.73-5.12,10-13.53,10-25.7,0-12.78-2.75-21.73-8.4-27.41C87.7,2.24,74.87,2.25,60,2.26H0v12.3l3.86.3c11.49.85,11.57,1.41,12.18,8.39v104h16V71.82H56.93c31.7,0,31.7.44,31.7,25v30.4h15.83V96.32s-.08,0-.08.05a6.39,6.39,0,0,0,.08-1.08l0-5.6C104.49,80.67,103.31,69.76,94.42,63.65Z" fill="#4c5d6d"/><path d="M424.49,113.3c-22.88,0-33.06-15.06-33.06-48.9s10.18-48.94,33.06-48.94c14,0,23.24,5.63,28.31,17.72h17.07C463.3,10.91,448.29,0,424.49,0,391,0,375.38,20.45,375.38,64.4s15.59,64.38,49.11,64.38c24.21,0,39.09-10.66,45.48-33.09H452.78C447.69,107.71,438.45,113.3,424.49,113.3Z" fill="#4c5d6d"/><path d="M391.47,145.27v22h-3.88V146.56Z" fill="#84949f"/><path d="M404.05,161.12a5.68,5.68,0,0,1,3-5,5.35,5.35,0,0,1-2.36-4.26c0-3.81,3.31-6.18,7.19-6.18s7.22,2.37,7.22,6.18a4.67,4.67,0,0,1-2.4,4.26,5.62,5.62,0,0,1,3,5c0,4.1-3.09,6.59-7.85,6.59S404.05,165.22,404.05,161.12Zm11.79,0c0-1.79-1.52-2.9-3.94-2.9s-4,1.11-4,2.9,1.71,2.75,4,2.75S415.84,162.86,415.84,161.09Zm-.47-9.17c0-1.42-1.36-2.37-3.44-2.37s-3.38.92-3.38,2.34,1.61,2.39,3.38,2.39S415.37,153.37,415.37,151.92Z" fill="#84949f"/><path d="M445.26,155.73c0,5.46-1.64,12-8.83,12-2.93,0-4.86-1.16-7-3.37l2.78-2.74a5.5,5.5,0,0,0,4.41,2.24c2.56,0,4.23-2,4.64-4.89a12.29,12.29,0,0,1-2.18.66,10.67,10.67,0,0,1-2.18.22c-4.66,0-7.34-3.06-7.34-6.56a7.38,7.38,0,0,1,7.75-7.63C443.08,145.64,445.26,150.44,445.26,155.73Zm-7.92.44a6.43,6.43,0,0,0,4-1.35v-.25c0-2.78-1.42-5-4.1-5-2.27,0-3.78,1.17-3.78,3.31C433.5,154.72,434.89,156.17,437.34,156.17Z" fill="#84949f"/><path d="M454.74,150c2.08-3.24,4.32-4.35,7.22-4.35,3.91,0,6.94,2.21,6.94,6.66,0,2.83-2.11,5.32-5,8l-3.08,2.9H470v4.06H454.68V164c6.71-6.47,10.31-8.58,10.31-11.67a2.84,2.84,0,0,0-3.12-2.74c-1.64,0-2.78.53-4.1,2.52Z" fill="#84949f"/></svg>