<svg xmlns="http://www.w3.org/2000/svg" xmlns:xlink="http://www.w3.org/1999/xlink" viewBox="0 0 171.33 61.95"><defs><radialGradient id="a" cx="-424.79" cy="17.09" r="1" gradientTransform="translate(18217.85 -14497.44) rotate(-36.31) scale(54.8)" gradientUnits="userSpaceOnUse"><stop offset="0" stop-color="#46a4de"/><stop offset="0.12" stop-color="#46a4de"/><stop offset="1" stop-color="#273678"/></radialGradient></defs><path d="M161.22,53.09V34.93h2.11V51.18h8v1.91Zm-7.85-7.67-2.11-5.63c-.27-.71-.55-1.59-.84-2.62a24.55,24.55,0,0,1-.78,2.62l-2.14,5.63Zm2.92,7.67L154,47.32h-7.27l-2.24,5.77h-2.14l7.18-18.23h1.78l7.14,18.23Zm-18.37,0h-2.11V36.81H130V34.93h13.61v1.88H137.9ZM125.09,34.93h2.11V53.09h-2.11Zm-12.78,9.21h1.9a7.09,7.09,0,0,0,4.06-.91,3.35,3.35,0,0,0,1.25-2.91,3.1,3.1,0,0,0-1.17-2.68,6.1,6.1,0,0,0-3.68-.88h-2.36Zm9.4-3.92a5.13,5.13,0,0,1-1.88,4.25A8.6,8.6,0,0,1,114.44,46h-2.13v7.14H110.2V34.93h4.7q6.81,0,6.81,5.29m-19.36,5.2-2.11-5.63c-.27-.71-.55-1.59-.84-2.62a24.55,24.55,0,0,1-.78,2.62l-2.14,5.63Zm2.92,7.67L103,47.32h-7.3L93.5,53.09H91.36l7.18-18.23h1.78l7.14,18.23ZM84.82,36.56a6,6,0,0,0-4.72,2A8,8,0,0,0,78.36,44,8.27,8.27,0,0,0,80,49.52a6,6,0,0,0,4.77,1.94,16.24,16.24,0,0,0,4.33-.68v1.85a13.4,13.4,0,0,1-4.66.71,7.91,7.91,0,0,1-6.19-2.43C76.84,49.28,76.11,47,76.11,44a11,11,0,0,1,1-4.92,7.48,7.48,0,0,1,3-3.25,9,9,0,0,1,4.67-1.15,11.06,11.06,0,0,1,5,1l-.89,1.81a9.52,9.52,0,0,0-4.13-1M165.19,20l-2.11-5.63c-.27-.71-.56-1.58-.85-2.62a22.43,22.43,0,0,1-.78,2.62L159.32,20Zm2.92,7.68L165.91,22h-7.28l-2.23,5.78h-2.14l7.18-18.29h1.77l7.15,18.24Zm-18.37,0h-2.11V11.48h-5.69V9.61h13.61v1.87H149.8Zm-17,0V9.61h2.11V25.85h8v1.92ZM124.9,20l-2.11-5.63c-.29-.84-.54-1.69-.75-2.54a24.61,24.61,0,0,1-.79,2.62l-2.13,5.63Zm2.92,7.68L125.62,22h-7.28l-2.23,5.78H114l7.18-18.24h1.77L130,27.77Zm-16.65,0h-2.41L98.9,12.53h-.1c.13,1.79.2,3.42.2,4.92V27.77H97V9.61h2.38l9.9,15.18h.1c0-.23,0-.95-.11-2.16a19,19,0,0,1-.06-2.6V9.61h2Zm-21-18.08h2.11V27.77H90.17Zm-11,18.16H77V9.61H87.17v1.87h-8v6.65H86.7V20H79.16Z" fill="#3d3a3b"/><path d="M37.52,62A31.26,31.26,0,0,0,49,5.56C50.9,20.49,49.72,42.23,37.53,62m-27-7.27a31.27,31.27,0,0,1,33.39-52C38.31,23.14,26.24,47.59,19,60.09c-.44-.19-.87-.38-1.29-.58,7.12-12.84,16.88-32.2,21.67-46.9C34,24.53,18.2,44.75,10.55,54.68" fill="url(#a)"/></svg>