<svg xmlns="http://www.w3.org/2000/svg" viewBox="0 0 182.3 104.6"><path d="M13.9,62.4C4.1,62.4,0,55.6,0,48.8V0H11.9V48.1c0,2.8,1.2,4.3,4.2,4.3h4.5v10Z" fill="#353534"/><path d="M37.3,42.3c0,6.1,3.7,10.6,10.4,10.6,5.2,0,7.8-1.5,10.8-4.5l7.2,7c-4.8,4.8-9.5,7.5-18.1,7.5-11.2,0-22-5.1-22-24.4C25.6,23,34,14.2,46.3,14.2,59.5,14.2,67,23.9,67,36.9v5.3l-29.7.1Zm17-13.2a8.26,8.26,0,0,0-7.9-4.9,8.16,8.16,0,0,0-7.9,4.9,13.63,13.63,0,0,0-1.1,5.1H55.5a15.91,15.91,0,0,0-1.2-5.1" fill="#353534"/><polygon points="95.8 62.4 86.5 62.4 69 14.8 81.5 14.8 91.2 44.2 100.8 14.8 113.3 14.8 95.8 62.4" fill="#353534"/><rect x="119.3" y="14.8" width="11.9" height="47.5" fill="#353534"/><path d="M9.4,87.7l-.9-2.6H3.3l-.9,2.6H.3L5.1,74.6H6.7l4.8,13.1ZM6,77.6,4,83.4H8Z" fill="#353534"/><polygon points="15.4 76.4 15.4 80.4 20.9 80.4 20.9 82.2 15.4 82.2 15.4 87.7 13.4 87.7 13.4 74.6 21.8 74.6 21.8 76.4 15.4 76.4" fill="#353534"/><polygon points="26 76.4 26 80.4 31.4 80.4 31.4 82.2 26 82.2 26 87.7 24 87.7 24 74.6 32.4 74.6 32.4 76.4 26 76.4" fill="#353534"/><path d="M41.4,87.7l-.9-2.6H35.3l-.9,2.6H32.3l4.8-13.1h1.6l4.8,13.1ZM38,77.6l-2.1,5.8h4Z" fill="#353534"/><rect x="45.5" y="74.6" width="2" height="13.1" fill="#353534"/><path d="M57.7,87.7l-2.8-5.5H52.4v5.5h-2V74.6h5.2a3.76,3.76,0,0,1,4.1,3.8,3.41,3.41,0,0,1-2.6,3.5l3,5.8ZM55.4,76.4H52.5v4.1h2.9a2,2,0,0,0,2.2-2.1c.1-1.2-.8-2-2.2-2" fill="#353534"/><polygon points="62.3 87.7 62.3 74.6 70.7 74.6 70.7 76.4 64.3 76.4 64.3 80.2 69.7 80.2 69.7 82 64.3 82 64.3 85.9 70.7 85.9 70.7 87.7 62.3 87.7" fill="#353534"/><path d="M77.1,87.8a6,6,0,0,1-4.6-1.7l1.3-1.3A4.14,4.14,0,0,0,77.1,86c1.7,0,2.7-.7,2.7-2a2,2,0,0,0-.5-1.4,3.07,3.07,0,0,0-1.4-.6l-1.6-.2a4.46,4.46,0,0,1-2.5-1.1,3.38,3.38,0,0,1-1-2.5c0-2.3,1.7-3.8,4.4-3.8a5.5,5.5,0,0,1,4.1,1.5L80,77.1a3.83,3.83,0,0,0-2.9-1c-1.6,0-2.4.9-2.4,2.1a1.66,1.66,0,0,0,.5,1.2,3,3,0,0,0,1.5.6l1.5.2a4.14,4.14,0,0,1,2.4,1,3.53,3.53,0,0,1,1.1,2.7c.1,2.5-1.9,3.9-4.6,3.9" fill="#353534"/><polygon points="92.3 82 92.3 85.1 90.6 85.1 90.6 82 87.5 82 87.5 80.3 90.6 80.3 90.6 77.2 92.3 77.2 92.3 80.3 95.4 80.3 95.4 82 92.3 82" fill="#8cbf44"/><polygon points="6.3 93.1 6.3 104.4 4.3 104.4 4.3 93.1 0.7 93.1 0.7 91.3 9.9 91.3 9.9 93.1 6.3 93.1" fill="#353534"/><polygon points="12.2 104.4 12.2 91.3 20.6 91.3 20.6 93.1 14.2 93.1 14.2 96.9 19.6 96.9 19.6 98.7 14.2 98.7 14.2 102.7 20.6 102.7 20.6 104.4 12.2 104.4" fill="#353534"/><path d="M27.3,104.6a4.6,4.6,0,0,1-3.4-1.4c-1.3-1.3-1.3-2.8-1.3-5.3s0-4,1.3-5.3a4.76,4.76,0,0,1,3.4-1.4,4.55,4.55,0,0,1,4.7,4H30A2.62,2.62,0,0,0,27.3,93a2.41,2.41,0,0,0-1.9.8c-.7.7-.8,1.5-.8,4.1s.2,3.4.8,4.1a2.73,2.73,0,0,0,1.9.8,2.62,2.62,0,0,0,2.7-2.2h2a4.71,4.71,0,0,1-4.7,4" fill="#353534"/><polygon points="41.7 104.4 41.7 98.7 36.4 98.7 36.4 104.4 34.4 104.4 34.4 91.3 36.4 91.3 36.4 96.9 41.7 96.9 41.7 91.3 43.7 91.3 43.7 104.4 41.7 104.4" fill="#353534"/><polygon points="55 104.4 48.9 95.2 48.9 104.4 46.9 104.4 46.9 91.3 48.8 91.3 54.8 100.5 54.8 91.3 56.8 91.3 56.8 104.4 55 104.4" fill="#353534"/><path d="M67.9,103.2a4.83,4.83,0,0,1-3.5,1.4,4.6,4.6,0,0,1-3.4-1.4c-1.3-1.3-1.3-2.8-1.3-5.3s0-4,1.3-5.3a4.76,4.76,0,0,1,3.4-1.4,4.83,4.83,0,0,1,3.5,1.4c1.3,1.3,1.2,2.8,1.2,5.3s.1,4-1.2,5.3m-1.5-9.4a2.73,2.73,0,0,0-1.9-.8,2.56,2.56,0,0,0-1.9.8c-.6.7-.8,1.4-.8,4.1s.1,3.4.8,4.1a2.73,2.73,0,0,0,1.9.8,2.56,2.56,0,0,0,1.9-.8c.6-.7.8-1.4.8-4.1s-.2-3.4-.8-4.1" fill="#353534"/><polygon points="71.9 104.4 71.9 91.3 73.9 91.3 73.9 102.7 80.3 102.7 80.3 104.4 71.9 104.4" fill="#353534"/><path d="M90.1,103.2a4.83,4.83,0,0,1-3.5,1.4,4.6,4.6,0,0,1-3.4-1.4c-1.3-1.3-1.3-2.8-1.3-5.3s0-4,1.3-5.3a4.76,4.76,0,0,1,3.4-1.4,5,5,0,0,1,3.5,1.4c1.3,1.3,1.2,2.8,1.2,5.3s.1,4-1.2,5.3m-1.5-9.4a2.73,2.73,0,0,0-1.9-.8,2.56,2.56,0,0,0-1.9.8c-.6.7-.8,1.4-.8,4.1s.1,3.4.8,4.1a2.73,2.73,0,0,0,1.9.8,2.56,2.56,0,0,0,1.9-.8c.6-.7.8-1.4.8-4.1s-.2-3.4-.8-4.1" fill="#353534"/><path d="M102.1,103.1a5,5,0,0,1-7,.1c-1.3-1.3-1.3-2.8-1.3-5.3s0-4,1.3-5.3a4.76,4.76,0,0,1,3.4-1.4,4.63,4.63,0,0,1,4.8,4.1h-2A2.72,2.72,0,0,0,98.5,93a2.41,2.41,0,0,0-1.9.8c-.6.7-.8,1.4-.8,4.1s.1,3.4.8,4.1a2.73,2.73,0,0,0,1.9.8,2.58,2.58,0,0,0,2.1-.9,3,3,0,0,0,.7-2.1v-.7H98.5V97.4h4.8v2a5,5,0,0,1-1.2,3.7" fill="#353534"/><rect x="106.1" y="91.3" width="2" height="13.1" fill="#353534"/><polygon points="111.3 104.4 111.3 91.3 119.7 91.3 119.7 93.1 113.3 93.1 113.3 96.9 118.7 96.9 118.7 98.7 113.3 98.7 113.3 102.7 119.7 102.7 119.7 104.4 111.3 104.4" fill="#353534"/><path d="M126.2,104.6a6,6,0,0,1-4.6-1.7l1.3-1.3a4.23,4.23,0,0,0,3.4,1.2c1.7,0,2.7-.7,2.7-2a2,2,0,0,0-.5-1.4,3.07,3.07,0,0,0-1.4-.6l-1.6-.2a3.88,3.88,0,0,1-2.5-1.1,3.38,3.38,0,0,1-1-2.5c0-2.3,1.7-3.9,4.4-3.9a5.5,5.5,0,0,1,4.1,1.5l-1.3,1.2a3.83,3.83,0,0,0-2.9-1c-1.6,0-2.4.9-2.4,2a1.35,1.35,0,0,0,.5,1.2,3,3,0,0,0,1.5.6l1.5.2a4.14,4.14,0,0,1,2.4,1,3.53,3.53,0,0,1,1.1,2.7c.1,2.6-1.9,4.1-4.7,4.1" fill="#353534"/><path d="M158.9,0a23.4,23.4,0,1,0,23.4,23.4A23.43,23.43,0,0,0,158.9,0m0,34.9a11.5,11.5,0,1,1,11.5-11.5,11.5,11.5,0,0,1-11.5,11.5" fill="#8cbf44"/></svg>