<svg xmlns="http://www.w3.org/2000/svg" viewBox="0 0 251.04 144"><path d="M19.1,85.93C5.65,85.93,0,76.51,0,67.21V0H16.33V66.2c0,3.9,1.64,5.91,5.78,5.91H28.4V85.93Z" fill="#194e62"/><path d="M51.33,58.29c0,8.42,5.15,14.57,14.32,14.57,7.16,0,10.68-2,14.83-6.15l9.92,9.67C83.74,83,77.34,86.68,65.53,86.68c-15.46,0-30.28-7-30.28-33.54,0-21.37,11.56-33.43,28.52-33.43C82,19.71,92.29,33,92.29,51v7.29ZM74.7,40.07a11.36,11.36,0,0,0-10.93-6.79,11.36,11.36,0,0,0-10.93,6.79,17.84,17.84,0,0,0-1.51,7H76.21A18.2,18.2,0,0,0,74.7,40.07Z" fill="#194e62"/><path d="M132,85.93H119.13L95,20.47h17.21l13.32,40.46,13.19-40.46h17.21Z" fill="#194e62"/><path d="M164.23,85.93V20.47h16.33V85.93Z" fill="#194e62"/><path d="M12.94,120.81l-1.24-3.62H4.57l-1.24,3.62H.41L7,102.75H9.24l6.62,18.06Zm-4.74-14-2.82,8h5.56Z" fill="#194e62"/><path d="M21.23,105.21v5.51h7.51v2.46H21.23v7.63H18.49V102.75H30v2.46Z" fill="#194e62"/><path d="M35.76,105.21v5.51h7.52v2.46H35.76v7.63H33V102.75H44.57v2.46Z" fill="#194e62"/><path d="M57,120.81l-1.24-3.62H48.67l-1.25,3.62H44.5l6.63-18.06h2.2L60,120.81Zm-4.75-14-2.81,8H55Z" fill="#194e62"/><path d="M62.58,120.81V102.75h2.74v18.06Z" fill="#194e62"/><path d="M79.48,120.81l-3.81-7.61H72.25v7.61H69.51V102.75h7c3.43,0,5.61,2.2,5.61,5.28a4.74,4.74,0,0,1-3.6,4.79l4.16,8Zm-3.17-15.6H72.25v5.66h4.06a2.84,2.84,0,1,0,0-5.66Z" fill="#194e62"/><path d="M85.76,120.81V102.75H97.3v2.46H88.5v5.28H96v2.43H88.5v5.43h8.8v2.46Z" fill="#194e62"/><path d="M106.1,121a8.18,8.18,0,0,1-6.39-2.39l1.83-1.8a5.94,5.94,0,0,0,4.61,1.72c2.36,0,3.73-1,3.73-2.76a2.4,2.4,0,0,0-.71-1.88,3.1,3.1,0,0,0-2-.76l-2.14-.3a6.17,6.17,0,0,1-3.42-1.45,4.49,4.49,0,0,1-1.32-3.45c0-3.15,2.28-5.3,6-5.3a7.52,7.52,0,0,1,5.61,2.05l-1.76,1.73a5.28,5.28,0,0,0-3.93-1.4c-2.13,0-3.3,1.22-3.3,2.82a2.15,2.15,0,0,0,.69,1.67,4,4,0,0,0,2,.84l2,.3a6,6,0,0,1,3.38,1.35,4.72,4.72,0,0,1,1.47,3.7C112.6,119,109.88,121,106.1,121Z" fill="#194e62"/><path d="M127.11,113v4.27H124.7V113h-4.26v-2.41h4.26v-4.23h2.41v4.23h4.27V113Z" fill="#8cc540"/><path d="M8.68,128.24v15.61H5.94V128.24H1v-2.46H13.65v2.46Z" fill="#194e62"/><path d="M16.78,143.85V125.78H28.33v2.46H19.52v5.28H27V136H19.52v5.43h8.81v2.46Z" fill="#194e62"/><path d="M37.51,144a6.54,6.54,0,0,1-4.74-1.93C31,140.3,31,138.29,31,134.81s0-5.48,1.75-7.25a6.5,6.5,0,0,1,4.74-1.93A6.22,6.22,0,0,1,44,131.19H41.17a3.74,3.74,0,0,0-6.32-2c-.89,1-1.09,2-1.09,5.63s.2,4.67,1.09,5.64a3.75,3.75,0,0,0,6.34-2H44A6.23,6.23,0,0,1,37.51,144Z" fill="#194e62"/><path d="M57.44,143.85V136H50.11v7.89H47.37V125.78h2.74v7.71h7.33v-7.71h2.74v18.07Z" fill="#194e62"/><path d="M75.72,143.85l-8.35-12.72v12.72H64.63V125.78h2.52l8.34,12.69V125.78h2.74v18.07Z" fill="#194e62"/><path d="M93.42,142.07a6.83,6.83,0,0,1-9.52,0c-1.77-1.77-1.75-3.78-1.75-7.26s0-5.48,1.75-7.25a6.83,6.83,0,0,1,9.52,0c1.78,1.77,1.72,3.78,1.72,7.25S95.2,140.3,93.42,142.07Zm-2.08-12.86a3.79,3.79,0,0,0-5.38,0c-.89,1-1.07,2-1.07,5.6s.18,4.65,1.07,5.61a3.79,3.79,0,0,0,5.38,0c.89-1,1.06-2,1.06-5.61S92.23,130.17,91.34,129.21Z" fill="#194e62"/><path d="M99,143.85V125.78h2.74v15.61h8.7v2.46Z" fill="#194e62"/><path d="M124.07,142.07A6.56,6.56,0,0,1,119.3,144a6.48,6.48,0,0,1-4.75-1.93c-1.78-1.77-1.75-3.78-1.75-7.26s0-5.48,1.75-7.25a6.44,6.44,0,0,1,4.75-1.93,6.52,6.52,0,0,1,4.77,1.93c1.77,1.77,1.72,3.78,1.72,7.25S125.84,140.3,124.07,142.07ZM122,129.21a3.79,3.79,0,0,0-5.38,0c-.89,1-1.07,2-1.07,5.6s.18,4.65,1.07,5.61a3.79,3.79,0,0,0,5.38,0c.88-1,1.06-2,1.06-5.61S122.87,130.17,122,129.21Z" fill="#194e62"/><path d="M140.58,141.94a6.92,6.92,0,0,1-9.72.13c-1.77-1.77-1.75-3.78-1.75-7.26s0-5.48,1.75-7.25a6.46,6.46,0,0,1,4.75-1.93,6.35,6.35,0,0,1,6.57,5.61h-2.77a3.68,3.68,0,0,0-3.8-3.15,3.63,3.63,0,0,0-2.67,1.12c-.88,1-1.09,2-1.09,5.6s.21,4.67,1.09,5.64a3.64,3.64,0,0,0,2.67,1.09,3.83,3.83,0,0,0,2.94-1.27,4.08,4.08,0,0,0,.91-2.84v-1h-3.85v-2.33h6.6v2.76C142.21,139.18,141.77,140.68,140.58,141.94Z" fill="#194e62"/><path d="M146.08,143.85V125.78h2.74v18.07Z" fill="#194e62"/><path d="M153.24,143.85V125.78h11.54v2.46H156v5.28h7.51V136H156v5.43h8.8v2.46Z" fill="#194e62"/><path d="M173.82,144a8.16,8.16,0,0,1-6.4-2.39l1.83-1.8a6,6,0,0,0,4.62,1.73c2.36,0,3.73-1,3.73-2.77a2.47,2.47,0,0,0-.71-1.88,3.16,3.16,0,0,0-2-.76l-2.14-.3a6.13,6.13,0,0,1-3.42-1.45,4.48,4.48,0,0,1-1.32-3.45c0-3.15,2.28-5.3,6-5.3a7.56,7.56,0,0,1,5.61,2.05l-1.76,1.73A5.28,5.28,0,0,0,174,128c-2.13,0-3.3,1.22-3.3,2.82a2.15,2.15,0,0,0,.69,1.67,4,4,0,0,0,2,.84l2.05.31a6,6,0,0,1,3.38,1.34,4.73,4.73,0,0,1,1.47,3.71C180.31,142,177.6,144,173.82,144Z" fill="#194e62"/><path d="M218.78,0A32.26,32.26,0,1,0,251,32.27,32.26,32.26,0,0,0,218.78,0Zm0,48.1a15.84,15.84,0,1,1,15.83-15.84A15.84,15.84,0,0,1,218.78,48.11Z" fill="#8cc540"/></svg>