<svg width="1440" height="621" viewBox="0 0 1440 621" fill="none" xmlns="http://www.w3.org/2000/svg">
<path d="M1558.54 2H-114.417V619H1558.54V2Z" stroke="#000CA0" stroke-width="3" stroke-miterlimit="10"/>
<path d="M-115.537 500.303H1558.54" stroke="#000CA0" stroke-width="3" stroke-miterlimit="10"/>
<path d="M-115.537 564.131H1558.54" stroke="#000CA0" stroke-width="3" stroke-miterlimit="10"/>
<path d="M-115.537 427.517H1558.54" stroke="#000CA0" stroke-width="3" stroke-miterlimit="10"/>
<path d="M-115.537 355.851H1558.54" stroke="#000CA0" stroke-width="3" stroke-miterlimit="10"/>
<path d="M-115.537 283.065H1558.54" stroke="#000CA0" stroke-width="3" stroke-miterlimit="10"/>
<path d="M-115.537 211.399H1558.54" stroke="#000CA0" stroke-width="3" stroke-miterlimit="10"/>
<path d="M-115.537 137.494H1558.54" stroke="#000CA0" stroke-width="3" stroke-miterlimit="10"/>
<path d="M-115.537 65.8276H1558.54" stroke="#000CA0" stroke-width="3" stroke-miterlimit="10"/>
<path d="M-85.3031 2H1528.3" stroke="#000CA0" stroke-width="3" stroke-miterlimit="10"/>
<path d="M1384.97 2V619" stroke="#000CA0" stroke-width="3" stroke-miterlimit="10"/>
<path d="M1320.02 2V619" stroke="#000CA0" stroke-width="3" stroke-miterlimit="10"/>
<path d="M64.7477 2L64.7477 619" stroke="#000CA0" stroke-width="3" stroke-miterlimit="10"/>
<path d="M133.054 2L133.054 619" stroke="#000CA0" stroke-width="3" stroke-miterlimit="10"/>
<path d="M201.361 2L201.361 619" stroke="#000CA0" stroke-width="3" stroke-miterlimit="10"/>
<path d="M269.668 2L269.668 619" stroke="#000CA0" stroke-width="3" stroke-miterlimit="10"/>
<path d="M337.975 2L337.975 619" stroke="#000CA0" stroke-width="3" stroke-miterlimit="10"/>
<path d="M406.281 2L406.281 619" stroke="#000CA0" stroke-width="3" stroke-miterlimit="10"/>
<path d="M474.588 2L474.588 619" stroke="#000CA0" stroke-width="3" stroke-miterlimit="10"/>
<path d="M542.895 2L542.895 619" stroke="#000CA0" stroke-width="3" stroke-miterlimit="10"/>
<path d="M611.201 2L611.201 619" stroke="#000CA0" stroke-width="3" stroke-miterlimit="10"/>
<path d="M679.508 2L679.508 619" stroke="#000CA0" stroke-width="3" stroke-miterlimit="10"/>
<path d="M747.815 2L747.815 619" stroke="#000CA0" stroke-width="3" stroke-miterlimit="10"/>
<path d="M816.122 2L816.122 619" stroke="#000CA0" stroke-width="3" stroke-miterlimit="10"/>
<path d="M884.428 2L884.428 619" stroke="#000CA0" stroke-width="3" stroke-miterlimit="10"/>
<path d="M952.735 2L952.735 619" stroke="#000CA0" stroke-width="3" stroke-miterlimit="10"/>
<path d="M1021.04 2L1021.04 619" stroke="#000CA0" stroke-width="3" stroke-miterlimit="10"/>
<path d="M1089.35 2L1089.35 619" stroke="#000CA0" stroke-width="3" stroke-miterlimit="10"/>
<path d="M1157.66 2L1157.66 619" stroke="#000CA0" stroke-width="3" stroke-miterlimit="10"/>
<path d="M1225.96 2L1225.96 619" stroke="#000CA0" stroke-width="3" stroke-miterlimit="10"/>
</svg>
