<?xml version="1.0" encoding="UTF-8"?>
<svg width="1440px" height="357px" viewBox="0 0 1440 357" version="1.1" xmlns="http://www.w3.org/2000/svg" xmlns:xlink="http://www.w3.org/1999/xlink">
    <title>Artboard</title>
    <g id="Artboard" stroke="none" stroke-width="1" fill="none" fill-rule="evenodd">
        <g id="vectorSmallGrid" transform="translate(-117.000000, 1.000000)" stroke="#000CA0" stroke-width="3">
            <line x1="0" y1="354.351" x2="1674.077" y2="354.351" id="Path"></line>
            <line x1="0" y1="281.565" x2="1674.077" y2="281.565" id="Path"></line>
            <line x1="0" y1="209.899" x2="1674.077" y2="209.899" id="Path"></line>
            <line x1="0" y1="135.994" x2="1674.077" y2="135.994" id="Path"></line>
            <line x1="0" y1="64.3276" x2="1674.077" y2="64.3276" id="Path"></line>
            <line x1="30.2339" y1="0.5" x2="1643.837" y2="0.5" id="Path"></line>
            <line x1="1500.537" y1="0.5" x2="1500.537" y2="355.5" id="Path"></line>
            <line x1="1435.537" y1="0.5" x2="1435.537" y2="355.5" id="Path"></line>
            <line x1="180.537" y1="0.5" x2="180.537" y2="355.5" id="Path"></line>
            <line x1="248.537" y1="0.5" x2="248.537" y2="355.5" id="Path"></line>
            <line x1="316.537" y1="0.5" x2="316.537" y2="355.5" id="Path"></line>
            <line x1="385.537" y1="0.5" x2="385.537" y2="355.5" id="Path"></line>
            <line x1="453.537" y1="0.5" x2="453.537" y2="355.5" id="Path"></line>
            <line x1="521.537" y1="0.5" x2="521.537" y2="355.5" id="Path"></line>
            <line x1="590.537" y1="0.5" x2="590.537" y2="355.5" id="Path"></line>
            <line x1="658.537" y1="0.5" x2="658.537" y2="355.5" id="Path"></line>
            <line x1="726.537" y1="0.5" x2="726.537" y2="355.5" id="Path"></line>
            <line x1="795.537" y1="0.5" x2="795.537" y2="355.5" id="Path"></line>
            <line x1="863.537" y1="0.5" x2="863.537" y2="355.5" id="Path"></line>
            <line x1="931.537" y1="0.5" x2="931.537" y2="355.5" id="Path"></line>
            <line x1="999.537" y1="0.5" x2="999.537" y2="355.5" id="Path"></line>
            <line x1="1068.537" y1="0.5" x2="1068.537" y2="355.5" id="Path"></line>
            <line x1="1136.537" y1="0.5" x2="1136.537" y2="355.5" id="Path"></line>
            <line x1="1204.537" y1="0.5" x2="1204.537" y2="355.5" id="Path"></line>
            <line x1="1273.537" y1="0.5" x2="1273.537" y2="355.5" id="Path"></line>
            <line x1="1341.537" y1="0.5" x2="1341.537" y2="355.5" id="Path"></line>
        </g>
    </g>
</svg>