<svg class="_link__logo_84be5d" id="nav-logo" viewBox="0 0 560 110" width="122" xmlns="http://www.w3.org/2000/svg" xmlns:xlink="http://www.w3.org/1999/xlink"><mask id="logo-mask"><rect width="100%" height="100%"></rect><rect id="mask-fill" x="0" y="0" width="100%" height="100%" fill="#fff"></rect></mask><g mask="url(#logo-mask)"><path fill-rule="evenodd" clip-rule="evenodd" d="M554.026 51.3017C554.026 21.254 533.921 1.14909 503.874 1.14909C473.68 1.14909 453.575 21.254 453.575 51.3017C453.575 81.6418 473.68 101.893 503.874 101.893C533.848 101.82 554.026 81.5687 554.026 51.3017ZM503.8 21.5464C486.327 21.5464 474.703 33.5363 474.703 51.3017C474.703 69.3596 486.327 81.4225 503.8 81.4225C521.127 81.4225 532.752 69.3596 532.752 51.3017C532.752 33.4632 521.2 21.5464 503.8 21.5464ZM399.036 48.3773H444.071V99.4073H426.451V89.6107C426.451 88.0023 424.477 87.3443 423.527 88.6603C419.14 95.4594 408.613 102.112 395.892 102.112C368.476 102.112 347.713 82.446 347.713 51.5941C347.713 20.7422 367.599 1.07598 397.427 1.07598C417.459 1.07598 434.493 14.0162 440.342 33.3901H419.14C415.851 26.2985 407.516 21.6927 397.208 21.6927C380.174 21.6927 368.842 33.0976 368.842 51.521C368.842 71.8453 382.074 81.3494 395.015 81.3494C406.566 81.3494 415.704 74.6234 419.652 66.289H398.889V48.3773H399.036ZM287.837 20.8153H341.645V2.31883H266.343V99.4073H341.645V80.9107H287.837V59.0512H336.893V39.7505H287.837V20.8153ZM234.175 56.4193C234.175 57.2235 234.76 57.8815 235.491 58.1008C246.165 60.5134 252.233 67.8974 252.233 75.3545V99.4073H230.885V77.5477C230.885 71.0411 224.525 66.2159 214.948 66.2159H192.65V99.4073H171.302V2.31883H222.039C241.779 2.31883 254.792 13.5776 254.792 30.6119C254.792 41.7245 246.75 51.3017 235.418 54.7378C234.76 54.9571 234.175 55.6151 234.175 56.4193ZM192.723 20.6691V45.8185H219.334C227.157 45.8185 233.444 40.1161 233.444 33.4632C233.444 26.8103 227.157 20.6691 217.945 20.6691H192.723ZM134.894 2.31883V99.4073H156.168V2.31883H134.894ZM119.541 2.31883H77.5032L61.9311 79.6679C61.7849 80.4721 61.1269 80.9839 60.3227 80.9839C59.5185 80.9839 58.8605 80.399 58.7143 79.6679L43.1421 2.31883H0.958374V99.4073H22.3061V22.6431C22.3061 21.7658 23.0372 20.9616 23.9876 20.9616C24.7918 20.9616 25.4498 21.4733 25.596 22.2775L41.7531 99.4073H78.7461L94.9031 22.2775C95.0494 21.5464 95.7073 20.9616 96.5115 20.9616C97.3888 20.9616 98.193 21.6927 98.193 22.6431V99.4073H119.541V2.31883Z"></path></g><animate id="maskanim" attributeName="width" from="100%" to="0%" xlink:href="#mask-fill" dur="300ms" begin="indefinite" fill="freeze"></animate><path id="shape" fill-rule="evenodd" clip-rule="evenodd" opacity="0" d="M 118.583 1.759 C 113.912 1.759 109.241 1.759 104.57 1.759 L 90.558 1.759 C 85.887 1.759 81.216 1.759 76.545 1.759 C 74.283 14.817 72.021 27.875 69.759 40.933 L 60.973 79.108 C 60.9 79.51 60.699 79.839 60.416 80.068 C 60.133 80.296 59.767 80.424 59.365 80.424 C 58.561 80.424 57.903 79.839 57.756 79.108 L 49.97 40.434 L 42.184 1.759 L 0 1.759 L 0 98.847 L 21.348 98.847 L 21.348 22.083 C 21.348 21.206 22.079 20.402 23.03 20.402 C 23.834 20.402 24.492 20.913 24.638 21.718 L 32.717 60.283 C 35.409 73.138 38.102 85.992 40.795 98.847 C 44.905 98.847 49.016 98.847 53.126 98.847 L 65.457 98.847 C 69.567 98.847 73.678 98.847 77.788 98.847 C 79.583 90.277 81.378 81.707 83.174 73.138 L 88.559 47.428 C 90.355 38.858 92.15 30.288 93.945 21.718 C 94.091 20.986 94.749 20.402 95.554 20.402 C 96.431 20.402 97.235 21.133 97.235 22.083 L 97.235 98.847 L 107.909 98.847 L 118.583 98.847 L 118.583 1.759 C 118.583 1.759 118.583 1.759 118.583 1.759"><animate id="minilogoanimscale" fill="freeze" begin="maskanim.begin" attributeName="opacity" from="0" to="100" dur="400ms" repeatCount="0"></animate><animate id="miniLogoAnimMorph" fill="freeze" begin="minilogoanimscale.end" attributeName="d" dur="400ms" to="M 112.856 7.679 C 108.691 3.509 102.411 0.52 95.921 0.035 L 92.355 0 C 86.175 0.437 79.816 3.186 75.686 7.041 C 71.552 10.895 68.226 18.369 67.361 24.5 L 63.519 79.676 C 63.523 79.742 63.694 80.651 62.544 81.717 C 61.399 82.788 59.175 82.788 58.025 81.722 C 56.88 80.655 57.081 79.842 57.051 79.685 L 52.235 12.285 L 51.5 1.989 L 0 1.989 L 0 104.71 L 22.18 104.71 L 22.18 24.168 C 23.624 24.168 25.069 24.168 26.513 24.168 C 27.957 24.168 29.402 24.168 30.846 24.168 L 34.928 81.263 C 35.78 87.093 38.979 94.295 42.913 97.953 C 46.842 101.615 54.075 104.281 59.948 104.718 L 60.495 104.718 C 66.377 104.281 73.741 101.607 77.675 97.94 C 81.608 94.269 84.798 87.058 85.646 81.219 L 89.488 26.043 C 89.706 24.089 91.454 22.092 93.683 22.127 C 93.855 22.127 94.027 22.127 94.199 22.127 C 96.153 22.044 98.342 23.77 98.408 26.336 L 98.408 104.71 L 120.587 104.71 L 120.587 104.71 L 120.587 26.336 C 120.102 19.846 117.025 11.844 112.856 7.679"></animate><animate id="miniLogoAnimMorphReverse" fill="freeze" attributeName="d" dur="400ms" to="M 118.583 1.759 C 113.912 1.759 109.241 1.759 104.57 1.759 L 90.558 1.759 C 85.887 1.759 81.216 1.759 76.545 1.759 C 74.283 14.817 72.021 27.875 69.759 40.933 L 60.973 79.108 C 60.9 79.51 60.699 79.839 60.416 80.068 C 60.133 80.296 59.767 80.424 59.365 80.424 C 58.561 80.424 57.903 79.839 57.756 79.108 L 49.97 40.434 L 42.184 1.759 L 0 1.759 L 0 98.847 L 21.348 98.847 L 21.348 22.083 C 21.348 21.206 22.079 20.402 23.03 20.402 C 23.834 20.402 24.492 20.913 24.638 21.718 L 32.717 60.283 C 35.409 73.138 38.102 85.992 40.795 98.847 C 44.905 98.847 49.016 98.847 53.126 98.847 L 65.457 98.847 C 69.567 98.847 73.678 98.847 77.788 98.847 C 79.583 90.277 81.378 81.707 83.174 73.138 L 88.559 47.428 C 90.355 38.858 92.15 30.288 93.945 21.718 C 94.091 20.986 94.749 20.402 95.554 20.402 C 96.431 20.402 97.235 21.133 97.235 22.083 L 97.235 98.847 L 107.909 98.847 L 118.583 98.847 L 118.583 1.759 C 118.583 1.759 118.583 1.759 118.583 1.759"></animate></path><animate id="maskanimReverse" begin="miniLogoAnimMorphReverse.end" attributeName="width" from="0%" to="100%" xlink:href="#mask-fill" dur="300ms" fill="freeze"></animate></svg>
