<?xml version="1.0" encoding="UTF-8"?>
<svg id="Calque_1" data-name="Calque 1" xmlns="http://www.w3.org/2000/svg" viewBox="0 0 162.51 123">
  <defs>
    <style>
      .cls-1 {
        stroke-width: 0px;
      }
    </style>
  </defs>
  <path class="cls-1" d="m24.49,59.19h8.74L32.42.17h-13.63l-1.61,35.55h-1.14L14.43.17H.8l-.8,59.03h8.74l.41-29.89h1.51l2.83,30.01h6.28l2.83-30.01h1.5l.41,29.89Z"/>
  <path class="cls-1" d="m91.97,59.19h8.74L99.91.17h-13.63l-1.61,35.55h-1.14L81.92.17h-13.63l-.8,59.03h8.74l.41-29.89h1.51l2.83,30.01h6.28l2.83-30.01h1.51l.41,29.89Z"/>
  <path class="cls-1" d="m56.67,6.48h-1.08c-1.41-3.78-5.04-6.48-9.3-6.48-5.48,0-9.93,4.47-9.93,9.98v40.03c0,2.75,1.11,5.25,2.91,7.06,1.8,1.81,4.28,2.92,7.02,2.92,4.7,0,8.64-3.29,9.67-7.71h.72v6.87h7.51V.16h-7.51v6.32Zm-9.2,47.17h-2.38V6.36h2.38v47.28h0Z"/>
  <path class="cls-1" d="m131.62,19.6v-9.62c0-5.51-4.45-9.98-9.93-9.98-4.26,0-7.89,2.69-9.3,6.48h-1.08V.2h-7.51v58.93h7.51v-6.91h1.08c1.41,3.78,5.04,6.48,9.3,6.48,2.74,0,5.22-1.12,7.02-2.92,1.8-1.8,2.91-4.3,2.91-7.06v-9.62c0-4.77-3.33-8.75-7.77-9.74,1.88-.42,3.55-1.37,4.86-2.68,1.8-1.81,2.91-4.31,2.91-7.06h0Zm-8.82,32.76h-2.38v-16.85h2.38v16.85Zm0-29.12h-2.38V6.39h2.38v16.85Z"/>
  <path class="cls-1" d="m148.28,0c-7.86,0-14.23,6.4-14.23,14.31v30.91c0,3.95,1.59,7.52,4.17,10.12,2.57,2.59,6.13,4.19,10.06,4.19,7.85,0,14.23-6.41,14.23-14.31V14.31c0-7.9-6.37-14.31-14.23-14.31Zm1.19,53.68h-2.38V6.39h2.38v47.28Z"/>
  <path class="cls-1" d="m24.49,122.19h8.74l-.8-59.03h-13.63l-1.61,35.55h-1.15l-1.6-35.55H.8l-.8,59.03h8.74l.41-29.89h1.51l2.83,30.01h6.28l2.82-30.01h1.51l.41,29.89Z"/>
  <path class="cls-1" d="m91.97,122.19h8.74l-.8-59.03h-13.63l-1.61,35.55h-1.15l-1.6-35.55h-13.64l-.8,59.03h8.74l.41-29.89h1.51l2.83,30.01h6.28l2.82-30.01h1.51l.41,29.89Z"/>
  <path class="cls-1" d="m56.67,69.48h-1.08c-1.41-3.78-5.04-6.48-9.3-6.48-5.48,0-9.93,4.47-9.93,9.98v40.03c0,2.76,1.11,5.25,2.91,7.06,1.8,1.81,4.28,2.93,7.02,2.93,4.7,0,8.64-3.29,9.67-7.71h.72v6.87h7.51v-59h-7.51v6.32Zm-9.2,47.17h-2.38v-47.29h2.38v47.28h0Z"/>
  <path class="cls-1" d="m131.62,82.6v-9.62c0-5.51-4.45-9.98-9.93-9.98-4.26,0-7.88,2.69-9.3,6.48h-1.08v-6.28h-7.51v58.93h7.51v-6.91h1.08c1.41,3.78,5.04,6.48,9.3,6.48,2.74,0,5.22-1.12,7.02-2.92,1.8-1.8,2.91-4.3,2.91-7.06v-9.62c0-4.77-3.32-8.75-7.77-9.74,1.88-.42,3.55-1.37,4.86-2.68,1.8-1.81,2.91-4.31,2.91-7.06h0Zm-8.82,32.76h-2.38v-16.85h2.38v16.85Zm0-29.12h-2.38v-16.85h2.38v16.85Z"/>
  <path class="cls-1" d="m148.28,63c-7.86,0-14.23,6.4-14.23,14.31v30.91c0,3.95,1.59,7.53,4.17,10.12,2.57,2.59,6.13,4.19,10.06,4.19,7.85,0,14.23-6.41,14.23-14.31v-30.91c0-7.9-6.37-14.31-14.23-14.31Zm1.19,53.68h-2.38v-47.28h2.38v47.28Z"/>
</svg>