<?xml version="1.0" encoding="UTF-8"?>
<svg width="159px" height="37px" viewBox="0 0 159 37" version="1.1" xmlns="http://www.w3.org/2000/svg" xmlns:xlink="http://www.w3.org/1999/xlink">
    <!-- Generator: Sketch 63.1 (92452) - https://sketch.com -->
    <title>logo</title>
    <desc>Created with Sketch.</desc>
    <g id="Symbols" stroke="none" stroke-width="1" fill="none" fill-rule="evenodd">
        <g id="elements/header/purple" transform="translate(-90.000000, -70.000000)" fill="#4B009B">
            <g id="logo/beneva" transform="translate(90.000000, 70.000000)">
                <path d="M144.9593,10.65 C148.0653,10.65 151.0233,11.981 152.8473,14.003 L152.8473,14.003 L152.8473,11.143 L158.3703,11.143 L158.3703,35.796 L152.8473,35.796 L152.8473,32.838 C150.9743,34.958 148.0163,36.289 144.9093,36.289 C138.6483,36.289 132.6323,31.309 132.6323,23.47 C132.6323,15.58 138.5493,10.65 144.9593,10.65 Z M102.6055,27.365 L107.1415,29.978 C104.8245,33.824 101.0765,36.289 95.8505,36.289 C90.6235,36.289 86.8765,33.824 84.5595,29.978 L84.5595,29.978 L89.0955,27.365 C90.4755,29.731 92.8925,31.309 95.8505,31.309 C98.8085,31.309 101.2245,29.731 102.6055,27.365 L102.6055,27.365 Z M47.876,27.365 L52.412,29.978 C50.095,33.824 46.348,36.289 41.121,36.289 C35.894,36.289 32.147,33.824 29.83,29.978 L29.83,29.978 L34.366,27.365 C35.746,29.731 38.163,31.309 41.121,31.309 C44.079,31.309 46.496,29.731 47.876,27.365 L47.876,27.365 Z M5.5221,0 L5.5221,14.003 C7.3461,11.981 10.3051,10.65 13.4111,10.65 C19.8211,10.65 25.7381,15.58 25.7381,23.47 C25.7381,31.309 19.7221,36.289 13.4601,36.289 C10.3541,36.289 7.3961,34.958 5.5221,32.838 L5.5221,32.838 L5.5221,35.796 L0.0001,35.796 L0.0001,0 L5.5221,0 Z M114.3393,11.143 L120.6513,28.302 L126.9623,11.143 L132.8793,11.143 L123.4123,35.796 L117.8903,35.796 L108.4233,11.143 L114.3393,11.143 Z M69.8661,10.6498 C76.0781,10.6498 79.9251,14.7428 79.9251,21.4478 L79.9251,21.4478 L79.9251,35.7958 L74.3031,35.7958 L74.3031,21.8918 C74.3031,17.9968 72.3311,15.5308 68.5841,15.5308 C65.2311,15.5308 62.5691,18.0948 62.5691,22.2368 L62.5691,22.2368 L62.5691,35.7958 L57.0471,35.7958 L57.0471,11.1428 L62.5691,11.1428 L62.5691,14.0028 C64.2951,11.9818 66.8091,10.6498 69.8661,10.6498 Z M145.6493,15.728 C141.4583,15.728 138.2043,19.081 138.2043,23.42 C138.2043,27.759 141.4583,31.161 145.6493,31.161 C149.9883,31.161 153.1433,27.71 153.1433,23.42 C153.1433,19.18 149.9883,15.728 145.6493,15.728 Z M12.7211,15.728 C8.3821,15.728 5.2261,19.18 5.2261,23.42 C5.2261,27.71 8.3821,31.161 12.7211,31.161 C16.9121,31.161 20.1661,27.759 20.1661,23.42 C20.1661,19.081 16.9121,15.728 12.7211,15.728 Z M95.8504,10.6501 C103.0484,10.6501 108.6694,16.3201 108.6694,23.5681 C108.6694,24.2091 108.6204,24.8501 108.5214,25.4421 L108.5214,25.4421 L83.1784,25.4421 C83.0804,24.8501 83.0304,24.2091 83.0304,23.5681 C83.0304,16.3201 88.6514,10.6501 95.8504,10.6501 Z M41.1209,10.6501 C48.3199,10.6501 53.9399,16.3201 53.9399,23.5681 C53.9399,24.2091 53.8909,24.8501 53.7919,25.4421 L53.7919,25.4421 L28.4499,25.4421 C28.3509,24.8501 28.3019,24.2091 28.3019,23.5681 C28.3019,16.3201 33.9219,10.6501 41.1209,10.6501 Z M95.8504,15.5801 C92.4974,15.5801 89.7854,17.7501 88.7504,20.6591 L88.7504,20.6591 L102.9504,20.6591 C101.9154,17.7501 99.2034,15.5801 95.8504,15.5801 Z M41.1209,15.5801 C37.7679,15.5801 35.0569,17.7501 34.0209,20.6591 L34.0209,20.6591 L48.2209,20.6591 C47.1859,17.7501 44.4739,15.5801 41.1209,15.5801 Z" id="logo"></path>
            </g>
        </g>
    </g>
</svg>