<?xml version="1.0" encoding="UTF-8"?>
<svg width="139px" height="57px" viewBox="0 0 139 57" version="1.1" xmlns="http://www.w3.org/2000/svg" xmlns:xlink="http://www.w3.org/1999/xlink">
    <title>Group 6</title>
    <g id="Page-1" stroke="none" stroke-width="1" fill="none" fill-rule="evenodd">
        <g id="Group-6" fill="#000000" fill-rule="nonzero">
            <path d="M6.53598645,57 L6.53598645,42.6731844 L6.58848434,42.6731844 L12.6782388,57 L18.5317528,57 L24.4115157,42.6410615 L24.4640135,42.6410615 L24.4640135,57 L31,57 L31,34 L21.9441152,34 L15.5131245,49.5153631 L15.4606266,49.5153631 L8.92464014,34 L0,34 L0,57 L6.53598645,57 Z M40.7920585,57 C44.5799373,57 47.6363636,55.3897996 48.8902821,52.8506375 L48.9164054,52.8506375 L48.9425287,53.129326 C49.2298851,55.5446266 51.1630094,57 54.1410658,57 C56.23093,57 58.0595611,56.4116576 59,55.4517304 L57.9028213,52.1693989 C57.4848485,52.5409836 56.8840125,52.7887067 56.3354232,52.7887067 C55.5517241,52.7887067 55.0815047,52.2932605 55.0815047,51.4571949 L55.0815047,46.1930783 C55.0815047,42.291439 51.1891327,40 45.1807732,40 C40.922675,40 36.6907001,41.3624772 34.0522466,43.4681239 L35.645768,47.276867 C38.2580982,45.3260474 41.9153605,44.0564663 45.1807732,44.0564663 C47.4535005,44.0564663 48.9164054,44.6448087 48.9164054,45.4808743 C48.9164054,45.7905282 48.5768025,46.0382514 48.0282132,46.1001821 L42.8557994,46.6575592 C37.2131661,47.276867 34,49.4754098 34,52.6338798 C34,55.420765 36.507837,57 40.7920585,57 Z M43.0386625,52.6338798 C41.2361546,52.6338798 40.2695925,52.2003643 40.2695925,51.3952641 C40.2695925,50.5901639 41.2884013,50.0947177 43.2737722,49.9089253 L48.8119122,49.3205829 L48.8119122,49.5373406 C48.8119122,51.3642987 46.539185,52.6338798 43.0386625,52.6338798 Z M66.2287105,57 L66.2287105,49.4090056 C66.2287105,46.5384615 67.5782644,44.8161351 69.8880779,44.8161351 C71.756691,44.8161351 72.8986212,46.1557223 72.8986212,48.4840525 L72.8986212,57 L79.1013788,57 L79.1013788,49.4090056 C79.1013788,46.5384615 80.4509327,44.8161351 82.7607461,44.8161351 C84.6553122,44.8161351 85.7712895,46.1557223 85.7712895,48.4840525 L85.7712895,57 L92,57 L92,47.3677298 C92,42.934334 89.6642336,40 85.7193836,40 C82.6828873,40 80.0097324,41.8499062 78.7899432,44.9118199 L78.7639903,44.9118199 C78.0113544,41.8818011 75.9610706,40 72.8467153,40 C69.7583131,40 67.214923,41.8818011 66.0210868,44.84803 L65.9951338,44.84803 L65.1905921,40.5422139 L60,40.5422139 L60,57 L66.2287105,57 Z M108.294046,57 C112.963548,57 116,53.5669291 116,48.3700787 C116,43.1417323 112.963548,39.7086614 108.294046,39.7086614 C104.976914,39.7086614 102.170109,41.5984252 101.149453,44.4645669 L101.123937,44.4645669 L101.123937,33 L95,33 L95,56.496063 L100.281896,56.496063 L101.072904,52.2125984 L101.09842,52.2125984 C102.119077,55.1102362 104.976914,57 108.294046,57 Z M105.410693,52.0551181 C102.680437,52.0551181 100.894289,50.5748031 100.894289,48.3700787 C100.894289,46.1653543 102.680437,44.6850394 105.410693,44.6850394 C108.115431,44.6850394 109.90158,46.1653543 109.90158,48.3700787 C109.90158,50.5748031 108.115431,52.0551181 105.410693,52.0551181 Z M128,57 C134.637019,57 139,53.6247723 139,48.5154827 C139,43.3752277 134.637019,40 128,40 C121.362981,40 117,43.3752277 117,48.5154827 C117,53.6247723 121.362981,57 128,57 Z M128,52.726776 C125.170673,52.726776 123.346154,51.0546448 123.346154,48.5154827 C123.346154,45.9763206 125.170673,44.3041894 128,44.3041894 C130.829327,44.3041894 132.653846,45.9763206 132.653846,48.5154827 C132.653846,51.0546448 130.829327,52.726776 128,52.726776 Z M6.53598645,24 L6.53598645,9.67318436 L6.58848434,9.67318436 L12.6782388,24 L18.5317528,24 L24.4115157,9.64106145 L24.4640135,9.64106145 L24.4640135,24 L31,24 L31,1 L21.9441152,1 L15.5131245,16.5153631 L15.4606266,16.5153631 L8.92464014,1 L0,1 L0,24 L6.53598645,24 Z M40.7920585,24 C44.5799373,24 47.6363636,22.3897996 48.8902821,19.8506375 L48.9164054,19.8506375 L48.9425287,20.129326 C49.2298851,22.5446266 51.1630094,24 54.1410658,24 C56.23093,24 58.0595611,23.4116576 59,22.4517304 L57.9028213,19.1693989 C57.4848485,19.5409836 56.8840125,19.7887067 56.3354232,19.7887067 C55.5517241,19.7887067 55.0815047,19.2932605 55.0815047,18.4571949 L55.0815047,13.1930783 C55.0815047,9.29143898 51.1891327,7 45.1807732,7 C40.922675,7 36.6907001,8.36247723 34.0522466,10.4681239 L35.645768,14.276867 C38.2580982,12.3260474 41.9153605,11.0564663 45.1807732,11.0564663 C47.4535005,11.0564663 48.9164054,11.6448087 48.9164054,12.4808743 C48.9164054,12.7905282 48.5768025,13.0382514 48.0282132,13.1001821 L42.8557994,13.6575592 C37.2131661,14.276867 34,16.4754098 34,19.6338798 C34,22.420765 36.507837,24 40.7920585,24 Z M43.0386625,19.6338798 C41.2361546,19.6338798 40.2695925,19.2003643 40.2695925,18.3952641 C40.2695925,17.5901639 41.2884013,17.0947177 43.2737722,16.9089253 L48.8119122,16.3205829 L48.8119122,16.5373406 C48.8119122,18.3642987 46.539185,19.6338798 43.0386625,19.6338798 Z M66.2287105,24 L66.2287105,16.4090056 C66.2287105,13.5384615 67.5782644,11.8161351 69.8880779,11.8161351 C71.756691,11.8161351 72.8986212,13.1557223 72.8986212,15.4840525 L72.8986212,24 L79.1013788,24 L79.1013788,16.4090056 C79.1013788,13.5384615 80.4509327,11.8161351 82.7607461,11.8161351 C84.6553122,11.8161351 85.7712895,13.1557223 85.7712895,15.4840525 L85.7712895,24 L92,24 L92,14.3677298 C92,9.93433396 89.6642336,7 85.7193836,7 C82.6828873,7 80.0097324,8.84990619 78.7899432,11.9118199 L78.7639903,11.9118199 C78.0113544,8.88180113 75.9610706,7 72.8467153,7 C69.7583131,7 67.214923,8.88180113 66.0210868,11.84803 L65.9951338,11.84803 L65.1905921,7.54221388 L60,7.54221388 L60,24 L66.2287105,24 Z M108.294046,24 C112.963548,24 116,20.5669291 116,15.3700787 C116,10.1417323 112.963548,6.70866142 108.294046,6.70866142 C104.976914,6.70866142 102.170109,8.5984252 101.149453,11.4645669 L101.123937,11.4645669 L101.123937,0 L95,0 L95,23.496063 L100.281896,23.496063 L101.072904,19.2125984 L101.09842,19.2125984 C102.119077,22.1102362 104.976914,24 108.294046,24 Z M105.410693,19.0551181 C102.680437,19.0551181 100.894289,17.5748031 100.894289,15.3700787 C100.894289,13.1653543 102.680437,11.6850394 105.410693,11.6850394 C108.115431,11.6850394 109.90158,13.1653543 109.90158,15.3700787 C109.90158,17.5748031 108.115431,19.0551181 105.410693,19.0551181 Z M128,24 C134.637019,24 139,20.6247723 139,15.5154827 C139,10.3752277 134.637019,7 128,7 C121.362981,7 117,10.3752277 117,15.5154827 C117,20.6247723 121.362981,24 128,24 Z M128,19.726776 C125.170673,19.726776 123.346154,18.0546448 123.346154,15.5154827 C123.346154,12.9763206 125.170673,11.3041894 128,11.3041894 C130.829327,11.3041894 132.653846,12.9763206 132.653846,15.5154827 C132.653846,18.0546448 130.829327,19.726776 128,19.726776 Z" id="Combined-Shape"></path>
        </g>
    </g>
</svg>