<svg viewBox="0 0 97 100" fill="none" xmlns="http://www.w3.org/2000/svg">
  <path d="M10.7701 0.485052V61.6413C10.7701 61.9085 10.5524 62.1263 10.2851 62.1263H0.485052C0.217779 62.1263 0 61.9085 0 61.6413V4.53376C0 4.33578 0.118788 4.16749 0.296971 4.0883L10.097 0.0296971C10.1564 0.00989905 10.2158 0 10.2752 0C10.3742 0 10.4633 0.0296971 10.5425 0.0791922C10.691 0.168284 10.7701 0.316769 10.7701 0.485052Z" fill="currentColor"/>
  <path d="M95.5948 29.0933C95.6542 29.321 95.5354 29.5684 95.3176 29.6575L87.6063 32.8549C87.4974 32.8945 87.3489 32.8945 87.24 32.845C87.1212 32.7856 87.0222 32.6965 86.9826 32.5678C85.963 29.7466 84.2703 26.866 79.4693 26.866C76.4204 26.866 74.0347 28.727 74.0347 31.1127C74.0347 33.043 75.4404 34.4784 77.7864 34.9436L84.0426 36.2107C91.8035 37.8935 96.2481 42.6253 96.2481 49.1784C96.2481 55.9691 90.7443 62.8391 80.2216 62.8391C69.4118 62.8391 64.1654 56.5334 62.9577 51.1384C62.9082 50.9107 63.027 50.6732 63.2448 50.594L71.2333 47.2778C71.2927 47.258 71.3521 47.2382 71.4213 47.2382C71.4906 47.2382 71.5599 47.2481 71.6193 47.2778C71.7381 47.3372 71.8371 47.4362 71.8767 47.555C73.025 50.792 74.9058 54.0982 80.1523 54.0982C83.6071 54.0982 85.8343 52.4352 85.8343 49.8515C85.8343 47.7727 84.3 46.3572 81.3996 45.7632L75.3216 44.4071C68.1547 42.8232 63.8783 38.1608 63.8783 31.9442C63.8783 24.3615 70.8769 18.2043 79.4792 18.2043C91.8232 18.2241 94.9315 26.5492 95.5948 29.0933Z" fill="currentColor"/>
  <path d="M57.6714 19.4719V56.7219C57.6714 70.3034 49.5938 78.4107 36.0717 78.4107C28.5782 78.4107 22.025 75.1638 18.4218 69.749C18.3426 69.6303 18.3228 69.4818 18.3624 69.3432C18.402 69.2046 18.5109 69.0957 18.6395 69.0363L27.5289 65.3638C27.5685 65.344 27.618 65.3341 27.6774 65.3341C27.8456 65.3242 27.9941 65.4133 28.103 65.5321C29.9244 67.6208 32.7952 68.9076 35.8144 68.9076C43.4366 68.9076 46.9904 65.146 46.9904 57.0585V54.4154L46.3568 55.0787C43.9118 57.6821 39.873 59.2363 35.557 59.2363C24.2622 59.2363 16.0658 50.6142 16.0658 38.7354C16.0658 27.0446 24.4404 18.2345 35.557 18.2345C40.2392 18.2345 44.1691 19.6798 46.6043 22.3228L47.2378 23.0058V19.4818C47.2378 19.2145 47.4556 18.9967 47.7229 18.9967H57.1864C57.4536 18.9868 57.6714 19.2046 57.6714 19.4719ZM47.0003 39.656C47.5645 33.3305 42.2784 28.0444 35.9529 28.6087C31.1024 29.0442 27.1923 32.9445 26.7667 37.8049C26.2024 44.1403 31.4885 49.4164 37.814 48.8522C42.6645 48.4166 46.5746 44.5065 47.0003 39.656Z" fill="currentColor"/>
  <path d="M95.9613 90.2495L96.2582 99.7525H94.9516L94.8625 91.8432L91.9719 99.6139H90.6851L87.7748 91.8333L87.6758 99.7525H86.4087L86.7255 90.2495H88.4479L91.3681 98.0697L94.2685 90.2495H95.9613Z" fill="currentColor"/>
  <path d="M82.8938 94.8623C84.1609 95.1791 84.8241 96.0007 84.8241 97.0698C84.8241 98.6834 83.7452 99.7623 81.3001 99.7623H78.0631V90.2593H81.211C83.5076 90.2593 84.5272 91.2888 84.5272 92.7835C84.5272 93.7437 83.9629 94.4664 82.8938 94.8623ZM81.4189 98.5646C82.8344 98.5646 83.5274 98.0597 83.5274 97.0698C83.5274 95.9809 82.5573 95.585 81.2209 95.585H79.35V98.5646H81.4189ZM83.2304 92.8825C83.2304 91.9718 82.5672 91.4373 81.31 91.4373H79.35V94.4169C79.3599 94.4169 81.112 94.4169 81.112 94.4169C82.488 94.4169 83.2304 93.813 83.2304 92.8825Z" fill="currentColor"/>
  <path d="M75.6089 90.2495H74.3319V99.7525H75.6089V90.2495Z" fill="currentColor"/>
  <path d="M69.0559 95.288C69.0559 95.6642 68.9965 96.0898 68.9074 96.3967C68.8975 96.3967 64.2252 96.4264 64.2252 96.4264V96.4858C64.2747 97.8519 65.1854 98.8319 66.5218 98.8319C67.2543 98.8319 68.0462 98.6339 68.6006 98.2577L68.8283 99.4159C68.2046 99.7921 67.3731 99.9901 66.4822 99.9901C64.3836 99.9901 62.9581 98.4854 62.9581 96.3571C62.9581 94.11 64.4529 92.5757 66.3931 92.5757C68.0858 92.5658 69.0559 93.625 69.0559 95.288ZM67.8582 95.486V95.3771C67.8582 94.3476 67.3731 93.6547 66.2743 93.6547C65.0864 93.6547 64.3836 94.5951 64.2846 95.5157L67.8582 95.486Z" fill="currentColor"/>
  <path d="M68.6498 89.0912L66.4226 91.8432H65.5118L67.1254 89.0912H68.6498Z" fill="currentColor"/>
  <path d="M61.9283 92.7935L61.8788 93.922H59.701L59.5922 97.8618C59.5823 98.5151 59.8792 98.8517 60.5029 98.8517C60.9285 98.8517 61.3542 98.7428 61.7699 98.5943C61.7897 98.5943 61.9976 99.6931 61.9976 99.6931C61.4829 99.8911 60.9483 100 60.4336 100C59.0774 100 58.3647 99.3467 58.4142 97.8222L58.5231 93.9319L57.3649 93.8527L57.4144 93.0608L58.5726 92.7143L58.6022 91.2097H59.8L59.7505 92.8034H61.9283V92.7935Z" fill="currentColor"/>
  <path d="M56.6813 95.288C56.6813 95.6642 56.6219 96.0898 56.5328 96.3967C56.5229 96.3967 51.8506 96.4264 51.8506 96.4264V96.4858C51.9001 97.8519 52.8108 98.8319 54.1471 98.8319C54.8797 98.8319 55.6716 98.6339 56.2259 98.2577L56.4536 99.4159C55.83 99.7921 54.9985 99.9901 54.1076 99.9901C52.009 99.9901 50.5835 98.4854 50.5835 96.3571C50.5835 94.11 52.0782 92.5757 54.0185 92.5757C55.7013 92.5658 56.6813 93.625 56.6813 95.288ZM55.4736 95.486V95.3771C55.4736 94.3476 54.9886 93.6547 53.8898 93.6547C52.7019 93.6547 51.9991 94.5951 51.9001 95.5157L55.4736 95.486Z" fill="currentColor"/>
  <path d="M56.2662 89.0912L54.0488 91.8432H53.1381L54.7516 89.0912H56.2662Z" fill="currentColor"/>
  <path d="M48.2581 89.4575C48.8224 89.4575 49.0798 89.8831 49.0798 90.3583C49.0798 90.8334 48.8224 91.2591 48.2581 91.2591C47.6939 91.2591 47.4365 90.8334 47.4365 90.3583C47.4365 89.8831 47.6939 89.4575 48.2581 89.4575Z" fill="currentColor"/>
  <path d="M48.8816 92.5658V99.7525H47.6343V92.7638L48.8816 92.5658Z" fill="currentColor"/>
  <path d="M46.0005 93.1597L45.6837 94.2981C45.1096 93.9022 44.4463 93.724 43.7534 93.724C42.328 93.724 41.536 94.6941 41.536 96.2581C41.536 97.8717 42.417 98.8319 43.7237 98.8319C44.4562 98.8319 45.169 98.6339 45.7332 98.2577L45.9609 99.4159C45.3373 99.7921 44.5453 99.9901 43.6643 99.9901C41.4568 99.9901 40.2393 98.4854 40.2393 96.2779C40.2393 94.0605 41.7142 92.5658 43.7534 92.5658C44.6542 92.5658 45.367 92.7638 46.0005 93.1597Z" fill="currentColor"/>
  <path d="M35.6462 92.546C37.6359 92.546 38.992 94.0209 38.992 96.268C38.992 98.5052 37.5369 99.9801 35.567 99.9801C33.5872 99.9801 32.2013 98.5151 32.2013 96.268C32.2112 94.0407 33.6367 92.546 35.6462 92.546ZM35.6165 98.8615C37.0023 98.8615 37.7547 97.7924 37.7547 96.2878C37.7547 94.793 36.9528 93.6744 35.5769 93.6744C34.191 93.6744 33.4387 94.7534 33.4387 96.2581C33.4486 97.743 34.2504 98.8615 35.6165 98.8615Z" fill="currentColor"/>
  <path d="M30.8446 93.0805L30.5278 94.2189C29.9537 93.9022 29.1122 93.7042 28.5381 93.7042C27.7957 93.7042 27.3007 94.0111 27.3007 94.5753C27.3007 95.2484 28.0432 95.4761 28.9143 95.7038C29.9339 95.981 31.0327 96.466 31.0327 97.7826C31.0327 99.1091 29.924 100 28.3995 100C27.5482 100 26.6078 99.7426 25.9644 99.3466L26.2811 98.2082C26.8553 98.6042 27.7066 98.8616 28.4193 98.8616C29.2112 98.8616 29.8052 98.4953 29.8052 97.8717C29.8052 97.1688 28.9836 96.9412 28.1619 96.7135C27.172 96.4363 26.093 95.9513 26.093 94.6743C26.093 93.3775 27.1918 92.5658 28.5876 92.5658C29.3993 92.5658 30.2011 92.7638 30.8446 93.0805Z" fill="currentColor"/>
  <path d="M21.4405 95.288C21.4405 95.6642 21.3811 96.0898 21.292 96.3967C21.2722 96.3967 16.6097 96.4264 16.6097 96.4264V96.4858C16.6592 97.8519 17.5699 98.8319 18.9063 98.8319C19.6388 98.8319 20.4308 98.6339 20.9851 98.2577L21.2128 99.4159C20.5891 99.7921 19.7576 99.9901 18.8667 99.9901C16.7681 99.9901 15.3427 98.4854 15.3427 96.3571C15.3427 94.11 16.8275 92.5757 18.7776 92.5757C20.4704 92.5658 21.4405 93.625 21.4405 95.288ZM20.2427 95.486V95.3771C20.2427 94.3476 19.7576 93.6547 18.6588 93.6547C17.4709 93.6547 16.778 94.5951 16.6691 95.5157L20.2427 95.486Z" fill="currentColor"/>
  <path d="M13.6998 94.9614V99.7525H12.4526V95.3771C12.4526 94.1694 11.9972 93.7636 11.0073 93.7636C10.2748 93.7636 9.58184 94.1397 9.18588 94.5258V99.7624H7.9386V92.7638L9.18588 92.5658V93.6151C9.82931 92.9816 10.6509 92.5658 11.4528 92.5658C12.8683 92.5658 13.6998 93.4567 13.6998 94.9614Z" fill="currentColor"/>
  <path d="M5.78077 92.7935V99.7921L4.53349 99.9901C4.53349 99.9901 4.53349 99.0497 4.53349 98.9705C3.89005 99.604 3.06843 99.9901 2.18742 99.9901C0.85105 99.9901 0.0195312 99.0892 0.0195312 97.5846V92.7935H1.26681V97.1688C1.26681 98.3765 1.72216 98.7824 2.63288 98.7824C3.4446 98.7824 4.13753 98.4062 4.53349 98.0202V92.7836H5.78077V92.7935Z" fill="currentColor"/>
</svg>
