<svg height="10.94mm" viewBox="0 0 168 31" width="59.27mm" xmlns="http://www.w3.org/2000/svg" _ngcontent-serverapp-c15="" class="icon-logo" aria-hidden="true"><path d="m16.44 15.23a4.34 4.34 0 0 0 -4.69-4c-4.07 0-5.41 4.15-5.41 7.59s1.3 7.36 5.28 7.36c2.94 0 4.64-1.89 5-4.74h6.12c-.74 6.17-5 9.56-11.08 9.56-6.97 0-11.66-5-11.66-12 0-7.25 4.29-12.63 11.79-12.63 5.45 0 10.46 2.89 10.86 8.86zm19.56 10.93c4.33 0 5.62-3.75 5.62-7.45s-1.29-7.5-5.62-7.5-5.59 3.75-5.59 7.5 1.31 7.45 5.59 7.45zm0-19.79c7.28 0 12 4.88 12 12.34s-4.71 12.29-12 12.29-11.92-4.88-11.92-12.29 4.69-12.34 11.92-12.34zm18.75 16.41c0 2.8 2.36 3.93 4.87 3.93 1.83 0 4.15-.73 4.15-3 0-1.94-2.63-2.62-7.19-3.61-3.66-.81-7.33-2.12-7.33-6.24 0-6 5.09-7.5 10-7.5s9.75 1.73 10.24 7.47h-6c-.18-2.49-2.06-3.17-4.33-3.17-1.43 0-3.53.28-3.53 2.17 0 2.31 3.57 2.62 7.19 3.48s7.32 2.22 7.32 6.56c-.03 6.13-5.3 8.13-10.57 8.13s-10.57-2-10.85-8.22zm22.67 0c0 2.8 2.36 3.93 4.87 3.93 1.83 0 4.15-.73 4.15-3 0-1.94-2.64-2.62-7.19-3.61-3.67-.81-7.33-2.12-7.33-6.24 0-6 5.09-7.5 10-7.5s9.7 1.72 10.19 7.46h-6c-.18-2.49-2.06-3.17-4.34-3.17-1.43 0-3.52.28-3.52 2.17 0 2.31 3.57 2.62 7.19 3.48s7.32 2.22 7.32 6.56c.02 6.14-5.25 8.14-10.52 8.14s-10.59-2-10.85-8.22zm33.05-6.6c-.58-3.26-2-5-5-5a5 5 0 0 0 -5.28 5zm-10.32 4.06c.18 4.07 2.15 5.92 5.68 5.92 2.54 0 4.6-1.58 5-3h5.59c-1.79 5.49-5.59 7.84-10.82 7.84-7.28 0-11.79-5.06-11.79-12.29 0-7 4.78-12.34 11.79-12.34 7.87 0 11.66 6.69 11.22 13.87zm44.85-8.94h-4.65v11.57c0 2.16.54 2.71 2.68 2.71a10.1 10.1 0 0 0 2-.18v5a24.15 24.15 0 0 1 -3.71.23c-3.88 0-7.28-.91-7.28-5.56v-13.77h-7.51v11.57c0 2.16.54 2.71 2.68 2.71a10.1 10.1 0 0 0 2-.18v5a24.23 24.23 0 0 1 -3.71.23c-3.89 0-7.28-.91-7.28-5.56v-13.77h-3.92v-4.3h3.84v-7h6.34v7h7.52v-7h6.34v7h4.66zm16.64 4.88c-.58-3.26-2-5-5.05-5a5 5 0 0 0 -5.27 5zm-10.34 4.06c.18 4.07 2.15 5.92 5.68 5.92 2.54 0 4.6-1.58 5-3h5.58c-1.78 5.49-5.56 7.84-10.81 7.84-7.28 0-11.75-5.06-11.75-12.29 0-7 4.78-12.34 11.79-12.34 7.86 0 11.66 6.69 11.21 13.87z" fill="#000" fill-rule="evenodd" _ngcontent-serverapp-c15=""></path></svg>
