<svg viewBox="0 0 100 31" fill="none" xmlns="http://www.w3.org/2000/svg">
<path d="M11.9322 4.36243C14.9719 4.36243 16.548 6.69849 16.548 9.44266C16.548 9.71004 16.5058 10.1885 16.5058 10.1885H8.06219C8.10441 12.9608 10.0464 14.5651 12.3262 14.5651C14.3386 14.5651 15.6333 13.2141 15.6333 13.2141L16.351 14.3259C16.351 14.3259 14.7467 15.902 12.2558 15.902C8.99099 15.902 6.50012 13.5378 6.50012 10.1463C6.50012 6.52962 8.97691 4.36243 11.9322 4.36243ZM15.0141 8.99234C14.9297 6.71256 13.5224 5.60082 11.904 5.60082C10.0887 5.60082 8.49844 6.78293 8.11848 8.99234H15.0141Z" fill="#000C9F"/>
<path d="M19.561 6.38904C19.561 6.07944 19.3922 5.91057 19.0826 5.91057H18.1678V4.61588H19.7018C20.6165 4.61588 21.0387 4.98177 21.0387 5.86835V6.6142C21.0387 7.0786 20.9965 7.44449 20.9965 7.44449H21.0387C21.5594 5.78391 22.7837 4.60181 24.5146 4.60181C24.8242 4.60181 25.1057 4.67217 25.1057 4.67217V5.96686C25.1057 5.96686 24.8383 5.92464 24.5568 5.92464C23.0088 5.92464 21.8408 7.24747 21.3623 8.86583C21.1372 9.56946 21.0527 10.3153 21.0527 11.0049V15.6489H19.561V6.38904Z" fill="#000C9F"/>
<path d="M28.2993 6.38889C28.2993 6.07929 28.1305 5.91042 27.8209 5.91042H26.9061V4.61574H28.44C29.3548 4.61574 29.777 5.00977 29.777 5.84006V6.34667C29.777 6.78293 29.7347 7.13474 29.7347 7.13474H29.777C30.171 6.13558 31.5642 4.36243 34.1536 4.36243C36.8837 4.36243 37.8547 5.91042 37.8547 8.62645V13.8615C37.8547 14.1852 38.0235 14.34 38.3331 14.34H39.2479V15.6346H37.6999C36.757 15.6346 36.363 15.2406 36.363 14.2977V9.02048C36.363 7.28954 36.0956 5.75562 33.9847 5.75562C32.0989 5.75562 30.4806 7.05031 29.974 8.86568C29.8473 9.33008 29.8051 9.82263 29.8051 10.3574V15.6346H28.3134V6.38889H28.2993Z" fill="#000C9F"/>
<path d="M47.3395 8.83754H47.9587V8.71088C47.9587 6.41704 47.1284 5.60082 45.1161 5.60082C44.5672 5.60082 42.977 5.75562 42.977 6.55776V7.2614H41.5557V6.22002C41.5557 4.6861 44.1732 4.36243 45.1442 4.36243C48.6201 4.36243 49.4504 6.22002 49.4504 8.58423V13.8615C49.4504 14.1852 49.6193 14.34 49.9289 14.34H50.8436V15.6346H49.3379C48.395 15.6346 48.0291 15.2125 48.0291 14.3259C48.0291 13.8474 48.0572 13.5237 48.0572 13.5237H48.015C48.0432 13.5237 47.1144 15.902 44.3561 15.902C42.5126 15.902 40.6128 14.8325 40.6128 12.6372C40.6128 8.97826 45.4397 8.83754 47.3395 8.83754ZM44.5813 14.6214C46.6781 14.6214 47.9447 12.4401 47.9447 10.5263V10.0196H47.3114C45.5804 10.0196 42.1326 10.0619 42.1326 12.5387C42.1326 13.566 42.9489 14.6214 44.5813 14.6214Z" fill="#000C9F"/>
<path d="M53.869 6.38889C53.869 6.07929 53.7001 5.91042 53.3906 5.91042H52.4758V4.61574H54.0098C54.9245 4.61574 55.3467 5.00977 55.3467 5.84006V6.34667C55.3467 6.78293 55.3044 7.13474 55.3044 7.13474H55.3467C55.7407 6.13558 57.1339 4.36243 59.7233 4.36243C62.4534 4.36243 63.4244 5.91042 63.4244 8.62645V13.8615C63.4244 14.1852 63.5932 14.34 63.9028 14.34H64.8176V15.6346H63.2696C62.3267 15.6346 61.9327 15.2406 61.9327 14.2977V9.02048C61.9327 7.28954 61.6653 5.75562 59.5403 5.75562C57.6546 5.75562 56.0362 7.05031 55.5437 8.86568C55.417 9.33008 55.3748 9.82263 55.3748 10.3574V15.6346H53.8831V6.38889H53.869Z" fill="#000C9F"/>
<path d="M70.9684 4.36253C73.6423 4.36253 74.557 6.41714 74.557 6.41714H74.5992C74.5992 6.41714 74.557 6.05125 74.557 5.58685V1.77316C74.557 1.46356 74.3881 1.29469 74.0785 1.29469H73.1638V0H74.7118C75.6546 0 76.0487 0.394035 76.0487 1.3369V13.8475C76.0487 14.1712 76.2176 14.326 76.5272 14.326H77.4419V15.6207H75.908C74.9932 15.6207 74.5992 15.1985 74.5992 14.3963C74.5992 13.9742 74.6414 13.6927 74.6414 13.6927H74.5992C74.5992 13.6927 73.6985 15.874 70.8136 15.874C67.8584 15.874 66.0289 13.5098 66.0289 10.1042C66.0289 6.62823 68.0835 4.36253 70.9684 4.36253ZM74.5992 10.1183C74.5992 7.8807 73.4593 5.69943 71.0951 5.69943C69.1531 5.69943 67.5488 7.34594 67.5488 10.1183C67.5488 12.8343 68.9701 14.5511 71.0247 14.5511C72.8823 14.5511 74.5992 13.2424 74.5992 10.1183Z" fill="#000C9F"/>
<path d="M84.0407 4.36243C87.0804 4.36243 88.6565 6.69849 88.6565 9.42859C88.6565 9.69597 88.6143 10.1744 88.6143 10.1744H80.1707C80.2129 12.9608 82.155 14.551 84.4347 14.551C86.4471 14.551 87.7418 13.2001 87.7418 13.2001L88.4595 14.3118C88.4595 14.3118 86.8693 15.8879 84.3644 15.8879C81.0995 15.8879 78.6086 13.5237 78.6086 10.1322C78.6086 6.52962 81.0854 4.36243 84.0407 4.36243ZM87.1226 8.99234C87.0382 6.71256 85.6309 5.60082 84.0126 5.60082C82.1972 5.60082 80.607 6.78293 80.227 8.99234H87.1226Z" fill="#000C9F"/>
<path d="M99.4514 5.60093V4.61584H91.7536C90.7967 4.61584 90.4027 5.00988 90.4027 5.96682V7.28965H91.8099V6.41715C91.8099 6.0794 91.9788 5.93868 92.2884 5.93868H96.3413C97.0731 5.93868 97.4531 5.89646 97.4531 5.89646V5.93868C97.4531 5.93868 96.9887 6.41715 96.5665 6.95191L90.3182 14.7341V15.6207H96.088C99.6766 15.5644 100 13.1861 100 12.3277C100 12.1025 100 11.9759 100 11.9759H98.5367C98.5367 11.9759 98.5367 12.0603 98.5367 12.201C98.5367 12.7358 98.3397 14.2275 95.7221 14.2275H92.4573C92.6262 14.0445 92.9358 13.7349 93.2313 13.3831L99.4514 5.60093Z" fill="#000C9F"/>
<path d="M46.7489 0C46.3971 1.3369 45.426 1.4917 45.032 1.4917C44.9054 1.4917 44.8209 1.4917 44.8209 1.4917V2.65974C44.8209 2.65974 44.9476 2.67381 45.1446 2.67381C45.8482 2.67381 47.6636 2.44865 48.0717 0H46.7489V0Z" fill="#000C9F"/>
<path d="M3.58853 3.44781C3.58853 1.29469 5.43205 1.50578 6.05125 1.50578C6.17791 1.50578 7.17706 1.50578 7.17706 1.50578V0C7.17706 0 6.02311 0 5.79794 0C4.81286 0 2.09683 0.253308 2.09683 3.30708V4.88322C2.09683 6.7971 0 6.85339 0 6.85339V8.21844C0 8.21844 2.09683 8.27473 2.09683 10.2027V15.6347H3.58853V9.89309C3.58853 8.00735 1.68872 7.54296 1.68872 7.54296C1.68872 7.54296 3.58853 7.07856 3.58853 5.19282V3.44781Z" fill="#000C9F"/>
<path d="M2.09753 23.4451H2.85746V24.3035H2.87153C3.15298 23.7969 3.67367 23.3466 4.44767 23.3466H4.54618L4.50396 24.0643C4.50396 24.0643 4.36323 24.0502 4.32102 24.0502C3.67367 24.0502 3.13891 24.4724 2.84339 25.0775V28.4409H2.09753V23.4451Z" fill="#000C9F"/>
<path d="M6.3606 25.936C6.3606 24.1347 7.28939 23.3325 8.28855 23.3325C9.40029 23.3325 10.0617 24.2191 10.0617 25.9078V26.0908H7.10645C7.13459 27.2588 7.58492 27.8921 8.30263 27.8921C8.89368 27.8921 9.20328 27.5684 9.48473 27.0196L10.0195 27.3432C9.66767 28.0609 9.06255 28.5253 8.27448 28.5253C7.19088 28.5253 6.3606 27.6669 6.3606 25.936ZM9.32993 25.5138C9.28771 24.6131 8.94997 23.9799 8.27448 23.9799C7.71157 23.9799 7.20496 24.4443 7.12052 25.5138H9.32993Z" fill="#000C9F"/>
<path d="M13.2986 21.4326H12.5387V28.4267H13.2986V21.4326Z" fill="#000C9F"/>
<path d="M15.7772 27.2447C15.7772 26.2596 16.6216 25.5278 18.5636 25.1338V24.8383C18.5636 24.2754 18.3244 24.008 17.8178 24.008C17.2126 24.008 16.7201 24.3035 16.3401 24.6835L15.9179 24.2191C16.4386 23.6984 17.1001 23.3466 17.8881 23.3466C18.8591 23.3466 19.3095 23.8813 19.3095 24.8523V27.2165C19.3095 27.8217 19.3376 28.1876 19.4361 28.4409H18.6762C18.6199 28.2438 18.5777 28.075 18.5777 27.7935C18.1696 28.2438 17.6207 28.4972 16.9875 28.4972C16.2135 28.4972 15.7772 28.0328 15.7772 27.2447ZM18.5636 27.2165V25.6826C17.0297 26.0063 16.5231 26.5411 16.5231 27.1321C16.5231 27.6387 16.7905 27.8639 17.2267 27.8639C17.7333 27.8639 18.2118 27.5965 18.5636 27.2165Z" fill="#000C9F"/>
<path d="M22.2479 27.301V24.0643H21.5161V23.431H22.2479V21.6578H23.0078V23.431H24.1055V24.0643H23.0078V27.118C23.0078 27.6247 23.1345 27.8498 23.6692 27.8498C23.824 27.8498 23.9929 27.8217 24.0914 27.7795V28.3986C23.9788 28.4409 23.7115 28.469 23.5004 28.469C22.5856 28.4831 22.2479 28.1594 22.2479 27.301Z" fill="#000C9F"/>
<path d="M26.5264 21.6296H27.3004V22.4459H26.5264V21.6296ZM26.5264 23.445H27.2863V28.4267H26.5264V23.445Z" fill="#000C9F"/>
<path d="M29.7919 25.936C29.7919 24.2191 30.6503 23.3325 31.762 23.3325C32.8738 23.3325 33.7322 24.205 33.7322 25.936C33.7322 27.6388 32.8738 28.5394 31.762 28.5394C30.6503 28.5253 29.7919 27.6388 29.7919 25.936ZM32.9582 25.936C32.9582 24.8524 32.5923 23.9939 31.762 23.9939C30.9599 23.9939 30.5518 24.7679 30.5518 25.936C30.5518 27.0196 30.9036 27.8921 31.762 27.8921C32.5501 27.8921 32.9582 27.1181 32.9582 25.936Z" fill="#000C9F"/>
<path d="M36.1654 23.4451H36.9253V24.1346C37.249 23.7687 37.8541 23.3466 38.5015 23.3466C39.3036 23.3466 39.7258 23.825 39.7258 24.7398V28.4409H38.9799V24.8946C38.9799 24.3035 38.7829 24.022 38.2763 24.022C37.7978 24.022 37.2771 24.3879 36.9394 24.7398V28.4409H36.1654V23.4451Z" fill="#000C9F"/>
<path d="M41.9519 27.5121L42.4726 27.1321C42.8103 27.6387 43.2888 27.9061 43.8236 27.9061C44.4568 27.9061 44.8087 27.6387 44.8087 27.1743C44.8087 25.95 42.2052 26.4425 42.2052 24.6835C42.2052 23.8954 42.8526 23.3466 43.7814 23.3466C44.5131 23.3466 45.062 23.6984 45.4279 24.2472L44.9212 24.6412C44.6679 24.2613 44.288 23.9798 43.7814 23.9798C43.2184 23.9798 42.9511 24.2613 42.9511 24.6553C42.9511 25.8937 45.5264 25.3308 45.5264 27.1462C45.5264 28.0187 44.7664 28.5394 43.8095 28.5394C42.9511 28.5253 42.3459 28.1313 41.9519 27.5121Z" fill="#000C9F"/>
<path d="M52.0823 23.4451H52.8422V24.0783C53.1377 23.7124 53.574 23.3466 54.2073 23.3466C55.1783 23.3466 55.896 24.1346 55.896 25.9359C55.896 27.7372 55.1361 28.5112 54.165 28.5112C53.5881 28.5112 53.1799 28.2439 52.8422 27.8357V30.3266H52.0823V23.4451ZM55.1501 25.9359C55.1501 24.599 54.6857 23.9939 54.0243 23.9939C53.574 23.9939 53.1518 24.3316 52.8563 24.6835V27.1884C53.2222 27.6247 53.5881 27.8639 54.0384 27.8639C54.6857 27.8639 55.1501 27.301 55.1501 25.9359Z" fill="#000C9F"/>
<path d="M58.3022 27.1462V23.4451H59.0622V27.0055C59.0622 27.5965 59.2592 27.878 59.794 27.878C60.2724 27.878 60.6946 27.5824 61.1027 27.1603V23.4451H61.8626V28.4268H61.1027V27.7372C60.7227 28.1594 60.188 28.5253 59.5266 28.5253C58.7385 28.5253 58.3022 28.0468 58.3022 27.1462Z" fill="#000C9F"/>
<path d="M65.3102 27.8357V28.4267H64.5503V21.4467H65.3102V24.0782C65.6198 23.6842 66.042 23.3324 66.6753 23.3324C67.6463 23.3324 68.3781 24.1205 68.3781 25.9218C68.3781 27.7231 67.6181 28.4971 66.633 28.4971C66.0561 28.4971 65.662 28.2438 65.3102 27.8357ZM67.6041 25.9358C67.6041 24.5989 67.1397 23.9938 66.4783 23.9938C65.9998 23.9938 65.648 24.3175 65.3102 24.6974V27.1883C65.662 27.6246 66.042 27.8638 66.4923 27.8638C67.1537 27.8638 67.6041 27.3009 67.6041 25.9358Z" fill="#000C9F"/>
<path d="M71.6149 21.4326H70.855V28.4267H71.6149V21.4326Z" fill="#000C9F"/>
<path d="M74.4015 21.6296H75.1755V22.4459H74.4015V21.6296ZM74.4015 23.445H75.1614V28.4267H74.4015V23.445Z" fill="#000C9F"/>
<path d="M80.7198 27.7795C80.4102 28.1454 79.988 28.5113 79.3547 28.5113C78.3837 28.5113 77.666 27.7513 77.666 25.936C77.666 24.1347 78.3978 23.3325 79.3688 23.3325C79.9458 23.3325 80.3539 23.628 80.7198 24.0643V23.4451H81.4797V30.3266H80.7198V27.7795ZM80.7198 27.2025V24.6976C80.3539 24.2754 80.0021 23.9939 79.5518 23.9939C78.8763 23.9939 78.4259 24.5709 78.4259 25.936C78.4259 27.2729 78.8903 27.878 79.5658 27.878C80.0302 27.878 80.3539 27.5825 80.7198 27.2025Z" fill="#000C9F"/>
<path d="M84.1122 27.1462V23.4451H84.8721V27.0055C84.8721 27.5965 85.0691 27.878 85.6039 27.878C86.0824 27.878 86.5045 27.5824 86.9126 27.1603V23.4451H87.6726V28.4268H86.9126V27.7372C86.5327 28.1594 85.9979 28.5253 85.3365 28.5253C84.5484 28.5253 84.1122 28.0468 84.1122 27.1462Z" fill="#000C9F"/>
<path d="M90.12 25.936C90.12 24.1347 91.0488 23.3325 92.048 23.3325C93.1597 23.3325 93.8211 24.2191 93.8211 25.9078V26.0908H90.8799C90.9081 27.2588 91.3584 27.8921 92.0761 27.8921C92.6671 27.8921 92.9767 27.5684 93.2582 27.0196L93.793 27.3432C93.4411 28.0609 92.836 28.5253 92.048 28.5253C90.9503 28.5253 90.12 27.6669 90.12 25.936ZM93.1034 25.5138C93.0612 24.6131 92.7234 23.9799 92.048 23.9799C91.485 23.9799 90.9784 24.4443 90.894 25.5138H93.1034Z" fill="#000C9F"/>
<path d="M95.7789 27.5121L96.2996 27.1321C96.6233 27.6387 97.1158 27.9061 97.6506 27.9061C98.2839 27.9061 98.6357 27.6387 98.6357 27.1743C98.6357 25.95 96.0322 26.4425 96.0322 24.6835C96.0322 23.8954 96.6796 23.3466 97.6084 23.3466C98.3402 23.3466 98.889 23.6984 99.2549 24.2472L98.7483 24.6412C98.495 24.2613 98.115 23.9798 97.6084 23.9798C97.0455 23.9798 96.7781 24.2613 96.7781 24.6553C96.7781 25.8937 99.3534 25.3308 99.3534 27.1462C99.3534 28.0187 98.5935 28.5394 97.6365 28.5394C96.7781 28.5253 96.1589 28.1313 95.7789 27.5121Z" fill="#000C9F"/>
</svg>
