<svg viewBox="0 0 80 46" fill="none" xmlns="http://www.w3.org/2000/svg">
<path d="M6.08633 27.3836C1.80371 27.3836 0 24.3839 0 21.4227V0H5.20858V21.0948C5.20858 22.339 5.72944 22.9756 7.05088 22.9756H9.05715V27.374H6.08633V27.3836Z" fill="#000CA0"/>
<path d="M23.8055 12.7707C23.2461 11.5265 22.079 10.6101 20.3235 10.6101C18.5584 10.6101 17.4009 11.5361 16.8415 12.7707C16.5232 13.5327 16.3978 14.0922 16.3592 15.0181H24.2878C24.2396 14.0922 24.1239 13.5327 23.8055 12.7707ZM16.3592 18.5773C16.3592 21.2588 17.9989 23.2168 20.9215 23.2168C23.2075 23.2168 24.3264 22.5802 25.6478 21.2588L28.8116 24.3454C26.6896 26.4674 24.6447 27.6248 20.883 27.6248C15.9541 27.6248 11.2374 25.3774 11.2374 16.9376C11.2374 10.1279 14.922 6.28894 20.3235 6.28894C26.1301 6.28894 29.4096 10.533 29.4096 16.2624V18.587H16.3592V18.5773Z" fill="#000CA0"/>
<path d="M42.0445 27.3837H37.9548L30.277 6.52039H35.7653L40.0093 19.4165L44.2148 6.52039H49.7031L42.0445 27.3837Z" fill="#000CA0"/>
<path d="M57.545 6.52039H52.3364V27.3837H57.545V6.52039Z" fill="#000CA0"/>
<path d="M2.61354 34.0486L1.71651 36.6047H3.49129L2.61354 34.0486ZM4.12789 38.4952L3.73242 37.3377H1.45608L1.06061 38.4952H0.134644L2.24701 32.7368H2.95114L5.06351 38.4952H4.12789Z" fill="#000CA0"/>
<path d="M6.7619 33.5277V35.2832H9.16363V36.0645H6.7619V38.4952H5.8938V32.7368H9.56874V33.5181H6.7619V33.5277Z" fill="#000CA0"/>
<path d="M11.4012 33.5277V35.2832H13.7933V36.0645H11.4012V38.4952H10.5234V32.7368H14.1984V33.5181H11.4012V33.5277Z" fill="#000CA0"/>
<path d="M16.6676 34.0486L15.7706 36.6047H17.5454L16.6676 34.0486ZM18.1723 38.4952L17.7769 37.3377H15.5005L15.105 38.4952H14.1791L16.2914 32.7368H16.9956L19.1079 38.4952H18.1723Z" fill="#000CA0"/>
<path d="M20.8244 32.7465H19.9467V38.5048H20.8244V32.7465Z" fill="#000CA0"/>
<path d="M24.3161 33.5277H23.0236V35.3315H24.3161C24.8948 35.3315 25.2903 35.0035 25.2903 34.4344C25.3 33.8653 24.8948 33.5277 24.3161 33.5277ZM25.3289 38.4952L24.1136 36.0742H23.0236V38.4952H22.1555V32.7368H24.3836C25.4736 32.7368 26.1681 33.4409 26.1681 34.4151C26.1681 35.2447 25.6665 35.7655 25.0202 35.9391L26.3417 38.4856H25.3289V38.4952Z" fill="#000CA0"/>
<path d="M27.3258 38.5048V32.7465H31.0008V33.5277H28.1939V35.2061H30.586V35.9777H28.1939V37.7043H31.0008V38.4855H27.3258V38.5048Z" fill="#000CA0"/>
<path d="M33.808 38.5532C32.9399 38.5532 32.3226 38.3506 31.7728 37.7912L32.3516 37.2125C32.776 37.6369 33.2389 37.7623 33.8273 37.7623C34.5797 37.7623 35.0137 37.4343 35.0137 36.8845C35.0137 36.6337 34.9462 36.4215 34.7919 36.2865C34.6472 36.1515 34.5025 36.0936 34.1649 36.0454L33.4897 35.9489C33.0267 35.8814 32.6506 35.7271 32.3998 35.4859C32.1201 35.2158 31.9754 34.859 31.9754 34.3863C31.9754 33.3832 32.7084 32.6984 33.9045 32.6984C34.6665 32.6984 35.197 32.8913 35.6889 33.3543L35.1295 33.9041C34.7726 33.5665 34.3578 33.4604 33.8756 33.4604C33.2004 33.4604 32.8242 33.8462 32.8242 34.3574C32.8242 34.5696 32.8917 34.7529 33.046 34.8879C33.1907 35.0133 33.4222 35.1097 33.6923 35.158L34.3482 35.2544C34.8787 35.3316 35.1777 35.4666 35.4285 35.6885C35.7468 35.9586 35.9011 36.3733 35.9011 36.8652C35.8818 37.9166 35.0137 38.5532 33.808 38.5532Z" fill="#000CA0"/>
<path d="M40.5113 36.0068V37.3668H39.7397V36.0068H38.3796V35.2351H39.7397V33.8848H40.5113V35.2351H41.8713V36.0068H40.5113Z" fill="#000CA0"/>
<path d="M2.76857 40.8682V45.8453H1.89083V40.8682H0.30896V40.0869H4.35044V40.8682H2.76857Z" fill="#000CA0"/>
<path d="M5.34363 45.8355V40.0771H9.01857V40.8584H6.22137V42.5368H8.61346V43.318H6.22137V45.0446H9.02822V45.8259H5.34363V45.8355Z" fill="#000CA0"/>
<path d="M11.951 45.8838C11.353 45.8838 10.8321 45.6619 10.4366 45.2665C9.86756 44.6974 9.87721 44.0608 9.87721 42.9515C9.87721 41.8423 9.86756 41.2057 10.4366 40.6366C10.8321 40.2411 11.353 40.0193 11.951 40.0193C13.012 40.0193 13.8029 40.6462 14.0055 41.7941H13.1181C12.9831 41.2057 12.5876 40.8102 11.951 40.8102C11.6134 40.8102 11.3047 40.9356 11.1022 41.1575C10.8225 41.4661 10.755 41.7941 10.755 42.9515C10.755 44.109 10.8225 44.4369 11.1022 44.7456C11.3047 44.9674 11.6134 45.0928 11.951 45.0928C12.5876 45.0928 12.9831 44.6877 13.1278 44.109H14.0055C13.8126 45.2665 12.9927 45.8838 11.951 45.8838Z" fill="#000CA0"/>
<path d="M18.3075 45.8355V43.318H15.9733V45.8355H15.0956V40.0771H15.9733V42.5368H18.3075V40.0771H19.1853V45.8355H18.3075Z" fill="#000CA0"/>
<path d="M24.1327 45.8355L21.4705 41.7844V45.8355H20.5928V40.0771H21.3934L24.0555 44.1186V40.0771H24.9333V45.8355H24.1327Z" fill="#000CA0"/>
<path d="M29.1101 41.1767C28.9076 40.9549 28.5893 40.8199 28.2517 40.8199C27.9141 40.8199 27.5958 40.9549 27.3932 41.1767C27.1135 41.4854 27.0556 41.8037 27.0556 42.9612C27.0556 44.1186 27.1135 44.4369 27.3932 44.7456C27.5958 44.9674 27.9141 45.1025 28.2517 45.1025C28.5893 45.1025 28.9076 44.9674 29.1101 44.7456C29.3898 44.4369 29.4477 44.1186 29.4477 42.9612C29.4477 41.8037 29.3898 41.4758 29.1101 41.1767ZM29.766 45.2761C29.3705 45.6716 28.8593 45.8934 28.242 45.8934C27.6247 45.8934 27.1231 45.6716 26.7277 45.2761C26.1586 44.707 26.1682 44.0704 26.1682 42.9612C26.1682 41.8519 26.1586 41.2153 26.7277 40.6462C27.1231 40.2508 27.6247 40.0289 28.242 40.0289C28.8593 40.0289 29.3705 40.2508 29.766 40.6462C30.3351 41.2153 30.3158 41.8519 30.3158 42.9612C30.3158 44.0704 30.3351 44.707 29.766 45.2761Z" fill="#000CA0"/>
<path d="M31.5599 45.8355V40.0771H32.4377V45.0542H35.2156V45.8355H31.5599Z" fill="#000CA0"/>
<path d="M38.8712 41.1767C38.6687 40.9549 38.3504 40.8199 38.0128 40.8199C37.6752 40.8199 37.3569 40.9549 37.1543 41.1767C36.8746 41.4854 36.8167 41.8037 36.8167 42.9612C36.8167 44.1186 36.8746 44.4369 37.1543 44.7456C37.3569 44.9674 37.6752 45.1025 38.0128 45.1025C38.3504 45.1025 38.6687 44.9674 38.8712 44.7456C39.1509 44.4369 39.2088 44.1186 39.2088 42.9612C39.2088 41.8037 39.1606 41.4758 38.8712 41.1767ZM39.5368 45.2761C39.1413 45.6716 38.6301 45.8934 38.0128 45.8934C37.3955 45.8934 36.8939 45.6716 36.4984 45.2761C35.9293 44.707 35.939 44.0704 35.939 42.9612C35.939 41.8519 35.9293 41.2153 36.4984 40.6462C36.8939 40.2508 37.3955 40.0289 38.0128 40.0289C38.6301 40.0289 39.1413 40.2508 39.5368 40.6462C40.1058 41.2153 40.0866 41.8519 40.0866 42.9612C40.0866 44.0704 40.1058 44.707 39.5368 45.2761Z" fill="#000CA0"/>
<path d="M44.8036 45.2375C44.3696 45.7005 43.8294 45.8934 43.2217 45.8934C42.6237 45.8934 42.1029 45.6716 41.7074 45.2761C41.1383 44.707 41.148 44.0704 41.148 42.9612C41.148 41.8519 41.1383 41.2153 41.7074 40.6462C42.1029 40.2508 42.6044 40.0289 43.2217 40.0289C44.4467 40.0289 45.1509 40.8295 45.3148 41.8134H44.4371C44.2924 41.1864 43.868 40.8102 43.2217 40.8102C42.8842 40.8102 42.5755 40.9453 42.3729 41.1671C42.0932 41.4758 42.0257 41.7941 42.0257 42.9515C42.0257 44.109 42.0932 44.4369 42.3729 44.7456C42.5755 44.9674 42.8842 45.0928 43.2217 45.0928C43.6076 45.0928 43.9355 44.9482 44.1574 44.6877C44.3696 44.4466 44.4467 44.1572 44.4467 43.781V43.4627H43.2121V42.7297H45.3148V43.6074C45.3148 44.3501 45.1798 44.8324 44.8036 45.2375Z" fill="#000CA0"/>
<path d="M47.4172 40.0869H46.5491V45.8453H47.4172V40.0869Z" fill="#000CA0"/>
<path d="M48.8352 45.8355V40.0771H52.5101V40.8584H49.7033V42.5368H52.0954V43.318H49.7033V45.0446H52.5101V45.8259H48.8352V45.8355Z" fill="#000CA0"/>
<path d="M55.3946 45.8838C54.5265 45.8838 53.9092 45.6812 53.3594 45.1218L53.9381 44.543C54.3625 44.9674 54.8255 45.0928 55.4139 45.0928C56.1662 45.0928 56.6003 44.7649 56.6003 44.2151C56.6003 43.9643 56.5231 43.7521 56.3784 43.6171C56.2337 43.482 56.0891 43.4242 55.7515 43.3759L55.0763 43.2795C54.6036 43.212 54.2371 43.0576 53.9863 42.8165C53.7066 42.5464 53.5619 42.1895 53.5619 41.7169C53.5619 40.7138 54.2853 40.0289 55.491 40.0289C56.253 40.0289 56.7835 40.2218 57.2755 40.6848L56.716 41.2346C56.3591 40.897 55.9444 40.7909 55.4621 40.7909C54.7869 40.7909 54.4107 41.1767 54.4107 41.688C54.4107 41.9002 54.4783 42.0834 54.6326 42.2185C54.7773 42.3439 55.0088 42.4403 55.2788 42.4885L55.9347 42.585C56.4652 42.6622 56.7642 42.7972 57.0054 43.019C57.3237 43.2988 57.478 43.7039 57.478 44.1958C57.4587 45.2568 56.5906 45.8838 55.3946 45.8838Z" fill="#000CA0"/>
<path d="M69.7179 15.3267C66.9304 15.3267 64.6733 13.0697 64.6733 10.2821C64.6733 7.49457 66.9304 5.23752 69.7179 5.23752C72.5055 5.23752 74.7625 7.49457 74.7625 10.2821C74.7625 13.0697 72.5055 15.3267 69.7179 15.3267ZM69.7179 0C64.0367 0 59.4358 4.60092 59.4358 10.2821C59.4358 15.9633 64.0367 20.5643 69.7179 20.5643C75.3991 20.5643 80.0001 15.9633 80.0001 10.2821C80.0001 4.60092 75.3991 0 69.7179 0Z" fill="#000CA0"/>
</svg>
