<svg viewBox="0 0 120 25" fill="none" xmlns="http://www.w3.org/2000/svg">
<path d="M69.241 18.3013C68.4704 19.719 66.9758 20.3813 65.4461 20.3813C63.286 20.3813 61.5462 19.0334 60.9624 16.8489H74.4954C75.161 9.78396 70.7706 5.70538 65.4812 5.70538C60.4369 5.70538 56.2917 9.9234 56.2917 15.0943C56.2917 20.2535 60.4369 24.4018 65.4812 24.4018C69.9299 24.4018 73.1059 21.9384 74.1451 18.313H69.241V18.3013ZM65.4461 9.71424C67.6413 9.71424 69.3811 11.0273 69.9299 13.1073H61.0207C61.6863 11.0273 63.356 9.71424 65.4461 9.71424Z" fill="currentColor"/>
<path d="M84.0818 24.3553C86.1719 24.3553 87.9818 23.5884 89.3713 22.2637L89.3946 22.2753C89.5348 23.3444 90.0836 23.9253 91.1578 24.0648H93.9835V0H89.3713V7.84342C87.9818 6.53038 86.1719 5.76346 84.0818 5.76346C79.4229 5.76346 75.558 9.78395 75.558 15.0826C75.5697 20.3348 79.4229 24.3553 84.0818 24.3553ZM84.7824 9.9931C87.3279 9.9931 89.3713 12.2822 89.3713 15.1175C89.3713 17.883 87.3162 20.1373 84.7824 20.1373C82.2369 20.1373 80.1936 17.9527 80.1936 15.1175C80.1936 12.2009 82.2486 9.9931 84.7824 9.9931Z" fill="currentColor"/>
<path d="M101.351 1.16199C101.351 0.534515 100.978 0.0697193 100.441 0H99.3898H96.7393V3.88104H101.363V1.16199H101.351Z" fill="currentColor"/>
<path d="M98.6894 24.0648H99.1914H101.363V6.11206H96.7394V22.1243C96.7277 23.1933 97.6034 24.0648 98.6894 24.0648Z" fill="currentColor"/>
<path d="M55.2654 13.5371C55.2654 8.86594 52.6849 5.67047 47.8859 5.67047C45.5856 5.67047 43.9159 6.63492 42.6314 8.20361C41.3821 6.61168 39.7123 5.67047 37.4821 5.67047C35.5321 5.67047 34.1777 6.5071 33.0684 7.85501V6.10041H28.6547V24.0531H33.2786V13.5255C33.2786 11.5153 34.4929 9.99307 36.513 9.99307C39.5372 9.99307 39.6423 12.4913 39.6423 13.5255V24.0531H44.2662V13.5255C44.2662 11.5153 45.4805 9.99307 47.5356 9.99307C50.373 9.99307 50.6299 12.2357 50.6649 13.3512C50.6649 13.3861 50.6649 22.0778 50.6649 22.0778C50.6649 22.4961 50.805 22.8911 51.0269 23.2049C51.2487 23.5651 51.5757 23.7975 52.031 23.9369C52.0427 23.9369 52.0427 23.9369 52.0544 23.9486C52.1011 23.9602 52.1361 23.9718 52.1828 23.9834C52.2062 23.9834 52.2179 23.995 52.2412 23.995C52.3113 24.0067 52.393 24.0299 52.4747 24.0415H55.2654V13.5371Z" fill="currentColor"/>
<path d="M6.6792 1.16199C6.6792 0.534515 6.30555 0.0697193 5.76843 0H4.71755H2.09033V3.88104H6.66752V1.16199H6.6792Z" fill="currentColor"/>
<path d="M6.66729 19.5912V8.04101C6.66729 6.96036 5.79155 6.08887 4.70563 6.08887H0V9.74913H1.35448C1.78651 9.74913 2.04339 9.94667 2.0901 10.365V22.1011C2.0901 23.1817 2.96583 24.0532 4.05175 24.0532H4.56552H6.32867L8.92085 20.2651H7.44961C6.98255 20.2535 6.71399 20.0095 6.66729 19.5912Z" fill="currentColor"/>
<path d="M21.2745 13.1189L23.1661 10.2836C23.423 9.94667 23.7149 9.69103 24.252 9.69103H25.9685V6.08887H25.9568H22.1269C21.5548 6.14697 21.1344 6.29803 20.7608 6.61176C20.6557 6.70472 20.5506 6.79768 20.4455 6.9255L14.689 15.501L13.8016 16.8256L11.8399 19.7539L8.95581 24.0532H9.21269H9.30611H9.31778H9.41119H12.2603C13.7899 24.0532 14.292 23.7395 15.1093 22.3567L15.518 21.7292L17.83 18.2781L21.6949 24.0648H26.6924L20.3404 14.5365L21.2745 13.1189Z" fill="currentColor"/>
<path d="M16.6269 8.98212L14.7003 6.07715H9.70276L14.1048 12.6772L16.6269 8.98212Z" fill="currentColor"/>
<path d="M120 24.0647V11.7825C120 10.3649 119.439 5.69366 112.165 5.69366C107.471 5.69366 104.202 8.2268 103.746 11.6198H108.335C108.755 10.0976 110.635 9.36555 112.27 9.36555C114.325 9.36555 115.54 10.1325 115.54 11.0621C115.54 12.5145 113.414 12.8631 110.425 13.142C106.455 13.4906 103.081 14.5248 103.081 18.5453C103.081 22.4263 106.56 24.332 110.355 24.332C112.632 24.332 114.325 23.6929 115.504 22.6355C115.715 23.4837 116.252 23.9369 117.209 24.0647H120ZM115.715 17.0463C115.715 19.3354 113.484 20.265 110.74 20.265C108.896 20.265 107.716 19.5678 107.716 18.5685C107.716 17.2555 109.106 16.7674 111.371 16.5234C113.251 16.3142 114.746 16.0005 115.715 15.3847V17.0463Z" fill="currentColor"/>
</svg>
