<svg viewBox="0 0 120 43" fill="none" xmlns="http://www.w3.org/2000/svg">
<path d="M95.8334 37.8696H4.09216V40.5296H95.8334V37.8696Z" fill="currentColor"/>
<path d="M87.3657 0.559875H87.3419V31.8495H91.4568V0.559875H87.3657Z" fill="currentColor"/>
<path d="M43.0752 28.373C37.2239 28.373 34.6313 24.593 34.6313 16.1231C34.6313 7.65324 37.2239 3.87329 43.0752 3.87329C48.9265 3.87329 51.5429 7.65324 51.5429 16.1231C51.5429 24.6164 48.9265 28.373 43.0752 28.373ZM43.0752 0C34.5124 0 30.5402 5.13327 30.5402 16.1231C30.5402 27.1364 34.5362 32.2463 43.0752 32.2463C51.638 32.2463 55.634 27.113 55.634 16.1231C55.634 5.27327 51.5191 0 43.0752 0Z" fill="currentColor"/>
<path d="M77.3755 12.8332C76.2338 13.9532 73.9503 13.9532 71.0485 13.9532C71.0485 13.9532 64.7215 13.9532 64.0079 13.9532C64.0079 13.2532 64.0079 5.03994 64.0079 4.36328C64.7215 4.36328 70.3825 4.36328 70.3825 4.36328H71.548C74.2595 4.33995 76.3765 4.33995 77.4468 5.3666C78.1366 6.01993 78.4458 7.18658 78.4458 8.91323C78.4696 10.8265 78.1128 12.1099 77.3755 12.8332ZM77.6133 26.9497C76.543 27.9997 74.3071 27.9997 71.5004 27.9763C71.5004 27.9763 64.7453 27.9763 64.0317 27.9763C64.0317 27.2763 64.0317 18.3631 64.0317 17.6865C64.7453 17.6865 70.6679 17.6865 70.6679 17.6865H71.2388C74.3071 17.6865 76.543 17.6865 77.6133 18.7598C78.3507 19.4831 78.7075 20.8131 78.7075 22.9131C78.7075 24.943 78.3507 26.2264 77.6133 26.9497ZM79.9681 15.7031C82.0375 14.0465 82.537 11.2232 82.537 9.05323C82.537 6.11326 81.8472 4.03662 80.4676 2.65997C78.3269 0.559991 75.1158 0.583324 71.3815 0.583324H70.7155H59.9882V31.8263H70.9771C77.3041 31.8263 82.7748 31.8263 82.7748 22.7964C82.7748 20.3464 82.4418 17.3831 79.9681 15.7031Z" fill="currentColor"/>
<path d="M22.6202 9.35644C22.6202 11.2464 22.2872 12.4597 21.5974 13.1364C20.5746 14.1397 18.529 14.1397 15.9364 14.1164H14.866C14.866 14.1164 8.89583 14.1164 8.20605 14.1164C8.20605 13.4164 8.20605 5.06316 8.20605 4.36317C8.89583 4.36317 14.6044 4.36317 14.6044 4.36317H15.2942C18.1722 4.36317 20.4081 4.33983 21.5498 5.45982C22.2634 6.18314 22.6202 7.44313 22.6202 9.35644ZM24.1187 15.9364C25.8312 14.653 26.6875 12.5531 26.6875 9.49644C26.6875 6.29981 25.9977 4.05984 24.5468 2.63652C22.4061 0.559875 19.1474 0.559875 15.3417 0.559875H14.7709H0V3.63984L0.975212 3.73317C3.90085 3.94317 3.92463 4.08317 4.09113 5.83315C4.09113 5.85648 4.09113 31.8729 4.09113 31.8729H8.18226C8.18226 31.8729 8.18226 18.713 8.18226 17.9897C8.87205 17.9897 14.533 17.9897 14.533 17.9897C22.6202 17.9897 22.6202 18.1063 22.6202 24.2663V31.8729H26.6637V24.1263C26.6637 24.1263 26.6399 24.1263 26.6399 24.1496C26.6637 24.0563 26.6637 23.9629 26.6637 23.8696V22.4696C26.6875 20.2063 26.3783 17.4763 24.1187 15.9364Z" fill="currentColor"/>
<path d="M108.392 28.373C102.541 28.373 99.9479 24.593 99.9479 16.1231C99.9479 7.65324 102.541 3.87329 108.392 3.87329C111.96 3.87329 114.314 5.27327 115.623 8.30657H119.975C118.287 2.72997 114.457 0 108.392 0C99.829 0 95.8568 5.13327 95.8568 16.1231C95.8568 27.1364 99.829 32.2463 108.392 32.2463C114.576 32.2463 118.382 29.563 119.999 23.9631H115.599C114.314 26.973 111.96 28.373 108.392 28.373Z" fill="currentColor"/>
<path d="M99.9472 36.3762V41.9062H98.9482V36.7029L99.9472 36.3762Z" fill="currentColor"/>
<path d="M103.158 40.3663C103.158 39.8296 103.443 39.3863 103.919 39.1063C103.633 38.8963 103.324 38.5463 103.324 38.033C103.324 37.0763 104.18 36.493 105.156 36.493C106.155 36.493 107.011 37.0763 107.011 38.033C107.011 38.523 106.773 38.8963 106.392 39.1063C106.892 39.3863 107.154 39.8296 107.154 40.3663C107.154 41.3929 106.369 42.0229 105.156 42.0229C103.966 41.9996 103.158 41.3929 103.158 40.3663ZM106.178 40.3429C106.178 39.8996 105.798 39.6196 105.179 39.6196C104.537 39.6196 104.157 39.8996 104.157 40.3429C104.157 40.7863 104.585 41.0196 105.179 41.0196C105.75 41.0429 106.178 40.7863 106.178 40.3429ZM106.059 38.0563C106.059 37.7063 105.703 37.473 105.179 37.473C104.656 37.473 104.323 37.7063 104.323 38.0563C104.323 38.4296 104.727 38.663 105.179 38.663C105.631 38.6396 106.059 38.4063 106.059 38.0563Z" fill="currentColor"/>
<path d="M113.696 39.0129C113.696 40.3895 113.268 42.0229 111.436 42.0229C110.699 42.0229 110.199 41.7195 109.652 41.1829L110.366 40.5062C110.675 40.8562 111.008 41.0662 111.484 41.0662C112.126 41.0662 112.554 40.5762 112.673 39.8529C112.506 39.9229 112.316 39.9695 112.126 40.0162C111.936 40.0629 111.745 40.0629 111.579 40.0629C110.389 40.0629 109.7 39.2929 109.7 38.4296C109.7 37.3096 110.532 36.5163 111.674 36.5163C113.125 36.4696 113.696 37.6829 113.696 39.0129ZM111.674 39.1296C112.054 39.1296 112.435 39.0129 112.697 38.7796V38.7096C112.697 38.0096 112.34 37.4496 111.65 37.4496C111.079 37.4496 110.675 37.7529 110.675 38.2896C110.699 38.7562 111.032 39.1296 111.674 39.1296Z" fill="currentColor"/>
<path d="M116.124 37.5662C116.647 36.7495 117.218 36.4695 117.955 36.4695C118.954 36.4695 119.715 37.0295 119.715 38.1262C119.715 38.8262 119.168 39.4562 118.455 40.1328L117.67 40.8562H120.001V41.8828H116.1V41.0662C117.812 39.4562 118.74 38.9195 118.74 38.1495C118.74 37.6595 118.312 37.4729 117.931 37.4729C117.503 37.4729 117.218 37.6129 116.885 38.1029L116.124 37.5662Z" fill="currentColor"/>
</svg>
