<svg viewBox="0 0 80 61" fill="none" xmlns="http://www.w3.org/2000/svg">
  <path d="M54.1722 40.0653C51.5956 40.4865 50.2839 42.3743 50.2839 45.7287C50.2839 49.0987 52.0329 51.3453 54.7188 51.3453C55.9681 51.3453 57.108 50.9241 59.4973 49.754V52.4687C56.6239 53.7792 54.9374 54.1848 52.6263 54.1848C50.1277 54.1848 48.3631 53.514 46.9265 52.063C45.4586 50.5964 44.7246 48.6462 44.7246 46.4776C44.7246 41.6567 48.285 38.4115 53.5007 38.4115C56.9675 38.4115 59.3411 39.9873 59.3411 42.3119C59.3411 43.8097 58.2324 44.8394 56.5927 44.8394C55.7494 44.8394 55.0623 44.621 54.1722 44.1061V40.0653Z" fill="#000CA0"/>
  <path d="M41.4605 46.4932C43.7717 43.5913 44.5837 42.4212 44.5837 40.9858C44.5837 39.5661 43.4594 38.4271 41.9446 38.4271C41.0077 38.4271 40.18 38.864 39.774 39.3164V45.2451L35.9949 50.2844V38.8016H32.4033L26.4224 48.7087V38.8016H24.3611L18.9424 40.1277V41.5163L21.9094 41.8127V53.9509H25.7353L31.4663 44.543V53.9509H35.6514L41.4605 46.4932Z" fill="#000CA0"/>
  <path d="M7.49563 52.0631C7.90165 52.0787 8.08904 52.0787 8.33889 52.0787C11.4152 52.0787 13.0705 50.1597 13.0705 46.4776C13.0705 43.3573 11.7119 41.7035 9.229 41.7035C8.80737 41.7035 8.38574 41.7503 7.49563 41.8595V52.0631ZM7.49563 58.7094L9.97856 59.2555V60.6596H0.249854V59.2555L2.46731 58.7094V41.7191H0V40.2525L5.94966 38.4427H7.49563V40.471C10.2909 38.8172 11.2434 38.5208 12.6645 38.5208C15.9751 38.5208 18.4111 41.5631 18.4111 45.7756C18.4111 50.6433 15.163 53.9197 10.0254 53.9197C9.44762 53.9197 8.47943 53.8885 7.48002 53.7636V58.7094H7.49563Z" fill="#000CA0"/>
  <path d="M50.8927 26.0549H35.9951V29.7837H50.8927V26.0549Z" fill="#000CA0"/>
  <path d="M76.221 18.6129V7.44203H68.6785V2.91752H65.7583V0H50.9076V26.0549H80V18.6129H76.221ZM75.4714 8.17531V18.5973H68.6785V8.17531H75.4714ZM51.6415 15.6173H59.4339V18.5973H51.6415V15.6173ZM51.6415 3.65081H65.0088V7.44203H51.6415V3.65081ZM65.0088 8.17531V18.5973H60.1834V14.8841H51.6415V8.19091H65.0088V8.17531ZM51.6415 19.3461H59.4339V25.306H51.6415V19.3461ZM60.1834 19.3461H65.0088V25.306H60.1834V19.3461ZM65.7583 19.3461H67.9445V25.306H65.7583V19.3461ZM65.7583 18.6129V8.17531H67.9445V18.5973H65.7583V18.6129ZM67.9289 3.65081V7.44203H65.7427V3.65081H67.9289ZM51.6415 0.748883H65.0088V2.91752H51.6415V0.748883ZM68.6785 25.306V19.3461H75.4714V25.306H68.6785ZM79.2505 25.306H76.221V19.3461H79.2505V25.306Z" fill="#000CA0"/>
</svg>
