<?xml version="1.0" encoding="UTF-8"?><svg id="b" xmlns="http://www.w3.org/2000/svg" xmlns:xlink="http://www.w3.org/1999/xlink" viewBox="0 0 2384.92 884.38"><defs><linearGradient id="e" x1="909.18" y1="587.37" x2="910.18" y2="587.37" gradientTransform="translate(-232406.32 150932.67) scale(256.84 -256.84)" gradientUnits="userSpaceOnUse"><stop offset="0" stop-color="#d74960" stop-opacity="0"/><stop offset="1" stop-color="#d74960"/></linearGradient></defs><g id="c"><g id="d"><g><path d="m304.75,645.01c80.31,0,145.23-60.69,145.23-139.03s-64.92-139.02-145.23-139.02-140.83,60.69-140.83,139.02,61.64,139.03,140.83,139.03m-29.69-427.01c84.7,0,149.61,34.19,165.02,82.74v-72.81h163.94v556.09h-163.95v-72.82c-15.4,47.44-80.31,82.75-165.01,82.75C117.72,793.96,0,667.07,0,505.98S117.72,218,275.06,218" fill="#282828"/><path d="m775.01,377.03h-91.24v-148.82h91.24v-15.45c0-91.49,22.01-137.8,64.86-171.97C886.04,2.2,944.31,0,992.66,0c23.09,0,52.78,3.3,65.98,5.52v136.69c-14.3-5.51-32.99-5.51-49.48-5.51-51.67,0-75.84,18.74-75.84,66.15v25.37h111.03v148.82h-111.03v406.78h-158.3v-406.78Z" fill="#282828"/><rect x="1123.88" y="227.88" width="163.83" height="555.91" fill="#282828"/><rect x="1108.13" y="4.88" width="256.84" height="138.44" fill="url(#e)"/><path d="m1511.3,2.27v882.12h873.62V2.27h-873.62Zm425.9,700.67c-125.62,0-228.89-73.22-228.89-223.47V162.95h118.68v304.31c0,93.05,43.93,128.89,110.2,128.89s109.43-35.85,109.43-128.89V162.95h118.68v316.51c0,150.25-103.27,223.47-228.12,223.47Zm277.39,68.27c-31.22,0-58.2-25.15-58.2-56.62s26.98-56.64,58.2-56.64,58.18,25.18,58.18,56.64-26.95,56.62-58.18,56.62Z" fill="#e23653" fill-rule="evenodd"/></g></g></g></svg>