<?xml version="1.0" encoding="utf-8"?>
<svg version="1.1" id="logo"
	 xmlns="http://www.w3.org/2000/svg" xmlns:xlink="http://www.w3.org/1999/xlink" x="0px" y="0px" viewBox="0 0 1024 750"
	 style="enable-background:new 0 0 1024 750;" xml:space="preserve">
  <style type="text/css">
    .st0{fill:#2C3F49;}
    .st1{fill:#E26252;}
    .st2{fill:#E1B449;}
    .st3{fill:#8FAF59;}
    .st4{fill:#339E8A;}
  </style>
	<g>
		<path class="st0" d="M1018.2,694.6L1018.2,694.6c-1.4-1.8-3-3.5-4.7-5.1l-1.1-1.2h-0.2c-2.2-1.8-4.7-3.2-7.3-4.4
			l0,0c-4-2.2-7.8-4.2-11.5-5.9c-3.7-1.7-7.3-3.6-10.2-5.3h-0.3c-1.9-0.8-3.6-2-5.1-3.4c-1.9-1.6-3.2-3.9-3.6-6.3
			c0-0.1,0-0.2,0-0.3c-0.2-0.7-0.3-1.5-0.3-2.3c0.1-3.7,1.9-7.1,5-9.1c3.2-2.2,7.1-3.3,11-3.1c3.9,0,7.7,1.4,10.8,3.9
			c0.9,0.7,2.2,0.7,3.1,0l10.9-7.5c1.2-0.8,1.5-2.5,0.6-3.7c-0.1-0.1-0.1-0.2-0.2-0.2c-2.4-2.6-5.2-4.7-8.2-6.4
			c-5.2-2.7-10.9-4.2-16.8-4.4c-4.5-0.2-9,0.5-13.2,2.1c-4,1.5-7.7,3.7-10.8,6.5c-3.1,2.7-5.6,5.9-7.4,9.6c-1.9,3.7-2.9,7.7-3,11.9
			c-0.2,4.1,0.6,8.2,2.3,11.9c1.7,3.7,4.1,7.1,7.1,9.9l1.5,1.6h0.3c1.8,1.5,3.8,2.8,5.9,4c2.6,1.5,5.2,2.8,7.9,4.1
			c2.6,1.3,5.3,2.5,7.9,3.7c2.6,1.1,5.2,2.5,7.5,3.7l3,1.7l0,0c2.7,1.7,4.9,4.2,6.1,7.2l0,0c0.2,0.5,0.3,1,0.4,1.5
			c0,0.3,0.1,0.6,0.3,0.8l0,0c0,0.1,0,0.2,0,0.3l0,0l0,0c0.1,0.9,0.1,1.8,0,2.7c0,4.4-2.1,8.6-5.6,11.2c-3.6,2.7-8,4.1-12.5,4
			c-3.9,0-7.7-1.2-10.9-3.5c-1.2-0.9-2.3-1.9-3.3-3.1c-0.9-1.1-2.4-1.3-3.5-0.5l-10.8,7.5c-1.2,0.8-1.5,2.4-0.7,3.6
			c0,0,0.1,0.1,0.1,0.1c2.6,3.6,5.9,6.6,9.7,8.8c5.7,3.4,12.2,5.2,18.8,5.4c4.8,0.3,9.6-0.5,14.1-2.2c4.3-1.6,8.2-3.9,11.6-7
			c3.3-3,6-6.6,8-10.6c2-4.1,3.1-8.6,3.2-13.2c0.2-3.6-0.3-7.1-1.5-10.5C1021.4,700.1,1020,697.3,1018.2,694.6z"/>
		<path class="st0" d="M881.2,629.3H895c1.2,0,2.2,1,2.2,2.2v113.3c0,1.2-1,2.2-2.2,2.2h-13.8c-1.2,0-2.2-1-2.2-2.2
			V631.5C879,630.3,880,629.3,881.2,629.3z"/>
		<path class="st0" d="M888.1,614.8c5.8,0,10.6-4.7,10.6-10.5c0-5.8-4.7-10.6-10.5-10.6c-5.8,0-10.6,4.7-10.6,10.5
			c0,0,0,0,0,0C877.6,610,882.3,614.7,888.1,614.8z"/>
		<path class="st0" d="M798.5,637.9L798.5,637.9c-4.1-2.7-8.5-4.8-13.2-6.2c-9.7-2.9-20-2.9-29.7,0
			c-4.7,1.4-9.1,3.5-13.2,6.2l-0.5,0.4c-1.1,0.8-2.7,0.5-3.4-0.6c-0.3-0.4-0.4-0.9-0.4-1.4v-54c0-1.4-1.1-2.5-2.5-2.5
			c-0.2,0-0.4,0-0.7,0.1c-8.9,2.6-15.1,10.7-15.2,20v144.9c0,1.4,1.1,2.5,2.5,2.5h13.2c1.3,0,2.4-1.1,2.4-2.5v-64.5
			c0-4.3,0.9-8.6,2.6-12.6c1.6-3.8,3.9-7.3,6.8-10.3c2.9-3,6.5-5.4,10.4-7.1c8-3.4,17.1-3.4,25.2,0c7.8,3.3,14,9.5,17.3,17.3
			c1.7,4,2.6,8.2,2.6,12.6v64.5c0,1.4,1.1,2.5,2.5,2.5h13.2c1.4,0,2.5-1.1,2.5-2.5v-64.5c0.1-8.5-2-16.9-6.2-24.4
			C810.7,648.7,805.2,642.5,798.5,637.9z"/>
		<path class="st0" d="M643.3,582c0-1.2-1-2.2-2.2-2.2c-0.2,0-0.4,0-0.6,0.1c-9.1,2.5-15.4,10.7-15.4,20.1V627
			c0,1.3-1,2.3-2.3,2.3c0,0,0,0,0,0h-18c-1.2,0-2.3,1-2.3,2.2c0,0,0,0,0,0v13.8c0,1.2,1,2.2,2.2,2.2c0,0,0,0,0,0h18
			c1.2,0,2.3,1,2.3,2.2c0,0,0,0,0,0v95c0,1.2,1,2.2,2.2,2.2H641c1.2,0,2.2-1,2.2-2.2v-95.1c0-1.2,1-2.2,2.2-2.2c0,0,0,0,0,0h17.6
			c1.2,0.1,2.3-0.8,2.4-2.1c0,0,0-0.1,0-0.1v-13.8c0-1.2-1-2.2-2.2-2.2c0,0,0,0,0,0h-17.6c-1.3,0-2.3-1-2.3-2.3c0,0,0,0,0,0
			L643.3,582z"/>
		<path class="st0" d="M525.6,637.9L525.6,637.9c-12.7-8.3-28.4-10.6-42.9-6.2c-4.7,1.4-9.1,3.5-13.2,6.2l0,0
			c-1.3,0.9-3,0.5-3.9-0.7c-0.3-0.5-0.5-1-0.5-1.6v-51.9c0-1.6-1.3-2.8-2.8-2.8c-0.3,0-0.6,0-0.8,0.1c-8.6,2.8-14.5,10.8-14.6,19.8
			v143.8c0,1.6,1.3,2.8,2.8,2.8h12.6c1.6,0,2.8-1.3,2.8-2.8v-64.4c0-4.3,0.9-8.6,2.6-12.6c1.7-3.8,4-7.3,6.9-10.3
			c2.9-3,6.4-5.4,10.3-7.1c8.1-3.3,17.1-3.3,25.2,0c3.8,1.7,7.3,4.1,10.3,7c2.9,3,5.3,6.5,7,10.3c1.7,4,2.6,8.2,2.6,12.6v64.2
			c0,1.6,1.3,2.8,2.8,2.8h12.6c1.6,0,2.8-1.3,2.8-2.8v-64.2c0.1-8.5-2-16.9-6.2-24.4C538.1,648.7,532.5,642.5,525.6,637.9z"/>
		<path class="st0" d="M386.4,694.6L386.4,694.6c-1.4-1.9-3.1-3.6-4.8-5.2l-1.1-1.2l0,0c-2.2-1.8-4.7-3.2-7.3-4.4
			l0,0c-4-2.2-7.8-4.2-11.5-5.9c-3.7-1.7-7.3-3.6-10.2-5.3h-0.3c-1.9-0.8-3.6-2-5.1-3.4c-1.5-1.5-2.6-3.4-3-5.5c0-0.1,0-0.2,0-0.3
			c-0.2-0.7-0.3-1.5-0.3-2.3c0.1-3.7,1.9-7.1,5-9.1c3.2-2.2,7.1-3.3,11-3.1c3.9,0,7.7,1.4,10.8,3.9c0.9,0.7,2.2,0.7,3.1,0l10.9-7.5
			c1.2-0.8,1.5-2.5,0.7-3.7c-0.2-0.3-0.5-0.6-0.7-0.8c-2.4-2.6-5.2-4.7-8.2-6.4c-5.2-2.7-10.9-4.2-16.8-4.4
			c-4.5-0.2-9,0.5-13.2,2.1c-4,1.5-7.7,3.7-10.8,6.5c-3.1,2.7-5.6,5.9-7.4,9.6c-1.9,3.7-2.9,7.7-3,11.9c-0.2,4,0.6,7.9,2.2,11.6
			c1.7,3.7,4,7.1,7,9.9l1.5,1.6h0.3c1.8,1.5,3.8,2.8,5.9,4c2.6,1.5,5.2,2.8,7.9,4.1c2.6,1.3,5.3,2.5,7.9,3.7s5.2,2.5,7.5,3.7l3,1.7
			l0,0c2.7,1.7,4.9,4.2,6.1,7.2l0,0c0.2,0.5,0.3,1,0.4,1.5c0,0.3,0.1,0.6,0.3,0.8l0,0c0,0.1,0,0.2,0,0.3l0,0l0,0
			c0.1,0.9,0.1,1.8,0,2.7c0,4.4-2.1,8.6-5.6,11.2c-3.6,2.7-8,4.1-12.5,4c-3.9,0-7.7-1.2-10.9-3.5c-1.2-0.9-2.3-1.9-3.3-3.1
			c-0.9-1.1-2.4-1.3-3.5-0.5l-10.8,7.5c-1.2,0.8-1.5,2.4-0.7,3.6c0,0,0.1,0.1,0.1,0.1c2.6,3.6,5.9,6.6,9.7,8.8
			c5.7,3.4,12.2,5.2,18.8,5.4c4.8,0.3,9.6-0.5,14.1-2.2c4.3-1.4,8.4-3.6,11.9-6.4c3.3-3,6-6.6,8-10.6c2-4.1,3.1-8.6,3.2-13.2
			c0.2-3.6-0.3-7.1-1.5-10.5C390,700.4,388.4,697.4,386.4,694.6z"/>
		<path class="st0" d="M257.7,647.1c-5.5-5.3-11.9-9.6-18.9-12.7c-14.7-6.2-31.2-6.2-45.8,0
			c-7,3-13.3,7.3-18.7,12.7c-5.4,5.4-9.7,11.8-12.6,18.9c-3.1,7.3-4.7,15.2-4.7,23.1c0,7.9,1.5,15.7,4.7,23c3,7,7.3,13.4,12.6,18.8
			c5.4,5.4,11.8,9.7,18.8,12.6c13.5,5.7,28.6,6.2,42.5,1.4c6-2.2,11.6-5.2,16.7-9.1l0,0c1.3-0.9,3-0.5,3.9,0.7
			c0.3,0.4,0.5,1,0.5,1.5v5.7c0,1.6,1.3,2.8,2.8,2.8h12.6c1.6,0,2.8-1.3,2.8-2.8v-54.7c0-7.9-1.6-15.8-4.7-23.1
			C267.3,659,263.1,652.5,257.7,647.1z M253.5,704.9c-4.2,9.7-11.9,17.5-21.6,21.7c-10.2,4.4-21.7,4.4-31.9,0
			c-4.8-2.1-9.1-5.1-12.8-8.8c-3.7-3.7-6.7-8.1-8.8-12.9c-4.3-10.2-4.3-21.6,0-31.8c4.2-9.7,11.9-17.5,21.6-21.8
			c10.2-4.3,21.7-4.3,31.9,0c4.8,2.1,9.2,5.1,12.9,8.8c3.7,3.7,6.7,8.1,8.8,13c2.2,5,3.3,10.5,3.3,16
			C256.8,694.5,255.7,699.9,253.5,704.9z"/>
		<path class="st0" d="M99.1,639.7c-0.1,1.6-1.4,2.8-3,2.7c-0.5,0-1-0.2-1.4-0.4l0,0
			c-5-3.9-10.6-6.9-16.6-9c-6.2-2.2-12.6-3.2-19.2-3.2c-7.8-0.1-15.6,1.4-22.9,4.4c-14.2,5.9-25.5,17.2-31.5,31.3
			c-6.1,14.7-6.1,31.3,0,46c6.1,14,17.3,25,31.3,30.8c14.6,6.1,31.1,6.1,45.7,0c14-5.9,25.2-16.9,31.2-30.8
			c3-7.3,4.5-15.1,4.4-22.9V584.3c0.1-1.6-1.2-3-2.8-3c-0.3,0-0.6,0-0.8,0.1c-8.7,2.8-14.5,10.8-14.5,19.9V639.7z M99.1,688.2
			c0,5.4-1,10.7-3.1,15.7c-2,4.8-4.9,9.2-8.6,12.9c-3.7,3.7-8,6.7-12.9,8.8c-10,4.2-21.2,4.2-31.2,0c-4.8-2.1-9.2-5.1-12.9-8.8
			c-3.7-3.7-6.7-8.1-8.8-12.8c-2.2-5-3.3-10.3-3.3-15.7c0-5.4,1.1-10.7,3.3-15.6c2.1-4.8,5.1-9.2,8.8-12.9c3.7-3.7,8-6.7,12.9-8.8
			c15.1-6.3,32.5-2.8,44.1,8.8c3.6,3.7,6.6,8,8.6,12.8c2.1,4.9,3.2,10.2,3.1,15.5V688.2z"/>
		<path class="st0" d="M679.4,90.5c0.4-3.2-1.9-6.1-5.2-6.5c-0.6-0.1-1.2,0-1.7,0.1c-30.2,3.3-53.4,28.3-54.4,58.6
			v46.1c0.8,7.3-1.8,14.5-7.1,19.6L581.6,238c-2.8,2.5-3.2,6.7-1,9.7l16.7,15.9c15,14.3,23.2,34.3,22.5,55
			c-2.2,43.4-36.9,78.1-80.3,80.3c-20.7,0.8-40.7-7.3-55-22.3c0,0-12.8-12.2-16.4-15.6s-8.8-0.4-10.1,0.8l-29.3,29.4
			c-2.9,2.6-3.3,7-0.9,10.1l17.6,17.9c10.3,10.4,22.2,19,35.3,25.5c12.7,6.4,26.4,10.7,40.5,12.7c13.9,1.9,27.9,1.9,41.8,0
			c14.2-2.1,27.9-6.5,40.7-13c13.2-6.7,25.2-15.4,35.7-25.9c13-12.9,23.2-28.3,30-45.3c6.7-16.4,10.2-33.9,10.4-51.6
			C679.9,318.6,679.4,93.6,679.4,90.5z"/>
		<path class="st1" d="M424,8.6c-12.2-10.2-30.4-8.6-40.7,3.6c-9.3,11.1-8.9,27.3,0.8,38v0.2l0,0c0.3,0.3,0.4,0.6,0.7,0.9
			c0.3,0.3,0.7,0.5,1,0.8l175.6,175.6c1.3,1.3,3.1,2,5,1.9c1.8,0.1,3.6-0.6,4.9-1.9l31.1-31.1c1.3-1.3,2-3.1,1.9-4.9
			c0.1-1.8-0.6-3.6-1.9-4.9L425.3,9.4C424.9,9.1,424.5,8.8,424,8.6z"/>
		<path class="st2" d="M457.7,143.9L457.7,143.9c-11.3-11.3-29.7-11.3-41,0c-11.3,11.3-11.3,29.7,0,41l0,0l0,0l94,94
			c1.3,1.3,3.1,2,4.9,1.9c1.8,0.1,3.7-0.6,5-1.9l30.8-31.1c1.3-1.3,2-3.1,1.9-4.9c0.1-1.8-0.6-3.6-1.9-4.9L457.7,143.9L457.7,143.9
			z"/>
		<path class="st3" d="M420.2,208.4c-11.3-11.3-29.6-11.4-41-0.1c-11.3,11.3-11.4,29.6-0.1,41v0.3l80.3,80.4c1.3,1.3,3.1,2,4.9,1.9
			c1.8,0.1,3.7-0.6,5-1.9l30.8-31.1c1.3-1.3,2-3.1,1.9-4.9c0.1-1.8-0.6-3.6-1.9-4.9l-79.8-80.3
			C420.4,208.6,420.3,208.5,420.2,208.4z"/>
		<path class="st4" d="M318.8,209.3c-12-10.5-30.2-9.4-40.7,2.6c-9.6,10.9-9.6,27.3,0,38.2c0.1,0.2,0.3,0.5,0.5,0.7L408.7,381
			c1.3,1.3,3.1,2,4.9,1.9c1.9,0.2,3.8-0.5,5.2-1.9l30.8-30.8c1.3-1.3,2-3.1,1.9-4.9c0.1-1.8-0.6-3.6-1.9-4.9L319.5,209.8
			C319.5,209.8,319,209.5,318.8,209.3z"/>
	</g>
</svg>
