<?xml version="1.0" encoding="UTF-8"?>
<svg width="135px" height="41px" viewBox="0 0 135 41" version="1.1" xmlns="http://www.w3.org/2000/svg" xmlns:xlink="http://www.w3.org/1999/xlink">
    <title>logo-zenika</title>
    <defs>
        <linearGradient x1="-32.2423451%" y1="109.826188%" x2="122.066765%" y2="-14.9214753%" id="linearGradient-1">
            <stop stop-color="#EE2238" offset="0%"></stop>
            <stop stop-color="#BF1D67" offset="100%"></stop>
        </linearGradient>
        <linearGradient x1="-32.2418876%" y1="109.670956%" x2="121.827201%" y2="-14.8819678%" id="linearGradient-2">
            <stop stop-color="#EE2238" offset="0%"></stop>
            <stop stop-color="#BF1D67" offset="100%"></stop>
        </linearGradient>
    </defs>
    <g id="Page-1" stroke="none" stroke-width="1" fill="none" fill-rule="evenodd">
        <g id="logo-zenika" fill-rule="nonzero">
            <path d="M39.81,27.397 C39.8080624,27.4044534 39.8057257,27.4117973 39.803,27.419 L39.795,27.441 C36.95,35.347 29.384,41 20.5,41 C9.178,41 0,31.821 0,20.5 C0,20 0.017,19.507 0.052,19.017 L0.054,19 L0.054,18.997 L0.064,18.946 L0.062,18.975 L23.249,14.772 L10.733,27.29 C10.2647279,27.9699519 10.0859355,28.808154 10.236,29.62 C10.5206407,31.1705617 11.908337,32.2714874 13.483,32.196 L14.333,32.041 L14.335,32.041 L39.811,27.398 L39.81,27.397 Z" id="Path" fill="url(#linearGradient-1)"></path>
            <path d="M41.0000023,20.5 C41.0000023,21.0580298 40.977577,21.6158345 40.932,22.172 L40.931,22.192 L18.706,26.243 L30.776,14.293 L30.779,14.291 L30.899,14.171 L30.902,14.168 C31.157,13.905 31.363,13.598 31.513,13.266 C31.7767608,12.682646 31.8559639,12.0326221 31.74,11.403 C31.4630332,9.89448958 30.1467227,8.80001971 28.613,8.803 L28.574,8.803 L27.51,8.997 L1.122,13.81 L1.114,13.833 L1.124,13.79 C1.124,13.783 1.128,13.775 1.13,13.768 C3.916,5.753 11.536,0 20.5,0 C31.822,0 41.0000023,9.178 41.0000023,20.5 Z" id="Path" fill="url(#linearGradient-2)"></path>
            <path d="M60.9574,28.165 L54.3293,28.165 L61.685,18.3848 C61.8447,18.18 61.9246,17.9128 61.9246,17.5476 C61.9246,16.7281 61.5164,16.3184 60.7001,16.3184 L51.8182,16.3184 C51.0019,16.3184 50.5938,16.7281 50.5938,17.5476 C50.5938,18.367 51.0019,18.7768 51.8182,18.7768 L58.4641,18.7768 L51.0906,28.5569 C50.9309,28.7618 50.8511,29.029 50.8511,29.3942 C50.8511,30.2137 51.2592,30.6234 52.0755,30.6234 L60.9574,30.6234 C61.7737,30.6234 62.1819,30.2137 62.1819,29.3942 C62.1819,28.5747 61.7737,28.165 60.9574,28.165 Z" id="Path" fill="#000000"></path>
            <path d="M74.8436,17.1203 C73.8676,16.5235 72.7052,16.2207 71.3565,16.2207 C69.9812,16.2207 68.7656,16.5325 67.7097,17.1471 C66.6538,17.7617 65.8198,18.6167 65.2253,19.7123 C64.6219,20.799 64.3291,22.0638 64.3291,23.489 C64.3291,24.9053 64.6485,26.1523 65.2785,27.2389 C65.9085,28.3256 66.7869,29.1807 67.9138,29.8042 C69.0318,30.4188 70.3184,30.7306 71.7558,30.7306 C72.5544,30.7306 73.3884,30.5792 74.2669,30.2852 C75.1453,29.9913 75.8817,29.6083 76.4674,29.1362 C76.7602,28.9135 76.9021,28.6374 76.8844,28.3256 C76.8666,28.0139 76.7069,27.7199 76.4141,27.4616 C76.1923,27.2657 75.9261,27.1766 75.6156,27.1855 C75.3139,27.1944 75.0299,27.2924 74.7726,27.4884 C74.4266,27.7467 73.9652,27.9783 73.4062,28.1831 C72.8383,28.388 72.2882,28.486 71.7558,28.486 C70.762,28.486 69.8925,28.2722 69.1205,27.8357 C68.3574,27.3993 67.7541,26.8114 67.3193,26.0543 C67.0265,25.5555 66.849,25.0032 66.7514,24.4065 L76.6448,24.4065 C76.9909,24.4065 77.2748,24.2996 77.5055,24.0769 C77.7273,23.8631 77.8427,23.587 77.8427,23.2574 C77.8427,21.8768 77.5854,20.6654 77.0707,19.6055 C76.5561,18.5544 75.8108,17.726 74.8436,17.1203 Z M68.81,19.1245 C69.5109,18.688 70.3627,18.4742 71.3476,18.4742 C72.2172,18.4742 72.9537,18.6791 73.5659,19.0799 C74.1693,19.4807 74.6395,20.0241 74.9767,20.7099 C75.2074,21.1998 75.3582,21.7343 75.4381,22.3222 L66.778,22.3222 C66.8668,21.8234 67.0087,21.3513 67.2128,20.9237 C67.5766,20.1577 68.109,19.5609 68.81,19.1245 Z" id="Shape" fill="#000000"></path>
            <path d="M91.5253,16.9595 C90.5759,16.4429 89.5022,16.1846 88.3044,16.1846 C87.1598,16.1846 86.1216,16.434 85.2077,16.9417 C84.7019,17.2178 84.2672,17.5563 83.8768,17.9393 L83.8768,17.6543 C83.8768,17.2534 83.7525,16.9328 83.513,16.6834 C83.2734,16.4429 82.9451,16.3182 82.5458,16.3182 C82.1643,16.3182 81.8448,16.4429 81.5964,16.6834 C81.3479,16.9239 81.2148,17.2534 81.2148,17.6543 L81.2148,29.3138 C81.2148,29.6969 81.3391,30.0175 81.5964,30.2669 C81.8448,30.5163 82.1643,30.6499 82.5458,30.6499 C82.9451,30.6499 83.2645,30.5252 83.513,30.2669 C83.7525,30.0175 83.8768,29.6969 83.8768,29.3138 L83.8768,21.9386 C83.8768,21.2973 84.0542,20.7273 84.4003,20.2285 C84.7463,19.7297 85.2166,19.3377 85.8111,19.0349 C86.4056,18.7409 87.0622,18.5895 87.7898,18.5895 C88.5883,18.5895 89.2982,18.7409 89.9104,19.0438 C90.5226,19.3466 91.0195,19.8187 91.3833,20.4422 C91.7471,21.0657 91.9335,21.8763 91.9335,22.8739 L91.9335,29.3049 C91.9335,29.6879 92.0577,30.0086 92.315,30.258 C92.5634,30.5074 92.8829,30.641 93.2644,30.641 C93.6459,30.641 93.9654,30.5163 94.2138,30.258 C94.4623,30.0086 94.5954,29.6879 94.5954,29.3049 L94.5954,22.8739 C94.5954,21.4309 94.3203,20.2106 93.779,19.213 C93.22,18.2332 92.4747,17.4761 91.5253,16.9595 Z" id="Path" fill="#000000"></path>
            <path d="M100.576,16.3271 C100.194,16.3271 99.8746,16.4518 99.6262,16.6923 C99.3777,16.9328 99.2446,17.2624 99.2446,17.6632 L99.2446,29.2961 C99.2446,29.6791 99.3689,29.9997 99.6262,30.2491 C99.8746,30.4986 100.194,30.6322 100.576,30.6322 C100.975,30.6322 101.294,30.5075 101.543,30.2491 C101.782,29.9997 101.907,29.6791 101.907,29.2961 L101.907,17.6543 C101.907,17.2535 101.782,16.9328 101.543,16.6834 C101.294,16.4429 100.975,16.3271 100.576,16.3271 Z" id="Path" fill="#000000"></path>
            <path d="M100.575,10.5469 C100.105,10.5469 99.7053,10.7161 99.3593,11.0546 C99.0221,11.3931 98.8535,11.8028 98.8535,12.266 C98.8535,12.7291 99.0221,13.1389 99.3593,13.4774 C99.6965,13.8158 100.105,13.9851 100.575,13.9851 C101.045,13.9851 101.444,13.8158 101.79,13.4774 C102.128,13.1389 102.296,12.7291 102.296,12.266 C102.296,11.8028 102.128,11.3931 101.79,11.0546 C101.453,10.7161 101.045,10.5469 100.575,10.5469 Z" id="Path" fill="#000000"></path>
            <path d="M112.572,22.5179 L117.354,18.2335 C117.611,17.9931 117.753,17.708 117.771,17.3963 C117.789,17.0845 117.674,16.7906 117.434,16.5323 C117.212,16.274 116.937,16.1314 116.618,16.1136 C116.298,16.0958 116.005,16.2116 115.748,16.4521 L109.422,22.126 L109.422,11.4819 C109.422,11.0988 109.306,10.7871 109.067,10.5555 C108.836,10.3239 108.525,10.1992 108.144,10.1992 C107.762,10.1992 107.452,10.315 107.221,10.5555 C106.99,10.7871 106.866,11.0988 106.866,11.4819 L106.866,29.3409 C106.866,29.7239 106.982,30.0356 107.221,30.2672 C107.452,30.4988 107.762,30.6235 108.144,30.6235 C108.525,30.6235 108.836,30.5077 109.067,30.2672 C109.297,30.0356 109.422,29.7239 109.422,29.3409 L109.422,25.3415 L110.717,24.1836 L115.668,30.3385 C115.89,30.6146 116.174,30.766 116.511,30.7928 C116.848,30.8195 117.159,30.7215 117.434,30.4899 C117.727,30.2494 117.886,29.9644 117.913,29.6437 C117.94,29.3231 117.842,29.0202 117.611,28.7441 L112.572,22.5179 Z" id="Path" fill="#000000"></path>
            <path d="M133.051,19.7747 C132.421,18.6791 131.56,17.8062 130.486,17.1738 C129.413,16.5414 128.197,16.2207 126.839,16.2207 C125.482,16.2207 124.266,16.5414 123.184,17.1738 C122.101,17.8062 121.241,18.6791 120.602,19.7747 C119.972,20.8703 119.652,22.1084 119.652,23.489 C119.652,24.8696 119.945,26.0988 120.522,27.1855 C121.108,28.2722 121.897,29.1362 122.909,29.7775 C123.911,30.4099 125.056,30.7306 126.325,30.7306 C127.594,30.7306 128.729,30.4099 129.741,29.7775 C130.362,29.3856 130.894,28.9046 131.356,28.3434 L131.356,29.3143 C131.356,29.6973 131.48,30.018 131.737,30.2674 C131.986,30.5168 132.305,30.6504 132.687,30.6504 C133.068,30.6504 133.388,30.5257 133.636,30.2674 C133.885,30.018 134.018,29.6973 134.018,29.3143 L134.018,23.4801 C134,22.1084 133.681,20.8703 133.051,19.7747 Z M129.209,27.7378 C128.516,28.1653 127.727,28.3791 126.839,28.3791 C125.97,28.3791 125.189,28.1653 124.479,27.7378 C123.778,27.3102 123.219,26.7312 122.811,25.983 C122.403,25.2437 122.199,24.4065 122.199,23.489 C122.199,22.5448 122.403,21.7076 122.811,20.9683 C123.219,20.229 123.778,19.6411 124.479,19.2135 C125.18,18.786 125.97,18.5722 126.839,18.5722 C127.727,18.5722 128.516,18.786 129.209,19.2135 C129.901,19.6411 130.451,20.229 130.85,20.9683 C131.249,21.7076 131.453,22.5537 131.453,23.489 C131.453,24.4154 131.249,25.2437 130.85,25.983 C130.442,26.7223 129.901,27.3102 129.209,27.7378 Z" id="Shape" fill="#000000"></path>
        </g>
    </g>
</svg>