<?xml version="1.0" encoding="UTF-8"?><svg id="Layer_2" xmlns="http://www.w3.org/2000/svg" viewBox="0 0 1546.88 510.49"><g id="Layer_1-2"><path d="M0,510.49V11.17h192.05c91.48,0,160.62,39.11,160.62,143.86s-69.14,144.56-160.62,144.56H50.98v210.9H0ZM50.98,55.87v199.03h145.96c67.04,0,102.66-31.43,102.66-99.86s-35.62-99.17-102.66-99.17H50.98Z" stroke-width="0"/><path d="M421.08,510.49V11.17h192.05c91.48,0,160.62,39.11,160.62,143.86s-69.14,144.56-160.62,144.56h-141.07v210.9h-50.98ZM472.06,55.87v199.03h145.96c67.04,0,102.66-31.43,102.66-99.86s-35.62-99.17-102.66-99.17h-145.96Z" stroke-width="0"/><path d="M836.47,155.03C836.47,65.65,905.61,0,992.21,0s155.03,65.65,155.03,155.03-69.14,155.73-155.03,155.73-155.73-65.64-155.73-155.73Z" stroke-width="0"/><path d="M1264.05,232.55h232.55v44.7h-232.55v233.25h-50.98V11.17h333.81v44.69h-282.83v176.68Z" stroke-width="0"/></g></svg>