<?xml version="1.0" encoding="UTF-8"?>
<svg width="296px" height="77px" viewBox="0 0 296 77" version="1.1" xmlns="http://www.w3.org/2000/svg" xmlns:xlink="http://www.w3.org/1999/xlink">
    <title>Group</title>
    <defs>
        <polygon id="path-1" points="0 0 55.462 0 55.462 75.81 0 75.81"></polygon>
        <polygon id="path-3" points="0 0 126.853 0 126.853 49.121 0 49.121"></polygon>
        <polygon id="path-5" points="0 0 94.845 0 94.845 17.363 0 17.363"></polygon>
        <polygon id="path-7" points="0 0 42.041 0 42.041 27.403 0 27.403"></polygon>
    </defs>
    <g id="Page-1" stroke="none" stroke-width="1" fill="none" fill-rule="evenodd">
        <g id="Group" transform="translate(0.000000, -0.000000)">
            <g id="Group-4">
                <mask id="mask-2" fill="white">
                    <use xlink:href="#path-1"></use>
                </mask>
                <g id="Clip-2"></g>
                <polyline id="Fill-1" fill="#FACC38" mask="url(#mask-2)" points="20.783 3.049 3.69 20.394 20.783 20.394 20.783 3.049"></polyline>
                <polyline id="Fill-3" fill="#FACC38" mask="url(#mask-2)" points="27.681 -0.001 27.681 27.293 -0.06 27.293 -0.06 75.81 55.462 75.81 55.462 -0.001 27.681 -0.001"></polyline>
            </g>
            <path d="M88.235,44.544 C81.153,44.544 75.487,38.879 75.487,31.124 C75.487,23.301 81.153,17.633 88.943,17.633 C93.901,17.633 96.025,19.05 98.857,21.882 L94.608,26.84 C92.484,24.716 90.998,24.008 88.943,24.008 C85.401,24.008 82.57,26.84 82.57,31.089 C82.57,34.95 84.942,38.171 88.943,38.171 C91.351,38.171 92.484,37.464 93.901,36.045 L93.901,33.923 L88.943,33.923 L89.652,28.257 L100.981,28.257 L100.981,37.464 C98.15,41.713 94.963,44.544 88.235,44.544" id="Fill-5" fill="#000000"></path>
            <path d="M110.373,36.223 L110.373,43.836 L103.998,43.836 L103.998,27.549 L110.373,27.549 L110.373,29.495 L110.444,29.495 C111.79,27.371 113.914,27.016 116.039,27.016 L116.039,33.391 C112.497,31.622 110.373,34.099 110.373,36.223" id="Fill-6" fill="#000000"></path>
            <path d="M127.371,31.798 C125.601,31.798 124.894,32.505 124.539,33.922 L130.205,33.922 C129.85,32.505 129.141,31.798 127.371,31.798 M124.539,37.286 C124.714,38.526 125.954,39.588 127.371,39.588 C128.788,39.588 129.495,39.233 130.559,38.171 L135.516,40.65 C133.391,43.129 130.912,44.367 127.371,44.367 C121.352,44.367 117.811,40.65 117.811,35.694 C117.811,30.736 121.352,27.017 127.371,27.017 C131.974,27.017 136.578,29.673 136.578,37.286 L124.539,37.286" id="Fill-7" fill="#000000"></path>
            <path d="M150.038,43.835 L150.038,35.161 C150.038,33.744 149.508,32.681 147.914,32.681 C146.322,32.681 145.789,33.744 145.789,35.161 L145.789,43.835 L139.416,43.835 L139.416,27.548 L145.789,27.548 L145.789,29.495 L145.861,29.495 C147.206,27.725 148.976,27.018 151.101,27.018 C154.996,27.018 156.411,29.495 156.411,32.681 L156.411,43.835 L150.038,43.835" id="Fill-8" fill="#000000"></path>
            <path d="M159.781,43.835 L166.154,43.835 L166.154,27.548 L159.781,27.548 L159.781,43.835 Z M159.781,24.007 L166.154,24.007 L166.154,18.341 L159.781,18.341 L159.781,24.007 Z" id="Fill-9" fill="#000000"></path>
            <path d="M178.55,31.798 C176.781,31.798 176.074,32.505 175.719,33.922 L181.384,33.922 C181.03,32.505 180.32,31.798 178.55,31.798 M175.719,37.286 C175.894,38.526 177.133,39.588 178.55,39.588 C179.967,39.588 180.675,39.233 181.737,38.171 L186.696,40.65 C184.571,43.129 182.092,44.367 178.55,44.367 C172.533,44.367 168.991,40.65 168.991,35.694 C168.991,30.736 172.533,27.017 178.55,27.017 C183.154,27.017 187.757,29.673 187.757,37.286 L175.719,37.286" id="Fill-10" fill="#000000"></path>
            <g id="Group-15" transform="translate(75.782000, 27.016000)">
                <mask id="mask-4" fill="white">
                    <use xlink:href="#path-3"></use>
                </mask>
                <g id="Clip-12"></g>
                <path d="M121.187,9.207 L121.187,16.82 L114.814,16.82 L114.814,0.533 L121.187,0.533 L121.187,2.479 L121.258,2.479 C122.604,0.355 124.729,0 126.853,0 L126.853,6.375 C123.312,4.606 121.187,7.083 121.187,9.207" id="Fill-11" fill="#000000" mask="url(#mask-4)"></path>
                <path d="M8.903,36.211 C6.967,36.211 5.031,37.759 5.031,40.468 C5.031,43.178 6.967,44.727 8.903,44.727 C11.227,44.727 12.968,43.178 12.968,40.468 C12.968,37.759 11.227,36.211 8.903,36.211 M12.968,48.598 L12.968,47.05 L12.89,47.05 C11.613,48.598 9.677,49.181 7.353,49.181 C3.484,49.181 0,45.888 0,40.468 C0,35.049 3.484,31.758 7.353,31.758 C9.677,31.758 11.613,32.339 12.89,33.889 L12.968,33.889 L12.968,32.339 L17.809,32.339 L17.809,48.598 L12.968,48.598" id="Fill-13" fill="#000000" mask="url(#mask-4)"></path>
                <path d="M33.484,48.598 L33.484,47.05 L33.406,47.05 C32.129,48.598 30.192,49.179 28.181,49.179 C24.387,49.179 22.256,47.05 22.256,42.79 L22.256,32.339 L27.095,32.339 L27.095,41.242 C27.095,43.566 27.871,44.726 30.192,44.726 C32.129,44.726 33.484,43.178 33.484,41.242 L33.484,32.339 L38.322,32.339 L38.322,48.598 L33.484,48.598" id="Fill-14" fill="#000000" mask="url(#mask-4)"></path>
            </g>
            <polyline id="Fill-16" fill="#000000" points="127.653 59.354 125.136 63.265 122.621 59.354 117.588 59.354 122.544 67.33 117.202 75.613 122.621 75.613 125.136 71.55 127.653 75.613 133.073 75.613 127.73 67.33 132.687 59.354 127.653 59.354"></polyline>
            <g id="Group-23" transform="translate(145.848000, 58.774000)">
                <mask id="mask-6" fill="white">
                    <use xlink:href="#path-5"></use>
                </mask>
                <g id="Clip-18"></g>
                <path d="M11.228,16.84 L11.228,7.936 C11.228,5.615 10.453,4.453 8.13,4.453 C6.196,4.453 4.839,6.001 4.839,7.936 L4.839,16.84 L0,16.84 L0,0.581 L4.839,0.581 L4.839,2.129 L4.916,2.129 C6.196,0.581 8.13,0 10.143,0 C13.938,0 16.066,2.129 16.066,6.386 L16.066,16.84 L11.228,16.84" id="Fill-17" fill="#000000" mask="url(#mask-6)"></path>
                <path d="M28.454,4.064 C26.133,4.064 24.387,6.001 24.387,8.673 C24.387,11.42 26.133,13.356 28.454,13.356 C30.775,13.356 32.519,11.42 32.519,8.71 C32.519,6.001 30.775,4.064 28.454,4.064 M28.454,17.423 C23.034,17.423 19.549,13.744 19.549,8.71 C19.549,3.678 23.034,0 28.454,0 C33.874,0 37.357,3.678 37.357,8.71 C37.357,13.744 33.874,17.423 28.454,17.423" id="Fill-19" fill="#000000" mask="url(#mask-6)"></path>
                <path d="M52.067,16.84 L52.067,15.292 L51.989,15.292 C50.713,16.84 48.776,17.421 46.766,17.421 C42.971,17.421 40.84,15.292 40.84,11.032 L40.84,0.581 L45.679,0.581 L45.679,9.484 C45.679,11.808 46.455,12.968 48.776,12.968 C50.713,12.968 52.067,11.42 52.067,9.484 L52.067,0.581 L56.906,0.581 L56.906,16.84 L52.067,16.84" id="Fill-20" fill="#000000" mask="url(#mask-6)"></path>
                <polyline id="Fill-21" fill="#000000" mask="url(#mask-6)" points="70.842 0.58 67.591 11.226 67.514 11.226 64.261 0.58 59.229 0.58 65.036 16.839 70.07 16.839 75.876 0.58 70.842 0.58"></polyline>
                <path d="M86.135,4.064 C83.811,4.064 82.65,5.615 82.263,7.163 L90.004,7.163 C89.618,5.615 88.456,4.064 86.135,4.064 M82.263,10.26 C82.65,12.194 84.198,13.744 86.135,13.744 C88.068,13.744 89.23,13.356 90.665,11.808 L94.304,13.704 C92.328,16.454 90.004,17.423 86.135,17.423 C80.715,17.423 77.231,13.744 77.231,8.711 C77.231,3.678 80.715,0 86.135,0 C91.206,0 94.845,3.87 94.845,8.325 L94.845,10.26 L82.263,10.26" id="Fill-22" fill="#000000" mask="url(#mask-6)"></path>
            </g>
            <polygon id="Fill-24" fill="#000000" points="243.907 75.613 248.747 75.613 248.747 48.734 243.907 48.734"></polygon>
            <g id="Group-29" transform="translate(253.391000, 48.734000)">
                <mask id="mask-8" fill="white">
                    <use xlink:href="#path-7"></use>
                </mask>
                <g id="Clip-26"></g>
                <polygon id="Fill-25" fill="#000000" mask="url(#mask-8)" points="0 26.879 4.839 26.879 4.839 0 0 0"></polygon>
                <path d="M17.421,14.104 C15.097,14.104 13.937,15.655 13.549,17.203 L21.292,17.203 C20.904,15.655 19.742,14.104 17.421,14.104 M13.549,20.3 C13.937,22.234 15.484,23.784 17.421,23.784 C19.356,23.784 20.517,23.396 21.951,21.848 L25.59,23.744 C23.614,26.494 21.292,27.463 17.421,27.463 C12.001,27.463 8.515,23.784 8.515,18.751 C8.515,13.718 12.001,10.04 17.421,10.04 C22.492,10.04 26.131,13.91 26.131,18.365 L26.131,20.3 L13.549,20.3" id="Fill-27" fill="#000000" mask="url(#mask-8)"></path>
                <path d="M35.11,27.462 C32.323,27.462 30.31,26.144 28.84,24.83 L30.929,21.692 C31.976,22.739 33.716,23.783 35.11,23.783 C36.543,23.783 37.199,23.28 37.199,22.39 C37.199,19.6 29.611,20.61 29.611,14.684 C29.611,11.549 32.323,10.039 35.459,10.039 C38.246,10.039 39.987,10.543 41.73,11.937 L39.642,14.724 C38.595,14.026 37.199,13.525 35.807,13.525 C34.955,13.525 34.066,13.677 34.066,14.724 C34.066,16.815 42.041,16.467 42.041,22.39 C42.041,26.338 38.942,27.462 35.11,27.462" id="Fill-28" fill="#000000" mask="url(#mask-8)"></path>
            </g>
        </g>
    </g>
</svg>