<svg xmlns="http://www.w3.org/2000/svg" viewBox="0 0 3000.3 1215.02"><path d="M568.2.52c-29.1,4-49,21.9-53.9,48.5-1.4,7.5-1.5,10.4-.5,17.8,2.7,21.5,14.4,34.7,43.2,48.5,48,23,50.8,24.7,56,34.8,2.2,4.4,2.5,6.1,2.5,16.4,0,10.8-.2,11.9-3.1,18.1-4.4,9.3-9.3,14.2-18.2,18.7-7.6,3.7-7.7,3.7-20.2,3.7s-12.6,0-20.2-3.8c-4.9-2.4-9-5.3-11.4-8-4.6-5.3-10-16.3-11.4-23.4-.7-3.3-1.6-5.3-2.3-5s-6.9,1.9-13.9,3.8c-10.5,2.8-12.8,3.7-12.8,5.2,0,1,1.2,5.3,2.6,9.5,11.4,34.1,36.9,51.6,72.3,49.9,13.6-.7,20.6-2.4,32.1-7.9,6.9-3.3,10-5.7,17-12.7,13.8-13.8,20-29.2,20-49.2,0-19-4.6-30.7-16.9-42.8-9.3-9.3-16.1-13.2-46.2-26.6-24.8-11.1-32.2-15.8-37-23.3-2.5-4-2.9-5.5-2.9-12.2,0-10.5,2.1-16.3,8.5-22.6,7.1-7.2,14-9.7,26.5-9.7,15.8,0,23.9,4.3,32.5,17.3,2.6,3.9,4.9,7,5.3,7,1.6,0,22.2-14.4,22.2-15.5,0-2.6-8.3-13.5-15.2-20.1a58.17,58.17,0,0,0-26.4-14.8A92.09,92.09,0,0,0,568.2.52Z"/><path d="M2922.8.52c-30.4,3.7-51.1,23.3-54.7,51.7-1.6,12.5.7,25.4,6.1,34.2,3.4,5.6,12.7,14.9,19.3,19.4,3.3,2.3,15.2,8.5,26.5,13.8s23.8,11.3,27.9,13.3c18.4,9.4,25.7,23.5,21.7,42.4-1.9,9.2-5.7,16.2-11.8,21.7-9,8.1-18.7,11-33.4,10.3-11.3-.6-19.5-4.1-26.7-11.2-5.4-5.5-11.4-17-12.3-24-.4-2.6-1-4.8-1.4-5.1-.9-.5-26.2,6.4-27.4,7.6-1.6,1.5,5.2,20.2,10.4,28.6,8.9,14.3,20.9,23.9,36.5,29,7.1,2.4,9.6,2.7,23,2.7,12.8.1,16.1-.2,23-2.2,31.7-9.2,50.7-34.6,50.8-68.2,0-17.5-4.3-28.8-15.7-40.8-9-9.6-18.2-14.9-49.4-28.6-20.9-9.2-25-11.5-31.2-17.7-6-6-7.4-10-6.8-19.9.6-9.7,4.2-16.7,11.4-22.2,7-5.4,13.1-7.2,23.9-7.1,15.3.1,25.3,5.6,33.1,18.4,2,3.2,3.9,5.9,4.2,5.9.7,0,19-11.8,21.4-13.8,1.5-1.3,1.5-1.6-.5-5-6.6-11.5-18.5-22.8-29.2-27.8C2951.1,1.12,2935.7-1.08,2922.8.52Z"/><path d="M0,118.52v116H112v-24H31V2.52H0Z"/><path d="M248,118.52v116l61.3-.2,61.2-.3V210l-46.2-.3-46.3-.2v-80h83v-24H278v-78l46.3-.2,46.2-.3V3l-61.2-.3L248,2.52Z"/><path d="M986.5,3.72c-.3.7-.4,52.8-.3,115.8l.3,114.5,15.2.3,15.3.3.2-83.8.3-83.7,38.5,83.4,38.5,83.5,10,.3,10,.3,37.8-82.3c20.8-45.3,38.2-83,38.7-83.8.6-1,1,29.1,1,82.2v83.8h31V2.52h-31.5l-42.9,93.7c-23.6,51.6-43.1,94.1-43.5,94.5s-11.4-22.8-24.5-51.5-32.7-71.2-43.4-94.5l-19.4-42.2h-15.4C990.9,2.52,986.8,2.82,986.5,3.72Z"/><path d="M1446.9,5.22c-2.7,7.1-82.3,226-82.7,227.5-.4,1.7.8,1.8,15.2,1.8,8.6,0,15.6-.1,15.6-.3s4-11.5,8.9-25.2l8.9-25,51.4-.3,51.4-.2,8.9,25.2,9,25.3,15.8.3c8.6.1,15.7,0,15.7-.4,0-.7-80.5-223.1-82.6-228.2l-1.3-3.2H1448Zm38.5,94.3c11.3,31.6,20.6,58,20.6,58.7,0,1-8.3,1.3-42,1.3-23.1,0-42-.2-42-.4,0-.4,39-109.7,41.2-115.5.4-1.3,1-2.2,1.3-2S1474.1,67.92,1485.4,99.52Z"/><path d="M1703.3,86.22c.3,83,.3,83.9,2.5,92.2,6.1,22.8,19.1,38.4,40.8,48.7,15,7.2,23.7,8.9,44.9,8.8,15-.1,19.3-.4,25.7-2.2,18.1-4.9,28-10.5,39.9-22.2,9.7-9.6,15.1-19.1,19.1-33.5,2.2-7.9,2.2-8.8,2.6-91.8l.3-83.7H1848v80.2c0,88.2,0,88.3-6.1,100.6-5.8,11.9-19.1,21.7-33.6,24.7-8.7,1.9-25.9,1.9-34.6,0-12.5-2.6-25.2-11-31.2-20.5a84.88,84.88,0,0,1-5.3-11.7l-2.7-7.8-.3-82.8-.3-82.7h-31Z"/><path d="M2012.1,5.22c.5,1.6,20.6,53.8,44.6,116.1l43.6,113.2,16.5-.2,16.5-.3,44.3-115C2202,55.72,2222,3.72,2222,3.22s-7.3-.6-16.2-.5l-16.3.3-36.5,98.9-36.5,98.8-1.6-3.8c-.9-2.2-17.3-46.8-36.4-99.2l-34.8-95.2H2011Z"/><path d="M2417.1,4.72c-4.9,13.1-83.1,228.7-83.1,229.2s7,.5,15.6.4l15.6-.3,7.4-21c4.1-11.6,8.1-22.9,9-25.3l1.6-4.2h102.5l8.9,25.2,9,25.3,15.7.3c8.6.1,15.7-.1,15.7-.5s-18.8-52.6-41.7-116L2451.5,2.52h-16.8C2418.2,2.52,2417.9,2.52,2417.1,4.72Zm38.8,95.9,20.9,58.4-42,.3c-23.2.1-42.3.1-42.5-.1s34.1-97.4,41.2-116.6c.3-.8.8-1.2,1-.9s9.9,26.7,21.4,58.9Z"/><path d="M2686,118.52v116.1l15.3-.3,15.2-.3V3l-15.2-.3L2686,2.4Z"/><path d="M498.5,464.62c-48.5,7.1-85.4,40.2-97.1,87.4-3.4,13.5-4.3,34.9-2,48.7,9.6,58.3,56.2,97.8,115.6,98.1,24,.1,42.9-5.2,61-17.2,7.5-4.9,20.3-17.3,25.5-24.6,12.4-17.5,19.9-41.1,21.2-66.7l.6-11.8H524.9l.3,13.7.3,13.8,32.9.3,32.9.2-.6,5.3c-2,16.5-12.7,33.9-27.2,44.3-24.5,17.4-56.9,19.9-85.2,6.4-11.6-5.5-18.7-10.6-26.9-19.3-15.8-16.5-23.4-36.5-23.4-61.2,0-42.8,23.3-75.2,62.7-87.2,7.9-2.4,10.4-2.6,25.3-2.7,12.9-.1,17.9.3,23,1.7a94.39,94.39,0,0,1,27.4,13.1c6.7,4.8,18.1,16.3,22.2,22.6,1.5,2.2,3,4,3.5,4,1.3,0,20.9-18.1,20.9-19.3,0-1.7-11-14.5-17.9-20.9-21.8-19.9-48.6-30-79-29.7C509.7,463.72,501.8,464.12,498.5,464.62Z"/><path d="M1490.5,464.62c-51.1,7.5-89.6,44.8-98.6,95.9-3.4,19.3-.7,46.3,6.6,65.2a114.59,114.59,0,0,0,87.1,71.1l7.9,1.3.3,22.7.2,22.7h30l.2-22.7.3-22.8,5-.7c15.3-2.2,34.6-10.2,47.4-19.8,7.6-5.7,23.2-21.1,26.7-26.5l1.8-2.8-10.4-9.8-10.5-9.9-2,2.4c-1.1,1.2-4.5,5.3-7.5,9-10.9,13.4-27.7,24.5-43.9,28.8-11.1,3-32.3,3-44.4,0-49.1-12.1-76.4-60.7-63.3-112.5,7.4-29.3,28.1-51.3,56.6-60.5,19.3-6.2,44.5-5.6,61.5,1.5,13.3,5.5,29.9,19.2,39,32,1.7,2.4,3.2,4.3,3.5,4.3.8,0,20.4-18,20.8-19.1.5-1.4-9.9-13.8-17-20.4-22.2-20.5-48.8-30.7-79.7-30.4C1501.7,463.72,1493.8,464.12,1490.5,464.62Z"/><path d="M1846.7,464.62a116.73,116.73,0,0,0-68.3,35.1c-21.2,22.2-32.4,50.2-32.4,81.3,0,66.3,51.3,117.6,118,117.8,21,0,38.2-4.1,56.7-13.7,20.4-10.6,39.1-29.5,49.5-50.1,9.8-19.2,14.4-44.9,11.9-66.2-3.2-27.8-14.5-51.6-33.1-70.4-10.1-10.1-18.3-16.1-30.5-22.2C1897,465.52,1870.2,461.22,1846.7,464.62Zm41.1,29.8c39.9,11.6,67.3,50.3,64.8,91.6-2.3,39.7-29.1,72.7-67.1,82.6-10.7,2.8-28.8,3-39.8.5-34.7-7.9-61.1-35.2-68.2-70.5-2.1-10.2-1.6-31.2,1-40.6,2.5-9.1,10.7-25.2,16.9-33.2,12.4-15.8,31.5-27.6,51.6-31.9,9.7-2,31.4-1.2,40.8,1.5Z"/><path d="M2508.5,465c-24.5,5.4-41.3,20.8-47,43-2.2,8.6-2,23.8.5,31.6,3.5,11.6,11.4,21.3,24,29.9,3.5,2.4,17.4,9.5,30.8,15.7,32.3,15,38.7,19.4,43.3,29.7,5.8,13.4,1.6,33.9-9.2,44.7-15.6,15.6-47.7,15.2-62-.9-5-5.7-10.6-16.8-11.5-23.1a38.18,38.18,0,0,0-1-5.2c-.3-.6-27.2,6.6-28.2,7.5-1.1,1.2,6.1,20.7,10.4,28,11.1,19,28.5,29.9,51.6,32.5,24,2.7,46.6-4.6,61.8-19.9,12.3-12.4,18-24.5,20.1-42.6,2.1-18.3-2.8-35-14.1-47.6-7.7-8.7-19.6-15.9-43-26.3-27.5-12.2-31.1-14.1-37.2-19.4-6.3-5.6-8.7-10.7-8.8-18.7,0-8.9,2.3-15.4,7.6-21.3,6.6-7.3,13.3-10.3,24.8-10.9,16.2-.8,25.9,3.6,34.5,15.8a91.72,91.72,0,0,1,5.3,8.2c.2.6,5.7-2.4,12.1-6.7l11.7-7.8-2.8-5.1c-1.5-2.8-6.5-9-11.2-13.7-9.7-9.8-18.6-14.9-30.5-17.4C2531.9,463.22,2516.6,463.22,2508.5,465Z"/><path d="M793.7,579.72c-22.8,62.9-41.9,115.1-42.2,116.1-.7,1.6.3,1.7,15.1,1.5l15.9-.3,7.2-20.5c4-11.3,8-22.4,8.9-24.8l1.6-4.2,51.5.2,51.5.3,8.7,24.5,8.7,24.5,15.8.3c14.8.2,15.8.1,15.4-1.5-.9-3.2-82-226.8-82.9-228.6-.9-1.5-2.8-1.7-17.3-1.7H835.3Zm79.3-16L893.8,622l-20.8.3c-11.5.1-30.5.1-42.3,0l-21.4-.3,21-58.8c11.6-32.3,21.2-58.5,21.4-58.3S861.5,531.62,873,563.72Z"/><path d="M1093.7,466.22c-.4.3-.7,52.5-.7,116v115.3h31v-95h29.7l30.2,47.5,30.2,47.5h19c10.4,0,18.9-.2,18.9-.5s-14.1-22-31.4-48.2l-31.4-47.7,9-2.3c30.8-7.7,48.9-30,50.5-62.2,1-20.9-4.3-35-18.6-49.1-13.4-13.3-27.3-19-51.1-21C1166,465.42,1094.7,465.12,1093.7,466.22Zm94.7,26.7c17.2,4.8,26.2,15.2,28.8,33.3,2.8,19.2-4.2,36.8-17.8,44.8-9.3,5.5-16.9,6.5-47.6,6.5H1124v-87.2l29.3.5c23.1.3,30.4.8,35.1,2.1Z"/><path d="M2125.7,466.22c-.4.3-.7,52.5-.7,116v115.3h31l.2-91.1.3-91.2,60.8,91.2,60.7,91.1h31l-.2-115.8-.3-115.7-15.2-.3-15.3-.3V649l-61.2-91.8-61.1-91.7H2141C2132.9,465.52,2126,465.82,2125.7,466.22Z"/><path d="M433,1104.32c-22.7,5.9-36.2,27-34.7,54.1a77.41,77.41,0,0,0,2.6,16.2c6,18.8,21.8,31.3,41.3,32.6,17.6,1.3,33.2-5.5,40.9-17.6a28.18,28.18,0,0,0,2.9-5.2c0-.4-3.4-2.9-7.6-5.5-7.2-4.5-7.7-4.6-8.7-2.8-3.2,5.7-11.8,10.9-20,12-10.9,1.5-21.9-5-26.8-15.8-2.1-4.6-2.4-6.8-2.4-17.3s.3-12.7,2.3-17c4.9-10.6,12.8-15.9,23.7-16,9.6,0,17.6,4,22.9,11.6l1.5,2.2,5.3-3.2c2.9-1.8,6.4-4.1,7.7-5l2.4-1.9-2.6-4.5C475,1106.32,453.1,1099.12,433,1104.32Z"/><path d="M2254.5,1103.52c-24.6,5.1-40.5,25.3-40.5,51.4,0,16,4.5,27.2,14.9,37.7,15.5,15.4,37.9,19.2,59,9.8l4.5-2,7.3,7.3,7.3,7.3,6.5-6.5,6.5-6.5-6.8-6.8-6.9-6.9,4.2-8.2c18.6-36.1-6.2-78.2-45.8-77.5A83.09,83.09,0,0,0,2254.5,1103.52Zm24.3,22.1c11,5.5,16.6,15.2,16.7,28.9,0,8-2.4,18-4.3,18-.4,0-4.6-3.9-9.4-8.7l-8.8-8.8-6.5,6.5-6.5,6.5,8.6,8.6c8.6,8.6,8.6,8.7,6.3,10-1.3.7-5.5,1.2-9.4,1.2-11.9,0-21.5-5.9-27.3-16.8-2.5-4.5-2.7-6-2.7-16s.2-11.5,2.7-16c5.9-11.1,14.7-16.4,26.9-16.5C2271.6,1122.52,2273.6,1122.92,2278.8,1125.62Z"/><path d="M549.2,1140.22c.3,35.6.4,37,2.6,42.4,4.5,11.1,11,17.7,22.1,22.1,4.6,1.8,7.5,2.2,17.1,2.2s12.4-.4,17.5-2.4c8.2-3.2,17.3-12.3,20.6-20.5,2.3-5.9,2.4-6.6,2.7-43.3l.3-37.3-10.3.3-10.3.3-.5,35.5c-.5,39-.5,38.9-7,44.3-9.2,7.8-24.7,5.2-30.8-5.1l-2.7-4.7-.5-35-.5-35-10.3-.3-10.3-.3Z"/><path d="M696.5,1104.72c-.3.7-.4,23.8-.3,51.3l.3,50,35.3.3,35.2.2v-20H718l-.2-41.3-.3-41.2-10.3-.3C699.6,1103.52,696.8,1103.82,696.5,1104.72Z"/><path d="M806,1113v9.5h28v84.1l9.8-.3,9.7-.3.3-41.8.2-41.7h28v-19H806Z"/><path d="M938,1138.22c0,36.8.4,40.3,4.9,49.1,7,13.7,22.1,21.1,40.6,19.9,18.8-1.2,31.4-11.3,36.1-29,1-3.9,1.4-13.7,1.4-40v-34.8l-10.2.3-10.3.3-.5,35.6-.5,35.6-2.8,4.2c-4.9,7.4-13.6,10.6-22.6,8.2-5.9-1.6-9.7-4.5-12.4-9.4-2.1-4.1-2.2-5.4-2.7-39.2l-.5-35-10.2-.3-10.3-.3Z"/><path d="M1085.5,1104.72c-.3.7-.4,23.8-.3,51.3l.3,50h19l.3-18.8.2-18.8,6.2.3,6.1.3,10.7,18.5,10.7,18.5,10.2.3c7.2.2,10.1-.1,10.1-.9,0-.6-4.9-9.8-11-20.4s-11-19.5-11-19.8,1.7-1.5,3.8-2.6c9.3-4.8,15.3-14.9,15.5-26,.2-17.1-10.2-29.3-27.4-32.1C1119.4,1103,1086.1,1103.22,1085.5,1104.72Zm42.9,19.2c5.1,2.1,7.6,6,7.6,11.8,0,10.8-4.4,14-20.2,14.6l-10.8.4v-28.2h10c6.3,0,11.3.48,13.4,1.4Z"/><path d="M1217,1155v51.5h69v-19h-49v-24h41v-18h-41v-23h48.1l-.3-9.3-.3-9.2-33.7-.3-33.8-.2Z"/><path d="M1424.5,1104.62c-.3.8-.4,23.9-.3,51.4l.3,50,22-.1c18.1,0,23.1-.3,28-1.8,23.1-6.9,34.4-23.2,34.5-49.6,0-25.4-12.1-42.3-34.7-48.6C1466.1,1103.62,1425.3,1102.62,1424.5,1104.62Zm47.1,20.8c10.4,4.6,16.3,13.5,17.1,26.2,1.1,15-4.9,26.9-16.2,32.5-4.6,2.2-7.3,2.7-16.5,3.2l-11,.5v-65.6l10.8.5C1463.9,1123.12,1467.9,1123.82,1471.6,1125.42Z"/><path d="M1569,1155v51.5h69v-19h-50v-24l20.8-.2,20.7-.3.3-8.8.3-8.7H1588v-23l24.3-.2,24.2-.3v-18l-33.7-.3-33.8-.2Z"/><path d="M1776.5,1104.72c-.3.7-.4,23.8-.3,51.3l.3,50h19l.5-34.5.5-34.5,11.7,30,11.7,30,9.5.3c8.3.2,9.6,0,10.4-1.5.6-1,5.8-14.2,11.7-29.3s11.1-27.9,11.6-28.4.9,12.5.9,33.7v34.7h19v-103h-25.8l-4.1,10.7c-18.6,48-22.7,58.3-23.2,58.3-.3,0-6.7-15.4-14.1-34.3l-13.4-34.2-12.7-.3C1780.1,1103.52,1776.8,1103.82,1776.5,1104.72Z"/><path d="M1972.5,1104.52c-.7,1.1-34.5,100.6-34.5,101.5,0,.3,4.7.5,10.4.5h10.5l3.8-11.5,3.7-11.5,19.1.2,19,.3,3.5,11,3.6,11,10.2.3c9.2.2,10.2.1,10.1-1.5,0-1-7.5-24.1-16.7-51.3l-16.7-49.5-12.7-.3C1977.5,1103.52,1972.9,1103.82,1972.5,1104.52Zm20,41c3.6,11,6.5,20.2,6.5,20.5s-6.1.5-13.5.5-13.5-.3-13.5-.7c0-.7,10.7-34.3,12.1-38a5.44,5.44,0,0,1,1.3-2.3C1985.7,1125.52,1988.9,1134.52,1992.5,1145.52Z"/><path d="M2087.5,1104.62c-.3.8-.4,23.9-.3,51.4l.3,50h19l.3-18.8.2-18.8,6.2.3,6.2.3,10.7,18.5,10.7,18.5,10.1.3c7.2.2,10.1-.1,10.1-.9,0-.6-4.9-9.8-11-20.4s-11-19.5-11-19.8,1.7-1.5,3.8-2.6c11.4-5.9,17.8-19.9,15.1-32.9-1.6-7.9-4-12.2-9.8-17.4-7.9-7.1-11.9-8-37.8-8.6C2092.1,1103.42,2087.9,1103.52,2087.5,1104.62Zm43.4,19.7c4.9,2.4,7.3,6.1,7.3,11.3.2,10.7-5.8,14.8-21.4,14.9H2107v-28h10.3C2125,1122.52,2128.3,1122.92,2130.9,1124.32Z"/><path d="M2376.2,1140.22c.3,35.6.4,37,2.6,42.4,4.5,11.1,11,17.7,22.1,22.1,4.6,1.8,7.5,2.2,17.1,2.2,15.1,0,20.9-2.1,29.6-10.8,11-11,12.6-19.3,12.2-63.1l-.3-29-10.2-.3-10.1-.3-.4,34.3c-.4,37-.6,38.7-6.1,44.7-8.6,9.3-25.9,7.4-32.5-3.7l-2.7-4.7-.5-35-.5-35-10.3-.3-10.3-.3Z"/><path d="M2523.5,1104.72c-.3.7-.4,23.8-.3,51.3l.3,50h69v-18l-24.7-.3-24.8-.2v-24l20.8-.2,20.7-.3v-17l-20.7-.3-20.8-.2v-23h48v-19h-33.5C2531.6,1103.52,2523.8,1103.82,2523.5,1104.72Z"/></svg>