<svg xmlns="http://www.w3.org/2000/svg" viewBox="0 0 320.63 104.62"><path d="M237,23.45v-.09c0-5-4.39-9.17-10.57-9.17s-10.46,4.09-10.46,9.09v.08c0,5,4.38,9.18,10.56,9.18S237,28.45,237,23.45m-29.06,0v-.09c0-8.3,7.83-15.09,18.59-15.09S245,15,245,23.28v.08c0,8.3-7.82,15.1-18.59,15.1s-18.49-6.72-18.49-15"/><path d="M265.27,23c3.74,0,5.88-1.67,5.88-4.13v-.09c0-2.75-2.29-4.17-6-4.17H257.5V23ZM249.83,8.77h15.94c4.44,0,7.88,1,10.17,3a8.39,8.39,0,0,1,3,6.67v.08c0,4.71-3,7.68-7.48,9.05L280,38h-9l-7.47-9.35h-6V38h-7.67Z"/><path d="M23.18,31.74l-5.69-4,4.88-4.59,5.74,4.34a8.46,8.46,0,0,0,.95-4v-.09c0-5-4.39-9.17-10.57-9.17S8,18.28,8,23.28v.08c0,5,4.38,9.18,10.56,9.18a13.17,13.17,0,0,0,4.59-.8M28.85,36a21.82,21.82,0,0,1-10.36,2.5C7.72,38.46,0,31.74,0,23.45v-.09C0,15.06,7.82,8.27,18.59,8.27s18.49,6.71,18.49,15v.08A13.14,13.14,0,0,1,34,31.74l3.59,2.55-4.89,4.54Z"/><path d="M41.36,25.45V8.77H49V25.28c0,4.75,2.84,7.21,7.52,7.21s7.53-2.38,7.53-7V8.77h7.67V25.24c0,8.84-5.92,13.17-15.3,13.17s-15.1-4.37-15.1-13"/><path d="M126.53,32.33c3.39,0,5.44-1,5.44-3.18v-.07c0-2-1.74-3.17-5.68-3.17h-8.87v6.42Zm-2-11.76c3.39,0,5.53-.92,5.53-3.09V17.4c0-1.92-1.79-3-5-3h-7.57v6.17ZM109.94,8.77h16.2c4,0,7.12.92,9.12,2.58a6.2,6.2,0,0,1,2.39,5v.09c0,3.29-2.09,5.13-4.58,6.29,4,1.3,6.52,3.26,6.52,7.18V30c0,5.34-5.18,8-13.06,8H109.94Z"/><polygon points="144.27 8.77 170.59 8.77 170.59 14.48 151.9 14.48 151.9 20.4 168.35 20.4 168.35 26.11 151.9 26.11 151.9 32.24 170.84 32.24 170.84 37.96 144.27 37.96 144.27 8.77"/><path d="M174.12,23.45v-.09c0-8.3,7.48-15.09,18.2-15.09,6.57,0,10.51,1.83,13.75,4.5l-4.89,4.71a14.14,14.14,0,0,0-8.91-3.29c-5.88,0-10.12,4.09-10.12,9.09v.08c0,5,4.14,9.18,10.12,9.18,4,0,6.43-1.34,9.17-3.43l4.88,4.14c-3.59,3.21-7.58,5.21-14.3,5.21-10.27,0-17.9-6.63-17.9-15"/><polygon points="77.59 8.77 103.91 8.77 103.91 14.48 85.22 14.48 85.22 20.4 101.67 20.4 101.67 26.11 85.22 26.11 85.22 32.24 104.15 32.24 104.15 37.96 77.59 37.96 77.59 8.77"/><polygon points="91.29 0 86.26 6.63 92.27 6.63 97.68 2.34 91.29 0"/><path d="M110.86,104.62s64.07-99.92,209.77-64c0,0-128.15-22.9-209.77,64" fill="#64a7dc"/></svg>