<svg version="1.1" id="nventive_x5F_logo" xmlns="http://www.w3.org/2000/svg" xmlns:xlink="http://www.w3.org/1999/xlink" x="0px" y="0px" style="enable-background:new 0 0 792 612;" xml:space="preserve" viewBox="187.88 216.1 437.92 125.52">
<style type="text/css">
	.st0{fill:#001E60;}
	.st1{fill:#F9423A;}
	.st2{fill:#5BC5F2;}
	.st3{fill:#0D59D1;}
</style>
<g id="Nventive_Logo_Fond_Couleur">
	<path id="Lettrage_1_" class="st0" d="M362.5,340.5h-13.9c0,0,0-15.6,0-31.2s7.6-25.7,24-25.7c16.4,0,23.9,10.1,23.9,25.7   s0,31.2,0,31.2h-13.9v-31.2c0-8-2.1-13.8-10.1-13.8s-10.1,5.8-10.1,13.8V340.5z M405.2,326.8c0,9.1,6.1,14.8,16,14.8   c6.2,0,11.4-1.3,12.7-1.7l-0.1-11.7c-1.6,0.5-6,1.7-9,1.7c-3.7,0-5.7-1.4-5.7-4.3v-28.8h14v-11.8h-14v-19.1h-13.9V326.8    M304.7,317.6v0.4c0,8,7.8,11.8,14.4,11.8c6.8,0,12.8-4.2,14.5-5.9l7.5,9.3c-3.4,3.3-12.1,8.3-22,8.3c-14.1,0-28.3-9-28.3-29.1   c0-25.9,18-28.7,25.8-28.7c16.3,0,25.6,10.4,25.6,28.7c0,2.2-0.2,4.3-0.2,5.2L304.7,317.6z M304.7,307.3h23.5l0-0.4   c-0.1-9.8-7.6-11.3-11.6-11.3c-7,0-11.9,4.2-11.9,11.3V307.3z M253.2,335.3c1.4,4.2,4.7,6.1,10.5,6.1c5.7,0,9-1.9,10.5-6.1   c1.1-3.4,15.1-45,16.9-50.4l-13.7,0l-13.7,44.4l-13.8-44.4l-13.6,0C238.1,290.3,252,331.9,253.2,335.3 M442,340.4h13.9l0-55.5   l-13.9,0L442,340.4z M455.6,265.9H442v13.6h13.6V265.9z M529.3,317.6v0.4c0,8,7.8,11.8,14.4,11.8c6.8,0,12.8-4.2,14.5-5.9l7.5,9.3   c-3.4,3.3-12.1,8.3-22,8.3c-14.1,0-28.3-9-28.3-29.1c0-25.9,18-28.7,25.8-28.7c16.3,0,25.6,10.4,25.6,28.7c0,2.2-0.2,4.3-0.2,5.2   L529.3,317.6z M529.3,307.3h23.5l0-0.4c-0.1-9.8-7.6-11.3-11.6-11.3c-7,0-11.9,4.2-11.9,11.3V307.3z M477.8,335.3   c1.4,4.2,4.7,6.1,10.5,6.1c5.7,0,9-1.9,10.5-6.1c1.1-3.4,15.1-45,16.9-50.4l-13.7,0l-13.7,44.4l-13.8-44.4l-13.6,0L477.8,335.3z    M201.7,309.4c0-8,2.1-13.8,10.1-13.8s10.1,5.8,10.1,13.8v31.2h13.9c0,0,0-15.6,0-31.2s-7.5-25.7-23.9-25.7s-24,10.1-24,25.7   s0,31.2,0,31.2h13.9V309.4z"/>
	<g id="Signe_1_">
		<g>
			<g>
				<circle class="st1" cx="596.3" cy="245.6" r="29.5"/>
				<circle class="st2" cx="586.4" cy="255.9" r="29.5"/>
			</g>
		</g>
		<path class="st3" d="M570.8,230.9c-7.7,13.4-3.8,30.7,9.3,39.3c9.9,6.5,22.3,6.3,31.8,0.4c0.4-0.8,0.8-1.5,1.2-2.3    c6.8-14.8,0.4-32.3-14.4-39.1C589.4,224.8,578.9,225.8,570.8,230.9z"/>
	</g>
</g>
</svg>