<svg xmlns="http://www.w3.org/2000/svg" viewBox="0 0 2268.15 1078.19"><path d="M972,610.19v468H2041.62v-468Zm201.5,432.19-59-36.15h-11c-39.81,0-59.49-19.67-59.49-59.48V739.91c0-39.81,19.68-59.49,59.49-59.49h26.08c39.81,0,59.49,19.68,59.49,59.49v201.8c0,25.63-8.24,42.1-24.25,50.34l32.49,13.27Zm186.36-95.63c0,39.81-19.67,59.48-59.48,59.48h-23.79c-39.82,0-59.5-19.67-59.5-59.48V683.17h49V944.45c0,12.82,5.94,18.76,18.76,18.76h7.78c12.35,0,18.3-5.94,18.3-18.76V683.17h49Zm140.23,58.66H1388V683h30.09l17.78-36.77h49l-23,36.77h37.32v46.66h-59.91v88.27h57.63v46.66h-57.63v94.21h60.84ZM1665.16,944c0,39.81-19.68,59.49-59.49,59.49h-80.08V683.17h79.16c39.81,0,59.49,19.67,59.49,59.48v47.14c0,28.37-9.6,42.55-27,49,18.75,6.41,27.91,20.14,27.91,46.22Zm136.08,59.49H1691.42V683.17h108.91v44.39h-59.95v90.6H1798v44.39h-57.66V959.1h60.86Zm168.38-56.74c0,39.81-19.68,59.48-59.49,59.48h-24.25c-39.81,0-59.49-19.67-59.49-59.48V739.91c0-39.81,19.68-59.49,59.49-59.49h23.8c39.81,0,59,19.21,59,59v65.44h-48V742.19c0-12.8-6-18.76-18.3-18.76h-8.23c-12.81,0-18.77,6-18.77,18.76V944.45c0,12.82,6,18.76,18.77,18.76h9.15c12.36,0,18.3-5.94,18.3-18.76V872.16h48Z" fill="#e1251b"/><path d="M1615.74,799.39V744.48c0-12.36-6-18.3-18.31-18.3h-23.34v93.35h21.51C1609.33,819.53,1615.74,812.67,1615.74,799.39Z" fill="#e1251b"/><path d="M1596.51,861.17h-22.42v99.31h24.25c12.36,0,18.31-6,18.31-18.31V881.31C1616.65,867.58,1610.24,861.17,1596.51,861.17Z" fill="#e1251b"/><path d="M1121.79,723.43h-10.06c-12.82,0-18.77,6-18.77,18.76V944.45c0,12.82,6,18.76,18.77,18.76h10.06c12.36,0,18.3-5.94,18.3-18.76V742.19C1140.09,729.39,1134.15,723.43,1121.79,723.43Z" fill="#e1251b"/><path d="M540,610.19v288H936v-288Zm197.46,199.3c0,29.41-14.28,43.7-43.66,43.7H653.72v-198H693.8c29.38,0,43.66,14.27,43.66,43.66Zm84.82,43.7H753.47v-198h68.25v28.65H784.93V738h35.39v28.65H784.93v57.85h37.35Z" fill="#e1251b"/><path d="M689.57,683h-4.38V825.37h4.38c11.38,0,16.44-5.16,16.44-16.73V699.7C706,688.12,701,683,689.57,683Z" fill="#e1251b"/><path d="M0,214.19v360H504v-360ZM241.49,517.94H160.93V270.44H200V482.38h41.48Zm101.57,0H257.24V270.44h85.11V306H296.29v68.16H340.6v35.55H296.29v72.7h46.77Z" fill="#e1251b"/><path d="M1460.72,135.45h-30.13V272.27h27.71c17.24,0,25.28-7.85,25.28-24.69V158.31C1483.58,142.7,1476.3,135.45,1460.72,135.45Z" fill="#e1251b"/><path d="M999,131.2H985.73c-16.23,0-23.47,7.24-23.47,23.49V421.33c0,16.22,7.24,23.48,23.47,23.48H999c15.62,0,22.88-7.48,22.88-23.48V154.69C1021.88,138.66,1014.62,131.2,999,131.2Z" fill="#e1251b"/><polygon points="1898.05 351 1941.65 351 1919.7 172.27 1898.05 351" fill="#e1251b"/><path d="M655.77,0V576H2268.15V0Zm197.5,420.72c0,52.85-26.8,79.65-79.66,79.65H727.77v-61h35c16.24,0,23.5-7.26,23.5-23.48V130.56H750.92V75.62H853.27Zm235.67,3.61c0,52.88-26.82,79.67-79.68,79.67H974.87c-52.84,0-79.66-26.79-79.66-79.67V151.68C895.21,98.82,922,72,974.87,72h34.39c52.86,0,79.68,26.82,79.68,79.68Zm232.65,0c0,52.88-26.8,79.67-79.68,79.67h-31.35c-52.87,0-79.68-26.79-79.68-79.67V75.62h67.06V421.33c0,16.22,7.24,23.48,23.48,23.48h10.25c15.6,0,22.87-7.48,22.87-23.48V75.62h67Zm229.64,76h-67.06V356.77c0-17.92-8-25.89-25.87-25.89h-27.71V500.37h-67.06V75.62H1471c52.87,0,79.66,26.81,79.66,79.68v79.63c0,33.72-10.64,53.91-34.4,64.91,24.49,7.81,35,24.67,35,55.73Zm235.67,0h-72.22l-.24-1-63.18-273,.52,62.82V500.37h-60.4V75.62H1669l.24,1L1727,326.1l-.51-59.21V75.62h60.41Zm173.93,0-11.61-89.58h-58.74l-10.7,89.58h-62.26L1878.18,75H1966l.15,1.07,61.15,424.29Zm235.32,0H2057.92V75.62h67V439.37h71.18Z" fill="#e1251b"/></svg>