<?xml version="1.0" encoding="utf-8"?>
<!-- Generator: Adobe Illustrator 16.0.0, SVG Export Plug-In . SVG Version: 6.00 Build 0)  -->
<!DOCTYPE svg PUBLIC "-//W3C//DTD SVG 1.1//EN" "http://www.w3.org/Graphics/SVG/1.1/DTD/svg11.dtd">
<svg version="1.1" id="Layer_1" xmlns="http://www.w3.org/2000/svg" xmlns:xlink="http://www.w3.org/1999/xlink" x="0px" y="0px"
	 width="591.082px" height="200px" viewBox="0 0 591.082 200" enable-background="new 0 0 591.082 200" xml:space="preserve">
<g>
	<path fill="#12528E" d="M324.378,48.091c-4.354,4.08-6.567,9.599-6.567,16.408v8.621h-12.413v12.425h12.413V139.3h13.484V85.545
		h17.297V73.121h-17.297v-8.355c0-3.362,0.92-5.956,2.752-7.708c1.867-1.788,4.23-2.655,7.204-2.655h24.432V139.3h13.347V41.984
		h-37.778C334.392,41.984,328.71,44.033,324.378,48.091z"/>
	<path fill="#12528E" d="M423.972,72.683c-19.002,0-32.477,14.395-32.477,33.67c0,19.409,13.475,33.8,32.477,33.8
		c19.017,0,32.491-14.391,32.491-33.8C456.463,87.078,442.988,72.683,423.972,72.683z M423.972,129.06
		c-10.554,0-19.798-7.916-19.798-22.706c0-14.657,9.244-22.582,19.798-22.582c10.567,0,19.812,7.925,19.812,22.582
		C443.783,121.144,434.539,129.06,423.972,129.06z"/>
	<path fill="#12528E" d="M544.795,101.596l-10.303-2.238c-4.885-1.059-7.27-3.833-7.27-7.661c0-4.354,4.227-8.452,10.566-8.452
		c10.037,0,12.676,7.263,13.205,10.563l10.961-4.094c-1.312-5.682-6.73-17.031-24.166-17.031c-12.412,0-22.578,9.243-22.578,20.072
		c0,8.973,5.949,15.708,15.848,17.82l10.834,2.381c5.277,1.191,8.182,4.221,8.182,8.188c0,4.482-3.828,8.447-10.834,8.447
		c-8.977,0-13.99-5.283-14.783-11.881l-11.227,3.959c1.061,7.266,8.459,18.484,25.883,18.484c15.709,0,23.244-10.695,23.244-19.674
		C562.357,111.106,556.273,104.109,544.795,101.596z"/>
	<path fill="#12528E" d="M488.266,54.591h-11.35V62.8v2.094v9.921h-13.195v11.068h12.146v34.862c0,11.482,6.867,18.09,17.691,18.09
		c4.227,0,7.4-0.795,8.449-1.189v-10.568c-1.049,0.266-3.297,0.531-4.891,0.531c-6.465,0-8.852-2.902-8.852-8.713V85.883h13.742
		V74.665h-13.742V54.591z"/>
</g>
<path fill="#2F77B2" d="M183.785,126.434v-0.186h-6.062v0.371c0,11.086-10.616,20.109-23.648,20.109
	c-13.045,0-23.658-9.023-23.658-20.109h-6.062c0,11.086-10.603,20.109-23.648,20.109c-13.036,0-23.648-9.023-23.648-20.109v-0.371
	h-6.062v0.186c0,11.086-10.604,20.104-23.648,20.104v6.062c11.664,0,21.759-5.947,26.622-14.572
	c4.814,8.736,14.993,14.764,26.737,14.764c11.696,0,21.839-5.988,26.688-14.672c4.828,8.684,14.971,14.672,26.68,14.672
	c11.745,0,21.91-6.027,26.737-14.764c4.864,8.625,14.957,14.572,26.622,14.572v-6.062
	C194.388,146.537,183.785,137.52,183.785,126.434z"/>
<path fill="#2F77B2" d="M73.969,56.666c4.814,8.723,14.993,14.75,26.737,14.75c11.696,0,21.839-5.979,26.688-14.657
	c4.828,8.678,14.971,14.657,26.68,14.657c11.745,0,21.91-6.027,26.737-14.75c4.864,8.621,14.957,14.563,26.622,14.563v-6.058
	c-13.046,0-23.648-9.015-23.648-20.1v-0.19h-6.062v0.376c0,11.086-10.616,20.104-23.648,20.104
	c-13.045,0-23.658-9.018-23.658-20.104h-6.062c0,11.086-10.603,20.104-23.648,20.104c-13.036,0-23.648-9.018-23.648-20.104v-0.376
	h-6.062v0.19c0,11.085-10.604,20.1-23.648,20.1v6.058C59.011,71.229,69.105,65.287,73.969,56.666z"/>
<path fill="#12528E" d="M157.105,167.123v-0.193h-6.062v0.379c0,11.082-10.611,20.1-23.648,20.1c-13.045,0-23.657-9.018-23.657-20.1
	h-6.062c0,11.082-10.604,20.1-23.648,20.1v6.064c11.695,0,21.839-5.984,26.68-14.668c4.85,8.684,14.979,14.668,26.688,14.668
	c11.73,0,21.909-6.029,26.724-14.754c4.863,8.621,14.971,14.566,26.637,14.566v-6.062
	C167.708,187.223,157.105,178.205,157.105,167.123z"/>
<path fill="#12528E" d="M100.706,16.068c4.85,8.679,14.979,14.666,26.688,14.666c11.73,0,21.909-6.027,26.724-14.759
	c4.863,8.63,14.971,14.572,26.637,14.572V24.49c-13.047,0-23.649-9.019-23.649-20.104V4.2h-6.062v0.376
	c0,11.086-10.611,20.096-23.648,20.096c-13.045,0-23.657-9.01-23.657-20.096h-6.062c0,11.086-10.604,20.096-23.648,20.096v6.062
	C85.722,30.734,95.865,24.747,100.706,16.068z"/>
<path fill="#80B2DE" d="M210.465,85.753v-0.187h-6.062v0.376c0,11.086-10.604,20.1-23.648,20.1l0,0v-0.191
	c-13.047,0-23.649-9.018-23.649-20.098v-0.187h-6.062v0.376c0,1.381-0.172,2.735-0.482,4.045
	c-2.213,9.15-11.758,16.055-23.166,16.055c-11.824,0-21.644-7.409-23.383-17.042c-0.181-1-0.274-2.021-0.274-3.058v-0.376h-6.062
	v0.187c0,11.08-10.604,20.098-23.648,20.098v0.191c-13.032,0-23.648-9.014-23.648-20.1v-0.376h-6.063v0.187
	c0,11.08-10.602,20.098-23.648,20.098v6.068c11.652,0,21.76-5.947,26.623-14.573c4.828,8.721,14.993,14.762,26.737,14.762
	c11.709,0,21.839-5.992,26.68-14.669c4.85,8.677,14.979,14.669,26.688,14.669l0,0l0,0c11.7,0,21.839-5.992,26.68-14.669
	c4.842,8.677,14.983,14.669,26.681,14.669c11.744,0,21.918-6.041,26.723-14.762c4.877,8.625,14.971,14.573,26.636,14.573v-6.068
	C221.076,105.852,210.465,96.833,210.465,85.753z"/>
</svg>
