<svg version="1.1" xmlns="http://www.w3.org/2000/svg" xmlns:xlink="http://www.w3.org/1999/xlink" xml:space="preserve" xmlns:serif="http://www.serif.com/" style="fill-rule:evenodd;clip-rule:evenodd;stroke-linejoin:round;stroke-miterlimit:2;" viewBox="31.62 95.72 2385.07 884.57">
    <g transform="matrix(1,0,0,1,-16666,-3253)">
        <g id="_2022-Afi-U" serif:id="2022-Afi U" transform="matrix(1.30458,0,0,1.71176,16708.7,3294.79)">
            <rect x="-32" y="-24" width="1878" height="998" style="fill:none;"/>
            <g id="LOGO">
            </g>
            <g transform="matrix(2.02551,0,0,1.26829,-162.649,6.43902)">
                <g transform="matrix(3.70787,0,0,4.51303,191.489,188.863)">
                    <path d="M0,28.38C8.197,28.38 14.823,22.186 14.823,14.19C14.823,6.195 8.197,0.001 0,0.001C-8.083,0.001 -14.374,6.195 -14.374,14.19C-14.374,22.186 -8.083,28.38 0,28.38M-3.03,-15.202C5.615,-15.202 12.24,-11.712 13.813,-6.757L13.813,-14.188L30.545,-14.188L30.545,42.568L13.812,42.568L13.812,35.136C12.24,39.978 5.615,43.582 -3.03,43.582C-19.089,43.582 -31.104,30.631 -31.104,14.19C-31.104,-2.14 -19.089,-15.202 -3.03,-15.202" style="fill:rgb(40,40,40);fill-rule:nonzero;"/>
                </g>
                <g transform="matrix(3.70787,0,0,4.51303,369.454,207.208)">
                    <path d="M0,-3.036L-9.312,-3.036L-9.312,-18.225L0,-18.225L0,-19.802C0,-29.14 2.246,-33.866 6.62,-37.354C11.332,-41.292 17.279,-41.517 22.214,-41.517C24.571,-41.517 27.601,-41.18 28.948,-40.954L28.948,-27.003C27.489,-27.565 25.581,-27.565 23.898,-27.565C18.624,-27.565 16.157,-25.652 16.157,-20.814L16.157,-18.225L27.489,-18.225L27.489,-3.036L16.157,-3.036L16.157,38.481L0,38.481L0,-3.036Z" style="fill:rgb(40,40,40);fill-rule:nonzero;"/>
                </g>
                <g transform="matrix(3.70787,0,0,4.51303,-87.1651,-211.229)">
                    <rect x="158.755" y="74.459" width="16.721" height="56.738" style="fill:rgb(40,40,40);"/>
                </g>
                <g transform="matrix(97.1978,0,0,-118.304,495.517,53.9125)">
                    <rect x="-0" y="-0.27" width="1" height="0.539" style="fill:url(#_Linear1);"/>
                </g>
                <g transform="matrix(0.804403,0,0,0.979078,-3209.79,-1218.93)">
                    <g transform="matrix(0.895425,0,0,0.888651,-911.479,-11.5724)">
                        <rect x="6374" y="1438" width="459" height="467" style="fill:rgb(226,54,83);"/>
                    </g>
                    <g transform="matrix(0.979901,0,0,0.969756,-1528.47,-67.5573)">
                        <path d="M6548.74,1606.97C6548.74,1679.86 6598.32,1715.38 6658.63,1715.38C6718.57,1715.38 6768.15,1679.86 6768.15,1606.97L6768.15,1453.42L6711.17,1453.42L6711.17,1601.05C6711.17,1646.19 6690.08,1663.58 6658.63,1663.58C6626.81,1663.58 6605.72,1646.19 6605.72,1601.05L6605.72,1453.42L6548.74,1453.42L6548.74,1606.97Z" style="fill:white;fill-rule:nonzero;"/>
                    </g>
                    <g transform="matrix(1.15485,0,0,1.13779,-2445.64,-322.009)">
                        <path d="M6533.39,1690.5C6533.39,1703.51 6544.38,1713.91 6557.1,1713.91C6569.82,1713.91 6580.8,1703.51 6580.8,1690.5C6580.8,1677.49 6569.82,1667.08 6557.1,1667.08C6544.38,1667.08 6533.39,1677.49 6533.39,1690.5Z" style="fill:white;fill-rule:nonzero;"/>
                    </g>
                </g>
            </g>
        </g>
    </g>
    <defs>
        <linearGradient id="_Linear1" x1="0" y1="0" x2="1" y2="0" gradientUnits="userSpaceOnUse" gradientTransform="matrix(1,0,0,-1,0,6.27149e-06)"><stop offset="0" style="stop-color:rgb(215,73,96);stop-opacity:0"/><stop offset="1" style="stop-color:rgb(215,73,96);stop-opacity:1"/></linearGradient>
    </defs>
</svg>