<svg xmlns="http://www.w3.org/2000/svg" xmlns:xlink="http://www.w3.org/1999/xlink" viewBox="0 0 100 30.33"><path d="M11.93,4.36c3,0,4.62,2.34,4.62,5.08,0,.27,0,.75,0,.75H8.06a4.18,4.18,0,0,0,4.27,4.38,4.89,4.89,0,0,0,3.3-1.36l.72,1.12a6.26,6.26,0,0,1-4.09,1.57A5.57,5.57,0,0,1,6.5,10.15C6.5,6.53,9,4.36,11.93,4.36ZM15,9C14.93,6.71,13.52,5.6,11.9,5.6A3.78,3.78,0,0,0,8.12,9Z" fill="#f20024"/><path d="M19.56,6.39a.43.43,0,0,0-.48-.48h-.91V4.62H19.7C20.62,4.62,21,5,21,5.87v.74c0,.47,0,.83,0,.83h0A3.65,3.65,0,0,1,24.51,4.6a2.9,2.9,0,0,1,.6.07V6a3.44,3.44,0,0,0-.55,0c-1.55,0-2.72,1.33-3.2,2.95A7.23,7.23,0,0,0,21.05,11v4.65H19.56Z" fill="#f20024"/><path d="M28.3,6.39a.43.43,0,0,0-.48-.48h-.91V4.62h1.53c.91,0,1.34.39,1.34,1.22v.51a6.15,6.15,0,0,1-.05.78h.05a4.67,4.67,0,0,1,4.37-2.77c2.73,0,3.7,1.55,3.7,4.27v5.23a.42.42,0,0,0,.48.48h.92v1.29H37.7c-.94,0-1.34-.39-1.34-1.33V9c0-1.73-.26-3.26-2.38-3.26a4.2,4.2,0,0,0-4,3.11,5.87,5.87,0,0,0-.16,1.49v5.27h-1.5V6.39Z" fill="#f20024"/><path d="M47.34,8.84H48V8.71c0-2.29-.83-3.11-2.84-3.11-.55,0-2.14.16-2.14,1v.7H41.56v-1c0-1.53,2.61-1.86,3.58-1.86,3.48,0,4.31,1.86,4.31,4.22v5.28a.42.42,0,0,0,.48.48h.91v1.29h-1.5c-.94,0-1.31-.42-1.31-1.3,0-.48,0-.81,0-.81H48a3.88,3.88,0,0,1-3.65,2.38c-1.85,0-3.75-1.07-3.75-3.26C40.61,9,45.44,8.84,47.34,8.84Zm-2.76,5.78c2.1,0,3.36-2.18,3.36-4.09V10h-.63c-1.73,0-5.18,0-5.18,2.52A2.19,2.19,0,0,0,44.58,14.62Z" fill="#f20024"/><path d="M53.87,6.39a.43.43,0,0,0-.48-.48h-.91V4.62H54c.91,0,1.34.39,1.34,1.22v.51a6.15,6.15,0,0,1-.05.78h.05a4.67,4.67,0,0,1,4.37-2.77c2.73,0,3.7,1.55,3.7,4.27v5.23a.42.42,0,0,0,.48.48h.92v1.29H63.27c-.94,0-1.34-.39-1.34-1.33V9c0-1.73-.26-3.26-2.39-3.26a4.17,4.17,0,0,0-4,3.11,5.86,5.86,0,0,0-.17,1.49v5.27H53.88V6.39Z" fill="#f20024"/><path d="M71,4.36a3.89,3.89,0,0,1,3.59,2.06h0s0-.37,0-.83V1.77a.43.43,0,0,0-.48-.48h-.92V0h1.55c.94,0,1.34.39,1.34,1.34V13.85a.43.43,0,0,0,.48.48h.91v1.29H75.91c-.92,0-1.31-.42-1.31-1.22a5.55,5.55,0,0,1,0-.71h0a4,4,0,0,1-3.79,2.18c-3,0-4.78-2.36-4.78-5.77S68.08,4.36,71,4.36Zm3.63,5.76c0-2.24-1.14-4.42-3.5-4.42-1.95,0-3.55,1.65-3.55,4.42S69,14.55,71,14.55C72.88,14.55,74.6,13.24,74.6,10.12Z" fill="#f20024"/><path d="M84,4.36c3,0,4.62,2.34,4.62,5.07,0,.27,0,.74,0,.74H80.17a4.16,4.16,0,0,0,4.26,4.38,4.92,4.92,0,0,0,3.31-1.35l.72,1.11a6.22,6.22,0,0,1-4.1,1.58,5.58,5.58,0,0,1-5.75-5.76A5.39,5.39,0,0,1,84,4.36ZM87.12,9C87,6.71,85.63,5.6,84,5.6A3.78,3.78,0,0,0,80.23,9Z" fill="#f20024"/><path d="M99.45,5.6v-1h-7.7c-1,0-1.35.39-1.35,1.35V7.29h1.41V6.42a.42.42,0,0,1,.48-.48h4c.73,0,1.11,0,1.11,0v0s-.46.48-.88,1l-6.25,7.78v.89h5.77c3.59-.06,3.91-2.43,3.91-3.29V12H98.54v.22c0,.54-.2,2-2.82,2H92.46c.17-.19.48-.5.77-.85Z" fill="#f20024"/><path d="M46.75,0A1.75,1.75,0,0,1,45,1.49h-.21V2.66h.32A2.84,2.84,0,0,0,48.07,0Z" fill="#f20024"/><path d="M3.59,3.45c0-2.16,1.84-1.94,2.46-1.94H7.18V0H5.8c-1,0-3.7.25-3.7,3.31V4.88c0,1.92-2.1,2-2.1,2V8.22s2.1,0,2.1,2v5.43H3.59V9.89a2.52,2.52,0,0,0-1.9-2.35,2.51,2.51,0,0,0,1.9-2.35Z" fill="#f20024"/><path d="M2.1,23.45h.76v.85h0a1.77,1.77,0,0,1,1.58-.95h.1l0,.71H4.32a1.68,1.68,0,0,0-1.48,1v3.36H2.1Z" fill="#818181"/><path d="M6.36,25.94c0-1.81.93-2.61,1.93-2.61s1.77.89,1.77,2.58v.18H7.11c0,1.17.47,1.8,1.19,1.8s.9-.32,1.18-.87l.54.32a1.93,1.93,0,0,1-1.75,1.19C7.19,28.53,6.36,27.67,6.36,25.94Zm3-.43C9.29,24.61,9,24,8.27,24s-1.07.46-1.15,1.53Z" fill="#818181"/><path d="M13.3,21.43h-.76v7h.76Z" fill="#818181"/><path d="M15.78,27.24c0-1,.84-1.71,2.78-2.11v-.29c0-.56-.24-.83-.74-.83a2.08,2.08,0,0,0-1.48.67l-.42-.46a2.75,2.75,0,0,1,2-.87c1,0,1.42.53,1.42,1.5v2.37a3.55,3.55,0,0,0,.13,1.22h-.76a2,2,0,0,1-.1-.65A2.11,2.11,0,0,1,17,28.5,1.12,1.12,0,0,1,15.78,27.24Zm2.78,0V25.68c-1.53.33-2,.86-2,1.45a.64.64,0,0,0,.71.73A1.86,1.86,0,0,0,18.56,27.22Z" fill="#818181"/><path d="M22.25,27.3V24.06h-.73v-.63h.73V21.66H23v1.77h1.1v.63H23v3.06c0,.5.12.73.66.73a1.27,1.27,0,0,0,.42-.07v.62a2.26,2.26,0,0,1-.59.07C22.59,28.48,22.25,28.16,22.25,27.3Z" fill="#818181"/><path d="M26.53,21.63h.77v.82h-.77Zm0,1.81h.76v5h-.76Z" fill="#818181"/><path d="M29.79,25.94c0-1.72.86-2.61,2-2.61s2,.87,2,2.61-.86,2.6-2,2.6S29.79,27.64,29.79,25.94Zm3.17,0c0-1.09-.37-2-1.2-2s-1.21.78-1.21,2,.35,1.95,1.21,1.95S33,27.12,33,25.94Z" fill="#818181"/><path d="M36.17,23.45h.76v.68a2.26,2.26,0,0,1,1.57-.78c.8,0,1.23.48,1.23,1.39v3.7H39V24.89c0-.59-.2-.87-.7-.87a2.13,2.13,0,0,0-1.34.72v3.7h-.77Z" fill="#818181"/><path d="M42,27.51l.52-.38a1.61,1.61,0,0,0,1.35.78c.64,0,1-.27,1-.74,0-1.22-2.6-.73-2.6-2.49a1.4,1.4,0,0,1,1.57-1.33,1.92,1.92,0,0,1,1.65.9l-.51.39A1.35,1.35,0,0,0,43.78,24c-.56,0-.83.28-.83.68,0,1.23,2.58.67,2.58,2.49,0,.87-.76,1.39-1.72,1.39A2.13,2.13,0,0,1,42,27.51Z" fill="#818181"/><path d="M52.08,23.45h.76v.63a1.74,1.74,0,0,1,1.37-.73c1,0,1.69.78,1.69,2.59s-.76,2.57-1.73,2.57a1.68,1.68,0,0,1-1.33-.67v2.49h-.76Zm3.07,2.49c0-1.34-.46-2-1.13-2a1.66,1.66,0,0,0-1.16.69v2.51a1.54,1.54,0,0,0,1.18.67C54.69,27.86,55.15,27.3,55.15,25.94Z" fill="#818181"/><path d="M58.3,27.15v-3.7h.76V27c0,.59.2.87.73.87a1.92,1.92,0,0,0,1.31-.72V23.45h.76v5H61.1v-.69a2.15,2.15,0,0,1-1.57.79C58.74,28.53,58.3,28.05,58.3,27.15Z" fill="#818181"/><path d="M65.31,27.84v.59h-.76v-7h.76v2.63a1.69,1.69,0,0,1,1.37-.75c1,0,1.7.79,1.7,2.59s-.76,2.58-1.75,2.58A1.68,1.68,0,0,1,65.31,27.84Zm2.29-1.9c0-1.34-.46-2-1.12-2a1.64,1.64,0,0,0-1.17.71v2.49a1.52,1.52,0,0,0,1.18.67C67.15,27.86,67.6,27.3,67.6,25.94Z" fill="#818181"/><path d="M71.61,21.43h-.75v7h.75Z" fill="#818181"/><path d="M74.4,21.63h.78v.82H74.4Zm0,1.81h.76v5H74.4Z" fill="#818181"/><path d="M80.72,27.78a1.75,1.75,0,0,1-1.37.73c-1,0-1.68-.76-1.68-2.57s.73-2.61,1.7-2.61a1.73,1.73,0,0,1,1.35.73v-.61h.76v6.88h-.76Zm0-.58V24.7A1.62,1.62,0,0,0,79.55,24c-.67,0-1.12.58-1.12,2s.46,1.94,1.14,1.94A1.66,1.66,0,0,0,80.72,27.2Z" fill="#818181"/><path d="M84.11,27.15v-3.7h.76V27c0,.59.2.87.73.87a1.92,1.92,0,0,0,1.31-.72V23.45h.76v5h-.76v-.69a2.15,2.15,0,0,1-1.57.79C84.55,28.53,84.11,28.05,84.11,27.15Z" fill="#818181"/><path d="M90.12,25.94c0-1.81.93-2.61,1.93-2.61s1.77.89,1.77,2.58v.18H90.88c0,1.17.48,1.8,1.2,1.8s.9-.32,1.18-.87l.53.32a1.92,1.92,0,0,1-1.74,1.19C91,28.53,90.12,27.67,90.12,25.94Zm3-.43c0-.9-.38-1.53-1-1.53s-1.07.46-1.16,1.53Z" fill="#818181"/><path d="M95.78,27.51l.52-.38a1.58,1.58,0,0,0,1.35.78c.63,0,1-.27,1-.74,0-1.22-2.61-.73-2.61-2.49a1.41,1.41,0,0,1,1.58-1.33,1.89,1.89,0,0,1,1.64.9l-.5.39A1.36,1.36,0,0,0,97.61,24c-.56,0-.83.28-.83.68,0,1.23,2.57.67,2.57,2.49,0,.87-.76,1.39-1.71,1.39A2.11,2.11,0,0,1,95.78,27.51Z" fill="#818181"/></svg>