<svg width="609" height="123" viewBox="0 0 609 123" fill="none" xmlns="http://www.w3.org/2000/svg">
<path fill-rule="evenodd" clip-rule="evenodd" d="M70.3824 24.5472L24.5337 70.413L15.3208 61.1855L61.1666 15.3255L70.3824 24.5472ZM88.8098 42.98L42.9671 88.84L33.7481 79.621L79.5998 33.7641L88.8098 42.98ZM107.242 61.4215L61.3964 107.278L52.1806 98.0568L98.0295 52.1967L107.242 61.4215Z" fill="black"/>
<path d="M168.222 54.9879H155.536V76.5049C155.536 77.9149 155.567 79.2329 155.628 80.4589C155.69 81.6236 155.935 82.6658 156.364 83.5853C156.793 84.4435 157.436 85.1485 158.294 85.7002C159.152 86.1906 160.378 86.4358 161.971 86.4358C163.013 86.4358 164.085 86.3133 165.188 86.068C166.291 85.8228 167.333 85.455 168.314 84.9646L168.59 91.4933C167.364 92.045 165.985 92.4434 164.453 92.6886C162.982 92.9339 161.573 93.0565 160.224 93.0565C157.651 93.0565 155.598 92.7193 154.066 92.045C152.533 91.3707 151.338 90.4205 150.48 89.1944C149.622 87.9684 149.04 86.4665 148.734 84.6887C148.489 82.8497 148.366 80.8267 148.366 78.6198V54.9879H138.99V48.919H148.366V36.6893H155.536V48.919H168.222V54.9879ZM177.288 22.4366H184.458V54.896H184.642C185.132 54.0378 185.806 53.2102 186.664 52.4132C187.522 51.555 188.533 50.7887 189.697 50.1144C190.923 49.4401 192.271 48.8884 193.742 48.4593C195.213 48.0302 196.776 47.8156 198.43 47.8156C201.249 47.8156 203.67 48.2447 205.692 49.1029C207.776 49.9612 209.492 51.1566 210.84 52.6891C212.188 54.2217 213.169 56.0914 213.782 58.2982C214.456 60.4438 214.793 62.8039 214.793 65.3786V91.953H207.623V66.1142C207.623 62.4974 206.826 59.6469 205.233 57.5626C203.639 55.4783 201.157 54.4362 197.787 54.4362C195.458 54.4362 193.436 54.8347 191.72 55.6316C190.065 56.4285 188.686 57.5626 187.583 59.0339C186.541 60.5051 185.745 62.2522 185.193 64.2752C184.703 66.2981 184.458 68.5357 184.458 70.9877V91.953H177.288V22.4366ZM229.202 48.919H236.372V91.953H229.202V48.919ZM227.547 32.0916C227.547 30.6817 228.038 29.4557 229.018 28.4135C230.06 27.3714 231.316 26.8503 232.787 26.8503C234.258 26.8503 235.483 27.3714 236.464 28.4135C237.506 29.4557 238.027 30.6817 238.027 32.0916C238.027 33.6242 237.536 34.8809 236.556 35.8617C235.575 36.8425 234.319 37.333 232.787 37.333C231.255 37.333 229.999 36.8425 229.018 35.8617C228.038 34.8809 227.547 33.6242 227.547 32.0916ZM250.833 59.1258C250.833 57.1642 250.772 55.3251 250.649 53.6086C250.527 51.8922 250.466 50.329 250.466 48.919H257.268C257.268 50.0838 257.299 51.2485 257.36 52.4132C257.421 53.578 257.452 54.7734 257.452 55.9994H257.636C258.126 54.9573 258.8 53.9458 259.658 52.965C260.577 51.9841 261.65 51.1259 262.875 50.3903C264.101 49.5934 265.48 48.9803 267.012 48.5512C268.544 48.0608 270.199 47.8156 271.976 47.8156C272.466 47.8156 272.956 47.8462 273.447 47.9075C273.937 47.9689 274.427 48.0915 274.918 48.2754L274.458 55.5396C273.232 55.1718 271.945 54.9879 270.597 54.9879C266.185 54.9879 262.967 56.4285 260.945 59.3097C258.984 62.1296 258.003 66.0223 258.003 70.9877V91.953H250.833V59.1258ZM317.485 84.3209H317.301C315.953 86.773 313.808 88.8573 310.866 90.5737C307.986 92.2289 304.615 93.0565 300.754 93.0565C297.752 93.0565 294.933 92.5047 292.297 91.4013C289.662 90.2366 287.364 88.6427 285.403 86.6197C283.503 84.5968 282.002 82.206 280.899 79.4474C279.796 76.6888 279.244 73.685 279.244 70.436C279.244 67.187 279.796 64.1832 280.899 61.4246C282.002 58.666 283.534 56.2753 285.495 54.2523C287.456 52.2293 289.815 50.6661 292.573 49.5627C295.392 48.398 298.487 47.8156 301.858 47.8156C304.983 47.8156 307.833 48.4593 310.407 49.7466C313.042 51.034 315.34 52.8424 317.301 55.1718H317.485V22.4366H324.655V91.953H317.485V84.3209ZM317.485 70.436C317.485 68.1679 317.117 66.0836 316.382 64.1832C315.707 62.2216 314.696 60.5358 313.348 59.1258C312 57.6546 310.376 56.5205 308.476 55.7236C306.638 54.8653 304.554 54.4362 302.225 54.4362C299.896 54.4362 297.782 54.8653 295.882 55.7236C294.044 56.5205 292.451 57.6546 291.102 59.1258C289.754 60.5358 288.712 62.2216 287.977 64.1832C287.303 66.0836 286.966 68.1679 286.966 70.436C286.966 72.7042 287.303 74.8191 287.977 76.7808C288.712 78.6812 289.754 80.367 291.102 81.8382C292.451 83.2481 294.044 84.3822 295.882 85.2405C297.782 86.0374 299.896 86.4358 302.225 86.4358C304.554 86.4358 306.638 86.0374 308.476 85.2405C310.376 84.3822 312 83.2481 313.348 81.8382C314.696 80.367 315.707 78.6812 316.382 76.7808C317.117 74.8191 317.485 72.7042 317.485 70.436ZM337.836 22.4366H345.006V55.1718H345.19C347.151 52.8424 349.418 51.034 351.992 49.7466C354.627 48.4593 357.508 47.8156 360.633 47.8156C364.004 47.8156 367.068 48.398 369.825 49.5627C372.644 50.6661 375.034 52.2293 376.995 54.2523C378.957 56.2753 380.489 58.666 381.592 61.4246C382.695 64.1832 383.245 67.187 383.245 70.436C383.245 73.685 382.695 76.6888 381.592 79.4474C380.489 82.206 378.957 84.5968 376.995 86.6197C375.096 88.6427 372.828 90.2366 370.193 91.4013C367.558 92.5047 364.739 93.0565 361.736 93.0565C357.875 93.0565 354.474 92.2289 351.532 90.5737C348.652 88.8573 346.538 86.773 345.19 84.3209H345.006V91.953H337.836V22.4366ZM345.006 70.436C345.006 72.7042 345.343 74.8191 346.017 76.7808C346.752 78.6812 347.794 80.367 349.142 81.8382C350.491 83.2481 352.084 84.3822 353.922 85.2405C355.822 86.0374 357.936 86.4358 360.265 86.4358C362.594 86.4358 364.678 86.0374 366.516 85.2405C368.416 84.3822 370.04 83.2481 371.388 81.8382C372.736 80.367 373.747 78.6812 374.422 76.7808C375.157 74.8191 375.525 72.7042 375.525 70.436C375.525 68.1679 375.157 66.0836 374.422 64.1832C373.747 62.2216 372.736 60.5358 371.388 59.1258C370.04 57.6546 368.416 56.5205 366.516 55.7236C364.678 54.8653 362.594 54.4362 360.265 54.4362C357.936 54.4362 355.822 54.8653 353.922 55.7236C352.084 56.5205 350.491 57.6546 349.142 59.1258C347.794 60.5358 346.752 62.2216 346.017 64.1832C345.343 66.0836 345.006 68.1679 345.006 70.436ZM394.59 59.1258C394.59 57.1642 394.529 55.3251 394.406 53.6086C394.283 51.8922 394.222 50.329 394.222 48.919H401.025C401.025 50.0838 401.055 51.2485 401.116 52.4132C401.178 53.578 401.208 54.7734 401.208 55.9994H401.392C401.883 54.9573 402.557 53.9458 403.415 52.965C404.334 51.9841 405.406 51.1259 406.632 50.3903C407.858 49.5934 409.236 48.9803 410.769 48.5512C412.301 48.0608 413.955 47.8156 415.732 47.8156C416.223 47.8156 416.713 47.8462 417.203 47.9075C417.694 47.9689 418.184 48.0915 418.674 48.2754L418.214 55.5396C416.989 55.1718 415.702 54.9879 414.354 54.9879C409.941 54.9879 406.724 56.4285 404.702 59.3097C402.74 62.1296 401.76 66.0223 401.76 70.9877V91.953H394.59V59.1258ZM427.744 48.919H434.914V91.953H427.744V48.919ZM426.089 32.0916C426.089 30.6817 426.58 29.4557 427.56 28.4135C428.602 27.3714 429.858 26.8503 431.329 26.8503C432.8 26.8503 434.025 27.3714 435.006 28.4135C436.048 29.4557 436.569 30.6817 436.569 32.0916C436.569 33.6242 436.078 34.8809 435.098 35.8617C434.117 36.8425 432.861 37.333 431.329 37.333C429.797 37.333 428.541 36.8425 427.56 35.8617C426.58 34.8809 426.089 33.6242 426.089 32.0916ZM485.132 84.3209H484.948C483.6 86.773 481.455 88.8573 478.513 90.5737C475.633 92.2289 472.262 93.0565 468.401 93.0565C465.399 93.0565 462.58 92.5047 459.944 91.4013C457.309 90.2366 455.011 88.6427 453.05 86.6197C451.15 84.5968 449.649 82.206 448.546 79.4474C447.443 76.6888 446.891 73.685 446.891 70.436C446.891 67.187 447.443 64.1832 448.546 61.4246C449.649 58.666 451.181 56.2753 453.142 54.2523C455.103 52.2293 457.462 50.6661 460.22 49.5627C463.039 48.398 466.134 47.8156 469.505 47.8156C472.63 47.8156 475.48 48.4593 478.053 49.7466C480.689 51.034 482.987 52.8424 484.948 55.1718H485.132V22.4366H492.302V91.953H485.132V84.3209ZM485.132 70.436C485.132 68.1679 484.764 66.0836 484.029 64.1832C483.354 62.2216 482.343 60.5358 480.995 59.1258C479.647 57.6546 478.023 56.5205 476.123 55.7236C474.285 54.8653 472.201 54.4362 469.872 54.4362C467.543 54.4362 465.429 54.8653 463.529 55.7236C461.691 56.5205 460.098 57.6546 458.749 59.1258C457.401 60.5358 456.359 62.2216 455.624 64.1832C454.95 66.0836 454.613 68.1679 454.613 70.436C454.613 72.7042 454.95 74.8191 455.624 76.7808C456.359 78.6812 457.401 80.367 458.749 81.8382C460.098 83.2481 461.691 84.3822 463.529 85.2405C465.429 86.0374 467.543 86.4358 469.872 86.4358C472.201 86.4358 474.285 86.0374 476.123 85.2405C478.023 84.3822 479.647 83.2481 480.995 81.8382C482.343 80.367 483.354 78.6812 484.029 76.7808C484.764 74.8191 485.132 72.7042 485.132 70.436ZM548.69 90.022C548.69 97.8687 546.667 103.815 542.623 107.861C538.639 111.968 532.848 114.022 525.249 114.022C521.021 114.022 517.19 113.409 513.759 112.183C510.388 110.957 507.171 108.842 504.106 105.838L509.254 99.9529C511.522 102.405 513.912 104.244 516.424 105.47C518.998 106.757 521.94 107.401 525.249 107.401C528.436 107.401 531.071 106.911 533.155 105.93C535.299 105.01 536.985 103.723 538.21 102.068C539.436 100.474 540.294 98.635 540.784 96.5507C541.275 94.4664 541.52 92.2902 541.52 90.022V84.5048H541.336C539.62 87.2634 537.383 89.2864 534.625 90.5737C531.868 91.8611 529.049 92.5047 526.168 92.5047C522.798 92.5047 519.703 91.953 516.884 90.8496C514.065 89.7462 511.644 88.2136 509.622 86.2519C507.6 84.2903 506.037 81.9608 504.934 79.2635C503.831 76.5662 503.279 73.6237 503.279 70.436C503.279 66.9418 503.831 63.7848 504.934 60.9649C506.037 58.145 507.569 55.7849 509.53 53.8845C511.552 51.9228 513.973 50.4209 516.792 49.3788C519.611 48.3367 522.736 47.8156 526.168 47.8156C527.639 47.8156 529.11 47.9995 530.581 48.3673C532.051 48.6738 533.461 49.1949 534.809 49.9305C536.219 50.6048 537.475 51.4937 538.578 52.5972C539.681 53.6393 540.6 54.8653 541.336 56.2753H541.52V48.919H548.69V90.022ZM511.001 70.436C511.001 72.6429 511.399 74.6965 512.196 76.5969C512.992 78.4359 514.065 80.0604 515.413 81.4704C516.823 82.819 518.447 83.8918 520.285 84.6887C522.124 85.4857 524.085 85.8841 526.168 85.8841C528.62 85.8841 530.795 85.455 532.695 84.5968C534.595 83.7386 536.188 82.6045 537.475 81.1945C538.823 79.7233 539.834 78.0681 540.509 76.2291C541.183 74.3287 541.52 72.3364 541.52 70.2521C541.52 67.9227 541.152 65.8077 540.417 63.9074C539.681 61.9457 538.639 60.2599 537.291 58.85C535.943 57.44 534.319 56.3672 532.419 55.6316C530.519 54.8347 528.436 54.4362 526.168 54.4362C523.901 54.4362 521.817 54.8653 519.917 55.7236C518.079 56.5205 516.486 57.6546 515.137 59.1258C513.85 60.5358 512.839 62.2216 512.104 64.1832C511.368 66.0836 511.001 68.1679 511.001 70.436ZM600.574 84.137C598 87.4473 595.181 89.7768 592.116 91.1255C589.052 92.4128 585.498 93.0565 581.453 93.0565C578.083 93.0565 575.049 92.4741 572.353 91.3094C569.656 90.0833 567.358 88.4588 565.458 86.4358C563.62 84.4129 562.18 82.0221 561.138 79.2635C560.157 76.5049 559.667 73.5624 559.667 70.436C559.667 67.1257 560.219 64.0913 561.322 61.3327C562.425 58.5128 563.957 56.122 565.918 54.1604C567.879 52.1374 570.208 50.5742 572.904 49.4708C575.601 48.3673 578.542 47.8156 581.729 47.8156C584.732 47.8156 587.49 48.3367 590.002 49.3788C592.515 50.3596 594.66 51.8309 596.437 53.7925C598.275 55.6929 599.685 58.053 600.666 60.8729C601.646 63.6315 602.136 66.7886 602.136 70.3441V72.6429H567.389C567.511 74.482 567.94 76.2597 568.676 77.9762C569.472 79.6313 570.484 81.1026 571.709 82.3899C572.935 83.616 574.375 84.5968 576.03 85.3324C577.684 86.068 579.492 86.4358 581.453 86.4358C584.579 86.4358 587.214 85.8841 589.359 84.7807C591.504 83.6773 593.434 82.0528 595.15 79.9072L600.574 84.137ZM594.415 66.574C594.292 62.8959 593.097 59.9534 590.83 57.7465C588.562 55.5396 585.437 54.4362 581.453 54.4362C577.47 54.4362 574.252 55.5396 571.801 57.7465C569.35 59.9534 567.879 62.8959 567.389 66.574H594.415Z" fill="#060606"/>
</svg>
