<svg xmlns="http://www.w3.org/2000/svg" viewBox="0 0 283.46 215.15"><g style="isolation:isolate"><path d="M191.94,142.1c-9.12,1.48-13.79,8.22-13.79,20.07s6.21,19.92,15.74,19.92c4.43,0,8.46-1.48,16.92-5.63v9.65c-10.16,4.66-16.14,6.11-24.32,6.11-8.87,0-15.1-2.36-20.19-7.55a27.29,27.29,0,0,1-7.83-19.79c0-17.08,12.64-28.63,31.11-28.63,12.27,0,20.7,5.6,20.7,13.83,0,5.3-3.92,8.95-9.75,8.95a16,16,0,0,1-8.59-2.61Z" fill="#231f20"/><path d="M146.92,164.88C155.1,154.57,158,150.41,158,145.35a9.1,9.1,0,0,0-9.35-9.1,10.81,10.81,0,0,0-7.7,3.17v21l-13.41,17.86V137.57H114.79L93.61,172.69V137.57H86.29l-19.23,4.69v4.91l10.49,1.07V191.3H91.1l20.32-33.38V191.3h14.85Z" fill="#231f20"/><path d="M26.57,184.67c1.45.07,2.08.07,3,.07,10.92,0,16.77-6.81,16.77-19.86,0-11-4.79-16.92-13.62-16.92a53,53,0,0,0-6.14.56Zm0,23.54,8.79,1.95v5H.88v-5l7.86-1.95V148H0v-5.17l21.1-6.41h5.47v7.2c9.88-5.88,13.28-6.92,18.35-6.92,11.7,0,20.34,10.79,20.34,25.74,0,17.28-11.53,28.9-29.69,28.9a82.68,82.68,0,0,1-9-.53Z" fill="#231f20"/><rect x="180.36" y="65.99" width="103.11" height="26.39" fill="#f0659d" style="mix-blend-mode:multiply"/><rect x="180.36" y="10.31" width="63.01" height="82.07" fill="#fab383" style="mix-blend-mode:multiply"/><rect x="180.36" width="52.65" height="92.38" fill="#f7942f" style="mix-blend-mode:multiply"/><rect x="180.36" y="26.38" width="89.71" height="66" fill="#fdb924" style="mix-blend-mode:multiply"/><rect x="180.36" y="52.77" width="32.93" height="39.62" fill="#c8a68c" style="mix-blend-mode:multiply"/><rect x="127.56" y="92.38" width="52.79" height="13.2" fill="#c22c25"/></g></svg>