<?xml version="1.0" encoding="UTF-8"?>
<svg width="674px" height="387px" viewBox="0 0 674 387" version="1.1" xmlns="http://www.w3.org/2000/svg" xmlns:xlink="http://www.w3.org/1999/xlink">
    <title>Novarium_Logos_-07</title>
    <g id="Page-1" stroke="none" stroke-width="1" fill="none" fill-rule="evenodd">
        <g id="Novarium_Logos_-07">
            <polyline id="Fill-1" fill="#1C3A3E" points="90.707 385.106 79.895 385.106 15.705 293.213 11.147 286.287 11.147 385.106 1.42108547e-14 385.106 1.42108547e-14 266.866 10.643 266.866 74.496 358.248 79.559 365.68 79.559 266.866 90.707 266.866 90.707 385.106"></polyline>
            <path d="M121.621,342.707 C121.621,362.133 134.127,376.998 153.211,376.998 C172.135,376.998 184.293,362.133 184.293,342.707 C184.293,323.116 172.135,308.416 153.211,308.416 C134.127,308.416 121.621,323.116 121.621,342.707 Z M195.104,342.707 C195.104,368.047 178.219,386.965 153.045,386.965 C127.705,386.965 110.813,368.047 110.813,342.707 C110.813,317.201 127.705,298.453 153.045,298.453 C178.219,298.453 195.104,317.201 195.104,342.707 L195.104,342.707 Z" id="Fill-2" fill="#1C3A3E"></path>
            <polyline id="Fill-3" fill="#1C3A3E" points="248.321 385.106 238.014 385.106 204.571 300.313 215.883 300.313 241.395 366.018 243.082 371.932 244.94 366.018 270.278 300.313 281.772 300.313 248.321 385.106"></polyline>
            <path d="M317.918,349.633 C309.811,351.662 303.729,355.041 303.729,364.158 C303.729,372.102 308.961,376.998 318.256,376.998 C326.532,376.998 333.287,373.449 337.85,367.877 C341.227,363.489 343.424,357.233 343.424,351.157 L343.424,344.059 L317.918,349.633 Z M354.239,328.52 L354.239,385.106 L344.102,385.106 L343.762,372.776 C339.539,380.379 330.08,386.965 316.903,386.965 C302.207,386.965 292.918,377.676 292.918,364.332 C292.918,350.141 302.041,343.045 315.887,340.174 L343.424,334.43 L343.424,328.86 C343.424,314.668 336.498,308.416 325.184,308.416 C314.373,308.416 305.926,314.326 305.926,326.66 L295.285,326.66 C295.453,310.782 307.108,298.453 325.184,298.453 C343.928,298.453 354.239,309.43 354.239,328.52 L354.239,328.52 Z" id="Fill-4" fill="#1C3A3E"></path>
            <path d="M417.078,309.938 C410.489,309.938 404.403,312.135 399.848,316.864 C394.948,321.594 391.739,329.026 391.739,339.162 L391.739,385.106 L381.098,385.106 L381.098,300.313 L391.063,300.313 L391.405,315.682 C394.276,307.908 402.383,299.465 417.078,299.465 L417.078,309.938" id="Fill-5" fill="#1C3A3E"></path>
            <path d="M440.559,277.949 C437.912,277.949 435.927,275.869 435.927,273.414 C435.927,270.863 437.912,268.783 440.559,268.783 C443.11,268.783 445.185,270.863 445.185,273.414 C445.185,275.869 443.11,277.949 440.559,277.949 Z M440.561,260.766 C433.284,260.766 427.825,266.48 427.825,273.497 C427.825,280.248 433.284,285.968 440.561,285.968 C447.578,285.968 453.287,280.248 453.287,273.497 C453.287,266.48 447.578,260.766 440.561,260.766 L440.561,260.766 Z" id="Fill-6" fill="#76C19F"></path>
            <polygon id="Fill-7" fill="#1C3A3E" points="435.155 385.106 445.795 385.106 445.795 300.313 435.155 300.313"></polygon>
            <path d="M533.637,385.106 L523.67,385.106 L523.332,372.44 C520.289,379.869 511.508,386.965 499.344,386.965 C480.932,386.965 471.981,373.621 471.981,355.041 L471.981,300.313 L482.619,300.313 L482.619,354.026 C482.619,369.059 489.553,376.832 501.205,376.832 C513.703,376.832 522.996,366.018 522.996,348.282 L522.996,300.313 L533.637,300.313 L533.637,385.106" id="Fill-8" fill="#1C3A3E"></path>
            <path d="M673.842,330.373 L673.842,385.106 L663.203,385.106 L663.203,331.389 C663.203,316.528 656.106,308.756 644.625,308.756 C632.289,308.756 622.83,319.231 622.493,336.629 L622.493,385.106 L612.014,385.106 L612.014,331.389 C612.014,316.528 604.756,308.756 593.268,308.756 C580.606,308.756 571.311,319.735 571.311,337.977 L571.311,385.106 L560.664,385.106 L560.664,300.313 L570.465,300.313 L570.969,313.145 C574.014,305.883 582.961,298.453 594.961,298.453 C607.967,298.453 616.237,305.205 620.129,315.682 C624.012,307.405 632.797,298.453 646.311,298.453 C664.725,298.453 673.842,311.793 673.842,330.373" id="Fill-9" fill="#1C3A3E"></path>
            <path d="M351.119,21.914 C351.119,24.362 350.493,26.659 349.397,28.66 C379.627,33.893 403.51,57.854 408.62,88.129 C410.627,87.027 412.93,86.395 415.381,86.394 C417.008,86.394 418.563,86.685 420.016,87.194 C414.401,51.373 386.091,22.993 350.313,17.262 C350.826,18.721 351.118,20.282 351.119,21.914" id="Fill-10" fill="#76C19F"></path>
            <path d="M258.463,86.394 C260.956,86.394 263.295,87.049 265.327,88.19 C267.793,73.391 274.773,59.738 285.619,48.891 C296.405,38.106 309.965,31.144 324.668,28.638 C323.579,26.641 322.961,24.35 322.961,21.914 C322.961,20.274 323.256,18.705 323.771,17.243 C287.946,22.926 259.586,51.313 253.953,87.147 C255.371,86.668 256.884,86.395 258.463,86.394" id="Fill-11" fill="#76C19F"></path>
            <path d="M415.391,114.557 C412.907,114.559 410.577,113.91 408.55,112.782 C403.302,142.854 379.518,166.619 349.432,171.836 C350.505,173.823 351.117,176.096 351.119,178.51 C351.119,180.174 350.817,181.762 350.287,183.242 C385.92,177.555 414.14,149.399 419.93,113.795 C418.504,114.282 416.981,114.559 415.391,114.557" id="Fill-12" fill="#76C19F"></path>
            <path d="M322.961,178.51 C322.961,176.106 323.567,173.836 324.635,171.856 C294.488,166.67 270.645,142.858 265.407,112.723 C263.358,113.886 260.996,114.559 258.473,114.557 C256.924,114.559 255.44,114.299 254.045,113.838 C259.863,149.457 288.127,177.614 323.799,183.258 C323.266,181.774 322.961,180.18 322.961,178.51" id="Fill-13" fill="#76C19F"></path>
            <path d="M416.855,171.742 C414.643,171.742 412.573,172.6 411.015,174.158 C409.465,175.709 408.614,177.77 408.615996,179.959 C408.614,182.164 409.466,184.227 411.02,185.783 C412.575,187.342 414.645,188.199 416.846,188.199 L416.864,188.199 C421.39,188.199 425.074,184.51 425.074,179.975 C425.074,175.434 421.387,171.742 416.855,171.742 Z M416.864,200.416 L416.84,200.416 C411.379,200.416 406.24,198.285 402.374,194.416 C398.515,190.551 396.391,185.418 396.396987,179.959 C396.391,174.516 398.512,169.385 402.371,165.524 C406.237,161.653 411.377,159.524 416.846,159.524 C428.123,159.524 437.291,168.699 437.291,179.975 C437.291,191.246 428.126,200.416 416.864,200.416 L416.864,200.416 Z" id="Fill-14" fill="#76C19F"></path>
            <path d="M337.01,69.353 C319.922,69.353 306.068,83.213 306.068,100.248 C306.068,117.297 319.934,131.167 336.981,131.167 C345.235,131.167 352.996,127.951 358.832,122.112 C364.67,116.271 367.884,108.508 367.879006,100.252 C367.879006,83.213 354.032,69.353 337.01,69.353 Z M336.981,143.387 C313.198,143.387 293.848,124.034 293.848,100.248 C293.848,76.475 313.184,57.134 336.952,57.134 C360.769,57.134 380.098003,76.475 380.098003,100.248 C380.102,111.767 375.619,122.6 367.475,130.748 C359.328,138.898 348.5,143.387 336.981,143.387 L336.981,143.387 Z" id="Fill-15" fill="#76C19F"></path>
            <path d="M257.01,12.218 C254.802,12.218 252.733,13.074 251.178,14.63 C249.622,16.184 248.766,18.25 248.767996,20.448 C248.766,22.651 249.621,24.715 251.176,26.271 C252.731,27.825 254.797,28.682 256.993,28.682 L257.01,34.791 L257.008,28.682 C261.541,28.682 265.23,24.987 265.23,20.448 C265.23,15.909 261.541,12.218 257.01,12.218 Z M257.01,40.901 L256.997,40.901 C251.533,40.901 246.397,38.772 242.535,34.908 C238.672,31.044 236.547,25.908 236.548999,20.448 C236.547,14.991 238.674,9.854 242.539,5.989 C246.404,2.126 251.539,0 257,0 C268.28,0 277.448,9.172 277.448,20.448 C277.448,31.723 268.28,40.899 257.01,40.901 L257.01,40.901 Z" id="Fill-16" fill="#76C19F"></path>
            <path d="M256.996,171.731 C252.457,171.731 248.763,175.426 248.763,179.963 C248.763,182.162 249.619,184.229 251.176,185.787 C252.731,187.342 254.799,188.199 256.996,188.199 L257.013,188.199 C261.543,188.199 265.23,184.508 265.23,179.971 C265.23,175.426 261.535,171.731 256.996,171.731 Z M257.013,200.416 L257.002,200.416 C251.535,200.416 246.399,198.289 242.535,194.424 C238.672,190.561 236.544,185.426 236.544,179.963 C236.544,168.69 245.719,159.516 256.994,159.512 C268.274,159.512 277.448,168.69 277.448,179.971 C277.448,191.244 268.28,200.416 257.013,200.416 L257.013,200.416 Z" id="Fill-17" fill="#76C19F"></path>
            <path d="M256.996,92.245 C252.458,92.248 248.763,95.941 248.763,100.479 C248.763,102.678 249.619,104.746 251.176,106.303 C252.733,107.86 254.799,108.716 256.996,108.715001 L257.013,108.715001 C261.543,108.715001 265.23,105.026 265.23,100.487 C265.23,95.942 261.535,92.245 256.996,92.245 Z M257.013,120.934 L257.002,120.934 C251.535,120.934 246.399,118.807 242.535,114.94 C238.672,111.076 236.544,105.941 236.544,100.479 C236.544,89.208 245.719,80.033 256.993,80.027 C268.274,80.027 277.448,89.205 277.448,100.487 C277.448,111.761 268.282,120.934 257.013,120.934 L257.013,120.934 Z" id="Fill-18" fill="#76C19F"></path>
            <path d="M416.846,92.245 C412.31,92.248 408.616,95.941 408.616,100.479 C408.616,102.678 409.472,104.746 411.029,106.303 C412.582,107.86 414.649,108.716 416.846,108.715001 L416.864,108.715001 C421.395,108.715001 425.079,105.026 425.079,100.487 C425.079,95.942 421.387,92.245 416.846,92.245 Z M416.864,120.934 L416.852,120.934 C411.385,120.934 406.25,118.805 402.386,114.94 C398.524,111.075 396.397,105.941 396.397,100.479 C396.397,89.208 405.57,80.033 416.843,80.027 C428.123,80.027 437.298,89.205 437.298,100.487 C437.298,111.761 428.131,120.934 416.864,120.934 L416.864,120.934 Z" id="Fill-19" fill="#76C19F"></path>
            <path d="M416.846,12.218 C414.648,12.218 412.579,13.074 411.024,14.629 C409.471,16.184 408.614,18.25 408.615996,20.448 C408.614,22.651 409.469,24.714 411.024,26.266 C412.577,27.818 414.645,28.674 416.844,28.674 C421.385,28.672 425.079,24.982 425.079,20.451 C425.075,15.913 421.382,12.218 416.846,12.218 Z M416.849,40.893 L416.846,40.893 C411.384,40.893 406.248,38.768 402.386,34.908 C398.522,31.046 396.395,25.91 396.396999,20.448 C396.395,14.991 398.521,9.854 402.385,5.991 C406.248,2.126 411.384,0 416.846,0 C428.114,0 437.288,9.171 437.298,20.446 C437.298,31.715 428.125,40.887 416.85,40.893 L416.849,40.893 L416.849,40.893 Z" id="Fill-20" fill="#76C19F"></path>
            <path d="M337.041,12.218 C334.841,12.218 332.773,13.074 331.217,14.629 C329.662,16.184 328.807,18.25 328.807999,20.448 C328.807,22.651 329.662,24.712 331.215,26.266 C332.77,27.818 334.838,28.674 337.039,28.674 C341.58,28.672 345.275,24.982 345.275,20.451 C345.27,15.913 341.577,12.218 337.041,12.218 Z M337.043,40.893 L337.041,40.893 C331.578,40.893 326.442,38.768 322.58,34.908 C318.715,31.046 316.586,25.91 316.589994,20.448 C316.586,14.991 318.713,9.854 322.578,5.989 C326.441,2.126 331.578,0 337.041,0 C348.305,0 357.481,9.171 357.493,20.444 C357.493,31.715 348.321,40.887 337.045,40.893 L337.043,40.893 L337.043,40.893 Z" id="Fill-21" fill="#76C19F"></path>
            <path d="M337.041,171.742 C334.841,171.742 332.774,172.598 331.217,174.155 C329.662,175.709 328.807,177.774 328.807999,179.971 C328.807,182.174 329.662,184.239 331.215,185.789 C332.77,187.342 334.838,188.199 337.039,188.199 C341.58,188.196 345.275,184.508 345.275,179.975 C345.27,175.44 341.577,171.742 337.041,171.742 Z M337.043,200.416 L337.041,200.416 C331.578,200.416 326.442,198.293 322.58,194.432 C318.715,190.571 316.586,185.434 316.589994,179.971 C316.586,174.516 318.713,169.379 322.578,165.516 C326.441,161.653 331.578,159.524 337.041,159.524 C348.305,159.524 357.481,168.696 357.493,179.969 C357.493,191.241 348.321,200.41 337.045,200.416 L337.043,200.416 L337.043,200.416 Z" id="Fill-22" fill="#76C19F"></path>
        </g>
    </g>
</svg>