<svg xmlns="http://www.w3.org/2000/svg" viewBox="0 0 1005.87 320.51"><path d="M266.94,0H53.57C22.44,0,0,22.44,0,52.2s22.44,52.2,53.57,52.2h53.12V265.11c0,34.8,23.8,55.4,53.57,55.4s53.57-20.6,53.57-55.4V104.4h53.11c31.14,0,53.57-22.44,53.57-52.2S298.08,0,266.94,0Z" fill="#027af1"/><path d="M470.61,36.63C457.79,11.45,440.85,0,419.33,0c-30.68,0-53.57,23.35-53.57,52.66,0,10.53,2.29,20.14,8.24,31.59l99.82,199.63c12.82,25.18,29.76,36.63,51.28,36.63,30.68,0,53.57-23.35,53.57-52.65,0-10.53-2.29-20.15-8.24-31.6Z" fill="#027af1"/><circle cx="632.24" cy="54.49" r="54.49" transform="translate(-0.56 101.98) rotate(-9.22)" fill="#027af1"/><circle cx="739.39" cy="266.03" r="54.49" transform="translate(28.45 600.74) rotate(-45)" fill="#027af1"/><path d="M997.63,236.26,897.81,36.63C885,11.45,868.05,0,846.53,0,815.85,0,793,23.35,793,52.66c0,10.53,2.29,20.14,8.24,31.59L901,283.88c12.82,25.19,29.76,36.63,51.28,36.63,30.67,0,53.57-23.35,53.57-52.65C1005.87,257.33,1003.58,247.71,997.63,236.26Z" fill="#027af1"/></svg>