<svg xmlns="http://www.w3.org/2000/svg" viewBox="0 0 138.45 40.31"><rect x="52.29" y="8.59" width="0.85" height="23.07" fill="#f0493e"/><rect x="52.29" y="8.59" width="0.85" height="23.07" fill="#f0493e"/><path d="M65.12,26V14h1.52V24.55h5.82V26Z" fill="#f0493e"/><path d="M75.27,26V14h8.09v1.39H76.79V19h5.77v1.42H76.79v4.14h6.57V26Z" fill="#f0493e"/><path d="M98.83,24.9a4.78,4.78,0,0,1-6.53,0c-1.31-1.26-1.52-3-1.52-4.93S91,16.3,92.3,15a4.73,4.73,0,0,1,3.28-1.28A4.66,4.66,0,0,1,98.81,15a4.13,4.13,0,0,1,1.2,2.74H98.43a2.55,2.55,0,0,0-.66-1.67,2.94,2.94,0,0,0-2.19-.88,3.09,3.09,0,0,0-2.2.91c-1,1-1,2.64-1,3.89s0,2.87,1,3.89a3.09,3.09,0,0,0,2.2.91,3,3,0,0,0,2.2-.91,2.72,2.72,0,0,0,.67-1.73H100A4.11,4.11,0,0,1,98.83,24.9Z" fill="#f0493e"/><path d="M110.2,26l-1-2.84H104L103,26h-1.54l4.27-12h1.78l4.29,12Zm-3.63-10.48-2.14,6.22h4.29Z" fill="#f0493e"/><path d="M124.64,26V15.85l-3.76,9.93h-1.19l-3.76-10V26h-1.45V14h2.18l3.66,9.75L124,14h2.13V26Z" fill="#f0493e"/><path d="M137.44,20.31a4.09,4.09,0,0,1-3,1h-3V26H130V14h4.49a4,4,0,0,1,3.07,1.08,3.66,3.66,0,0,1,.93,2.54A3.68,3.68,0,0,1,137.44,20.31Zm-3-5h-2.93v4.6h3c1.62,0,2.44-.75,2.44-2.35S135.92,15.34,134.41,15.34Z" fill="#f0493e"/><path d="M65.12,26V14h1.52V24.55h5.82V26Z" fill="#f0493e"/><path d="M75.27,26V14h8.09v1.39H76.79V19h5.77v1.42H76.79v4.14h6.57V26Z" fill="#f0493e"/><path d="M98.83,24.9a4.78,4.78,0,0,1-6.53,0c-1.31-1.26-1.52-3-1.52-4.93S91,16.3,92.3,15a4.73,4.73,0,0,1,3.28-1.28A4.66,4.66,0,0,1,98.81,15a4.13,4.13,0,0,1,1.2,2.74H98.43a2.55,2.55,0,0,0-.66-1.67,2.94,2.94,0,0,0-2.19-.88,3.09,3.09,0,0,0-2.2.91c-1,1-1,2.64-1,3.89s0,2.87,1,3.89a3.09,3.09,0,0,0,2.2.91,3,3,0,0,0,2.2-.91,2.72,2.72,0,0,0,.67-1.73H100A4.11,4.11,0,0,1,98.83,24.9Z" fill="#f0493e"/><path d="M110.2,26l-1-2.84H104L103,26h-1.54l4.27-12h1.78l4.29,12Zm-3.63-10.48-2.14,6.22h4.29Z" fill="#f0493e"/><path d="M124.64,26V15.85l-3.76,9.93h-1.19l-3.76-10V26h-1.45V14h2.18l3.66,9.75L124,14h2.13V26Z" fill="#f0493e"/><path d="M137.44,20.31a4.09,4.09,0,0,1-3,1h-3V26H130V14h4.49a4,4,0,0,1,3.07,1.08,3.66,3.66,0,0,1,.93,2.54A3.68,3.68,0,0,1,137.44,20.31Zm-3-5h-2.93v4.6h3c1.62,0,2.44-.75,2.44-2.35S135.92,15.34,134.41,15.34Z" fill="#f0493e"/><path d="M20.15,0A20.16,20.16,0,1,0,40.31,20.15,20.17,20.17,0,0,0,20.15,0Zm0,38.73A18.58,18.58,0,1,1,38.73,20.15,18.6,18.6,0,0,1,20.15,38.73Z" fill="#f0493e"/><path d="M7.16,29.72h26L20.15,6.1Zm2.16-1.27,10.83-12L31,28.45ZM20.15,14.53l-8.14,9L20.15,8.73,28.3,23.55Z" fill="#f0493e"/></svg>