<?xml version="1.0" encoding="UTF-8" standalone="no"?>
<svg
   xmlns:dc="http://purl.org/dc/elements/1.1/"
   xmlns:cc="http://creativecommons.org/ns#"
   xmlns:rdf="http://www.w3.org/1999/02/22-rdf-syntax-ns#"
   xmlns:svg="http://www.w3.org/2000/svg"
   xmlns="http://www.w3.org/2000/svg"
   viewBox="0 0 606.53467 218.62399"
   height="218.62399"
   width="606.53467"
   xml:space="preserve"
   id="svg2"
   version="1.1"><metadata
     id="metadata8"><rdf:RDF><cc:Work
         rdf:about=""><dc:format>image/svg+xml</dc:format><dc:type
           rdf:resource="http://purl.org/dc/dcmitype/StillImage" /></cc:Work></rdf:RDF></metadata><defs
     id="defs6"><clipPath
       id="clipPath18"
       clipPathUnits="userSpaceOnUse"><path
         id="path16"
         d="M 0,163.968 H 454.901 V 0 H 0 Z" /></clipPath></defs><g
     transform="matrix(1.3333333,0,0,-1.3333333,0,218.624)"
     id="g10"><g
       id="g12"><g
         clip-path="url(#clipPath18)"
         id="g14"><g
           transform="translate(42.8779,130.4381)"
           id="g20"><path
             id="path22"
             style="fill:#000044;fill-opacity:1;fill-rule:nonzero;stroke:none"
             d="m 0,0 c -1.925,-1.269 -5.522,-1.884 -10.995,-1.883 l -8.319,0.003 c -0.303,0 -0.548,0.246 -0.547,0.548 l 0.005,16.478 c 0,0.302 0.245,0.547 0.548,0.547 l 8.319,-0.003 C -5.366,15.688 -1.731,15.067 0.123,13.792 2.039,12.473 3.009,10.146 3.008,6.872 3.007,3.628 1.995,1.316 0,0 m 15.127,28.339 c -2.752,1.824 -6.204,3.138 -10.258,3.902 -4.115,0.845 -9.787,1.274 -16.868,1.276 l -30.305,0.011 c -0.302,0 -0.547,-0.245 -0.548,-0.547 l -0.026,-76.198 c 0,-0.302 0.245,-0.547 0.547,-0.547 h 21.908 c 0.302,0 0.547,0.245 0.547,0.547 l 0.008,23.016 c 0,0.302 0.245,0.547 0.547,0.547 l 15.325,-0.005 c 4.82,-0.002 9.126,0.588 12.798,1.752 3.643,1.155 6.746,2.866 9.224,5.084 2.468,2.209 4.364,4.991 5.636,8.271 1.28,3.302 1.93,7.143 1.932,11.416 0.002,4.89 -0.862,9.144 -2.568,12.645 -1.697,3.483 -4.355,6.454 -7.899,8.83" /></g><g
           transform="translate(100.514,117.9649)"
           id="g24"><path
             id="path26"
             style="fill:#000044;fill-opacity:1;fill-rule:nonzero;stroke:none"
             d="m 0,0 h 30.776 c 0.302,0 0.547,0.245 0.547,0.547 l 0.006,15.503 c 0,0.302 -0.245,0.548 -0.547,0.548 H 0.006 c -0.302,0 -0.547,0.245 -0.547,0.547 l 0.003,8.927 c 0,0.302 0.245,0.547 0.547,0.547 h 36.605 c 0.302,0 0.547,0.245 0.547,0.547 v 18.289 c 0,0.302 -0.245,0.547 -0.547,0.547 h -59.6 c -0.302,0 -0.547,-0.245 -0.547,-0.547 l 0.001,-76.2 c 0,-0.302 0.245,-0.547 0.547,-0.547 h 61.13 c 0.302,0 0.547,0.245 0.547,0.547 v 16.54 c 0,0.302 -0.245,0.547 -0.547,0.547 H -0.004 c -0.303,0 -0.548,0.245 -0.548,0.547 l 0.005,12.564 C -0.547,-0.245 -0.302,0 0,0" /></g><g
           transform="translate(170.2567,86.6737)"
           id="g28"><path
             id="path30"
             style="fill:#000044;fill-opacity:1;fill-rule:nonzero;stroke:none"
             d="m 0,0 h 21.889 c 0.302,0 0.547,0.245 0.547,0.547 v 54.971 c 0,0.302 0.245,0.547 0.547,0.547 h 21.123 c 0.303,0 0.548,0.245 0.548,0.547 v 20.135 c 0,0.302 -0.245,0.547 -0.548,0.547 h -66.779 c -0.302,0 -0.547,-0.245 -0.547,-0.547 V 56.612 c 0,-0.302 0.245,-0.547 0.547,-0.547 h 21.579 c 0.302,0 0.547,-0.245 0.547,-0.547 V 0.547 C -0.547,0.245 -0.302,0 0,0" /></g><g
           transform="translate(236.6921,112.8594)"
           id="g32"><path
             id="path34"
             style="fill:#000044;fill-opacity:1;fill-rule:nonzero;stroke:none"
             d="m 0,0 8.289,28.144 c 0.155,0.525 0.899,0.523 1.051,-0.003 l 8.103,-28.15 c 0.101,-0.35 -0.162,-0.699 -0.526,-0.698 L 0.525,-0.702 C 0.159,-0.702 -0.103,-0.35 0,0 m -3.622,50.742 -26.82,-76.2 c -0.125,-0.356 0.139,-0.729 0.516,-0.729 h 22.09 c 0.243,0 0.457,0.161 0.525,0.394 l 2.819,9.652 c 0.068,0.234 0.282,0.394 0.525,0.394 l 25.368,-0.009 c 0.245,0 0.46,-0.163 0.527,-0.399 l 2.712,-9.631 c 0.067,-0.236 0.282,-0.399 0.527,-0.399 h 22.289 c 0.377,0 0.641,0.373 0.516,0.729 L 21.205,50.742 c -0.077,0.219 -0.284,0.365 -0.516,0.365 H -3.106 c -0.232,0 -0.439,-0.146 -0.516,-0.365" /></g><g
           transform="translate(315.4868,163.9652)"
           id="g36"><path
             id="path38"
             style="fill:#000044;fill-opacity:1;fill-rule:nonzero;stroke:none"
             d="m 0,0 h -21.934 c -0.302,0 -0.547,-0.245 -0.547,-0.547 v -76.198 c 0,-0.302 0.245,-0.547 0.547,-0.547 h 56.299 c 0.302,0 0.547,0.245 0.547,0.547 v 20.47 c 0,0.303 -0.245,0.548 -0.547,0.548 H 1.094 c -0.303,0 -0.548,0.245 -0.548,0.547 L 0.547,-0.547 C 0.547,-0.245 0.302,0 0,0" /></g><g
           transform="translate(247.4155,0.256)"
           id="g40"><path
             id="path42"
             style="fill:#735bf5;fill-opacity:1;fill-rule:nonzero;stroke:none"
             d="m 0,0 h 21.956 c 0.302,0 0.547,0.245 0.547,0.547 v 62.254 c 0,0.302 -0.245,0.547 -0.547,0.547 h -63.087 c -0.302,0 -0.547,-0.245 -0.547,-0.547 l -0.024,-20.48 c 0,-0.303 0.245,-0.548 0.548,-0.548 h 40.033 c 0.306,0 0.554,-0.26 0.554,-0.566 L -0.544,0.555 C -0.544,0.248 -0.306,0 0,0" /></g><g
           transform="translate(303.4096,52.9517)"
           id="g44"><path
             id="path46"
             style="fill:#000044;fill-opacity:1;fill-rule:nonzero;stroke:none"
             d="m 0,0 c -0.363,-0.803 -0.865,-1.411 -1.506,-1.824 -0.641,-0.413 -1.379,-0.619 -2.215,-0.619 -0.836,10e-4 -1.575,0.207 -2.215,0.621 -0.641,0.413 -1.142,1.021 -1.505,1.825 -0.363,0.803 -0.544,1.788 -0.543,2.954 0,1.167 0.182,2.152 0.545,2.955 0.363,0.803 0.865,1.411 1.506,1.824 0.641,0.413 1.379,0.619 2.215,0.619 C -2.882,8.354 -2.143,8.148 -1.503,7.734 -0.862,7.321 -0.361,6.713 0.002,5.909 0.365,5.106 0.546,4.121 0.545,2.954 0.545,1.788 0.363,0.803 0,0 M 3.346,2.953 C 3.347,4.61 3.038,6.028 2.42,7.207 1.802,8.386 0.962,9.289 -0.102,9.915 c -1.063,0.626 -2.268,0.939 -3.615,0.94 -1.346,0 -2.552,-0.312 -3.615,-0.937 -1.064,-0.626 -1.906,-1.528 -2.524,-2.706 -0.619,-1.179 -0.928,-2.597 -0.929,-4.254 -10e-4,-1.652 0.308,-3.067 0.926,-4.246 0.618,-1.179 1.458,-2.083 2.522,-2.711 1.063,-0.629 2.268,-0.944 3.615,-0.944 1.346,-0.001 2.551,0.312 3.615,0.937 1.064,0.626 1.906,1.528 2.524,2.706 0.619,1.179 0.928,2.597 0.929,4.253" /></g><g
           transform="translate(314.8534,61.2634)"
           id="g48"><path
             id="path50"
             style="fill:#000044;fill-opacity:1;fill-rule:nonzero;stroke:none"
             d="M 0,0 C 0.696,0 1.264,-0.102 1.704,-0.305 2.145,-0.508 2.472,-0.803 2.688,-1.191 2.903,-1.579 3.01,-2.046 3.01,-2.591 3.01,-3.137 2.903,-3.596 2.69,-3.969 2.477,-4.342 2.151,-4.625 1.71,-4.817 1.27,-5.01 0.704,-5.106 0.013,-5.106 l -2.568,10e-4 0.002,5.106 z m -2.556,-7.418 2.835,-10e-4 3.02,-5.632 3.109,-10e-4 -3.331,6.102 c 0.099,0.04 0.205,0.074 0.299,0.12 0.811,0.392 1.426,0.95 1.844,1.674 0.419,0.723 0.628,1.577 0.628,2.563 0.001,0.982 -0.206,1.841 -0.618,2.58 C 4.817,0.725 4.209,1.3 3.406,1.711 2.602,2.121 1.61,2.327 0.429,2.328 l -5.767,0.002 -0.005,-15.378 2.786,-10e-4 z" /></g><g
           transform="translate(326.1873,48.9379)"
           id="g52"><path
             id="path54"
             style="fill:#000044;fill-opacity:1;fill-rule:nonzero;stroke:none"
             d="m 0,0 c 1.061,-0.626 2.267,-0.939 3.619,-0.94 0.916,0 1.749,0.136 2.5,0.409 0.751,0.272 1.407,0.652 1.968,1.14 0.561,0.488 1.015,1.052 1.363,1.693 0.348,0.64 0.575,1.326 0.68,2.057 L 7.322,4.375 C 7.237,3.924 7.083,3.524 6.86,3.174 6.637,2.823 6.364,2.528 6.041,2.288 5.719,2.048 5.355,1.867 4.953,1.744 4.549,1.621 4.118,1.56 3.657,1.56 2.826,1.561 2.089,1.765 1.446,2.173 0.803,2.581 0.298,3.187 -0.07,3.991 c -0.368,0.803 -0.551,1.793 -0.551,2.97 0.001,1.156 0.184,2.136 0.549,2.939 0.366,0.803 0.872,1.414 1.518,1.832 0.646,0.417 1.387,0.626 2.222,0.626 0.471,0 0.91,-0.064 1.318,-0.192 C 5.394,12.038 5.758,11.849 6.078,11.599 6.399,11.348 6.666,11.044 6.882,10.686 7.097,10.328 7.244,9.919 7.324,9.458 L 10.132,9.457 C 10.017,10.313 9.774,11.075 9.401,11.744 9.028,12.412 8.554,12.978 7.979,13.441 7.403,13.904 6.748,14.256 6.012,14.497 5.276,14.737 4.48,14.858 3.624,14.858 2.283,14.859 1.081,14.546 0.02,13.921 -1.042,13.295 -1.88,12.393 -2.496,11.215 -3.113,10.036 -3.421,8.618 -3.422,6.962 -3.422,5.31 -3.117,3.893 -2.507,2.711 -1.897,1.53 -1.061,0.626 0,0" /></g><g
           transform="translate(341.7406,54.7365)"
           id="g56"><path
             id="path58"
             style="fill:#000044;fill-opacity:1;fill-rule:nonzero;stroke:none"
             d="M 0,0 7.126,-0.002 7.123,-6.535 9.917,-6.536 9.922,8.842 7.129,8.843 7.126,2.333 0.001,2.335 0.003,8.845 -2.783,8.846 -2.788,-6.531 -0.002,-6.532 Z" /></g><g
           transform="translate(365.0116,50.5311)"
           id="g60"><path
             id="path62"
             style="fill:#000044;fill-opacity:1;fill-rule:nonzero;stroke:none"
             d="m 0,0 -7.276,0.003 0.002,4.197 6.697,-0.003 0.001,2.336 -6.697,0.002 10e-4,4.175 7.216,-0.003 v 2.335 l -10.001,0.004 -0.005,-15.378 10.061,-0.003 z" /></g><g
           transform="translate(376.1209,48.5338)"
           id="g64"><path
             id="path66"
             style="fill:#000044;fill-opacity:1;fill-rule:nonzero;stroke:none"
             d="M 0,0 C 0.869,0.383 1.533,0.915 1.994,1.599 2.455,2.282 2.685,3.074 2.686,3.975 2.686,4.641 2.561,5.221 2.311,5.717 2.061,6.213 1.722,6.636 1.294,6.986 0.866,7.337 0.383,7.627 -0.155,7.858 -0.693,8.088 -1.252,8.271 -1.833,8.406 l -1.441,0.361 c -0.316,0.076 -0.629,0.168 -0.939,0.278 -0.31,0.111 -0.593,0.247 -0.848,0.41 -0.255,0.163 -0.457,0.362 -0.605,0.597 -0.147,0.235 -0.221,0.513 -0.221,0.834 0.005,0.385 0.118,0.728 0.339,1.028 0.22,0.3 0.538,0.538 0.953,0.713 0.416,0.175 0.914,0.263 1.495,0.262 0.826,0 1.498,-0.183 2.016,-0.548 0.517,-0.366 0.811,-0.877 0.881,-1.532 l 2.681,-10e-4 c -0.015,0.866 -0.257,1.633 -0.728,2.301 -0.47,0.669 -1.117,1.192 -1.94,1.57 -0.823,0.378 -1.781,0.568 -2.872,0.568 -1.076,10e-4 -2.04,-0.188 -2.891,-0.566 -0.851,-0.377 -1.523,-0.907 -2.016,-1.587 -0.494,-0.681 -0.741,-1.474 -0.741,-2.38 0,-1.101 0.366,-1.984 1.099,-2.647 0.733,-0.664 1.733,-1.158 2.999,-1.484 l 1.75,-0.451 C -2.312,5.991 -1.83,5.832 -1.417,5.654 -1.004,5.477 -0.683,5.256 -0.453,4.993 -0.222,4.73 -0.105,4.399 -0.1,3.998 -0.105,3.558 -0.238,3.174 -0.498,2.846 -0.759,2.518 -1.118,2.263 -1.576,2.08 -2.034,1.898 -2.566,1.807 -3.172,1.807 c -0.58,0 -1.105,0.088 -1.573,0.263 -0.468,0.176 -0.847,0.441 -1.137,0.797 -0.29,0.355 -0.455,0.8 -0.495,1.336 l -2.741,10e-4 c 0.04,-1.021 0.306,-1.887 0.799,-2.598 0.493,-0.711 1.178,-1.252 2.057,-1.623 0.878,-0.37 1.915,-0.556 3.112,-0.556 C -1.919,-0.574 -0.869,-0.383 0,0" /></g><g
           transform="translate(384.6833,48.1891)"
           id="g68"><path
             id="path70"
             style="fill:#000044;fill-opacity:1;fill-rule:nonzero;stroke:none"
             d="M 0,0 2.763,-0.001 2.768,13.041 7.521,13.04 v 2.335 l -12.269,0.004 v -2.335 l 4.753,-0.002 z" /></g><g
           transform="translate(397.2329,61.2346)"
           id="g72"><path
             id="path74"
             style="fill:#000044;fill-opacity:1;fill-rule:nonzero;stroke:none"
             d="m 0,0 2.553,-0.001 c 0.696,0 1.264,-0.102 1.704,-0.305 0.441,-0.202 0.768,-0.498 0.984,-0.886 0.215,-0.388 0.322,-0.855 0.322,-1.4 0,-0.546 -0.107,-1.005 -0.32,-1.378 C 5.03,-4.343 4.704,-4.626 4.263,-4.818 3.823,-5.011 3.257,-5.107 2.566,-5.107 l -2.568,0.001 z M 8.961,-13.053 5.63,-6.951 c 0.099,0.04 0.205,0.074 0.299,0.12 0.811,0.393 1.426,0.95 1.844,1.674 0.418,0.723 0.628,1.577 0.628,2.564 0,0.981 -0.206,1.84 -0.618,2.579 C 7.37,0.724 6.762,1.299 5.959,1.71 5.155,2.121 4.163,2.326 2.982,2.327 l -5.767,0.002 -0.005,-15.378 2.785,-0.001 0.002,5.631 h 2.835 l 3.02,-5.633 z" /></g><g
           transform="translate(411.2038,54.7122)"
           id="g76"><path
             id="path78"
             style="fill:#000044;fill-opacity:1;fill-rule:nonzero;stroke:none"
             d="M 0,0 6.698,-0.002 V 2.333 L 0.001,2.335 0.002,6.51 7.218,6.507 7.219,8.843 -2.783,8.846 -2.788,-6.531 7.273,-6.535 7.274,-4.2 -0.001,-4.197 Z" /></g><g
           transform="translate(424.1313,61.2252)"
           id="g80"><path
             id="path82"
             style="fill:#000044;fill-opacity:1;fill-rule:nonzero;stroke:none"
             d="m 0,0 2.553,-0.001 c 0.696,0 1.264,-0.102 1.704,-0.305 0.441,-0.203 0.768,-0.498 0.983,-0.886 0.216,-0.388 0.323,-0.855 0.323,-1.4 0,-0.546 -0.107,-1.005 -0.32,-1.378 C 5.03,-4.343 4.704,-4.626 4.263,-4.818 3.823,-5.011 3.257,-5.107 2.566,-5.107 l -2.568,0.001 z m 5.63,-6.951 c 0.099,0.04 0.205,0.074 0.299,0.12 0.811,0.393 1.426,0.95 1.844,1.674 0.418,0.723 0.628,1.577 0.628,2.564 0,0.981 -0.206,1.84 -0.618,2.579 C 7.37,0.724 6.762,1.299 5.958,1.71 5.155,2.12 4.163,2.326 2.982,2.327 l -5.767,0.002 -0.005,-15.378 2.785,-0.001 0.002,5.631 h 2.835 l 3.02,-5.633 3.109,-0.001 z" /></g><g
           transform="translate(293.0094,39.6218)"
           id="g84"><path
             id="path86"
             style="fill:#000044;fill-opacity:1;fill-rule:nonzero;stroke:none"
             d="m 0,0 -0.005,-15.378 9.558,-0.003 10e-4,2.335 -6.773,0.003 0.005,13.042 z" /></g><g
           transform="translate(314.8846,26.5719)"
           id="g88"><path
             id="path90"
             style="fill:#000044;fill-opacity:1;fill-rule:nonzero;stroke:none"
             d="m 0,0 -7.276,0.003 0.002,4.197 6.697,-0.003 0.001,2.336 -6.698,0.002 0.002,4.175 7.216,-0.003 v 2.335 l -10.001,0.004 -0.005,-15.378 10.061,-0.003 z" /></g><g
           transform="translate(327.9879,26.173)"
           id="g92"><path
             id="path94"
             style="fill:#000044;fill-opacity:1;fill-rule:nonzero;stroke:none"
             d="m 0,0 c 0.461,0.683 0.691,1.475 0.692,2.376 0,0.666 -0.125,1.247 -0.375,1.742 -0.25,0.496 -0.589,0.919 -1.017,1.27 -0.428,0.35 -0.911,0.641 -1.449,0.871 -0.538,0.231 -1.097,0.413 -1.678,0.549 l -1.441,0.361 c -0.316,0.075 -0.629,0.168 -0.939,0.278 -0.31,0.11 -0.593,0.247 -0.848,0.409 -0.255,0.163 -0.457,0.362 -0.604,0.598 -0.148,0.235 -0.222,0.513 -0.222,0.833 0.005,0.385 0.118,0.728 0.339,1.029 0.22,0.3 0.538,0.537 0.953,0.713 0.416,0.175 0.914,0.262 1.495,0.262 0.826,0 1.498,-0.183 2.016,-0.549 0.518,-0.366 0.811,-0.876 0.881,-1.532 L 0.484,9.209 c -0.015,0.866 -0.257,1.633 -0.728,2.302 -0.47,0.668 -1.117,1.191 -1.94,1.57 -0.823,0.378 -1.781,0.567 -2.872,0.568 -1.076,0 -2.04,-0.189 -2.891,-0.566 -0.851,-0.378 -1.523,-0.907 -2.017,-1.588 -0.493,-0.68 -0.74,-1.474 -0.74,-2.38 0,-1.101 0.366,-1.983 1.099,-2.647 0.733,-0.663 1.733,-1.158 2.999,-1.484 l 1.75,-0.451 C -4.306,4.393 -3.824,4.234 -3.411,4.056 -2.998,3.878 -2.677,3.658 -2.447,3.395 -2.216,3.132 -2.099,2.8 -2.094,2.4 -2.099,1.959 -2.232,1.575 -2.492,1.247 -2.753,0.919 -3.112,0.664 -3.57,0.482 -4.028,0.299 -4.56,0.208 -5.166,0.208 c -0.58,0 -1.105,0.088 -1.573,0.264 -0.468,0.175 -0.847,0.44 -1.137,0.796 -0.29,0.355 -0.455,0.801 -0.495,1.337 l -2.741,10e-4 c 0.04,-1.022 0.306,-1.888 0.799,-2.599 0.493,-0.711 1.178,-1.252 2.057,-1.622 0.878,-0.371 1.916,-0.557 3.112,-0.557 1.231,0 2.281,0.191 3.15,0.573 C -1.125,-1.216 -0.461,-0.683 0,0" /></g><g
           transform="translate(344.9676,24.5678)"
           id="g96"><path
             id="path98"
             style="fill:#000044;fill-opacity:1;fill-rule:nonzero;stroke:none"
             d="M 0,0 C 0.869,0.383 1.533,0.915 1.994,1.599 2.455,2.282 2.685,3.074 2.686,3.975 2.686,4.641 2.561,5.221 2.311,5.717 2.061,6.213 1.722,6.636 1.294,6.986 0.866,7.337 0.383,7.627 -0.155,7.858 -0.693,8.088 -1.252,8.271 -1.833,8.406 l -1.442,0.361 c -0.315,0.076 -0.628,0.168 -0.938,0.278 -0.31,0.111 -0.593,0.247 -0.848,0.41 -0.256,0.163 -0.457,0.362 -0.605,0.597 -0.147,0.235 -0.221,0.513 -0.221,0.834 0.005,0.385 0.118,0.728 0.339,1.028 0.22,0.301 0.538,0.538 0.953,0.713 0.416,0.175 0.914,0.263 1.495,0.263 0.826,-0.001 1.498,-0.184 2.016,-0.549 0.517,-0.366 0.811,-0.877 0.881,-1.532 l 2.681,-10e-4 c -0.015,0.866 -0.257,1.633 -0.728,2.301 -0.47,0.669 -1.117,1.192 -1.94,1.57 -0.823,0.378 -1.781,0.568 -2.872,0.568 -1.076,10e-4 -2.04,-0.188 -2.891,-0.566 -0.851,-0.377 -1.523,-0.907 -2.017,-1.587 -0.493,-0.681 -0.74,-1.474 -0.74,-2.38 0,-1.101 0.366,-1.984 1.099,-2.647 0.733,-0.664 1.733,-1.158 2.999,-1.484 l 1.75,-0.451 C -2.312,5.991 -1.83,5.832 -1.417,5.654 -1.004,5.477 -0.683,5.256 -0.453,4.993 -0.223,4.73 -0.105,4.399 -0.1,3.998 -0.105,3.558 -0.238,3.174 -0.498,2.846 -0.759,2.518 -1.118,2.263 -1.576,2.08 -2.034,1.898 -2.566,1.807 -3.172,1.807 c -0.58,0 -1.105,0.088 -1.573,0.263 -0.468,0.176 -0.847,0.441 -1.137,0.797 -0.29,0.355 -0.455,0.801 -0.495,1.336 l -2.741,10e-4 c 0.04,-1.021 0.306,-1.887 0.799,-2.598 0.493,-0.711 1.178,-1.252 2.057,-1.623 0.878,-0.37 1.915,-0.556 3.112,-0.556 C -1.919,-0.574 -0.869,-0.383 0,0" /></g><g
           transform="translate(352.9799,28.9575)"
           id="g100"><path
             id="path102"
             style="fill:#000044;fill-opacity:1;fill-rule:nonzero;stroke:none"
             d="m 0,0 c -0.363,0.804 -0.544,1.788 -0.543,2.955 0,1.166 0.182,2.151 0.545,2.954 0.363,0.804 0.865,1.412 1.506,1.824 0.641,0.413 1.379,0.619 2.215,0.619 0.836,0 1.575,-0.207 2.215,-0.62 C 6.579,7.319 7.08,6.71 7.443,5.907 7.806,5.103 7.987,4.118 7.986,2.952 7.986,1.785 7.804,0.801 7.441,-0.003 7.078,-0.806 6.576,-1.414 5.935,-1.827 5.294,-2.239 4.556,-2.446 3.72,-2.445 c -0.836,0 -1.575,0.207 -2.215,0.62 C 0.864,-1.412 0.363,-0.804 0,0 m 7.334,-4.008 c 1.064,0.625 1.906,1.527 2.524,2.706 0.619,1.178 0.928,2.596 0.929,4.253 C 10.788,4.608 10.479,6.026 9.861,7.205 9.243,8.384 8.403,9.286 7.339,9.912 6.276,10.539 5.071,10.852 3.724,10.852 2.378,10.853 1.172,10.54 0.109,9.915 -0.955,9.29 -1.797,8.388 -2.415,7.209 -3.034,6.03 -3.343,4.613 -3.344,2.956 -3.345,1.304 -3.036,-0.112 -2.418,-1.291 -1.8,-2.47 -0.96,-3.374 0.104,-4.002 c 1.063,-0.629 2.268,-0.943 3.615,-0.944 1.346,0 2.552,0.312 3.615,0.938" /></g><g
           transform="translate(369.302,39.5952)"
           id="g104"><path
             id="path106"
             style="fill:#000044;fill-opacity:1;fill-rule:nonzero;stroke:none"
             d="m 0,0 -2.786,0.001 -0.005,-15.378 2.786,-10e-4 z" /></g><g
           transform="translate(382.4569,29.1086)"
           id="g108"><path
             id="path110"
             style="fill:#000044;fill-opacity:1;fill-rule:nonzero;stroke:none"
             d="m 0,0 h -0.135 l -7.235,10.484 -2.493,10e-4 -0.005,-15.377 2.786,-10e-4 0.003,10.474 h 0.128 l 7.242,-10.477 2.478,-0.001 0.005,15.378 -2.77,10e-4 z" /></g><g
           transform="translate(398.2274,31.5358)"
           id="g112"><path
             id="path114"
             style="fill:#000044;fill-opacity:1;fill-rule:nonzero;stroke:none"
             d="M 0,0 C -0.428,0.35 -0.911,0.641 -1.449,0.871 -1.987,1.102 -2.546,1.285 -3.127,1.42 l -1.441,0.361 c -0.316,0.075 -0.629,0.168 -0.939,0.278 -0.31,0.11 -0.593,0.247 -0.848,0.41 -0.255,0.162 -0.457,0.362 -0.604,0.597 -0.148,0.235 -0.222,0.513 -0.222,0.833 0.006,0.386 0.118,0.729 0.339,1.029 0.22,0.3 0.538,0.538 0.954,0.713 0.415,0.175 0.913,0.262 1.494,0.262 0.826,0 1.498,-0.183 2.016,-0.549 0.518,-0.365 0.811,-0.876 0.881,-1.532 L 1.184,3.821 C 1.169,4.687 0.927,5.455 0.456,6.123 c -0.47,0.669 -1.117,1.192 -1.94,1.57 -0.823,0.378 -1.781,0.568 -2.872,0.568 -1.076,0 -2.04,-0.188 -2.891,-0.566 -0.851,-0.378 -1.523,-0.907 -2.016,-1.587 -0.494,-0.681 -0.74,-1.474 -0.741,-2.38 0,-1.102 0.366,-1.984 1.099,-2.647 0.733,-0.664 1.733,-1.159 2.999,-1.484 l 1.75,-0.451 c 0.55,-0.141 1.032,-0.3 1.445,-0.478 0.413,-0.178 0.734,-0.398 0.965,-0.661 0.23,-0.263 0.347,-0.595 0.352,-0.995 -0.005,-0.44 -0.138,-0.825 -0.398,-1.152 -0.261,-0.328 -0.62,-0.583 -1.078,-0.766 -0.458,-0.183 -0.99,-0.274 -1.596,-0.273 -0.58,0 -1.105,0.088 -1.573,0.263 -0.468,0.175 -0.847,0.441 -1.137,0.796 -0.29,0.356 -0.455,0.801 -0.495,1.337 l -2.74,10e-4 c 0.039,-1.021 0.305,-1.887 0.798,-2.598 0.493,-0.711 1.179,-1.252 2.057,-1.623 0.878,-0.371 1.916,-0.556 3.112,-0.557 1.231,0 2.282,0.191 3.15,0.574 0.869,0.382 1.533,0.915 1.994,1.598 0.461,0.683 0.691,1.476 0.692,2.377 0,0.665 -0.125,1.246 -0.375,1.742 C 0.767,-0.774 0.428,-0.351 0,0" /></g><g
           transform="translate(295.7835,6.7989)"
           id="g116"><path
             id="path118"
             style="fill:#000044;fill-opacity:1;fill-rule:nonzero;stroke:none"
             d="M 0,0 6.698,-0.002 V 2.333 L 0.001,2.335 0.002,6.51 7.218,6.507 7.219,8.843 -2.783,8.846 -2.788,-6.531 7.274,-6.535 V -4.2 l -7.275,0.003 z" /></g><g
           transform="translate(315.7888,5.155)"
           id="g120"><path
             id="path122"
             style="fill:#000044;fill-opacity:1;fill-rule:nonzero;stroke:none"
             d="M 0,0 H -0.135 L -7.37,10.485 h -2.493 l -0.005,-15.377 2.786,-10e-4 0.003,10.474 h 0.128 L 0.291,-4.896 h 2.478 l 0.005,15.377 -2.77,10e-4 z" /></g><g
           transform="translate(326.1604,13.2982)"
           id="g124"><path
             id="path126"
             style="fill:#000044;fill-opacity:1;fill-rule:nonzero;stroke:none"
             d="M 0,0 4.753,-0.002 4.748,-13.044 7.511,-13.045 7.516,-0.003 12.269,-0.004 12.27,2.331 0.001,2.335 Z" /></g><g
           transform="translate(343.456,6.7822)"
           id="g128"><path
             id="path130"
             style="fill:#000044;fill-opacity:1;fill-rule:nonzero;stroke:none"
             d="M 0,0 6.698,-0.002 V 2.333 L 0.001,2.335 0.002,6.51 7.218,6.507 7.219,8.843 -2.783,8.846 -2.788,-6.531 7.273,-6.535 7.274,-4.2 -0.001,-4.197 Z" /></g><g
           transform="translate(361.749,4.4782)"
           id="g132"><path
             id="path134"
             style="fill:#000044;fill-opacity:1;fill-rule:nonzero;stroke:none"
             d="m 0,0 h -0.18 l -4.562,11.144 -3.408,0.002 -0.006,-15.378 2.673,-10e-4 0.004,10.587 h 0.143 L -1.09,-4.189 0.907,-4.19 5.161,6.328 H 5.303 L 5.3,-4.237 7.973,-4.238 7.978,11.14 4.569,11.141 Z" /></g><g
           transform="translate(381.0506,9.0742)"
           id="g136"><path
             id="path138"
             style="fill:#000044;fill-opacity:1;fill-rule:nonzero;stroke:none"
             d="m 0,0 c -0.213,-0.42 -0.54,-0.751 -0.98,-0.991 -0.441,-0.24 -1.006,-0.36 -1.697,-0.36 l -2.568,10e-4 0.002,5.564 2.553,-0.001 c 0.695,0 1.265,-0.117 1.708,-0.35 C -0.539,3.631 -0.212,3.306 0.001,2.891 0.214,2.475 0.32,1.995 0.32,1.449 0.319,0.903 0.213,0.42 0,0 M 0.715,5.879 C -0.088,6.32 -1.08,6.54 -2.261,6.541 l -5.767,0.002 -0.005,-15.378 2.785,-10e-4 0.002,5.196 2.943,-10e-4 c 1.187,0 2.185,0.218 2.997,0.656 0.811,0.438 1.424,1.04 1.84,1.805 0.415,0.766 0.624,1.642 0.624,2.628 0,0.976 -0.206,1.848 -0.619,2.617 -0.412,0.768 -1.02,1.373 -1.824,1.814" /></g><g
           transform="translate(396.4019,7.5595)"
           id="g140"><path
             id="path142"
             style="fill:#000044;fill-opacity:1;fill-rule:nonzero;stroke:none"
             d="m 0,0 c -0.428,0.351 -0.911,0.641 -1.449,0.872 -0.538,0.23 -1.097,0.413 -1.678,0.548 l -1.441,0.361 c -0.316,0.075 -0.629,0.168 -0.939,0.278 -0.31,0.11 -0.593,0.247 -0.848,0.41 -0.255,0.163 -0.457,0.362 -0.604,0.597 -0.148,0.235 -0.222,0.513 -0.222,0.833 0.005,0.386 0.118,0.729 0.339,1.029 0.22,0.3 0.538,0.538 0.954,0.713 0.415,0.175 0.913,0.263 1.494,0.262 0.826,0 1.498,-0.183 2.016,-0.549 0.518,-0.365 0.811,-0.876 0.881,-1.532 L 1.184,3.821 C 1.169,4.687 0.927,5.455 0.456,6.123 c -0.47,0.669 -1.117,1.192 -1.94,1.57 -0.823,0.378 -1.781,0.568 -2.872,0.568 -1.076,0 -2.04,-0.188 -2.891,-0.566 -0.851,-0.378 -1.523,-0.907 -2.016,-1.587 -0.494,-0.681 -0.741,-1.474 -0.741,-2.38 0,-1.102 0.366,-1.984 1.099,-2.647 0.733,-0.664 1.733,-1.159 2.999,-1.484 l 1.75,-0.451 c 0.55,-0.141 1.032,-0.3 1.445,-0.478 0.413,-0.178 0.734,-0.398 0.965,-0.661 0.23,-0.263 0.347,-0.594 0.352,-0.995 -0.005,-0.44 -0.138,-0.825 -0.398,-1.152 -0.261,-0.328 -0.62,-0.583 -1.078,-0.766 -0.458,-0.182 -0.99,-0.274 -1.596,-0.273 -0.58,0 -1.105,0.088 -1.573,0.263 -0.468,0.175 -0.847,0.441 -1.137,0.796 -0.29,0.356 -0.455,0.801 -0.495,1.337 l -2.74,10e-4 c 0.039,-1.021 0.305,-1.887 0.798,-2.598 0.493,-0.711 1.179,-1.252 2.057,-1.623 0.878,-0.37 1.916,-0.556 3.112,-0.557 1.231,0 2.282,0.191 3.15,0.574 0.869,0.382 1.533,0.915 1.994,1.598 0.461,0.684 0.691,1.476 0.692,2.377 0,0.665 -0.125,1.246 -0.375,1.742 C 0.767,-0.774 0.428,-0.351 0,0" /></g><g
           transform="translate(408.3084,13.2769)"
           id="g144"><path
             id="path146"
             style="fill:#000044;fill-opacity:1;fill-rule:nonzero;stroke:none"
             d="m 0,0 2.553,-0.001 c 0.696,0 1.264,-0.102 1.704,-0.305 0.441,-0.202 0.768,-0.498 0.983,-0.886 0.216,-0.388 0.323,-0.855 0.323,-1.4 0,-0.546 -0.107,-1.005 -0.32,-1.378 C 5.03,-4.343 4.704,-4.626 4.263,-4.818 3.823,-5.011 3.257,-5.107 2.566,-5.107 l -2.568,0.001 z m 5.929,-6.831 c 0.811,0.393 1.426,0.95 1.844,1.674 0.418,0.723 0.628,1.577 0.628,2.564 0,0.981 -0.206,1.84 -0.618,2.579 C 7.37,0.724 6.762,1.299 5.958,1.71 5.155,2.12 4.163,2.326 2.982,2.327 l -5.767,0.002 -0.005,-15.378 2.785,-0.001 0.002,5.631 h 2.835 l 3.02,-5.633 3.109,-0.001 -3.331,6.102 c 0.099,0.04 0.205,0.074 0.299,0.12" /></g><g
           transform="translate(425.1449,20.5468)"
           id="g148"><path
             id="path150"
             style="fill:#000044;fill-opacity:1;fill-rule:nonzero;stroke:none"
             d="m 0,0 -1.683,-3.431 2.035,-10e-4 2.306,3.431 z" /></g><g
           transform="translate(422.2793,6.7546)"
           id="g152"><path
             id="path154"
             style="fill:#000044;fill-opacity:1;fill-rule:nonzero;stroke:none"
             d="M 0,0 6.698,-0.002 V 2.333 L 0.001,2.335 0.002,6.51 7.218,6.507 7.219,8.843 -2.783,8.846 -2.788,-6.531 7.274,-6.535 V -4.2 l -7.275,0.003 z" /></g><g
           transform="translate(435.2044,6.7501)"
           id="g156"><path
             id="path158"
             style="fill:#000044;fill-opacity:1;fill-rule:nonzero;stroke:none"
             d="M 0,0 6.698,-0.002 V 2.333 L 0.001,2.335 0.002,6.51 7.218,6.507 7.219,8.843 -2.783,8.846 -2.788,-6.531 7.274,-6.535 V -4.2 l -7.275,0.003 z" /></g><g
           transform="translate(448.1281,2.5483)"
           id="g160"><path
             id="path162"
             style="fill:#000044;fill-opacity:1;fill-rule:nonzero;stroke:none"
             d="m 0,0 0.005,13.042 -2.786,10e-4 -0.005,-15.377 9.558,-0.004 10e-4,2.336 z" /></g></g></g></g></svg>