<svg viewBox="0 0 369 90" fill="none" xmlns="http://www.w3.org/2000/svg">
<path d="M72.2801 79.1664C79.0382 79.1664 84.5168 73.7056 84.5168 66.9694C84.5168 60.2332 79.0382 54.7725 72.2801 54.7725C65.522 54.7725 60.0435 60.2332 60.0435 66.9694C60.0435 73.7056 65.522 79.1664 72.2801 79.1664Z" fill="#67D07E"/>
<path d="M54.6472 66.9694C54.6472 69.3818 53.9295 71.7399 52.5849 73.7457C51.2403 75.7515 49.3292 77.3148 47.0933 78.238C44.8573 79.1611 42.3969 79.4027 40.0232 78.932C37.6496 78.4614 35.4692 77.2998 33.7579 75.594C32.0465 73.8882 30.8811 71.7149 30.409 69.3489C29.9368 66.983 30.1791 64.5306 31.1053 62.3019C32.0315 60.0731 33.5999 58.1682 35.6122 56.828C37.6245 55.4878 39.9903 54.7725 42.4105 54.7725C45.6559 54.7725 48.7683 56.0575 51.0631 58.3449C53.3579 60.6322 54.6472 63.7346 54.6472 66.9694V66.9694Z" fill="#979797"/>
<path d="M12.2367 79.1664C18.9948 79.1664 24.4733 73.7056 24.4733 66.9694C24.4733 60.2332 18.9948 54.7725 12.2367 54.7725C5.47854 54.7725 0 60.2332 0 66.9694C0 73.7056 5.47854 79.1664 12.2367 79.1664Z" fill="#23242A"/>
<path d="M84.5168 37.6516C84.5168 40.0639 83.7991 42.4221 82.4545 44.4278C81.11 46.4336 79.1989 47.9969 76.9629 48.9201C74.7269 49.8432 72.2666 50.0848 69.8929 49.6142C67.5192 49.1435 65.3388 47.9819 63.6275 46.2761C61.9162 44.5703 60.7507 42.3971 60.2786 40.0311C59.8064 37.6651 60.0488 35.2127 60.9749 32.984C61.9011 30.7553 63.4695 28.8504 65.4818 27.5102C67.4941 26.1699 69.8599 25.4546 72.2801 25.4546C75.5255 25.4546 78.6379 26.7396 80.9328 29.027C83.2276 31.3144 84.5168 34.4167 84.5168 37.6516V37.6516Z" fill="#23242A"/>
<path d="M54.6472 12.197C54.6472 14.6093 53.9295 16.9675 52.5849 18.9732C51.2403 20.979 49.3292 22.5423 47.0933 23.4655C44.8573 24.3887 42.3969 24.6302 40.0232 24.1596C37.6496 23.689 35.4692 22.5273 33.7579 20.8215C32.0465 19.1158 30.8811 16.9425 30.409 14.5765C29.9368 12.2105 30.1791 9.7581 31.1053 7.52939C32.0315 5.30069 33.5999 3.39578 35.6122 2.05556C37.6245 0.71534 39.9903 0 42.4105 0C45.6559 0 48.7683 1.28503 51.0631 3.57241C53.3579 5.85978 54.6472 8.96213 54.6472 12.197V12.197Z" fill="#979797"/>
<path d="M120.847 68.7118H103.974C103.974 72.0957 105.62 73.7876 108.914 73.7876C109.693 73.8219 110.467 73.6422 111.15 73.2681C111.834 72.894 112.401 72.34 112.79 71.6664H120.543C120.074 73.4721 119.129 75.1199 117.806 76.4391C115.628 78.4593 112.689 79.4694 108.99 79.4694C104.328 79.4694 100.807 78.0553 98.4254 75.227C96.6667 73.041 95.7501 70.3003 95.8413 67.4997C95.7736 65.892 96.0277 64.287 96.5888 62.7782C97.1499 61.2694 98.0068 59.8871 99.1095 58.7118C101.339 56.4391 104.455 55.3027 108.458 55.3027C113.424 55.3027 116.97 57.0957 119.099 60.6815C120.336 62.822 120.966 65.2572 120.923 67.727V68.7876L120.847 68.7118ZM113.322 64.1664C112.765 61.5906 111.245 60.3027 108.762 60.3027C107.649 60.2383 106.554 60.6039 105.705 61.3234C104.856 62.043 104.317 63.0613 104.202 64.1664H113.322Z" fill="#23242A"/>
<path d="M147.904 55.9092L136.047 78.5607H130.651L118.946 55.9092H127.991L133.387 67.5001L138.859 55.9092H147.828H147.904Z" fill="#23242A"/>
<path d="M173.29 67.2725C173.352 70.2763 172.233 73.1852 170.173 75.3786C167.64 78.1058 164.118 79.4695 159.609 79.4695C155.099 79.4695 151.578 78.1058 149.044 75.3786C146.968 73.1344 145.851 70.1726 145.928 67.121C145.921 64.2173 147.037 61.4226 149.044 59.318C151.578 56.5907 155.175 55.2271 159.837 55.2271C164.498 55.2271 167.944 56.5654 170.173 59.2422C172.229 61.4079 173.348 64.2919 173.29 67.2725V67.2725ZM164.929 67.2725C164.939 66.5733 164.809 65.8791 164.545 65.2311C164.281 64.5831 163.89 63.9944 163.394 63.4999C162.898 63.0055 162.307 62.6152 161.657 62.3523C161.007 62.0895 160.31 61.9593 159.609 61.9695C158.836 61.9547 158.071 62.1179 157.372 62.4464C156.674 62.7749 156.06 63.2599 155.581 63.8634C154.762 64.8118 154.312 66.0214 154.312 67.2725C154.312 68.5236 154.762 69.7332 155.581 70.6816C156.06 71.2852 156.674 71.7701 157.372 72.0986C158.071 72.4271 158.836 72.5903 159.609 72.5755C160.31 72.5857 161.007 72.4555 161.657 72.1927C162.307 71.9298 162.898 71.5395 163.394 71.0451C163.89 70.5506 164.281 69.9619 164.545 69.3139C164.809 68.6659 164.939 67.9717 164.929 67.2725V67.2725Z" fill="#23242A"/>
<path d="M182.182 78.5607H174.125V41.894H182.182V78.5607V78.5607Z" fill="#23242A"/>
<path d="M210.075 55.9092L198.219 78.5607H192.822L181.118 55.9092H190.162L195.634 67.5001L201.107 55.9092H210.075Z" fill="#23242A"/>
<path d="M217.524 47.197C217.524 48.3825 217.052 49.5194 216.211 50.3576C215.37 51.1958 214.229 51.6667 213.04 51.6667C212.448 51.681 211.859 51.574 211.31 51.3525C210.761 51.131 210.263 50.7996 209.848 50.3789C209.001 49.535 208.525 48.3904 208.525 47.197C208.525 46.0036 209.001 44.8591 209.848 44.0152C210.694 43.1713 211.843 42.6973 213.04 42.6973C214.237 42.6973 215.385 43.1713 216.232 44.0152C216.654 44.4294 216.987 44.9254 217.209 45.4727C217.431 46.0199 217.538 46.6068 217.524 47.197ZM217.068 78.5607H209.012V55.9092H217.068V78.5607V78.5607Z" fill="#23242A"/>
<path d="M244.809 78.5606H236.753V67.1212C236.753 65.1515 236.525 63.7879 236.069 63.1818C235.736 62.7123 235.29 62.3342 234.772 62.0826C234.254 61.8309 233.68 61.7139 233.105 61.7424C232.542 61.7301 231.983 61.8311 231.461 62.0394C230.938 62.2477 230.463 62.559 230.064 62.9545C229.653 63.4319 229.341 63.9855 229.145 64.5835C228.95 65.1816 228.875 65.8123 228.924 66.4394V78.5606H220.792V55.9091H228.848V58.7879C229.576 57.8915 230.45 57.1232 231.433 56.5151C232.909 55.7533 234.559 55.3877 236.221 55.4545C238.372 55.3676 240.481 56.0682 242.149 57.4242C243.872 58.9394 244.733 61.1869 244.733 64.1667V78.5606H244.809Z" fill="#23242A"/>
<path d="M271.943 76.9694C271.964 78.572 271.811 80.1722 271.487 81.7421C270.961 83.8149 269.758 85.6541 268.067 86.9694C265.736 88.9391 262.645 89.9239 258.794 89.9239C254.943 89.9239 251.726 88.8633 249.142 86.7421C247.718 85.5749 246.662 84.0229 246.102 82.2724C246.004 81.9239 245.928 81.5697 245.874 81.2118H254.918C255.105 81.8362 255.476 82.3904 255.982 82.8027C256.778 83.3708 257.739 83.6635 258.718 83.636C259.535 83.6785 260.35 83.5212 261.092 83.1778C261.834 82.8345 262.48 82.3156 262.975 81.6663C263.655 80.6084 263.975 79.3595 263.887 78.1057V75.9845C263.147 76.6797 262.331 77.2896 261.454 77.8027C259.982 78.5843 258.334 78.9756 256.666 78.9391C254.453 78.966 252.283 78.3328 250.434 77.1209C248.584 75.9318 247.171 74.1776 246.406 72.1209C245.836 70.6208 245.552 69.0278 245.57 67.4239C245.505 65.7451 245.789 64.071 246.403 62.5066C247.018 60.9423 247.95 59.5214 249.142 58.333C250.181 57.2796 251.425 56.4477 252.797 55.8877C254.168 55.3278 255.64 55.0514 257.122 55.0754C258.65 55.0426 260.163 55.3806 261.53 56.0603C262.45 56.5708 263.273 57.2373 263.963 58.03V55.9088H272.019V76.9694H271.943ZM264.267 67.1209C264.271 66.4329 264.139 65.7508 263.878 65.1138C263.617 64.4768 263.233 63.8973 262.747 63.4088C262.285 62.9021 261.722 62.4983 261.093 62.2241C260.464 61.95 259.785 61.8115 259.098 61.8178C258.343 61.7941 257.593 61.9461 256.907 62.2617C256.221 62.5773 255.618 63.0478 255.146 63.636C254.352 64.5952 253.922 65.8018 253.93 67.0451C253.922 67.7337 254.052 68.417 254.313 69.0546C254.574 69.6922 254.961 70.2712 255.45 70.7572C255.925 71.2429 256.492 71.6289 257.118 71.8924C257.745 72.156 258.418 72.2918 259.098 72.2918C259.778 72.2918 260.452 72.156 261.078 71.8924C261.705 71.6289 262.272 71.2429 262.747 70.7572C263.698 69.8124 264.243 68.5353 264.267 67.1966V67.1209Z" fill="#23242A"/>
<path d="M318.457 55.9092L306.525 78.5607H301.128L295.58 66.1365L290.184 78.5607H284.787L273.007 55.9092H281.975L287.448 67.8789L293.148 55.9092H298.164L303.865 68.1819L309.565 55.9092H318.533H318.457Z" fill="#969696"/>
<path d="M341.562 68.7119H324.689C324.689 72.0957 326.336 73.7877 329.63 73.7877C330.409 73.822 331.182 73.6423 331.866 73.2682C332.549 72.8941 333.117 72.34 333.506 71.6664H341.258C340.79 73.4721 339.845 75.12 338.522 76.4392C336.343 78.4594 333.404 79.4695 329.706 79.4695C325.044 79.4695 321.523 78.0553 319.141 75.227C317.376 73.0444 316.459 70.3013 316.557 67.4998C316.489 65.8743 316.75 64.2518 317.325 62.729C317.899 61.2062 318.775 59.8142 319.901 58.6361C322.131 56.3634 325.247 55.2271 329.25 55.2271C334.215 55.2271 337.762 57.02 339.89 60.6058C341.127 62.7463 341.758 65.1815 341.714 67.6513V68.7119H341.562ZM334.038 64.1664C333.48 61.5907 331.96 60.3028 329.478 60.3028C328.365 60.2384 327.27 60.6039 326.421 61.3235C325.571 62.0431 325.033 63.0613 324.917 64.1664H334.038Z" fill="#969696"/>
<path d="M368.924 67.1971C368.991 68.9219 368.672 70.64 367.988 72.226C367.304 73.8119 366.274 75.2256 364.972 76.3637C362.914 78.2294 360.229 79.2568 357.447 79.2425C355.829 79.2701 354.232 78.8785 352.811 78.1062C351.883 77.5742 351.08 76.851 350.455 75.9849V78.485H342.398V41.894H350.455V58.1819C351.175 57.4105 352.023 56.7697 352.963 56.288C354.382 55.5914 355.942 55.2285 357.523 55.2274C360.235 55.1947 362.862 56.1666 364.896 57.9546C366.222 59.0937 367.273 60.5164 367.97 62.1167C368.668 63.717 368.994 65.4536 368.924 67.1971V67.1971ZM360.563 67.1971C360.573 65.9764 360.142 64.7929 359.347 63.8637C358.872 63.28 358.268 62.8126 357.583 62.4974C356.898 62.1822 356.149 62.0277 355.395 62.0456C354.024 62.0456 352.71 62.5883 351.741 63.5544C350.771 64.5205 350.227 65.8308 350.227 67.1971C350.227 68.5633 350.771 69.8736 351.741 70.8397C352.71 71.8058 354.024 72.3486 355.395 72.3486C356.15 72.3723 356.901 72.2203 357.587 71.9047C358.273 71.5891 358.876 71.1186 359.347 70.5304C360.125 69.621 360.555 68.4675 360.563 67.2728V67.1971Z" fill="#969696"/>
</svg>
