<svg viewBox="0 0 316 137" fill="none" xmlns="http://www.w3.org/2000/svg"><path d="M39.687 89.905v-11.04H1.53v56.828h11.61V112.88h24.355v-11.041H13.14V89.905h26.547zm24.722.163c-12.827 0-23.218 9.823-23.218 23.3 0 13.395 10.229 23.3 23.218 23.3 13.071 0 23.3-9.824 23.3-23.3 0-13.477-10.391-23.3-23.3-23.3zm0 11.041c6.495 0 11.529 4.952 11.529 12.259 0 7.387-5.034 12.258-11.529 12.258-6.494 0-11.528-4.871-11.528-12.258 0-7.307 5.034-12.259 11.528-12.259zm53.462-11.041c-6.332 0-11.203 2.922-13.963 8.767v-7.793h-11.61v44.651h11.61v-19.89c0-10.554 6.332-13.801 13.72-13.801 1.299 0 1.948.081 2.841.162V90.23a22.111 22.111 0 00-2.598-.162zm58.983.974l-3.735 14.045-3.978 17.779-3.897-17.779-3.734-14.045h-13.883l-3.734 14.045-3.897 17.942-3.978-17.942-3.735-14.045h-11.528l12.259 44.651h13.395l4.141-15.019 3.247-18.104h1.543l3.247 18.104 4.141 15.019h13.395l12.259-44.651h-11.528zm45.505 0v6.251c-3.085-4.303-7.793-7.225-14.126-7.225-11.447 0-20.296 9.498-20.296 23.3 0 13.72 8.687 23.3 20.378 23.3 6.251 0 10.878-2.761 13.963-6.982v6.007h11.61l.081-44.651h-11.61zm-11.447 34.584c-6.413 0-11.284-4.871-11.284-12.258 0-7.307 4.79-12.259 11.284-12.259 6.495 0 11.447 4.952 11.447 12.259 0 7.387-4.952 12.258-11.447 12.258zm54.355-35.558c-6.332 0-11.203 2.922-13.963 8.767v-7.793h-11.61v44.651h11.61v-19.89c0-10.554 6.332-13.801 13.72-13.801 1.299 0 1.948.081 2.841.162V90.23a22.111 22.111 0 00-2.598-.162zm38.605-16.887v24.112c-3.085-4.303-7.793-7.225-14.126-7.225-11.447 0-20.296 9.498-20.296 23.3 0 13.72 8.768 23.3 20.377 23.3 6.252 0 10.96-2.761 14.045-6.982v6.007h11.61V73.181h-11.61zm-11.447 52.445c-6.413 0-11.284-4.871-11.284-12.258 0-7.307 4.79-12.259 11.284-12.259 6.495 0 11.447 4.952 11.447 12.259 0 7.387-4.952 12.258-11.447 12.258z" fill="#0065F2"/><path d="M10.18 35.441v-9.888h5.408c3.848 0 5.553 1.85 5.553 4.968 0 3.02-1.705 4.92-5.553 4.92H10.18zm17.975-4.92C28.155 24.627 24.063 20 15.88 20H3.36v34h6.82V40.946h5.699c8.768 0 12.275-5.261 12.275-10.425zm11.661 10.035c0-5.212 2.436-6.771 6.479-6.771h1.802v-7.16c-3.75 0-6.576 1.802-8.28 4.578v-4.189h-6.82V54h6.82V40.556zm38.934-.049c0-8.524-6.088-13.931-13.882-13.931s-13.883 5.407-13.883 13.931c0 8.476 5.894 13.931 13.688 13.931 7.843 0 14.078-5.455 14.078-13.93zm-20.848 0c0-5.407 3.264-7.988 6.868-7.988 3.605 0 6.966 2.581 6.966 7.988 0 5.358-3.458 7.989-7.063 7.989-3.653 0-6.77-2.63-6.77-7.989zM87.212 23.8c2.386 0 4.14-1.753 4.14-3.994 0-2.24-1.754-3.994-4.14-3.994-2.485 0-4.239 1.753-4.239 3.994 0 2.24 1.754 3.994 4.238 3.994zm-3.46 3.215v31.467c0 1.803-.73 2.582-2.824 2.582h-1.949v5.797H82c5.212 0 8.573-2.192 8.573-8.427v-31.42h-6.82zm25.151 5.164c3.507 0 6.333 2.24 6.43 5.796h-12.811c.536-3.702 3.118-5.796 6.381-5.796zm12.811 13.346h-7.355c-.877 1.803-2.484 3.264-5.407 3.264-3.41 0-6.138-2.24-6.479-6.235h19.728c.146-.877.195-1.754.195-2.63 0-8.038-5.504-13.347-13.298-13.347-7.988 0-13.541 5.407-13.541 13.931 0 8.476 5.699 13.931 13.541 13.931 6.673 0 11.155-3.945 12.616-8.914zm6.731.098c0 6.186 3.459 8.378 8.622 8.378h4.287v-5.748h-3.166c-2.144 0-2.874-.78-2.874-2.582V32.616h6.04v-5.602h-6.04v-6.673h-6.869v6.673h-3.214v5.602h3.214v13.006zm27.618-20.118h9.061V54h6.819V25.504h9.06V20h-24.94v5.504zm41.509 6.674c3.507 0 6.333 2.24 6.43 5.796h-12.811c.536-3.702 3.117-5.796 6.381-5.796zm12.811 13.346h-7.355c-.877 1.803-2.485 3.264-5.407 3.264-3.41 0-6.138-2.24-6.479-6.235h19.728c.146-.877.195-1.754.195-2.63 0-8.038-5.504-13.347-13.298-13.347-7.989 0-13.542 5.407-13.542 13.931 0 8.476 5.7 13.931 13.542 13.931 6.673 0 11.155-3.945 12.616-8.914zm3.906-5.114c0 8.427 5.456 14.028 12.275 14.028 4.287 0 7.356-2.046 8.963-4.384V54h6.868V27.014h-6.868v3.848c-1.607-2.24-4.579-4.286-8.914-4.286-6.868 0-12.324 5.407-12.324 13.834zm21.238.097c0 5.115-3.41 7.94-7.161 7.94-3.653 0-7.111-2.923-7.111-8.037 0-5.115 3.458-7.843 7.111-7.843 3.751 0 7.161 2.825 7.161 7.94zM286.806 54h6.82V38.169c0-7.453-4.579-11.544-11.057-11.544-3.946 0-7.502 2.094-9.255 5.163-1.851-3.361-5.31-5.163-9.499-5.163-3.361 0-6.235 1.412-7.94 3.653v-3.264h-6.819V54h6.819V39.094c0-4.286 2.387-6.527 6.089-6.527 3.605 0 5.991 2.24 5.991 6.527V54h6.82V39.094c0-4.286 2.387-6.527 6.04-6.527 3.605 0 5.991 2.24 5.991 6.527V54z" fill="#4C93FB"/></svg>