<?xml version="1.0" encoding="UTF-8"?>
<svg width="143px" height="32px" viewBox="0 0 143 32" version="1.1" xmlns="http://www.w3.org/2000/svg" xmlns:xlink="http://www.w3.org/1999/xlink">
    <title>logoBotpress</title>
    <g id="Page-1" stroke="none" stroke-width="1" fill="none" fill-rule="evenodd">
        <g id="logoBotpress" fill="#1A1E22" fill-rule="nonzero">
            <path d="M15.8003,0 C24.5266,0 31.6007,7.07405 31.6007,15.8003 C31.6007,24.5266 24.5266,31.6007 15.8003,31.6007 C7.07405,31.6007 0,24.5266 0,15.8003 C0,7.07405 7.07405,0 15.8003,0 Z M20.2458,6.7198 C19.9528,6.5475 19.6082,6.5475 19.3325,6.7198 L19.3325,6.7198 L18.1436,7.40902 L16.9547,8.09824 C16.6791,8.27055 16.5068,8.56346 16.5068,8.89084 L16.5068,8.89084 L16.5068,11.4582 L12.9228,13.5258 L11.8718,12.9228 L10.6829,12.2336 C10.3899,12.0612 10.0453,12.0612 9.76964,12.2336 L9.76964,12.2336 L8.58074,12.9228 L7.39184,13.612 C7.11615,13.7843 6.94385,14.0772 6.94385,14.4046 L6.94385,14.4046 L6.94385,17.1615 C6.94385,17.4888 7.11615,17.7818 7.39184,17.9368 L7.39184,17.9368 L8.58074,18.6261 L9.76964,19.3153 C10.0626,19.4876 10.4072,19.4876 10.6829,19.3153 L10.6829,19.3153 L12.0441,18.5227 L10.9585,16.903 L16.5068,20.1079 L16.5068,22.6924 C16.4895,23.0198 16.6791,23.33 16.9547,23.485 L16.9547,23.485 L19.3325,24.8635 C19.6255,25.0358 19.9701,25.0358 20.2458,24.8635 L20.2458,24.8635 L22.6236,23.485 C22.8993,23.3127 23.0716,23.0198 23.0716,22.6924 L23.0716,22.6924 L23.0716,19.9528 C23.0888,19.6254 22.8993,19.3153 22.6236,19.1602 L22.6236,19.1602 L21.4347,18.471 L20.2458,17.7818 C19.9701,17.6267 19.6082,17.6095 19.3498,17.799 L19.3498,17.799 L18.1609,18.4882 L17.1098,19.0913 L13.5259,17.0236 L13.5259,14.5941 L17.1098,12.5265 L19.3325,11.2342 L18.0747,13.0778 L18.1436,13.1123 L19.3325,13.8015 C19.6255,13.9738 19.9701,13.9738 20.2458,13.8015 L20.2458,13.8015 L22.6236,12.4231 C22.8993,12.2508 23.0716,11.9579 23.0716,11.6305 L23.0716,11.6305 L23.0716,8.89084 C23.0888,8.56346 22.8993,8.25332 22.6236,8.09824 L22.6236,8.09824 L21.4347,7.40902 Z" id="Combined-Shape"></path>
            <path d="M54.5689,18.5227 C54.5689,22.21 51.8637,25.2081 48.4693,25.2081 C46.4016,25.2081 44.8336,24.2604 43.9032,22.6408 L43.9032,24.9497 L41.0085,24.9497 L41.0085,6.61646 L43.9204,6.61646 L43.9204,14.4563 C44.8336,12.8367 46.4016,11.889 48.4865,11.889 C51.8809,11.8717 54.5689,14.8354 54.5689,18.5227 Z M51.7086,18.5227 C51.7086,16.3689 50.0028,14.6458 47.8317,14.6458 C45.5746,14.6458 43.9032,16.3172 43.9032,18.5227 C43.9032,20.7454 45.5746,22.434 47.8317,22.434 C50.02,22.434 51.7086,20.6937 51.7086,18.5227 Z" id="Shape"></path>
            <path d="M69.4042,18.5572 C69.4042,22.3479 66.4923,25.2082 62.7533,25.2082 C59.0143,25.2082 56.1196,22.3479 56.1196,18.5572 C56.1196,14.7665 58.9971,11.8718 62.7533,11.8718 C66.5095,11.8718 69.4042,14.7493 69.4042,18.5572 Z M58.9971,18.5572 C58.9971,20.7283 60.6167,22.3996 62.7361,22.3996 C64.8554,22.3996 66.5095,20.7283 66.5095,18.5572 C66.5095,16.3517 64.8554,14.6804 62.7361,14.6804 C60.6167,14.6804 58.9971,16.3517 58.9971,18.5572 Z" id="Shape"></path>
            <path d="M75.6073,14.9044 L75.6073,20.0563 C75.6073,21.676 76.6066,22.3307 78.0195,22.3307 C78.3297,22.3307 78.6743,22.2962 78.9672,22.2273 L78.9672,24.9325 C78.5192,25.0359 77.8645,25.0876 77.3992,25.0876 C74.5734,25.0876 72.6781,23.3645 72.6781,20.108 L72.6781,14.9044 L70.2486,14.9044 L70.2486,12.1303 L72.6781,12.1303 L72.6781,8.70142 L75.6073,8.70142 L75.6073,12.1303 L78.9672,12.1303 L78.9672,14.9044 L75.6073,14.9044 Z" id="Path"></path>
            <path d="M94.8364,18.5572 C94.8364,22.2446 92.1312,25.2082 88.7368,25.2082 C86.6692,25.2082 85.1012,24.2605 84.1707,22.6409 L84.1707,29.4297 L81.2588,29.4297 L81.2588,12.1303 L84.1707,12.1303 L84.1707,14.4392 C85.0839,12.8195 86.6519,11.8718 88.7368,11.8718 C92.1312,11.8718 94.8364,14.8527 94.8364,18.5572 Z M91.9761,18.5572 C91.9761,16.3862 90.2703,14.6459 88.0993,14.6459 C85.8421,14.6459 84.1707,16.3173 84.1707,18.5572 C84.1707,20.7627 85.8421,22.4341 88.0993,22.4341 C90.2703,22.4341 91.9761,20.6938 91.9761,18.5572 Z" id="Shape"></path>
            <path d="M104.865,12.0269 L104.865,14.6976 C104.451,14.5942 104.003,14.5081 103.59,14.5081 C101.729,14.5081 100.212,15.7831 100.212,18.092 L100.212,24.9325 L97.3004,24.9325 L97.3004,12.1303 L100.212,12.1303 L100.212,13.8361 C100.97,12.6127 102.142,11.8718 103.676,11.8718 C104.055,11.8718 104.468,11.958 104.865,12.0269 Z" id="Path"></path>
            <path d="M118.098,19.5048 L108.276,19.5048 C108.638,21.3829 109.947,22.5718 112.015,22.5718 C113.583,22.5718 114.824,21.8309 115.082,20.7454 L118.011,20.7454 C117.546,23.4506 115.099,25.2253 111.963,25.2253 C108.224,25.2253 105.312,22.3133 105.312,18.4882 C105.312,14.7664 108.224,11.8889 111.912,11.8889 C115.375,11.8889 118.166,14.5424 118.166,18.2814 C118.166,18.6088 118.149,19.2636 118.098,19.5048 Z M114.996,17.0064 C114.738,15.5418 113.497,14.5252 111.739,14.5252 C110.016,14.5252 108.759,15.4384 108.328,17.0064 L114.996,17.0064 Z" id="Shape"></path>
            <path d="M119.752,20.8317 L122.56,20.8317 C122.664,21.9516 123.766,22.6926 125.214,22.6926 C126.627,22.6926 127.471,22.0895 127.471,21.1935 C127.471,18.4366 120.062,20.6766 120.062,15.8004 C120.062,13.5776 121.923,11.8718 124.904,11.8718 C127.557,11.8718 129.849,13.2847 130.142,15.8865 L127.212,15.8865 C127.075,15.025 126.196,14.3186 124.852,14.3186 C123.697,14.3186 122.888,14.8182 122.888,15.6281 C122.888,18.2126 130.331,15.8348 130.331,21.1763 C130.331,23.4852 128.212,25.2082 125.386,25.2082 C122.198,25.2082 120.01,23.5885 119.752,20.8317 Z" id="Path"></path>
            <path d="M131.71,20.8317 L134.518,20.8317 C134.622,21.9516 135.724,22.6926 137.172,22.6926 C138.585,22.6926 139.429,22.0895 139.429,21.1935 C139.429,18.4366 132.02,20.6766 132.02,15.8004 C132.02,13.5776 133.881,11.8718 136.861,11.8718 C139.515,11.8718 141.807,13.2847 142.1,15.8865 L139.17,15.8865 C139.033,15.025 138.154,14.3186 136.81,14.3186 C135.655,14.3186 134.846,14.8182 134.846,15.6281 C134.846,18.2126 142.289,15.8348 142.289,21.1763 C142.289,23.4852 140.17,25.2082 137.344,25.2082 C134.174,25.2082 131.985,23.5885 131.71,20.8317 Z" id="Path"></path>
        </g>
    </g>
</svg>