<svg id="elements" xmlns="http://www.w3.org/2000/svg" viewBox="0 0 1120 360"><defs><style>.cls-1{fill:#000;}.cls-2{fill:#e20e1e;}</style></defs><title>crakmedia_logo_horiz_colorblack</title><path class="cls-1" d="M182.88,57.12A122.88,122.88,0,1,0,305.77,180,122.87,122.87,0,0,0,182.88,57.12Zm-61,141.51a17.1,17.1,0,0,0,13.83-6.69l11.9,12.78c-7.29,7.29-19.49,10-25.73,10-21.57,0-38.82-15-38.82-37.47s17.25-37.47,38.82-37.47c9.07,0,19,3.28,25.87,10.86l-12.34,12.34c-4.16-4.31-8.77-7.14-13.53-7.14-13.09,0-21,10.27-21,21.41S108.79,198.63,121.88,198.63ZM254.06,212.9V172.45c0-8.92-2.68-16.65-13.24-16.65-8.44,0-12.87,5.29-14.53,11.86h-.84a45.3,45.3,0,0,0-2.58-15c5.2-8.85,12.72-12.94,23.31-12.94,19,0,25.72,13.53,25.72,30.63V212.9Z"/><path class="cls-2" d="M157.56,141.52h16.71V153h.29c3.22-7.13,9.82-13.23,21.54-13.23,18.91,0,25.66,13.53,25.66,28.11V212.9H204.17V176.77c0-7.88-.6-21-12.91-21-11.56,0-16.11,8.63-16.11,18.14v39H157.56Z"/><path class="cls-1" d="M411.7,162.93c-4.16-4.31-8.78-7.13-13.53-7.13-13.1,0-21,10.25-21,21.4s7.88,21.43,21,21.43A17.14,17.14,0,0,0,412,191.94l11.89,12.79c-7.29,7.28-19.48,10-25.72,10-21.57,0-38.83-15-38.83-37.49s17.26-37.47,38.83-37.47c9.06,0,19,3.27,25.88,10.86Z"/><path class="cls-1" d="M434.6,141.52h17.85v11.3h.29a22.77,22.77,0,0,1,21.13-13.09,23.21,23.21,0,0,1,6.39,1V158a35.52,35.52,0,0,0-8.63-1.34c-16.8,0-19.18,14.13-19.18,18V212.9H434.6Z"/><path class="cls-1" d="M537.08,203.1h-.44c-5.06,8-13.39,11.59-22.92,11.59-13.23,0-26-7.28-26-21.41,0-23.21,27.09-24.83,44.92-24.83h4.47v-1.94c0-8.77-6.85-13.4-16.37-13.4a28.1,28.1,0,0,0-19,7.44l-9.36-9.37c7.87-8,19-11.45,30.33-11.45,30.49,0,30.49,22,30.49,32.13v41H537.08Zm-1-22.16h-3.74c-9.81,0-26.75.73-26.75,11,0,6.54,6.69,9.37,12.48,9.37,12.19,0,18-6.4,18-16.36Z"/><path class="cls-1" d="M572.32,100.47h17.86v70.64l27.52-29.59h22.9L610,173.94l32.57,39H618.88l-28.41-36.42h-.29V212.9H572.32Z"/><path class="cls-1" d="M651.45,141.52H668.4v11.15h.3c3.12-6.68,10-12.94,21.87-12.94,11,0,18.58,4.32,22.31,13.23,5.2-9.06,12.78-13.23,23.5-13.23,19,0,25.73,13.53,25.73,30.65V212.9H744.26V172.46c0-8.92-2.68-16.66-13.24-16.66-11.16,0-15.31,9.22-15.31,18.44V212.9H697.86V170.38c0-8.78-3.58-14.58-12.21-14.58-11.75,0-16.36,8.63-16.36,18.14v39H651.45Z"/><path class="cls-1" d="M795.87,183.46c1.19,10.55,9.22,17,19.18,17,8.93,0,14.72-4.17,19.19-9.67L847,200.42c-8.34,10.26-18.89,14.27-30.19,14.27-21.57,0-38.82-15-38.82-37.49s17.25-37.47,38.82-37.47c19.93,0,33.47,14,33.47,38.82v4.91Zm36.59-13.39c-.16-10.4-7-17-18.15-17-10.55,0-17.11,6.71-18.44,17Z"/><path class="cls-1" d="M923.48,202.2h-.31c-5.19,8.62-14.57,12.49-24.54,12.49-22,0-35.24-16.35-35.24-37.49s14.12-37.47,34.5-37.47c13.38,0,20.52,6.26,24.24,10.86h.46V100.47h17.85V212.9h-17Zm-21.27-3.57c13.08,0,21-10.26,21-21.43s-7.88-21.4-21-21.4-21,10.25-21,21.4S889.12,198.63,902.21,198.63Z"/><path class="cls-1" d="M969.74,106.56c6.54,0,11.58,4.62,11.58,10.71s-5,10.71-11.58,10.71a10.73,10.73,0,1,1,0-21.42Zm-8.8,35H978.8V212.9H960.94Z"/><path class="cls-1" d="M1043.94,203.1h-.44c-5.07,8-13.4,11.59-22.92,11.59-13.23,0-26-7.28-26-21.41,0-23.21,27.07-24.83,44.94-24.83h4.44v-1.94c0-8.77-6.84-13.4-16.35-13.4a28.07,28.07,0,0,0-19,7.44l-9.38-9.37c7.9-8,19-11.45,30.35-11.45,30.48,0,30.48,22,30.48,32.13v41h-16.06Zm-1-22.16h-3.73c-9.81,0-26.77.73-26.77,11,0,6.54,6.69,9.37,12.49,9.37,12.2,0,18-6.4,18-16.36Z"/></svg>