<svg id="elements" xmlns="http://www.w3.org/2000/svg" viewBox="0 0 1120 360"><title>crakmedia_logo_horiz_colorblack</title><path d="m182.9,57.1h0c-67.9,0-122.9,55-122.9,122.9s55,122.9,122.9,122.9,122.9-55,122.9-122.9-55-122.9-122.9-122.9Zm-61,141.5c5.4.1,10.5-2.4,13.8-6.7l11.9,12.8c-7.3,7.3-19.5,10-25.7,10-21.6,0-38.8-15-38.8-37.5s17.2-37.5,38.8-37.5c9.1,0,19,3.3,25.9,10.9l-12.4,12.4c-4.2-4.3-8.8-7.1-13.5-7.1-13.1,0-21,10.3-21,21.4,0,11.1,7.9,21.3,21,21.3Zm99.9,14.3h-17.6v-36.1c0-7.9-.6-21-12.9-21-11.6,0-16.1,8.6-16.1,18.1v39h-17.6v-71.4h16.7v11.5h.3c3.2-7.1,9.8-13.2,21.5-13.2,18.9,0,25.7,13.5,25.7,28.1v45h0Zm32.3,0v-40.4c0-8.9-2.7-16.7-13.2-16.7-8.4,0-12.9,5.3-14.5,11.9h-.8c0-5.1-.9-10.2-2.6-15,5.2-8.8,12.7-12.9,23.3-12.9,19,0,25.7,13.5,25.7,30.6v42.5h-17.9Z"/><path d="m411.7,162.9c-4.2-4.3-8.8-7.1-13.5-7.1-13.1,0-21,10.2-21,21.4s7.9,21.4,21,21.4c5.4.1,10.5-2.4,13.8-6.7l11.9,12.8c-7.3,7.3-19.5,10-25.7,10-21.6,0-38.8-15-38.8-37.5s17.3-37.5,38.8-37.5c9.1,0,19,3.3,25.9,10.9l-12.4,12.3Z"/><path d="m434.6,141.5h17.9v11.3h.3c3.8-8.2,12.1-13.3,21.1-13.1,2.2,0,4.3.4,6.4,1v17.3c-2.8-.8-5.7-1.3-8.6-1.3-16.8,0-19.2,14.1-19.2,18v38.2h-17.9v-71.4h0Z"/><path d="m537.1,203.1h-.4c-5.1,8-13.4,11.6-22.9,11.6-13.2,0-26-7.3-26-21.4,0-23.2,27.1-24.8,44.9-24.8h4.5v-1.9c0-8.8-6.8-13.4-16.4-13.4-7,0-13.8,2.7-19,7.4l-9.4-9.4c7.9-8,19-11.4,30.3-11.4,30.5,0,30.5,22,30.5,32.1v41h-16.1v-9.8Zm-1-22.2h-3.7c-9.8,0-26.8.7-26.8,11,0,6.5,6.7,9.4,12.5,9.4,12.2,0,18-6.4,18-16.4v-4Z"/><path d="m572.3,100.5h17.9v70.6l27.5-29.6h22.9l-30.6,32.4,32.6,39h-23.7l-28.4-36.4h-.3v36.4h-17.9v-112.4h0Z"/><path d="m651.5,141.5h17v11.1h.3c3.1-6.7,10-12.9,21.9-12.9,11,0,18.6,4.3,22.3,13.2,5.2-9.1,12.8-13.2,23.5-13.2,19,0,25.7,13.5,25.7,30.6v42.5h-17.8v-40.4c0-8.9-2.7-16.7-13.2-16.7-11.2,0-15.3,9.2-15.3,18.4v38.7h-17.9v-42.5c0-8.8-3.6-14.6-12.2-14.6-11.8,0-16.4,8.6-16.4,18.1v39h-17.8v-71.3h-.1Z"/><path d="m795.9,183.5c1.2,10.6,9.2,17,19.2,17,8.9,0,14.7-4.2,19.2-9.7l12.8,9.6c-8.3,10.3-18.9,14.3-30.2,14.3-21.6,0-38.8-15-38.8-37.5s17.2-37.5,38.8-37.5c19.9,0,33.5,14,33.5,38.8v4.9l-54.5.1Zm36.6-13.4c-.2-10.4-7-17-18.2-17-10.5,0-17.1,6.7-18.4,17h36.6Z"/><path d="m923.5,202.2h-.3c-5.2,8.6-14.6,12.5-24.5,12.5-22,0-35.2-16.4-35.2-37.5s14.1-37.5,34.5-37.5c13.4,0,20.5,6.3,24.2,10.9h.5v-50.1h17.8v112.4h-17v-10.7Zm-21.3-3.6c13.1,0,21-10.3,21-21.4s-7.9-21.4-21-21.4-21,10.2-21,21.4,7.9,21.4,21,21.4h0Z"/><path d="m969.7,106.6c6.5,0,11.6,4.6,11.6,10.7s-5,10.7-11.6,10.7c-5.9.4-11-4.1-11.4-10.1-.4-5.9,4.1-11,10.1-11.4.5,0,.9,0,1.3.1Zm-8.8,35h17.9v71.3h-17.9v-71.3Z"/><path d="m1043.9,203.1h-.4c-5.1,8-13.4,11.6-22.9,11.6-13.2,0-26-7.3-26-21.4,0-23.2,27.1-24.8,44.9-24.8h4.4v-1.9c0-8.8-6.8-13.4-16.3-13.4-7,0-13.8,2.7-19,7.4l-9.4-9.4c7.9-8,19-11.4,30.3-11.4,30.5,0,30.5,22,30.5,32.1v41h-16l-.1-9.8Zm-1-22.2h-3.7c-9.8,0-26.8.7-26.8,11,0,6.5,6.7,9.4,12.5,9.4,12.2,0,18-6.4,18-16.4v-4Z"/></svg>