<svg xmlns="http://www.w3.org/2000/svg" viewBox="0 0 205 30.64" fill="#2175d9"><path d="M15.95 30.14h4.55V18.69a2.26 2.26 0 00-.67-1.62l-6.75-6.75a2.25 2.25 0 00-1.62-.67H0v4.56h12.53a3.42 3.42 0 013.42 3.42zm11.33 0h-4.56V18.69a2.26 2.26 0 01.67-1.62l6.75-6.75a2.25 2.25 0 011.62-.67h11.46v4.56H30.69a3.42 3.42 0 00-3.42 3.42zM63.8 9.64h3.52v3.18h.08a6.24 6.24 0 015.34-3.66 10.69 10.69 0 012.49.28v3.38a5.6 5.6 0 00-2.09-.36c-3.38 0-5.59 3.22-5.59 8.37v9.33H63.8zm115.44 12.53c0 3.09-2 5.44-5.7 5.44-1.72 0-3.81-1.18-3.81-3.36 0-3.65 5.06-4 7.1-4 .8 0 1.6.08 2.41.08zm-11-7.87a9.52 9.52 0 015.94-2.13c3.77 0 5.05 1.84 5.05 5.38-1.48-.08-2.53-.08-4-.08-3.89 0-9.52 1.6-9.52 6.75 0 4.5 3.1 6.42 7.51 6.42a7.6 7.6 0 006.34-3.11h.08v2.61H183V17.61c0-5.6-2.36-8.47-8.21-8.47a13.1 13.1 0 00-6.79 1.92zM88 22.17c0 3.09-2 5.44-5.7 5.44-1.73 0-3.81-1.18-3.81-3.36 0-3.65 5.06-4 7.1-4 .8 0 1.6.08 2.41.08zM77 14.3a9.52 9.52 0 016-2.13c3.77 0 5.06 1.84 5.06 5.38-1.48-.08-2.53-.08-4-.08-3.89 0-9.52 1.6-9.52 6.75 0 4.5 3.1 6.42 7.51 6.42a7.6 7.6 0 006.34-3.11h.08v2.61h3.33V17.61c0-5.6-2.36-8.47-8.21-8.47a13.1 13.1 0 00-6.74 1.92zm17.88-4.66h3.64v3.18h.08a7.39 7.39 0 016.73-3.72c5.31 0 7.66 3.28 7.66 8.79v12.25h-3.76V19.51c0-4.79-1-7.13-4.35-7.33-4.31 0-6.24 3.47-6.24 8.48v9.48h-3.76zm42.67 16.51a10.06 10.06 0 004.7 1.45c1.72 0 3.85-.73 3.85-2.95 0-3.76-8.87-3.43-8.87-9.21 0-4.27 3.18-6.31 7.23-6.31a15.49 15.49 0 014.7.81l-.32 3.27a11 11 0 00-4-1.05c-1.92 0-3.61.81-3.61 2.51 0 4.2 8.87 3 8.87 9.58 0 4.39-3.5 6.39-7.15 6.39a11.84 11.84 0 01-5.62-1.12zm26.93-13.48h-5.43v11.26c0 2.38 1.45 3.67 3.17 3.67a4.65 4.65 0 002.57-.73v3.2a11.94 11.94 0 01-3.21.56c-3.89 0-6.29-1.83-6.29-5.94v-12h-4.62v-3h4.62V4.9l3.76-1.2v5.94h5.43zm25.08 7.15c-.08-3.76 1.53-7.64 5.62-7.64s6.06 3.92 6.06 7.76c0 3.43-1.77 7.68-6 7.68-4.07-.01-5.76-4.58-5.68-7.8zm11.84 10.32h3.6V0h-3.76v12.42h-.08c-1.16-1.88-3.16-3.28-6.78-3.28-5.94 0-8.84 4.85-8.84 10.37s2.61 11.13 8.8 11.13a8.22 8.22 0 007-3.36h.08zm-81.83-10.32c-.08-3.76 1.53-7.64 5.62-7.64s6.06 3.92 6.06 7.76c0 3.43-1.77 7.68-6 7.68-4.08-.01-5.77-4.58-5.68-7.8zm11.84 10.33H135V0h-3.76v12.42h-.08c-1.16-1.88-3.16-3.28-6.78-3.28-5.94 0-8.84 4.85-8.84 10.37s2.61 11.13 8.8 11.13a8.22 8.22 0 007-3.36h.08z"/></svg>