<?xml version="1.0" encoding="UTF-8"?>
<svg width="137px" height="25px" viewBox="0 0 137 25" version="1.1" xmlns="http://www.w3.org/2000/svg" xmlns:xlink="http://www.w3.org/1999/xlink">
    <title>logo-apollo13</title>
    <g id="Page-1" stroke="none" stroke-width="1" fill="none" fill-rule="evenodd">
        <g id="logo-apollo13" fill="#000000" fill-rule="nonzero">
            <path d="M128.025,0 L126.045,0.59 L126.36,1.832 L127.562,1.536 L127.562,6.942 L129.059,6.942 L129.059,0 L128.025,0 Z M134.656,2.856 L136.4,1.191 L136.4,0.05 L131.74,0.05 L131.74,1.35 L134.45,1.35 L132.804,3.004 L133.041,3.97 L133.671,3.97 C134.519,3.97 135.021,4.285 135.021,4.847 L135.021,4.867 C135.021,5.377 134.617,5.704 134.046,5.704 C133.346,5.704 132.853,5.408 132.38,4.876 L131.336,5.871 C131.927,6.57 132.785,7.062 134.026,7.062 C135.564,7.062 136.509,6.107 136.509,4.807 L136.509,4.787 C136.509,3.507 135.593,3.015 134.656,2.857" id="Shape"></path>
            <path d="M32.004,13.397 L33.686,13.397 C33.695,13.309 33.711,13.225 33.711,13.135 L33.711,13.087 C33.711,11.424 32.554,10.532 30.697,10.532 L27.827,10.532 L27.827,13.397 L26.145,13.397 L26.145,15.69 L29.087,15.69 C30.829,15.69 31.878,14.71 32.004,13.397 L32.004,13.397 Z M31.011,7.182 C35.038,7.182 37.474,9.568 37.474,13.014 L37.474,13.063 C37.474,13.178 37.462,13.286 37.456,13.397 L35.776,13.397 C35.711,14.77 35.261,15.899 34.527,16.771 L36.209,16.771 C34.975,18.238 32.953,18.991 30.649,18.991 L27.828,18.991 L27.828,24.054 L24.115,24.054 L24.115,16.77 L22.433,16.77 L22.433,13.396 L24.115,13.396 L24.115,7.182 L31.012,7.182 L31.011,7.182 Z M52.086,20.92 C54.684,20.92 56.588,19.136 57.044,16.771 L55.362,16.771 C55.43,16.414 55.468,16.045 55.468,15.666 L55.468,15.618 C55.468,14.828 55.304,14.076 55.014,13.398 L56.695,13.398 C55.92,11.591 54.211,10.315 52.037,10.315 C49.848,10.315 48.154,11.583 47.402,13.397 L45.72,13.397 C45.4353382,14.0856773 45.2895466,14.823811 45.2909892,15.569 L45.2909892,15.618 C45.2909892,16.013 45.335,16.398 45.411,16.771 L47.093,16.771 C47.574,19.123 49.505,20.921 52.086,20.921 L52.086,20.92 Z M59.351,15.618 C59.351,16.009 59.317,16.393 59.267,16.771 L60.948,16.771 C60.396,21.027 56.82,24.343 52.037,24.343 C47.237,24.343 43.693,21.043 43.167,16.771 L41.484,16.771 C41.4363008,16.4045594 41.4112532,16.0355252 41.409,15.666 L41.409,15.618 C41.409,14.85 41.516,14.108 41.701,13.398 L43.381,13.398 C44.35,9.668 47.711,6.893 52.086,6.893 C56.478,6.893 59.815,9.656 60.756,13.397 L59.074,13.397 C59.249,14.093 59.351,14.817 59.351,15.569 L59.351,15.618 L59.351,15.618 Z M71.665,16.771 L71.665,20.679 L80.081,20.679 L80.081,24.054 L67.951,24.054 L67.951,16.771 L66.271,16.771 L66.271,13.397 L67.951,13.397 L67.951,7.182 L71.665,7.182 L71.665,13.397 L69.985,13.397 L69.985,16.771 L71.665,16.771 Z M90.208,16.771 L90.208,20.679 L98.624,20.679 L98.624,24.054 L86.494,24.054 L86.494,16.771 L84.814,16.771 L84.814,13.397 L86.494,13.397 L86.494,7.182 L90.208,7.182 L90.208,13.397 L88.528,13.397 L88.528,16.771 L90.208,16.771 Z M112.321,20.921 C114.919,20.921 116.824,19.136 117.278,16.771 L115.596,16.771 C115.666,16.414 115.703,16.045 115.703,15.666 L115.703,15.618 C115.703,14.828 115.539,14.076 115.249,13.398 L116.931,13.398 C116.155,11.591 114.446,10.315 112.272,10.315 C110.082,10.315 108.388,11.583 107.636,13.397 L105.954,13.397 C105.670023,14.0858166 105.524912,14.8239452 105.526978,15.569 L105.526978,15.618 C105.526978,16.013 105.57,16.398 105.646,16.771 L107.327,16.771 C107.809,19.123 109.739,20.921 112.321,20.921 L112.321,20.921 Z M119.585,15.618 C119.585,16.009 119.552,16.393 119.502,16.771 L121.184,16.771 C120.631,21.027 117.056,24.343 112.272,24.343 C107.471,24.343 103.928,21.043 103.401,16.771 L101.72,16.771 C101.671964,16.4045804 101.646582,16.0355459 101.644,15.666 L101.644,15.618 C101.644,14.85 101.751,14.108 101.935,13.398 L103.617,13.398 C104.584,9.668 107.946,6.893 112.321,6.893 C116.713,6.893 120.049,9.656 120.991,13.397 L119.309,13.397 C119.484,14.093 119.585,14.817 119.585,15.569 L119.585,15.618 L119.585,15.618 Z M8.13,13.397 L9.668,13.397 L8.898,11.52 L8.128,13.397 L8.13,13.397 Z M13.11,16.771 L14.921,16.771 L17.893,24.054 L14.011,24.054 L12.698,20.834 C12.238,19.619 11.626,18.002 11.156,16.771 L9.369,16.771 L7.988,13.397 L6.448,13.397 L5.065,16.771 L6.746,16.771 L4.453,22.418 L3.786,24.054 L0,24.054 L2.973,16.771 L1.42,16.771 L2.856,13.397 L4.538,13.397 L7.235,7.061 L10.66,7.061 L13.357,13.397 L11.675,13.397 L13.111,16.771 L13.11,16.771 Z" id="Shape"></path>
        </g>
    </g>
</svg>