<?xml version="1.0" encoding="UTF-8"?>
<svg width="419px" height="242px" viewBox="0 0 419 242" version="1.1" xmlns="http://www.w3.org/2000/svg" xmlns:xlink="http://www.w3.org/1999/xlink">
    <title>Group 2</title>
    <g id="Page-1" stroke="none" stroke-width="1" fill="none" fill-rule="evenodd">
        <g id="Group-2" transform="translate(0.5938, 0.7414)" fill-rule="nonzero">
            <path d="M38.5661642,172.095525 L5.75148422,151.833525 C-1.99912978,164.385525 -1.91005478,180.259525 5.98093422,192.724525 C13.8718642,205.189525 28.1820642,212.059525 42.8434642,210.423525 L38.5661642,172.095525 Z M70.8785642,114.163525 L35.9832642,97.7425253 C35.7719642,98.1915253 35.5694642,98.6445253 35.3756642,99.1005253 L70.8785642,114.163525 Z M73.7592642,76.1887253 L61.4934642,39.6251253 C42.6073642,45.9607253 31.6540642,65.6375253 36.2196642,85.0277253 L73.7592642,76.1887253 Z M108.067664,64.6794253 L146.580664,62.6601253 C145.949664,50.6225253 139.726664,39.5724253 129.759664,32.7923253 C119.793664,26.0122253 107.229664,24.2820253 95.8018642,28.1158253 L108.067664,64.6794253 Z M94.1052642,102.392525 L61.7830642,81.3539253 C61.6116642,81.6173253 61.4434642,81.8827253 61.2784642,82.1502253 L94.1052642,102.392525 Z M60.9041642,150.682525 L30.0704642,127.517525 C20.8269642,139.820525 19.7824642,156.441525 27.4127642,169.804525 C35.0431642,183.168525 49.8876642,190.717525 65.1814642,189.010525 L60.9041642,150.682525 Z M98.2796642,146.511525 L102.556664,184.839525 C123.724664,182.477525 138.969664,163.402525 136.607664,142.233525 L98.2796642,146.511525 Z M95.8842642,125.048525 L74.0971642,93.2258253 C62.3361642,101.277525 55.9752642,115.160525 57.5560642,129.325525 L95.8842642,125.048525 Z M120.074664,108.486525 L158.403664,104.208525 C156.901664,90.7506253 148.450664,79.0662253 136.139664,73.4253253 C123.828664,67.7844253 109.461664,69.0136253 98.2876642,76.6637253 L120.074664,108.486525 Z M123.956664,143.271525 L85.6287642,147.548525 C86.8860642,158.815525 93.0368642,168.957525 102.446664,175.281525 C111.855664,181.604525 123.570664,183.467525 134.476664,180.374525 L123.956664,143.271525 Z M136.101664,131.237525 L98.9266642,120.974525 C98.9086642,121.039525 98.8906642,121.104525 98.8736642,121.169525 L136.101664,131.237525 Z M137.702664,125.439525 L133.425664,87.1112253 C117.752664,88.8602253 104.723664,99.9745253 100.527664,115.175525 L137.702664,125.439525 Z M144.363664,124.695525 L182.927664,125.055525 C183.030664,114.020525 178.401664,103.469525 170.210664,96.0735253 C162.020664,88.6771253 151.053664,85.1438253 140.086664,86.3678253 L144.363664,124.695525 Z M144.031664,160.325525 L148.308664,198.654525 C167.695664,196.490525 182.413664,180.191525 182.595664,160.685525 L144.031664,160.325525 Z M118.312664,163.196525 L114.035664,124.867525 C92.8671642,127.230525 77.6220642,146.305525 79.9843642,167.473525 L118.312664,163.196525 Z M118.766664,167.266525 L80.4386642,171.544525 C82.8009642,192.712525 101.875664,207.957525 123.044664,205.594525 L118.766664,167.266525 Z M126.537664,166.399525 L164.865664,162.122525 C162.503664,140.954525 143.428664,125.708525 122.260664,128.071525 L126.537664,166.399525 Z M141.125664,189.686525 L140.683664,151.122525 C140.622664,151.123525 140.562664,151.124525 140.501664,151.125525 L141.125664,189.686525 Z M144.867664,189.643525 L183.195664,185.366525 C180.998664,165.675525 164.237664,150.852525 144.425664,151.079525 L144.867664,189.643525 Z M145.507664,195.379525 L149.785664,233.707525 C170.953664,231.345525 186.198664,212.270525 183.835664,191.102525 L145.507664,195.379525 Z M88.7046642,201.718525 L50.3764642,205.995525 C52.7387642,227.163525 71.8139642,242.408525 92.9819642,240.046525 L88.7046642,201.718525 Z M88.0645642,195.982525 L80.1726642,158.232525 C60.7103642,162.301525 47.5311642,180.499525 49.7363642,200.259525 L88.0645642,195.982525 Z M91.9088642,195.178525 L99.8006642,232.928525 L99.8006642,232.928525 L91.9088642,195.178525 Z M100.364664,165.199525 L138.693664,160.921525 C136.330664,139.753525 117.255664,124.508525 96.0876642,126.870525 L100.364664,165.199525 Z M71.3807642,192.357525 C84.2261642,171.553525 98.3546642,148.145525 106.381664,129.226525 L35.3756642,99.1005253 C30.0538642,111.644525 19.2429642,129.983525 5.75148422,151.833525 L71.3807642,192.357525 Z M105.773664,130.585525 C111.844664,117.683525 114.583664,105.401525 114.713664,93.4112253 C114.836664,82.1000253 112.533664,72.5925253 111.298664,67.3497253 L36.2196642,85.0277253 C37.4780642,90.3718253 37.5958642,91.6467253 37.5857642,92.5736253 C37.5831642,92.8211253 37.6346642,94.2330253 35.9832642,97.7425253 L105.773664,130.585525 Z M86.0250642,112.752525 L120.333664,101.242525 L95.8018642,28.1158253 L61.4934642,39.6251253 L86.0250642,112.752525 Z M69.5544642,66.6986253 C69.5634642,66.8700253 69.5515642,66.7821253 69.5720642,66.6364253 C69.5892642,66.5146253 69.5691642,66.7933253 69.2808642,67.6230253 C68.6173642,69.5327253 66.7849642,73.6693253 61.7830642,81.3539253 L126.427664,123.430525 C140.351664,102.038525 147.687664,83.7640253 146.580664,62.6601253 L69.5544642,66.6986253 Z M61.2784642,82.1502253 C52.3195642,96.6785253 42.6945642,110.713525 30.0704642,127.517525 L91.7378642,173.847525 C105.536664,155.481525 116.538664,139.489525 126.931664,122.634525 L61.2784642,82.1502253 Z M65.1814642,189.010525 L102.556664,184.839525 L94.0021642,108.183525 L56.6267642,112.354525 L65.1814642,189.010525 Z M136.607664,142.233525 L134.212664,120.770525 L57.5560642,129.325525 L59.9513642,150.788525 L136.607664,142.233525 Z M117.671664,156.870525 L141.861664,140.308525 L98.2876642,76.6637253 L74.0971642,93.2258253 L117.671664,156.870525 Z M81.7467642,112.763525 L85.6287642,147.548525 L162.284664,138.993525 L158.403664,104.208525 L81.7467642,112.763525 Z M134.476664,180.374525 C142.540664,178.088525 151.340664,173.892525 158.941664,166.382525 C166.621664,158.793525 171.018664,149.853525 173.330664,141.306525 L98.8736642,121.169525 C99.4606642,118.996525 101.054664,115.146525 104.727664,111.517525 C108.320664,107.966525 111.910664,106.600525 113.436664,106.167525 L134.476664,180.374525 Z M173.277664,141.501525 L174.877664,135.702525 L100.527664,115.175525 L98.9266642,120.974525 L173.277664,141.501525 Z M141.979664,163.767525 L148.640664,163.024525 L140.086664,86.3678253 L133.425664,87.1112253 L141.979664,163.767525 Z M105.799664,124.336525 L105.466664,159.966525 L182.595664,160.685525 L182.927664,125.055525 L105.799664,124.336525 Z M139.753664,121.997525 L114.035664,124.867525 L122.589664,201.524525 L148.308664,198.654525 L139.753664,121.997525 Z M79.9843642,167.473525 L80.4386642,171.544525 L157.094664,162.989525 L156.640664,158.918525 L79.9843642,167.473525 Z M123.044664,205.594525 L130.815664,204.727525 L122.260664,128.071525 L114.489664,128.938525 L123.044664,205.594525 Z M88.2097642,170.676525 L89.6758642,183.813525 L166.332664,175.259525 L164.865664,162.122525 L88.2097642,170.676525 Z M89.6758642,183.813525 C90.9121642,194.892525 95.8572642,208.507525 108.756664,218.198525 C120.545664,227.055525 133.465664,228.381525 141.749664,228.247525 L140.501664,151.125525 C140.932664,151.118525 147.693664,150.977525 155.086664,156.531525 C163.589664,162.919525 165.900664,171.396525 166.332664,175.259525 L89.6758642,183.813525 Z M141.568664,228.250525 L145.309664,228.207525 L144.425664,151.079525 L140.683664,151.122525 L141.568664,228.250525 Z M106.539664,193.920525 L107.179664,199.656525 L183.835664,191.102525 L183.195664,185.366525 L106.539664,193.920525 Z M141.230664,157.051525 L84.4273642,163.390525 L92.9819642,240.046525 L149.785664,233.707525 L141.230664,157.051525 Z M127.032664,197.441525 L126.392664,191.705525 L49.7363642,200.259525 L50.3764642,205.995525 L127.032664,197.441525 Z M95.9564642,233.732525 L99.8006642,232.928525 L84.0169642,157.428525 L80.1726642,158.232525 L95.9564642,233.732525 Z M99.8006642,232.928525 C107.933664,231.228525 120.410664,227.038525 129.966664,215.517525 C140.305664,203.051525 141.794664,188.717525 140.613664,178.129525 L63.9571642,186.683525 C63.5808642,183.311525 63.7258642,174.560525 70.5982642,166.274525 C76.6868642,158.934525 83.5723642,157.521525 84.0169642,157.428525 L99.8006642,232.928525 Z M140.613664,178.129525 L138.693664,160.921525 L62.0367642,169.476525 L63.9571642,186.683525 L140.613664,178.129525 Z M96.0876642,126.870525 L34.2887642,133.767525 L42.8434642,210.423525 L104.642664,203.527525 L96.0876642,126.870525 Z M206.782664,93.9672253 C209.931664,93.6157253 212.921664,94.4247253 215.967664,97.2965253 C219.243664,100.385525 223.783664,107.234525 225.206664,119.982525 L301.862664,111.428525 C295.664664,55.8850253 254.662664,11.0128253 198.227664,17.3108253 L206.782664,93.9672253 Z M225.206664,119.982525 C226.650664,132.923525 223.790664,141.440525 220.995664,145.855525 C218.351664,150.033525 215.876664,150.781525 214.451664,150.940525 L223.006664,227.596525 C280.347664,221.197525 307.813664,164.750525 301.862664,111.428525 L225.206664,119.982525 Z M214.451664,150.940525 C211.258664,151.296525 208.301664,150.480525 205.275664,147.609525 C201.988664,144.489525 197.439664,137.568525 196.007664,124.739525 L119.351664,133.294525 C125.522664,188.590525 166.177664,233.938525 223.006664,227.596525 L214.451664,150.940525 Z M196.007664,124.739525 C194.564664,111.804525 197.428664,103.364525 200.189664,99.0215253 C202.795664,94.9215253 205.264664,94.1366253 206.782664,93.9672253 L198.227664,17.3108253 C141.009664,23.6963253 113.383664,79.8200253 119.351664,133.294525 L196.007664,124.739525 Z M197.657664,27.3031253 C169.661664,30.4273253 156.751664,53.6003253 151.994664,68.5372253 C146.798664,84.8527253 146.105664,104.452525 148.459664,125.550525 L225.116664,116.995525 C223.402664,101.643525 224.824664,94.0311253 225.489664,91.9429253 C225.790664,90.9978253 225.354664,93.0409253 222.669664,95.9365253 C219.635664,99.2075253 214.047664,103.084525 206.211664,103.959525 L197.657664,27.3031253 Z M148.459664,125.550525 C150.878664,147.221525 155.799664,167.929525 164.854664,184.206525 C173.688664,200.086525 192.683664,221.052525 223.022664,217.666525 L214.467664,141.010525 C220.570664,140.329525 226.102664,142.202525 229.729664,144.709525 C232.688664,146.754525 233.158664,148.326525 232.258664,146.708525 C230.299664,143.186525 227.013664,133.994525 225.116664,116.995525 L148.459664,125.550525 Z M223.022664,217.666525 C250.883664,214.557525 263.885664,191.553525 268.725664,176.583525 C274.013664,160.227525 274.767664,140.574525 272.404664,119.398525 L195.748664,127.953525 C197.452664,143.227525 195.999664,150.796525 195.333664,152.855525 C195.032664,153.787525 195.469664,151.781525 198.129664,148.933525 C201.118664,145.731525 206.657664,141.881525 214.467664,141.010525 L223.022664,217.666525 Z M272.404664,119.398525 C269.987664,97.7395253 265.065664,76.9918253 255.951664,60.6818253 C246.979664,44.6254253 227.898664,23.9282253 197.657664,27.3031253 L206.211664,103.959525 C200.279664,104.621525 194.826664,102.831525 191.188664,100.338525 C188.217664,98.3035253 187.731664,96.7195253 188.618664,98.3065253 C190.564664,101.789525 193.849664,110.942525 195.748664,127.953525 L272.404664,119.398525 Z M272.559664,145.982525 L239.744664,125.720525 C231.994664,138.272525 232.083664,154.146525 239.974664,166.611525 C247.865664,179.075525 262.175664,185.946525 276.836664,184.310525 L272.559664,145.982525 Z M304.871664,88.0506253 L269.976664,71.6292253 C269.765664,72.0781253 269.562664,72.5310253 269.369664,72.9878253 L304.871664,88.0506253 Z M307.752664,50.0756253 L295.486664,13.5120253 C276.600664,19.8477253 265.647664,39.5244253 270.213664,58.9146253 L307.752664,50.0756253 Z M342.061664,38.5663253 L380.574664,36.5471253 C379.943664,24.5095253 373.720664,13.4593253 363.753664,6.67922534 C353.786664,-0.100864657 341.223664,-1.83101466 329.795664,2.00275534 L342.061664,38.5663253 Z M328.098664,76.2793253 L295.776664,55.2408253 C295.605664,55.5042253 295.436664,55.7696253 295.271664,56.0371253 L328.098664,76.2793253 Z M294.897664,124.569525 L264.063664,101.404525 C254.820664,113.707525 253.775664,130.328525 261.406664,143.691525 C269.036664,157.055525 283.881664,164.604525 299.174664,162.897525 L294.897664,124.569525 Z M332.272664,120.398525 L336.550664,158.726525 C357.718664,156.364525 372.963664,137.289525 370.601664,116.120525 L332.272664,120.398525 Z M329.877664,98.9355253 L308.090664,67.1128253 C296.329664,75.1649253 289.968664,89.0472253 291.549664,103.212525 L329.877664,98.9355253 Z M354.068664,82.3731253 L392.396664,78.0957253 C390.894664,64.6376253 382.444664,52.9532253 370.133664,47.3123253 C357.822664,41.6714253 343.455664,42.9005253 332.281664,50.5507253 L354.068664,82.3731253 Z M357.950664,117.158525 L319.622664,121.435525 C320.879664,132.702525 327.030664,142.844525 336.439664,149.167525 C345.849664,155.491525 357.563664,157.354525 368.470664,154.261525 L357.950664,117.158525 Z M370.095664,105.124525 L332.919664,94.8615253 C332.901664,94.9264253 332.884664,94.9913253 332.866664,95.0563253 L370.095664,105.124525 Z M371.696664,99.3265253 L367.418664,60.9981253 C351.746664,62.7471253 338.717664,73.8618253 334.520664,89.0629253 L371.696664,99.3265253 Z M378.357664,98.5825253 L416.921664,98.9425253 C417.024664,87.9074253 412.394664,77.3566253 404.204664,69.9603253 C396.014664,62.5640253 385.047664,59.0308253 374.079664,60.2548253 L378.357664,98.5825253 Z M378.024664,134.212525 L382.302664,172.541525 C401.688664,170.377525 416.407664,154.078525 416.589664,134.572525 L378.024664,134.212525 Z M352.305664,137.083525 L348.028664,98.7545253 C326.860664,101.117525 311.615664,120.192525 313.977664,141.360525 L352.305664,137.083525 Z M352.760664,141.153525 L314.432664,145.430525 C316.794664,166.599525 335.869664,181.844525 357.037664,179.481525 L352.760664,141.153525 Z M360.531664,140.286525 L398.859664,136.009525 C396.497664,114.840525 377.422664,99.5955253 356.254664,101.958525 L360.531664,140.286525 Z M375.119664,163.573525 L374.677664,125.009525 C374.616664,125.010525 374.555664,125.011525 374.495664,125.012525 L375.119664,163.573525 Z M378.861664,163.530525 L417.189664,159.253525 C414.991664,139.562525 398.230664,124.739525 378.418664,124.966525 L378.861664,163.530525 Z M379.501664,169.266525 L383.778664,207.594525 C404.946664,205.232525 420.191664,186.157525 417.829664,164.989525 L379.501664,169.266525 Z M322.698664,175.605525 L284.369664,179.882525 C286.732664,201.050525 305.807664,216.295525 326.975664,213.933525 L322.698664,175.605525 Z M322.057664,169.869525 L314.166664,132.119525 C294.703664,136.188525 281.524664,154.386525 283.729664,174.146525 L322.057664,169.869525 Z M325.902664,169.065525 L333.794664,206.815525 L325.902664,169.065525 Z M334.358664,139.085525 L372.686664,134.808525 C370.324664,113.640525 351.249664,98.3955253 330.081664,100.757525 L334.358664,139.085525 Z M305.374664,166.244525 C318.219664,145.440525 332.348664,122.032525 340.374664,103.113525 L269.369664,72.9878253 C264.047664,85.5313253 253.236664,103.870525 239.744664,125.720525 L305.374664,166.244525 Z M339.767664,104.472525 C345.838664,91.5709253 348.576664,79.2889253 348.706664,67.2981253 C348.829664,55.9869253 346.526664,46.4794253 345.292664,41.2366253 L270.213664,58.9146253 C271.471664,64.2588253 271.589664,65.5336253 271.579664,66.4606253 C271.576664,66.7080253 271.628664,68.1200253 269.976664,71.6292253 L339.767664,104.472525 Z M320.018664,86.6392253 L354.326664,75.1299253 L329.795664,2.00275534 L295.486664,13.5120253 L320.018664,86.6392253 Z M303.547664,40.5855253 C303.556664,40.7569253 303.544664,40.6690253 303.565664,40.5234253 C303.582664,40.4015253 303.562664,40.6802253 303.274664,41.5099253 C302.610664,43.4196253 300.778664,47.5563253 295.776664,55.2408253 L360.420664,97.3175253 C374.345664,75.9252253 381.680664,57.6509253 380.574664,36.5471253 L303.547664,40.5855253 Z M295.271664,56.0371253 C286.312664,70.5659253 276.687664,84.6008253 264.063664,101.404525 L325.731664,147.734525 C339.529664,129.368525 350.532664,113.376525 360.925664,96.5215253 L295.271664,56.0371253 Z M299.174664,162.897525 L336.550664,158.726525 L327.995664,82.0701253 L290.620664,86.2411253 L299.174664,162.897525 Z M370.601664,116.120525 L368.205664,94.6579253 L291.549664,103.212525 L293.944664,124.675525 L370.601664,116.120525 Z M351.664664,130.757525 L375.855664,114.195525 L332.281664,50.5507253 L308.090664,67.1128253 L351.664664,130.757525 Z M315.740664,86.6504253 L319.622664,121.435525 L396.278664,112.880525 L392.396664,78.0957253 L315.740664,86.6504253 Z M368.470664,154.261525 C376.533664,151.975525 385.334664,147.779525 392.934664,140.269525 C400.614664,132.680525 405.012664,123.740525 407.323664,115.193525 L332.866664,95.0563253 C333.454664,92.8839253 335.047664,89.0332253 338.720664,85.4041253 C342.314664,81.8533253 345.903664,80.4873253 347.430664,80.0546253 L368.470664,154.261525 Z M407.270664,115.388525 L408.871664,109.589525 L334.520664,89.0629253 L332.919664,94.8615253 L407.270664,115.388525 Z M375.973664,137.654525 L382.634664,136.911525 L374.079664,60.2548253 L367.418664,60.9981253 L375.973664,137.654525 Z M339.792664,98.2235253 L339.460664,133.853525 L416.589664,134.572525 L416.921664,98.9425253 L339.792664,98.2235253 Z M373.747664,95.8845253 L348.028664,98.7545253 L356.583664,175.411525 L382.302664,172.541525 L373.747664,95.8845253 Z M313.977664,141.360525 L314.432664,145.430525 L391.088664,136.876525 L390.634664,132.805525 L313.977664,141.360525 Z M357.037664,179.481525 L364.808664,178.614525 L356.254664,101.958525 L348.482664,102.825525 L357.037664,179.481525 Z M322.203664,144.563525 L323.669664,157.700525 L400.325664,149.145525 L398.859664,136.009525 L322.203664,144.563525 Z M323.669664,157.700525 C324.905664,168.779525 329.850664,182.394525 342.749664,192.085525 C354.539664,200.942525 367.458664,202.268525 375.743664,202.134525 L374.495664,125.012525 C374.926664,125.005525 381.687664,124.863525 389.080664,130.418525 C397.583664,136.806525 399.894664,145.283525 400.325664,149.145525 L323.669664,157.700525 Z M375.561664,202.137525 L379.303664,202.094525 L378.418664,124.966525 L374.677664,125.009525 L375.561664,202.137525 Z M340.532664,167.807525 L341.173664,173.543525 L417.829664,164.989525 L417.189664,159.253525 L340.532664,167.807525 Z M375.223664,130.938525 L318.420664,137.277525 L326.975664,213.933525 L383.778664,207.594525 L375.223664,130.938525 Z M361.026664,171.328525 L360.386664,165.592525 L283.729664,174.146525 L284.369664,179.882525 L361.026664,171.328525 Z M329.949664,207.619525 L333.794664,206.815525 L318.010664,131.315525 L314.166664,132.119525 L329.949664,207.619525 Z M333.794664,206.815525 C341.927664,205.115525 354.403664,200.925525 363.959664,189.404525 C374.299664,176.938525 375.788664,162.603525 374.606664,152.016525 L297.950664,160.570525 C297.574664,157.198525 297.719664,148.447525 304.591664,140.161525 C310.680664,132.821525 317.565664,131.408525 318.010664,131.315525 L333.794664,206.815525 Z M374.606664,152.016525 L372.686664,134.808525 L296.030664,143.363525 L297.950664,160.570525 L374.606664,152.016525 Z M330.081664,100.757525 L268.282664,107.654525 L276.836664,184.310525 L338.635664,177.414525 L330.081664,100.757525 Z" id="Shape" fill="#0B1237"></path>
            <path d="M38.5661642,172.095525 L13.8144642,156.812525 C7.96836422,166.280525 8.03556422,178.253525 13.9875642,187.655525 C19.9396642,197.057525 30.7335642,202.240525 41.7924642,201.005525 L38.5661642,172.095525 Z M70.8785642,114.163525 L44.5575642,101.777525 C44.3981642,102.115525 44.2453642,102.457525 44.0992642,102.801525 L70.8785642,114.163525 Z M73.7592642,76.1887253 L64.5072642,48.6093253 C50.2617642,53.3882253 41.9999642,68.2300253 45.4436642,82.8558253 L73.7592642,76.1887253 Z M108.067664,64.6794253 L137.117664,63.1563253 C136.641664,54.0765253 131.947664,45.7415253 124.429664,40.6274253 C116.912664,35.5133253 107.435664,34.2082253 98.8156642,37.1000253 L108.067664,64.6794253 Z M94.1052642,102.392525 L69.7250642,86.5233253 C69.5957642,86.7220253 69.4688642,86.9222253 69.3444642,87.1240253 L94.1052642,102.392525 Z M60.9041642,150.682525 L37.6466642,133.209525 C30.6745642,142.489525 29.8866642,155.026525 35.6420642,165.106525 C41.3975642,175.186525 52.5945642,180.880525 64.1304642,179.592525 L60.9041642,150.682525 Z M98.2796642,146.511525 L101.505664,175.421525 C117.472664,173.639525 128.971664,159.251525 127.189664,143.284525 L98.2796642,146.511525 Z M95.8842642,125.048525 L79.4505642,101.045525 C70.5794642,107.118525 65.7814642,117.589525 66.9738642,128.274525 L95.8842642,125.048525 Z M120.074664,108.486525 L148.985664,105.259525 C147.852664,95.1085253 141.478664,86.2951253 132.192664,82.0403253 C122.906664,77.7854253 112.069664,78.7126253 103.641664,84.4829253 L120.074664,108.486525 Z M123.956664,143.271525 L95.0464642,146.497525 C95.9948642,154.995525 100.634664,162.646525 107.731664,167.415525 C114.828664,172.185525 123.665664,173.590525 131.892664,171.257525 L123.956664,143.271525 Z M136.101664,131.237525 L108.060664,123.496525 C108.047664,123.545525 108.033664,123.594525 108.020664,123.643525 L136.101664,131.237525 Z M137.702664,125.439525 L134.476664,96.5285253 C122.654664,97.8485253 112.827664,106.231525 109.661664,117.697525 L137.702664,125.439525 Z M144.363664,124.695525 L173.452664,124.967525 C173.529664,116.643525 170.037664,108.685525 163.859664,103.106525 C157.681664,97.5275253 149.409664,94.8624253 141.137664,95.7855253 L144.363664,124.695525 Z M144.031664,160.325525 L147.257664,189.236525 C161.880664,187.604525 172.982664,175.310525 173.119664,160.597525 L144.031664,160.325525 Z M118.312664,163.196525 L115.086664,134.285525 C99.1196642,136.067525 87.6203642,150.455525 89.4021642,166.422525 L118.312664,163.196525 Z M118.766664,167.266525 L89.8564642,170.493525 C91.6382642,186.459525 106.026664,197.958525 121.993664,196.177525 L118.766664,167.266525 Z M126.537664,166.399525 L155.448664,163.173525 C153.666664,147.206525 139.278664,135.707525 123.311664,137.489525 L126.537664,166.399525 Z M141.125664,189.686525 L140.792664,160.598525 C140.746664,160.599525 140.700664,160.599525 140.654664,160.600525 L141.125664,189.686525 Z M144.867664,189.643525 L173.777664,186.417525 C172.120664,171.564525 159.477664,160.384525 144.533664,160.555525 L144.867664,189.643525 Z M145.507664,195.379525 L148.734664,224.289525 C164.700664,222.507525 176.199664,208.119525 174.418664,192.153525 L145.507664,195.379525 Z M88.7046642,201.718525 L59.7942642,204.944525 C61.5761642,220.911525 75.9642642,232.410525 91.9309642,230.628525 L88.7046642,201.718525 Z M88.0645642,195.982525 L82.1118642,167.508525 C67.4316642,170.577525 57.4908642,184.303525 59.1541642,199.208525 L88.0645642,195.982525 Z M91.9088642,195.178525 L97.8616642,223.653525 L97.8616642,223.653525 L91.9088642,195.178525 Z M100.364664,165.199525 L129.275664,161.972525 C127.493664,146.005525 113.105664,134.506525 97.1386642,136.288525 L100.364664,165.199525 Z M63.3177642,187.378525 C76.2425642,166.446525 89.9634642,143.661525 97.6578642,125.525525 L44.0992642,102.801525 C38.4450642,116.128525 27.2265642,135.091525 13.8144642,156.812525 L63.3177642,187.378525 Z M97.1995642,126.550525 C102.727664,114.802525 105.123664,103.856525 105.237664,93.3083253 C105.346664,83.2729253 103.312664,74.7768253 102.074664,69.5215253 L45.4436642,82.8558253 C46.6990642,88.1875253 47.0853642,90.4738253 47.0614642,92.6765253 C47.0431642,94.3668253 46.7519642,97.1145253 44.5575642,101.777525 L97.1995642,126.550525 Z M83.0111642,103.768525 L117.319664,92.2587253 L98.8156642,37.1000253 L64.5072642,48.6093253 L83.0111642,103.768525 Z M79.0177642,66.2024253 C79.0715642,67.2298253 79.0596642,68.3514253 78.2322642,70.7330253 C77.2222642,73.6400253 74.9517642,78.4934253 69.7250642,86.5233253 L118.485664,118.261525 C131.895664,97.6585253 138.074664,81.4085253 137.117664,63.1563253 L79.0177642,66.2024253 Z M69.3444642,87.1240253 C60.2093642,101.938525 50.4151642,116.213525 37.6466642,133.209525 L84.1615642,168.155525 C97.8158642,149.981525 108.648664,134.229525 118.865664,117.660525 L69.3444642,87.1240253 Z M64.1304642,179.592525 L101.505664,175.421525 L95.0531642,117.600525 L57.6777642,121.771525 L64.1304642,179.592525 Z M127.189664,143.284525 L124.794664,121.821525 L66.9738642,128.274525 L69.3690642,149.737525 L127.189664,143.284525 Z M112.317664,149.051525 L136.508664,132.489525 L103.641664,84.4829253 L79.4505642,101.045525 L112.317664,149.051525 Z M91.1645642,111.712525 L95.0464642,146.497525 L152.867664,140.044525 L148.985664,105.259525 L91.1645642,111.712525 Z M131.892664,171.257525 C138.777664,169.305525 146.055664,165.793525 152.280664,159.641525 C158.565664,153.431525 162.227664,146.062525 164.182664,138.832525 L108.020664,123.643525 C108.252664,122.787525 109.109664,120.508525 111.387664,118.257525 C113.605664,116.065525 115.673664,115.383525 116.021664,115.284525 L131.892664,171.257525 Z M164.142664,138.979525 L165.743664,133.180525 L109.661664,117.697525 L108.060664,123.496525 L164.142664,138.979525 Z M140.928664,154.349525 L147.589664,153.606525 L141.137664,95.7855253 L134.476664,96.5285253 L140.928664,154.349525 Z M115.274664,124.424525 L114.942664,160.054525 L173.119664,160.597525 L173.452664,124.967525 L115.274664,124.424525 Z M140.804664,131.415525 L115.086664,134.285525 L121.538664,192.106525 L147.257664,189.236525 L140.804664,131.415525 Z M89.4021642,166.422525 L89.8564642,170.493525 L147.677664,164.040525 L147.222664,159.969525 L89.4021642,166.422525 Z M121.993664,196.177525 L129.764664,195.309525 L123.311664,137.489525 L115.540664,138.356525 L121.993664,196.177525 Z M97.6275642,169.625525 L99.0936642,182.762525 L156.914664,176.310525 L155.448664,163.173525 L97.6275642,169.625525 Z M99.0936642,182.762525 C100.124664,192.005525 104.178664,202.906525 114.448664,210.622525 C123.880664,217.709525 134.382664,218.889525 141.596664,218.772525 L140.654664,160.600525 C140.015664,160.610525 144.358664,160.323525 149.394664,164.107525 C155.268664,168.520525 156.688664,174.283525 156.914664,176.310525 L99.0936642,182.762525 Z M141.459664,218.774525 L145.201664,218.731525 L144.533664,160.555525 L140.792664,160.598525 L141.459664,218.774525 Z M115.957664,192.869525 L116.597664,198.605525 L174.418664,192.153525 L173.777664,186.417525 L115.957664,192.869525 Z M142.281664,166.468525 L85.4783642,172.808525 L91.9309642,230.628525 L148.734664,224.289525 L142.281664,166.468525 Z M117.614664,198.492525 L116.974664,192.756525 L59.1541642,199.208525 L59.7942642,204.944525 L117.614664,198.492525 Z M94.0173642,224.456525 L97.8616642,223.653525 L85.9560642,166.704525 L82.1118642,167.508525 L94.0173642,224.456525 Z M97.8616642,223.653525 C104.940664,222.173525 115.038664,218.671525 122.672664,209.467525 C130.897664,199.550525 132.185664,188.052525 131.195664,179.180525 L73.3748642,185.632525 C73.1899642,183.976525 73.1342642,178.060525 77.8920642,172.324525 C82.0585642,167.301525 86.5652642,166.577525 85.9560642,166.704525 L97.8616642,223.653525 Z M131.195664,179.180525 L129.275664,161.972525 L71.4545642,168.425525 L73.3748642,185.632525 L131.195664,179.180525 Z M97.1386642,136.288525 L35.3397642,143.185525 L41.7924642,201.005525 L103.591664,194.109525 L97.1386642,136.288525 Z M205.731664,84.5494253 C215.097664,83.5042253 231.366664,89.7421253 234.624664,118.931525 L292.444664,112.479525 C286.658664,60.6272253 249.121664,21.1664253 199.278664,26.7286253 L205.731664,84.5494253 Z M234.624664,118.931525 C238.068664,149.796525 222.562664,159.570525 215.502664,160.358525 L221.955664,218.179525 C272.253664,212.565525 298.044664,162.656525 292.444664,112.479525 L234.624664,118.931525 Z M215.502664,160.358525 C206.109664,161.406525 189.868664,155.166525 186.589664,125.790525 L128.768664,132.243525 C134.534664,183.909525 171.770664,223.779525 221.955664,218.179525 L215.502664,160.358525 Z M186.589664,125.790525 C183.158664,95.0409253 198.579664,85.3476253 205.731664,84.5494253 L199.278664,26.7286253 C149.072664,32.3315253 123.156664,81.9519253 128.768664,132.243525 L186.589664,125.790525 Z M198.708664,36.7209253 C176.250664,39.2271253 165.331664,57.8850253 161.023664,71.4128253 C156.384664,85.9803253 155.601664,104.107525 157.877664,124.499525 L215.698664,118.046525 C213.906664,101.988525 215.238664,92.9035253 216.460664,89.0674253 C217.047664,87.2240253 217.193664,87.9051253 215.720664,89.4931253 C213.985664,91.3646253 210.400664,93.9569253 205.160664,94.5417253 L198.708664,36.7209253 Z M157.877664,124.499525 C160.232664,145.596525 164.952664,164.889525 173.135664,179.599525 C181.152664,194.010525 197.177664,211.015525 221.971664,208.248525 L215.518664,150.428525 C219.167664,150.020525 222.437664,151.189525 224.341664,152.505525 C225.740664,153.472525 225.332664,153.751525 223.977664,151.315525 C221.146664,146.226525 217.659664,135.619525 215.698664,118.046525 L157.877664,124.499525 Z M221.971664,208.248525 C244.327664,205.753525 255.326664,187.222525 259.708664,173.668525 C264.428664,159.069525 265.268664,140.900525 262.986664,120.449525 L205.165664,126.902525 C206.951664,142.901525 205.584664,151.955525 204.350664,155.770525 C203.757664,157.604525 203.606664,156.952525 205.055664,155.400525 C206.753664,153.581525 210.298664,151.010525 215.518664,150.428525 L221.971664,208.248525 Z M262.986664,120.449525 C260.633664,99.3615253 255.912664,80.0384253 247.678664,65.3042253 C239.552664,50.7613253 223.450664,33.9596253 198.708664,36.7209253 L205.160664,94.5417253 C201.652664,94.9332253 198.449664,93.8263253 196.544664,92.5211253 C195.141664,91.5601253 195.542664,91.2710253 196.890664,93.6839253 C199.717664,98.7435253 203.203664,109.320525 205.165664,126.902525 L262.986664,120.449525 Z M272.559664,145.982525 L247.807664,130.699525 C241.961664,140.167525 242.028664,152.140525 247.980664,161.542525 C253.933664,170.944525 264.727664,176.127525 275.785664,174.892525 L272.559664,145.982525 Z M304.871664,88.0506253 L278.550664,75.6642253 C278.391664,76.0028253 278.238664,76.3444253 278.092664,76.6889253 L304.871664,88.0506253 Z M307.752664,50.0756253 L298.500664,22.4962253 C284.255664,27.2751253 275.993664,42.1170253 279.437664,56.7427253 L307.752664,50.0756253 Z M342.061664,38.5663253 L371.111664,37.0432253 C370.635664,27.9634253 365.940664,19.6285253 358.423664,14.5143253 C350.905664,9.40022534 341.429664,8.09522534 332.809664,10.9869253 L342.061664,38.5663253 Z M328.098664,76.2793253 L303.718664,60.4103253 C303.589664,60.6089253 303.462664,60.8092253 303.337664,61.0109253 L328.098664,76.2793253 Z M294.897664,124.569525 L271.640664,107.096525 C264.667664,116.376525 263.880664,128.913525 269.635664,138.993525 C275.390664,149.073525 286.588664,154.767525 298.123664,153.479525 L294.897664,124.569525 Z M332.272664,120.398525 L335.499664,149.308525 C351.465664,147.526525 362.965664,133.138525 361.183664,117.171525 L332.272664,120.398525 Z M329.877664,98.9355253 L313.443664,74.9320253 C304.572664,81.0056253 299.774664,91.4768253 300.967664,102.161525 L329.877664,98.9355253 Z M354.068664,82.3731253 L382.978664,79.1467253 C381.845664,68.9954253 375.471664,60.1821253 366.186664,55.9272253 C356.900664,51.6723253 346.062664,52.5995253 337.634664,58.3699253 L354.068664,82.3731253 Z M357.950664,117.158525 L329.039664,120.384525 C329.988664,128.882525 334.627664,136.533525 341.725664,141.302525 C348.822664,146.072525 357.658664,147.477525 365.885664,145.144525 L357.950664,117.158525 Z M370.095664,105.124525 L342.054664,97.3835253 C342.040664,97.4325253 342.027664,97.4815253 342.014664,97.5305253 L370.095664,105.124525 Z M371.696664,99.3265253 L368.469664,70.4159253 C356.648664,71.7351253 346.820664,80.1187253 343.655664,91.5848253 L371.696664,99.3265253 Z M378.357664,98.5825253 L407.445664,98.8545253 C407.523664,90.5305253 404.031664,82.5722253 397.853664,76.9933253 C391.675664,71.4144253 383.403664,68.7493253 375.130664,69.6725253 L378.357664,98.5825253 Z M378.024664,134.212525 L381.251664,163.123525 C395.874664,161.491525 406.976664,149.197525 407.113664,134.484525 L378.024664,134.212525 Z M352.305664,137.083525 L349.079664,108.172525 C333.112664,109.954525 321.613664,124.342525 323.395664,140.309525 L352.305664,137.083525 Z M352.760664,141.153525 L323.849664,144.379525 C325.631664,160.346525 340.019664,171.845525 355.986664,170.064525 L352.760664,141.153525 Z M360.531664,140.286525 L389.441664,137.060525 C387.659664,121.093525 373.271664,109.594525 357.305664,111.375525 L360.531664,140.286525 Z M375.119664,163.573525 L374.785664,134.485525 C374.739664,134.486525 374.694664,134.486525 374.648664,134.487525 L375.119664,163.573525 Z M378.861664,163.530525 L407.771664,160.304525 C406.114664,145.451525 393.471664,134.271525 378.527664,134.442525 L378.861664,163.530525 Z M379.501664,169.266525 L382.727664,198.176525 C398.694664,196.394525 410.193664,182.006525 408.411664,166.040525 L379.501664,169.266525 Z M322.698664,175.605525 L293.787664,178.831525 C295.569664,194.798525 309.957664,206.297525 325.924664,204.515525 L322.698664,175.605525 Z M322.057664,169.869525 L316.105664,141.395525 C301.425664,144.464525 291.484664,158.190525 293.147664,173.095525 L322.057664,169.869525 Z M325.902664,169.065525 L331.855664,197.540525 L325.902664,169.065525 Z M334.358664,139.085525 L363.268664,135.859525 C361.486664,119.892525 347.098664,108.393525 331.132664,110.175525 L334.358664,139.085525 Z M297.311664,161.265525 C310.235664,140.333525 323.956664,117.548525 331.651664,99.4125253 L278.092664,76.6889253 C272.438664,90.0157253 261.220664,108.978525 247.807664,130.699525 L297.311664,161.265525 Z M331.193664,100.437525 C336.721664,88.6898253 339.116664,77.7432253 339.231664,67.1952253 C339.340664,57.1598253 337.305664,48.6638253 336.068664,43.4085253 L279.437664,56.7427253 C280.692664,62.0745253 281.078664,64.3608253 281.054664,66.5635253 C281.036664,68.2537253 280.745664,71.0011253 278.550664,75.6642253 L331.193664,100.437525 Z M317.004664,77.6550253 L351.313664,66.1457253 L332.809664,10.9869253 L298.500664,22.4962253 L317.004664,77.6550253 Z M313.011664,40.0894253 C313.065664,41.1167253 313.053664,42.2383253 312.225664,44.6199253 C311.215664,47.5270253 308.945664,52.3803253 303.718664,60.4103253 L352.478664,92.1484253 C365.889664,71.5451253 372.068664,55.2954253 371.111664,37.0432253 L313.011664,40.0894253 Z M303.337664,61.0109253 C294.202664,75.8254253 284.408664,90.1008253 271.640664,107.096525 L318.154664,142.042525 C331.809664,123.868525 342.642664,108.116525 352.859664,91.5477253 L303.337664,61.0109253 Z M298.123664,153.479525 L335.499664,149.308525 L329.046664,91.4879253 L291.671664,95.6585253 L298.123664,153.479525 Z M361.183664,117.171525 L358.788664,95.7085253 L300.967664,102.161525 L303.362664,123.624525 L361.183664,117.171525 Z M346.311664,122.938525 L370.502664,106.376525 L337.634664,58.3699253 L313.443664,74.9320253 L346.311664,122.938525 Z M325.158664,85.5994253 L329.039664,120.384525 L386.860664,113.931525 L382.978664,79.1467253 L325.158664,85.5994253 Z M365.885664,145.144525 C372.770664,143.192525 380.048664,139.680525 386.274664,133.528525 C392.559664,127.318525 396.220664,119.949525 398.176664,112.719525 L342.014664,97.5305253 C342.245664,96.6745253 343.103664,94.3956253 345.381664,92.1447253 C347.599664,89.9528253 349.666664,89.2701253 350.015664,89.1714253 L365.885664,145.144525 Z M398.136664,112.866525 L399.736664,107.067525 L343.655664,91.5848253 L342.054664,97.3835253 L398.136664,112.866525 Z M374.922664,128.236525 L381.583664,127.493525 L375.130664,69.6725253 L368.469664,70.4159253 L374.922664,128.236525 Z M349.268664,98.3115253 L348.936664,133.941525 L407.113664,134.484525 L407.445664,98.8545253 L349.268664,98.3115253 Z M374.798664,105.302525 L349.079664,108.172525 L355.532664,165.993525 L381.251664,163.123525 L374.798664,105.302525 Z M323.395664,140.309525 L323.849664,144.379525 L381.670664,137.927525 L381.216664,133.856525 L323.395664,140.309525 Z M355.986664,170.064525 L363.757664,169.196525 L357.305664,111.375525 L349.533664,112.243525 L355.986664,170.064525 Z M331.620664,143.512525 L333.087664,156.649525 L390.907664,150.196525 L389.441664,137.060525 L331.620664,143.512525 Z M333.087664,156.649525 C334.118664,165.892525 338.172664,176.793525 348.442664,184.509525 C357.874664,191.596525 368.376664,192.776525 375.590664,192.659525 L374.648664,134.487525 C374.008664,134.497525 378.352664,134.210525 383.388664,137.994525 C389.262664,142.407525 390.681664,148.169525 390.907664,150.196525 L333.087664,156.649525 Z M375.452664,192.661525 L379.194664,192.618525 L378.527664,134.442525 L374.785664,134.485525 L375.452664,192.661525 Z M349.950664,166.756525 L350.590664,172.492525 L408.411664,166.040525 L407.771664,160.304525 L349.950664,166.756525 Z M376.274664,140.355525 L319.471664,146.695525 L325.924664,204.515525 L382.727664,198.176525 L376.274664,140.355525 Z M351.608664,172.379525 L350.968664,166.643525 L293.147664,173.095525 L293.787664,178.831525 L351.608664,172.379525 Z M328.010664,198.343525 L331.855664,197.540525 L319.949664,140.591525 L316.105664,141.395525 L328.010664,198.343525 Z M331.855664,197.540525 C338.934664,196.060525 349.031664,192.558525 356.665664,183.354525 C364.891664,173.437525 366.179664,161.939525 365.189664,153.067525 L307.368664,159.519525 C307.183664,157.862525 307.127664,151.947525 311.885664,146.211525 C316.051664,141.188525 320.558664,140.464525 319.949664,140.591525 L331.855664,197.540525 Z M365.189664,153.067525 L363.268664,135.859525 L305.448664,142.312525 L307.368664,159.519525 L365.189664,153.067525 Z M331.132664,110.175525 L269.333664,117.072525 L275.785664,174.892525 L337.584664,167.996525 L331.132664,110.175525 Z" id="Shape" fill="#ED5B68"></path>
            <path d="M146.946664,189.972525 L147.565664,195.523525 L90.2076642,201.924525 L89.5882642,196.373525 L96.9892642,195.547525 L96.7827642,193.697525 L100.483664,193.284525 L100.276664,191.434525 L103.977664,191.021525 L103.564664,187.320525 L105.414664,187.114525 L102.936664,164.911525 L41.8780642,171.725525 L41.6715642,169.874525 L43.5218642,169.668525 L43.3153642,167.818525 L45.1656642,167.611525 L44.7526642,163.911525 L46.6029642,163.704525 L46.3964642,161.854525 L48.2467642,161.647525 L48.0402642,159.797525 L49.8904642,159.591525 L49.4775642,155.890525 L51.3277642,155.684525 L51.1212642,153.833525 L52.9715642,153.627525 L52.7650642,151.777525 L54.6153642,151.570525 L54.2023642,147.870525 L56.0526642,147.663525 L55.8461642,145.813525 L57.6964642,145.606525 L57.4899642,143.756525 L59.3402642,143.550525 L58.9272642,139.849525 L60.7774642,139.643525 L60.5710642,137.792525 L62.4212642,137.586525 L62.2147642,135.736525 L64.0650642,135.529525 L63.6520642,131.829525 L65.5023642,131.622525 L65.2958642,129.772525 L67.1461642,129.565525 L66.7331642,125.865525 L68.5834642,125.658525 L68.3769642,123.808525 L70.2272642,123.602525 L69.8142642,119.901525 L71.6645642,119.694525 L71.2515642,115.994525 L73.1018642,115.787525 L72.6888642,112.087525 L74.5391642,111.880525 L74.3326642,110.030525 L76.1828642,109.824525 L75.7699642,106.123525 L77.6201642,105.917525 L77.0007642,100.366525 L78.8509642,100.159525 L76.1666642,76.1065253 L79.8672642,75.6935253 L79.6607642,73.8432253 L88.9120642,72.8108253 L88.7055642,70.9605253 L97.9566642,69.9281253 L97.7504642,68.0778253 L105.151664,67.2519253 L104.944664,65.4016253 L110.495664,64.7822253 L111.115664,70.3330253 L109.264664,70.5395253 L109.884664,76.0903253 L108.034664,76.2967253 L108.653664,81.8475253 L106.803664,82.0540253 L107.009664,83.9043253 L105.159664,84.1108253 L105.572664,87.8113253 L103.722664,88.0178253 L104.135664,91.7183253 L102.284664,91.9248253 L102.491664,93.7751253 L100.641664,93.9816253 L100.847664,95.8315253 L98.9976642,96.0385253 L99.4106642,99.7385253 L97.5601642,99.9455253 L97.7666642,101.795525 L95.9163642,102.002525 L96.1228642,103.852525 L94.2725642,104.058525 L94.4790642,105.909525 L92.6287642,106.115525 L93.0417642,109.816525 L91.1914642,110.022525 L91.3979642,111.872525 L89.5477642,112.079525 L89.7542642,113.929525 L87.9039642,114.136525 L88.1104642,115.986525 L86.2601642,116.192525 L86.6731642,119.893525 L84.8228642,120.099525 L85.0293642,121.950525 L83.1790642,122.156525 L83.3855642,124.006525 L81.5352642,124.213525 L81.7417642,126.063525 L79.8915642,126.270525 L80.0980642,128.120525 L78.2477642,128.326525 L78.4542642,130.177525 L76.6039642,130.383525 L76.8104642,132.233525 L74.9601642,132.440525 L75.3731642,136.140525 L73.5228642,136.347525 L73.7293642,138.197525 L71.8790642,138.404525 L72.0855642,140.254525 L70.2353642,140.460525 L70.4417642,142.311525 L68.5915642,142.517525 L68.7980642,144.367525 L66.9477642,144.574525 L67.1542642,146.424525 L65.3039642,146.631525 L65.5104642,148.481525 L63.6601642,148.687525 L63.8666642,150.538525 L100.871664,146.408525 L98.3946642,124.205525 L102.094664,123.792525 L101.888664,121.942525 L105.588664,121.529525 L105.382664,119.678525 L107.232664,119.472525 L107.025664,117.622525 L110.726664,117.209525 L110.519664,115.358525 L114.220664,114.945525 L114.013664,113.095525 L117.714664,112.682525 L117.508664,110.832525 L121.208664,110.419525 L121.002664,108.569525 L122.852664,108.362525 L126.775664,143.517525 L128.625664,143.311525 L128.419664,141.460525 L132.119664,141.047525 L131.913664,139.197525 L135.613664,138.784525 L135.407664,136.934525 L137.257664,136.727525 L136.844664,133.027525 L138.695664,132.820525 L138.282664,129.120525 L140.132664,128.913525 L139.719664,125.213525 L147.120664,124.387525 L147.533664,128.087525 L145.683664,128.294525 L147.334664,143.096525 L145.484664,143.303525 L147.136664,158.105525 L145.286664,158.311525 L145.492664,160.161525 L121.439664,162.846525 L121.852664,166.546525 L129.253664,165.720525 L131.524664,186.073525 L133.374664,185.867525 L133.581664,187.717525 L135.431664,187.511525 L135.638664,189.361525 L139.338664,188.948525 L139.545664,190.798525 L146.946664,189.972525 Z M230.719664,186.243525 L230.925664,188.094525 L210.572664,190.365525 L210.366664,188.515525 L204.815664,189.134525 L204.609664,187.284525 L199.058664,187.903525 L198.851664,186.053525 L195.151664,186.466525 L194.944664,184.616525 L193.094664,184.822525 L192.888664,182.972525 L191.037664,183.178525 L190.831664,181.328525 L187.130664,181.741525 L186.924664,179.891525 L185.074664,180.097525 L184.867664,178.247525 L183.017664,178.454525 L182.810664,176.603525 L180.960664,176.810525 L180.547664,173.109525 L178.697664,173.316525 L178.490664,171.465525 L176.640664,171.672525 L176.434664,169.822525 L174.583664,170.028525 L174.170664,166.328525 L172.320664,166.534525 L171.907664,162.834525 L170.057664,163.040525 L169.437664,157.489525 L167.587664,157.696525 L166.968664,152.145525 L165.117664,152.351525 L164.291664,144.950525 L162.441664,145.157525 L158.931664,113.702525 L160.781664,113.496525 L159.749664,104.245525 L161.599664,104.038525 L160.980664,98.4875253 L162.830664,98.2815253 L162.417664,94.5807253 L164.267664,94.3742253 L163.854664,90.6737253 L165.704664,90.4672253 L165.291664,86.7667253 L167.142664,86.5602253 L166.729664,82.8597253 L168.579664,82.6532253 L168.373664,80.8029253 L170.223664,80.5964253 L169.810664,76.8959253 L171.660664,76.6894253 L171.454664,74.8392253 L173.304664,74.6327253 L173.097664,72.7824253 L174.948664,72.5759253 L174.741664,70.7257253 L176.591664,70.5192253 L176.385664,68.6689253 L180.085664,68.2559253 L179.879664,66.4057253 L181.729664,66.1992253 L181.523664,64.3489253 L185.223664,63.9360253 L185.017664,62.0857253 L188.717664,61.6727253 L188.511664,59.8224253 L194.062664,59.2030253 L193.855664,57.3527253 L216.058664,54.8749253 L216.265664,56.7252253 L221.816664,56.1057253 L222.022664,57.9560253 L227.573664,57.3365253 L227.779664,59.1868253 L231.480664,58.7738253 L231.686664,60.6241253 L233.537664,60.4176253 L233.743664,62.2679253 L237.444664,61.8549253 L237.650664,63.7052253 L239.500664,63.4987253 L239.707664,65.3490253 L241.557664,65.1425253 L241.764664,66.9927253 L243.614664,66.7863253 L243.820664,68.6365253 L245.671664,68.4300253 L246.084664,72.1306253 L247.934664,71.9241253 L248.140664,73.7743253 L249.991664,73.5679253 L250.197664,75.4181253 L252.047664,75.2116253 L252.460664,78.9122253 L254.311664,78.7057253 L254.724664,82.4062253 L256.574664,82.1997253 L257.193664,87.7505253 L259.044664,87.5440253 L259.663664,93.0949253 L261.513664,92.8884253 L262.339664,100.289525 L264.190664,100.082525 L267.493664,129.687525 L265.643664,129.893525 L266.676664,139.145525 L264.825664,139.351525 L265.445664,144.902525 L263.594664,145.108525 L264.214664,150.659525 L262.364664,150.866525 L262.777664,154.566525 L260.926664,154.773525 L261.339664,158.473525 L259.489664,158.680525 L259.902664,162.380525 L258.052664,162.587525 L258.258664,164.437525 L256.408664,164.643525 L256.614664,166.494525 L254.764664,166.700525 L254.971664,168.550525 L253.120664,168.757525 L253.533664,172.457525 L249.833664,172.870525 L250.039664,174.721525 L248.189664,174.927525 L248.396664,176.777525 L246.545664,176.984525 L246.752664,178.834525 L244.901664,179.041525 L245.108664,180.891525 L241.407664,181.304525 L241.614664,183.154525 L236.063664,183.774525 L236.270664,185.624525 L230.719664,186.243525 Z M216.941664,180.288525 L224.342664,179.462525 L224.136664,177.611525 L227.836664,177.198525 L227.630664,175.348525 L229.480664,175.142525 L229.273664,173.291525 L231.124664,173.085525 L230.917664,171.235525 L232.767664,171.028525 L232.561664,169.178525 L234.411664,168.971525 L233.998664,165.271525 L235.849664,165.064525 L235.229664,159.514525 L237.079664,159.307525 L236.253664,151.906525 L238.104664,151.700525 L236.865664,140.598525 L238.715664,140.392525 L234.998664,107.087525 L233.148664,107.293525 L231.703664,94.3419253 L229.852664,94.5483253 L228.820664,85.2970253 L226.970664,85.5035253 L226.350664,79.9527253 L224.500664,80.1592253 L224.087664,76.4587253 L222.237664,76.6651253 L221.824664,72.9646253 L219.973664,73.1711253 L219.767664,71.3208253 L217.917664,71.5273253 L217.710664,69.6770253 L215.860664,69.8835253 L215.654664,68.0333253 L213.803664,68.2397253 L213.597664,66.3895253 L209.896664,66.8024253 L209.690664,64.9522253 L200.438664,65.9846253 L200.645664,67.8349253 L196.944664,68.2478253 L197.151664,70.0981253 L195.301664,70.3046253 L195.507664,72.1549253 L193.657664,72.3613253 L194.070664,76.0619253 L192.220664,76.2684253 L192.426664,78.1186253 L190.576664,78.3251253 L191.195664,83.8759253 L189.345664,84.0824253 L189.964664,89.6332253 L188.114664,89.8397253 L189.353664,100.941525 L187.503664,101.147525 L192.252664,143.703525 L194.102664,143.497525 L195.341664,154.598525 L197.191664,154.392525 L197.811664,159.943525 L199.661664,159.736525 L200.281664,165.287525 L202.131664,165.081525 L202.544664,168.781525 L204.394664,168.575525 L204.807664,172.275525 L206.657664,172.069525 L206.864664,173.919525 L208.714664,173.713525 L208.920664,175.563525 L210.771664,175.356525 L210.977664,177.207525 L212.828664,177.000525 L213.034664,178.850525 L216.735664,178.437525 L216.941664,180.288525 Z M381.843664,163.758525 L382.462664,169.309525 L325.104664,175.710525 L324.485664,170.159525 L331.886664,169.333525 L331.679664,167.483525 L335.380664,167.070525 L335.173664,165.220525 L338.874664,164.807525 L338.461664,161.106525 L340.311664,160.900525 L337.833664,138.697525 L276.774664,145.511525 L276.568664,143.660525 L278.418664,143.454525 L278.212664,141.604525 L280.062664,141.397525 L279.649664,137.697525 L281.499664,137.490525 L281.293664,135.640525 L283.143664,135.433525 L282.937664,133.583525 L284.787664,133.377525 L284.374664,129.676525 L286.224664,129.470525 L286.018664,127.619525 L287.868664,127.413525 L287.661664,125.563525 L289.512664,125.356525 L289.099664,121.656525 L290.949664,121.449525 L290.743664,119.599525 L292.593664,119.392525 L292.386664,117.542525 L294.237664,117.336525 L293.824664,113.635525 L295.674664,113.429525 L295.467664,111.578525 L297.318664,111.372525 L297.111664,109.522525 L298.961664,109.315525 L298.548664,105.615525 L300.399664,105.408525 L300.192664,103.558525 L302.043664,103.351525 L301.630664,99.6515253 L303.480664,99.4445253 L303.273664,97.5945253 L305.124664,97.3885253 L304.711664,93.6876253 L306.561664,93.4811253 L306.148664,89.7806253 L307.998664,89.5741253 L307.585664,85.8736253 L309.435664,85.6671253 L309.229664,83.8168253 L311.079664,83.6103253 L310.666664,79.9098253 L312.517664,79.7033253 L311.897664,74.1525253 L313.747664,73.9460253 L311.063664,49.8926253 L314.764664,49.4796253 L314.557664,47.6293253 L323.808664,46.5969253 L323.602664,44.7466253 L332.853664,43.7142253 L332.647664,41.8640253 L340.048664,41.0380253 L339.841664,39.1878253 L345.392664,38.5683253 L346.012664,44.1191253 L344.161664,44.3256253 L344.781664,49.8764253 L342.931664,50.0829253 L343.550664,55.6337253 L341.700664,55.8401253 L341.906664,57.6904253 L340.056664,57.8969253 L340.469664,61.5974253 L338.619664,61.8039253 L339.032664,65.5044253 L337.181664,65.7109253 L337.388664,67.5612253 L335.538664,67.7677253 L335.744664,69.6180253 L333.894664,69.8244253 L334.307664,73.5250253 L332.457664,73.7314253 L332.663664,75.5817253 L330.813664,75.7882253 L331.019664,77.6385253 L329.169664,77.8449253 L329.375664,79.6952253 L327.525664,79.9017253 L327.938664,83.6022253 L326.088664,83.8087253 L326.294664,85.6590253 L324.444664,85.8655253 L324.651664,87.7157253 L322.800664,87.9222253 L323.007664,89.7725253 L321.157664,89.9790253 L321.570664,93.6795253 L319.719664,93.8860253 L319.926664,95.7365253 L318.075664,95.9425253 L318.282664,97.7935253 L316.432664,97.9995253 L316.638664,99.8495253 L314.788664,100.056525 L314.994664,101.906525 L313.144664,102.112525 L313.351664,103.963525 L311.500664,104.169525 L311.707664,106.020525 L309.857664,106.226525 L310.270664,109.927525 L308.419664,110.133525 L308.626664,111.983525 L306.775664,112.190525 L306.982664,114.040525 L305.132664,114.247525 L305.338664,116.097525 L303.488664,116.303525 L303.694664,118.154525 L301.844664,118.360525 L302.051664,120.210525 L300.200664,120.417525 L300.407664,122.267525 L298.557664,122.474525 L298.763664,124.324525 L335.768664,120.194525 L333.291664,97.9915253 L336.991664,97.5785253 L336.785664,95.7285253 L340.485664,95.3152253 L340.279664,93.4649253 L342.129664,93.2584253 L341.922664,91.4082253 L345.623664,90.9952253 L345.416664,89.1449253 L349.117664,88.7320253 L348.911664,86.8817253 L352.611664,86.4687253 L352.405664,84.6185253 L356.105664,84.2055253 L355.899664,82.3552253 L357.749664,82.1487253 L361.672664,117.303525 L363.522664,117.097525 L363.316664,115.247525 L367.016664,114.834525 L366.810664,112.983525 L370.510664,112.570525 L370.304664,110.720525 L372.154664,110.514525 L371.741664,106.813525 L373.592664,106.607525 L373.179664,102.906525 L375.029664,102.700525 L374.616664,98.9995253 L382.017664,98.1735253 L382.430664,101.874525 L380.580664,102.080525 L382.232664,116.882525 L380.381664,117.089525 L382.033664,131.891525 L380.183664,132.097525 L380.389664,133.948525 L356.336664,136.632525 L356.749664,140.332525 L364.150664,139.506525 L366.421664,159.859525 L368.272664,159.653525 L368.478664,161.503525 L370.328664,161.297525 L370.535664,163.147525 L374.235664,162.734525 L374.442664,164.584525 L381.843664,163.758525 Z" id="Shape" fill="#0B1237"></path>
        </g>
    </g>
</svg>