<svg viewBox="0 0 322 303" fill="none" xmlns="http://www.w3.org/2000/svg">
<mask id="path-1-inside-1" fill="white">
<path d="M108.055 69.6428L97.2071 75.192L15.1936 117.144L4.34521 122.694L9.06736 134.316L63.3956 268.036L66.9844 276.869L75.926 275.173L148.638 261.282L164.014 258.33L157.804 243.046L154.688 235.375L160.98 232.157L171.828 226.608L167.106 214.985L139.694 147.515C143.732 141.168 149.214 136.117 155.723 132.788C170.64 125.157 187.665 128.522 198.578 140.065C190.958 147.754 188.139 160.005 192.436 170.582C192.79 171.454 193.222 172.356 193.732 173.288C195.066 175.765 196.81 177.961 198.886 179.847C199.394 180.289 199.901 180.731 200.463 181.146C202.147 182.39 203.948 183.435 205.816 184.163C205.972 184.224 206.127 184.285 206.283 184.346C212.207 186.51 218.653 186.09 224.403 183.149L224.837 182.927C231.585 188.249 240.915 189.443 249.214 185.197C254.475 182.506 258.5 178.061 260.975 172.864C262.869 172.527 264.722 171.93 266.567 170.986C272.587 167.907 276.706 162.08 278.133 155.594L280.14 154.567C292.399 148.297 298.035 132.499 292.699 119.365C287.646 106.929 274.595 101.251 262.755 105.974C250.328 84.2542 231.503 67.913 208.827 59.508C182.624 49.6784 153.918 51.5876 128.099 64.7948C121.915 67.9579 116.076 71.6466 110.605 75.919L108.055 69.6428Z"/>
</mask>
<path d="M108.055 69.6428L97.2071 75.192L15.1936 117.144L4.34521 122.694L9.06736 134.316L63.3956 268.036L66.9844 276.869L75.926 275.173L148.638 261.282L164.014 258.33L157.804 243.046L154.688 235.375L160.98 232.157L171.828 226.608L167.106 214.985L139.694 147.515C143.732 141.168 149.214 136.117 155.723 132.788C170.64 125.157 187.665 128.522 198.578 140.065C190.958 147.754 188.139 160.005 192.436 170.582C192.79 171.454 193.222 172.356 193.732 173.288C195.066 175.765 196.81 177.961 198.886 179.847C199.394 180.289 199.901 180.731 200.463 181.146C202.147 182.39 203.948 183.435 205.816 184.163C205.972 184.224 206.127 184.285 206.283 184.346C212.207 186.51 218.653 186.09 224.403 183.149L224.837 182.927C231.585 188.249 240.915 189.443 249.214 185.197C254.475 182.506 258.5 178.061 260.975 172.864C262.869 172.527 264.722 171.93 266.567 170.986C272.587 167.907 276.706 162.08 278.133 155.594L280.14 154.567C292.399 148.297 298.035 132.499 292.699 119.365C287.646 106.929 274.595 101.251 262.755 105.974C250.328 84.2542 231.503 67.913 208.827 59.508C182.624 49.6784 153.918 51.5876 128.099 64.7948C121.915 67.9579 116.076 71.6466 110.605 75.919L108.055 69.6428Z" fill="#EBEBEB" stroke="#000CA0" stroke-width="4" mask="url(#path-1-inside-1)"/>
<path d="M101.514 87.0414L19.9319 128.768L73.9743 261.768L155.556 220.042L101.514 87.0414Z" fill="#000CA0" stroke="#000CA0" stroke-width="2" stroke-miterlimit="10"/>
<path d="M133.325 76.0747C84.6942 100.974 62.448 163.389 83.6165 215.54L125.184 194.257C114.02 166.754 125.796 133.84 151.388 120.737C176.981 107.633 206.851 119.295 217.991 146.74L259.558 125.457C238.522 73.3088 181.957 51.1754 133.325 76.0747Z" fill="#FF58D1"/>
<path d="M139.301 90.874C98.3318 111.851 79.5835 164.451 97.4171 208.386L125.129 194.198C113.965 166.695 125.741 133.781 151.333 120.677C176.98 107.546 206.795 119.236 217.935 146.68L245.647 132.492C227.922 88.5014 180.271 69.8974 139.301 90.874Z" fill="#F9EB46"/>
<path d="M151.4 120.763C176.938 107.687 206.628 119.23 217.884 146.475L231.413 139.547C217.009 104.061 178.483 89.0198 145.392 105.963C112.301 122.905 97.1427 165.434 111.547 200.92L125.077 193.992C114.147 166.581 125.861 133.839 151.4 120.763Z" fill="#0098FF"/>
<path d="M145.935 247.868L73.8168 261.657L19.9319 128.919L92.027 115.072L145.935 247.868Z" fill="#EBEBEB" stroke="#000CA0" stroke-width="2" stroke-miterlimit="10" stroke-linecap="round" stroke-linejoin="round"/>
<path d="M108.857 201.458C110.62 200.557 111.428 198.295 110.66 196.406C109.892 194.517 107.84 193.717 106.077 194.619C104.313 195.521 103.506 197.783 104.274 199.671C105.041 201.56 107.093 202.36 108.857 201.458Z" fill="#EBEBEB" stroke="#000CA0" stroke-width="2" stroke-miterlimit="10" stroke-linecap="round" stroke-linejoin="round"/>
<path d="M265.832 116.328L255.862 121.416C252.39 118.677 247.606 118.018 243.325 120.202C240.616 121.584 238.528 123.848 237.266 126.536C237.147 126.244 237.052 126.011 236.933 125.719C234.177 118.951 226.85 116.065 220.564 119.273C214.279 122.48 211.419 130.564 214.175 137.332C214.793 138.849 215.682 140.228 216.716 141.321L210.051 144.722C203.766 147.93 200.906 156.014 203.663 162.782C206.419 169.55 213.746 172.435 220.032 169.228L228.485 164.914C231.241 171.683 238.568 174.568 244.854 171.36C251.139 168.153 253.999 160.069 251.242 153.301L275.734 140.803C282.02 137.595 284.879 129.511 282.123 122.743C279.367 115.975 272.117 113.12 265.832 116.328Z" fill="#EBEBEB" stroke="#000CA0" stroke-width="2" stroke-miterlimit="10" stroke-linecap="round"/>
<path d="M247.085 155.354C248.861 159.711 247.011 164.934 242.961 166.999C238.911 169.064 234.173 167.2 232.397 162.843C230.621 158.485 232.47 153.262 236.52 151.197" stroke="#000CA0" stroke-width="2" stroke-miterlimit="10" stroke-linecap="round"/>
<path d="M245.796 125.105C249.846 123.04 254.585 124.904 256.361 129.262" stroke="#000CA0" stroke-width="2" stroke-miterlimit="10" stroke-linecap="round"/>
<path d="M232.524 127.873C234.3 132.231 232.451 137.454 228.401 139.519" stroke="#000CA0" stroke-width="2" stroke-miterlimit="10" stroke-linecap="round"/>
<path d="M219.796 169.575C226.059 166.382 228.909 158.331 226.163 151.592C223.416 144.854 216.113 141.98 209.85 145.174C203.587 148.367 200.737 156.418 203.483 163.157C206.23 169.895 213.533 172.769 219.796 169.575Z" fill="#EBEBEB" stroke="#000CA0" stroke-width="2" stroke-miterlimit="10" stroke-linecap="round"/>
<path d="M273.619 136.517C277.669 134.452 279.518 129.228 277.742 124.871C275.966 120.514 271.228 118.649 267.178 120.714C263.128 122.779 261.278 128.003 263.055 132.36" stroke="#000CA0" stroke-width="2" stroke-miterlimit="10" stroke-linecap="round"/>
<path d="M262.178 156.993C266.442 154.819 268.384 149.336 266.513 144.748C264.643 140.159 259.67 138.202 255.405 140.377C251.141 142.551 249.199 148.034 251.07 152.622C252.94 157.211 257.913 159.168 262.178 156.993Z" fill="#EBEBEB" stroke="#000CA0" stroke-width="2" stroke-miterlimit="10" stroke-linecap="round"/>
<path d="M68.7682 176.644L67.9556 174.332L70.3628 173.873L71.1755 176.185L68.7682 176.644ZM75.1237 172.983L72.7164 173.442L73.529 175.754L75.9363 175.295L75.1237 172.983ZM79.8845 172.094L77.4772 172.552L78.2898 174.864L80.6971 174.406L79.8845 172.094ZM80.6971 174.406L81.5097 176.718L83.917 176.259L84.7296 178.571L87.1368 178.113L84.699 171.177L82.2917 171.635L83.1043 173.947L80.6971 174.406ZM81.5097 176.718L79.1025 177.176L79.9151 179.488L77.5078 179.947L76.6952 177.635L74.288 178.093L75.1006 180.405L72.6933 180.864L71.8807 178.552L69.4734 179.01L70.2625 181.265L67.8552 181.723L68.6443 183.977L85.3575 180.908L84.5449 178.596L82.1377 179.054L81.5097 176.718ZM79.1326 177.091L78.3199 174.779L75.9127 175.238L76.7253 177.55L79.1326 177.091ZM74.3181 178.008L73.5054 175.696L71.0982 176.155L71.9108 178.467L74.3181 178.008ZM69.5572 178.898L68.7446 176.586L66.3374 177.044L65.5483 174.79L63.1411 175.249L65.5318 182.069L67.939 181.61L67.15 179.356C67.2037 179.329 69.5572 178.898 69.5572 178.898ZM79.8845 172.094L82.2917 171.635L80.6665 167.011L78.2592 167.47L79.8845 172.094ZM66.3539 169.765L63.9467 170.224L65.5483 174.79L67.9556 174.332L66.3539 169.765ZM78.2592 167.47L77.4466 165.158L75.0394 165.616L75.852 167.928L78.2592 167.47ZM67.9486 166.995L65.5413 167.453L66.3304 169.707L68.7376 169.249L67.9486 166.995ZM72.7094 166.105L75.1166 165.647L74.304 163.335L71.8968 163.793L72.7094 166.105ZM69.4895 164.252L67.0823 164.71L67.8949 167.022L70.3021 166.564L69.4895 164.252ZM74.2267 163.304L76.634 162.846L75.8214 160.534L73.4377 161.05L74.2267 163.304ZM63.9633 162.945L64.7759 165.257L67.1831 164.799L66.3705 162.486L63.9633 162.945ZM75.8214 160.534L78.205 160.017L76.5798 155.393L74.1961 155.909L75.8214 160.534ZM62.3616 158.379L59.9779 158.895L61.5796 163.461L63.9633 162.945L62.3616 158.379ZM74.0882 148.484L76.5261 155.42L78.9098 154.904L76.4719 147.968L74.0882 148.484ZM57.5637 152.017L55.18 152.533L57.5707 159.354L59.9544 158.837L57.5637 152.017ZM74.0882 148.484L73.2756 146.172L56.7511 149.705L57.5401 151.959L74.0882 148.484Z" fill="#000CA0"/>
</svg>
