<svg width="205" height="214" viewBox="0 0 205 214" fill="none" xmlns="http://www.w3.org/2000/svg">
<path d="M143.202 213.422C142.914 213.422 142.721 213.422 142.433 213.422L134.648 212.652C133.014 212.459 131.477 211.881 130.227 210.822C129.362 210.051 124.941 206.006 122.923 200.517C122.635 199.842 122.346 199.072 122.25 198.301C121.866 196.375 121.866 194.353 122.25 192.523C122.346 191.271 122.731 190.115 123.404 189.056L123.692 188.67L131.765 170.757V166.327C131.765 165.364 131.957 164.4 132.246 163.534C132.342 163.245 132.438 163.052 132.534 162.763L134.072 159.103C133.303 158.14 132.726 157.177 132.246 156.31C131.861 156.31 131.573 156.31 131.188 156.214C126.479 156.022 122.731 156.696 120.136 157.466C107.642 174.706 90.4383 182.988 74.6764 179.136C60.2601 175.669 49.4959 162.763 45.171 144.464C39.0201 141.575 33.7341 137.241 29.5053 131.655C21.8166 121.543 18.3567 114.416 15.7618 109.215C12.5902 102.762 11.6291 100.74 4.99758 97.6579C2.88319 96.6948 1.34545 94.7686 0.768796 92.4572C0.288252 90.0494 0.672688 87.6417 2.11432 85.7155C2.69097 84.945 4.61315 82.6336 8.26528 81.4779C2.78708 73.3879 1.9221 65.972 1.82599 65.3942C1.82599 65.1052 1.82599 64.8163 1.82599 64.5274V57.5931C1.82599 53.9333 4.32482 50.7551 7.88084 49.8883C11.4369 49.0215 15.089 50.7551 16.7228 54.1259C16.7228 54.1259 18.645 57.9783 21.5283 61.8307C24.8921 66.3573 27.2948 67.8019 28.0637 68.0908C28.0637 68.0908 28.1598 67.9945 28.2559 67.9945C28.5442 67.8019 28.6403 67.6093 28.8326 67.513C28.352 66.2609 26.4298 63.7569 25.1804 62.0233C21.5283 57.1115 17.1073 51.044 16.1462 43.0503C15.1851 34.2862 18.2606 29.1817 20.5672 25.522C22.8738 21.8622 24.2193 19.6471 21.3361 11.0755C20.375 8.18624 21.1439 5.10433 23.2582 2.98552C25.3726 0.866707 28.5442 0.19254 31.4275 1.15564C32.3886 1.54087 40.1734 7.51207 48.631 13.4833C53.8208 17.0467 54.9741 26.3888 56.0313 28.2186C57.5691 30.819 61.6056 33.0341 67.4683 34.5751C76.4064 36.7902 81.9807 42.7614 83.134 51.4293C83.3262 52.6813 83.4223 54.0296 83.3262 55.378C90.7266 52.4887 98.5114 51.7182 105.047 53.3555C120.04 57.0152 131.092 70.6912 134.937 90.242L139.358 94.4797L146.085 98.5247L168.286 106.518C169.44 106.037 170.689 105.748 172.035 105.844L179.531 106.326C181.742 106.422 183.76 107.578 185.105 109.215C186.355 110.274 187.316 111.719 187.7 113.26L188.085 114.897L189.238 115.283C189.815 115.475 190.391 115.764 190.968 116.053C191.352 116.342 193.275 117.594 195.485 119.809L195.87 120.002L197.023 120.58C197.696 120.868 198.272 121.35 198.753 121.832C199.522 122.602 206.153 129.247 203.75 140.708C201.924 149.184 198.561 152.747 195.197 155.54C195.005 155.733 194.812 155.925 194.524 156.118C193.179 157.37 191.352 158.044 189.526 158.14C187.796 159.103 185.97 159.681 184.144 159.97C183.76 160.067 183.375 160.067 182.895 160.067H178.666L174.149 168.927C174.053 169.023 174.053 169.12 173.957 169.312C172.611 171.624 169.44 174.609 164.25 175.187L150.602 207.932C149.93 211.014 146.758 213.422 143.202 213.422Z" fill="#EBEBEB"/>
<path d="M143.202 213.422C142.914 213.422 142.721 213.422 142.433 213.422L134.648 212.652C133.014 212.459 131.477 211.881 130.227 210.822C129.362 210.051 124.941 206.006 122.923 200.517C122.635 199.842 122.346 199.072 122.25 198.301C121.866 196.375 121.866 194.353 122.25 192.523C122.346 191.271 122.731 190.115 123.404 189.056L123.692 188.67L131.765 170.757V166.327C131.765 165.364 131.957 164.4 132.246 163.534C132.342 163.245 132.438 163.052 132.534 162.763L134.072 159.103C133.303 158.14 132.726 157.177 132.246 156.31C131.861 156.31 131.573 156.31 131.188 156.214C126.479 156.022 122.731 156.696 120.136 157.466C107.642 174.706 90.4383 182.988 74.6764 179.136C60.2601 175.669 49.4959 162.763 45.171 144.464C39.0201 141.575 33.7341 137.241 29.5053 131.655C21.8166 121.543 18.3567 114.416 15.7618 109.215C12.5902 102.762 11.6291 100.74 4.99758 97.6579C2.88319 96.6948 1.34545 94.7686 0.768796 92.4572C0.288252 90.0494 0.672688 87.6417 2.11432 85.7155C2.69097 84.945 4.61315 82.6336 8.26528 81.4779C2.78708 73.3879 1.9221 65.972 1.82599 65.3942C1.82599 65.1052 1.82599 64.8163 1.82599 64.5274V57.5931C1.82599 53.9333 4.32482 50.7551 7.88084 49.8883C11.4369 49.0215 15.089 50.7551 16.7228 54.1259C16.7228 54.1259 18.645 57.9783 21.5283 61.8307C24.8921 66.3573 27.2948 67.8019 28.0637 68.0908C28.0637 68.0908 28.1598 67.9945 28.2559 67.9945C28.5442 67.8019 28.6403 67.6093 28.8326 67.513C28.352 66.2609 26.4298 63.7569 25.1804 62.0233C21.5283 57.1115 17.1073 51.044 16.1462 43.0503C15.1851 34.2862 18.2606 29.1817 20.5672 25.522C22.8738 21.8622 24.2193 19.6471 21.3361 11.0755C20.375 8.18624 21.1439 5.10433 23.2582 2.98552C25.3726 0.866707 28.5442 0.19254 31.4275 1.15564C32.3886 1.54087 40.1734 7.51207 48.631 13.4833C53.8208 17.0467 54.9741 26.3888 56.0313 28.2186C57.5691 30.819 61.6056 33.0341 67.4683 34.5751C76.4064 36.7902 81.9807 42.7614 83.134 51.4293C83.3262 52.6813 83.4223 54.0296 83.3262 55.378C90.7266 52.4887 98.5114 51.7182 105.047 53.3555C120.04 57.0152 131.092 70.6912 134.937 90.242L139.358 94.4797L146.085 98.5247L168.286 106.518C169.44 106.037 170.689 105.748 172.035 105.844L179.531 106.326C181.742 106.422 183.76 107.578 185.105 109.215C186.355 110.274 187.316 111.719 187.7 113.26L188.085 114.897L189.238 115.283C189.815 115.475 190.391 115.764 190.968 116.053C191.352 116.342 193.275 117.594 195.485 119.809L195.87 120.002L197.023 120.58C197.696 120.869 198.272 121.35 198.753 121.832C199.522 122.602 206.153 129.247 203.75 140.708C201.924 149.184 198.561 152.747 195.197 155.54C195.005 155.733 194.812 155.925 194.524 156.118C193.179 157.37 191.352 158.044 189.526 158.14C187.796 159.103 185.97 159.681 184.144 159.97C183.76 160.067 183.375 160.067 182.895 160.067H178.666L174.149 168.927C174.053 169.023 174.053 169.12 173.957 169.312C172.611 171.624 169.44 174.609 164.25 175.187L150.602 207.932C149.93 211.014 146.758 213.422 143.202 213.422Z" stroke="#000CA0" stroke-width="1.2017" stroke-miterlimit="10"/>
<path d="M72.2739 77.4328L89.5734 63.8531L102.548 61.8306L115.138 73.2915L124.173 91.5903L128.209 94.287L134.745 100.643L142.914 105.459L169.92 115.186L171.65 113.453L179.147 113.934L181.069 119.52L184.721 122.217L190.488 125.684L193.371 127.417L195.485 131.462L195.966 135.507L195.197 140.419L193.851 143.79L191.929 146.872L189.046 149.569L184.048 149.954L176.264 150.821L173.38 152.362L166.941 165.171L165.307 166.23L162.039 166.615L159.637 166.23L143.298 205.139L135.321 204.08L132.054 200.131L130.227 197.242V193.101L134.745 185.685L139.934 171.913V165.749L143.49 157.37L142.722 156.214L138.877 151.495V148.317L127.248 147.835L113.408 150.435L94.9555 165.749L86.4018 167.579L77.2715 166.23L65.8346 161.8L54.8782 138.686L72.2739 77.4328Z" fill="#EBEBEB"/>
<path d="M112.543 151.88C112.543 151.88 120.04 147.642 131.669 148.22C143.298 148.798 147.238 149.472 147.238 149.472C147.238 149.472 152.044 150.628 157.234 145.524L176.071 148.124L174.149 152.073C174.149 152.073 184.433 150.821 187.508 138.397C190.584 126.069 181.645 119.424 181.645 119.424L145.028 106.422C141.952 105.363 139.069 103.822 136.378 101.992C133.399 99.8729 128.401 95.25 126.863 92.746" stroke="#000CA0" stroke-width="1.6023" stroke-miterlimit="10" stroke-linejoin="round"/>
<path d="M183.183 121.254L186.835 122.506C186.835 122.506 196.158 128.381 194.62 137.241C193.082 146.102 187.508 151.206 183.087 151.88H175.206L180.78 148.991L185.682 142.634L187.604 135.411L187.22 128.862L183.183 121.254Z" fill="#000CA0"/>
<path d="M187.989 124.432L193.563 127.321C193.563 127.321 197.792 131.366 196.254 138.782C194.62 146.198 191.929 147.835 189.526 149.954H185.49" stroke="#000CA0" stroke-width="1.6023" stroke-miterlimit="10" stroke-linejoin="round"/>
<path d="M178.858 118.653V114.319L180.204 114.994L181.453 119.616" stroke="#000CA0" stroke-width="1.6023" stroke-miterlimit="10" stroke-linejoin="round"/>
<path d="M170.113 115.571L171.939 113.838L178.858 114.319" stroke="#000CA0" stroke-width="1.6023" stroke-miterlimit="10" stroke-linejoin="round"/>
<path d="M71.0244 79.9368C71.1205 79.8404 71.8894 79.5515 71.9855 79.4552C75.6376 74.9287 79.6742 71.3652 83.9991 68.9575L82.5575 64.3346C79.0975 66.2608 75.3493 68.7648 72.2738 71.943L71.0244 79.9368Z" fill="#000CA0"/>
<path d="M103.317 60.8675C96.7815 59.2303 89.9577 60.386 83.6146 63.7568L88.0356 67.1277C91.976 65.683 96.1087 65.2978 100.049 66.1646C116.964 69.9206 125.902 95.1538 119.848 122.698C113.793 150.147 95.2437 169.409 78.2325 165.652C68.1411 163.437 60.8368 153.517 57.9535 140.034L52.187 138.878C54.9742 155.636 63.8162 168.349 76.5986 171.527C96.6854 176.439 118.983 155.636 126.287 125.106C133.687 94.3833 123.404 65.683 103.317 60.8675Z" fill="#000CA0"/>
<path d="M92.2644 131.27C89.5733 133.774 86.2095 136.182 82.1729 138.204C82.1729 138.204 52.5714 148.895 35.8485 126.743C18.5489 103.822 24.0271 97.6578 8.45752 90.3383C8.45752 90.3383 13.7435 82.9224 32.1964 99.7766C50.5532 116.535 54.3014 108.733 54.3014 108.733C54.3014 108.733 59.9718 99.6803 35.9446 91.9755C11.8213 84.1745 9.80304 64.5273 9.80304 64.5273V57.593C9.80304 57.593 22.4894 83.404 33.5419 73.9657C44.5944 64.5273 25.7571 56.341 24.1232 41.9909C22.2972 27.737 35.8485 29.3743 28.8326 8.4751C28.8326 8.4751 46.4205 14.6389 35.7524 36.3086C35.7524 36.3086 30.082 45.3617 44.3061 50.6587C58.6263 55.9557 48.8232 74.4472 62.6629 67.4166C62.6629 67.4166 68.8138 63.7568 62.2784 55.089C55.743 46.5174 38.5396 45.6506 47.9582 21.9584C47.9582 21.9584 42.6722 36.3086 65.5461 41.9909C88.42 47.6731 63.1434 79.6479 74.0998 91.1088C85.1523 102.57 88.0356 91.1088 88.0356 91.1088C88.0356 91.1088 88.1317 83.0188 81.2119 62.1196C81.2119 62.1196 101.683 71.4616 104.278 99.2951L89.3811 97.1763H87.4589L87.2667 100.547C87.2667 100.547 82.5574 100.74 79.8663 109.504C79.8663 109.504 78.1364 114.416 78.9052 119.905L77.1753 121.639L77.7519 123.95L80.0585 124.913C80.0585 124.913 81.5002 127.706 83.2301 128.573C85.0562 129.44 92.2644 131.27 92.2644 131.27Z" fill="#2FF0CC"/>
<path d="M91.0149 115.379C90.3421 120.098 87.6511 123.758 85.1522 123.373C82.5573 122.987 81.0196 118.846 81.6923 114.031C82.3651 109.311 85.0561 105.652 87.555 106.037C90.1499 106.518 91.6876 110.66 91.0149 115.379Z" fill="#2FF0CC"/>
<path d="M91.0149 115.379C90.3421 120.098 87.6511 123.758 85.1522 123.373C82.5573 122.987 81.0196 118.846 81.6923 114.031C82.3651 109.311 85.0561 105.652 87.555 106.037C90.1499 106.518 91.6876 110.66 91.0149 115.379Z" stroke="#000CA0" stroke-width="1.6023" stroke-miterlimit="10" stroke-linejoin="round"/>
<path d="M88.8044 100.547C92.841 101.51 95.1476 108.252 94.0904 115.86C93.8982 117.401 93.5138 118.942 93.0332 120.387" stroke="#000CA0" stroke-width="1.6023" stroke-miterlimit="10" stroke-linejoin="round"/>
<path d="M121.674 105.844L88.4199 100.547" stroke="#000CA0" stroke-width="1.6023" stroke-miterlimit="10" stroke-linejoin="round"/>
<path d="M84.3835 128.959L114.754 138.108" stroke="#000CA0" stroke-width="1.6023" stroke-miterlimit="10" stroke-linejoin="round"/>
<path d="M117.925 129.729L94.2827 123.469L95.2438 121.639L118.502 127.61" stroke="#000CA0" stroke-width="1.6023" stroke-miterlimit="10" stroke-linejoin="round"/>
<path d="M79.0012 122.506L81.9806 119.617" stroke="#000CA0" stroke-width="1.6023" stroke-miterlimit="10" stroke-linejoin="round"/>
<path d="M77.4636 124.047L79.9624 125.106" stroke="#000CA0" stroke-width="1.6023" stroke-miterlimit="10" stroke-linejoin="round"/>
<path d="M138.685 148.702V150.821C138.685 150.821 141.472 155.829 150.218 152.94L157.138 145.62" stroke="#000CA0" stroke-width="1.6023" stroke-miterlimit="10" stroke-linejoin="round"/>
<path d="M173.957 152.169L167.421 165.075C167.421 165.075 152.332 156.214 150.218 152.94" stroke="#000CA0" stroke-width="1.6023" stroke-miterlimit="10" stroke-linejoin="round"/>
<path d="M143.49 157.37C143.49 157.37 142.241 163.148 139.742 166.134L144.163 166.616C146.47 163.919 147.911 157.37 147.911 157.37H143.49ZM143.49 157.37C138.589 152.94 138.685 150.821 138.685 150.821" stroke="#000CA0" stroke-width="1.6023" stroke-miterlimit="10" stroke-linejoin="round"/>
<path d="M139.742 166.134V172.298L146.662 173.454L144.163 166.616" stroke="#000CA0" stroke-width="1.6023" stroke-miterlimit="10" stroke-linejoin="round"/>
<path d="M130.42 192.908H134.456C134.456 192.908 134.648 202.924 143.202 205.428L135.417 204.658C135.417 204.754 128.209 198.494 130.42 192.908Z" stroke="#000CA0" stroke-width="1.6023" stroke-miterlimit="10" stroke-linejoin="round"/>
<path d="M130.419 192.908C130.419 192.908 136.763 184.433 139.742 172.201" stroke="#000CA0" stroke-width="1.6023" stroke-miterlimit="10" stroke-linejoin="round"/>
<path d="M146.662 173.453C146.662 173.453 140.895 189.248 134.456 193.004" stroke="#000CA0" stroke-width="1.6023" stroke-miterlimit="10" stroke-linejoin="round"/>
<path d="M81.5964 116.92L78.4248 120.194" stroke="#000CA0" stroke-width="1.6023" stroke-miterlimit="10" stroke-linejoin="round"/>
<path d="M78.4247 120.194L76.887 121.639L77.4636 124.047L79.0014 122.506" stroke="#000CA0" stroke-width="1.6023" stroke-miterlimit="10" stroke-linejoin="round"/>
<path d="M78.5207 119.905C78.3285 117.979 78.3285 115.86 78.6168 113.645C79.5779 106.807 83.0378 101.414 86.6899 100.547" stroke="#000CA0" stroke-width="1.6023" stroke-miterlimit="10" stroke-linejoin="round"/>
<path d="M86.4019 106.23L87.3629 97.2728H89.2851L88.4201 106.326" stroke="#000CA0" stroke-width="1.6023" stroke-miterlimit="10" stroke-linejoin="round"/>
<path d="M92.3603 122.217C90.4382 126.647 87.3627 129.44 84.3833 128.959C81.8845 128.573 79.9623 126.069 79.0012 122.41" stroke="#000CA0" stroke-width="1.6023" stroke-miterlimit="10" stroke-linejoin="round"/>
<path d="M167.421 165.075C167.421 165.075 165.788 168.157 159.637 166.616L147.815 157.37" stroke="#000CA0" stroke-width="1.6023" stroke-miterlimit="10" stroke-linejoin="round"/>
<path d="M143.202 205.525L159.733 166.616" stroke="#000CA0" stroke-width="1.6023" stroke-miterlimit="10" stroke-linejoin="round"/>
<path d="M93.2255 119.906L95.2437 121.639L94.2826 123.469L89.6694 119.906" stroke="#000CA0" stroke-width="1.6023" stroke-miterlimit="10" stroke-linejoin="round"/>
<path d="M90.4382 117.883L95.6281 121.639" stroke="#000CA0" stroke-width="1.6023" stroke-miterlimit="10" stroke-linejoin="round"/>
<path d="M89.0928 97.2728L121.674 101.799" stroke="#000CA0" stroke-width="1.6023" stroke-miterlimit="10" stroke-linejoin="round"/>
</svg>
