<svg width="199" height="199" viewBox="0 0 199 199" fill="none" xmlns="http://www.w3.org/2000/svg">
<path d="M73.7568 169.363C112.491 183.461 155.32 163.489 169.418 124.755C183.516 86.0206 163.545 43.1915 124.811 29.0933C86.0764 14.9952 43.2472 34.9668 29.1491 73.701C15.051 112.435 35.0225 155.264 73.7568 169.363Z" fill="#EBEBEB"/>
<path d="M72.7493 172.131C32.6065 157.52 11.9238 112.892 26.5346 72.7493C41.1454 32.6064 85.6196 11.8678 125.762 26.4786C165.905 41.0894 186.644 85.5636 172.033 125.706C157.422 165.849 112.892 186.742 72.7493 172.131ZM123.803 31.8617C86.7364 18.3705 45.4089 37.6418 31.9178 74.7086C18.4266 111.775 37.5441 153.047 74.7646 166.594C111.985 180.141 153.103 160.968 166.65 123.747C180.197 86.5266 161.024 45.4089 123.803 31.8617Z" fill="#000CA0"/>
<path d="M89.8838 109.741L97.5355 100.682L99.6888 101.465L99.7272 113.324L97.7278 112.596L97.8544 109.855L93.7017 108.344L91.8832 110.469L89.8838 109.741ZM94.723 106.973L97.799 108.093L97.8284 103.227L94.723 106.973Z" fill="#000CA0" stroke="#000CA0" stroke-miterlimit="10"/>
<path d="M77.1136 73.0439L78.2078 61.4238L80.2072 62.1515L79.0299 71.1287L84.2061 63.607L86.3594 64.3907L85.4897 73.4798L90.3583 65.8462L92.3577 66.5739L85.6288 75.969L83.3217 75.1293L84.4289 66.8233L79.4207 73.8836L77.1136 73.0439Z" fill="#000CA0" stroke="#000CA0" stroke-miterlimit="10"/>
<path d="M130.274 92.5669C129.197 92.175 128.33 91.6853 127.729 90.944C127.128 90.2027 126.737 89.3636 126.555 88.4266C126.374 87.4897 126.556 86.5109 126.948 85.4342C127.34 84.3576 127.829 83.4908 128.571 82.8897C129.312 82.2886 130.151 81.8973 131.088 81.7158C132.025 81.5343 133.004 81.7164 134.08 82.1082C135.157 82.5001 136.024 82.9898 136.625 83.7311C137.226 84.4724 137.617 85.3115 137.799 86.2485C137.98 87.1854 137.798 88.1642 137.406 89.2409C137.071 90.1637 136.581 91.0305 135.84 91.6316C135.098 92.2327 134.413 92.68 133.476 92.8615L134.985 96.3718L132.524 95.4762L131.504 93.0147C131.406 92.8049 130.735 92.7348 130.274 92.5669ZM130.89 90.875C131.966 91.2669 132.847 91.2392 133.686 90.8479C134.525 90.4566 135.169 89.6457 135.617 88.4153C136.009 87.3387 136.037 86.3039 135.702 85.311C135.31 84.4718 134.653 83.8843 133.577 83.4925C132.654 83.1566 131.619 83.1283 130.78 83.5196C129.941 83.9109 129.297 84.7218 128.849 85.9522C128.458 87.0288 128.429 88.0636 128.765 89.0565C129.366 89.7978 129.967 90.5392 130.89 90.875Z" fill="#000CA0" stroke="#000CA0" stroke-miterlimit="10"/>
<path d="M48.8883 94.1228C54.6645 96.2252 61.0513 93.2469 63.1537 87.4708C65.256 81.6946 62.2778 75.3078 56.5016 73.2055C50.7255 71.1031 44.3387 74.0813 42.2363 79.8575C40.134 85.6337 43.1122 92.0205 48.8883 94.1228Z" fill="#F9EB46"/>
<path d="M140.891 128.48C146.667 130.582 153.054 127.604 155.156 121.828C157.258 116.052 154.28 109.665 148.504 107.563C142.728 105.46 136.341 108.438 134.239 114.215C132.136 119.991 135.115 126.378 140.891 128.48Z" fill="#F9EB46"/>
<path d="M80.9225 149.676C53.853 139.823 39.7104 109.768 49.6189 82.5447L55.002 84.504C46.2132 108.651 58.7906 135.35 82.784 144.083C106.931 152.872 133.63 140.294 142.363 116.301L147.746 118.26C138.145 145.595 107.992 159.528 80.9225 149.676Z" fill="#000CA0"/>
</svg>
