<?xml version="1.0" encoding="UTF-8"?>
<svg width="196px" height="232px" viewBox="0 0 196 232" version="1.1" xmlns="http://www.w3.org/2000/svg" xmlns:xlink="http://www.w3.org/1999/xlink">
    <g id="Page-1" stroke="none" stroke-width="1" fill="none" fill-rule="evenodd">
        <g id="Artboard" transform="translate(-489.000000, -226.000000)">
            <g id="Group" transform="translate(491.000000, 229.000000)">
                <path d="M130.026161,41.6137258 L132.165761,32.5313258 C132.412161,31.4806258 132.157861,30.4463258 131.509461,29.6254258 L109.128861,0.621525751 C108.373861,-0.396374249 106.769061,-0.113374249 106.407661,1.10142575 L96.0807613,35.1530258 C89.8833613,35.0947258 83.6570613,35.6889258 77.3199613,36.8783258 C26.1260613,46.8404258 -7.83953873,96.5712258 1.56436127,147.863226 C11.0421613,199.574226 60.4855613,233.950226 112.372861,224.657226 C163.631861,215.475226 198.266861,166.274226 189.712861,114.903226 C183.925861,80.4558258 160.375861,53.3849258 130.026161,41.6137258 Z" id="Path" stroke="#000CA0" stroke-width="4" fill="#EBEBEB" fill-rule="nonzero" stroke-linejoin="round"></path>
                <polygon id="Path" stroke="#000CA0" stroke-width="4" fill="#FF58D1" fill-rule="nonzero" stroke-linecap="round" stroke-linejoin="round" points="158.051861 91.2052258 156.660861 83.3209258 148.776861 84.7111258 147.373861 76.7568258 139.419861 78.1594258 131.465661 79.5619258 130.063061 71.6077258 122.178661 72.9979258 114.224361 74.4005258 115.626961 82.3547258 107.672661 83.7573258 99.7183613 85.1598258 101.120961 93.1142258 93.2364613 94.5042258 94.6267613 102.389226 86.6724613 103.791226 85.2822613 95.9072258 77.3279613 97.3092258 75.9254613 89.3552258 68.0409613 90.7452258 60.0866613 92.1482258 58.6841613 84.1937258 50.7298613 85.5963258 42.7756113 86.9988258 44.1781613 94.9532258 36.2936813 96.3432258 28.3394313 97.7462258 29.7419813 105.700226 21.7877613 107.102226 23.1779613 114.987226 15.2934613 116.377226 16.6960613 124.331226 18.0985613 132.286226 19.4888613 140.170226 20.8913613 148.124226 28.7758613 146.734226 30.1784113 154.688226 31.5809613 162.643226 39.5352213 161.240226 40.9254713 169.125226 48.8797613 167.722226 50.2822613 175.676226 58.1667613 174.286226 59.5692613 182.240226 67.5235613 180.838226 68.9137613 188.722226 76.8680613 187.320226 78.2706613 195.274226 86.2248613 193.871226 87.6274613 201.826226 97.0469613 200.165226 98.3510613 207.561226 119.701961 203.796226 118.397861 196.400226 127.259161 194.838226 125.856561 186.883226 133.810861 185.481226 132.408361 177.527226 140.362861 176.124226 138.971861 168.239226 146.856861 166.849226 145.453861 158.895226 153.408861 157.492226 152.005861 149.538226 159.959861 148.136226 158.569861 140.251226 166.454861 138.861226 165.051861 130.907226 163.648861 122.952226 171.603861 121.550226 170.200861 113.596226 168.810861 105.711226 167.407861 97.7572258 166.005861 89.8032258"></polygon>
                <path d="M130.021761,43.6289258 C135.471961,74.5389258 119.752061,78.8215258 119.752061,78.8215258 C119.752061,78.8215258 135.988761,77.4694258 141.438861,108.379226 C135.988761,77.4694258 151.708861,73.1867258 151.708861,73.1867258 C151.708861,73.1867258 135.471961,74.5389258 130.021761,43.6289258 Z" id="Path" stroke="#000CA0" stroke-width="3" fill="#F9EB46" fill-rule="nonzero"></path>
                <path d="M111.203661,15.6516258 C114.316361,33.3045258 105.323561,35.7535258 105.323561,35.7535258 C105.323561,35.7535258 114.611661,34.9791258 117.724361,52.6319258 C114.611661,34.9791258 123.604461,32.5301258 123.604461,32.5301258 C123.604461,32.5301258 114.304061,33.2347258 111.203661,15.6516258 Z" id="Path" stroke="#000CA0" stroke-width="3" fill="#F9EB46" fill-rule="nonzero"></path>
                <path d="M99.2068613,45.5372258 C102.319561,63.1901258 93.3267613,65.6391258 93.3267613,65.6391258 C93.3267613,65.6391258 102.614861,64.8647258 105.727461,82.5175258 C102.614861,64.8647258 111.607561,62.4157258 111.607561,62.4157258 C111.607561,62.4157258 102.319561,63.1901258 99.2068613,45.5372258 Z" id="Path" stroke="#000CA0" stroke-width="3" fill="#F9EB46" fill-rule="nonzero"></path>
                <path d="M68.1590613,125.689226 C68.1590613,125.689226 75.1130613,115.758226 72.3597613,111.567226" id="Path" stroke="#000CA0" stroke-width="4" stroke-linecap="round"></path>
                <path d="M74.8246613,123.506226 C74.8246613,123.506226 81.7786613,113.575226 79.0252613,109.384226" id="Path" stroke="#000CA0" stroke-width="4" stroke-linecap="round"></path>
                <path d="M81.2065613,124.611226 C81.2065613,124.611226 88.1605613,114.680226 85.4071613,110.489226" id="Path" stroke="#000CA0" stroke-width="4" stroke-linecap="round"></path>
                <path d="M80.5320613,165.666226 C88.7785613,164.212226 93.8111613,153.662226 91.7727613,142.101226 C89.7343613,130.540226 81.3966613,122.348226 73.1501613,123.802226 C64.9036613,125.256226 59.8709613,135.806226 61.9094613,147.367226 C63.9478613,158.927226 72.2854613,167.120226 80.5320613,165.666226 Z" id="Path" stroke="#000CA0" stroke-width="3" fill="#EBEBEB" fill-rule="nonzero"></path>
                <path d="M120.093961,158.690226 C128.340461,157.236226 133.373161,146.686226 131.334661,135.125226 C129.296261,123.565226 120.958661,115.372226 112.712061,116.826226 C104.465561,118.280226 99.4328613,128.830226 101.471261,140.391226 C103.509761,151.952226 111.847361,160.144226 120.093961,158.690226 Z" id="Path" stroke="#000CA0" stroke-width="3" fill="#EBEBEB" fill-rule="nonzero"></path>
                <path d="M78.0405613,165.818226 C78.0405613,165.818226 72.1769613,155.413226 74.7555613,147.188226 C77.3342613,138.963226 87.1196613,132.849226 92.0595613,144.137226 C96.9297613,155.437226 86.1956613,165.962226 78.0405613,165.818226 Z" id="Path" fill="#000CA0" fill-rule="nonzero"></path>
                <path d="M116.276961,159.076226 C116.276961,159.076226 110.413461,148.670226 112.992061,140.446226 C115.570661,132.221226 125.356061,126.107226 130.296061,137.395226 C135.235961,148.682226 124.432161,159.220226 116.276961,159.076226 Z" id="Path" fill="#000CA0" fill-rule="nonzero"></path>
                <path d="M107.302261,118.787226 C107.302261,118.787226 114.256261,108.856226 111.502861,104.665226" id="Path" stroke="#000CA0" stroke-width="4" stroke-linecap="round"></path>
                <path d="M113.844861,115.907226 C113.844861,115.907226 120.798861,105.975226 118.045561,101.784226" id="Path" stroke="#000CA0" stroke-width="4" stroke-linecap="round"></path>
                <path d="M120.350061,117.709226 C120.350061,117.709226 127.304061,107.778226 124.550661,103.587226" id="Path" stroke="#000CA0" stroke-width="4" stroke-linecap="round"></path>
                <polygon id="Path" fill="#000CA0" fill-rule="nonzero" points="129.061361 44.3019258 128.593861 41.6505258 131.154961 41.4867258 131.076561 44.3063258"></polygon>
            </g>
        </g>
    </g>
</svg>