<svg xmlns="http://www.w3.org/2000/svg" xmlns:xlink="http://www.w3.org/1999/xlink" viewBox="0 0 230 256"><defs><clipPath id="a"><rect x="18.05" y="15.12" width="193.85" height="224.88" transform="translate(-20.4 21.9) rotate(-10)" style="fill:none"/></clipPath></defs><g style="clip-path:url(#a)"><path d="M152.19,53.81l2.14-9.09a3.38,3.38,0,0,0-.66-2.9l-22.38-29a1.55,1.55,0,0,0-2.72.48L118.24,47.34a97,97,0,0,0-18.76,1.73c-51.19,10-85.16,59.69-75.75,111a95.47,95.47,0,0,0,110.81,76.8c51.25-9.18,85.89-58.38,77.34-109.76A95.49,95.49,0,0,0,152.19,53.81Z" style="fill:#ebebeb;stroke:#000ca0;stroke-linejoin:round;stroke-width:4px"/><path d="M180.21,103.4l-1.39-7.89-7.88,1.39-1.4-8-8,1.4-8,1.4-1.4-8-7.89,1.39-8,1.4,1.4,8L129.84,96l-8,1.4,1.4,8-7.88,1.39,1.39,7.88-8,1.4-1.39-7.88-8,1.4-1.4-8-7.89,1.39-8,1.4-1.4-8-8,1.4-8,1.4,1.4,8-7.88,1.4-8,1.4,1.4,8L44,119.29l1.39,7.89-7.88,1.39,1.4,8,1.4,8,1.39,7.88,1.4,8,7.89-1.39,1.4,7.95,1.4,8,8-1.41,1.39,7.89,8-1.41,1.4,8,7.89-1.39,1.4,8,8-1.4,1.39,7.88,8-1.4,1.4,8,8-1.41,1.4,8,9.42-1.66,1.3,7.39L141.86,216l-1.3-7.4,8.86-1.56-1.4-8,7.95-1.4-1.4-7.95,8-1.4-1.39-7.89L169,179l-1.4-7.95,7.95-1.41-1.4-8,8-1.4-1.39-7.89,7.89-1.39-1.41-8-1.4-8,8-1.4-1.41-8L191,117.9l-1.4-8-1.4-8Z" style="fill:#ff58d1;stroke:#000ca0;stroke-linecap:round;stroke-linejoin:round;stroke-width:4px"/><path d="M152.18,55.82C157.63,86.73,141.91,91,141.91,91s16.24-1.35,21.69,29.56c-5.45-30.91,10.27-35.19,10.27-35.19S157.63,86.73,152.18,55.82Z" style="fill:#f9eb46;stroke:#000ca0;stroke-miterlimit:10;stroke-width:3px"/><path d="M133.37,27.84C136.48,45.5,127.49,48,127.49,48s9.28-.78,12.4,16.87c-3.12-17.65,5.88-20.1,5.88-20.1S136.47,45.43,133.37,27.84Z" style="fill:#f9eb46;stroke:#000ca0;stroke-miterlimit:10;stroke-width:3px"/><path d="M121.37,57.73c3.11,17.65-5.88,20.1-5.88,20.1s9.29-.77,12.4,16.88c-3.11-17.65,5.88-20.1,5.88-20.1S124.48,75.38,121.37,57.73Z" style="fill:#f9eb46;stroke:#000ca0;stroke-miterlimit:10;stroke-width:3px"/><path d="M90.32,137.88s7-9.93,4.2-14.12" style="fill:none;stroke:#000ca0;stroke-linecap:round;stroke-miterlimit:10;stroke-width:4px"/><path d="M97,135.7s7-9.93,4.2-14.12" style="fill:none;stroke:#000ca0;stroke-linecap:round;stroke-miterlimit:10;stroke-width:4px"/><path d="M103.37,136.8s6.95-9.93,4.2-14.12" style="fill:none;stroke:#000ca0;stroke-linecap:round;stroke-miterlimit:10;stroke-width:4px"/><path d="M102.69,177.86c8.25-1.46,13.28-12,11.24-23.57S103.56,134.54,95.31,136,82,148,84.07,159.56,94.45,179.31,102.69,177.86Z" style="fill:#ebebeb;stroke:#000ca0;stroke-miterlimit:10;stroke-width:3px"/><path d="M142.26,170.88c8.24-1.45,13.28-12,11.24-23.56s-10.38-19.76-18.63-18.3-13.27,12-11.24,23.56S134,172.34,142.26,170.88Z" style="fill:#ebebeb;stroke:#000ca0;stroke-miterlimit:10;stroke-width:3px"/><path d="M100.2,178s-5.86-10.41-3.28-18.63,12.36-14.34,17.3-3S108.36,178.15,100.2,178Z" style="fill:#000ca0"/><path d="M138.44,171.27s-5.86-10.41-3.29-18.63,12.37-14.34,17.31-3S146.59,171.41,138.44,171.27Z" style="fill:#000ca0"/><path d="M129.46,131s7-9.93,4.2-14.12" style="fill:none;stroke:#000ca0;stroke-linecap:round;stroke-miterlimit:10;stroke-width:4px"/><path d="M136,128.1s7-9.93,4.2-14.12" style="fill:none;stroke:#000ca0;stroke-linecap:round;stroke-miterlimit:10;stroke-width:4px"/><path d="M142.51,129.9s7-9.93,4.2-14.12" style="fill:none;stroke:#000ca0;stroke-linecap:round;stroke-miterlimit:10;stroke-width:4px"/><path d="M151.22,56.49l-.46-2.65,2.56-.16-.08,2.82Z" style="fill:#000ca0"/></g></svg>