<svg xmlns="http://www.w3.org/2000/svg" viewBox="0 0 237 275"><path d="M231,173.78a11.33,11.33,0,0,0-1-1.1l-.08-.06-.32-.31-8.5-7.8-.14-1.59a9.09,9.09,0,0,0-3.75-6.63l-1.35-.95-.63-.45-.47-.21a4.94,4.94,0,0,0-.7-.33,1.92,1.92,0,0,0-.43-.16l-.88-.28-7.21-1.78L205,152a9.42,9.42,0,0,0-3.63.08l-4.93-2.77,9.12-51.72.21-1.22c.24-1.09.47-2.19.66-3.25s.35-2.21.51-3.36l.06-.36.18-1.74a50.37,50.37,0,0,0,.05-17.19c-.35-2.08-.77-4.26-1.19-6.35-.13-.7-.31-1.36-.44-2.06-.07-.3-.15-.61-.21-1a1.8,1.8,0,0,1-.07-.31,8.52,8.52,0,0,0-.26-.92s0-.09,0-.13a79,79,0,0,0-13.13-26.59A77,77,0,0,0,81.75,19.91a27,27,0,0,0-6.28-5.19,9.14,9.14,0,0,0-2.85-1,8.93,8.93,0,0,0-6.73,1.46A9,9,0,0,0,62.07,24c.68,4.49.59,7.84-.17,10-.57,1.54-1.47,2.6-3.2,4.57A33,33,0,0,0,53.31,46l-5.59-1-3.26-.57L18.33,39.85l-8.15-1.44L8.74,46.57l-.27,1.51L5,68.06,4.7,69.45,3.26,77.61l8.16,1.44,19.89,3.5A45.44,45.44,0,0,0,34,93.84c.2.54.43,1.13.71,1.72a14,14,0,0,0-6.11,2.71L17.94,96.39,9.79,95l-1.44,8.16L4.32,126l-1.44,8.16L11,135.59l29.4,5.18.94.16L35,177.24l-.21,1.22c-.24,1.09-.47,2.19-.66,3.25s-.35,2.21-.51,3.36l-.06.36-.18,1.74v0a54.88,54.88,0,0,0,0,19c1,5.73,2.64,12.67,5.22,17.83a77.19,77.19,0,0,0,88.69,46.3,77.6,77.6,0,0,0,23.67-9.79l2.52.7.32.09.62.11,1,.18.59,0a4.41,4.41,0,0,0,.72,0l.51,0a8.84,8.84,0,0,0,2.16-.58c.14-.06.32-.11.45-.18a9.7,9.7,0,0,0,1.94-1.21l0,0,.05,0,.34-.27.16-.19a3.2,3.2,0,0,0,.36-.39l.36-.36.51-.75v-.08l21.23-32.68a13.91,13.91,0,0,0,11-4.28l.2-.18.34-.49.37-.48.06-.07,6.38-8.51,3.67.65.61.11.62,0,7.24,0a8.86,8.86,0,0,0,4.73-1.36c.24-.16.52-.28.76-.45,4.13-2.47,8.46-5.57,12.08-14.4C236.47,186.15,234.09,178,231,173.78ZM203.4,160.09h.13Z" fill="#ebebeb" stroke="#000ca0" stroke-miterlimit="10" stroke-width="4"/><path d="M177.4,205.13,196.61,96.19l-.08,0c.34-1.45.69-3,.95-4.46.3-1.71.52-3.44.7-5.13l0-.29h0A68.81,68.81,0,0,0,63.08,62.46l-.17,0-.59,3.39c-.12.65-.28,1.34-.4,2s-.22,1.23-.29,1.88l-19.21,109h.08c-.34,1.46-.69,2.95-1,4.46-.3,1.72-.52,3.44-.69,5.14l-.05.28h0A68.81,68.81,0,0,0,176,212.4l.16,0,.6-3.38c.11-.66.28-1.34.4-2S177.33,205.75,177.4,205.13Z" fill="#0098ff"/><path d="M106.33,103.33,127.07,91.5l13.82-.12,10.45,14.47,5.34,21.26,3.54,3.57,5.32,7.85,7.38,6.58L198.57,160l2.18-1.55,7.62,1.71.73,6.36,3.15,3.42,5.23,4.7,2.58,2.38,1.26,4.72L221,186.2l-1.92,5.12L217,194.84l-2.71,2.93-3.52,2.51-5.28-.35-8.15-.29-3.25,1.17-9.46,12.78-1.85.88-3.49-.08-2.41-.85L151.77,253l-8.05-2.42-2.51-4.79-1.2-3.37.9-4.51,6.29-7.33,8.2-14.06,1.34-6.68,5.53-8.48-.49-1.41-3-5.69.7-3.51-11.83-2.28-14.76.53-22.28,13.62-9.18.58-9.17-2.94-10.81-6.6L75.15,166.9Z" fill="#ebebeb"/><path d="M110.73,164.13A48.35,48.35,0,0,1,99,170s-32.51,6.72-44.81-19.71c-12.74-27.44-5.85-33.17-20.08-43.59,0,0,7-7.08,22.15,13.93s20.57,13.21,20.57,13.21,7.75-8.81-15.16-21S40.89,79.15,40.89,79.15l1.49-7.48s7.38,29.78,20.67,21.41S58.9,72.9,60.33,57.19s14.82-11.77,12.2-35.36c0,0,16.59,9.42,1.12,31.11,0,0-7.75,8.8,5.68,16.78s-.51,26.27,15.16,21c0,0,7-3,2.2-13.27s-22.16-13.93-7.48-38c0,0-8.49,14.56,13.59,24.4S92.24,104,101,118.14s14.17,2.23,14.17,2.23,3.06-6.81.48-30.39c0,0,17.69,11.39,14.33,41.79l-14.73-4.67-2-.26-.91,3.58s-4.83-.59-9.49,8.4a29.64,29.64,0,0,0-3.26,11.06l-2.1,1.6,0,2.58,2.18,1.45s.84,3.26,2.44,4.41S110.73,164.13,110.73,164.13Z" fill="#2ff0cc" stroke="#000ca0" stroke-linecap="round" stroke-linejoin="round" stroke-width="2"/><path d="M131.76,191.54s8.68-3.37,20.58-.86,15.81,3.91,15.81,3.91,4.69,2,11.17-2.67l18.86,5.89-2.9,4s10.87.27,16.75-12.67-2-21.63-2-21.63l-35.08-20a37.24,37.24,0,0,1-8-6.19c-2.69-2.76-6.77-8.65-7.81-11.63" fill="none" stroke="#000ca0" stroke-linejoin="round" stroke-width="2"/><path d="M212.82,170.27l3.48,2s8.21,7.78,4.74,17.11-10.26,13.82-14.78,13.88l-8-1.25,6.34-2.26,6.36-6.05,3.55-7.48,1.06-7.14Z" fill="#000ca0"/><path d="M217.26,174.69l5,4s3.43,5,.28,12.64-6.27,9-9.06,10.86l-4.09-.65" fill="none" stroke="#000ca0" stroke-linejoin="round" stroke-width="2"/><path d="M208.21,167l.92-4.62,1.26.92.22,5.11" fill="none" stroke="#000ca0" stroke-linejoin="round" stroke-width="2"/><path d="M199.55,162.19l2.28-1.63,7.15,1.7" fill="none" stroke="#000ca0" stroke-linejoin="round" stroke-width="2"/><path d="M115.61,147c1.72-5,1-9.68-1.52-10.48s-6,2.57-7.75,7.56-1,9.67,1.52,10.48S113.9,152,115.61,147Z" fill="#f9eb46" stroke="#000ca0" stroke-linejoin="round" stroke-width="2"/><path d="M101.75,149.74a28.73,28.73,0,0,1,1.44-6.7c2.41-7.15,7-12.34,10.86-12.7" fill="none" stroke="#000ca0" stroke-linejoin="round" stroke-width="2"/><path d="M115.92,154.23c-3,4.57-6.76,7.14-9.8,6.18-2.53-.8-4-3.92-4.14-8.07" fill="none" stroke="#000ca0" stroke-linejoin="round" stroke-width="2"/><path d="M116.66,131c3.73,1.7,4.66,9.18,2,17.11a32.11,32.11,0,0,1-2,4.6" fill="none" stroke="#000ca0" stroke-linejoin="round" stroke-width="2"/><path d="M149.84,142.72,116,130.84" fill="none" stroke="#000ca0" stroke-linejoin="round" stroke-width="2"/><path d="M106.49,160.22l29.89,15.26" fill="none" stroke="#000ca0" stroke-linejoin="round" stroke-width="2"/><path d="M112.58,136.61l2.82-9.43,1.75.28-2.58,9.6" fill="none" stroke="#000ca0" stroke-linejoin="round" stroke-width="2"/><path d="M117.31,127.54l33.32,10.9" fill="none" stroke="#000ca0" stroke-linejoin="round" stroke-width="2"/><path d="M141.32,167.27l-23.33-11,1.4-1.87L142.48,165" fill="none" stroke="#000ca0" stroke-linejoin="round" stroke-width="2"/><path d="M101.77,152.37l3.63-2.63" fill="none" stroke="#000ca0" stroke-linejoin="round" stroke-width="2"/><path d="M101.57,149.73l-1.79,1.34v2.6l1.92-1.4" fill="none" stroke="#000ca0" stroke-linejoin="round" stroke-width="2"/><path d="M105.48,146.89l-3.94,3" fill="none" stroke="#000ca0" stroke-linejoin="round" stroke-width="2"/><path d="M99.85,153.63l2.37,1.65" fill="none" stroke="#000ca0" stroke-linejoin="round" stroke-width="2"/><path d="M160.25,191.28l-.46,2.35s1.83,6,11.63,4.26l8.8-7" fill="none" stroke="#000ca0" stroke-linejoin="round" stroke-width="2"/><path d="M196.8,200.92,187.16,214s-13.71-12.27-15.2-16.22" fill="none" stroke="#000ca0" stroke-linejoin="round" stroke-width="2"/><path d="M163.59,201.18s-2.5,6-5.66,8.84l4.38,1.21c3-2.53,5.76-9.34,5.76-9.34Zm0,0c-4-5.54-3.48-7.81-3.48-7.81" fill="none" stroke="#000ca0" stroke-linejoin="round" stroke-width="2"/><path d="M158.18,209.81l-1.33,6.68,6.86,2.36L162.63,211" fill="none" stroke="#000ca0" stroke-linejoin="round" stroke-width="2"/><path d="M143.46,236.45l4.21.65s-1.94,10.92,6.23,15l-7.85-2S139.93,242.06,143.46,236.45Z" fill="none" stroke="#000ca0" stroke-linejoin="round" stroke-width="2"/><path d="M143.09,236.71a74,74,0,0,0,13.72-20.63" fill="none" stroke="#000ca0" stroke-linejoin="round" stroke-width="2"/><path d="M163.94,218.52s-9.25,16.07-16.57,19" fill="none" stroke="#000ca0" stroke-linejoin="round" stroke-width="2"/><path d="M187.21,213.79s-2.37,3.18-8.39.39L168.57,202" fill="none" stroke="#000ca0" stroke-linejoin="round" stroke-width="2"/><path d="M154.3,252.52l24.7-39" fill="none" stroke="#000ca0" stroke-linejoin="round" stroke-width="2"/><path d="M101.89,106.36a4.18,4.18,0,0,1,.45-.41,47.73,47.73,0,0,1,14.45-9.71L116.42,91a52,52,0,0,0-11.65,6.81Z" fill="#000ca0"/><path d="M140.74,89.54c-6.11-2.66-13.08-2.42-20.23.26l3.57,4.27a19.43,19.43,0,0,1,12.11.69C152.13,101.27,155,130,142.63,159s-35.3,47.2-51.21,40.73C81.91,195.81,77,184,77.32,168.91l-5.42-2c-1.13,18.6,4.62,33.74,16.56,38.93,18.71,8.22,45.64-11.16,60.1-43.28S159.46,97.71,140.74,89.54Z" fill="#000ca0"/><path d="M78,101.34l3.14.46.74-3.4L78.77,98Z" fill="#000ca0"/><path d="M74.19,104l3.11.45.73-3.39-3.1-.45Z" fill="#000ca0"/><path d="M68.41,99.49l-.74,3.39,3.1.45.74-3.39Z" fill="#000ca0"/><path d="M68.09,99.49l.73-3.39-3.1-.45L65,99Z" fill="#000ca0"/><path d="M70.36,106.72l3.1.44.73-3.39-3.1-.44Z" fill="#000ca0"/><path d="M86.45,91.59,61.35,88q-2.6,12-5.2,24L84.38,116q2.59-12,5.2-24l-3.13-.45Zm-2.23,10.27L82,112.12,60,109c1-4.57,2-9.15,3-13.68l3.13.45.75-3.42,15.7,2.26L81.83,98l3.14.45Z" fill="#000ca0"/><path d="M32.84,117.55l3.1.45.74-3.39-3.11-.45Z" fill="#000ca0"/><path d="M29,120.28l3.1.45.74-3.43-3.1-.45Z" fill="#000ca0"/><path d="M23.18,115.69l-.75,3.44,3.14.45.75-3.43Z" fill="#000ca0"/><path d="M22.86,115.69l.73-3.39-3.1-.44-.74,3.39Z" fill="#000ca0"/><path d="M25.16,123l3.1.45L29,120l-3.11-.45Z" fill="#000ca0"/><path d="M41.22,107.8l-25.1-3.62q-2.6,12-5.2,24l28.23,4.07q2.6-12,5.2-24ZM39,118.06l-2.22,10.27-22-3.17q1.5-6.87,3-13.69l3.13.46.75-3.42,15.69,2.26-.74,3.42,3.13.45Z" fill="#000ca0"/><path d="M33.21,61.1l3.1.44.74-3.43L34,57.66Z" fill="#000ca0"/><path d="M29.37,63.78l3.11.45.73-3.39-3.1-.45Z" fill="#000ca0"/><path d="M23.59,59.24l-.74,3.39,3.1.45.74-3.39Z" fill="#000ca0"/><path d="M23.26,59.24,24,55.81l-3.14-.45-.75,3.43Z" fill="#000ca0"/><path d="M25.54,66.47l3.1.45.73-3.39-3.1-.45Z" fill="#000ca0"/><path d="M41.6,51.3,16.5,47.68q-2.6,12-5.2,24l28.22,4.07q2.61-12,5.21-24ZM39.36,61.61q-1.11,5.13-2.23,10.26l-22-3.17c1-4.57,2-9.15,3-13.68l3.13.45L22,52.05l15.7,2.26L37,57.73l3.13.46Z" fill="#000ca0"/><path d="M117.29,152.16l1.78,2.24-1.4,1.83-4-4.64" fill="none" stroke="#000ca0" stroke-linejoin="round" stroke-width="2"/><path d="M114.88,149.66l4.49,4.87" fill="none" stroke="#000ca0" stroke-linejoin="round" stroke-width="2"/></svg>