<svg width="408" height="418" viewBox="0 0 408 418" fill="none" xmlns="http://www.w3.org/2000/svg">
<path d="M481.701 225.275C483.342 216.611 484.045 207.478 484.045 198.345C484.045 162.048 471.388 128.561 450.526 102.334C453.807 98.8212 455.917 93.9036 455.917 88.5176C455.917 77.5114 447.009 68.6128 435.992 68.6128C430.367 68.6128 425.444 70.9546 421.694 74.4672C413.724 68.6128 405.285 63.461 396.144 59.0117C396.612 57.3725 396.847 55.7333 396.847 53.8599C396.847 42.8537 387.94 33.9551 376.923 33.9551C368.484 33.9551 361.217 39.107 358.405 46.6005C349.028 44.9613 339.652 44.0246 329.807 44.0246C255.267 44.0246 193.149 96.7137 178.616 166.966L176.741 167.434C170.881 159.941 162.677 162.985 150.957 162.751C139.236 162.282 122.359 174.928 122.359 174.928C122.359 174.928 97.2779 181.25 86.0265 187.807C74.5407 194.364 78.0567 222.933 78.0567 222.933C78.0567 222.933 12.6579 258.996 7.7354 261.806C3.04731 264.382 -2.8128 274.451 7.7354 288.736C18.2836 302.786 33.9887 294.59 33.9887 294.59L78.0567 270.002C78.0567 278.198 84.3857 286.394 95.4027 301.85C106.42 317.305 113.452 329.248 113.452 329.248C63.9925 334.868 28.1286 351.729 28.1286 371.634C28.1286 396.222 82.7448 416.127 149.785 416.127C217.059 416.127 271.44 396.222 271.44 371.634C271.44 352.197 237.217 335.571 189.633 329.716L186.117 312.388C186.117 312.388 192.212 294.59 191.274 272.344C191.274 270.236 191.04 268.363 190.805 266.49C206.042 297.401 231.357 322.691 262.768 337.678C262.533 339.083 262.299 340.488 262.299 341.893C262.299 352.9 271.206 361.798 282.223 361.798C290.427 361.798 297.225 356.881 300.507 350.09C309.883 351.963 319.493 352.9 329.573 352.9C365.437 352.9 398.488 340.723 424.741 320.115C428.257 322.925 432.711 324.799 437.633 324.799C448.65 324.799 457.558 315.9 457.558 304.894C457.558 299.976 455.682 295.293 452.635 291.78C459.199 283.116 465.059 273.515 469.512 263.679C470.919 263.914 472.325 264.148 473.732 264.148C484.749 264.148 493.656 255.249 493.656 244.243C494.125 235.344 488.968 228.319 481.701 225.275Z" fill="#EBEBEB"/>
<path d="M149.784 418C116.968 418 86.2608 413.316 63.0548 404.886C39.3799 396.222 26.2533 384.513 26.2533 371.634C26.2533 351.495 60.0075 333.932 110.404 327.609C107.826 323.394 101.732 314.027 93.7618 302.787C92.8242 301.382 91.8865 299.976 90.9489 298.806C82.5104 287.097 77.5879 279.838 76.4158 272.812L34.9263 295.995C34.6918 295.995 17.8147 304.66 6.3289 289.673C-0.234426 281.008 -0.46883 273.983 0.234383 269.768C1.172 264.85 4.21926 261.572 6.79771 260.167C11.2514 257.591 67.2741 226.446 75.7126 221.762C75.2438 215.908 73.8374 192.257 84.8544 185.934C95.637 179.611 118.14 173.757 121.422 172.82C123.766 171.181 139.471 160.175 150.956 160.409C154.004 160.409 156.582 160.409 159.395 160.175C166.427 159.941 172.522 159.706 177.21 164.624C184.711 130.669 203.463 99.758 230.654 77.2773C258.548 54.3283 293.709 41.6829 330.042 41.6829C339.183 41.6829 348.56 42.3854 357.701 44.0246C361.217 36.5311 368.953 31.6134 377.391 31.6134C389.346 31.6134 399.191 41.4487 399.191 53.3916C399.191 54.7966 398.956 56.2017 398.722 57.3725C406.926 61.3535 414.662 66.037 421.928 71.423C425.913 67.9104 430.836 66.037 436.227 66.037C448.181 66.037 458.026 75.8723 458.026 87.8151C458.026 92.9669 456.386 97.6504 453.104 101.631C474.669 129.264 486.155 162.517 486.155 197.643C486.155 206.307 485.452 214.971 484.045 223.402C491.546 227.148 496.234 234.642 496.234 242.838C496.234 254.781 486.389 264.616 474.435 264.616C473.263 264.616 472.325 264.616 471.153 264.382C466.699 273.515 461.542 282.413 455.448 290.609C458.261 294.356 459.902 299.04 459.902 303.723C459.902 315.666 450.057 325.501 438.102 325.501C433.414 325.501 428.96 324.096 425.21 321.286C397.784 342.362 364.733 353.602 330.042 353.602C320.665 353.602 311.289 352.665 302.147 351.026C298.397 358.051 290.896 362.501 282.926 362.501C277.535 362.501 272.612 360.627 268.862 357.349C272.144 361.564 274.019 366.248 274.019 370.697C274.019 383.342 260.892 395.285 237.217 403.95C213.308 413.316 182.601 418 149.784 418ZM114.858 328.077C115.093 328.311 115.093 328.546 115.093 329.014C115.093 329.951 114.389 330.887 113.452 330.887C64.2268 336.508 29.7694 353.134 29.7694 371.634C29.7694 382.64 42.4272 393.412 64.2268 401.374C86.9641 409.804 117.437 414.253 149.784 414.253C182.132 414.253 212.37 409.57 235.342 401.374C257.142 393.412 269.8 382.64 269.8 371.634C269.8 353.836 236.749 337.444 189.633 331.356C188.696 331.356 187.992 330.419 187.992 329.716L184.711 312.622C184.711 312.388 184.711 311.919 184.711 311.685C184.711 311.451 190.805 293.888 189.633 272.344C189.633 270.471 189.399 268.597 189.164 266.49C189.164 265.553 189.633 264.85 190.571 264.616C191.508 264.382 192.212 264.85 192.68 265.553C207.682 296.23 232.998 321.052 263.705 335.805C264.408 336.273 264.877 336.976 264.643 337.913C264.408 339.083 264.174 340.488 264.174 341.659C264.174 351.729 272.378 359.925 282.457 359.925C289.49 359.925 296.053 355.71 299.1 349.153C299.335 348.45 300.272 347.982 301.21 348.216C310.586 350.09 320.197 351.026 329.807 351.026C364.265 351.026 396.847 339.786 424.038 318.476C424.741 318.008 425.679 318.008 426.382 318.476C429.663 321.286 433.883 322.691 438.102 322.691C448.181 322.691 456.386 314.495 456.386 304.426C456.386 299.976 454.745 295.761 451.932 292.483C451.463 291.78 451.229 290.844 451.932 290.141C458.495 281.477 464.121 272.11 468.809 262.274C469.278 261.572 469.981 261.104 470.919 261.338C472.325 261.572 473.497 261.806 474.904 261.806C484.983 261.806 493.187 253.61 493.187 243.541C493.187 236.281 488.733 229.49 481.936 226.68C481.232 226.446 480.764 225.509 480.764 224.573C482.404 215.908 483.108 206.775 483.108 197.877C483.108 162.985 471.622 130.201 449.822 102.802C449.353 102.1 449.353 101.163 449.822 100.46C453.104 97.1821 454.745 92.7328 454.745 88.0493C454.745 77.9798 446.541 69.7837 436.461 69.7837C431.539 69.7837 427.085 71.6571 423.569 75.1697C422.866 75.8722 421.928 75.8723 421.225 75.4039C413.255 69.5496 404.817 64.3977 395.909 60.1826C395.206 59.7143 394.737 59.0117 394.972 58.0751C395.44 56.67 395.675 55.0308 395.675 53.3916C395.675 43.3221 387.471 35.126 377.391 35.126C369.89 35.126 363.327 39.5753 360.514 46.6005C360.28 47.3031 359.342 47.7714 358.404 47.7714C349.028 46.1322 339.652 45.1955 330.042 45.1955C294.646 45.1955 260.189 57.6067 232.998 79.8532C206.042 101.866 187.524 132.776 180.491 166.497C180.257 167.2 179.788 167.668 179.085 167.902L177.21 168.371C176.507 168.605 175.803 168.371 175.335 167.668C171.584 162.985 166.662 163.219 159.395 163.453C156.817 163.453 154.004 163.687 150.722 163.687C139.705 163.219 123.297 175.396 123.297 175.63C123.062 175.864 122.828 175.864 122.594 175.864C122.359 175.864 97.7467 182.187 86.7296 188.51C78.2911 193.427 78.7599 214.269 79.6975 221.997C79.6975 222.699 79.4631 223.402 78.7599 223.87C78.7599 223.87 13.5954 260.167 8.90735 262.743C7.26652 263.68 4.92247 266.021 4.21926 270.002C3.51605 273.515 3.75045 279.369 9.61056 286.863C19.2211 299.508 32.8166 292.483 33.5198 292.249L77.5879 267.66C78.0567 267.426 78.7599 267.426 79.4631 267.66C79.9319 267.895 80.4007 268.597 80.4007 269.3C80.4007 276.091 85.3232 283.116 94.465 295.995C95.4026 297.166 96.3402 298.571 97.2778 299.976C107.123 315.666 114.389 327.141 114.858 328.077ZM191.274 328.077C214.48 331.122 234.639 336.742 249.172 344.001C255.501 347.28 260.658 350.792 264.643 354.305C262.064 350.792 260.658 346.343 260.658 341.659C260.658 340.488 260.658 339.552 260.892 338.381C232.529 324.565 208.854 302.084 193.384 274.452C193.853 293.888 189.164 309.343 188.227 312.388L191.274 328.077Z" fill="#000CA0"/>
<path d="M131.97 390.836L132.439 363.203L108.529 364.609L81.8071 368.121L57.4291 373.741L64.6956 378.425L80.8695 384.045L106.185 388.494L131.97 390.836Z" fill="#9958ED"/>
<path d="M183.539 389.899L177.679 363.203L208.854 367.887L240.265 376.551L225.263 383.342L183.539 389.899Z" fill="#9958ED"/>
<path d="M250.344 129.03L311.055 100.695L244.015 101.397L286.442 49.4108L226.2 79.1508L241.905 14.0505L200.65 66.7396L186.352 1.40515L172.053 66.7396L130.798 14.0505L146.503 79.1508L86.2608 49.4108L128.688 101.397L61.6483 100.695L122.359 129.03L61.6483 157.599L128.688 156.896L86.2608 208.883L97.2778 203.263L99.153 198.579L105.716 195.535L124 190.149L134.314 184.997L137.127 180.08L146.503 179.143L149.55 181.485L161.973 176.567L166.896 180.08L165.958 189.447L177.444 183.358L200.181 178.675L185.179 198.579L174.866 203.497L180.257 210.991L178.851 215.674L177.444 216.142L186.352 256.889L200.65 191.32L241.905 244.243L226.2 179.143L286.442 208.883L244.015 156.896L311.055 157.599L250.344 129.03Z" fill="#2FF0CC"/>
<path d="M137.127 222.699L117.905 233.471L118.609 240.731L120.953 247.053L125.641 250.566L130.329 247.99L135.017 242.136L137.361 232.066L137.127 222.699Z" fill="#000CA0"/>
<path d="M26.9565 285.926C23.9092 285.926 18.7523 284.521 16.6427 278.666C13.8298 270.939 17.1115 268.363 17.5803 267.894C17.5803 267.894 17.8147 267.894 17.8147 267.66L19.2211 267.192C34.223 258.762 131.735 206.073 132.673 205.604L134.314 208.883C133.376 209.351 35.6294 262.274 20.862 270.47C20.862 270.47 20.862 270.47 20.6276 270.47L19.4555 270.939C19.2211 271.407 18.2835 273.046 19.9243 277.261C21.7996 281.945 26.0189 282.179 27.1909 282.179L30.2381 280.774L31.6446 284.052L28.1285 285.457C27.8941 285.457 27.6597 285.692 27.6597 285.692C27.4253 285.926 27.1909 285.926 26.9565 285.926Z" fill="#000CA0"/>
<path d="M136.374 221.244L29.9916 281.172L31.8338 284.436L138.217 224.507L136.374 221.244Z" fill="#000CA0"/>
<path d="M159.395 214.035L157.52 210.757L184.008 196.472L198.072 181.017L178.147 184.997L152.832 198.58L151.191 195.301L176.741 181.719C176.975 181.719 176.975 181.485 177.21 181.485L199.947 177.036C200.65 176.801 201.588 177.27 201.822 177.972L202.76 179.846C202.994 180.548 202.994 181.251 202.526 181.953L186.586 199.048C186.352 199.282 186.352 199.282 186.117 199.516L159.395 214.035Z" fill="#000CA0"/>
<path d="M150.722 392.943C124.938 392.943 100.794 390.602 82.5103 386.152C69.1493 382.874 52.9753 377.254 52.9753 368.355C52.9753 362.032 60.9451 356.412 76.4158 351.963C90.7145 347.982 110.404 345.172 132.204 344.235L132.438 347.748C84.8544 349.855 56.4914 359.925 56.4914 368.121C56.4914 373.039 66.5708 378.425 83.2135 382.406C101.263 386.621 125.172 388.962 150.488 388.962C176.038 388.962 199.947 386.621 217.762 382.406C234.404 378.425 244.484 373.039 244.484 368.121C244.484 360.393 219.871 350.792 174.397 347.982L174.631 344.469C195.024 345.64 213.308 348.45 226.435 352.431C240.733 356.881 248.234 362.032 248.234 368.121C248.234 377.02 232.295 382.64 218.699 385.918C200.65 390.602 176.507 392.943 150.722 392.943Z" fill="#000CA0"/>
<path d="M239.561 378.19C239.327 378.19 216.824 368.355 177.444 365.077L177.679 361.564C217.527 364.842 240.03 374.678 240.968 375.146L239.561 378.19Z" fill="#000CA0"/>
<path d="M57.898 375.38L56.726 371.868C56.9604 371.868 86.7297 362.501 133.142 360.627L133.376 364.14C87.433 366.248 58.1324 375.38 57.898 375.38Z" fill="#000CA0"/>
<path d="M180.96 390.133C180.491 387.558 168.302 329.248 168.302 308.407C168.302 307.938 168.537 307.236 169.006 307.002C169.006 307.002 175.335 301.382 173.694 279.603C172.522 263.68 167.599 255.015 163.849 248.693C162.208 245.882 160.801 243.307 160.098 240.731C159.395 238.155 159.629 236.047 159.864 233.705C160.098 228.788 160.567 222.699 154.004 207.478C153.3 206.541 149.316 199.048 149.316 190.149V189.915C149.55 188.51 149.784 184.295 147.909 182.187C146.972 181.016 145.565 180.548 143.456 180.548C136.658 180.548 134.079 184.529 133.845 195.535C133.845 200.687 135.486 207.01 136.892 212.161L137.127 213.332C137.83 215.908 138.533 218.25 138.533 219.889V220.592C140.408 238.389 135.955 248.927 125.875 251.971C125.641 251.971 125.641 251.971 125.406 251.971C125.172 251.971 123.062 252.205 120.953 250.098C117.671 247.288 116.03 241.667 115.796 233.237H119.546C119.781 246.819 124.234 248.224 125.172 248.458C137.361 244.477 135.72 226.68 135.017 220.826V220.123C134.783 218.718 134.314 216.377 133.611 214.035V213.098C132.204 207.712 130.329 201.155 130.563 195.535C130.563 189.915 130.798 177.035 143.69 177.035C146.737 177.035 149.316 177.972 150.956 180.08C154.004 183.826 153.3 189.447 153.066 190.617C153.066 198.814 157.285 206.073 157.285 206.073V206.307C164.317 222.465 163.849 229.256 163.614 234.408C163.38 236.516 163.38 238.155 163.849 240.262C164.318 242.37 165.724 244.477 167.13 247.288C170.881 253.844 176.272 262.977 177.444 279.603C179.085 299.977 173.928 307.47 172.053 309.578C172.287 330.653 184.476 389.197 184.476 389.665L180.96 390.133Z" fill="#000CA0"/>
<path d="M114.389 216.845C114.155 214.971 114.858 210.756 119.546 208.883C132.907 203.497 133.845 203.965 134.314 204.199L132.673 207.478C133.142 207.712 133.611 207.712 133.611 207.712C132.673 207.946 125.641 210.522 120.953 212.395C117.905 213.566 118.14 216.376 118.14 216.61L114.389 216.845Z" fill="#000CA0"/>
<path d="M159.395 195.066L157.754 191.788C157.754 191.788 164.083 188.744 165.255 184.294C165.724 182.655 165.255 180.782 164.083 179.143L163.849 178.908C163.614 178.674 160.801 177.503 150.253 183.358L148.378 180.079C156.348 175.63 161.739 173.991 165.021 175.396C166.193 175.864 166.662 176.567 166.896 177.269C168.771 179.845 169.24 182.655 168.537 185.231C167.365 191.085 159.864 194.832 159.395 195.066Z" fill="#000CA0"/>
<path d="M95.637 228.788L92.121 228.553C92.121 228.553 92.121 226.446 92.8242 210.99C93.5274 194.832 104.076 193.662 105.716 193.662C123.062 191.554 132.204 185.934 132.204 185.934L134.079 188.978C133.611 189.212 124.234 194.832 105.951 197.174H105.716C105.482 197.174 97.0435 197.408 96.3403 210.99C95.637 226.68 95.637 228.788 95.637 228.788Z" fill="#000CA0"/>
<path d="M133.845 390.836L130.329 390.602C130.329 390.602 130.329 388.963 131.266 371.165C132.204 352.197 130.094 338.381 127.75 326.204C125.641 315.198 112.983 299.04 103.607 287.565C101.966 285.458 100.325 283.35 98.9187 281.711C90.9489 271.407 90.2457 267.192 90.4801 265.553V248.224H94.2306V265.787V266.021C94.2306 266.255 94.465 269.768 101.966 279.369C103.372 281.243 105.013 283.116 106.654 285.224C116.03 297.166 129.157 313.559 131.501 325.501C134.079 337.913 136.189 351.963 135.251 371.399C133.845 389.197 133.845 390.836 133.845 390.836Z" fill="#000CA0"/>
<path d="M195.271 179.066L192.055 180.993L195.188 186.215L198.405 184.289L195.271 179.066Z" fill="#000CA0"/>
<path d="M155.176 205.838L153.301 202.56L173.225 191.554C172.991 191.32 172.756 190.851 172.756 190.617C171.35 187.573 174.866 183.358 176.038 182.187L178.616 184.529C176.975 186.402 175.803 188.51 176.038 189.212C176.038 189.212 176.272 189.446 177.444 189.446C178.147 189.446 178.851 190.149 179.085 190.851C179.319 191.554 178.851 192.49 178.147 192.959L155.176 205.838Z" fill="#000CA0"/>
<path d="M181.663 200.453C180.491 200.453 179.085 200.219 177.913 199.282C176.038 197.643 175.335 195.067 175.803 191.086L179.319 191.554C178.851 194.13 179.085 195.769 180.023 196.472C181.195 197.409 183.539 196.706 184.476 196.238L185.883 199.516C185.648 199.75 183.773 200.453 181.663 200.453Z" fill="#000CA0"/>
<path d="M28.5973 273.983C27.894 273.983 27.4252 273.749 26.9564 273.047C23.6748 267.661 25.55 263.914 25.55 263.68L28.8317 265.319C28.8317 265.319 28.1285 266.958 29.3005 269.768L134.783 212.396L136.423 215.674L29.3005 273.983C29.0661 273.983 28.8317 273.983 28.5973 273.983Z" fill="#000CA0"/>
<path d="M168.537 220.826C163.849 220.826 159.629 219.889 159.395 219.889L160.098 216.377C163.38 217.079 172.522 218.25 176.272 215.44C177.444 214.737 177.913 213.566 178.147 212.161V211.927C178.147 211.693 178.616 208.18 172.053 206.307L172.99 202.794C177.21 203.965 180.023 205.839 181.195 208.415C182.132 210.288 181.898 211.927 181.898 212.396C181.663 214.737 180.491 216.611 178.616 218.016C176.038 220.123 172.053 220.826 168.537 220.826Z" fill="#000CA0"/>
<path d="M163.38 231.363C162.677 231.363 162.208 231.363 161.739 231.363L162.208 227.851L161.974 229.49L162.208 227.617C162.442 227.617 170.647 228.319 171.35 222.933C171.35 222.699 171.35 222.465 171.584 222.465C171.584 222.231 171.584 221.294 170.412 219.889L173.225 217.547C175.569 220.357 175.335 222.699 174.866 223.636C173.928 229.724 167.599 231.363 163.38 231.363Z" fill="#000CA0"/>
<path d="M116.265 215.674L118.843 211.225L131.501 206.307L133.376 207.478L116.265 215.674Z" fill="#000CA0"/>
<path d="M289.021 343.533L288.083 340.02L328.87 329.951C269.565 329.717 216.121 288.97 201.588 229.725C185.18 162.517 223.856 93.6696 289.724 72.8282L290.896 76.3408C226.904 96.4797 189.164 163.453 205.104 228.788C221.043 294.122 285.505 336.039 351.607 324.331C352.544 324.096 353.482 324.799 353.716 325.736C353.951 326.672 353.248 327.609 352.31 327.843L289.021 343.533Z" fill="#000CA0"/>
<path d="M369.421 323.394C368.718 323.394 367.781 322.925 367.781 321.989C367.546 321.052 368.015 320.115 368.953 319.881C398.722 310.514 423.803 290.609 439.743 263.914C455.682 237.218 461.308 205.604 455.682 174.928L459.198 174.225C465.058 205.839 459.198 238.155 442.79 265.787C430.367 286.628 412.317 303.489 391.221 314.495L432.007 304.66L432.945 308.172L369.89 323.16C369.656 323.394 369.656 323.394 369.421 323.394Z" fill="#000CA0"/>
<path d="M451.697 159.004C442.321 129.732 422.397 104.676 395.909 88.7518C369.421 72.828 338.011 66.9737 307.539 72.1255L306.835 68.6129C338.011 63.2269 370.359 69.0812 397.55 85.7076C424.741 102.1 445.134 127.859 454.745 158.067L451.697 159.004Z" fill="#000CA0"/>
<path d="M305.195 62.7583L288.552 66.7392L292.537 83.5997L309.414 79.3846L307.304 70.486L305.195 62.7583Z" fill="#FF58D1"/>
<path d="M292.537 85.4734C291.834 85.4734 290.896 85.0051 290.662 84.0684L286.442 67.2079C286.208 66.2712 286.911 65.3345 287.849 65.1003L304.726 60.8852C305.195 60.8852 305.663 60.8852 306.132 61.1193C306.601 61.3535 306.835 61.8219 307.07 62.2902L311.289 79.1507C311.289 79.6191 311.289 80.0874 311.055 80.5558C310.82 81.0241 310.352 81.2583 309.883 81.4924L293.006 85.7076C293.006 85.2392 292.771 85.4734 292.537 85.4734ZM290.662 68.1445L293.943 81.2583L307.07 77.9798L303.788 64.8661L290.662 68.1445Z" fill="#000CA0"/>
<path d="M367.815 313.631L350.967 317.755L355.095 334.586L371.943 330.462L367.815 313.631Z" fill="#FF58D1"/>
<path d="M355.123 336.508C354.42 336.508 353.482 336.039 353.248 335.103L349.028 318.242C348.794 317.305 349.497 316.369 350.435 316.134L367.312 311.919C368.25 311.685 369.187 312.388 369.422 313.324L373.641 330.185C373.641 330.653 373.641 331.122 373.406 331.59C373.172 332.058 372.703 332.292 372.234 332.527L355.357 336.742C355.357 336.273 355.357 336.508 355.123 336.508ZM353.248 319.179L356.529 332.292L369.656 329.014L366.374 315.9L353.248 319.179Z" fill="#000CA0"/>
<path d="M290.063 73.534L228.363 88.644L229.256 92.2833L290.956 77.1732L290.063 73.534Z" fill="#000CA0"/>
<path d="M370.177 53.1581L306.883 68.6584L307.776 72.2977L371.07 56.7973L370.177 53.1581Z" fill="#000CA0"/>
<path d="M282.223 350.324C280.817 350.324 279.176 349.856 278.004 349.153C276.128 347.982 274.722 346.343 274.253 344.001C273.081 339.552 275.894 335.103 280.348 334.166C284.801 332.995 289.255 335.805 290.193 340.255C290.662 342.362 290.427 344.47 289.255 346.343C288.083 348.216 286.442 349.622 284.098 350.09C283.395 350.324 282.926 350.324 282.223 350.324ZM282.223 337.679C281.754 337.679 281.52 337.679 281.051 337.913C279.879 338.147 278.941 338.85 278.238 340.02C277.535 340.957 277.535 342.362 277.769 343.533C278.473 345.875 280.817 347.514 283.161 346.811C284.333 346.577 285.27 345.875 285.973 344.704C286.677 343.767 286.677 342.362 286.442 341.191C286.208 340.02 285.505 339.084 284.333 338.381C283.864 337.913 282.926 337.679 282.223 337.679Z" fill="#000CA0"/>
<path d="M376.922 61.8218C373.172 61.8218 369.89 59.2459 368.953 55.4991C368.484 53.3915 368.718 51.2839 369.89 49.4106C371.062 47.5372 372.703 46.1321 375.047 45.6638C379.501 44.4929 383.955 47.303 384.892 51.7523C386.064 56.2016 383.251 60.6509 378.798 61.5876C378.329 61.5876 377.626 61.8218 376.922 61.8218ZM376.922 48.9422C376.454 48.9422 376.219 48.9422 375.75 49.1764C374.578 49.4106 373.641 50.1131 372.938 51.2839C372.234 52.4548 372.234 53.6257 372.469 54.7966C372.703 55.9674 373.406 56.9041 374.578 57.6066C375.516 58.3092 376.922 58.3092 378.094 58.075C380.439 57.3725 382.079 55.0307 381.376 52.689C381.142 51.5181 380.439 50.5814 379.267 49.8789C378.563 49.1764 377.86 48.9422 376.922 48.9422Z" fill="#000CA0"/>
<path d="M222.45 99.5238C218.699 99.5238 215.418 96.9479 214.48 93.2012C213.308 88.7519 216.121 84.3026 220.575 83.3659C225.028 82.195 229.482 85.0051 230.42 89.4544C231.592 93.9037 228.779 98.353 224.325 99.2897C223.856 99.5239 223.153 99.5238 222.45 99.5238ZM218.23 92.4986C218.934 94.8404 221.278 96.4796 223.622 95.7771C225.966 95.0746 227.607 92.7328 226.903 90.3911C226.2 88.0493 223.856 86.4101 221.512 87.1126C220.34 87.3468 219.403 88.0493 218.699 89.2202C217.996 90.1569 217.762 91.3278 218.23 92.4986Z" fill="#000CA0"/>
<path d="M421.694 289.907L328.87 199.984L200.885 181.25L201.353 177.738L330.042 196.472C330.51 196.472 330.745 196.706 330.979 196.94L424.272 287.331L421.694 289.907Z" fill="#000CA0"/>
<path d="M329.573 200.219C329.104 200.219 328.635 199.984 328.166 199.516C327.697 199.048 327.697 198.345 327.932 197.643L374.344 76.3407L377.626 77.7458L332.386 195.769L445.837 167.903L446.775 171.415L329.807 199.984C330.041 200.219 329.807 200.219 329.573 200.219Z" fill="#000CA0"/>
<path d="M328.992 68.5884L325.242 68.6625L327.809 198.369L331.559 198.295L328.992 68.5884Z" fill="#000CA0"/>
<path d="M101.732 182.187C101.263 182.187 100.559 181.719 100.325 181.25C100.091 180.548 100.559 179.845 101.263 179.611L111.811 176.333L125.875 158.536L61.6483 159.238C60.9451 159.238 60.4763 158.77 60.2419 158.067C60.0075 157.365 60.4763 156.896 60.9451 156.428L119.077 129.264L61.1795 101.866C60.7107 101.631 60.2419 100.929 60.4763 100.226C60.7107 99.5238 61.1795 99.0555 61.8827 99.0555L126.11 99.758L85.3232 50.3473C84.8544 49.879 84.8544 49.1765 85.3232 48.7081C85.792 48.2398 86.4952 48.0056 86.964 48.2398L144.393 76.5748L129.626 14.2846C129.391 13.5821 129.86 13.1137 130.329 12.6454C130.798 12.177 131.501 12.6454 131.97 13.1137L171.35 63.6952L184.945 0.936695C185.18 0.468347 185.648 0 186.352 0C187.055 0 187.524 0.468347 187.758 1.17087L201.353 63.9294L240.733 13.3479C241.202 12.8796 241.905 12.6454 242.374 12.8796C242.843 13.1137 243.312 13.8162 243.077 14.5188L228.076 76.5748L254.094 62.056C255.266 61.5877 279.41 49.879 291.365 47.3031C292.068 47.0689 292.771 47.5373 293.006 48.4739C293.24 49.1765 292.771 49.879 291.834 50.1132C280.113 52.4549 255.501 64.6319 255.266 64.6319L226.669 80.5557C226.2 80.7899 225.497 80.7899 225.263 80.5557C224.794 80.3216 224.559 79.619 224.794 79.1507L238.858 20.1389L201.588 67.6762C201.353 68.1445 200.65 68.3787 200.181 68.1445C199.713 67.9104 199.244 67.6762 199.244 67.2078L186.352 7.72773L173.459 67.2078C173.459 67.6762 172.99 68.1445 172.522 68.1445C172.053 68.3787 171.584 68.1445 171.115 67.6762L133.611 19.9048L147.675 78.9165C147.909 79.3849 147.675 79.8532 147.206 80.3216C146.737 80.5557 146.268 80.7899 145.8 80.5557L91.4177 53.3916L129.86 100.461C130.094 100.929 130.329 101.397 130.094 101.866C129.86 102.334 129.391 102.568 128.922 102.568L67.9773 102.1L123.062 127.859C123.531 128.093 123.766 128.561 123.766 129.03C123.766 129.498 123.531 129.966 123.062 130.201L67.9773 156.194L128.688 155.491C129.157 155.491 129.626 155.725 129.86 156.194C130.094 156.662 130.094 157.131 129.626 157.599L113.686 177.972C113.452 178.206 113.217 178.44 112.983 178.44L101.966 181.953C101.966 182.187 101.966 182.187 101.732 182.187Z" fill="#000CA0"/>
</svg>
