<?xml version="1.0" encoding="UTF-8"?>
<svg width="385px" height="223px" viewBox="0 0 385 223" version="1.1" xmlns="http://www.w3.org/2000/svg" xmlns:xlink="http://www.w3.org/1999/xlink">
    <title>Group</title>
    <g id="Page-1" stroke="none" stroke-width="1" fill="none" fill-rule="evenodd">
        <g id="Artboard" transform="translate(-37.000000, -4.000000)">
            <g id="Group" transform="translate(37.053101, 4.000000)">
                <g id="Frame" transform="translate(-0.000000, 115.234131)" fill-rule="nonzero">
                    <path d="M73.0662088,96.5658686 C73.0662088,96.5658686 72.9662088,96.5658686 35.8662088,106.165869 C33.6662088,106.765869 31.2662088,106.365869 29.2662088,105.265869 C29.2662088,105.265869 23.3662088,101.765869 22.6662088,101.365869 C20.6662088,100.165869 19.2662088,98.2658686 18.6662088,96.0658686 L14.6662088,80.2658686 C13.7662088,76.8658686 15.1662088,73.1658686 17.9662088,71.1658686 L17.2662088,68.4658686 C16.5662088,65.6658686 18.5662088,62.1658686 20.4662088,59.2658686 C17.3662088,57.6658686 13.8662088,55.4658686 13.1662088,52.6658686 L12.4662088,49.7658686 C8.96619875,49.2658686 6.06619875,46.7658686 5.16619875,43.3658686 L1.16619875,27.5658686 C0.56620275,25.1658686 2.06619875,20.9658686 5.86619875,14.7658686 L6.06619875,14.4658686 C7.16619875,12.5658686 8.86619875,11.2658686 10.9662088,10.5658686 C10.9662088,10.5658686 11.0662088,10.5658686 48.1662088,0.965888587 C50.5662088,0.365884587 54.8662088,1.86588859 61.0662088,5.66588859 L61.3662088,5.86588859 C63.3662088,7.06588859 64.7662088,8.96588859 65.3662088,11.1658686 L69.3662088,26.9658686 C69.9662088,29.1658686 69.5662088,31.5658686 68.4662088,33.5658686 C67.8662088,34.5658686 67.0662088,35.4658686 66.1662088,36.1658686 L66.8662088,38.8658686 C67.4662088,41.0658686 67.0662088,43.4658686 65.9662088,45.4658686 C65.5662088,46.1658686 64.6662088,47.1658686 63.9662088,47.9658686 C63.9662088,48.0658686 63.8662088,48.0658686 63.7662088,48.1658686 C66.8662088,49.7658686 70.2662088,51.8658686 70.9662088,54.6658686 L71.6662088,57.3658686 C72.8662088,57.5658686 73.9662088,57.8658686 74.9662088,58.4658686 C76.9662088,59.6658686 78.3662088,61.5658686 78.9662088,63.7658686 L82.9662088,79.5658686 C83.5662088,81.9658686 82.0662088,86.1658686 78.2662088,92.4658686 L77.9662088,92.6658686 C76.8662088,94.5658686 75.1662088,95.9658686 73.0662088,96.5658686 Z" id="Path" fill="#EBEBEB"></path>
                    <path d="M11.2662088,11.5658686 C11.3662088,11.5658686 48.4662088,2.06585859 48.4662088,2.06585859 C51.8662088,1.16585859 59.6662088,6.06585859 60.8662088,6.76585859 C62.5662088,7.76585859 63.8662088,9.46585859 64.3662088,11.3658686 L68.3662088,27.1658686 C68.8662088,29.0658686 68.5662088,31.1658686 67.5662088,32.8658686 C66.8662088,33.9658686 65.9662088,34.8658686 64.9662088,35.4658686 L65.8662088,38.9658686 C66.3662088,40.8658686 66.0662088,42.9658686 65.0662088,44.6658686 C64.3662088,45.8658686 62.1662088,47.9658686 62.1662088,48.2658686 C62.3662088,48.4658686 69.0662088,51.2658686 69.9662088,54.6658686 L70.8662088,58.1658686 C72.1662088,58.1658686 73.3662088,58.5658686 74.4662088,59.2658686 C76.1662088,60.2658686 77.4662088,61.9658686 77.9662088,63.8658686 L81.9662088,79.6658686 C82.8662088,83.0658686 77.9662088,90.8658686 77.2662088,92.0658686 C76.2662088,93.6658686 74.7662088,94.8658686 72.9662088,95.4658686 C72.8662088,95.4658686 35.7662088,104.965869 35.7662088,104.965869 C33.8662088,105.465869 31.7662088,105.165869 30.0662088,104.165869 C28.8662088,103.465869 24.6662088,100.965869 23.4662088,100.265869 C21.7662088,99.2658686 20.4662088,97.5658686 19.9662088,95.6658686 L15.9662088,79.8658686 C15.0662088,76.5658686 16.5662088,73.1658686 19.3662088,71.4658686 L18.4662088,67.9658686 C17.5662088,64.5658686 22.1662088,58.8658686 22.1662088,58.5658686 C21.9662088,58.3658686 15.2662088,55.5658686 14.3662088,52.1658686 L13.3662088,48.7658686 C10.0662088,48.6658686 7.16624875,46.3658686 6.26624875,43.0658686 L2.26624875,27.2658686 C1.36624875,23.8658686 6.26624875,16.0658686 6.96624875,14.9658686 C7.96624875,13.3658686 9.46624875,12.1658686 11.2662088,11.5658686 Z M10.5662088,9.46585859 C8.26624875,10.1658686 6.26624875,11.7658686 5.06624875,13.8658686 L4.86624875,14.1658686 C0.96624875,20.7658686 -0.53375125,25.0658686 0.16624875,27.8658686 L4.16624875,43.6658686 C5.06624875,47.2658686 8.06624875,50.0658686 11.5662088,50.7658686 L12.0662088,52.8658686 C12.7662088,55.7658686 15.8662088,57.8658686 18.8662088,59.5658686 C17.0662088,62.4658686 15.4662088,65.7658686 16.1662088,68.6658686 L16.6662088,70.7658686 C13.8662088,73.1658686 12.6662088,76.9658686 13.5662088,80.5658686 L17.5662088,96.3658686 C18.1662088,98.8658686 19.7662088,100.965869 22.0662088,102.365869 C22.6662088,102.765869 24.2662088,103.665869 25.6662088,104.565869 L28.6662088,106.365869 C30.8662088,107.665869 33.5662088,108.065869 36.0662088,107.465869 C73.1662088,97.9658686 73.2662088,97.9658686 73.3662088,97.8658686 C75.6662088,97.1658686 77.6662088,95.5658686 78.8662088,93.4658686 L79.0662088,93.1658686 C83.0662088,86.5658686 84.5662088,82.2658686 83.8662088,79.4658686 L79.8662088,63.6658686 C79.2662088,61.1658686 77.6662088,59.0658686 75.3662088,57.6658686 C74.4662088,57.1658686 73.4662088,56.7658686 72.4662088,56.5658686 L71.9662088,54.5658686 C71.2662088,51.7658686 68.3662088,49.6658686 65.4662088,48.0658686 C65.9662088,47.4658686 66.5662088,46.7658686 66.8662088,46.1658686 C68.1662088,43.9658686 68.5662088,41.2658686 67.9662088,38.7658686 L67.4662088,36.7658686 C68.2662088,36.0658686 68.9662088,35.2658686 69.4662088,34.3658686 C70.7662088,32.1658686 71.1662088,29.4658686 70.5662088,26.9658686 L66.5662088,11.1658686 C65.9662088,8.66585859 64.3662088,6.56585859 62.0662088,5.16585859 L61.7662088,4.96585859 C55.1662088,0.965858587 50.8662088,-0.534143413 48.0662088,0.165856587 C10.7662088,9.46585859 10.6662088,9.46585859 10.5662088,9.46585859 Z" id="Shape" fill="#000CA0"></path>
                    <path d="M35.5662088,80.6658686 L34.2662088,75.3658686 L39.5662088,74.0658686 L40.8663088,79.3658686 L35.5662088,80.6658686 Z M49.9663088,71.3657686 L44.6663088,72.7658686 L45.9663088,78.0658686 L51.2662088,76.7658686 L49.9663088,71.3657686 Z M60.4663088,68.6658686 L55.1663088,69.9657686 L56.4663088,75.2658686 L61.7662088,73.9658686 L60.4663088,68.6658686 Z M61.8663088,73.9658686 L63.1663088,79.2658686 L68.4663088,77.9658686 L69.7663088,83.2658686 L75.0663088,81.9658686 L71.0662088,66.1658686 L65.7663088,67.4657686 L67.0662088,72.7658686 L61.8663088,73.9658686 Z M63.1663088,79.1658686 L57.9663088,80.5658686 L59.2662088,85.8658686 L53.9663088,87.1658686 L52.6663088,81.8658686 L47.3663088,83.1658686 L48.6663088,88.4658686 L43.3663088,89.7658686 L42.0662088,84.4658686 L36.7662088,85.7658686 L38.0662088,91.0658686 L32.9663088,92.5658686 L34.2662088,97.8658686 L71.0662088,88.4658686 L69.7663088,83.1658686 L64.4663088,84.4658686 L63.1663088,79.1658686 Z M57.9663088,80.5658686 L56.6663088,75.2658686 L51.3663088,76.5658686 L52.6663088,81.8658686 L57.9663088,80.5658686 Z M47.3663088,83.2658686 L46.0662088,77.9658686 L40.7662088,79.2658686 L42.0662088,84.5658686 L47.3663088,83.2658686 Z M36.8663088,85.9658686 L35.5662088,80.6658686 L30.2662088,81.9658686 L28.9663088,76.7658686 L23.6663088,78.0658686 L27.6663088,93.8658686 L32.9663088,92.5658686 L31.6663088,87.2658686 L36.8663088,85.9658686 Z M60.4663088,68.6658686 L65.7663088,67.3657686 L63.0662088,56.7658686 L57.7662088,58.0657686 L60.4663088,68.6658686 Z M31.4663088,64.8657686 L26.1663088,66.1658686 L28.9663088,76.7658686 L34.2662088,75.4658686 L31.4663088,64.8657686 Z M57.7662088,58.1658686 L56.4663088,52.8657686 L51.1663088,54.1658686 L52.4663088,59.4658686 L57.7662088,58.1658686 Z M35.4663088,58.2658686 L30.1663088,59.5657686 L31.4663088,64.8657686 L36.7662088,63.5657686 L35.4663088,58.2658686 Z M45.9663088,55.5657686 L51.2662088,54.2658686 L49.9663088,48.9658686 L44.6663088,50.2658686 L45.9663088,55.5657686 Z M39.3663088,51.6658686 L34.0662088,52.9658686 L35.3663088,58.2658686 L40.6663088,56.9658686 L39.3663088,51.6658686 Z M49.8663088,48.9658686 L55.1663088,47.6658686 L53.8663088,42.3657686 L48.4663088,43.7658686 L49.8663088,48.9658686 Z M27.4663088,49.1658686 L28.7662088,54.4658686 L34.0662088,53.1658686 L32.7662088,47.7658686 L27.4663088,49.1658686 Z M53.7662088,42.3657686 L59.0662088,41.0657686 L56.3663088,30.5657686 L51.0662088,31.8657686 L53.7662088,42.3657686 Z M24.7663088,38.5657686 L19.4663088,39.8657686 L22.1663088,50.3657686 L27.4663088,49.0657686 L24.7663088,38.5657686 Z M52.2662088,14.7658686 L56.2662088,30.5657686 L61.5662088,29.2658686 L57.5662088,13.4658686 L52.2662088,14.7658686 Z M15.4663088,24.1658686 L10.1663088,25.4658686 L14.1663088,41.2658686 L19.4663088,39.9658686 L15.4663088,24.1658686 Z M52.2662088,14.7658686 L50.9663088,9.46581859 L14.1663088,18.8658686 L15.4663088,24.1658686 L52.2662088,14.7658686 Z" id="Shape" fill="#000CA0"></path>
                </g>
                <g id="Frame-2" transform="translate(303.966309, 80.000000)" stroke="#2FF0CC" stroke-linejoin="round" stroke-width="4">
                    <polygon id="Path" points="39.5 0 46.3 21.2 65.2 9.4 56.8 30.1 78.9 33.1 59.2 43.6 74.2 60.1 52.3 55.4 53.2 77.7 39.5 60.1 25.8 77.7 26.6 55.4 4.8 60.1 19.7 43.6 0 33.1 22.1 30.1 13.7 9.4 32.6 21.2"></polygon>
                </g>
                <g id="Frame-1" transform="translate(144.946899, 0.000000)" fill="#000CA0" fill-rule="nonzero">
                    <path d="M16.7194093,49.3 C16.6194093,49.3 16.5194093,49.3 16.3194093,49.2 C15.9194093,49 15.6194093,48.6 15.6194093,48.2 L16.1194093,36 L4.21937928,38.6 C3.71937928,38.7 3.31937928,38.5 3.11937928,38.1 C2.91937928,37.7 2.91937928,37.2 3.21937928,36.9 L11.4194093,27.9 L0.619381284,22.1 C0.219381284,21.9 -0.0806187161,21.4 0.0193815826,21 C0.119381584,20.5 0.419381284,20.2 0.919381284,20.1 L13.0194093,18.4 L8.41937928,7.2 C8.21937928,6.7 8.31937928,6.2 8.71937928,5.9 C9.01937928,5.6 9.61937928,5.6 9.91937928,5.8 L20.2194093,12.3 L24.0194093,0.7 C24.1194093,0.3 24.5194093,0 25.0194093,0 C25.5194093,0 25.9194093,0.3 26.0194093,0.7 L29.7194093,12.3 L40.0194093,5.8 C40.4194093,5.6 40.9194093,5.6 41.3194093,5.9 C41.7194093,6.2 41.8194093,6.7 41.6194093,7.1 L37.0194093,18.4 L49.1194093,20.1 C49.6194093,20.2 49.9194093,20.5 50.0194093,21 C50.1194093,21.5 49.9194093,21.9 49.4194093,22.1 L38.6194093,27.8 L46.8194093,36.8 C47.1194093,37.1 47.2194093,37.6 46.9194093,38 C46.7194093,38.4 46.2194093,38.6 45.8194093,38.5 L33.9194093,36 L34.4194093,48.2 C34.4194093,48.7 34.1194093,49.1 33.7194093,49.2 C33.3194093,49.4 32.8194093,49.2 32.5194093,48.9 L25.0194093,39.3 L17.5194093,48.9 C17.3194093,49.1 17.0194093,49.3 16.7194093,49.3 Z M17.2194093,33.6 C17.4194093,33.6 17.7194093,33.7 17.9194093,33.8 C18.2194093,34 18.3194093,34.3 18.3194093,34.7 L17.9194093,44.9 L24.2194093,36.8 C24.6194093,36.3 25.5194093,36.3 25.9194093,36.8 L32.2194093,44.9 L31.8194093,34.7 C31.8194093,34.4 31.9194093,34.1 32.2194093,33.8 C32.5194093,33.6 32.8194093,33.5 33.1194093,33.6 L43.1194093,35.7 L36.2194093,28.1 C36.0194093,27.9 35.9194093,27.5 35.9194093,27.2 C36.0194093,26.9 36.2194093,26.6 36.5194093,26.4 L45.5194093,21.6 L35.4194093,20.2 C35.1194093,20.2 34.8194093,20 34.6194093,19.7 C34.4194093,19.4 34.4194093,19.1 34.5194093,18.8 L38.4194093,9.3 L29.7194093,14.7 C29.4194093,14.9 29.1194093,14.9 28.8194093,14.8 C28.5194093,14.7 28.3194093,14.4 28.1194093,14.1 L25.0194093,4.5 L21.9194093,14.2 C21.8194093,14.5 21.6194093,14.8 21.2194093,14.9 C20.9194093,15 20.5194093,15 20.3194093,14.8 L11.6194093,9.4 L15.5194093,18.9 C15.6194093,19.2 15.6194093,19.6 15.4194093,19.8 C15.2194093,20.1 14.9194093,20.3 14.6194093,20.3 L4.51937928,21.8 L13.5194093,26.6 C13.8194093,26.8 14.0194093,27 14.1194093,27.4 C14.2194093,27.7 14.1194093,28.1 13.8194093,28.3 L7.01937928,35.8 L17.0194093,33.7 C17.0194093,33.6 17.1194093,33.6 17.2194093,33.6 Z" id="Shape"></path>
                </g>
            </g>
        </g>
    </g>
</svg>