<svg width="143" height="143" viewBox="0 0 143 143" fill="none" xmlns="http://www.w3.org/2000/svg">
<path d="M92.1 142C89.7 142 84.5 140 83.2 139.5C83.1 139.5 83.1 139.5 83 139.5C78.6 139.5 53.1 122.5 52 118.8L44.7 94.6C44 92.4 47.4 69.3 59.2 60.1C59.3 60 59.4 60 59.5 59.9L60.5 59.6L60 58C59.3 55.7 59.5 53.3 60.7 51.2C61 50.7 61.2 50.3 61.6 49.9C59.4 49.2 57.6 47.7 56.5 45.7C55.3 47.1 53.2 49.2 50.9 49.9L49.9 50.2L50.2 51.2C51.6 55.9 49 60.9 44.3 62.3L39.2 63.8C38.4 64.1 37.5 64.2 36.6 64.2C33.9 64.2 31.4 63 29.7 60.9C29.2 61.2 28.6 61.4 28.1 61.6L23.6 63C22.8 63.3 21.9 63.4 21 63.4C19.5 63.4 18.1 63 16.8 62.3C14.7 61.2 13.2 59.3 12.5 57L11.1 52.5C10.9 51.9 10.8 51.4 10.8 50.8C7.20005 50.5 4.20005 48 3.20005 44.5L1.50005 38.8C0.800047 36.5 1.00005 34.1 2.20005 32C2.70005 31 3.50005 30.1 4.40005 29.3C4.00005 29 3.80005 28.4 3.60005 27.9L2.20005 23.4C0.800047 18.7 3.40005 13.7 8.10005 12.3L12.6 10.9C13.2 10.7 13.7 10.6 14.3 10.6C14.7 7.1 17.2 4 20.6 3L25.7 1.5C26.6 1.2 27.4 1 28.3 1C29.8 1 31.2 1.4 32.5 2.1C34.6 3.2 36.1 5.1 36.8 7.4L39.7 16.9C40.2 18.6 40.2 20.4 39.7 22.1C40.3 22.6 40.9 23.2 41.4 23.9C41.9 23.7 42.3 23.5 42.8 23.3L57.5 18.9C58.3 18.6 59.2 18.5 60.1 18.5C62.3 18.5 64.5 19.3 66.1 20.8C67.9 20.9 71.5 22 74.3 24.4C77.1001 26.9 79.8 31.1 81 33C81 33.1 81.1 33.1 81.1 33.2C84.8 33.4 88 35.9 89.1 39.5L89.2 39.9L90.2 39.6C91 39.3 91.9 39.2 92.8 39.2C94.3 39.2 95.7 39.6 97 40.3C99.1 41.4 100.6 43.3 101.3 45.6L101.8 47.3L102.8 47C103.1 46.9 103.5 46.9 103.9 46.9C106.4 46.9 110.6 48.7 112.9 49.8C113.1 49.9 117.8 52.2 119.2 53.5C121.2 54.5 126.4 58.9 126.7 59.1C129.9 61.8 133.8 65.5 134.4 67.6L141.7 91.8C142.2 93.5 137.6 104.9 135.6 109.7C130.2 122.7 128.2 125.5 127.4 126.2C126.5 127.5 122.3 133.4 119 134.4C107.1 137.8 92.9 142 92.1 142Z" fill="#EBEBEB"/>
<path d="M28.3 2.1C29.6 2.1 30.9 2.4 32 3C33.8 4 35.2 5.7 35.8 7.7L38.7 17.2C39.2 18.9 39.1 20.8 38.4 22.5C39.4 23.2 40.3 24.2 40.9 25.3C41.5 24.9 42.2 24.6 43 24.3L57.7 19.9C58.5 19.7 59.2 19.6 60 19.6C62.1 19.6 64.1 20.5 65.6 21.9C65.7 21.9 65.8 21.9 65.8 21.9C67.4 21.9 70.9 23 73.5 25.3C76.6 28 79.6 33.2 80.3 34.3H80.4C83.8 34.3 86.9 36.5 87.9 39.9L88.3 41.2L90.3 40.6C91 40.4 91.8 40.3 92.6 40.3C93.9 40.3 95.2 40.6 96.3 41.2C98.1 42.2 99.5 43.9 100.1 45.9L100.9 48.6L102.9 48C103.1 47.9 103.4 47.9 103.7 47.9C107.7 47.9 117.7 53.2 118.3 54.3C119.3 54.4 132.1 64.5 133.1 67.8L140.4 92C141 94 128.3 124.8 126.3 125.4C126.3 125.4 121.6 132.4 118.3 133.4C118.3 133.4 92.6 141.1 91.8 141.1C89.3 141.1 83 138.6 83 138.6C82.9 138.6 82.8 138.6 82.7 138.6C78.5 138.6 53.6 121.6 52.7 118.7L45.4 94.5C44.8 92.5 48.1 70.1 59.5 61.1L61.5 60.5L61 57.7C60.4 55.7 60.6 53.5 61.6 51.7C62.1 50.7 62.8 49.9 63.6 49.3C60.5 49 57.7 46.9 56.7 43.7C56.7 43.7 53.8 48 50.5 49L48.5 49.6L49.1 51.6C50.4 55.8 48 60.2 43.8 61.4L38.7 62.9C37.9 63.1 37.2 63.2 36.4 63.2C33.7 63.2 31.2 61.8 29.8 59.6C29.1 60.1 28.4 60.4 27.6 60.7L23.1 62.1C22.4 62.3 21.6 62.4 20.8 62.4C19.5 62.4 18.2 62.1 17.1 61.5C15.3 60.5 13.9 58.8 13.3 56.8L11.9 52.3C11.7 51.5 11.5 50.7 11.6 49.9H11.5C8.10003 49.9 5.00003 47.7 4.00003 44.3L2.30003 38.6C1.70003 36.6 1.90003 34.4 2.90003 32.6C3.50003 31.4 4.50003 30.4 5.60003 29.7C5.10003 29 4.80003 28.3 4.50003 27.5L3.10003 23C1.80003 18.8 4.20003 14.4 8.40003 13.2L12.9 11.8C13.6 11.6 14.4 11.5 15.2 11.5H15.3C15.3 8.1 17.4 4.9 20.9 3.9L26 2.4C26.8 2.2 27.5 2.1 28.3 2.1ZM28.3 0C27.3 0 26.3 0.1 25.4 0.4L20.3 2C16.7 3.1 14.1 6.1 13.4 9.7C13 9.8 12.6 9.9 12.3 10L7.80003 11.4C2.60003 13 -0.39997 18.6 1.20003 23.8L2.60003 28.3C2.70003 28.7 2.80003 29 3.00003 29.4C2.30003 30.1 1.60003 30.9 1.20003 31.8C-0.0999701 34.1 -0.29997 36.8 0.50003 39.4L2.20003 45C3.30003 48.6 6.30003 51.2 9.90003 51.9C10 52.3 10.1 52.6 10.2 53L11.6 57.5C12.4 60 14.1 62.1 16.4 63.4C17.8 64.2 19.5 64.6 21.1 64.6C22.1 64.6 23.1 64.5 24 64.2L28.5 62.8C28.9 62.7 29.2 62.6 29.6 62.4C31.5 64.3 34 65.4 36.7 65.4C37.7 65.4 38.6 65.3 39.6 65L44.7 63.5C49.9 61.9 52.9 56.3 51.3 51.1C53.3 50.5 55.2 49 56.5 47.6C57.5 48.9 58.7 49.9 60.1 50.6C60 50.7 60 50.8 59.9 51C58.7 53.3 58.4 56 59.2 58.6L59.4 59.3C59.2 59.4 58.9 59.5 58.7 59.7C46.8 69 43 92.2 43.9 95.3L51.2 119.5C51.4 120.3 52.1 121.5 56.4 124.9C58.9 126.9 62.3 129.3 65.8 131.7C70.9 135.1 80 140.9 83.2 140.9C85 141.6 89.8 143.4 92.3 143.4C92.7 143.4 93.4 143.4 119.4 135.6C123 134.5 127.1 128.9 128.3 127.1C129.4 126.1 131.5 122.7 136.7 110.3C143.5 94 143 92.4 142.8 91.7L135.5 67.5C135.3 66.8 134.7 64.7 127.5 58.6C125.8 57.2 124.1 55.8 122.6 54.6C121.2 53.6 120.4 53.1 119.9 52.8C118.4 51.5 115.1 49.8 113.6 49.1C110.7 47.7 106.8 46.1 104.2 46.1C103.7 46.1 103.2 46.2 102.8 46.3L102.6 45.6C101.8 43.1 100.1 41 97.8 39.7C96.4 38.9 94.7 38.5 93.1 38.5C92.1 38.5 91.1 38.6 90.2 38.9H90.1C88.8 35.4 85.6 32.9 81.9 32.5C80.7 30.5 78.1 26.5 75.2 24C72.5 21.7 69 20.3 66.7 20.1C64.9 18.6 62.6 17.8 60.3 17.8C59.3 17.8 58.4 17.9 57.4 18.2L42.7 22.7C42.4 22.8 42.2 22.9 41.9 23C41.6 22.7 41.4 22.4 41.1 22.1C41.5 20.4 41.4 18.6 40.9 16.9L37.8 7C37 4.5 35.3 2.4 33 1.2C31.6 0.4 29.9 0 28.3 0Z" fill="#000CA0"/>
<path d="M24.3096 48.802L19.8126 50.1678L21.1784 54.6648L25.6754 53.299L24.3096 48.802Z" fill="#000CA0"/>
<path d="M27.6002 41.5534L22.5291 43.0936L24.2727 48.8344L29.3438 47.2942L27.6002 41.5534Z" fill="#000CA0"/>
<path d="M15.4042 19.5059L10.9073 20.8717L12.2731 25.3687L16.7701 24.0028L15.4042 19.5059Z" fill="#000CA0"/>
<path d="M21.7983 22.4383L16.7273 23.9785L18.2675 29.0496L23.3385 27.5094L21.7983 22.4383Z" fill="#000CA0"/>
<path d="M14.8 35L19.6 33.6L21.3 39.3L16.6 40.8L11.8 42.2L10.1 36.5L14.8 35Z" fill="#000CA0"/>
<path d="M40.2001 48.8L41.8 54L36.7001 55.5L35.1 50.3L33.8 45.9L38.9001 44.4L40.2001 48.8Z" fill="#000CA0"/>
<path d="M34.2212 29.1615L29.1501 30.7017L30.8937 36.4425L35.9648 34.9023L34.2212 29.1615Z" fill="#000CA0"/>
<path d="M29.9 15L31.3 19.6L26.2 21.1L24.9 16.5L23.4 11.6L28.4 10L29.9 15Z" fill="#000CA0"/>
<path d="M40.4191 33.5121L35.9221 34.8779L37.0845 38.7051L41.5815 37.3393L40.4191 33.5121Z" fill="#000CA0"/>
<path d="M46.6979 35.7494L41.6269 37.2896L43.3705 43.0304L48.4415 41.4902L46.6979 35.7494Z" fill="#000CA0"/>
<path d="M50.6001 30.4L55.3001 29L60.2001 27.5L61.3001 31.3L56.4001 32.8L51.8001 34.3L46.7001 35.8L45.5001 32L50.6001 30.4Z" fill="#000CA0"/>
<path d="M68.1 35.2001L69.5 40L64.4001 41.5L63 36.8L61.3 31.3L66.4001 29.8L68.1 35.2001Z" fill="#000CA0"/>
<path d="M74.0269 38.6184L69.5299 39.9843L71.0701 45.0553L75.5671 43.6895L74.0269 38.6184Z" fill="#000CA0"/>
<path d="M120.8 71.5999L117.9 62.0999L113.4 63.5L111.9 58.4L106.8 59.9L105.4 55.4L96.0001 58.4L92.9001 48.2L83.4001 51.0999L80.7001 42.2L75.6001 43.7999L78.3001 52.7L68.8001 55.5999L71.9001 65.8L62.4001 68.6999L63.8001 73.1999L58.7001 74.8L60.2001 79.9L55.1001 81.4L58.0001 90.9L53.5001 92.3L60.8001 116.5L65.3001 115.1L68.2001 124.6L73.3001 123.1L74.9001 128.2L80.0001 126.6L81.4001 131.1L90.9001 128.2L92.4001 133.3L116.6 126L115.1 120.9L124.6 118L123.2 113.5L128.3 112L126.7 106.9L131.2 105.5L128.3 96L133.4 94.4L126.1 70.1999L120.8 71.5999ZM84.1001 87.6999L78.9001 89.3L80.5001 94.4L71.0001 97.3L69.4001 92.1999L64.9001 93.5999L62.0001 84L66.5001 82.5999L65.1001 78.0999L74.6001 75.1999L76.0001 79.6999L81.1001 78.1999L84.1001 87.6999Z" fill="#000CA0"/>
</svg>
