<svg xmlns="http://www.w3.org/2000/svg" viewBox="0 0 185 185"><path d="M168,25.84l15,137.51a2,2,0,0,1-1.78,2.21L21.71,183a2,2,0,0,1-2.21-1.78L4.42,43.75l.67-.09,23.34-2.55,24-2.64,23.34-2.54Z" style="fill:#f8ea46"/><path d="M165.56,3.79,168,25.84,75.84,35.93l-2.64-24L163.35,2A2,2,0,0,1,165.56,3.79Z" style="fill:#2fefcb"/><path d="M73.21,11.91,49.86,14.47l2.63,24,23.35-2.55Z" style="fill:#2fefcb"/><path d="M49.86,14.46l-24,2.63,2.62,24,24-2.63Z" style="fill:#2fefcb"/><path d="M25.84,17.1l2.64,24L5.09,43.66l-.67.09L2,21.71A2,2,0,0,1,3.79,19.5Z" style="fill:#2fefcb"/><path d="M168,25.84l15,137.51a2,2,0,0,1-1.78,2.21L21.71,183a2,2,0,0,1-2.21-1.78L4.42,43.75,2,21.71A2,2,0,0,1,3.79,19.5l22.05-2.4,24-2.64L73.2,11.91,163.35,2a2,2,0,0,1,2.21,1.77Z" style="fill:none;stroke:#000c9e;stroke-miterlimit:10;stroke-width:3px"/><path d="M5.09,43.66l23.39-2.55,24-2.64,23.34-2.54L168,25.84l.67-.1" style="fill:none;stroke:#000c9e;stroke-miterlimit:10;stroke-width:3px"/><path d="M25.84,17.1l2.64,24" style="fill:none;stroke:#000c9e;stroke-linecap:round;stroke-miterlimit:10;stroke-width:3px"/><path d="M49.85,14.46l2.65,24" style="fill:none;stroke:#000c9e;stroke-linecap:round;stroke-miterlimit:10;stroke-width:3px"/><path d="M73.2,11.91l2.64,24" style="fill:none;stroke:#000c9e;stroke-linecap:round;stroke-miterlimit:10;stroke-width:3px"/><path d="M9.51,25.36,20.7,34.82" style="fill:none;stroke:#000c9e;stroke-miterlimit:10;stroke-width:3px"/><path d="M10.66,35.88l8.89-11.63" style="fill:none;stroke:#000c9e;stroke-miterlimit:10;stroke-width:3px"/><path d="M34.1,28l10-1.1" style="fill:none;stroke:#000c9e;stroke-miterlimit:10;stroke-width:3px"/><path d="M67.74,20.27l-10,1.1.88,8,10-1.09Z" style="fill:#2fefcb;stroke:#000c9e;stroke-miterlimit:10;stroke-width:3px"/></svg>