<?xml version="1.0" encoding="UTF-8"?>
<svg width="237px" height="274px" viewBox="0 0 237 274" version="1.1" xmlns="http://www.w3.org/2000/svg" xmlns:xlink="http://www.w3.org/1999/xlink">
    <g id="Page-1" stroke="none" stroke-width="1" fill="none" fill-rule="evenodd">
        <g id="Artboard" transform="translate(-56.000000, -104.000000)">
            <g id="Group-38" transform="translate(59.000000, 106.000000)">
                <path d="M228.083,171.146791 C227.774,170.755791 227.457,170.405791 227.1,170.048791 L227.025,169.993791 C226.917,169.889791 226.81,169.786791 226.702,169.683791 L218.2,161.875791 L218.058,160.294791 C217.852,157.651791 216.473,155.220791 214.309,153.661791 L212.964,152.709791 L212.328,152.261791 L211.861,152.052791 C211.63,151.927791 211.4,151.803791 211.163,151.719791 C211.007,151.649791 210.851,151.580791 210.729,151.558791 C210.451,151.467791 210.132,151.369791 209.853,151.278791 L202.642,149.501791 C202.438,149.465791 202.234,149.429791 202.071,149.401791 C200.848,149.185791 199.623,149.221791 198.443,149.476791 L193.507,146.713791 L202.627,94.9937906 L202.842,93.7707906 C203.077,92.6767906 203.312,91.5827906 203.499,90.5217906 C203.694,89.4207906 203.847,88.3117906 204.008,87.1627906 L204.072,86.7957906 C204.132,86.2177906 204.192,85.6397906 204.252,85.0607906 C205.252,79.3917906 205.273,73.5493906 204.299,67.8682906 C203.951,65.7881906 203.536,63.6121906 203.107,61.5177906 C202.977,60.8220906 202.8,60.1598906 202.67,59.4641906 C202.598,59.1570906 202.526,58.8499906 202.461,58.5020906 C202.435,58.4133906 202.409,58.3245906 202.389,58.1950906 C202.318,57.8879906 202.246,57.5808906 202.133,57.2665906 C202.14,57.2257906 202.106,57.1777906 202.114,57.1370906 C199.494,47.6750906 195.081,38.6117906 188.977,30.5541906 C177.213,15.0217906 160.14,4.56729063 140.897,1.17429063 C127.973,-1.10460937 114.589,-0.0580093683 102.229,4.23929063 C93.761,7.20419063 85.838,11.6108906 78.869,17.2793906 C75.986,14.0794906 73.13,12.3981906 72.595,12.0935906 C71.715,11.6019906 70.725,11.2590906 69.7461,11.0865906 C67.3815,10.6696906 64.9809,11.1715906 63.0145,12.5491906 C60.1368,14.5651906 58.6621,17.9219906 59.1875,21.3791906 C59.8665,25.8727906 59.7804,29.2220906 59.0179,31.4006906 C58.452,32.9411906 57.5503,34.0017906 55.8166,35.9671906 C54.09,37.8916906 52.0469,40.1809906 50.4307,43.3866906 L44.8453,42.4018906 L41.5838,41.8267906 L15.4506,37.2187906 L7.2967,35.7809906 L5.8583,43.9386906 L5.5922,45.4478906 L2.0681,65.4340906 L1.8236,66.8208906 L0.3851,74.9785906 L8.539,76.4162906 L28.4345,79.9247906 C28.7272,82.7937906 29.4589,86.7497906 31.1523,91.2117906 C31.3514,91.7517906 31.584,92.3397906 31.8574,92.9347906 C28.9461,93.4727906 26.8718,94.7467906 25.7471,95.6427906 L15.0655,93.7587906 L6.9116,92.3207906 L5.4732,100.478791 L1.4384,123.360791 L-1.42108547e-14,131.518791 L8.1539,132.956791 L37.5486,138.139791 L38.4863,138.304791 L32.0854,174.606791 L31.8696,175.829791 C31.6346,176.923791 31.3997,178.018791 31.2127,179.078791 C31.0185,180.179791 30.8651,181.288791 30.7045,182.437791 L30.6398,182.804791 C30.5798,183.382791 30.5199,183.961791 30.46,184.539791 L30.4528,184.580791 C29.3452,190.861791 29.3456,197.296791 30.43,203.543791 C31.4375,209.272791 33.0735,216.206791 35.6518,221.370791 C38.1655,227.617791 41.5329,233.552791 45.6941,239.039791 C57.4508,254.612791 74.531,265.025791 93.774,268.418791 C104.008,270.223791 114.267,269.971791 124.341,267.668791 C132.752,265.744791 140.692,262.434791 148.011,257.879791 L150.536,258.576791 L150.855,258.675791 L151.467,258.783791 L152.486,258.962791 L153.078,258.941791 C153.33,258.943791 153.541,258.938791 153.8,258.900791 C153.97,258.888791 154.141,258.876791 154.311,258.864791 C155.047,258.741791 155.791,258.578791 156.474,258.278791 C156.611,258.218791 156.788,258.165791 156.925,258.105791 C157.616,257.764791 158.273,257.375791 158.863,256.890791 L158.91,256.857791 L158.958,256.823791 L159.301,256.547791 L159.46,256.365791 C159.611,256.223791 159.714,256.115791 159.824,255.966791 L160.181,255.609791 L160.692,254.858791 L160.699,254.817791 L160.707,254.776791 L181.938,222.099791 C186.986,222.316791 190.763,220.207791 192.95,217.816791 L193.149,217.641791 L193.487,217.154791 L193.866,216.674791 L193.921,216.600791 L200.298,208.093791 L203.967,208.740791 L204.578,208.848791 L205.204,208.874791 L212.44,208.846791 C214.121,208.848791 215.759,208.380791 217.176,207.494791 C217.416,207.326791 217.689,207.206791 217.929,207.038791 C222.063,204.571791 226.394,201.466791 230.01,192.640791 C233.595,183.515791 231.208,175.356791 228.083,171.146791 Z M68.3077,19.2442906 C68.3077,19.2442906 68.3484,19.2514906 68.3077,19.2442906 C68.2669,19.2370906 68.1854,19.2226906 68.1446,19.2154906 C68.1854,19.2226906 68.2669,19.2370906 68.3077,19.2442906 Z M200.525,157.455791 C200.566,157.462791 200.566,157.462791 200.606,157.470791 L200.647,157.477791 C200.606,157.470791 200.566,157.462791 200.525,157.455791 Z" id="Shape" stroke="#000CA0" stroke-width="4" fill="#EBEBEB" fill-rule="nonzero"></path>
                <path d="M175.551,202.300791 L194.761,93.3547906 L194.679,93.3407906 C195.019,91.8867906 195.367,90.3917906 195.633,88.8827906 C195.935,87.1697906 196.156,85.4417906 196.328,83.7477906 L196.379,83.4627906 L196.338,83.4557906 C199.763,48.0589906 175.379,15.4132906 139.787,9.13759063 C104.195,2.86179063 70.1162,25.1987906 61.2283,59.6318906 L61.0652,59.6031906 L60.4682,62.9885906 C60.3532,63.6411906 60.1901,64.3273906 60.0679,65.0207906 C59.96,65.6326906 59.8521,66.2444906 59.7778,66.9042906 L40.5677,175.849791 L40.6493,175.863791 C40.3088,177.317791 39.9612,178.812791 39.6951,180.321791 C39.393,182.034791 39.1725,183.762791 38.9999,185.456791 L38.9496,185.741791 L38.9903,185.749791 C35.5655,221.145791 59.9497,253.791791 95.541,260.066791 C131.133,266.342791 165.212,244.005791 174.1,209.572791 L174.263,209.601791 L174.86,206.215791 C174.975,205.563791 175.138,204.877791 175.26,204.183791 C175.376,203.531791 175.483,202.919791 175.551,202.300791 Z" id="Path" fill="#0098FF" fill-rule="nonzero"></path>
                <polygon id="Path" fill="#EBEBEB" fill-rule="nonzero" points="101.199 100.777791 122.141 89.7927906 136.401 90.0727906 147.75 104.537791 154.086 125.492791 157.869 129.086791 163.671 136.927791 171.541 143.581791 198.579 158.869791 200.778 157.412791 208.706 159.303791 209.704 165.549791 213.09 168.989791 218.664 173.734791 221.424 176.144791 222.907 180.800791 222.747 185.168791 220.96 190.130791 218.981 193.509791 216.298 196.305791 212.76 198.658791 207.3 198.162791 198.88 197.649791 195.567 198.701791 186.304 210.937791 184.43 211.739791 180.819 211.567791 178.308 210.666791 153.908 248.594791 145.509 245.992791 142.731 241.234791 141.359 237.896791 142.116 233.507791 148.316 226.513791 156.233 212.995791 157.354 206.492791 162.736 198.350791 162.173 196.954791 158.829 191.302791 159.418 187.888791 147.12 185.315791 131.906 185.412791 109.444 198.098791 99.992 198.410791 90.417 195.267791 79.012 188.496791 71.497 162.100791"></polygon>
                <path d="M113.43,161.267791 C110.043,163.440791 106.114,165.309791 101.411,166.749791 C101.411,166.749791 67.7653,172.431791 53.9048,146.040791 C39.5397,118.640791 46.5029,113.195791 31.2464,102.525791 C31.2464,102.525791 38.2694,95.7507906 54.9029,116.885791 C71.536,138.020791 76.866,130.488791 76.866,130.488791 C76.866,130.488791 84.602,122.036791 60.2322,109.353791 C35.8623,96.6707906 37.2572,75.5452906 37.2572,75.5452906 L38.5198,68.2239906 C38.5198,68.2239906 47.3828,97.7627906 60.9136,89.9047906 C74.444,82.0477906 55.7937,69.9035906 56.6735,54.4705906 C57.5052,39.0710906 71.665,43.3067906 68.0066,19.9990906 C68.0066,19.9990906 85.67,29.7496906 70.396,50.6686906 C70.396,50.6686906 62.6594,59.1205906 76.977,67.3643906 C91.294,75.6081906 77.481,93.2207906 93.61,88.4997906 C93.61,88.4997906 100.832,85.7397906 95.388,75.4859906 C89.944,65.2322906 71.732,61.1259906 86.094,37.8686906 C86.094,37.8686906 77.809,51.9648906 101.225,62.3024906 C124.642,72.6400906 91.784,101.545791 101.479,115.685791 C111.215,129.832791 116.346,118.284791 116.346,118.284791 C116.346,118.284791 119.268,111.672791 115.65,88.3727906 C115.65,88.3727906 134.543,100.097791 132.237,129.946791 L116.686,124.922791 L114.62,124.603791 L113.803,128.105791 C113.803,128.105791 108.751,127.390791 104.235,136.111791 C104.235,136.111791 101.484,140.993791 101.27,146.906791 L99.143,148.419791 L99.298,150.961791 L101.628,152.457791 C101.628,152.457791 102.64,155.693791 104.345,156.871791 C106.017,158.001791 113.43,161.267791 113.43,161.267791 Z" id="Path" stroke="#000CA0" stroke-width="2" fill="#2FF0CC" fill-rule="nonzero" stroke-linecap="round" stroke-linejoin="round"></path>
                <path d="M130.613,186.644791 C130.613,186.644791 139.376,183.620791 151.662,186.402791 C163.948,189.184791 168.008,190.648791 168.008,190.648791 C168.008,190.648791 172.892,192.718791 179.348,188.370791 L198.895,194.642791 L196.082,198.458791 C196.082,198.458791 207.227,199.031791 212.747,186.612791 C218.275,174.152791 209.911,165.531791 209.911,165.531791 L173.2,145.038791 C170.114,143.325791 167.309,141.202791 164.766,138.790791 C161.902,136.029791 157.497,130.194791 156.31,127.267791" id="Path" stroke="#000CA0" stroke-width="2" stroke-linejoin="round"></path>
                <path d="M114.81,144.434791 C116.405,139.531791 115.51,134.846791 112.81,133.969791 C110.11,133.092791 106.628,136.355791 105.033,141.258791 C103.438,146.161791 104.333,150.847791 107.033,151.723791 C109.733,152.600791 113.215,149.337791 114.81,144.434791 Z" id="Path" stroke="#000CA0" stroke-width="2" fill="#F9EB46" fill-rule="nonzero" stroke-linejoin="round"></path>
                <path d="M100.686,146.829791 C100.789,144.750791 101.217,142.518791 101.956,140.214791 C104.236,133.187791 108.941,128.174791 113.036,127.921791" id="Path" stroke="#000CA0" stroke-width="2" stroke-linejoin="round"></path>
                <path d="M114.849,151.871791 C111.999,156.176791 108.261,158.529791 105.143,157.523791 C102.544,156.691791 100.956,153.656791 100.629,149.671791" id="Path" stroke="#000CA0" stroke-width="2" stroke-linejoin="round"></path>
                <path d="M115.104,128.317791 C119.255,130.122791 120.577,137.608791 118.021,145.433791 C117.482,147.060791 116.832,148.585791 116.078,149.965791" id="Path" stroke="#000CA0" stroke-width="2" stroke-linejoin="round"></path>
                <line x1="149.084" y1="139.931791" x2="114.743" y2="128.157791" id="Path" stroke="#000CA0" stroke-width="2" stroke-linejoin="round"></line>
                <line x1="104.997" y1="157.539791" x2="135.674" y2="172.704791" id="Path" stroke="#000CA0" stroke-width="2" stroke-linejoin="round"></line>
                <polyline id="Path" stroke="#000CA0" stroke-width="2" stroke-linejoin="round" points="111.547 133.850791 114.229 124.537791 116.144 124.867791 113.732 134.352791"></polyline>
                <line x1="116.097" y1="124.860791" x2="149.843" y2="135.650791" id="Path" stroke="#000CA0" stroke-width="2" stroke-linejoin="round"></line>
                <polyline id="Path" stroke="#000CA0" stroke-width="2" stroke-linejoin="round" points="140.584 164.475791 116.64 153.486791 117.989 151.761791 141.669 162.328791"></polyline>
                <line x1="100.692" y1="149.621791" x2="104.333" y2="147.162791" id="Path" stroke="#000CA0" stroke-width="2" stroke-linejoin="round"></line>
                <polyline id="Path" stroke="#000CA0" stroke-width="2" stroke-linejoin="round" points="100.461 147.118791 98.625 148.391791 98.734 150.967791 100.708 149.635791"></polyline>
                <line x1="104.421" y1="144.319791" x2="100.47" y2="147.102791" id="Path" stroke="#000CA0" stroke-width="2" stroke-linejoin="round"></line>
                <line x1="98.718" y1="150.973791" x2="101.178" y2="152.614791" id="Path" stroke="#000CA0" stroke-width="2" stroke-linejoin="round"></line>
                <path d="M158.922,188.254791 L158.539,190.483791 C158.539,190.483791 160.622,196.277791 170.478,194.872791 L179.13,188.453791" id="Path" stroke="#000CA0" stroke-width="2" stroke-linejoin="round"></path>
                <path d="M195.702,198.575791 L186.407,210.902791 C186.407,210.902791 172.001,198.725791 170.341,194.882791" id="Path" stroke="#000CA0" stroke-width="2" stroke-linejoin="round"></path>
                <path d="M162.416,198.333791 C162.416,198.333791 160.035,204.248791 156.812,206.913791 L161.473,208.229791 C164.482,205.820791 167.161,199.161791 167.161,199.161791 L162.416,198.333791 Z M162.416,198.333791 C157.983,192.739791 158.452,190.516791 158.452,190.516791" id="Shape" stroke="#000CA0" stroke-width="2" stroke-linejoin="round"></path>
                <polyline id="Path" stroke="#000CA0" stroke-width="2" stroke-linejoin="round" points="156.747 206.940791 155.626 213.444791 162.814 215.959791 161.389 208.256791"></polyline>
                <path d="M141.757,233.609791 L146.111,234.372791 C146.111,234.372791 144.537,244.980791 153.117,249.205791 L144.954,246.979791 C144.961,246.938791 138.332,238.995791 141.757,233.609791 Z" id="Path" stroke="#000CA0" stroke-width="2" stroke-linejoin="round"></path>
                <path d="M141.85,233.577791 C141.85,233.577791 150.177,225.840791 155.633,213.495791" id="Path" stroke="#000CA0" stroke-width="2" stroke-linejoin="round"></path>
                <path d="M162.759,216.002791 C162.759,216.002791 153.695,231.604791 146.135,234.307791" id="Path" stroke="#000CA0" stroke-width="2" stroke-linejoin="round"></path>
                <path d="M186.394,210.933791 C186.394,210.933791 184.109,213.916791 177.891,211.072791 L167.032,199.143791" id="Path" stroke="#000CA0" stroke-width="2" stroke-linejoin="round"></path>
                <line x1="153.03" y1="249.111791" x2="177.845" y2="211.145791" id="Path" stroke="#000CA0" stroke-width="2" stroke-linejoin="round"></line>
                <path d="M100.924,103.127791 C101.076,102.987791 101.227,102.847791 101.372,102.747791 C106.109,98.6637906 111.128,95.6737906 116.133,94.0177906 L115.389,88.8737906 C111.327,90.2387906 107.32,92.2807906 103.423,94.9277906 L100.924,103.127791 Z" id="Path" fill="#000CA0" fill-rule="nonzero"></path>
                <path d="M137.74,89.3667906 C130.987,86.4537906 123.502,86.3357906 115.997,88.5967906 L120.116,92.9647906 C124.641,92.1807906 129.097,92.5537906 133.202,94.2447906 C150.787,101.422791 155.792,129.687791 144.427,157.426791 C133.062,185.166791 109.59,201.852791 92.04,194.721791 C81.554,190.434791 75.502,178.618791 74.81,163.867791 L68.8431,161.594791 C68.8731,179.739791 76.07,194.852791 89.26,200.539791 C109.949,209.522791 137.63,191.912791 151.036,161.192791 C164.352,130.498791 158.436,98.3097906 137.74,89.3667906 Z" id="Path" fill="#000CA0" fill-rule="nonzero"></path>
                <polygon id="Path" fill="#000CA0" fill-rule="nonzero" points="77.052 98.6407906 80.39 99.2377906 80.939 95.9997906 77.601 95.4027906"></polygon>
                <polygon id="Path" fill="#000CA0" fill-rule="nonzero" points="73.203 101.337791 76.5 101.926791 77.05 98.6887906 73.753 98.0997906"></polygon>
                <polygon id="Path" fill="#000CA0" fill-rule="nonzero" points="67.2273 96.9687906 66.6774 100.206791 69.9745 100.795791 70.524 97.5577906"></polygon>
                <polygon id="Path" fill="#000CA0" fill-rule="nonzero" points="67.2946 96.9687906 67.8445 93.7307906 64.5473 93.1417906 63.9974 96.3797906"></polygon>
                <polygon id="Path" fill="#000CA0" fill-rule="nonzero" points="69.3572 104.033791 72.654 104.622791 73.204 101.384791 69.9071 100.795791"></polygon>
                <path d="M85.342,90.1967906 C76.54,88.6247906 67.7795,87.0597906 58.9774,85.4877906 C57.6935,93.0437906 56.4095,100.599791 55.1255,108.155791 C64.9969,109.918791 74.909,111.689791 84.781,113.452791 C86.065,105.896791 87.349,98.3407906 88.633,90.7847906 L85.342,90.1967906 Z M83.694,99.8947906 C83.145,103.126791 82.596,106.359791 82.047,109.591791 C74.355,108.217791 66.6636,106.844791 58.9722,105.470791 C59.7068,101.146791 60.4415,96.8237906 61.1693,92.5407906 L64.4598,93.1277906 L65.0091,89.8957906 C70.521,90.8797906 75.991,91.8567906 81.503,92.8417906 L80.953,96.0737906 L84.244,96.6617906 L83.694,99.8947906 Z" id="Shape" fill="#000CA0" fill-rule="nonzero"></path>
                <polygon id="Path" fill="#000CA0" fill-rule="nonzero" points="31.7753 114.967791 35.0724 115.556791 35.6223 112.318791 32.3252 111.729791"></polygon>
                <polygon id="Path" fill="#000CA0" fill-rule="nonzero" points="27.9209 117.704791 31.2185 118.293791 31.7753 115.014791 28.4777 114.425791"></polygon>
                <polygon id="Path" fill="#000CA0" fill-rule="nonzero" points="21.9096 113.287791 21.3528 116.566791 24.6913 117.162791 25.2481 113.883791"></polygon>
                <polygon id="Path" fill="#000CA0" fill-rule="nonzero" points="21.9784 113.287791 22.5282 110.049791 19.2312 109.460791 18.6813 112.698791"></polygon>
                <polygon id="Path" fill="#000CA0" fill-rule="nonzero" points="24.074 120.400791 27.3712 120.989791 27.921 117.751791 24.6239 117.162791"></polygon>
                <path d="M40.0262,106.515791 C31.2242,104.943791 22.4633,103.378791 13.6612,101.806791 C12.3773,109.362791 11.0933,116.918791 9.8093,124.474791 C19.6808,126.237791 29.5934,128.008791 39.4648,129.771791 C40.7488,122.215791 42.0327,114.659791 43.3167,107.103791 L40.0262,106.515791 Z M38.3783,116.213791 C37.829,119.445791 37.2798,122.678791 36.7305,125.910791 C29.039,124.537791 21.3475,123.163791 13.656,121.789791 C14.3907,117.466791 15.1253,113.142791 15.8531,108.859791 L19.1436,109.447791 L19.6929,106.214791 C25.2044,107.199791 30.6749,108.176791 36.1864,109.160791 L35.6371,112.393791 L38.9276,112.980791 L38.3783,116.213791 Z" id="Shape" fill="#000CA0" fill-rule="nonzero"></path>
                <polygon id="Path" fill="#000CA0" fill-rule="nonzero" points="32.2826 58.5577906 35.5802 59.1466906 36.137 55.8678906 32.8394 55.2789906"></polygon>
                <polygon id="Path" fill="#000CA0" fill-rule="nonzero" points="28.4358 61.2543906 31.7329 61.8431906 32.2827 58.6051906 28.9857 58.0162906"></polygon>
                <polygon id="Path" fill="#000CA0" fill-rule="nonzero" points="22.4587 56.8849906 21.9088 60.1231906 25.206 60.7120906 25.7559 57.4737906"></polygon>
                <polygon id="Path" fill="#000CA0" fill-rule="nonzero" points="22.5269 56.8846906 23.0836 53.6063906 19.7454 53.0101906 19.1886 56.2884906"></polygon>
                <polygon id="Path" fill="#000CA0" fill-rule="nonzero" points="24.5886 63.9506906 27.8858 64.5394906 28.4357 61.3013906 25.1385 60.7125906"></polygon>
                <path d="M40.5407,50.0656906 C31.7387,48.4935906 22.9778,46.9287906 14.1757,45.3565906 C12.8918,52.9125906 11.6078,60.4686906 10.3238,68.0246906 C20.1952,69.7877906 30.1078,71.5582906 39.9792,73.3214906 C41.2632,65.7654906 42.5472,58.2094906 43.8312,50.6534906 L40.5407,50.0656906 Z M38.886,59.8036906 C38.3367,63.0361906 37.7874,66.2686906 37.2381,69.5011906 C29.5466,68.1274906 21.8551,66.7536906 14.1636,65.3798906 C14.8982,61.0563906 15.6329,56.7328906 16.3608,52.4497906 L19.6512,53.0374906 L20.2005,49.8049906 C25.7121,50.7893906 31.1825,51.7664906 36.6941,52.7508906 L36.1448,55.9834906 L39.4353,56.5711906 L38.886,59.8036906 Z" id="Shape" fill="#000CA0" fill-rule="nonzero"></path>
                <polyline id="Path" stroke="#000CA0" stroke-width="2" stroke-linejoin="round" points="116.174 149.553791 118.073 151.767791 116.72 153.495791 112.444 148.899791"></polyline>
                <line x1="113.672" y1="146.968791" x2="118.455" y2="151.822791" id="Path" stroke="#000CA0" stroke-width="2" stroke-linejoin="round"></line>
            </g>
        </g>
    </g>
</svg>