<svg width="127" height="155" viewBox="0 0 127 155" fill="none" xmlns="http://www.w3.org/2000/svg">
<path d="M100.452 96.3863C99.8926 88.9159 98.6219 86.0099 97.5384 84.6032C96.6879 83.3681 95.2049 82.599 94.7669 82.1691C95.5685 81.1825 97.3817 80.0448 98.009 79.0016C99.863 75.959 100.703 72.7789 100.587 69.5765C100.441 66.1723 99.0496 62.7476 96.5598 59.4459C92.4587 53.9907 92.169 50.7318 92.4173 49.3738C92.6348 47.814 93.6413 47.0857 93.8128 46.8537C95.1369 46.0367 96.1382 44.7313 96.6451 43.1695C97.7716 39.6989 95.9144 35.9312 92.5744 34.6552C95.1321 26.1825 91.0463 19.1978 90.5186 18.4511C89.6374 17.0142 88.3259 16.013 86.8455 15.5325C85.9747 15.2498 85.0475 15.1407 84.064 15.2051C81.4901 15.4245 79.2774 17.1999 78.3146 19.5727C77.0421 22.9 75.6747 25.3333 74.238 26.4974C73.2623 27.4275 72.1943 27.7521 70.2325 28.458C66.7417 29.7226 61.6605 31.1422 57.8988 37.6896C54.4214 43.6579 57.0609 57.1743 53.7287 56.764C48.7446 56.1052 51.893 39.2886 48.9859 37.8655C48.7246 37.7807 48.4045 37.5808 48.1432 37.496C45.4436 36.6198 42.4702 37.4768 40.6955 39.682C40.6955 39.682 37.1206 44.4678 36.3217 45.743C35.154 47.8575 33.5509 49.8307 32.5144 56.879C32.4325 57.4279 32.3224 58.0635 32.2995 58.7274C32.1253 58.6708 31.9511 58.6143 31.777 58.5578C29.0774 57.6815 26.9106 58.1291 26.0732 58.3368C24.1959 58.7823 22.5005 60.1502 21.7067 62.0024C20.8259 63.8265 20.903 65.9614 21.7586 67.7736C24.4126 73.2386 24.0235 75.0304 22.6872 80.9265C21.6299 85.6664 20.1554 92.2848 19.8749 102.935C19.5457 114.625 24.531 125.066 34.4155 133.166C41.4722 139.005 48.7309 141.553 48.9922 141.638C49.0792 141.666 49.0792 141.666 49.1663 141.695L49.2534 141.723C60.2823 145.111 71.2645 143.305 80.986 136.486C87.8315 131.707 91.6881 126.054 92.1439 125.243C99.9696 113.589 100.975 103.078 100.452 96.3863Z" fill="#EBEBEB"/>
<path d="M48.941 142.389C48.8539 142.36 48.8539 142.36 48.7669 142.332C48.5056 142.247 41.1598 139.671 33.929 133.775C23.9855 125.561 18.8543 114.976 19.1808 102.998C19.5177 92.1737 20.964 85.642 22.0495 80.8154C23.3858 74.9193 23.6904 73.3878 21.1824 68.0661C20.2089 66.0238 20.1882 63.7153 21.1253 61.7178C22.0625 59.7202 23.8142 58.1789 26.0091 57.6446C26.8466 57.4369 29.0133 56.9893 31.8281 57.8071C31.8537 57.4318 31.9382 57.1715 31.9637 56.7962C32.862 50.4702 34.2884 48.1519 35.3997 46.2109C35.5713 45.9789 35.6558 45.7186 35.8273 45.4866C36.6545 44.1247 40.0859 39.4841 40.2294 39.3389C42.1756 36.9016 45.4666 35.9559 48.4275 36.9169C48.7758 37.03 49.037 37.1148 49.3572 37.3146C50.8402 38.0837 51.0403 41.0259 51.2278 45.7861C51.4127 50.2578 51.608 55.8838 53.8388 56.1284C53.9259 56.1566 54.0411 56.0982 54.0693 56.0114C54.8453 55.4001 54.9909 52.2825 55.0521 49.4251C55.2744 45.1815 55.4634 40.4476 57.2303 37.3767C60.9638 30.9161 65.9272 29.2664 69.5051 28.0301L69.9379 27.8829C71.8715 27.2637 72.7653 26.8825 73.7129 26.0392C75.0625 24.8469 76.3736 22.5871 77.5309 19.3183C78.491 16.6569 81.0213 14.7928 83.8258 14.4564C84.8374 14.3052 85.9387 14.4709 86.8967 14.7818C88.5513 15.3189 90.0087 16.4633 90.977 17.9285C91.6225 18.9053 95.7365 25.8033 93.4683 34.274C96.8979 35.8668 98.6117 39.7798 97.4289 43.4239C96.8938 45.0724 95.7491 46.5231 94.3098 47.3986C94.0793 47.5156 93.3622 48.2419 93.1703 49.4263C92.9501 50.6976 93.2092 53.7547 97.1924 58.9799C99.7411 62.3966 101.104 65.9081 101.281 69.5141C101.456 72.8315 100.56 76.1851 98.5905 79.2863C98.1628 80.0106 97.3869 80.6219 96.5827 81.3199C96.2959 81.6104 96.0372 81.8142 95.7786 82.018C96.4778 82.5327 97.3231 83.1907 97.9968 84.0807C98.9932 85.4591 100.379 88.3066 101 96.1806C101.554 103.074 100.52 113.672 92.6101 125.586C92.2106 126.223 88.2106 132.022 81.2217 136.946C71.2697 143.882 60.0851 145.718 48.8821 142.274L48.941 142.389ZM31.5798 59.1651C29.0544 58.3454 27.0029 58.7344 26.2807 58.8836C24.4905 59.3575 23.0256 60.6083 22.2882 62.2871C21.5507 63.9658 21.51 65.8707 22.3348 67.4811C25.1067 73.1762 24.6612 75.1415 23.2968 81.1244C22.2395 85.8642 20.7932 92.3959 20.4255 103.018C20.0657 114.506 25.0201 124.746 34.6716 132.674C41.6694 138.398 48.7539 140.889 49.1022 141.002L49.1893 141.031L49.2764 141.059C60.1311 144.391 70.9109 142.615 80.402 135.913C87.1604 131.106 90.9888 125.539 91.3883 124.902C99.0988 113.306 100.135 102.997 99.6117 96.3054C99.1552 90.5947 98.2532 86.8493 96.8751 84.8674C96.3474 84.1207 95.5021 83.4627 94.9489 83.0913C94.6287 82.8915 94.3956 82.7199 94.2778 82.4899C94.0728 82.2315 94.0113 81.8279 94.1829 81.5959C94.5261 81.1319 95.1586 80.6658 95.7041 80.1716C96.3648 79.6188 97.1408 79.0075 97.3969 78.5152C99.1945 75.6461 100.006 72.5528 99.8341 69.5239C99.6596 66.2064 98.4145 62.9251 95.9836 59.7384C91.6494 54.1116 91.416 50.6791 91.6335 49.1193C91.9074 47.386 92.9983 46.3974 93.3441 46.222C94.5529 45.4635 95.4108 44.3033 95.8614 42.9151C96.8753 39.7916 95.2818 36.3972 92.175 35.2928C91.8266 35.1797 91.6499 34.8346 91.7625 34.4876C94.1487 26.2469 90.1525 19.579 89.74 18.7738C88.9767 17.5669 87.7523 16.5941 86.446 16.1701C85.6623 15.9157 84.8222 15.8348 83.9258 15.9274C81.6413 16.1449 79.6002 17.6882 78.7808 19.9158C77.4519 23.4167 76.0845 25.85 74.5044 27.1593C73.4135 28.1479 72.2302 28.531 70.2684 29.2369L70.0379 29.3539C66.6624 30.56 62.0166 32.121 58.5392 38.0892C56.8568 40.8999 56.6396 45.7206 56.471 49.5021C56.3024 53.2836 56.1823 56.0259 54.9761 57.073C54.6022 57.3352 54.1693 57.4825 53.7058 57.4279C50.2865 56.9893 50.1194 51.2766 49.896 45.7375C49.783 42.8236 49.6314 38.8422 48.7888 38.4728C48.5275 38.388 48.2944 38.2164 48.0332 38.1316C45.5948 37.3402 42.939 38.1085 41.3359 40.0817C41.3359 40.0817 37.7891 44.7807 36.9902 46.0558C36.8186 46.2879 36.7341 46.5482 36.5625 46.7802C35.5075 48.5477 34.1094 50.7792 33.2956 56.8449C33.2137 57.3937 33.1036 58.0293 33.1088 58.6065C33.1396 58.8082 32.968 59.0403 32.7656 59.0705C32.6222 59.2158 32.3328 59.2177 32.1587 59.1612C31.9282 59.2782 31.754 59.2217 31.5798 59.1651Z" fill="#000CA0"/>
<path d="M51.2504 135.274C51.2504 135.274 26.078 126.528 26.7081 103.235C27.4456 79.0184 34.2659 77.8756 27.8974 64.875C27.8974 64.875 35.2888 62.8626 38.5719 83.5891C41.8551 104.316 48.3679 101.155 48.3679 101.155C48.3679 101.155 56.9091 98.2688 45.0847 80.4283C33.2603 62.5878 42.4252 48.5873 42.4252 48.5873L46.118 44.0316C46.118 44.0316 40.8599 67.6441 53.0998 67.3013C65.3397 66.9586 57.301 51.6896 63.8078 41.4298C70.3147 31.1701 78.3193 39.4268 84.8203 22.068C84.8203 22.068 93.1892 35.4302 74.6266 43.9825C74.6266 43.9825 66.0853 46.8685 72.697 57.9339C79.3086 68.9993 63.1329 75.8329 75.9801 78.6604C75.9801 78.6604 81.9785 79.4566 82.2157 70.4225C82.4811 61.3016 71.5412 51.7085 90.375 41.1342C90.375 41.1342 79.2909 47.7024 91.3584 63.6078C103.426 79.5131 69.6575 86.87 70.8781 100.309C72.0987 113.749 80.0326 107.693 80.0326 107.693C80.0326 107.693 84.6039 104.285 91.0178 86.8983C91.0178 86.8983 99.4893 102.02 86.3807 121.646C86.4089 121.559 73.0187 142.052 51.2504 135.274Z" fill="#000CA0"/>
</svg>
