<svg viewBox="0 0 249 286" fill="none" xmlns="http://www.w3.org/2000/svg">
<g clip-path="url(#clip0)">
<mask id="path-1-inside-1" fill="white">
<path d="M106 19.9712C102.604 20.6601 99.2659 21.5602 95.9992 22.6593C95.5231 21.5707 94.9486 20.7334 94.4641 20.145C93.7298 19.2507 92.0069 17.1547 88.9139 16.5287C87.4716 16.2371 85.9622 16.3257 84.55 16.7867C83.2201 17.221 78.8978 19.0863 78.5775 25.023C78.5517 25.5547 78.4899 26.6614 76.2328 28.6726C72.6258 31.8896 70.1935 34.7278 68.566 37.6904L68.5612 37.6893C65.3367 37.0381 62.1664 38.0934 60.0819 40.5248C58.2325 42.6857 57.5684 45.5253 58.249 48.3297C58.2844 48.4849 58.3258 48.6364 58.3682 48.7832C50.0214 59.0544 44.2685 71.2367 41.6256 84.3025L37.7976 103.243C37.6045 103.574 37.4173 103.901 37.2324 104.218C33.5907 110.587 33.4407 116.822 33.9629 122.212L30.7671 138.031C28.3859 141.465 27.2358 144.517 26.7533 147.054C21.8798 150.175 18.8725 155.465 21.3455 161.268L24.5508 168.777L13.4178 223.853C12.5716 228.036 15.2824 232.109 19.4729 232.957L55.0037 240.14L56.9251 244.64C58.3347 247.942 61.2705 250.333 64.7808 251.045C66.8296 251.461 68.9403 251.277 70.8945 250.515L72.1393 250.031L72.7156 251.147C73.8258 253.3 75.8291 254.73 78.0672 255.185C79.4226 255.456 80.8648 255.372 82.2462 254.869L87.4593 252.975C87.632 253.02 87.7998 253.064 87.9746 253.099C89.1503 253.334 90.3966 253.307 91.6152 252.959C95.2558 251.945 98.8758 250.855 102.488 249.746C103.071 249.867 103.333 256.827 103.751 257.904C104.026 259.575 104.841 261.092 106.041 262.235C107.288 264.014 109.074 265.328 111.185 266.007C111.535 266.118 111.895 266.211 112.254 266.283C114.479 266.73 116.804 266.408 118.821 265.376L136.027 256.531L165.924 262.579C170.115 263.427 174.193 260.725 175.039 256.542L179.564 234.156L180.538 233.655C182.919 232.433 184.677 230.358 185.491 227.817C186.113 225.865 186.128 223.814 185.544 221.894C185.389 219.962 184.511 218.147 183.067 216.825L184.484 209.812L211.078 191.737C215.549 188.699 217.186 182.913 214.961 177.988L198.371 141.168L203.259 116.984C205.461 106.099 205.457 95.1022 203.248 84.3022C201.116 73.875 197.037 64.0695 191.114 55.1634C185.192 46.2573 177.725 38.6946 168.924 32.6864C149.66 19.5315 128.603 15.3847 106 19.9712Z"/>
</mask>
<path d="M106 19.9712C102.604 20.6601 99.2659 21.5602 95.9992 22.6593C95.5231 21.5707 94.9486 20.7334 94.4641 20.145C93.7298 19.2507 92.0069 17.1547 88.9139 16.5287C87.4716 16.2371 85.9622 16.3257 84.55 16.7867C83.2201 17.221 78.8978 19.0863 78.5775 25.023C78.5517 25.5547 78.4899 26.6614 76.2328 28.6726C72.6258 31.8896 70.1935 34.7278 68.566 37.6904L68.5612 37.6893C65.3367 37.0381 62.1664 38.0934 60.0819 40.5248C58.2325 42.6857 57.5684 45.5253 58.249 48.3297C58.2844 48.4849 58.3258 48.6364 58.3682 48.7832C50.0214 59.0544 44.2685 71.2367 41.6256 84.3025L37.7976 103.243C37.6045 103.574 37.4173 103.901 37.2324 104.218C33.5907 110.587 33.4407 116.822 33.9629 122.212L30.7671 138.031C28.3859 141.465 27.2358 144.517 26.7533 147.054C21.8798 150.175 18.8725 155.465 21.3455 161.268L24.5508 168.777L13.4178 223.853C12.5716 228.036 15.2824 232.109 19.4729 232.957L55.0037 240.14L56.9251 244.64C58.3347 247.942 61.2705 250.333 64.7808 251.045C66.8296 251.461 68.9403 251.277 70.8945 250.515L72.1393 250.031L72.7156 251.147C73.8258 253.3 75.8291 254.73 78.0672 255.185C79.4226 255.456 80.8648 255.372 82.2462 254.869L87.4593 252.975C87.632 253.02 87.7998 253.064 87.9746 253.099C89.1503 253.334 90.3966 253.307 91.6152 252.959C95.2558 251.945 98.8758 250.855 102.488 249.746C103.071 249.867 103.333 256.827 103.751 257.904C104.026 259.575 104.841 261.092 106.041 262.235C107.288 264.014 109.074 265.328 111.185 266.007C111.535 266.118 111.895 266.211 112.254 266.283C114.479 266.73 116.804 266.408 118.821 265.376L136.027 256.531L165.924 262.579C170.115 263.427 174.193 260.725 175.039 256.542L179.564 234.156L180.538 233.655C182.919 232.433 184.677 230.358 185.491 227.817C186.113 225.865 186.128 223.814 185.544 221.894C185.389 219.962 184.511 218.147 183.067 216.825L184.484 209.812L211.078 191.737C215.549 188.699 217.186 182.913 214.961 177.988L198.371 141.168L203.259 116.984C205.461 106.099 205.457 95.1022 203.248 84.3022C201.116 73.875 197.037 64.0695 191.114 55.1634C185.192 46.2573 177.725 38.6946 168.924 32.6864C149.66 19.5315 128.603 15.3847 106 19.9712Z" fill="#EBEBEB" stroke="#000CA0" stroke-width="4" mask="url(#path-1-inside-1)"/>
<path d="M137.127 27.3829C96.6883 19.2016 57.291 45.2941 49.1287 85.6601L20.9209 225.211L167.378 254.829L195.586 115.278C203.744 74.9112 177.572 35.5605 137.127 27.3829Z" fill="#F9EB46"/>
<path d="M111.859 255.663L113.692 258.139L177.051 226.355L176.256 222.566L166.879 214.36L160.858 217.513L161.293 215.382L206.135 184.908L207.05 181.665L177.608 117.499L176.056 117.111L132.635 119.98L125.752 105.887L123.385 104.733L102.938 108.982L98.8414 109.028L29.0899 155.707L29.0212 158.146L64.5997 241.523L65.6013 242.647L67.8788 242.71L76.328 239.431L79.8105 246.862L89.0616 243.5L89.7439 244.818L109.213 239.168L114.21 241.236L110.647 243.205L111.859 255.663Z" fill="#EBEBEB"/>
<path d="M152.999 118.634C156.985 113.531 158.972 103.159 156.005 92.4738C153.037 81.7932 155.824 94.0959 149.163 95.9906C142.501 97.8853 141.348 86.7807 144.739 82.4945C148.13 78.2083 151.309 62.6589 147.104 58.0792C142.899 53.4995 147.132 60.5153 145.634 64.3498C144.136 68.1843 138.366 75.2346 135.82 73.0709C133.269 70.9061 131.649 64.5934 133.065 61.0038C134.481 57.4142 141.237 31.672 132.874 26.1702C132.874 26.1702 137.439 33.4246 133.316 42.0818C129.193 50.7389 119.778 71.715 126.354 83.6575C132.929 95.5999 135.163 98.7418 132.561 98.8527C129.959 98.9635 123.06 93.525 119.989 95.1002C116.916 96.6802 118.949 96.6564 121.736 98.0842C124.522 99.5121 127.622 100.373 130.29 105.537C132.602 110.021 137.408 112.761 137.07 119.682L152.999 118.634Z" fill="#FF58D1"/>
<path d="M69.4606 77.9206C69.4606 77.9206 72.5829 77.6252 74.8327 65.7369C74.8327 65.7369 75.3657 62.4511 78.6634 59.4521C81.9622 56.4482 88.9745 46.4327 87.7419 43.5316C86.5082 40.6354 88.0827 45.715 82.6326 47.3359C77.1824 48.9567 79.382 41.5456 82.3092 38.0809C85.2365 34.6161 89.8477 28.3184 87.7324 25.7415C85.6171 23.1647 89.3802 28.4288 81.7514 35.2287C74.1227 42.0286 74.7279 44.7192 73.4037 51.5508C72.0796 58.3823 71.1966 58.4427 70.1547 54.14C69.1127 49.8373 68.4463 46.7725 66.8751 46.2686C65.304 45.7648 67.6835 48.3416 67.9744 50.6758C68.2641 53.0148 67.244 59.1657 65.7756 62.4085C64.3072 65.6513 63.954 70.8044 66.6466 73.4786C69.3391 76.1529 69.9487 75.0506 69.4606 77.9206Z" fill="#FF58D1"/>
<path d="M35.0216 151.752C35.0216 151.752 33.1441 147.415 40.4445 139.591C47.745 131.767 37.9508 120.031 44.4671 108.639C50.9835 97.2459 56.2982 90.608 58.1612 87.0858C60.0243 83.5637 59.8244 87.058 59.8244 87.058C59.8244 87.058 58.3122 91.087 55.191 96.0338C52.0699 100.981 48.4168 104.618 48.256 107.898C48.0942 111.183 51.6873 116.92 52.8279 116.138C53.9685 115.356 58.9323 113.618 59.7869 108.362C60.6415 103.107 61.484 105.142 61.484 105.142C61.484 105.142 62.7796 111.344 59.5708 116.164C56.3619 120.984 60.915 122.707 63.9338 119.507C66.9574 116.308 69.166 115.721 70.8593 107.088C72.5527 98.4544 74.0306 94.6407 77.7609 90.5798C81.4911 86.5188 84.4323 80.7647 85.9931 77.0766C87.5539 73.3884 87.8953 73.3403 88.3918 74.8697C88.8845 76.3932 84.0366 85.3298 80.7197 91.3474C77.4028 97.365 81.1232 100.585 84.0779 98.3696C87.0277 96.1527 88.5354 91.5698 89.5006 90.5342C90.4658 89.4985 91.5093 88.0346 91.2703 91.7431C91.0312 95.4515 86.4562 102.894 87.0702 103.781C87.6841 104.668 90.1073 109.527 93.9207 105.039C97.7341 100.551 98.1151 97.8589 98.6116 99.3883C99.1043 100.912 94.9438 104.899 95.6606 107.017C96.3773 109.135 102.343 109.205 102.343 109.205L35.0216 151.752Z" fill="#FF58D1"/>
<path d="M43.7494 163.597L69.978 225.167L129.388 200.553L98.5707 130.795L43.7494 163.597Z" fill="#000CA0"/>
<path d="M101.506 109.377L123.389 104.739C124.346 104.533 125.324 105.012 125.751 105.892L170.035 196.533C170.497 197.481 170.198 198.625 169.323 199.225L159.762 205.767L149.753 210.898" stroke="#000CA0" stroke-width="2" stroke-miterlimit="10" stroke-linejoin="round"/>
<path d="M29.9218 155.229L101.505 109.377C102.71 108.605 104.321 109.067 104.933 110.359L151.037 207.679C151.626 208.92 151.037 210.398 149.752 210.898L67.6441 242.803C66.4494 243.268 65.1016 242.699 64.5999 241.523L29.0213 158.146C28.5698 157.083 28.9499 155.852 29.9218 155.229Z" stroke="#000CA0" stroke-width="2" stroke-miterlimit="10" stroke-linejoin="round"/>
<path d="M159.766 205.768L114.046 106.716" stroke="#000CA0" stroke-width="2" stroke-miterlimit="10" stroke-linejoin="round"/>
<path d="M132.636 119.98L176.052 117.11C177.146 117.037 178.168 117.653 178.619 118.649L207.051 181.664C207.571 182.824 207.185 184.191 206.137 184.903L155.446 219.346L150.803 210.354" stroke="#000CA0" stroke-width="2" stroke-miterlimit="10" stroke-linejoin="round"/>
<path d="M37.9478 162.352L96.2997 127.681C96.6762 127.458 97.1644 127.611 97.3415 128.012L130.197 202.383C130.36 202.755 130.189 203.187 129.817 203.345L66.9615 230.122C66.5897 230.28 66.1623 230.106 66.0028 229.739L37.6565 163.264C37.5096 162.931 37.6354 162.539 37.9478 162.352Z" stroke="#000CA0" stroke-width="2" stroke-miterlimit="10" stroke-linejoin="round"/>
<path d="M129.388 200.553L70.7131 225.173C70.2411 225.369 69.7013 225.153 69.5001 224.681L43.7851 164.214C43.6039 163.787 43.7675 163.297 44.163 163.058L98.5705 130.795" stroke="#000CA0" stroke-width="2" stroke-miterlimit="10" stroke-linejoin="round"/>
<path d="M43.7494 163.597L37.511 162.749" stroke="#000CA0" stroke-width="2" stroke-miterlimit="10" stroke-linejoin="round"/>
<path d="M66.3541 230.109L69.9774 225.167" stroke="#000CA0" stroke-width="2" stroke-miterlimit="10" stroke-linejoin="round"/>
<path d="M76.0324 239.545L79.8106 246.862L155.449 219.352" stroke="#000CA0" stroke-width="2" stroke-miterlimit="10" stroke-linejoin="round"/>
<path d="M89.062 243.5L89.7431 244.823C89.7431 244.823 146.996 228.696 160.034 216.238" stroke="#000CA0" stroke-width="2" stroke-miterlimit="10" stroke-linejoin="round"/>
<path d="M109.284 238.819C109.284 238.819 117.071 246.161 140.044 233.349C159.98 222.231 161.289 215.376 161.289 215.376" stroke="#000CA0" stroke-width="2" stroke-miterlimit="10" stroke-linejoin="round"/>
<path d="M122.417 240.357L124.318 244.041C124.318 244.041 130.479 243.481 142.681 236.776C154.882 230.07 158.93 225.027 158.93 225.027L157.031 221.354" stroke="#000CA0" stroke-width="2" stroke-miterlimit="10" stroke-linejoin="round"/>
<path d="M115.03 240.811L111.583 242.584C110.793 242.99 110.342 243.845 110.453 244.728L111.859 255.662L176.256 222.566L167.337 215.571C166.687 215.062 165.797 214.978 165.065 215.352L159.93 217.989" stroke="#000CA0" stroke-width="2" stroke-miterlimit="10" stroke-linejoin="round"/>
<path d="M177.134 224.274L176.252 222.565L111.854 255.662L112.736 257.371C113.115 258.108 114.024 258.398 114.762 258.02L176.479 226.3C177.228 225.919 177.518 225.012 177.134 224.274Z" stroke="#000CA0" stroke-width="2" stroke-miterlimit="10" stroke-linejoin="round"/>
<path d="M76.0071 169.475L74.5284 169.616L74.6705 171.092L76.1493 170.951L76.0071 169.475Z" fill="#2FF0CC"/>
<path d="M77.5126 167.43L75.8268 167.59L76.0092 169.484L77.695 169.324L77.5126 167.43Z" fill="#2FF0CC"/>
<path d="M75.0757 159.796L73.597 159.936L73.7391 161.413L75.2179 161.272L75.0757 159.796Z" fill="#2FF0CC"/>
<path d="M76.9037 161.111L75.2179 161.271L75.3799 162.954L77.0657 162.794L76.9037 161.111Z" fill="#2FF0CC"/>
<path d="M73.9407 164.57L75.5246 164.422L75.7086 166.316L74.1235 166.468L72.5491 166.618L72.3663 164.72L73.9407 164.57Z" fill="#2FF0CC"/>
<path d="M80.9946 170.46L81.1583 172.176L79.4748 172.337L79.3111 170.62L79.1718 169.173L80.8552 169.013L80.9946 170.46Z" fill="#2FF0CC"/>
<path d="M80.3634 163.964L78.6776 164.124L78.86 166.019L80.5458 165.858L80.3634 163.964Z" fill="#2FF0CC"/>
<path d="M79.9187 159.287L80.0667 160.807L78.3833 160.967L78.2353 159.447L78.078 157.813L79.7614 157.653L79.9187 159.287Z" fill="#2FF0CC"/>
<path d="M82.0257 165.722L80.5469 165.862L80.6682 167.122L82.147 166.981L82.0257 165.722Z" fill="#2FF0CC"/>
<path d="M83.8309 166.826L82.1451 166.986L82.3275 168.881L84.0133 168.72L83.8309 166.826Z" fill="#2FF0CC"/>
<path d="M85.3925 165.396L86.9416 165.246L88.5616 165.097L88.6818 166.362L87.0656 166.517L85.5176 166.663L83.8342 166.823L83.7091 165.557L85.3925 165.396Z" fill="#2FF0CC"/>
<path d="M90.5378 167.991L90.6892 169.563L89.0057 169.723L88.8544 168.151L88.6821 166.362L90.3655 166.202L90.5378 167.991Z" fill="#2FF0CC"/>
<path d="M92.1665 169.428L90.6877 169.568L90.8497 171.251L92.3285 171.111L92.1665 169.428Z" fill="#2FF0CC"/>
<path d="M104.716 182.669L104.411 179.514L102.935 179.656L102.773 177.976L101.09 178.136L100.946 176.662L97.7868 176.964L97.4606 173.592L94.3012 173.894L94.0179 170.953L92.3237 171.116L92.6069 174.057L89.4475 174.359L89.7738 177.731L86.6144 178.033L86.7579 179.507L85.0637 179.67L85.2255 181.35L83.5421 181.51L83.8473 184.664L82.3714 184.806L83.1416 192.805L84.6176 192.663L84.9229 195.817L86.6063 195.657L86.7707 197.348L88.4649 197.186L88.6084 198.659L91.7678 198.357L91.9297 200.038L99.9416 199.276L99.7798 197.595L102.939 197.293L102.796 195.819L104.479 195.659L104.315 193.968L105.791 193.826L105.485 190.672L107.18 190.509L106.409 182.511L104.716 182.669ZM92.2555 185.338L90.5253 185.502L90.6897 187.194L87.5303 187.496L87.3658 185.804L85.8899 185.946L85.5846 182.792L87.0606 182.65L86.9171 181.177L90.0765 180.875L90.22 182.348L91.9034 182.188L92.2555 185.338Z" fill="#2FF0CC"/>
</g>
<defs>
<clipPath id="clip0">
<rect width="198.343" height="247.538" fill="white" transform="translate(55.5508) rotate(12.9681)"/>
</clipPath>
</defs>
</svg>
