<?xml version="1.0" encoding="UTF-8"?>
<svg width="257px" height="142px" viewBox="0 0 257 142" version="1.1" xmlns="http://www.w3.org/2000/svg" xmlns:xlink="http://www.w3.org/1999/xlink">
    <title>Combined Shape</title>
    <g id="Page-1" stroke="none" stroke-width="1" fill="none" fill-rule="evenodd">
        <g id="Stickers" fill="#0B1237">
            <path d="M218.897418,5.16545883 C221.770418,6.00195883 224.408418,7.52475883 226.569418,9.59485883 C229.442418,10.4314588 232.080418,11.9541588 234.241418,14.0243588 C240.258418,15.7761588 245.241418,20.5370588 246.981418,27.0324588 L251.845418,45.1845588 C253.283418,50.5516588 252.212418,55.9999588 249.351418,60.2840588 C249.890418,63.1403588 249.738418,65.9896588 249.001418,68.6444588 C251.282418,70.8857588 253.013418,73.7470588 253.901418,77.0594588 L255.522418,83.1101588 C258.172418,92.9990588 252.303418,103.164059 242.414418,105.814059 L224.262418,110.678059 C217.766418,112.418059 211.152418,110.483059 206.626418,106.148059 C204.821418,105.623059 203.109418,104.826059 201.549418,103.793059 L196.817418,105.061059 C194.706722,105.626749 192.583568,105.804347 190.52363,105.637623 C188.822557,106.811638 186.894145,107.72017 184.782418,108.286059 L160.579418,114.771059 C155.914418,116.021059 151.186418,115.375059 147.216418,113.306059 C144.813418,117.083059 141.042418,120.006059 136.376418,121.256059 L118.224418,126.120059 C116.099088,126.689593 113.961009,126.865635 111.88753,126.692846 C110.17781,127.879731 108.237072,128.79717 106.110418,129.367059 L100.059418,130.988059 C93.6966183,132.693059 87.2194183,130.871059 82.7035183,126.721059 C80.8678183,132.573059 76.1693183,137.389059 69.8062183,139.094059 L63.7555183,140.716059 C54.3250183,143.243059 44.6438183,138.023059 41.4682183,128.957059 C36.8484183,126.678059 33.1967183,122.495059 31.7586183,117.128059 L30.4905183,112.395059 C26.2946183,110.305059 22.9050183,106.641059 21.2604183,101.946059 C17.0353183,99.8610588 13.6200183,96.1850588 11.9671183,91.4660588 C7.34731828,89.1865588 3.69563828,85.0036588 2.25752828,79.6365588 L0.636248276,73.5858588 C-2.01352172,63.6968588 3.85508828,53.5320588 13.7441183,50.8822588 L37.9470183,44.3971588 C40.0705183,43.8281588 42.2067183,43.6519588 44.2785183,43.8240588 C45.9867183,42.6391588 47.9249183,41.7235588 50.0484183,41.1546588 L68.2005183,36.2907588 C72.8662183,35.0405588 77.5933183,35.6865588 81.5635183,37.7563588 C83.9669183,33.9787588 87.7377183,31.0557588 92.4034183,29.8056588 L104.504418,26.5630588 C107.819424,25.6747889 111.165444,25.7437722 114.248993,26.6005616 C116.490288,24.317036 119.353933,22.5837762 122.669418,21.6953588 L128.720418,20.0740588 C135.215418,18.3335588 141.830418,20.2681588 146.355418,24.6032588 C148.925705,25.3514591 151.306977,26.6486059 153.327449,28.3953747 L153.701,28.727 L153.716246,28.6781001 C154.578329,25.9898733 156.045418,23.5238922 158.000418,21.4827588 C159.752418,15.4656588 164.513418,10.4831588 171.008418,8.74265883 L201.262418,0.636248826 C207.757418,-1.10420117 214.371418,0.830398826 218.897418,5.16545883 Z M216.578418,9.15075883 C213.175418,5.31005883 207.782418,3.49195883 202.495418,4.90865883 L172.258418,13.0106588 C166.971418,14.4273588 163.209418,18.6983588 162.182418,23.7260588 C159.921418,25.7347588 158.364418,28.4374588 157.758418,31.4036588 C156.063027,32.909651 154.763224,34.8057927 153.96456,36.9110935 C152.135476,32.5871502 148.301433,29.5567402 143.886418,28.6452588 C140.480418,24.7952588 135.085418,22.9707588 129.798418,24.3874588 L123.750418,26.0079588 C120.264908,26.941999 117.44307,29.1193689 115.632159,31.9378914 C112.650882,30.4036218 109.114589,29.9299895 105.624418,30.8651588 L93.5141183,34.1100588 C88.2078183,35.5318588 84.4371183,39.8275588 83.4204183,44.8807588 C80.0132183,41.0129588 74.5998183,39.1781588 69.2936183,40.5999588 L51.1282183,45.4673588 C48.9513183,46.0506588 47.0328183,47.1176588 45.4569183,48.5222588 C43.3899183,48.0937588 41.1949183,48.1289588 39.0180183,48.7122588 L14.7975183,55.2021588 C7.33291828,57.2022588 2.90699828,64.8897588 4.91203828,72.3726588 L6.53851828,78.4426588 C7.80271828,83.1609588 11.3220183,86.6713588 15.6213183,88.1197588 L15.8465183,88.9600588 C17.1107183,93.6780588 20.6300183,97.1890588 24.9293183,98.6370588 L25.1545183,99.4770588 C26.4187183,104.196059 29.9380183,107.706059 34.2373183,109.155059 L36.0889183,116.065059 C37.3532183,120.783059 40.8725183,124.294059 45.1717183,125.742059 L45.3969183,126.582059 C47.4020183,134.065059 55.0786183,138.510059 62.5433183,136.510059 L68.5984183,134.887059 C73.8923183,133.469059 77.6578183,129.190059 78.6850183,124.152059 C79.6459183,123.298059 80.4799183,122.318059 81.1679183,121.246059 C82.2997183,121.830059 83.5117183,122.262059 84.7711183,122.521059 C88.1796183,126.370059 93.5801183,128.193059 98.8744183,126.775059 L104.929418,125.153059 C107.107594,124.569119 109.02705,123.500951 110.602893,122.095571 C112.668662,122.525313 114.862192,122.491037 117.037418,121.908059 L135.180418,117.046059 C140.480418,115.626059 144.245418,111.332059 145.259418,106.280059 C148.663418,110.148059 154.071418,111.985059 159.371418,110.565059 L183.562418,104.083059 C185.833243,103.47446 187.822376,102.338106 189.433959,100.840446 C191.459813,101.2395 193.605203,101.193454 195.733418,100.623059 L202.618418,98.7780588 C204.448418,100.396059 206.680418,101.519059 209.086418,102.013059 C212.489418,105.854059 217.882418,107.672059 223.169418,106.256059 L241.311418,101.394059 C248.767418,99.3970588 253.188418,91.7240588 251.187418,84.2570588 L249.564418,78.1998588 C248.627418,74.7021588 246.447418,71.8699588 243.628418,70.0525588 C245.161418,67.0689588 245.633418,63.5261588 244.695418,60.0284588 L244.471418,59.1898588 C247.466418,55.7922588 248.758418,51.0021588 247.497418,46.2937588 L242.628418,28.1222588 C241.209418,22.8266588 236.941418,19.0565588 231.919418,18.0242588 C229.911418,15.7583588 227.211418,14.1965588 224.249418,13.5874588 C222.241418,11.3216588 219.541418,9.75975883 216.578418,9.15075883 Z M42.7448183,62.3029588 L49.2299183,86.5057588 L55.2807183,84.8844588 L60.1445183,103.037059 L66.1952183,101.415059 L69.4378183,113.517059 L63.3871183,115.138059 L65.0084183,121.189059 L58.9576183,122.810059 L55.7151183,110.709059 L49.6644183,112.330059 L44.8005183,94.1780588 L38.7498183,95.7990588 L35.5072183,83.6976588 L29.4565183,85.3188588 L26.2140183,73.2174588 L20.1633183,74.8387588 L18.5420183,68.7880588 L42.7448183,62.3029588 Z M72.9984183,54.1965588 L77.8622183,72.3486588 L83.9129183,70.7273588 L88.7768183,88.8794588 L100.877418,85.6366588 L102.498418,91.6870588 L96.4484183,93.3090588 L101.311418,111.461059 L95.5211183,113.012059 L95.2619183,113.082059 L93.6406183,107.032059 L87.5899183,108.653059 L84.3473183,96.5510588 L78.2966183,98.1730588 L75.0541183,86.0713588 L69.0033183,87.6926588 L64.1395183,69.5404588 L58.0888183,71.1617588 L54.8462183,59.0603588 L72.9984183,54.1965588 Z M122.285418,92.8710588 L123.907418,98.9210588 L129.957418,97.3000588 L131.579418,103.351059 L113.427418,108.215059 L111.806418,102.164059 L117.857418,100.543059 L116.235418,94.4920588 L118.015,94.015 L122.285418,92.8710588 Z M69.0033183,87.6926588 L72.2459183,99.7940588 L66.1952183,101.415059 L62.9526183,89.3139588 L69.0033183,87.6926588 Z M133.518418,37.9797588 L135.139418,44.0304588 L141.190418,42.4092588 L144.432418,54.5106588 L150.483418,52.8893588 L155.347418,71.0414588 L161.398418,69.4202588 L164.641418,81.5211588 L167.066,80.871 L170.691418,79.9003588 L172.312418,85.9510588 L177.304,84.613 L178.363418,84.3297588 L179.984,90.379 L166.72141,93.9346903 L155.781418,96.8660588 L150.918418,78.7134588 L126.715418,85.1986588 L128.336418,91.2490588 L122.285418,92.8710588 L120.954,87.904 L119.043418,80.7694588 L120.226,80.452 L143.246418,74.2840588 L141.624418,68.2333588 L135.574418,69.8546588 L132.331418,57.7531588 L126.281418,59.3747588 L123.038418,47.2733588 L128.829,45.72 L129.088418,45.6517588 L127.467418,39.6010588 L133.518418,37.9797588 Z M206.059418,18.5419588 L207.681418,24.5926588 L213.731418,22.9714588 L215.353418,29.0221588 L221.403418,27.4008588 L223.025418,33.4515588 L229.075418,31.8302588 L233.939418,49.9824588 L227.889418,51.6036588 L231.131418,63.7051588 L225.080418,65.3264588 L226.702418,71.3771588 L220.651418,72.9983588 L223.894418,85.0998588 L235.995418,81.8572588 L237.616418,87.9079588 L219.464418,92.7720588 L217.843418,86.7210588 L211.792418,88.3423588 L208.550418,76.2409588 L202.499418,77.8622588 L204.120418,83.9129588 L192.019418,87.1555588 L190.397418,81.1048588 L185.625,82.383 L184.347418,82.7260588 L182.725418,76.6753588 L176.675418,78.2966588 L175.053418,72.2459588 L170.626,73.432 L169.003418,73.8672588 L164.139418,55.7150588 L165.76,55.28 L170.190418,54.0938588 L166.947418,41.9923588 L172.998418,40.3711588 L171.376418,34.3203588 L177.427418,32.6991588 L175.806418,26.6484588 L206.059418,18.5419588 Z M102.065418,65.8635588 L103.396,70.829 L105.306418,77.9646588 L100.564335,79.236456 L99.2574183,79.5862588 L96.0144183,67.4847588 L102.065418,65.8635588 Z M200.878418,71.8115588 L194.827418,73.4328588 L196.448418,79.4835588 L202.499418,77.8622588 L200.878418,71.8115588 Z M201.630418,26.2139588 L183.478418,31.0778588 L185.099418,37.1285588 L179.048418,38.7498588 L186.844418,67.8461588 L188.776418,75.0541588 L193.599,73.761 L194.827418,73.4328588 L193.206418,67.3821588 L205.307418,64.1395588 L206.928418,70.1902588 L219.030418,66.9476588 L209.302418,30.6434588 L203.251418,32.2646588 L201.630418,26.2139588 Z M127.902418,65.4251588 L129.523418,71.4759588 L123.473418,73.0974588 L121.852418,67.0467588 L124.27,66.398 L127.902418,65.4251588 Z M109.302418,44.4685588 L110.923418,50.5192588 L105.132,52.071 L104.873418,52.1407588 L106.203,57.106 L107.225,60.921 L108.088,64.139 L108.115418,64.2419588 L103.372335,65.513756 L102.065418,65.8635588 L97.2014183,47.7113588 L104.559418,45.7393588 L104.627,45.721 L109.302418,44.4685588 Z" id="Combined-Shape"></path>
        </g>
    </g>
</svg>