<?xml version="1.0" encoding="UTF-8"?>
<svg width="353px" height="246px" viewBox="0 0 353 246" version="1.1" xmlns="http://www.w3.org/2000/svg" xmlns:xlink="http://www.w3.org/1999/xlink">
    <title>sticker</title>
    <g id="Page-1" stroke="none" stroke-width="1" fill="none" fill-rule="evenodd">
        <g id="sticker" transform="translate(0.6556, 0.6556)" fill="#0B1237" fill-rule="nonzero">
            <path d="M238.562735,-2.27373675e-13 C256.910759,-2.27373675e-13 271.28618,14.7267372 271.28618,33.360115 C271.28618,39.7751713 269.551594,46.4471494 266.300465,53.3611093 L266.077445,53.827445 L266.509276,53.7595845 C267.912135,53.5518739 269.323978,53.4303749 270.748437,53.3998999 L271.461735,53.39227 C289.80892,53.39227 304.18418,68.1191995 304.18418,86.752415 C304.18418,90.9907161 303.440009,95.3564565 302.014061,99.7865359 L301.797445,100.442445 L302.033873,100.405626 C303.903408,100.116277 305.944076,99.8765943 308.388719,99.6402052 L308.726445,99.607445 L308.867143,99.5643665 C309.050168,99.5135704 309.236267,99.4740036 309.4246,99.4457733 L309.708669,99.4119437 C325.691312,98.0016818 339.566661,107.148394 347.1731,121.692588 C350.539051,128.126871 352.355862,135.167874 352.291493,141.656948 C352.211869,148.779566 349.880025,154.97678 345.276679,159.161155 L345.266514,159.169836 C344.313563,160.030893 343.409659,160.853052 342.516165,161.67215 L341.921621,162.218156 L341.327617,162.765614 C338.057418,165.784955 334.696311,168.977286 329.33967,174.109249 C328.877927,174.552696 328.425216,174.986653 327.761989,175.621819 C320.776119,182.309651 317.085464,185.722571 313.177476,188.993141 C302.65891,197.796953 294.214082,201.92176 284.646735,201.92176 L284.001256,201.921369 L283.423545,201.920469 C283.27147,201.920176 283.113381,201.91983 282.948653,201.919431 L282.61016,201.918558 C280.118203,201.91178 276.176715,201.893568 268.944796,201.857627 L268.864416,201.856733 C268.791453,201.85638 268.73673,201.856116 268.69113,201.855896 L268.572585,201.855323 L268.405125,201.854513 L268.280896,201.853913 C261.434217,201.820793 257.968991,201.804741 255.780312,201.797971 L255.482988,201.797086 C255.386501,201.79681 255.292563,201.796554 255.200963,201.796316 L254.927286,201.795645 L254.795516,201.795351 L254.418444,201.794629 L252.578361,201.794677 L252.320814,201.795301 C249.824706,201.802042 245.86733,201.832372 235.915366,201.914686 L235.16141,201.920677 C225.228049,202.004042 220.25298,202.040989 217.147881,202.047642 L216.804183,202.048267 L215.687922,202.048252 L215.430648,202.047605 C213.224269,202.041096 209.419941,202.00629 201.227047,201.923596 L200.977458,201.920644 L200.941925,201.920292 C200.813263,201.919014 200.813263,201.919014 200.684612,201.917736 C192.611177,201.837546 188.986583,201.804301 186.777748,201.795967 L186.519289,201.795085 C186.477281,201.794958 186.43579,201.79484 186.394793,201.794732 L185.095578,201.794927 C183.282653,201.801551 180.249595,201.837083 173.885833,201.919856 L173.815036,201.921564 C173.749691,201.922409 173.749691,201.922409 173.684343,201.923254 C173.637212,201.923863 173.637212,201.923863 173.590081,201.924472 C167.055231,202.008959 164.235451,202.041931 162.455268,202.047781 L162.218708,202.048413 L161.756252,202.048574 C159.974376,202.043487 157.111723,201.933416 151.021074,201.661511 L150.403134,201.634425 C146.62477,201.465679 144.443032,201.372325 143.023276,201.325235 L142.975445,201.322445 L142.71122,201.9796 C138.507221,212.281992 132.116848,221.999442 124.520567,229.518895 L123.975938,230.052239 C114.351256,239.375589 103.367692,244.73676 92.375635,244.73676 C72.1094036,244.73676 55.68429,227.973027 55.68429,207.426315 C55.68429,205.701269 55.8248073,203.948388 56.0974128,202.12075 L56.188445,201.538445 L55.8626559,201.53943 L55.7639741,201.539683 L55.5573952,201.540323 C54.2072185,201.544958 52.0248437,201.56087 46.8915514,201.60065 L46.6809215,201.602687 C41.5941699,201.642799 39.0058728,201.661221 37.4122304,201.665667 L37.1555752,201.666279 L36.691335,201.66676 C15.6520996,201.66676 0,186.042476 0,164.483315 C0,154.058218 4.30203107,142.300148 11.7283447,131.553432 C18.4542278,121.821033 27.33899,113.510922 36.9897099,108.134634 L37.015445,108.120445 L37.0350801,107.626454 C37.891292,89.8032367 52.2880233,75.4804809 70.0575508,75.1870606 L70.613935,75.18247 C71.8405977,75.18247 73.0455053,75.2751089 74.3459808,75.4543521 L74.551445,75.483445 L74.9317885,74.9179688 C77.1402675,71.63573 79.2112567,68.6800411 81.3426594,65.7945949 L81.885445,65.061445 L81.9983895,64.8969257 C82.3676699,64.3534686 82.7236621,63.8548814 83.2427909,63.1459328 L83.4454558,62.8697178 L83.5386658,62.7429763 C84.1610194,61.8964926 84.3905913,61.5777932 84.6382439,61.2079466 C84.6801476,61.1461709 84.6801476,61.1461709 84.7109757,61.102396 C87.7576903,56.8252942 90.7950046,53.895709 94.5908309,51.8397008 C98.5636418,49.6880495 103.25136,48.5840297 109.295319,48.3011207 C109.740035,48.2776775 110.731797,48.2629908 112.899419,48.2423762 C114.839655,48.2239069 117.56842,48.2037179 121.052001,48.1817163 C127.17476,48.1432362 135.430235,48.1007536 145.190054,48.0562943 C147.709832,48.0448149 150.342881,48.0331765 152.996327,48.0217235 L154.324319,48.016014 C163.404673,47.9771268 172.542426,47.9410747 178.033271,47.921598 L178.383445,47.919445 L178.743855,47.4518964 C188.32038,35.0535042 197.943181,23.9069746 208.032178,14.0388037 L209.155118,12.9476023 C211.449596,10.66733 214.717385,8.04617439 218.76608,5.69718632 C224.948636,2.11016738 231.602523,-2.27373675e-13 238.562735,-2.27373675e-13 Z M238.562735,4.68889 C232.510697,4.68889 226.636588,6.55176374 221.11914,9.75289868 C217.452185,11.8804068 214.489554,14.2567888 212.436067,16.2972153 C201.728435,26.6343074 191.554034,38.4406458 181.401505,51.6869841 C180.959546,52.2636227 180.275219,52.602779 179.548697,52.6052465 C174.690296,52.6217467 165.62567,52.657047 156.336841,52.6963769 L155.008771,52.7020213 C151.686931,52.7161928 148.36068,52.7307885 145.211415,52.7451357 C135.454068,52.7895837 127.200993,52.8320539 121.081542,52.8705132 C117.602618,52.8924854 114.878272,52.9126418 112.94403,52.931054 C110.896576,52.9505258 109.883158,52.9655331 109.528371,52.9841951 C104.124802,53.2371647 100.110849,54.182504 96.8239276,55.9626813 C93.7273909,57.6399196 91.1929451,60.0844723 88.5352471,63.8154304 L88.4665093,63.9176134 C88.2156544,64.2886187 87.9748262,64.6237242 87.4627946,65.3212061 L87.3162142,65.5207122 L87.2231962,65.6471927 C86.5567684,66.5538856 86.1737703,67.0889726 85.7509282,67.7183061 L85.6842723,67.812426 C83.0119499,71.3955851 80.4570248,75.0632284 77.6179312,79.3368235 C77.1006853,80.115417 76.1703552,80.5123527 75.2503541,80.3469766 C73.4959242,80.0316067 72.0482394,79.87136 70.613935,79.87136 C54.6428501,79.87136 41.68368,93.0930661 41.68368,109.307315 C41.68368,109.332814 41.684537,109.361714 41.6862682,109.392443 C41.7378856,110.30865 41.2502123,111.170744 40.4383412,111.598489 C30.9964812,116.573059 22.1891997,124.663925 15.5857711,134.219131 C8.66416527,144.235478 4.68889,155.100477 4.68889,164.483315 C4.68889,183.451005 18.2398368,196.97787 36.691335,196.97787 L37.1627531,196.977365 L37.4246638,196.976722 C39.008181,196.972182 41.5942756,196.953762 46.6397186,196.91398 L46.8506661,196.91194 C52.0075895,196.871974 54.1897192,196.856059 55.5489534,196.85143 L55.8565495,196.850538 L55.9533412,196.850328 L56.404835,196.84987 C57.27105,196.84987 58.0916827,196.823806 58.8863273,196.768523 C60.4513956,196.659642 61.6797091,198.088851 61.3367888,199.619765 C60.7012051,202.45723 60.37318,205.00034 60.37318,207.426315 C60.37318,225.404599 74.7206639,240.04787 92.375635,240.04787 C102.015997,240.04787 111.897052,235.224844 120.713495,226.684428 C128.587623,219.056485 135.170271,208.844656 139.187216,198.119051 C139.532917,197.195999 140.419051,196.58775 141.404672,196.596973 C142.788965,196.609926 144.848669,196.692792 150.610396,196.950119 L151.228294,196.977203 C157.065249,197.237781 159.930684,197.348869 161.631944,197.359087 L162.328566,197.359247 L162.5684,197.358448 C164.335304,197.351508 167.174131,197.31814 173.529466,197.235974 L173.588818,197.235207 C173.597546,197.235094 173.60802,197.234959 173.623732,197.234755 L173.66199,197.234265 L173.719637,197.233774 L173.79016,197.232069 C180.23131,197.14806 183.266639,197.112488 185.100345,197.105988 L186.278838,197.105543 L186.531533,197.106208 C188.731914,197.112865 192.31525,197.145486 200.731183,197.229077 C200.859828,197.230355 200.859828,197.230355 200.988481,197.231633 L201.028423,197.232034 L201.278396,197.234989 C209.442349,197.317388 213.247865,197.3522 215.437524,197.358714 L215.692702,197.359361 L216.800436,197.359377 L217.142445,197.358752 C220.233125,197.352101 225.206717,197.315166 235.123104,197.231944 L235.877344,197.22595 C245.850551,197.14346 249.805815,197.113143 252.313926,197.106409 L252.698583,197.105537 L254.302164,197.10555 L254.671925,197.106193 L254.800887,197.10646 L255.207284,197.107425 C257.364438,197.113009 260.808571,197.128822 268.303577,197.165077 L268.476958,197.165916 C268.522743,197.166138 268.559631,197.166318 268.596949,197.166501 L268.770639,197.167358 L268.900674,197.168003 L268.981377,197.168899 C276.528631,197.206378 280.49007,197.224551 282.954718,197.230541 L283.274651,197.231268 L283.42831,197.231579 L283.8657,197.232305 L284.646735,197.23287 C292.897386,197.23287 300.413799,193.56154 310.168084,185.397414 C313.970534,182.215168 317.607741,178.851674 324.519167,172.235111 C325.180629,171.601634 325.631976,171.168986 326.093845,170.725419 C331.474761,165.570199 334.855269,162.359468 338.150764,159.316885 L339.348789,158.21474 L339.951387,157.663294 C340.657305,157.018412 341.375068,156.366563 342.122956,155.690794 L342.134445,155.680445 L342.407003,155.426005 C345.679605,152.285159 347.438992,147.621159 347.591948,142.084154 L347.602622,141.607431 C347.659049,135.92166 346.03748,129.637311 343.018251,123.865814 C336.229167,110.884478 324.046943,102.853884 310.12166,104.08261 L309.962394,104.14168 C309.795379,104.196791 309.622513,104.232994 309.44704,104.24948 C304.82081,104.684134 301.737306,105.109975 298.639655,105.827317 C296.772915,106.25961 295.204086,104.391494 295.952533,102.627572 C298.278365,97.1461043 299.49529,91.8037841 299.49529,86.752415 C299.49529,70.6837774 287.193615,58.08116 271.461735,58.08116 C268.382025,58.08116 265.356069,58.5788661 262.324321,59.5178153 C260.297258,60.1456075 258.545585,57.9721263 259.589736,56.1247356 C264.160157,48.0384041 266.59729,40.4228152 266.59729,33.360115 C266.59729,17.2913398 254.29548,4.68889 238.562735,4.68889 Z" id="Path"></path>
            <g id="Group" transform="translate(30.421, 29.4106)">
                <path d="M65.7949,87.7977 C67.5871,87.7977 69.8917,86.7787 71.9397,84.9947 C74.1157,82.9557 77.4437,79.7697 81.9237,74.5457 C81.0277,76.8387 80.5157,78.8777 80.5157,80.5347 C80.5157,85.7587 83.3327,87.6707 86.5327,87.6707 C91.7807,87.6707 99.4617,80.6617 109.5747,67.5367 C111.3667,68.5561 113.9267,69.703 116.7427,70.3397 C115.0787,73.9077 114.3107,77.0937 114.3107,79.6427 C114.3107,84.7397 117.5107,88.3077 122.2477,88.3077 C124.5517,88.3077 132.8717,87.9247 151.3057,69.0659 C148.6177,74.6727 147.0807,79.0057 147.0807,81.1717 C147.0807,86.5237 150.2817,88.6897 152.7137,88.6897 C160.9067,88.6897 170.6347,81.1717 176.6517,71.8697 C177.4197,71.9967 178.0597,71.9967 178.9557,71.9967 C181.7717,71.9967 187.2767,71.2317 195.8527,61.5476 C197.1327,60.1459 198.1567,58.6168 199.4367,57.0876 L197.9007,55.8134 C196.8767,57.3425 195.7247,58.6168 194.5727,59.891 C186.6357,68.9384 181.5157,69.9578 179.0837,69.9578 L178.0597,69.9578 C180.8757,65.1156 182.6677,59.891 182.6677,55.1762 C182.6677,52.2454 181.2597,49.9517 178.8277,49.9517 C174.9877,49.9517 171.0187,56.8328 171.0187,62.9493 C171.0187,65.4979 171.6587,68.0464 173.1947,69.703 C167.8187,78.2407 160.0097,86.6507 152.9697,86.6507 C151.9457,86.6507 151.4337,85.7587 151.4337,84.6117 C151.4337,83.4657 151.9457,82.0637 152.4577,80.6617 C154.6337,75.5647 159.3697,66.135 165.7707,55.1762 C180.4917,45.2368 210.9577,17.3301 210.9577,3.1857 C210.9577,0.8919 209.9337,0 208.5257,0 C206.0937,0 202.2537,2.4211 200.5897,4.0776 C179.5957,24.4661 163.8507,46.766 155.0177,62.4396 C133.7677,86.0137 124.5517,86.6507 122.7597,86.6507 C121.0947,86.6507 120.4547,85.7587 120.4547,84.1027 C120.4547,81.1717 122.6317,76.3297 125.8317,70.9777 C139.5287,70.0853 152.7137,58.9991 152.7137,51.3534 C152.7137,48.9323 151.1777,46.6385 148.2337,46.6385 C139.2727,46.6385 127.6237,54.9214 120.5827,64.4785 C119.5587,66.0076 118.5347,67.4093 117.7667,68.811 C114.6947,68.0464 112.2627,67.027 110.7267,66.0076 C115.4627,59.2539 118.6627,52.7551 118.6627,49.6968 C118.6627,48.4225 118.1507,47.9128 117.1267,47.9128 C113.9267,47.9128 106.5017,55.4311 106.5017,63.0767 C106.5017,63.8413 106.7577,64.7333 107.5257,65.6253 C100.4857,76.0747 92.2927,86.1407 86.1487,86.1407 C85.2527,86.1407 84.6127,85.6317 84.6127,84.1027 C84.6127,79.7697 105.3497,51.8631 106.7577,49.0597 L106.2457,48.8048 C106.2457,48.8048 104.7097,49.0597 102.5337,49.0597 C101.5097,49.0597 99.9737,48.9323 98.9497,48.2951 C95.8777,52.7551 90.3727,59.7636 86.1487,66.5173 C78.3397,75.9467 73.7317,81.0437 70.9157,83.5927 C69.6357,84.8667 67.7151,86.0137 66.307,86.0137 C65.4109,86.0137 64.7709,85.3767 64.7709,83.9747 C64.7709,79.6427 85.5087,51.7357 86.9167,48.9323 L86.4047,48.6774 C86.4047,48.6774 84.8687,48.9323 82.6927,48.9323 C81.6677,48.9323 80.1317,48.8048 79.1077,48.1677 C73.7317,55.8134 60.6745,71.9967 60.6745,80.2797 C60.6745,85.3767 62.8507,87.4157 65.5389,87.4157 L65.7949,87.7977 Z M172.6827,63.2042 C172.6827,57.9796 175.7557,51.6082 178.6997,51.6082 C179.5957,51.6082 179.9797,52.2454 179.9797,53.3922 C179.9797,56.3231 177.6757,62.0573 174.0917,68.1739 C173.0667,66.7722 172.6827,65.1156 172.6827,63.0767 L172.6827,63.2042 Z M201.4857,5.2245 C202.5097,4.2051 204.8137,2.8034 206.2217,2.8034 C206.8617,2.8034 207.2457,3.0582 207.2457,3.8228 C207.2457,15.0364 182.0277,41.1592 167.1787,52.3728 C176.6517,36.1895 189.3247,17.3301 201.3577,5.0971 L201.4857,5.2245 Z M147.9777,48.2951 C149.0017,48.2951 149.5137,48.9323 149.5137,49.8242 C149.5137,54.4117 138.5047,67.4093 126.3437,69.4481 C132.7437,59.2539 142.4727,48.2951 147.9777,48.2951 Z" id="Shape"></path>
                <path d="M56.0683,109.4587 C32.3864,139.4037 27.6501,140.0417 26.114,140.0417 C26.114,140.0417 24.4498,139.7867 24.4498,137.7477 C24.4498,133.4147 44.2913,106.1457 45.6995,103.3417 L45.1874,103.0877 C45.1874,103.0877 43.1393,103.9797 41.0911,103.9797 C40.067,103.9797 38.9149,103.7247 38.0189,103.0877 L35.4587,106.7827 C35.2026,104.4887 34.0506,101.6857 30.7223,101.6857 C17.9213,101.6857 -1.13686838e-13,121.5647 -1.13686838e-13,134.6897 C-1.13686838e-13,139.0217 2.0481,141.6977 6.4004,141.6977 C10.2407,141.6977 17.2813,134.3067 22.4017,128.4457 C21.5056,130.6117 20.9936,132.7777 20.9936,134.4347 C20.9936,139.7867 23.5538,141.5707 26.114,141.5707 C27.9061,141.5707 33.6665,141.3157 57.7324,110.7327 L56.1963,109.4587 L56.0683,109.4587 Z M6.5285,139.9137 C5.2484,139.9137 4.7363,139.1497 4.7363,137.8747 C4.7363,130.2297 24.7058,103.2147 30.5943,103.2147 C33.4105,103.2147 33.6665,106.7827 33.6665,108.4387 L33.6665,109.3307 C31.1063,113.0267 28.2901,117.2317 25.8579,121.4367 C23.5538,124.6227 12.0329,139.9137 6.6565,139.9137 L6.5285,139.9137 Z" id="Shape"></path>
                <path d="M45.9548,94.0407 L47.2349,94.0407 L44.0346,79.7687 C43.2666,76.7107 41.8585,75.4367 40.3223,75.4367 C38.6582,75.4367 36.9941,77.0927 36.9941,79.3867 C36.9941,80.6607 37.5061,81.8077 38.4022,83.2097 L46.0828,93.9137 L45.9548,94.0407 Z" id="Path"></path>
                <path d="M191.7577,79.7687 L182.2847,91.1097 L183.3087,91.7467 L195.5977,84.3557 C197.9017,82.9537 198.9257,81.1697 198.9257,79.7687 C198.9257,78.2387 197.9017,77.2197 196.3657,77.2197 C195.0857,77.2197 193.4217,77.8567 191.7577,79.7687 Z" id="Path"></path>
                <path d="M289.5577,109.4587 C266.5157,140.1687 256.2747,140.4237 254.3547,140.4237 C252.9467,140.4237 252.3067,139.5317 252.3067,138.0027 C252.3067,129.4647 270.7397,101.6857 279.4447,101.6857 C281.1087,101.6857 281.7487,102.7047 281.7487,104.2337 C281.7487,105.5077 281.2367,106.7827 280.4687,108.0567 C279.4447,106.6547 278.9327,106.2727 278.0367,106.2727 C274.7077,106.2727 272.5317,109.9677 272.5317,112.5167 C272.5317,113.9187 273.1717,114.9377 274.5797,114.9377 C278.9327,114.9377 283.6687,107.8017 283.6687,104.2337 C283.6687,101.8127 282.3887,99.7737 279.5727,99.7737 C269.2037,99.7737 256.0187,110.4777 250.1307,121.8187 C232.7207,139.6587 224.9127,140.2957 223.2477,140.2957 L223.1197,140.2957 C221.5837,140.2957 220.9437,139.2767 220.9437,137.7477 C220.9437,134.9437 222.9917,130.2287 226.0647,125.0047 C238.4817,122.5837 253.2027,115.0657 253.2027,104.9987 C253.2027,102.5777 251.6667,100.2837 248.7217,100.2837 C237.7137,100.2837 222.8637,112.5167 217.3597,124.2397 L216.8477,124.2397 C214.5437,124.2397 212.4957,124.1127 210.7027,123.4757 C213.5197,118.6327 215.3117,113.5357 215.3117,108.8217 C215.3117,105.8907 213.9037,103.5967 211.4717,103.5967 C207.6307,103.5967 203.6627,110.4777 203.6627,116.5947 C203.6627,119.1427 204.5587,121.1817 206.2227,122.7107 C200.8467,131.6307 192.6537,140.2957 185.4857,140.2957 C184.4607,140.2957 183.9487,139.4037 183.9487,138.2567 C183.9487,137.1107 184.4607,135.7087 184.9737,134.3067 C187.1497,129.2097 191.8857,119.7797 198.2867,108.8217 C213.0077,98.8817 243.4737,70.9747 243.4737,56.8307 C243.4737,54.537 242.4497,53.645 241.0417,53.645 C238.6097,53.645 234.6407,56.0661 232.8487,57.7227 C211.8557,78.1107 195.9817,100.5387 187.2777,116.2117 C166.1557,139.5317 156.9387,140.1687 155.1467,140.1687 C153.4827,140.1687 152.8427,139.2767 152.8427,137.6197 C152.8427,134.6887 155.0187,129.7197 158.2187,124.3677 C172.3007,123.4757 185.1017,112.7717 185.1017,104.9987 C185.1017,102.5777 183.5647,100.2837 180.6207,100.2837 C169.6117,100.2837 155.2747,112.1347 149.6427,123.8577 C136.2017,139.6587 132.6167,140.6777 131.3367,140.6777 C130.8247,140.6777 129.6727,140.1687 129.6727,138.2567 C129.6727,133.9247 150.9227,105.5077 152.2027,102.8317 L151.6907,102.5777 C151.6907,102.5777 150.1547,102.8317 147.9787,102.8317 C146.9547,102.8317 145.4177,102.7047 144.3937,102.0677 C141.9617,105.3807 137.9937,110.6057 134.2817,116.0847 C130.4407,120.7997 127.3687,124.6227 124.8087,127.6807 C121.8647,130.9937 114.3117,139.7867 110.9837,139.7867 C110.0877,139.7867 109.4477,139.2767 109.4477,137.7477 C109.4477,133.4147 130.1847,105.5077 131.5927,102.7047 L131.0807,102.4497 C131.0807,102.4497 129.5447,102.7047 127.3687,102.7047 C126.3447,102.7047 124.8087,102.5777 123.7847,101.9397 C120.8407,106.1457 115.5917,112.8987 111.3677,119.6527 C107.0157,124.8767 103.3027,128.8277 100.4867,131.5037 C95.3667,136.2187 90.5017,139.6587 84.4857,140.5507 C83.8457,139.9137 83.0777,139.6587 82.4377,139.5317 C85.2537,135.7087 87.8137,132.5227 89.4777,130.3567 C102.7907,113.6637 112.1357,105.7627 113.2877,103.4697 L112.7757,103.2147 C111.2397,103.8517 108.9357,104.2337 106.7597,104.2337 C105.4787,104.2337 104.3267,104.1067 103.4307,103.5967 L99.3347,109.7137 C99.3347,107.4197 98.6947,103.0867 94.4707,103.0867 C80.7737,103.0867 62.9799,122.0737 62.9799,133.2877 C62.9799,138.3847 65.156,140.4237 68.4847,140.4237 C73.0927,140.4237 80.0047,136.4727 85.5097,130.4837 L76.9327,142.4617 C74.1167,146.1577 54.9152,166.1637 54.9152,177.6327 C54.9152,181.3277 57.8595,184.7687 61.3157,184.7687 C70.2767,184.7687 86.6617,163.9977 86.6617,147.1767 C86.6617,144.6287 86.0217,142.7167 85.2537,141.5697 C91.5257,140.2957 96.2627,137.6197 101.3827,132.9047 C103.0467,131.3757 104.9667,129.3367 107.0157,127.0437 C105.8627,129.7197 105.0947,132.1407 105.0947,134.0517 C105.0947,139.1487 107.2717,141.4427 109.9597,141.4427 C111.7517,141.4427 113.9277,140.5507 115.9757,138.8947 C118.4077,136.7277 122.1207,133.2877 127.4967,126.9157 C126.0887,129.8467 125.1927,132.3957 125.1927,134.5617 C125.1927,139.9137 128.2647,142.2077 130.6967,142.2077 C132.1047,142.2077 135.6897,141.6977 147.2107,128.9547 C146.8267,130.3567 146.5707,131.8857 146.5707,133.1597 C146.5707,138.2567 149.7707,141.8247 154.5067,141.8247 L154.6347,141.8247 C156.8107,141.8247 165.1317,141.4427 183.4367,122.7107 C180.7487,128.3177 179.2127,132.5227 179.2127,134.6887 C179.2127,140.0407 182.4127,142.2077 184.8447,142.2077 C193.1657,142.2077 203.1507,134.3067 209.2947,124.7497 C211.0877,125.5147 213.2637,126.0237 215.9517,126.0237 C214.9277,128.4447 214.4157,130.8667 214.4157,133.1597 C214.4157,138.5117 217.6157,141.8247 222.2237,141.8247 L222.4797,141.8247 C224.5287,141.8247 231.8247,141.4427 247.5697,126.2787 C246.8017,128.5727 246.2897,130.7387 246.2897,132.9047 C246.2897,138.1297 248.7217,141.9527 253.3307,141.9527 C255.1227,141.9527 266.6437,141.9527 290.3257,110.6057 L288.7887,109.3307 L289.5577,109.4587 Z M248.8497,101.8127 C249.8737,101.8127 250.3867,102.4497 250.3867,103.3417 C250.3867,108.5667 241.8097,119.3977 227.0887,123.0927 C233.4887,112.8987 243.3457,101.8127 248.8497,101.8127 Z M234.3847,58.7421 C235.4087,57.7227 237.7137,56.321 239.1217,56.321 C239.7617,56.321 240.1457,56.5758 240.1457,57.3404 C240.1457,68.554 214.9277,94.6767 200.0787,105.8907 C209.5507,89.7067 222.2237,70.8477 234.2567,58.6147 L234.3847,58.7421 Z M71.4287,138.2567 C70.4047,138.2567 69.7647,137.4927 69.7647,135.9637 C69.7647,128.4447 88.9657,104.6157 94.7267,104.6157 C97.0307,104.6157 97.9267,106.9097 97.9267,109.7137 C97.9267,110.9877 97.7987,112.0067 97.4147,113.2817 C94.9827,116.9767 92.5497,120.9267 89.4777,125.3867 L89.2217,125.6417 C85.1257,129.4647 75.3967,138.3847 71.4287,138.3847 L71.4287,138.2567 Z M65.54,179.7987 C63.2359,179.7987 62.4678,178.5247 62.4678,176.7407 C62.4678,168.8397 72.3247,153.6757 80.6457,142.3347 L83.8457,141.8247 C84.6137,142.7167 85.3817,144.3737 85.3817,147.1767 C85.3817,163.1057 72.4527,179.6707 65.54,179.6707 L65.54,179.7987 Z M180.8767,101.8127 C181.9007,101.8127 182.4127,102.4497 182.4127,103.3417 C182.4127,107.9297 171.4037,121.5637 159.2437,123.0927 C165.5157,112.8987 175.3727,101.8127 180.8767,101.8127 Z M207.1187,121.1817 C206.0947,120.1627 205.4547,118.6327 205.4547,116.5947 C205.4547,111.3697 208.5267,104.9987 211.4717,104.9987 C212.3677,104.9987 212.7517,105.6357 212.7517,106.7827 C212.7517,109.7137 210.5747,115.3197 207.2467,121.1817 L207.1187,121.1817 Z" id="Shape"></path>
            </g>
        </g>
    </g>
</svg>