<svg xmlns="http://www.w3.org/2000/svg" viewBox="0 0 1200 408"><path d="M883,408V349.5c-1.51.64-2.7,1-3.78,1.6-7.18,3.87-14.71,7.23-21.4,11.81-8,5.45-16,5.39-24.66,3-9.23-2.55-16.65-7.45-21.58-15.78a71.64,71.64,0,0,1-9.23-29.25c-2.23-20.77-2.52-41.58,1.63-62.16,4.4-21.82,23.09-36.7,45.42-36.75,20-.05,40,0,60,0h5.14v6.69q.15,87.2.3,174.38c0,1.66.13,3.32.2,5Zm-.84-153.26c-9.94,0-19.23-.29-28.49.09-7.72.33-13.38,4.65-15.71,11.9a94.27,94.27,0,0,0-4.23,20.4c-1.05,11.8-1,23.7,3.32,35,3.34,8.73,15,14.06,22.58,10.42,6.75-3.22,13.36-6.75,19.91-10.38a5.22,5.22,0,0,0,2.51-3.66C882.2,297.39,882.16,276.25,882.16,254.74Z"/><path d="M1200,327c-.82,3.34-1.52,6.73-2.49,10-5.36,18.26-18.7,27.34-36.45,30.65-12.91,2.4-25.86,1.34-38.66-1.58-14.52-3.31-23.93-12.33-29.57-25.81-4.63-11.05-6.5-22.68-7.38-34.49-1.12-15-1.22-30,2.61-44.66,5.4-20.73,18.48-33.68,39.66-37.25a113.14,113.14,0,0,1,27.8-1.36c24.57,2,40,17.72,43.41,42.66.22,1.62.71,3.21,1.07,4.81v32h-84.36c2,9.19,3.51,17.28,5.75,25.15.75,2.64,3.08,5.21,5.34,7,16.67,13.05,39.93,4.59,44.29-15.95.06-.27.39-.49,1-1.18h28Zm-29.11-47.26c-.72-11.22-1-22.3-12-27.88-10.33-5.25-21.17-4.56-30.79,2.22-8.75,6.17-10.35,15.54-10.14,25.66Z"/><path d="M0,74c.53-3.77,1.16-7.53,1.57-11.31,2.09-19.19,13.61-30.63,31-36.61,20.43-7,40.38-5.71,58.9,6.12,10.8,6.9,17.39,16.72,18.75,29.78a310.31,310.31,0,0,1,.27,64.85c-1,9.5-4.1,18.17-12,25.87H122.6v15c-1.35.11-2.77.34-4.19.34-21.5,0-43,.23-64.49,0-14.55-.17-27.83-4.4-39.1-14.07-9.56-8.21-12.71-19.15-13.74-31.09C.86,120.22.37,117.62,0,115ZM18.32,91c.64,11.21.8,20.22,1.74,29.14,2.17,20.71,12,30.87,32.41,32.38,19.44,1.44,35.75-5.89,38.93-28.8,2.8-20.18,3-40.51-.62-60.65-2.46-13.7-10.92-22.26-24.71-24.63A72.75,72.75,0,0,0,49.18,38c-15,1-25.73,10.11-28.24,25C19.25,72.88,19,83.08,18.32,91Z"/><path d="M362,0V11.55H293V0Z"/><path d="M293.18,225.59c7.31,0,14.43-.14,21.54.13,1.19,0,2.76,1.6,3.39,2.84,2.17,4.28,4,8.73,6.26,13.74,5.5-2.73,10.78-5.36,16.07-8l13.43-6.62c11.46-5.62,21.68-3.77,30.43,5.7,2.46,2.66,4.48,5.73,7,9.05l26.53-10.86c3.53-1.45,7.25-2.59,10.57-4.43,16.78-9.3,36.89,2.56,41.56,16.62,2.79,8.4,5.24,17.35,5.43,26.11.71,31.64.4,63.3.47,95a11.65,11.65,0,0,1-.35,1.81h-32c0-10.92,0-21.85,0-32.77-.05-18.16,0-36.32-.26-54.48a69.67,69.67,0,0,0-1.63-15.33c-1.79-7.48-8.32-10.3-15.49-7.32-7.38,3.06-14.67,6.34-22.12,9.2-3.05,1.17-3.75,2.9-3.72,6,.2,29.49.24,59,.32,88.47,0,2,0,3.95,0,6.35H368.14V345.29c0-21.49.07-43-.17-64.48a53.91,53.91,0,0,0-2.05-15.2c-2.78-9-10.42-11.89-18.94-7.94-5.88,2.74-11.68,5.7-17.7,8.09-3.37,1.34-4.25,3.21-4.23,6.69.19,29.65.17,59.31.22,89v5.48H293.18Z"/><path d="M588.44,317.39h27.94c4.55,22-10,44.83-32.38,50.4-15.86,3.95-31.75,3-47.38-1.38-15-4.19-24-14.81-28.41-29.07a144.13,144.13,0,0,1-3.8-71.61c4.91-24.52,19.1-37.77,43.9-41.18a108.52,108.52,0,0,1,30.75.43c17.24,2.64,28.54,13.28,34.13,29.9,5.28,15.69,4,31.79,3.6,48.51H535c-.16,11-.06,21.42,5.72,30.32,2.37,3.64,7.22,6.73,11.51,7.82a57.39,57.39,0,0,0,18.78,1.1c9.1-.79,14.2-6.19,16-15.29C587.56,324.25,587.89,321.11,588.44,317.39ZM587.8,281c-.08-24.5-5.59-35-32.16-31.39-15.42,2.09-23.82,16-20,31.39Z"/><path d="M224.17,222.12h32.21V367.67c-7.12,0-14.42.13-21.7-.14-1.15,0-2.65-1.71-3.28-3-2.19-4.42-4.07-9-6.21-13.83-11.21,5.2-22.24,9.85-32.79,15.4-6.88,3.61-13.34,3.23-20.16.87-17.28-6-27.76-21.76-28-43.09-.27-29-.16-58-.21-87,0-4.8,0-9.59,0-14.69h32.25c0,7.9-.05,15.66,0,23.43.16,24.49.19,49,.63,73.45.16,9.34,4.85,15.87,12.17,17.45a16,16,0,0,0,9.49-1c7.67-3.59,15-8,22.5-11.9,2.58-1.33,3.39-2.94,3.37-5.83-.2-30.16-.22-60.31-.3-90.46Z"/><path d="M1024.68,222.15h32v143.6c-7.22,0-14.64.12-22-.13-1,0-2.19-1.72-2.77-2.9-2.2-4.45-4.17-9-6.33-13.72-11.66,5.42-23.08,10.45-34.22,16-5,2.53-9.85,2.55-15,1.25-18-4.59-30.67-19.76-31.2-39.32-.74-27.14-.57-54.3-.77-81.46,0-7.63,0-15.26,0-23.22h32.36v5.23c0,27.65,0,55.31.22,83a48.25,48.25,0,0,0,1.86,13.76c3.19,10.32,12.59,13.85,22,8.77,6.74-3.62,13.38-7.45,20.23-10.86,3-1.49,3.85-3.32,3.83-6.59-.2-29.82-.21-59.65-.27-89.47C1024.67,225,1024.68,223.8,1024.68,222.15Z"/><path d="M6.15,226.07c7.28,0,14.57-.1,21.85.13,1,0,2.35,1.56,2.91,2.7,2.21,4.46,4.16,9,6.39,14,11.61-5.38,23.12-10.46,34.38-16,4.85-2.41,9.5-2.51,14.49-1.32,19.1,4.52,31.39,20.72,32,43,.41,16.31.18,32.64.22,49q.06,23,.08,46c0,1.29-.14,2.59-.23,4.16H86.1v-5.43Q86,320,85.87,277.73a43.43,43.43,0,0,0-1.13-10.37c-2.21-8.71-12.33-13.49-20.61-10-7.21,3-14.32,6.31-21.64,9-3.54,1.32-4.64,3.13-4.61,6.88.22,29.48.2,59,.25,88.44v5.88h-32Z"/><path d="M486.62,94.62c15.28,10,20.2,38.85,11.3,55-5.43,9.84-14.17,15.49-25,15.83-15.25.48-30.69.57-45.79-1.27-16-1.94-21.94-9.78-22.36-26.13-.52-20.47-.38-40.95-.48-61.43q-.11-21.48-.1-43c0-1.45.14-2.91.24-4.95H423l39-.07c1.33,0,2.67,0,4,.09,29.22,1.64,44.23,29.27,29.71,55C493.44,87.67,489.83,90.82,486.62,94.62Zm-64.26,7.2c0,10.56-.5,20.87.14,31.12.72,11.57,6.29,17,17.95,18.12a160.35,160.35,0,0,0,23.4.43c11-.6,18.12-6.43,19.68-16.39a52.59,52.59,0,0,0-.24-17.3c-2-11-9.1-16.32-21-16.51s-23.95,0-35.92,0A32.37,32.37,0,0,0,422.36,101.82Zm0-15.76c15,0,29.64.82,44.14-.29,10.06-.76,16.08-9.58,15.49-20-.56-9.87-4.8-21.51-16.14-22.11-14.39-.77-28.84-.19-43.49-.19Z"/><path d="M721.72,225c-3,10.76-5.88,21-8.86,31.61-12.67-3.23-23.56,1.49-34.38,6.89-3.39,1.69-4.72,3.64-4.69,7.61.24,29.81.18,59.62.21,89.43v5.85H641.89V224.8c7.28,0,14.73-.11,22.17.12,1.08,0,2.38,1.53,3.13,2.64,2,3,3.83,6.16,5.87,9.49,10.71-4.43,21.08-8.85,31.55-13A18.89,18.89,0,0,1,721.72,225Z"/><path d="M230,29.32h18c.11,1.78.28,3.38.28,5q.12,42.48.2,85c0,26.15-15.47,43.92-41.56,47.67-16.68,2.41-32.59.5-46.85-9.25-11.3-7.72-17.89-18.45-18.07-32.23-.39-31.32-.35-62.64-.48-94a11.08,11.08,0,0,1,.38-1.84h18.32c0,3,0,5.94,0,8.88.09,26.65.32,53.31.21,80-.06,13.92,3.81,25.71,17.52,31.35,14.38,5.92,28.73,5.43,41.6-4.36,7.9-6,10.5-14.75,10.51-24.3,0-28,0-56-.06-84Z"/><path d="M282.06,29.08h90.07v14h-71V89.71h49.3c-.37,4.93-.71,9.45-1.07,14.36h-49c.57,12,.34,23.64,1.9,35,1.15,8.44,9,12.62,20.7,12.75,14.83.15,29.66,0,44.5,0h5.14v13.93c-1.5.11-2.78.29-4.07.3-16.67,0-33.33.11-50-.05a84.09,84.09,0,0,1-13.89-1.33C289,162,282.28,153.15,282.16,135c-.16-24.17-.08-48.33-.1-72.5C282.05,51.55,282.06,40.59,282.06,29.08Z"/><path d="M622.24,42.68h-69.4V89h48.35c-.46,5-.87,9.53-1.34,14.62H553.29c0,11.36-.65,22.17.2,32.86.71,8.87,7.5,14.13,17.6,14.41,15.31.42,30.64.21,46,.26h5.59c.47,5,.9,9.36,1.3,13.6-.56.4-.83.75-1.09.74-21.61-.39-43.32.3-64.8-1.59-16.76-1.48-22.9-10.2-23.08-27.53-.26-25.49-.16-51-.2-76.45,0-10.31,0-20.62,0-31.34h87.47Z"/><path d="M735.71,119.47h15.53c.35,29.89-21.46,49.75-51.88,47.07a77.12,77.12,0,0,1-19.9-4.13c-14.62-5.46-23-17.07-26.19-31.78a150.2,150.2,0,0,1,.84-69.76c5.54-21.8,20.17-33.29,42.58-33.66,8.69-.15,17.78.52,26,3,17,5,26.26,17.27,28.1,35.81-5.25,0-10.33.12-15.39-.12-.84,0-1.94-1.54-2.36-2.6-8-19.77-24.63-27.21-44.76-19.82C676.07,48,670.1,57.71,669.48,69.91c-.88,17.25-1.43,34.67,0,51.84,2.06,24.61,22.81,36.72,46.28,28.62,8.46-2.92,13.39-9,16.15-17.13C733.41,128.85,734.4,124.3,735.71,119.47Z"/><path d="M775.6,230.12V366.05h-32V230.12Z"/><path d="M528.94,210.43V191.49h68.73v18.94Z"/><path d="M743.3,210.41v-18.9h32.14v18.9Z"/></svg>